<?xml version="1.0" encoding="UTF-8"?>
<svg width="1699px" height="3189px" viewBox="0 0 1699 3189" version="1.1" xmlns="http://www.w3.org/2000/svg" xmlns:xlink="http://www.w3.org/1999/xlink">
    <!-- Generator: Sketch 53.2 (72643) - https://sketchapp.com -->
    <title>NotDone</title>
    <desc>Created with Sketch.</desc>
    <defs>
        <path d="M176,54 L55,159" id="path-1"></path>
        <filter x="-39.6%" y="-45.5%" width="179.1%" height="191.1%" filterUnits="objectBoundingBox" id="filter-2">
            <feMorphology radius="5.5" operator="dilate" in="SourceAlpha" result="shadowSpreadOuter1"></feMorphology>
            <feOffset dx="0" dy="0" in="shadowSpreadOuter1" result="shadowOffsetOuter1"></feOffset>
            <feMorphology radius="6" operator="erode" in="SourceAlpha" result="shadowInner"></feMorphology>
            <feOffset dx="0" dy="0" in="shadowInner" result="shadowInner"></feOffset>
            <feComposite in="shadowOffsetOuter1" in2="shadowInner" operator="out" result="shadowOffsetOuter1"></feComposite>
            <feGaussianBlur stdDeviation="12" in="shadowOffsetOuter1" result="shadowBlurOuter1"></feGaussianBlur>
            <feColorMatrix values="0 0 0 0 0.477015399   0 0 0 0 0.289631838   0 0 0 0 0.270893482  0 0 0 0.815477491 0" type="matrix" in="shadowBlurOuter1"></feColorMatrix>
        </filter>
        <path d="M220,114 C226.75717,141.951035 226.75717,165.561776 220,184.832223 C213.24283,204.10267 193.215514,236.648251 159.91805,282.468966" id="path-3"></path>
        <filter x="-74.7%" y="-28.3%" width="246.1%" height="157.2%" filterUnits="objectBoundingBox" id="filter-4">
            <feMorphology radius="5.5" operator="dilate" in="SourceAlpha" result="shadowSpreadOuter1"></feMorphology>
            <feOffset dx="0" dy="0" in="shadowSpreadOuter1" result="shadowOffsetOuter1"></feOffset>
            <feMorphology radius="6" operator="erode" in="SourceAlpha" result="shadowInner"></feMorphology>
            <feOffset dx="0" dy="0" in="shadowInner" result="shadowInner"></feOffset>
            <feComposite in="shadowOffsetOuter1" in2="shadowInner" operator="out" result="shadowOffsetOuter1"></feComposite>
            <feGaussianBlur stdDeviation="12" in="shadowOffsetOuter1" result="shadowBlurOuter1"></feGaussianBlur>
            <feColorMatrix values="0 0 0 0 0.477015399   0 0 0 0 0.289631838   0 0 0 0 0.270893482  0 0 0 0.815477491 0" type="matrix" in="shadowBlurOuter1"></feColorMatrix>
        </filter>
        <path d="M0.409433871,70.3374575 C17.422039,48.4819088 26.8622212,32.5512081 28.7299804,22.5453553 C30.5977395,12.5395026 23.8162361,5.35022179 8.38547009,0.97751301" id="path-5"></path>
        <filter x="-170.2%" y="-68.9%" width="432.7%" height="239.1%" filterUnits="objectBoundingBox" id="filter-6">
            <feMorphology radius="5.5" operator="dilate" in="SourceAlpha" result="shadowSpreadOuter1"></feMorphology>
            <feOffset dx="0" dy="0" in="shadowSpreadOuter1" result="shadowOffsetOuter1"></feOffset>
            <feMorphology radius="6" operator="erode" in="SourceAlpha" result="shadowInner"></feMorphology>
            <feOffset dx="0" dy="0" in="shadowInner" result="shadowInner"></feOffset>
            <feComposite in="shadowOffsetOuter1" in2="shadowInner" operator="out" result="shadowOffsetOuter1"></feComposite>
            <feGaussianBlur stdDeviation="12" in="shadowOffsetOuter1" result="shadowBlurOuter1"></feGaussianBlur>
            <feColorMatrix values="0 0 0 0 0.477015399   0 0 0 0 0.289631838   0 0 0 0 0.270893482  0 0 0 0.815477491 0" type="matrix" in="shadowBlurOuter1"></feColorMatrix>
        </filter>
    </defs>
    <g id="Page-1" stroke="none" stroke-width="1" fill="none" fill-rule="evenodd">
        <g id="NotDone" transform="translate(-11.000000, -45.000000)">
            <g id="Group-29" transform="translate(521.000000, 208.000000)">
                <g id="Eye" transform="translate(697.871430, 194.000000)">
                    <path d="M8.68770779,5.00902245 C8.88036838,6.52293704 8.88036838,9.19537203 8.68770779,10.9317421 C8.0265022,16.8909139 7.29834419,20.2843052 8.00848274,21.2731875 C9.38406843,23.1887184 13.0649174,30.3432838 9.8597375,32.1554838 C6.65455757,33.9676839 -1.78192837,45.9634216 0.337155234,45.9634216 C2.45623884,45.9634216 6.52078436,45.6770411 9.8597375,43.4997554 C13.1986906,41.3224698 14.9764172,37.050074 16.1387424,34.6027789 C17.3010676,32.1554838 19.4767295,22.0992597 18.3888985,18.8902105 C17.3010676,15.6811613 22.0194017,9.41584331 19.6602347,6.52293704 C17.3010676,3.63003078 16.2324707,-1.07030716 13.1986906,0.812522616 C10.1649105,2.6953524 10.1514934,1.72539939 8.68770779,5.00902245 Z" id="eye-shdow" fill-opacity="0.215472028" fill="#7B5042"></path>
                    <path d="M9.21999008,33.6073308 C9.21999008,32.4799889 8.42993652,31.1407095 9.84425309,29.0499114 C11.2585697,26.9591133 12.538718,25 13.5984275,25 C14.6581369,25 15.5294838,28.3413315 14.052281,30.9743311 C12.5750783,33.6073308 9.21999008,34.7346728 9.21999008,33.6073308 Z" id="white" fill="#AFABA9"></path>
                    <path d="M11.9183558,26.1417011 C12.1363259,28.2295751 12.1363259,29.6867679 11.9183558,30.5132796 C11.2196546,33.1626563 9.65994252,34.7979801 9.65994252,35.338346 C9.65994252,36.5281888 8,35.9341323 8,34.0617506 C8,32.1893688 9.73462908,26.4251032 10.4868799,26.1417011 C10.9883805,25.9527663 11.4655391,25.9527663 11.9183558,26.1417011 Z" id="pupil" fill="#101010"></path>
                    <path d="M7.59607843,23.3860217 C8.33663769,24.0147984 14.5397462,28.1569165 13.4400033,30.2228384 C12.3402605,32.2887604 6.98908286,34.9994868 6.05126031,37.9604909 C5.11343776,40.921495 3.94891236,46.1255471 6.79592922,44.1348318 C9.64294608,42.1441165 17.1308816,37.4689765 18.3711746,32.3331446 C19.6114675,27.1973128 21.0843667,22.0466861 18.3711746,20.5984448 C15.6579824,19.1502035 9.45528492,20.6539251 8.52568168,21.7039412 C7.59607843,22.7539572 6.85551917,22.7572449 7.59607843,23.3860217 Z" id="dark-eye" fill="#D29677"></path>
                </g>
                <g id="Head" transform="translate(538.508685, 72.977513)">
                    <path d="M253.194606,474.033309 C257.14909,481.911635 266.185622,492.997927 277.117754,497.925127 C285.603979,501.749937 295.446196,500.532489 303.575155,499.7218 C310.214234,499.059694 320.2686,509.188284 322.589663,498.8682 C326.914505,479.638769 338.577681,476.673009 347.546134,472.211582 C371.948028,460.072669 388.479759,450.239692 404.813426,419.504622 C408.80148,412.000298 430.337539,397.254312 423.172729,395.624414 C405.304398,391.559608 357.566261,344.422793 361.138733,304.468907 C361.854035,296.469097 373.969369,292.15508 380.70145,285.35071 C396.8715,269.007023 405.427,247.594196 405.427,235.065956 C405.427,213.510814 405.275552,220.589544 402.760372,203.594739 C401.482038,194.957176 393.225286,181.830689 380.792201,182.16026 C368.019217,182.498841 318.867799,54 252.908638,54 C194.064017,54 135.944833,65.9271373 120.308004,108.770893 C116.061351,120.406409 111.894334,135.613902 106.443584,150.97502 C103.613297,158.951235 102.44757,166.121043 100.409751,173.620815 C99.4319198,177.219521 95.8639872,180.920928 96.3195595,184.773468 C96.884395,189.549992 102.55557,200.001344 106.783453,202.897464 C113.541883,207.527019 119.817876,204.387543 119.817876,214.872602 C119.817876,221.164495 115.86352,226.507058 112.753533,230.782235 C105.92103,240.174605 103.120488,249.030733 99.1800625,257.709508 C95.9201022,264.88956 91.0248831,271.669848 90.0540972,281.01701 C89.1896365,289.340425 98.8825093,300.476029 105.040698,302.569178 C110.852299,304.544522 121.678569,310.510453 110.660301,341.759285 C115.13777,354.860759 122.89632,370.237014 126.287399,382.912816 C128.547572,391.361311 128.231929,404.349506 129.282041,416.068606 C129.949296,423.515078 130.983665,430.34467 134.173186,435.507526 C152.576147,465.296276 182.82311,446.743345 206.63727,443.83085 C213.545349,442.985986 229.045409,438.151682 238.795076,443.856586 C248.180332,449.34826 251.051144,466.654327 253.194606,474.033309 Z" id="Face-Skin" fill="#C18A6E" transform="translate(257.310643, 278.765485) rotate(30.000000) translate(-257.310643, -278.765485) "></path>
                    <g id="inner-Ear" transform="translate(316.362745, 246.022487)">
                        <path d="M43.8561106,68.8125841 C48.1108407,70.6025829 48.1108407,72.6320658 43.8561106,74.9010327 C37.4740154,78.304483 38.6263434,82.5390939 43.8561106,82.5390939 C49.0858778,82.5390939 55.9975905,80.933127 60.7084888,78.304483 C65.4193871,75.675839 78.3495237,69.0541507 83.290601,55.4972225 C88.2316783,41.9402943 90.2747509,34.9323502 83.290601,29.0742643 C76.3064511,23.2161783 51.1042794,28.8599636 47.6835908,32.4758883 C44.2629021,36.091813 41.7065078,39.2737636 37.627804,40.6070289 C33.5491001,41.9402943 32.9867071,44.4767283 34.7164925,45.9880281 C35.8696828,46.9955613 38.9162222,54.6037466 43.8561106,68.8125841 Z" id="Path-16" fill="#D09C7D"></path>
                        <path d="M38.0785477,51.4362883 C31.2638857,57.7816933 27.0175963,60.9543958 25.3396796,60.9543958 C22.8228044,60.9543958 17.6836179,70.5119918 27.8810828,68.9098514 C38.0785477,67.307711 39.9751893,65.8538632 44.3958603,68.9098514 C48.8165313,71.9658397 56.775294,72.8381484 61.1808971,68.9098514 C65.5865003,64.9815544 69.100195,55.7617204 67.3244716,51.4362883 C65.5487481,47.1108562 59.0921783,39.6241372 54.5363777,41.9913732 C49.980577,44.3586091 48.3766384,53.0190177 44.7949098,51.4362883 C42.4070908,50.3811353 40.1683034,50.3811353 38.0785477,51.4362883 Z" id="Path-3" fill="#CC9879"></path>
                        <path d="M47.7004569,51.5996681 C47.7004569,51.5996681 46.5708456,37.6102396 61.0524813,32.642005 C75.534117,27.6737704 72.9628736,27 69.1642944,27 C65.3657153,27 51.8454168,31.4006511 47.7004569,35.3502426 C43.555497,39.2998341 36.4746479,54.6499593 33.8658064,56.5913954 C31.2569648,58.5328315 36.1551882,52.8989467 39.4786082,53.3847436 C42.8020282,53.8705406 45.0402989,55.1698192 46.8277274,53.3847436 C48.6151559,51.5996681 47.7004569,51.5996681 47.7004569,51.5996681 Z" id="Path-15" fill="#D09C7D"></path>
                        <path d="M25.6145898,117.888712 C22.2693679,104.213433 18.9833827,95.9069035 15.7566344,92.9691218 C12.7139673,90.1989362 11.7286349,81.0918794 15.7566344,69.8294588 C16.0003282,69.1480827 17.6181942,68.2790361 18.0045351,69.8294588 C18.0045351,73.9834172 16.9316198,79.7640282 16.9316198,84.1632387 C16.9316198,87.4126489 25.8611432,105.594568 30.0983627,108.820366 C31.3349711,109.761797 33.2508624,111.042489 33.0819252,111.237951 C32.7122695,111.665647 28.9102036,112.035523 27.8013636,114.6497 C26.7243014,117.188958 25.9953768,118.268628 25.6145898,117.888712 Z" id="Path-17" fill="#CC9879" transform="translate(23.092384, 93.462878) rotate(-38.000000) translate(-23.092384, -93.462878) "></path>
                        <path d="M19.8724826,14.4259063 C19.8724826,15.1980089 24.7817249,14.998298 28.2107182,15.4720588 C33.378567,16.1860655 38.3471524,17.4807071 43.2522368,18.3843425 C50.8443444,19.7829926 61.462276,27.7559906 62.299037,28.0556788 C64.0561357,28.6849884 61.9713195,22.6517227 53.2908849,19.6152187 C41.5049033,15.492363 19.8005631,12.7880402 19.8724826,14.4259063 Z" id="Path-17" fill="#CC9879" transform="translate(41.372304, 21.021065) rotate(-50.000000) translate(-41.372304, -21.021065) "></path>
                    </g>
                    <path d="M140.721369,235.762524 C137.748793,227.733256 134.065365,222.734526 129.671087,220.766333 C125.276808,218.79814 122.733144,219.539628 122.040095,222.990797 C125.897819,226.150505 129.011365,228.514903 131.380732,230.083993 C133.750099,231.653082 136.863644,233.545926 140.721369,235.762524 Z" id="Nose" fill="#171000"></path>
                    <path d="M159.362745,219.694126 C162.884725,233.956825 162.000376,241.399611 156.709697,242.022487 C148.773679,242.9568 117.362745,227.728325 117.362745,227.728325 C117.362745,227.728325 148.982329,252.359341 163.371228,246.082444 C177.760126,239.805546 159.362745,235.771975 167.362745,208.390824 C172.696078,190.136723 178.696078,178.189371 185.362745,172.548766 L156.709697,215.644452 L159.362745,219.694126 Z" id="Path-21" fill-opacity="0.177283654" fill="#9C6E58"></path>
                </g>
                <g id="Mouth" transform="translate(633.871430, 332.902727)">
                    <path d="M1.99271762,4.1400695 C1.59063831,10.3457558 -0.66368144,10.2017892 4.70516491,14.5210301 C10.0740113,18.8402709 40.5498386,40.4119768 42.8380533,43.0250517 C43.8132316,44.1386771 44.5581711,42.5061293 42.5275707,39.4964196 C39.7934533,35.443973 33.5827162,28.9768698 30.8486381,24.1316922 C26.0839889,15.688052 18.2368027,3.63271955 11.4709838,1.85102531 C4.70516491,0.0693310618 2.39479692,-2.06561682 1.99271762,4.1400695 Z" id="Path-18" fill="#B58167"></path>
                    <path d="M42.8380533,43.0250517 C15.4744977,30.3085279 1.36472608,23.137686 0.508738483,21.5125258 C-0.347249118,19.8873657 -0.123043067,16.0948822 1.18135663,10.1350753 L42.8380533,43.0250517 Z" id="Path-19" fill="#B58167"></path>
                    <path d="M1.35065634,8.48873163 C1.35065634,9.29935061 1.2151054,9.4326341 1.06502069,9.99402817 C0.930686166,10.4965084 1.06844013,9.80506438 1.06502069,10.1350753 C1.06358754,10.2733893 1.14436629,10.636135 1.29882855,10.7857299 C4.65453907,14.0356961 42.962197,43.0250517 43.4314143,43.0250517 C43.7575381,43.0250517 31.1512565,30.4105452 2.10609768,8.34190539 C1.59629486,7.95455496 1.35065634,8.14188921 1.35065634,8.48873163 Z" id="Path-20" fill="#AF7B62"></path>
                </g>
                <g id="Hair" transform="translate(759.746757, 76.529036)">
                    <g id="Hair-Mid" transform="translate(94.944175, 146.620769)">
                        <path d="M8.1972099,-2.13162821e-14 C-5.29340938,46.5560883 -2.13231325,77.6301331 17.6804983,93.2221343 C47.3997156,116.610136 107.490636,105.192646 111.877135,105.192646 C114.801467,105.192646 80.241492,70.128431 8.1972099,-2.13162821e-14 Z" id="Path-4" fill="#100F0F"></path>
                        <path d="M33.1271782,7.08262779 C56.7770744,61.0516014 74.1420433,89.0589951 85.2220849,91.1048089 C101.842147,94.1735296 74.679517,91.3124269 72.3482595,90.1246179 C70.017002,88.936809 83.4030545,94.9251756 86.4969028,94.9251756 C89.5907512,94.9251756 72.4652893,93.1176041 69.2153039,92.1112065 C65.9653185,91.1048089 84.3897823,96.6803311 87.3940342,96.6803311 C90.3982862,96.6803311 68.1856749,97.0638154 65.537182,94.9251756 C62.888689,92.7865357 63.8579061,98.5061131 83.7284616,98.5061131 C103.599017,98.5061131 56.3678213,100.239088 49.5531257,97.582132 C42.7384301,94.9251756 26.5774164,82.5001671 29.0869248,64.4619434 C30.7599304,52.4364609 28.1244549,32.8992113 21.1804983,5.85019471 L33.1271782,7.08262779 Z" id="Path-5" fill="#1B1919"></path>
                    </g>
                    <g id="Hair-lower" transform="translate(83.124673, 296.853727)">
                        <path d="M106.554957,5.17812111 C115.74527,-3.45134875 120.340426,-1.2948962 120.340426,11.6474788 C120.340426,31.0610412 135.597222,129.256517 130.293242,132.169395 C127.419012,133.747886 129.146937,145.241823 117.655662,150.337406 C107.941435,154.644991 85.2033932,152.790403 78.8890394,152.790403 C65.1052313,152.790403 43.9981628,159.705741 34.0457272,164.002636 C24.0932915,168.29953 11.0818405,158.797232 13.1403973,146.230429 C15.198954,133.663626 21.3334531,123.8498 9.02740092,112.371288 C-3.27865127,100.892775 -2.73656467,90.0135462 9.02740092,82.5254244 C20.7913665,75.0373027 30.1262351,69.9540399 25.4588008,53.293454 C31.9876194,49.1395101 36.8134462,50.0038087 46.3431853,48.6875404 C69.1507689,45.5373074 89.2026965,25.2819862 95.0270397,19.4384298 C98.9099352,15.5427256 102.752574,10.7892893 106.554957,5.17812111 Z" id="Path-6" fill="#100F0F"></path>
                        <path d="M56.5148597,45.7586104 C67.8322028,45.2878575 78.0180187,81.1265326 78.0180187,71.6282953 C78.0180187,62.130058 79.9500351,54.6286942 87.1821601,59.8991912 C94.4142852,65.1696883 103.371677,84.8315904 78.0180187,90.0740009 C52.6643607,95.3164115 44.596506,98.0812687 31.4020535,66.2276244 C30.7678828,64.6966288 26.9926874,74.4291924 26.9926874,68.2431419 C26.9926874,64.1191081 26.6694402,59.0300338 26.0229457,52.9759188 C29.5841864,51.9471485 31.985137,50.9280392 33.2257973,49.9185908 C40.3791299,44.0983674 53.8088712,47.4259607 56.5148597,45.7586104 Z" id="Path-11" fill="#1B1919"></path>
                        <path d="M32.0287774,112.574491 C51.0559974,141.854586 61.4918066,150.6318 63.3362051,138.906131 C66.102803,121.317628 56.0054717,116.864816 53.9918342,125.800571 C51.9781966,134.736327 49.5485733,106.500028 59.9918342,108.367024 C70.435095,110.23402 83.5245138,156.459124 65.472221,151.015243 C47.4199281,145.571362 40.415853,151.892137 37.4145503,140.880735 C35.4136818,133.539801 33.6184242,124.104386 32.0287774,112.574491 Z" id="Path-12" fill="#1B1919" transform="translate(53.232994, 129.869334) rotate(43.000000) translate(-53.232994, -129.869334) "></path>
                        <path d="M20.7201686,143.128308 C28.7961558,155.33328 33.2255712,158.99193 34.0084149,154.10426 C35.1826805,146.772754 30.8969299,144.916666 30.0422538,148.641403 C29.1875776,152.366139 28.1563389,140.596258 32.5889171,141.374488 C37.0214953,142.152717 42.5772192,161.420964 34.9150338,159.151763 C27.2528484,156.882562 24.2800115,159.517283 23.0061269,154.927344 C22.1568705,151.867385 21.3948844,147.934373 20.7201686,143.128308 Z" id="Path-12" fill="#1B1919" transform="translate(29.720169, 150.337406) rotate(43.000000) translate(-29.720169, -150.337406) "></path>
                        <path d="M16.7201686,119.128308 C24.7961558,131.33328 29.2255712,134.99193 30.0084149,130.10426 C31.1826805,122.772754 26.8969299,120.916666 26.0422538,124.641403 C25.1875776,128.366139 24.1563389,116.596258 28.5889171,117.374488 C33.0214953,118.152717 38.5772192,137.420964 30.9150338,135.151763 C23.2528484,132.882562 20.2800115,135.517283 19.0061269,130.927344 C18.1568705,127.867385 17.3948844,123.934373 16.7201686,119.128308 Z" id="Path-12" fill="#1B1919" transform="translate(25.720169, 126.337406) rotate(43.000000) translate(-25.720169, -126.337406) "></path>
                        <path d="M5.72016856,95.1283076 C13.7961558,107.33328 18.2255712,110.99193 19.0084149,106.10426 C20.1826805,98.7727544 15.8969299,96.9166657 15.0422538,100.641403 C14.1875776,104.366139 13.1563389,92.5962581 17.5889171,93.3744877 C22.0214953,94.1527173 27.5772192,113.420964 19.9150338,111.151763 C12.2528484,108.882562 9.28001153,111.517283 8.00612693,106.927344 C7.15687054,103.867385 6.39488441,99.9343729 5.72016856,95.1283076 Z" id="Path-12" fill="#1B1919" transform="translate(14.720169, 102.337406) rotate(43.000000) translate(-14.720169, -102.337406) "></path>
                        <path d="M25.7201686,101.128308 C33.7961558,113.33328 38.2255712,116.99193 39.0084149,112.10426 C40.1826805,104.772754 35.8969299,102.916666 35.0422538,106.641403 C34.1875776,110.366139 33.1563389,98.5962581 37.5889171,99.3744877 C42.0214953,100.152717 47.5772192,119.420964 39.9150338,117.151763 C32.2528484,114.882562 29.2800115,117.517283 28.0061269,112.927344 C27.1568705,109.867385 26.3948844,105.934373 25.7201686,101.128308 Z" id="Path-12" fill="#1B1919" transform="translate(34.720169, 108.337406) rotate(43.000000) translate(-34.720169, -108.337406) "></path>
                        <path d="M18.7201686,77.1283076 C26.7961558,89.3332797 31.2255712,92.9919305 32.0084149,88.1042601 C33.1826805,80.7727544 28.8969299,78.9166657 28.0422538,82.6414025 C27.1875776,86.3661393 26.1563389,74.5962581 30.5889171,75.3744877 C35.0214953,76.1527173 40.5772192,95.4209636 32.9150338,93.1517628 C25.2528484,90.882562 22.2800115,93.5172831 21.0061269,88.9273444 C20.1568705,85.8673852 19.3948844,81.9343729 18.7201686,77.1283076 Z" id="Path-12" fill="#1B1919" transform="translate(27.720169, 84.337406) rotate(43.000000) translate(-27.720169, -84.337406) "></path>
                        <path d="M53.9572932,106.885225 C64.8530995,110.568504 72.3381512,113.959811 76.4124482,117.059145 C87.6163393,125.58199 94.1492953,137.090234 95.1060914,130.940797 C97.3241486,116.685091 89.228842,113.07603 87.6144537,120.318574 C86.0000654,127.561118 84.05217,104.675238 92.4248178,106.188462 C100.797466,107.701686 111.291611,145.16772 96.8185937,140.755386 C90.5645727,138.848745 82.2304118,125.223349 75.101524,121.365695 C65.7327838,116.295989 58.1165801,120.591355 56.7501225,115.523058 C55.1459715,109.573137 54.2150284,106.693859 53.9572932,106.885225 Z" id="Path-12" fill="#1B1919" transform="translate(78.981682, 123.616358) rotate(43.000000) translate(-78.981682, -123.616358) "></path>
                        <path d="M76.6955171,86.4035844 C90.1554959,107.116514 97.537855,113.325572 98.8425944,105.030758 C100.799704,92.5885367 93.6567861,89.4385881 92.2323258,95.7597996 C90.8078656,102.081011 89.0891343,82.1064698 96.4767647,83.427195 C103.864395,84.7479202 113.123935,117.447858 100.353626,113.596822 C87.5833169,109.745785 82.6285888,114.217142 80.5054478,106.427605 C79.0900205,101.234581 77.8200436,94.5599072 76.6955171,86.4035844 Z" id="Path-12" fill="#1B1919" transform="translate(91.695517, 98.638069) rotate(43.000000) translate(-91.695517, -98.638069) "></path>
                        <path d="M103.655662,119.748773 C116.218309,139.365506 123.108511,145.245961 124.326267,137.390135 C126.152903,125.606397 119.48618,122.623154 118.156683,128.609827 C116.827187,134.596499 115.223038,115.679075 122.11816,116.929904 C129.013281,118.180732 137.655518,149.150082 125.736563,145.502855 C113.817608,141.855628 109.193195,146.090346 107.211597,138.713057 C105.890532,133.794864 104.70522,127.473436 103.655662,119.748773 Z" id="Path-12" fill="#1B1919" transform="translate(117.655662, 131.335768) rotate(43.000000) translate(-117.655662, -131.335768) "></path>
                        <path d="M50.6999953,97.8862102 C50.6999953,97.8862102 54.4994929,96.9145966 53.2329937,107.120852 C51.9664945,117.327108 50.6999953,127.853314 50.6999953,127.853314 C50.6999953,127.853314 62.6707456,99.6867949 66,96.4934857 C69.3292544,93.3001764 50.6999953,97.8862102 50.6999953,97.8862102 Z" id="Path-13" fill="#1B1919"></path>
                        <path d="M68.4044993,42.3318608 C68.4044993,42.3318608 70.824803,41.7038622 70.0180351,48.3006353 C69.2112672,54.8974085 68.4044993,61.7009803 68.4044993,61.7009803 C68.4044993,61.7009803 76.029942,43.4956616 78.1506979,41.4316787 C80.2714538,39.3676959 68.4044993,42.3318608 68.4044993,42.3318608 Z" id="Path-13" fill="#1B1919" transform="translate(73.404499, 51.200980) rotate(-38.000000) translate(-73.404499, -51.200980) "></path>
                        <path d="M81.8645049,38.2375791 C81.8645049,38.2375791 82.0853488,36.0146474 81.2785809,42.6114206 C80.4718129,49.2081938 76.1348737,50.587924 77.1632929,52.2888623 C78.1917122,53.9898005 79.5732949,50.9990504 82.519682,54.3919607 C84.8687206,57.0969946 85.2917902,61.0832568 85.7100669,62.7087303 C86.5647458,66.0301159 85.4300603,71.6992357 86.1029913,70.1641453 C88.5259684,64.6368495 90.2719539,38.6403082 91.6107036,37.3373971 C93.7314595,35.2734142 81.8645049,38.2375791 81.8645049,38.2375791 Z" id="Path-13" fill="#1B1919" transform="translate(84.435504, 53.514576) rotate(-38.000000) translate(-84.435504, -53.514576) "></path>
                        <path d="M105.161681,22.9851352 C117.352682,53.4103681 99.7994976,68.1688546 98.5329984,78.3751102 C97.2664992,88.5813658 96,99.1075716 96,99.1075716 C96,99.1075716 93.2792096,92.6929966 94.297149,84.7155663 C95.0306609,78.9671486 99.989733,73.1053372 98.5329984,64.954611 C96.689611,54.6404836 83.2822855,34.2742786 84.4355036,33.1681505 C85.1334915,32.4986639 89.394522,30.6560436 92.0699393,27.6963481 C97.1254968,22.103609 102.019228,15.1424773 105.161681,22.9851352 Z" id="Path-13" fill="#1B1919"></path>
                        <path d="M110.838319,71.3257785 C110.838319,71.3257785 113.258623,70.6678752 112.451855,77.5787804 C111.645087,84.4896857 110.838319,91.617237 110.838319,91.617237 C110.838319,91.617237 118.463762,72.5449984 120.584518,70.3827307 C122.705274,68.2204629 110.838319,71.3257785 110.838319,71.3257785 Z" id="Path-13" fill="#1B1919" transform="translate(115.838319, 80.617237) rotate(16.000000) translate(-115.838319, -80.617237) "></path>
                        <path d="M105.838319,101.277844 C105.838319,101.277844 108.258623,100.619941 107.451855,107.530846 C106.645087,114.441751 105.838319,121.569302 105.838319,121.569302 C105.838319,121.569302 113.463762,102.497064 115.584518,100.334796 C117.705274,98.1725283 105.838319,101.277844 105.838319,101.277844 Z" id="Path-13" fill="#1B1919" transform="translate(110.838319, 110.569302) rotate(16.000000) translate(-110.838319, -110.569302) "></path>
                        <path d="M100.741831,74.1886574 C100.741831,74.1886574 103.162134,73.5307541 102.355366,80.4416593 C101.548599,87.3525646 105.647094,94.19016 105.647094,94.19016 C105.647094,94.19016 106.795153,68.9098309 108.915909,66.7475631 C111.036665,64.5852954 100.741831,74.1886574 100.741831,74.1886574 Z" id="Path-13" fill="#1B1919" transform="translate(104.972777, 80.310301) rotate(16.000000) translate(-104.972777, -80.310301) "></path>
                        <path d="M115.335416,79.6390432 C115.335416,79.6390432 116.787598,79.2801868 116.303538,83.0497715 C115.819477,86.8193562 115.755311,99.7577522 115.755311,99.7577522 C115.755311,99.7577522 119.910682,80.3040722 121.183135,79.1246535 C122.455589,77.9452347 115.335416,79.6390432 115.335416,79.6390432 Z" id="Path-13" fill="#1B1919" transform="translate(118.335416, 89.232432) rotate(30.000000) translate(-118.335416, -89.232432) "></path>
                        <path d="M118.598076,101.245321 C118.598076,101.245321 120.050258,100.886465 119.566198,104.656049 C119.082137,108.425634 118.598076,112.313389 118.598076,112.313389 C118.598076,112.313389 123.173342,101.91035 124.445795,100.730931 C125.718249,99.5515127 118.598076,101.245321 118.598076,101.245321 Z" id="Path-13" fill="#1B1919" transform="translate(121.598076, 106.313389) rotate(30.000000) translate(-121.598076, -106.313389) "></path>
                        <path d="M119.531388,89.0077624 C119.531388,89.0077624 120.983571,88.6489061 120.49951,92.4184907 C120.015449,96.1880754 116.44261,102.560844 121.002156,99.9524428 C125.561702,97.3440419 124.106654,89.6727915 125.379108,88.4933727 C126.651561,87.3139539 119.531388,89.0077624 119.531388,89.0077624 Z" id="Path-13" fill="#1B1919" transform="translate(122.121442, 94.319051) rotate(30.000000) translate(-122.121442, -94.319051) "></path>
                        <path d="M119.598076,114.245321 C119.598076,114.245321 121.050258,113.886465 120.566198,117.656049 C120.082137,121.425634 119.598076,125.313389 119.598076,125.313389 C119.598076,125.313389 124.173342,114.91035 125.445795,113.730931 C126.718249,112.551513 119.598076,114.245321 119.598076,114.245321 Z" id="Path-13" fill="#1B1919" transform="translate(122.598076, 119.313389) rotate(30.000000) translate(-122.598076, -119.313389) "></path>
                        <path d="M106.266679,66.9985785 C109.83133,65.2507669 112.764841,64.4858634 115.067211,64.7038681 C117.369581,64.9218727 120.303091,66.2423072 123.867742,68.6651716 C120.172007,43.3060649 118.324139,26.908985 118.324139,19.4739318 C118.324139,8.32135196 119.873853,4.33157755 115.838319,5.55762657 C111.802786,6.78367559 103.084644,6.47598293 106.266679,14.9135295 C109.448714,23.3510761 116.28255,50.6491598 112.865632,55.9617766 C110.587687,59.5035211 108.388035,63.1824551 106.266679,66.9985785 Z" id="Path-14" fill="#1B1919"></path>
                    </g>
                    <path d="M0.138457373,54.1585315 C0.720275789,54.1585315 8.11773974,55.4073569 16.8713397,52.998918 C20.3804104,52.033443 24.3679602,47.0837185 27.8214203,46.4488014 C44.5598689,43.3714448 60.3746662,43.3580038 65.0596619,44.1295798 C74.4386295,31.6154665 88.8432066,13.9392796 82.4454051,5.53548183 C76.0476036,-2.86831595 66.2041469,0.794451647 63.1931558,0.794451647 C60.1821647,0.794451647 52.0882262,0.809565772 43.2593577,5.53548183 C34.4304893,10.2613979 19.6577309,26.5125857 18.5160746,31.9084984 C17.3744182,37.304411 -1.80705158,54.1585315 0.138457373,54.1585315 Z" id="Hair-top" fill="#100F0F"></path>
                </g>
                <g id="Hat" transform="translate(656.871430, 0.000000)">
                    <g id="Group-22">
                        <path d="M219.364762,389.956382 C247.670631,389.956382 315.367041,386.048694 362.697489,351.148319 C379.041837,339.096376 395.756611,324.838607 405.522926,305.956001 C417.689822,282.432012 420.937626,253.277527 420.937626,230.261012 C420.937626,171.744677 409.588759,138.033009 390.558086,109.898771 C378.695159,92.3610612 364.27626,73.7323523 346.446487,62.5948729 C345.486103,61.994963 336.940127,61.932255 330.559361,57.1285979 C327.606279,54.9054177 320.560539,45.914375 316.893383,44.2761214 C308.919767,40.7140131 305.236254,44.1042813 296.587983,43.3355931 C287.062739,42.4889565 280.39687,48.3432055 271.376911,50.9070619 C262.006318,53.5705831 252.442437,52.646977 251.861277,53.1510733 C251.083347,53.8258465 321.157483,56.9045268 328.214269,60.212861 C335.271055,63.5211951 340.462293,73.1566196 341.818459,76.0885431 C345.393008,83.8164358 321.822836,90.7804547 316.262223,90.742155 C264.185061,90.3834647 268.036152,98.3194519 265.287234,107.665794 C256.932194,136.072993 246.902713,183.000653 246.902713,229.69262 C246.902713,246.9609 236.488103,274.006319 237.744391,293.87326 C238.582952,307.134262 244.086006,321.05003 240.375943,330.934287 C232.101517,352.978805 190.578314,395.879131 156.905946,431.99071 C137.302142,453.014604 121.03999,473.294602 113.764236,481.734771 C111.234683,484.669154 115.580583,483.189788 115.5835,483.685694 C115.587351,484.340352 204.907235,388.91944 205.956244,389.238469 C208.010627,389.863257 212.247479,389.956382 219.364762,389.956382 Z" id="Hat-Red" fill="#B67A74" transform="translate(266.955418, 263.151381) rotate(-47.000000) translate(-266.955418, -263.151381) "></path>
                        <path d="M81.9891713,149.410992 C78.0273014,154.63507 79.4775951,159.070552 76.6729386,161.060174 C73.8682822,163.049795 69.439599,163.176696 67.9522926,159.086414 C66.4649863,154.996133 66.3395963,132.766606 70.3815345,120.890816 C74.4234727,109.015026 79.2207722,106.397699 81.9891713,105.251816 C84.7575704,104.105933 92.4373285,104.57048 89.5012392,113.600069 C86.5651499,122.629658 81.9891713,132.33878 81.9891713,136.841488 C90.1765322,131.156639 85.9510412,144.186913 81.9891713,149.410992 Z" id="Path-2" fill="#4A3522"></path>
                        <path d="M159.785695,143.605234 C166.513764,148.326792 163.777946,162.406932 156.01191,162.406932 C152.438886,162.406932 148.649152,154.377814 140.070957,150.187049 C130.004278,145.269105 114.897998,144.112191 108.93386,144.739641 C97.8874568,145.901764 84.5008758,148.497117 80.5390059,153.721196 C76.577136,158.945274 81.0329592,140.135189 82.4282329,136.500916 C90.6155938,130.816067 119.052107,125.318911 140.070957,131.509852 C147.203526,133.774272 158.003487,141.96755 159.785695,143.605234 Z" id="Path-2" fill="#4A3522"></path>
                    </g>
                    <g id="Group-23" transform="translate(162.000000, 72.000000)">
                        <g id="Line-5" stroke-linecap="square">
                            <use fill="black" fill-opacity="1" filter="url(#filter-2)" xlink:href="#path-1"></use>
                            <use stroke="#7F5551" stroke-width="1" xlink:href="#path-1"></use>
                        </g>
                        <g id="Line-6" stroke-linecap="square">
                            <use fill="black" fill-opacity="1" filter="url(#filter-4)" xlink:href="#path-3"></use>
                            <use stroke="#7F5551" stroke-width="1" xlink:href="#path-3"></use>
                        </g>
                        <g id="Line-7" stroke-linecap="round" stroke-linejoin="round">
                            <use fill="black" fill-opacity="1" filter="url(#filter-6)" xlink:href="#path-5"></use>
                            <use stroke="#7F5551" stroke-width="1" xlink:href="#path-5"></use>
                        </g>
                    </g>
                    <path d="M301.900023,337.241665 C303.757008,344.127565 307.128366,350.444288 312.014099,356.191835 C319.342699,364.813156 322.200332,379.118928 316.394091,396.964644 C310.587851,414.810359 318.990539,369.466072 306.989214,358.890263 C304.537788,355.373063 302.841391,348.156864 301.900023,337.241665 Z" id="shadow" fill-opacity="0.9" fill="#441727"></path>
                    <path d="M307.114077,360.836964 C317.168623,452.238027 322.195896,506.146503 322.195896,522.562394 C317.661855,526.280858 310.312553,408.041959 308.668764,390.700325 C307.313525,378.616815 306.795296,368.662362 307.114077,360.836964 Z" id="shadow" fill-opacity="0.9" fill="#441727"></path>
                </g>
                <g id="Eye" transform="translate(719.871430, 205.749488)">
                    <path d="M77.6489657,88.2904102 C109.957624,88.2904102 89.5583407,54.5794718 89.5583407,30.8312275 C89.5583407,7.08298331 79.1214666,17.0959322 46.8128087,17.0959322 C26.4812801,17.0959322 20.358821,34.71989 12.7303583,47.6144503 C8.23649624,55.2105253 17.7644261,69.2408023 28.8708686,75.7854407 C38.7315136,81.5959742 62.4544754,88.2904102 77.6489657,88.2904102 Z" id="eye-shadow" fill-opacity="0.01" fill="#331C15" transform="translate(53.751997, 51.645366) rotate(25.000000) translate(-53.751997, -51.645366) "></path>
                    <path d="M24.9187524,41.061181 C24.7189224,43.2129386 22.1712651,61.7343265 37.7204805,64.4648943 C53.2696958,67.195462 58.8689018,60.9442049 67.2519414,63.6676198 C59.8184312,45.8634956 62.6534233,35.0625248 46,31.5460471 C40.2447164,30.3307819 35.4422381,30.188532 31.163471,32.2030839 C27.1882434,34.0747216 25.1185823,38.9094233 24.9187524,41.061181 Z" id="white" fill-opacity="0.78" fill="#D8D8D8"></path>
                    <path d="M33.5630245,50.7767915 C38.5795516,50.7767915 41.4282032,45.9342496 41.4282032,39.8591173 C41.4282032,33.7839851 38.5795516,28.7767915 33.5630245,28.7767915 C28.5464975,28.7767915 25.4282032,33.792811 25.4282032,39.8679433 C25.4282032,45.9430755 28.5464975,50.7767915 33.5630245,50.7767915 Z" id="pupil" fill="#101010" transform="translate(33.428203, 39.776791) rotate(30.000000) translate(-33.428203, -39.776791) "></path>
                    <path d="M67.7024168,63.1756307 C66.2084588,63.1756307 47.6504299,59.9726724 37.8913604,54.8428475 C30.2123274,50.8063874 24.2597554,46.0195947 21.6651771,44.1655385 C19.8810636,42.8906313 18.2289395,49.3319698 20.9154865,57.0351217 C23.6020335,64.7382736 33.0406161,72.1222018 43.4837248,72.1222018 C50.2532388,72.1222018 65.2885862,73.6425796 71.658142,72.1222018 C75.1146924,71.2971423 68.641471,63.1756307 67.7024168,63.1756307 Z" id="under-eye" fill="#C18A6E"></path>
                    <path d="M72.6653862,71.541847 C72.3184625,71.0224265 67.4349554,66.165427 64.2471712,59.541636 C61.0265447,52.8496029 59.476781,44.3708107 54.2597593,40.0172636 C51.7475714,37.9208705 42.8641738,30.4813866 39.3596474,30.4157767 C37.7732747,30.3860775 34.7239754,30.6692641 32.3248608,31.8405614 C29.862649,33.0426641 28.0658928,35.1415879 27.7054025,35.7431103 C26.6349712,37.5292567 23.0815275,42.6078542 25.9798812,47.5 C28.878235,52.3921458 20.5196157,54.000912 19.8982971,54.000912 C19.7135297,53.30044 17.3373122,44.5697302 18.693544,41.061181 C20.1695936,37.2426651 17.2130055,35.9096799 18.693544,33.6402152 C21.109604,29.9367229 33.0989837,23.3973744 36.581446,22.5687203 C43.1769937,20.9993057 56.6851374,26.3007022 62.0641782,31.5223588 C73.6229119,42.7428982 73.893495,73.3805938 72.6653862,71.541847 Z" id="top-eye" fill="#C18A6E"></path>
                    <path d="M25.4400882,1.83500673 C23.8735459,9.72397358 24.8591784,13.668457 28.3969858,13.668457 C33.703697,13.668457 70.5389295,15.087721 86.8715989,30.5039045 C103.204268,45.920088 100.430199,35.5504368 95.982547,30.5039045 C91.5348948,25.4573722 72.5297447,9.40832115 62.0641782,5.56423707 C55.0871338,3.00151435 42.8791038,1.75843757 25.4400882,1.83500673 Z" id="Eye-brow" fill="#171717"></path>
                </g>
                <g id="Eyebrows" transform="translate(701.879913, 185.000000)" fill="#171717">
                    <path d="M43.4316055,22.5844947 C41.8650631,30.4734615 42.8506956,34.417945 46.3885031,34.417945 C51.6952143,34.417945 88.5304468,35.8372089 104.863116,51.2533925 C121.195786,66.669576 118.421716,56.2999248 113.974064,51.2533925 C109.526412,46.2068601 90.521262,30.1578091 80.0556954,26.313725 C73.078651,23.7510023 60.8706211,22.5079255 43.4316055,22.5844947 Z" id="Eye-brow"></path>
                    <path d="M0,9.19056103 C2.83098701,19.0761183 4.8652589,23.4092222 6.10281569,22.1898729 C7.95915086,20.360849 8.05432632,12.1285859 9.2634684,10.6595735 C10.4726105,9.19056103 11.0089035,6.729241 9.2634684,4.15205521 C7.51803332,1.57486942 5.58111824,-1.0409896 3.56646008,1.46419389 C2.81760408,2.39538 1.37519448,3.54164266 0.722263367,5.03570763 C0.376844085,5.82611084 0.13608963,7.21106197 0,9.19056103 Z" id="eyebrow"></path>
                </g>
                <path d="M690.564279,479.696152 C686.395739,480.767949 684.311469,483.202565 684.311469,487 C664.349315,481.720169 652.36677,476.560458 647.503717,484.990909 C642.640664,493.421361 630.931692,512.672289 627.228594,519.836144 C623.525495,527 619.404401,534.674672 627.228594,539.529036 C635.052786,544.383401 615.254803,547.405847 615.254803,555.455491 C615.254803,563.505135 599.989368,555.455491 587.547219,555.455491 C575.105069,555.455491 560.76653,554.85144 549.653924,559.799848 C538.541318,564.748256 519.070529,551.111135 504.518576,555.455491 C489.966623,559.799848 430.140554,592.576238 395.880641,600.512243 C361.620729,608.448249 349.450776,602.870984 298.764299,636.700249 C248.077822,670.529513 262.890965,670.763533 248.792601,667.474733 C234.694237,664.185933 227.637895,664.179795 220.178508,667.474733 C212.719121,670.769671 215.726609,657.275873 199.486177,664.886657 C183.245746,672.497441 182.853954,675.286016 175.314777,673.891729 C167.7756,672.497441 165.791067,668.813781 157.394654,668.813781 C148.99824,668.813781 157.394654,655.534714 157.394654,646.117481 C157.394654,636.700249 162.283313,636.568444 157.394654,606.767609 C152.505994,576.966774 155.491199,565.477133 155.491199,557.762927 C155.491199,550.048722 144.176545,506.99746 149.833872,489.771859 C155.491199,472.546257 131.797654,491.530217 136.065526,454.938404 C138.910774,430.543862 139.74566,406.038083 138.570185,381.421067 C110.747108,381.892713 91.3881771,384.00339 80.4933938,387.753098 C64.1512188,393.37766 55.229583,389.635233 46.2788232,387.753098 C40.3116499,386.498341 34.1677106,385.613297 27.847005,385.097965 C25.9321055,384.492025 24.9746557,385.377069 24.9746557,387.753098 C24.9746557,391.317141 34.6231767,404.120756 31.2350909,425.230764 C27.847005,446.340772 21.5865698,456.920046 24.9746557,465.353856 C15.2120658,471.812091 16.3539673,473.865329 12.8263292,481.818594 C9.29869104,489.771859 -9.29473073,627.366899 5.87142983,706.019184 C21.0375904,784.67147 40.3773705,832.086857 52.3779418,840.60583 C64.3785131,849.124804 189.304222,885.546299 310.205203,885.546299 C348.728257,885.546299 372.02048,883.67552 380.081872,879.933963 C390.614385,877.027989 395.880641,881.650225 395.880641,893.800671 C395.880641,912.026339 395.541753,1094.4469 380.081872,1143.87886 C364.62199,1193.31082 341.958586,1214.63162 353.290288,1236.54329 C364.62199,1258.45496 361.296416,1303.38888 357.293352,1318.06472 C353.290288,1332.74056 320.22325,1420.5512 389.163184,1440.83256 C458.103118,1461.11392 681.572449,1470.56165 732.999753,1474.62658 C784.427056,1478.69152 849.169033,1482.91113 871.65301,1474.62658 C937.109599,1491.59166 946.549496,1501.15026 971.092097,1496.37096 C995.634698,1491.59166 1030.18503,1494.56931 1024.16379,1440.83256 C1018.14255,1387.09581 1004.71367,1385.27194 1014.43873,1271.3014 C1024.16379,1157.33085 1045.04743,1089.37656 1045.04743,1032.88371 C1036.59437,1163.45304 1016.73819,1320.52243 1024.16379,1380.6775 C1031.58938,1440.83256 1005.3463,1487.61504 1018.46784,1537.63573 C1003.8051,1563.7644 997.550547,1566.0706 1000.67782,1590.42925 C1003.8051,1614.78789 1014.36694,1676.71645 1009.08602,1691.30741 C1003.8051,1705.89837 1093.21509,1697.80873 1110.19974,1718.89428 C1127.18439,1739.97983 1131.04076,1743.2103 1131.04076,1727.92838 C1131.04076,1712.64646 1137.07995,1671.57014 1131.04076,1656.45423 C1125.00158,1641.33832 1142.06474,1648.51265 1155.71123,1632.22121 C1169.35773,1615.92977 1165.42957,1589.67323 1172.01165,1559.59396 C1178.59373,1529.51469 1188.74952,1238.24292 1188.74952,1202.05268 C1188.74952,1165.86243 1183.35643,823.681591 1159.57883,752.487857 C1135.80122,681.294123 1136.00985,651.026257 1118.26021,640.538598 C1106.42712,633.546826 1099.04714,628.906764 1096.12027,626.618412 L1083.36528,569.182453 C1084.78141,549.311805 1082.62383,538.397766 1076.89254,536.440337 C1068.2956,533.504194 1032.78486,525.971591 981.746757,524.84588 C979.96047,526.28196 979.067326,527.770015 979.067326,529.310045 C950.654065,526.229985 929.723599,525.45997 916.275929,527 C902.828259,528.54003 889.232455,532.351234 875.488518,538.433612 C869.725067,541.617663 863.759428,544.009631 857.591598,545.609514 C848.339854,548.009339 829.130684,563.082248 809.258125,564.901939 C789.385566,566.72163 776.184331,560.621424 767.965544,564.901939 C759.746757,569.182453 731.380108,567.943356 719.884471,557.762927 C708.388834,547.582498 693.31989,543.768158 695.623246,519.836144 C697.926602,495.904131 702.003397,495.160506 698.813322,488.440337 C695.623246,481.720169 693.843442,480.106893 692.71556,479.696152 C691.963638,479.422325 691.246545,479.422325 690.564279,479.696152 Z" id="Sweater" fill="#315A51"></path>
                <g id="Group-27" transform="translate(429.199254, 660.782560)">
                    <path d="M284.035891,0 L399.858442,180.647673 L426.260315,202.208026 L421.915838,208.963096 L415.620572,205.299874 L412.736651,205.299874 L412.736651,208.963096 L418.005809,244.557381 L435.006745,227.238638 L437.305768,217.985071 L429.952275,211.950136 L435.006745,205.299874 L462.701519,232.416511 L458.34859,240.518876 L449.690064,240.518876 L420.846533,261.144617 L408.258495,292.634601 L408.258495,299.960297 L415.620572,306.63974 L412.736651,312.162534 L406.646242,314.252909 L399.858442,309.680354 L366.113978,281.549982 L346.252785,291.068133 L365.072918,327.075879 L366.113978,336.122663 L325.80914,360.958723 L319.974854,360.958723 L304.974441,356.773469 L251.891571,356.773469 L251.891571,362.722524 C210.41051,393.11871 188.162032,409.770765 185.146137,412.678688 C182.130243,415.586612 177.054808,421.801483 169.919833,431.323303 C161.239355,421.443144 156.899116,416.503064 156.899116,416.503064 C156.899116,416.503064 120.007347,341.904264 120.007347,341.904264 C120.007347,341.904264 86.5898668,342.321462 58.7004233,324.480601 C49.2827468,317.554118 42.0007071,287.9879 37.8464234,281.549982 C35.0769008,277.258037 33.371767,274.678937 32.7310218,273.812682 L34.1581296,268.494241 C55.9366409,266.048587 68.0020581,262.568911 70.3543811,258.055213 C67.5892111,253.054383 64.4492885,247.895225 60.9346131,242.577737 C46.1887857,242.143462 36.7875886,241.005633 32.7310218,239.164249 C26.6461717,236.402174 5.21312801,238.642119 0.536100314,242.577737 C-1.01814713,237.791426 0.96466119,229.937398 4.45386099,229.722455 C7.94306079,229.507513 16.1557157,226.023429 18.5849416,215.661651 C21.0141675,205.299874 28.0611368,187.836622 29.5132439,180.647673 C30.4813153,175.855041 31.553908,172.077568 32.7310218,169.315255 C27.9725676,167.785769 25.5933405,165.532015 25.5933405,162.553993 C25.5933405,158.08696 28.676836,154.96418 32.7310218,156.52557 C36.7852077,158.08696 34.2452703,161.726156 45.1714298,160.723324 C56.0975893,159.720491 76.7706517,160.044769 82.280516,146.093684 C87.7903804,132.142599 99.2790967,116.875965 116.468818,108.197603 C133.658539,99.5192406 165.706698,65.9246153 173.506605,55.2335295 C181.306513,44.5424437 239.582521,18.8943996 254.826228,11.2493792 C264.9887,6.15269891 274.725254,2.40290584 284.035891,0 Z" id="Symbol" fill="#D8D8D8"></path>
                    <g id="RECS-Sweater" transform="translate(95.727014, 3.217440)" fill="#315A51">
                        <polygon id="Rectangle" points="164.945162 9 186.973962 8.8817842e-14 194.540614 9 194.540614 13 164.945162 13"></polygon>
                        <rect id="Rectangle" x="148.945162" y="16" width="47" height="3"></rect>
                        <rect id="Rectangle" x="142.945162" y="21" width="54" height="4"></rect>
                        <rect id="Rectangle" x="125.945162" y="27" width="66" height="5"></rect>
                        <rect id="Rectangle" x="139.945162" y="35" width="54" height="4"></rect>
                        <rect id="Rectangle" x="130.945162" y="41" width="81" height="5"></rect>
                        <rect id="Rectangle" x="111.945162" y="41" width="13" height="4"></rect>
                        <rect id="Rectangle" x="100.945162" y="47" width="23" height="4"></rect>
                        <rect id="Rectangle" x="87.9451623" y="55" width="32" height="5"></rect>
                        <rect id="Rectangle" x="78.9451623" y="63" width="38" height="4"></rect>
                        <rect id="Rectangle" x="72.9451623" y="70" width="17" height="2"></rect>
                        <rect id="Rectangle" x="67.9451623" y="78" width="11" height="5"></rect>
                        <rect id="Rectangle" x="55.9451623" y="88" width="17" height="3"></rect>
                        <rect id="Rectangle" x="47.9451623" y="95" width="22" height="4"></rect>
                        <rect id="Rectangle" x="36.9451623" y="103" width="31" height="5"></rect>
                        <rect id="Rectangle" x="24.9451623" y="111" width="41" height="6"></rect>
                        <polygon id="Rectangle" points="13.9451623 119 45.4451623 119 30.3620313 126 8.06360548 126"></polygon>
                        <polygon id="Rectangle" points="1.94516231 129 14.9451623 129 9.94626655 134 0 134"></polygon>
                        <rect id="Rectangle" transform="translate(177.487853, 51.551809) rotate(2.000000) translate(-177.487853, -51.551809) " x="132.987853" y="49.5518093" width="89" height="4"></rect>
                        <rect id="Rectangle" transform="translate(143.022055, 57.091769) rotate(2.000000) translate(-143.022055, -57.091769) " x="126.022055" y="54.5917685" width="34" height="5"></rect>
                        <rect id="Rectangle" transform="translate(214.022055, 66.091769) rotate(2.000000) translate(-214.022055, -66.091769) " x="197.022055" y="63.5917685" width="34" height="5"></rect>
                        <rect id="Rectangle" transform="translate(179.022055, 60.091769) rotate(2.000000) translate(-179.022055, -60.091769) " x="162.022055" y="57.5917685" width="34" height="5"></rect>
                        <rect id="Rectangle" transform="translate(211.022055, 130.091769) rotate(2.000000) translate(-211.022055, -130.091769) " x="194.022055" y="127.591769" width="34" height="5"></rect>
                        <rect id="Rectangle" transform="translate(253.022055, 137.091769) rotate(2.000000) translate(-253.022055, -137.091769) " x="236.022055" y="134.591769" width="34" height="5"></rect>
                        <polygon id="Rectangle" points="123.619247 64 218.945162 71.6405198 216.271078 78.5341741 120.945162 70.8936543"></polygon>
                        <polygon id="Rectangle" points="99.6123501 75 224.945162 85.0715943 222.277974 91.9652486 96.9451623 81.8936543"></polygon>
                        <polygon id="Rectangle" points="77.6089509 84 245.945162 97.5445579 243.281374 104.438212 74.9451623 90.8936543"></polygon>
                        <polygon id="Rectangle" points="75.7803057 96 254.945162 109.544558 252.110019 116.438212 72.9451623 102.893654"></polygon>
                        <polygon id="Rectangle" points="72.9672383 107 263.945162 120.544558 260.923086 127.438212 69.9451623 113.893654"></polygon>
                        <rect id="Rectangle" transform="translate(241.999477, 145.803224) rotate(10.000000) translate(-241.999477, -145.803224) " x="216.999477" y="143.303224" width="50" height="5"></rect>
                        <polygon id="Rectangle" transform="translate(268.154913, 158.880937) rotate(10.000000) translate(-268.154913, -158.880937) " points="266.322077 154.827517 280.747919 162.048938 275.726459 162.934357 255.561906 156.724826"></polygon>
                    </g>
                    <g id="Letters" transform="translate(9.098521, 123.659711)">
                        <g id="B" transform="translate(0.000000, 36.402116)">
                            <path d="M24.1921016,4.14715435 C24.1921016,4.14715435 30.8274947,7.35898006 27.5097981,18.1602675 C25.2980004,25.3611257 21.6267856,36.8466752 16.4961535,52.6169159 C14.8334069,62.0642154 12.5087624,67.2666591 9.52221997,68.2242469 C6.53567755,69.1818346 3.36160422,71.6498972 8.45545856e-13,75.6284346 C9.92969958,73.1478563 16.6299283,72.7059071 20.1006862,74.302587 C25.306823,76.6976069 41.5918504,80.3950843 48.7750635,77.3488357 C55.9582766,74.302587 65.7986089,68.6957414 68.1022808,57.6740949 C70.4059526,46.6524485 67.8995221,39.6415832 60.1260175,37.6060317 C54.6752931,36.178718 59.4685626,34.9742178 63.5225017,31.0678921 C65.2500536,29.4032444 75.1559831,5.60657151 71.7496505,0.538312999 C70.4828936,-1.21040238 70.1061904,1.86108292 65.116104,1.86108292 C60.1260175,1.86108292 42.2120465,7.07460607 36.2286258,5.61088021 C30.2452051,4.14715435 24.1921016,4.14715435 24.1921016,4.14715435 Z" fill="#315A51"></path>
                            <g id="Group-24" transform="translate(23.366993, 3.268359)" fill="#FFFFFF">
                                <path d="M21.6455781,36.2693153 C26.0638561,36.2693153 34.3172464,26.3432617 34.3172464,19.4397023 C34.3172464,12.5361429 29.4156265,3 24.9973485,3 C20.5790705,3 16.9973485,8.59644063 16.9973485,15.5 C16.9973485,22.4035594 17.2273001,36.2693153 21.6455781,36.2693153 Z" id="Oval" transform="translate(25.657297, 19.634658) rotate(26.000000) translate(-25.657297, -19.634658) "></path>
                                <path d="M14.833227,72.0280716 C17.9194424,71.9232787 22.3209131,69.5525729 24.3542122,68.0670255 C28.7576477,64.8498341 27.9156404,57.4604322 27.9156404,53.8674067 C27.9156404,49.8546968 24.9967088,42.0863902 20.9599166,38.4799721 C18.0517175,35.8818246 14.147217,36.7048729 12.2970732,36.7048729 C7.87879524,36.7048729 4.29707324,42.3013135 4.29707324,49.2048729 C4.29707324,53.6217593 2.95849575,63.9907561 5.96415559,69.2618304 C7.65631889,72.2294046 13.7266906,72.0656442 14.833227,72.0280716 Z" id="Oval" transform="translate(15.990039, 54.311790) rotate(14.000000) translate(-15.990039, -54.311790) "></path>
                            </g>
                        </g>
                        <path d="M79.9367385,29.9224186 L73,88.064238 L86.628493,77.1704748 L86.628493,73.8775688 L82.9822568,73.8775688 L82.9822568,55.0196604 L86.628493,53.5825797 L94.1010741,72.3697606 C113.416128,64.0502555 130.573655,59.0786959 145.573655,57.4550817 C145.573655,55.8314675 145.573655,54.5406335 145.573655,53.5825797 L141.180713,53.5825797 L149.080518,36.402116 L159.573655,34.8831468 L159.573655,50.5983194 L152.573655,55.0196604 L152.573655,57.4550817 L168.073655,57.4550817 L169.604447,0 L163.967051,0 L134.573655,55.0196604 L130.816514,55.0196604 L134.573655,45.5577295 L130.816514,45.5577295 L123.573655,57.4550817 L113.382877,59.3051325 L119.051657,38.478332 C120.147009,36.0815419 121.879589,34.8831468 124.249396,34.8831468 C126.619203,34.8831468 127.804106,36.7746744 127.804106,40.5577295 C127.546178,41.3868497 127.983764,41.8014098 129.116864,41.8014098 C130.816514,41.8014098 133.330797,34.1201757 132.073655,32.6099547 C130.816514,31.0997338 135.459432,28.1761009 135.459432,21.3116649 C133.202247,23.584651 130.650472,26.4549022 127.804106,29.9224186 C123.030267,29.9224186 120.862973,29.9224186 121.302224,29.9224186 C121.741475,29.9224186 123.405731,25.0841673 126.294993,15.4076646 C131.046377,10.1264324 134.364,8.08113515 136.247862,9.27177288 C138.131724,10.4624106 138.409544,12.5077078 137.081321,15.4076646 L141.833068,15.4076646 C143.491788,11.5399251 144.73865,8.93133431 145.573655,7.58189237 C146.826163,5.55772947 147.569023,2.99584576 144.374868,3.67125763 C142.245432,4.12153221 132.303069,7.41702283 114.547779,13.5577295 L117.446647,15.4076646 L102.898726,63.2425848 L92.971522,47.0092856 C99.0091038,37.8248848 102.318172,31.5866307 102.898726,28.2945231 C103.769557,23.3563618 104.8459,17.1407715 99.473487,17.8652633 C94.1010741,18.5897551 86.0277752,25.2122407 82.9822568,27.5673297 C80.9519113,29.137389 79.9367385,29.9224186 79.9367385,29.9224186 Z" id="Path-25" fill="#315A51"></path>
                        <path d="M87.5017617,27.3215943 C87.5017617,28.2537337 86.9967975,34.3324454 85.9868689,45.5577295 C87.0789082,46.5748031 88.1541596,46.5748031 89.2126232,45.5577295 C90.8003186,44.032119 94.1010741,37.1494487 94.1010741,33.0326104 C94.1010741,28.9157721 93.7343637,26.0894349 91.4734934,25.4142655 C89.2126232,24.739096 87.5017617,25.9233851 87.5017617,27.3215943 Z" id="Path-26" fill="#FFFFFF"></path>
                        <path d="M159.573655,15.8344447 C159.573655,16.5665726 159.573655,21.6676534 159.573655,31.1376872 C153.906989,30.3275082 151.073655,29.9224186 151.073655,29.9224186 C151.073655,29.9224186 159.573655,14.7362529 159.573655,15.8344447 Z" id="Path-27" fill="#FFFFFF"></path>
                        <path d="M203.573655,2.05772947 C203.573655,2.05772947 205.365107,2.05772947 208.948009,2.05772947 L208.948009,5.55772947 L202.162292,8.55772947 L197.602281,20.9728043 L200.619141,22.1957102 L215.380295,11.0577295 L215.380295,8.55772947 L213.055612,6.88532711 L213.055612,4.04035376 L235.647844,5.55772947 L235.647844,8.55772947 L222.252239,12.1267198 L204.9018,25.2191307 L215.380295,56.4030584 L216.625062,56.4030584 L245.392926,11.0577295 L256.267994,12.1267198 L256.267994,66.7131337 L260.683398,69.183835 L259.331066,73.8775688 C247.878921,69.1012788 239.984513,66.7131337 235.647844,66.7131337 C235.647844,64.7595817 236.116596,63.578435 237.054102,63.1696935 L244.233904,63.1696935 L245.392926,46.3205347 L232.442071,44.032119 L224.089143,56.4030584 L232.442071,61.0416382 L229.142839,63.1696935 L203.573655,59.3051325 L195.536697,35.7698327 L192.386512,35.7698327 L189.2272,52.1328437 L191.004313,54.8134467 L195.536697,54.8134467 L193.733865,57.9462096 L182.109623,56.4030584 L197.602281,2.05772947 C201.583197,2.05772947 203.573655,2.05772947 203.573655,2.05772947 Z" id="Path-28" fill="#315A51"></path>
                        <polygon id="Path-29" fill="#FFFFFF" points="239.573655 36.402116 249.573655 37.9676491 249.573655 23.9959416 244.573655 23.4576585"></polygon>
                        <path d="M267.329033,14.2594598 L295.781143,25.3609533 L293.362294,27.2693642 C289.194019,25.332843 286.353844,25.6804978 284.841768,28.3123285 C283.329693,30.9441592 281.906989,43.1631797 280.573655,64.96939 L303.740849,29.9224186 L314.254033,30.7126538 C311.464215,62.1691081 310.412112,77.8973353 311.097723,77.8973353 C311.783334,77.8973353 318.019298,68.8323865 329.805615,50.702489 C330.955484,47.2255683 330.562935,44.6008121 328.62797,42.8282205 C326.693004,41.0556288 325.204971,39.4354384 324.163872,37.9676491 C323.695995,36.6798936 324.323042,36.3579547 326.045013,37.0018325 C327.766984,37.6457103 335.660277,41.2455411 349.72489,47.8013249 C348.956096,49.1833645 348.571699,49.8743843 348.571699,49.8743843 C348.571699,49.8743843 347.309127,46.6095256 339.608584,53.0536349 C334.47489,57.3497077 325.213919,70.9282001 311.825672,93.789112 C304.084385,91.7800256 300.213742,90.7754823 300.213742,90.7754823 C300.213742,90.7754823 300.631151,75.7028981 301.46597,45.5577295 L280.573655,80.105801 L267.329033,75.1069582 L271.420318,27.2693642 C270.428431,22.1593223 269.064669,19.2554441 267.329033,18.5577295 C265.593396,17.8600148 265.593396,16.4272583 267.329033,14.2594598 Z" id="Path-30" fill="#315A51"></path>
                        <path d="M357.230005,55.9159251 C354.864857,57.9009967 344.828434,70.5253924 327.120734,93.789112 L321.204166,96.5980818 L321.204166,99.5945139 L341.677846,109.198377 C340.037339,108.300972 339.217086,107.184113 339.217086,105.847802 C339.217086,104.511491 337.765377,102.427061 334.861961,99.5945139 L342.75612,86.0009442 L357.230005,93.789112 L357.230005,109.198377 C356.33302,111.837511 355.517487,113.157078 354.783406,113.157078 C354.049324,113.157078 352.363153,113.157078 349.72489,113.157078 L374.235255,131.532094 L374.235255,127.689663 L370.151426,123.043311 L368.628493,58.0220647 C363.394648,54.6329 359.595152,53.9308535 357.230005,55.9159251 Z" id="Path-31" fill="#315A51"></path>
                        <path d="M354.783406,67.8174962 C354.783406,67.8174962 353.097234,71.3273597 349.72489,78.3470868 C356.323592,82.1009318 359.622943,83.9778543 359.622943,83.9778543 C359.622943,83.9778543 359.622943,78.5910683 359.622943,67.8174962 C356.396585,67.8174962 354.783406,67.8174962 354.783406,67.8174962 Z" id="Path-32" fill="#FFFFFF"></path>
                        <path d="M378.678966,54.0242859 L410.647551,78.1234063 L406.940214,79.6194077 L401.35374,79.6194077 L404.518486,121.814176 C405.752788,124.498341 407.79581,125.169382 410.647551,123.8273 C413.499292,122.485217 419.432361,116.492051 428.446756,105.847802 L430.710136,93.789112 L448.12842,109.177338 C441.4623,110.252924 438.12924,110.790716 438.12924,110.790716 C438.12924,110.790716 427.732898,118.30542 406.940214,133.334826 L394.287874,166.192596 C393.557775,173.364397 394.552895,178.326337 397.273233,181.078419 C401.35374,185.206541 399.312933,187.193089 394.287874,182.593245 C389.262815,177.9934 384.218181,168.087236 376.423337,166.192596 C371.226774,164.929503 367.509471,161.79687 365.271427,156.794696 L378.678966,158.669404 L388.023714,133.334826 C389.404923,128.338106 388.192767,108.519021 384.387246,73.8775688 C383.086504,68.4969142 382.143798,64.221261 381.559128,61.0506093 L376.423337,54.8160918 L378.678966,54.0242859 Z" id="Path-33" fill="#315A51"></path>
                    </g>
                    <g id="Group-25" transform="translate(85.672176, 186.217440)" fill="#315A51">
                        <rect id="Rectangle" x="200" y="37" width="33" height="7"></rect>
                        <rect id="Rectangle" x="231" y="48" width="33" height="7"></rect>
                        <rect id="Rectangle" x="207" y="60" width="33" height="7"></rect>
                        <rect id="Rectangle" x="244" y="60" width="33" height="7"></rect>
                        <rect id="Rectangle" x="212" y="70" width="33" height="7"></rect>
                        <rect id="Rectangle" x="254" y="70" width="33" height="7"></rect>
                        <rect id="Rectangle" x="220" y="83" width="33" height="7"></rect>
                        <rect id="Rectangle" x="223" y="92" width="33" height="7"></rect>
                        <rect id="Rectangle" transform="translate(278.364401, 87.378903) rotate(-26.000000) translate(-278.364401, -87.378903) " x="261.864401" y="83.8789031" width="33" height="7"></rect>
                        <path d="M4,50.8297098 C18.0918283,48.7400729 28.6510518,47.8077761 35.6776705,48.0328196 C49.9635816,48.4903584 65.6168676,52.9022894 75.3994367,52.9022894 C92.3994367,52.9022894 102.599624,52.2114295 106,50.8297098 L106,57.8297098 C103.633146,59.2114295 94.4664789,59.9022894 78.5,59.9022894 C67.4606389,59.9022894 50.2540895,55.4602369 34.1184432,54.9424552 C27.3031156,54.723756 17.2636346,55.6861742 4,57.8297098 L4,50.8297098 Z" id="Rectangle" transform="translate(55.000000, 53.951145) rotate(2.000000) translate(-55.000000, -53.951145) "></path>
                        <path d="M6.18241128,40.8558574 C17.6492911,39.1554665 26.2416005,38.3968329 31.9593392,38.5799565 C43.5841493,38.9522675 56.321627,42.5423682 64.2819529,42.5423682 C78.1152862,42.5423682 86.415439,41.980198 89.1824113,40.8558574 L89.1824113,46.5519358 C87.2564415,47.6762764 79.7972912,48.2384467 66.8049603,48.2384467 C57.8219508,48.2384467 43.8205429,44.6238354 30.6905562,44.2025031 C25.1447504,44.024542 16.9753688,44.8076863 6.18241128,46.5519358 L6.18241128,40.8558574 Z" id="Rectangle" transform="translate(47.682411, 43.395849) rotate(2.000000) translate(-47.682411, -43.395849) "></path>
                        <path d="M3.14372356,30.7479861 C14.6106034,29.0475953 23.2029127,28.2889617 28.9206515,28.4720853 C40.5454616,28.8443963 53.2829393,32.434497 61.2432652,32.434497 C75.0765985,32.434497 83.3767513,31.8723267 86.1437236,30.7479861 L86.1437236,36.4440646 C84.2177538,37.5684051 76.7586035,38.1305754 63.7662726,38.1305754 C54.7832631,38.1305754 40.7818552,34.5159641 27.6518685,34.0946319 C22.1060627,33.9166708 13.9366811,34.699815 3.14372356,36.4440646 L3.14372356,30.7479861 Z" id="Rectangle" transform="translate(44.643724, 33.287977) rotate(2.000000) translate(-44.643724, -33.287977) "></path>
                        <path d="M12.1519474,21.2768429 C19.8886374,19.5764521 25.6858582,18.8178185 29.5436096,19.0009421 C37.386855,19.3732531 45.9808159,22.9633538 51.3516381,22.9633538 C60.6849715,22.9633538 66.2850746,22.4011835 68.1519474,21.2768429 L68.1519474,26.9729214 C66.8524979,28.0972619 61.8198182,28.6594322 53.0539082,28.6594322 C46.9930825,28.6594322 37.5463495,25.0448209 28.6875633,24.6234887 C24.9458148,24.4455276 19.4339428,25.2286718 12.1519474,26.9729214 L12.1519474,21.2768429 Z" id="Rectangle" transform="translate(40.151947, 23.816834) rotate(2.000000) translate(-40.151947, -23.816834) "></path>
                        <path d="M27.1519474,12.2768429 C34.8886374,10.5764521 40.6858582,9.81781845 44.5436096,10.0009421 C52.386855,10.3732531 60.9808159,13.9633538 66.3516381,13.9633538 C75.6849715,13.9633538 81.2850746,13.4011835 83.1519474,12.2768429 L83.1519474,17.9729214 C81.8524979,19.0972619 76.8198182,19.6594322 68.0539082,19.6594322 C61.9930825,19.6594322 52.5463495,16.0448209 43.6875633,15.6234887 C39.9458148,15.4455276 34.4339428,16.2286718 27.1519474,17.9729214 L27.1519474,12.2768429 Z" id="Rectangle" transform="translate(55.151947, 14.816834) rotate(2.000000) translate(-55.151947, -14.816834) "></path>
                        <path d="M45.1519474,3.27684294 C52.8886374,1.57645208 58.6858582,0.817818453 62.5436096,1.00094206 C70.386855,1.37325307 78.9808159,4.96335376 84.3516381,4.96335376 C93.6849715,4.96335376 99.2850746,4.40118349 101.151947,3.27684294 L101.151947,8.97292137 C99.8524979,10.0972619 94.8198182,10.6594322 86.0539082,10.6594322 C79.9930825,10.6594322 70.5463495,7.04482089 61.6875633,6.62348866 C57.9458148,6.44552757 52.4339428,7.22867181 45.1519474,8.97292137 L45.1519474,3.27684294 Z" id="Rectangle" transform="translate(73.151947, 5.816834) rotate(2.000000) translate(-73.151947, -5.816834) "></path>
                        <path d="M111.151947,9.27684294 C118.888637,7.57645208 124.685858,6.81781845 128.54361,7.00094206 C136.386855,7.37325307 144.980816,10.9633538 150.351638,10.9633538 C159.684971,10.9633538 165.285075,10.4011835 167.151947,9.27684294 L167.151947,14.9729214 C165.852498,16.0972619 160.819818,16.6594322 152.053908,16.6594322 C145.993082,16.6594322 136.546349,13.0448209 127.687563,12.6234887 C123.945815,12.4455276 118.433943,13.2286718 111.151947,14.9729214 L111.151947,9.27684294 Z" id="Rectangle" transform="translate(139.151947, 11.816834) rotate(2.000000) translate(-139.151947, -11.816834) "></path>
                        <path d="M97.1519474,21.2768429 C104.888637,19.5764521 110.685858,18.8178185 114.54361,19.0009421 C122.386855,19.3732531 130.980816,22.9633538 136.351638,22.9633538 C145.684971,22.9633538 151.285075,22.4011835 153.151947,21.2768429 L153.151947,26.9729214 C151.852498,28.0972619 146.819818,28.6594322 138.053908,28.6594322 C131.993082,28.6594322 122.546349,25.0448209 113.687563,24.6234887 C109.945815,24.4455276 104.433943,25.2286718 97.1519474,26.9729214 L97.1519474,21.2768429 Z" id="Rectangle" transform="translate(125.151947, 23.816834) rotate(2.000000) translate(-125.151947, -23.816834) "></path>
                        <path d="M94.1519474,32.2768429 C101.888637,30.5764521 107.685858,29.8178185 111.54361,30.0009421 C119.386855,30.3732531 127.980816,33.9633538 133.351638,33.9633538 C142.684971,33.9633538 148.285075,33.4011835 150.151947,32.2768429 L150.151947,37.9729214 C148.852498,39.0972619 143.819818,39.6594322 135.053908,39.6594322 C128.993082,39.6594322 119.546349,36.0448209 110.687563,35.6234887 C106.945815,35.4455276 101.433943,36.2286718 94.1519474,37.9729214 L94.1519474,32.2768429 Z" id="Rectangle" transform="translate(122.151947, 34.816834) rotate(2.000000) translate(-122.151947, -34.816834) "></path>
                        <path d="M158.151947,27.2768429 C165.888637,25.5764521 171.685858,24.8178185 175.54361,25.0009421 C183.386855,25.3732531 191.980816,28.9633538 197.351638,28.9633538 C206.684971,28.9633538 212.285075,28.4011835 214.151947,27.2768429 L214.151947,32.9729214 C212.852498,34.0972619 207.819818,34.6594322 199.053908,34.6594322 C192.993082,34.6594322 183.546349,31.0448209 174.687563,30.6234887 C170.945815,30.4455276 165.433943,31.2286718 158.151947,32.9729214 L158.151947,27.2768429 Z" id="Rectangle" transform="translate(186.151947, 29.816834) rotate(2.000000) translate(-186.151947, -29.816834) "></path>
                        <path d="M3,68 C27.8628928,70.8149654 45.8985713,72.5223435 57.1070355,73.1221342 C92.4474229,75.0132798 122.948848,74.6793816 151,77.8042737 C179.92122,81.0260912 200.905203,85.5913333 213.95195,91.5 L213.95195,98.5 C199.370048,92.4203173 176.959172,87.6961197 146.719323,84.3274073 C119.762009,81.3243685 90.4569671,81.7765108 56.415507,80 C45.3701636,79.4235802 27.5649946,77.7569135 3,75 L3,68 Z" id="Rectangle"></path>
                        <path d="M0,57 C24.8628928,59.8149654 42.8985713,61.5223435 54.1070355,62.1221342 C89.4474229,64.0132798 119.948848,63.6793816 148,66.8042737 C176.92122,70.0260912 197.905203,74.5913333 210.95195,80.5 L210.95195,87.5 C196.370048,81.4203173 173.959172,76.6961197 143.719323,73.3274073 C116.762009,70.3243685 87.4569671,70.7765108 53.415507,69 C42.3701636,68.4235802 24.5649946,66.7569135 0,64 L0,57 Z" id="Rectangle"></path>
                        <path d="M115,49 C125.961022,51.8149654 133.912208,53.5223435 138.853557,54.1221342 C154.433674,56.0132798 167.880492,55.6793816 180.247086,58.8042737 C192.997257,62.0260912 202.248229,66.5913333 208,72.5 L208,79.5 C201.571442,73.4203173 191.691413,68.6961197 178.359912,65.3274073 C166.475546,62.3243685 153.556164,62.7765108 138.54869,61 C133.679255,60.4235802 125.829691,58.7569135 115,56 L115,49 Z" id="Rectangle" transform="translate(161.500000, 64.250000) rotate(-3.000000) translate(-161.500000, -64.250000) "></path>
                        <path d="M116.734397,36.4127224 C127.695419,39.2276878 135.646605,40.9350659 140.587953,41.5348566 C156.16807,43.4260022 169.614888,43.092104 181.981483,46.2169961 C194.731654,49.4388135 203.982625,54.0040556 209.734397,59.9127224 L209.734397,66.9127224 C203.305839,60.8330396 193.425809,56.1088421 180.094309,52.7401297 C168.209943,49.7370909 155.290561,50.1892332 140.283087,48.4127224 C135.413651,47.8363026 127.564088,46.1696359 116.734397,43.4127224 L116.734397,36.4127224 Z" id="Rectangle" transform="translate(163.234397, 51.662722) rotate(-3.000000) translate(-163.234397, -51.662722) "></path>
                    </g>
                    <path d="M43.0471467,276.596343 C53.0975897,297.644429 58.1228112,310.171341 58.1228112,314.177078 C58.1228112,320.185683 87.6721759,337.622504 143.672176,335.215672 C164.422176,335.215672 191.729427,345.463071 206.700801,345.463071 C221.672176,345.463071 242.77035,349.735763 262.721263,349.735763 C282.672176,349.735763 297.672176,345.859972 318.672176,354.768358 C337.005509,345.237077 349.349023,337.80377 355.702718,332.468437 L333.672176,295.443618 L253.672176,277.71744 L73.1984757,262.71744 C57.380803,270.384107 47.33036,274.21744 43.0471467,274.21744 C43.0471467,274.21744 43.0471467,275.010408 43.0471467,276.596343 Z" id="Path-34" fill="#315A51"></path>
                </g>
                <g id="Lower-lettering" transform="translate(502.674358, 924.138088)">
                    <path d="M8.21927246,46.2798042 L8.21927246,44.1145932 L10.9118551,43.9690328 L11.5901393,43.2594258 L11.5901393,24.1364272 L10.9118551,23.5905757 L8.21927246,23.4450153 L8.21927246,21.2798042 L31.2192725,21.2798042 L31.2192725,27.975583 L27.5812028,27.975583 L26.9234726,24.3001827 L26.3274047,23.8453064 L19.0923734,23.8453064 L19.0923734,32.633516 L23.8814709,32.633516 L24.4775388,32.1604447 L24.8886201,29.4675772 L27.8895137,29.4675772 L27.8895137,38.6014927 L24.8886201,38.6014927 L24.4775388,35.9268202 L23.8814709,35.3991638 L19.0923734,35.3991638 L19.0923734,43.2594258 L19.893982,43.9690328 L22.9154297,44.1145932 L22.9154297,46.2798042 L8.21927246,46.2798042 Z M30.1851226,44.656098 L30.1186256,42.7518729 L32.9469018,42.5249361 L33.5375944,41.8794739 L32.9502974,25.0614865 L32.3210477,24.6028182 L29.4838306,24.5737248 L29.4173336,22.6694998 L43.4088052,22.1809068 L43.4753022,24.0851318 L40.5896054,24.3140738 L39.9747434,24.8161874 L40.5620405,41.6341748 L41.2154596,42.2361917 L44.1100971,42.26328 L44.1765941,44.167505 L30.1851226,44.656098 Z M47.4337722,45.6414221 L47.2238024,43.6436926 L49.0083226,43.2453704 L49.5007216,42.5086421 L47.5817799,24.251131 L47.1368162,23.7709946 L45.1423622,23.8401125 L44.9250891,21.7728967 L53.278022,20.894968 L53.3784423,21.8504039 L63.5247645,36.7842976 L62.0641048,22.8870484 L61.4726457,22.2642382 L59.5014619,22.1377122 L59.3042729,20.2615835 L66.8045708,19.4732705 L67.0017598,21.3493991 L65.2878261,21.8632466 L64.7954271,22.5999749 L67.0010233,43.5848212 L62.2898536,44.0799851 L50.5856156,26.9738943 L52.1886896,42.2261253 L52.6789886,42.8595678 L54.6807459,42.8599362 L54.8907158,44.8576658 L47.4337722,45.6414221 Z M70.1502944,43.5449822 L69.8386778,41.5775128 L72.091902,41.0850523 L72.5375691,40.3534894 L69.7853927,22.9769318 L69.1590404,22.567693 L66.8639182,22.7956198 L66.5523017,20.8281504 L85.2602808,17.8650976 L86.1558511,23.5195055 L83.2674852,23.9769777 L82.2431016,21.0546688 L81.7014789,20.750647 L75.6591502,21.7076578 L76.8506252,29.230335 L80.4195831,28.6650677 L80.8416371,28.1067258 L80.8052949,25.6211102 L83.2122665,25.2398834 L84.5294355,33.5561617 L82.122464,33.9373885 L81.38893,31.5621973 L80.8149957,31.1616045 L77.2460378,31.7268719 L78.5396393,39.89435 L85.6443554,38.7690735 L86.0227353,38.1498565 L86.0424998,34.299506 L88.8644665,33.8525504 L89.9040612,40.4162929 L70.1502944,43.5449822 Z M97.2336038,44.7715464 L96.8700391,42.901168 L98.9141205,42.3733482 L99.3160472,41.6590796 L96.1050679,25.1400231 L95.4923347,24.7697864 L93.3993707,25.0461268 L93.0358059,23.1757484 L110.705095,19.7411864 L111.829396,25.5252139 L109.034522,26.0684824 L107.912091,22.9917723 L107.377794,22.6878458 L101.819626,23.7682441 L103.295271,31.3597801 L106.9744,30.6446301 L107.352883,30.1469659 L107.216523,27.7593946 L109.521899,27.3112749 L111.055593,35.2014427 L108.750216,35.6495625 L107.985302,33.4004813 L107.438785,33.0336849 L103.759657,33.7488349 L105.079488,40.5387802 L105.81446,41.0320581 L108.160068,40.7066087 L108.523632,42.5769872 L97.2336038,44.7715464 Z M114.665599,43.4316042 L114.457379,41.4505224 L117.262327,41.0210573 L117.803588,40.307734 L115.964602,22.8109525 L115.302608,22.3755813 L112.469664,22.5386825 L112.261444,20.5576006 L126.184751,19.0942021 L126.392971,21.075284 L123.530882,21.5107548 L122.954826,22.0762503 L124.793812,39.5730318 L125.490601,40.1562308 L128.380685,39.9871239 L128.588906,41.9682057 L114.665599,43.4316042 Z M133.49632,42.3086682 L132.456897,35.7460125 L135.007626,35.3420167 L136.329716,39.6056409 L136.804057,40.0807655 C137.164076,40.0947448 137.51911,40.0917627 137.869169,40.0718191 C138.219228,40.0518756 138.573251,40.0135537 138.93125,39.9568522 C139.987347,39.789583 140.781552,39.3590864 141.313889,38.6653497 C141.846226,37.971613 142.033772,37.128371 141.876532,36.1355985 C141.825337,35.8123702 141.733918,35.5103096 141.602269,35.2294075 C141.470621,34.9485055 141.305052,34.6996055 141.105557,34.4826999 C140.579055,33.9389167 139.567345,33.4305757 138.070397,32.9576618 C137.339005,32.7421663 136.772474,32.5538141 136.370786,32.3925996 C134.817926,31.7983733 133.624889,31.014045 132.791639,30.039591 C131.958388,29.0651371 131.422013,27.8218055 131.182497,26.3095589 C130.827793,24.0700487 131.191435,22.1664626 132.273433,20.5987435 C133.355432,19.0310244 134.983828,18.0749486 137.158671,17.7304873 C138.071568,17.5858986 139.043923,17.556142 140.075766,17.6412167 C141.107608,17.7262914 142.170229,17.9189036 143.263661,18.2190592 L144.21258,24.2102963 L141.661851,24.6142921 L140.488874,20.770803 L140.084688,20.3910675 C139.817633,20.3268637 139.543509,20.2904061 139.262307,20.2816936 C138.981106,20.272981 138.68836,20.2927226 138.384061,20.3409188 C137.345864,20.505353 136.576223,20.9171674 136.075115,21.5763742 C135.574007,22.2355811 135.400247,23.0500148 135.55383,24.0196996 C135.764093,25.3472444 137.098279,26.4435069 139.556429,27.3085202 C139.837918,27.405938 140.052184,27.4844178 140.199232,27.5439618 C142.395621,28.320266 143.901781,29.1555834 144.717758,30.049939 C145.533734,30.9442946 146.066958,32.1822087 146.317445,33.7637185 C146.684947,36.0840358 146.271358,38.0487824 145.076667,39.6580172 C143.881976,41.267252 142.085361,42.2618043 139.686769,42.641704 C138.881271,42.7692823 137.98102,42.8053686 136.985987,42.7499642 C135.990955,42.6945597 134.827744,42.5474625 133.49632,42.3086682 Z M146.03757,17.4179237 L153.839604,16.8723523 L153.990642,19.0322891 L152.589545,19.2761791 L152.27189,20.0097315 L152.793541,27.469681 L158.690961,27.0572932 L158.16931,19.5973437 L157.741183,18.9159415 L156.296831,18.8710246 L156.145794,16.7110879 L163.993723,16.1623072 L164.14476,18.3222439 L162.697769,18.5693432 L162.368641,19.3036979 L163.691171,38.2167572 L164.119298,38.8981594 L165.586597,38.9414717 L165.737634,41.1014085 L157.889706,41.6501891 L157.738668,39.4902524 L159.162712,39.2447577 L159.49184,38.510403 L158.883883,29.816204 L152.986462,30.2285918 L153.59442,38.9227908 L154.011074,39.6049953 L155.432478,39.6515169 L155.583516,41.8114536 L147.781481,42.357025 L147.630444,40.1970883 L149.054488,39.9515936 L149.406563,39.2156343 L148.084033,20.302575 L147.632958,19.6227774 L146.188607,19.5778605 L146.03757,17.4179237 Z M169.927855,43.1431392 L169.683423,40.8175214 L171.680523,40.4495465 L172.035774,39.6416113 L169.876964,19.1019112 L169.379984,18.5613791 L167.350019,18.6166658 L167.105587,16.291048 L177.050806,15.2457634 L177.295238,17.5713812 L175.257323,17.9436459 L174.869981,18.577124 L177.02879,39.116824 L177.557862,39.8318133 L179.628642,39.7722368 L179.873074,42.0978546 L169.927855,43.1431392 Z M182.140996,40 L182.140996,37.9075691 L184.617879,37.6892285 L185.390666,36.9796215 L185.390666,17.856623 L184.855659,17.3107715 L182.140996,17.1652111 L182.140996,15 L193.594101,15 L193.594101,16.0007278 L205.225541,32.5764192 L205.225541,18.0203785 L204.512198,17.3107715 L201.85698,16.9650655 L201.85698,15 L212.140996,15 L212.140996,16.9650655 L209.743374,17.3107715 L208.970587,18.0203785 L208.970587,40 L202.510877,40 L189.076267,21.0043668 L189.076267,36.9796215 L189.650904,37.6892285 L192.365567,37.9075691 L192.365567,40 L182.140996,40 Z M230.635739,30.892425 L245.364905,30.892425 L245.364905,32.8698898 L242.677405,33.0389038 L241.989905,33.5121433 L241.989905,41.405101 C240.295452,41.9459488 238.562831,42.3487617 236.791989,42.6135517 C235.021146,42.8783418 233.198248,43.0107348 231.323239,43.0107348 C226.545437,43.0107348 222.691309,41.9008868 219.760739,39.6811574 C216.830168,37.461428 215.364905,34.5544148 215.364905,30.9600306 C215.364905,27.3431111 216.857946,24.4473654 219.844072,22.2727067 C222.830198,20.0980479 226.795436,19.0107348 231.739905,19.0107348 C233.337135,19.0107348 234.982952,19.1149591 236.677405,19.3234109 C238.371858,19.5318626 240.142674,19.8445356 241.989905,20.2614391 L241.989905,26.5656644 L238.094072,26.5656644 L237.114905,22.3741151 L236.344072,21.8163686 C235.732958,21.703692 235.246852,21.6248196 234.885739,21.5797489 C234.524626,21.5346783 234.191296,21.5121433 233.885739,21.5121433 C230.607944,21.5121433 228.04547,22.3572053 226.198239,24.0473545 C224.351007,25.7375038 223.427405,28.0755086 223.427405,31.0614391 C223.427405,33.9121575 224.389201,36.1938249 226.312822,37.9065095 C228.236443,39.6191941 230.802389,40.4755236 234.010739,40.4755236 L234.698239,40.4755236 L234.698239,33.5121433 L233.969072,33.0389038 L230.635739,32.8698898 L230.635739,30.892425 Z" id="FINEFISHING" fill="#FFFFFF" fill-rule="nonzero" transform="translate(126.792089, 30.639902) rotate(7.000000) translate(-126.792089, -30.639902) "></path>
                    <path d="M1,49.0544675 C38.1984134,49.691983 65.9517354,49.9717756 84.2599662,49.8938453 C112.941437,49.7717605 141.337566,48.3527636 169.347659,48.3527636 C194.851394,48.3527636 219.068841,48.5866649 242,49.0544675 L242,53.4770137 C219.160353,53.0092111 195.025672,52.7753098 169.595956,52.7753098 C139.76126,52.7753098 109.493812,54.2023318 78.8943071,54.3404669 C61.7532675,54.4178465 35.7884985,54.1300288 1,53.4770137 L1,49.0544675 Z" id="Rectangle" fill="#FFFFFF" transform="translate(121.500000, 51.352764) rotate(5.000000) translate(-121.500000, -51.352764) "></path>
                    <path d="M1.80477855e-12,59.0544675 C37.1984134,59.691983 64.9517354,59.9717756 83.2599662,59.8938453 C111.941437,59.7717605 140.337566,58.3527636 168.347659,58.3527636 C193.851394,58.3527636 218.068841,58.5866649 241,59.0544675 L241,63.4770137 C218.160353,63.0092111 194.025672,62.7753098 168.595956,62.7753098 C138.76126,62.7753098 108.493812,64.2023318 77.8943071,64.3404669 C60.7532675,64.4178465 34.7884985,64.1300288 1.80477855e-12,63.4770137 L1.80477855e-12,59.0544675 Z" id="Rectangle" fill="#FFFFFF" transform="translate(120.500000, 61.352764) rotate(5.000000) translate(-120.500000, -61.352764) "></path>
                    <path d="M0,68.0544675 C37.1984134,68.691983 64.9517354,68.9717756 83.2599662,68.8938453 C111.941437,68.7717605 140.337566,67.3527636 168.347659,67.3527636 C193.851394,67.3527636 218.068841,67.5866649 241,68.0544675 L241,72.4770137 C218.160353,72.0092111 194.025672,71.7753098 168.595956,71.7753098 C138.76126,71.7753098 108.493812,73.2023318 77.8943071,73.3404669 C60.7532675,73.4178465 34.7884985,73.1300288 0,72.4770137 L0,68.0544675 Z" id="Rectangle" fill="#FFFFFF" transform="translate(120.500000, 70.352764) rotate(5.000000) translate(-120.500000, -70.352764) "></path>
                    <path d="M59.5070913,78.8436147 C63.7073434,78.8436147 99.8991685,83.0333533 168.082566,91.4128307 C120.158903,124.433296 95.8637383,142.660042 95.1970717,146.093068 C94.1970717,151.242606 62.0885425,85.9244749 59.5070913,82.3840448 C56.92564,78.8436147 53.206713,78.8436147 59.5070913,78.8436147 Z" id="Path-35" fill="#FFFFFF"></path>
                    <polygon id="Rectangle" fill="#2B4F47" transform="translate(111.899321, 92.519821) rotate(7.000000) translate(-111.899321, -92.519821) " points="62.5705187 87.6600284 161.228124 87.0069466 148.713373 95.9117632 71.4306126 98.0326946"></polygon>
                    <polygon id="Rectangle" fill="#2B4F47" transform="translate(108.560720, 105.045349) rotate(7.000000) translate(-108.560720, -105.045349) " points="71.4686145 101.335642 145.652826 99.4271725 133.972139 109.549562 79.0570921 110.663526"></polygon>
                    <path d="M77.3622298,114.350256 L128.377454,112.854478 C121.355026,117.371187 115.840016,121.435683 111.832426,125.047966 C107.824835,128.660249 102.523228,134.345421 95.9276038,142.103483 L77.3622298,114.350256 Z" id="Rectangle" fill="#2B4F47" transform="translate(102.869842, 127.478980) rotate(7.000000) translate(-102.869842, -127.478980) "></path>
                </g>
                <g id="Sweater-Strings" transform="translate(506.400055, 562.005015)" stroke="#EFEFEF" stroke-width="9">
                    <path d="M258.762926,-1.13686838e-13 C238.384426,13.9751127 223.849218,30.2628273 215.157301,48.8631439 C202.119426,76.7636187 165.262081,150.159441 150.471375,180.524979 C135.680668,210.890517 91.3865578,307.037624 91.3865578,326.437962 C91.3865578,345.838301 67.5736591,477.846786 59.7018254,504.719348" id="Path-22" stroke-linecap="round"></path>
                    <path d="M212.471375,5.68434189e-14 C189.014142,49.2175766 172.686805,89.0170034 163.489362,119.39828 C149.693197,164.970196 111.753851,222.067005 111.753851,273.526751 C111.753851,324.986497 77.7277264,554.705939 46.8988977,574.088239 C16.070069,593.47054 20.9443779,656.570115 9.09494702e-13,656.570115" id="Path-23"></path>
                </g>
                <g id="Hand-Lower" transform="translate(956.650564, 1696.670121)">
                    <path d="M55.8098849,1.42108547e-13 C35.1958791,22.248924 21.8486923,43.4822169 15.7683243,63.699879 C6.64777244,94.026372 6.18021062,108.108962 6.18021062,141.02872 C6.18021062,173.948479 -2.30557191,207.64699 0.609722471,213.530218 C3.52501685,219.413447 5.19709223,226.635489 10.4827083,226.982684 C15.7683243,227.329879 15.553122,238.303254 35.6815035,241.271187 C55.8098849,244.239121 69.0849439,246.275028 69.6571462,243.773108 C70.2293485,241.271187 82.8913132,246.275028 88.4432227,243.773108 C93.9951322,241.271187 146.250584,176.098953 154.248678,158.563837 C162.246772,141.02872 159.56371,132.620349 159.56371,111.964025 C159.56371,91.3077013 150.7977,50.1008393 150.7977,40.76638 C150.7977,34.5434071 151.948026,28.2859418 154.248678,21.9939841 C143.713271,14.2281229 128.70433,9.47096522 109.221856,7.72251109 C89.7393815,5.97405696 71.9353912,3.3998866 55.8098849,1.42108547e-13 Z" id="Path-36" fill="#C18A6E"></path>
                    <path d="M41.9936208,63.0324251 C42.8667204,110.476671 42.8667204,141.852699 41.9936208,157.160509 C40.2703959,187.37333 34.5027821,202.224939 33.0946269,205.467832 C26.0729956,216.749442 11.1715832,227.702091 12.5810406,227.702091 C13.6533337,227.702091 24.7675486,224.60415 39.4801043,210.650532 C41.8293223,208.422497 48.7144369,196.669302 48.7144369,184.034923 C48.7144369,180.297558 47.1366307,170.088439 46.2544927,153.78558 C45.5171987,140.159594 44.0969081,109.908543 41.9936208,63.0324251 Z" id="Path-37" fill="#B78368"></path>
                    <path d="M111.296353,161.294279 C101.384032,166.91702 94.9996413,176.272499 92.1431805,189.360718 C87.8584893,208.993046 75.4656433,230.35783 75.4656433,235.322139 C75.4656433,240.286449 83.581947,239.680171 92.1431805,228.692195 C100.704414,217.704219 126.613024,177.399764 126.613024,169.347021 C126.613024,163.978526 121.507467,161.294279 111.296353,161.294279 Z" id="Path-38" fill="#B78368"></path>
                    <path d="M69.2029512,168.999397 C65.908365,174.622138 63.7863669,183.977617 62.8369569,197.065836 C61.4128419,216.698164 57.2937966,238.062948 57.2937966,243.027258 C57.2937966,247.991567 59.9914354,247.385289 62.8369569,236.397313 C65.6824783,225.409337 74.2937966,185.104882 74.2937966,177.05214 C74.2937966,171.683645 72.5968481,168.999397 69.2029512,168.999397 Z" id="Path-38" fill="#B78368" transform="translate(65.793797, 207.504462) rotate(19.000000) translate(-65.793797, -207.504462) "></path>
                    <path d="M140.718769,161.294279 L130.397373,189.259671 C135.598544,180.729404 139.039009,173.935938 140.718769,168.879274 C142.398529,163.822611 142.398529,161.294279 140.718769,161.294279 Z" id="Path-39" fill="#B78368"></path>
                    <path d="M56.3206195,54.9413653 C64.8868534,92.134028 72.7793617,117.142456 79.9981444,129.966651 C85.1962269,139.201064 85.015599,152.930287 90.6111874,157.925524 C96.6718212,163.335912 105.979262,157.232182 110.246775,152.301154 C115.718489,145.978695 121.173906,146.719701 126.613024,154.524174 C130.71355,159.059308 133.905203,160.193091 136.187981,157.925524 C139.612148,154.524174 144.345029,151.390107 141.978589,149.051373 C139.612148,146.712639 147.658371,159.996974 150.347508,154.524174 C153.036645,149.051373 160.462408,127.001354 160.229348,117.246219 C160.073975,110.742796 156.780029,88.1708884 150.347508,49.5304963 C152.489039,56.7710649 149.699399,60.3913492 141.978589,60.3913492 C130.397373,60.3913492 103.468521,28.0304405 86.5465165,28.0304405 C69.6245124,28.0304405 69.604955,26.9083122 61.3778263,33.8373461 C55.8930739,38.456702 54.2073383,45.4913751 56.3206195,54.9413653 Z" id="Path-40" fill="#B78368"></path>
                </g>
                <g id="Hand-Up" transform="translate(11.360566, 75.137110)">
                    <path d="M34.9182571,312.615988 C44.1232092,316.157172 56.2321811,316.157172 71.2451726,312.615988 C93.76466,307.304213 115.253873,305.263701 121.122345,306.283957 C119.938831,291.921512 120.946045,254.307951 131.028598,237.804223 C141.111151,221.300495 147.409585,202.869374 146.119697,196.24512 C144.829809,189.620867 140.182045,160.734508 144.227266,138.282714 C148.272487,115.83092 155.118417,90.8357988 155.118417,79.0036393 C155.118417,67.1714797 156.68726,13.6173077 150.457263,3.05643954 C146.119697,-1.9781421 128.337239,-1.15615441 128.337239,10.7169185 C128.337239,22.5899915 130.24306,60.3300129 122.827318,83.7250473 C117.88349,99.3217369 113.31185,110.063368 109.112398,115.94994 C107.825048,117.243516 106.620904,117.698969 105.499965,117.3163 C103.818557,116.742296 102.720674,108.559826 102.720674,105.923902 C102.720674,103.287977 106.428774,70.3355871 87.1545376,66.6042002 C67.8803013,62.8728132 66.0800149,61.4600198 63.32231,62.1664165 C60.564605,62.8728132 50.2684661,66.0081116 51.5299393,81.7489501 C53.8598465,89.0688889 54.7430192,98.0484005 54.7430192,103.816954 C54.7430192,109.585507 62.5275253,111.766436 66.1874947,108.845169 C68.6274743,106.897657 69.6294405,108.231255 69.1933931,112.845962 L69.1933931,122.550963 C69.099584,124.723657 68.0976179,125.810004 66.1874947,125.810004 C64.2773715,125.810004 62.341557,128.178095 60.3800509,132.914276 C58.7612545,133.920249 57.9518564,133.514843 57.9518564,131.698058 C57.9518564,128.97288 57.2058618,107.263378 45.1285283,101.420579 C33.0511949,95.5777797 25.2567893,108.822595 25.2567893,117.3163 C25.2567893,125.810004 29.0793926,143.712459 29.0793926,145.079998 C29.0793926,146.447537 32.901996,159.475703 29.0793926,157.704165 C25.2567893,155.932627 22.782633,138.282714 16.4908231,138.282714 C10.1990132,138.282714 -3.86881759,142.907775 1.30647537,158.628107 C6.48176832,174.34844 16.5028439,186.447693 15.5319903,198.730087 C14.5611367,211.012481 15.5953216,263.320645 25.2567893,284.802301 C31.6977678,299.123405 34.9182571,308.394634 34.9182571,312.615988 Z" id="Path-41" fill="#C18A6E"></path>
                    <path d="M79.3957634,107.45182 C87.5234155,105.845894 93.387672,108.520983 96.9885328,115.47709 C102.389824,125.91125 119.578116,163.92674 124.187173,168.720428 C128.79623,173.514116 136.737035,181.258012 138.694961,171.150002 C140.000245,164.411328 141.221326,159.929383 142.358204,157.704165 C143.254503,164.366885 143.254503,171.613537 142.358204,179.444122 C141.013756,191.190001 123.805323,172.611336 116.892576,161.268022 C109.97983,149.924707 98.2742348,115.052439 91.8289401,112.505373 C87.532077,110.807329 83.3876847,109.122811 79.3957634,107.45182 Z" id="Path-48" fill="#B78368"></path>
                    <path d="M29.8892842,161.041991 L44.5103593,189.519772 C44.5103593,196.303158 42.0735135,200.748451 37.1998217,202.855651 C29.8892842,206.016452 22.1180162,200.246251 18.9435096,194.883012 C15.769003,189.519772 15.0362624,181.300425 18.9435096,176.926122 C21.5483411,174.009919 23.8522489,172.694052 25.855233,172.978521 C23.0418413,175.963293 21.6351454,179.103329 21.6351454,182.39863 C21.6351454,187.341582 33.7234219,190.412877 35.6190588,186.923512 C36.8828168,184.597269 34.9728919,176.521291 29.8892842,162.695578 L29.8892842,161.041991 Z" id="Path-42" fill="#B78368"></path>
                    <path d="M44.1193661,120.86289 L58.7404412,149.340671 C58.7404412,156.124057 56.3035954,160.56935 51.4299037,162.67655 C44.1193661,165.837351 36.3480981,160.06715 33.1735915,154.70391 C29.999085,149.340671 26.0907807,138.01907 26.0907807,135.53797 C26.0907807,133.883904 26.0907807,130.647594 26.0907807,125.829041 C42.2977741,144.777697 51.0331498,153.088904 52.2969077,150.762661 C53.5606657,148.436418 50.8348185,139.021023 44.1193661,122.516476 L44.1193661,120.86289 Z" id="Path-42" fill="#B78368"></path>
                    <path d="M85.0422881,232.107265 C70.5082212,208.642327 58.9699135,195.350044 50.4273651,192.230418 C37.6135426,187.550979 78.8492382,186.665772 96.6647797,201.30188" id="Path-49" stroke="#B78368"></path>
                    <path d="M79.0274472,82.8793262 C79.0274472,82.8793262 79.5873495,97.7492525 73.791647,101.6535 C67.9959445,105.557748 62.7378633,107.948854 58.7404412,105.882904 C54.7430192,103.816954 55.8382928,108.860854 60.6783547,108.860854 C65.5184166,108.860854 72.5382537,109.03057 75.1390606,105.882904 C77.7398675,102.735238 82.1933536,97.2242449 80.6104004,87.3030301 C79.0274472,77.3818153 79.0274472,82.8793262 79.0274472,82.8793262 Z" id="Path-44" fill="#B78368"></path>
                    <path d="M79.3957634,107.45182 C73.8866728,125.864628 75.46944,142.61541 84.144065,157.704165 C91.8658452,171.13553 97.7024416,182.414254 101.101045,194.357132 C103.429413,202.539145 92.2363999,219.809217 94.4512174,218.459008 C96.6502531,217.118419 106.401549,198.149757 101.101045,188.831743 C93.2705973,175.066219 91.5028531,160.662975 89.3346641,152.486352 C85.6988075,138.774894 88.1860975,127.046262 85.8179511,117.954362 C85.5135295,116.785613 82.6048761,112.470115 83.1679889,110.972228 C84.0330027,108.67128 88.5571325,109.194109 87.926702,108.140507 C87.2016625,106.928791 84.3580163,106.699228 79.3957634,107.45182 Z" id="Path-45" fill="#B78368"></path>
                    <path d="M128.953991,17.3742085 C128.953991,31.4814768 125.812054,86.2907217 116.017836,103.576806 C113.027457,108.854607 110.703838,113.347411 109.046978,117.055218 C108.814627,117.575186 105.28091,118.360845 103.743807,111.846017 C100.851529,99.5874457 101.250996,81.3602093 99.249527,81.3602093 C97.2480581,81.3602093 92.2699546,84.2443683 95.53055,105.445551 C96.0477569,108.808556 99.5262511,115.967102 105.966033,126.92119 C114.095933,143.528505 118.886214,153.789497 120.336876,157.704165 C128.953991,161.041991 133.006461,167.194296 130.980226,147.057743 C128.953991,126.92119 137.008013,99.9436603 140.407535,85.6491936 C143.807058,71.354727 144.19044,44.5134776 147.461169,30.9438431 C150.731899,17.3742085 146.553632,7.21510858 143.128651,3.67578145 C141.346941,1.83458741 136.115534,0.977531757 132.91391,3.3526182 C129.961052,5.54316021 128.953991,10.6056849 128.953991,17.3742085 Z" id="Path-46" fill="#B78368"></path>
                    <path d="M16.2805954,218.459008 C16.2340575,245.469886 24.9457294,260.952246 42.415611,264.906089 C59.8854926,268.859932 83.1757725,271.94689 112.286451,274.166962 C70.8255503,274.166962 43.5285902,274.166962 30.3955706,274.166962 C21.7751921,274.166962 19.1165582,267.392925 17.7586212,251.39184 C17.2847145,245.807618 16.7920392,234.830008 16.2805954,218.459008 Z" id="Path-47" fill="#B78368"></path>
                    <path d="M64.2835231,175.16743 L100.010864,188.36289" id="Line-8" stroke="#B78368" stroke-linecap="square"></path>
                </g>
                <g id="Socks" transform="translate(391.162390, 2613.204465)" fill="#D8D8D8">
                    <path d="M158.794482,16.2222501 C146.197371,28.0646112 137.898318,37.4218652 133.897323,44.2940121 C127.89583,54.6022325 106.156848,54.676156 97.9280677,65.5757644 C89.6992877,76.4753728 60.351661,95.3902043 48.9756568,98.7112857 C37.5996526,102.032367 19.2310335,109.290559 19.2310335,112.318684 C19.2310335,115.34681 -33.77348,169.940678 36.2115337,205.733338 C76.3355629,224.392176 113.342485,196.869364 136.068483,183.293451 C158.794482,169.717539 205.900174,122.343531 250.897678,108.706016 C295.895182,95.0685002 289.064104,52.5310058 285.866228,40.3651153 C283.734311,32.2545217 279.640357,18.7994833 273.584366,1.13686838e-13 C258.926264,22.1552448 246.762982,33.2328672 237.094519,33.2328672 C222.591825,33.2328672 175.643562,33.5723677 168.273116,24.8973089 C163.359485,19.1139364 160.199941,16.2222501 158.794482,16.2222501 Z" id="Path-51"></path>
                    <path d="M559.826189,130.137329 C570.911868,200.729658 572.467994,244.796141 564.494568,262.336779 C552.534429,288.647735 534.162289,284.780163 564.662156,371.289699 C595.162023,457.799235 720.923878,383.458896 720.923878,359.75442 C720.923878,336.049944 689.605646,209.677774 682.821378,189.341829 C676.037109,169.005883 671.097272,149.783298 671.097272,139.960314 C671.097272,130.137329 620.063524,121.779014 596.736701,121.779014 C581.185486,121.779014 568.881982,124.565119 559.826189,130.137329 Z" id="Path-52"></path>
                </g>
                <g id="Pants" transform="translate(347.911708, 1440.832560)" fill="#0A0A0A">
                    <path d="M41.2514756,-1.13686838e-13 C32.1280835,12.1249195 27.2778309,23.5532931 26.7007179,34.2851208 C25.8350484,50.3828623 20.0133145,36.7071624 16.1821053,72.4373013 C12.3508962,108.16744 22.8584038,106.64056 11.2137489,127.75552 C-0.430906066,148.87048 -4.33540795,178.665072 5.9233487,204.290864 C16.1821053,229.916656 44.5441583,376.34214 49.8056855,399.729173 C55.0672128,423.116206 61.2415673,482.505501 67.5158664,496.391136 C73.7901655,510.276771 82.8096093,530.405611 82.8096093,544.420063 C82.8096093,558.434515 98.3920809,567.429528 104.10669,582.965359 C109.8213,598.501189 101.714683,615.354068 111.151673,623.947081 C120.588663,632.540095 90.5808562,629.195283 97.3437733,664.167004 C104.10669,699.138726 108.159999,674.598998 115.524804,718.574617 C120.434675,747.891696 129.641422,802.309673 143.145046,881.828548 C153.178002,932.033305 159.532257,959.475868 162.20781,964.156236 C166.221141,971.176788 162.20781,980.411668 162.20781,999.219018 C162.20781,1018.02637 183.171743,1063.93647 183.171743,1076.4673 C183.171743,1088.99813 177.603719,1088.47398 189.448263,1103.09476 C201.292807,1117.71554 197.392747,1118.58173 206.840842,1124.89823 C203.142152,1138.47736 201.807337,1161.01302 202.836396,1192.50519 C210.980029,1208.53482 228.685027,1215.21482 255.951391,1212.54519 C296.850938,1208.54074 311.462107,1194.30419 316.835048,1172.37191 C320.344457,1155.30729 322.171714,1140.76128 322.316818,1128.73388 C337.121966,1123.05465 345.965263,1112.92375 348.846709,1098.34117 C353.168877,1076.4673 322.316818,1028.34397 322.316818,1013.7815 C322.316818,999.219018 319.947647,903.345017 311.466479,878.777188 C316.835048,858.056525 306.799842,816.399451 306.799842,795.985183 C306.799842,775.570914 322.203618,697.258807 316.835048,682.928933 C311.466479,668.599059 306.799842,666.717175 306.799842,646.509588 C306.799842,633.037863 308.355388,590.970449 311.466479,520.307347 C325.066322,502.762437 331.866243,485.520297 331.866243,468.580926 C331.866243,443.17187 323.323434,432.564065 327.594839,432.564065 C331.866243,432.564065 359.291345,474.115231 366.86783,485.253183 C374.444316,496.391136 439.146307,683.976841 445.152743,712.587638 C451.159179,741.198435 487.730815,969.481813 496.839278,999.219018 C505.94774,1028.95622 560.081811,1166.32648 572.750986,1182.812 C577.026017,1188.46309 578.815438,1196.09941 572.750986,1196.09941 C566.686534,1196.09941 571.906133,1200.65039 577.682319,1213.69648 C583.458506,1226.74257 603.076871,1287.72067 603.076871,1302.50923 C620.753525,1319.45707 635.857545,1325.81341 675.727011,1322.63524 C715.596476,1319.45707 726.332114,1313.02095 727.083581,1291.94132 C727.835048,1270.86168 731.286092,1234.21752 735.923721,1228.84019 C740.56135,1223.46287 746.110912,1209.7476 730.608034,1202.9235 C715.105156,1196.09941 740.835048,1193.75704 740.835048,1172.37191 C740.835048,1150.98677 734.132487,1113.45063 730.608034,1089.48834 C727.083581,1065.52605 715.155919,875.033364 715.155919,875.033364 C715.155919,875.033364 696.26275,802.51376 699.747317,771.027561 C703.231884,739.541362 672.886055,661.20206 672.886055,658.82523 C672.886055,656.448399 646.637585,601.346191 646.637585,601.346191 C646.637585,601.346191 646.637585,566.361173 646.637585,496.391136 C683.377188,252.853702 697.410327,121.310371 688.737,101.761143 C680.063674,82.2119153 675.727011,57.6587118 675.727011,28.101533 L586.375997,49.4999845 L525.361555,34.2851208 C294.124146,26.3613831 151.451552,18.6662619 97.3437733,11.1997571 C43.2359947,3.73325238 24.5385621,-1.13686838e-13 41.2514756,-1.13686838e-13 Z" id="Path-50"></path>
                </g>
            </g>
            <text id="NOT-DONE" font-family="Chalkduster" font-size="212" font-weight="normal" letter-spacing="4.016225" fill="#000000">
                <tspan x="0" y="208">NOT DONE</tspan>
            </text>
        </g>
    </g>
</svg>