<svg height="198" viewBox="0 0 167 198" width="167" xmlns="http://www.w3.org/2000/svg"><g fill="none" fill-rule="evenodd" transform="translate(0 -9)"><path d="m80.5744837 70.3372229c.7654042.4633924.7654042 1.4624273 0 2.9971045-.4789038.9287694-.0588725 1.8240495 1.2600941 2.6858403 1.3189665.8617908 3.1962622 2.0909094 5.6318869 3.6873558 1.3036139.7537568 1.8708574.2521618 1.7017305-1.504785-.2536902-2.6354203.4118223-3.1655231.6935428-4.0000617 7.4388756-.5800754 6.7369795.3473153 8.8866615-2.449714.7861928.2074307.8107804.5310534 1.9070685 1.8424849.763399 1.8805813 9.885636 22.263711 11.405369 24.7342415 1.013156 1.6470203.904949 3.1788358-.324619 4.5954478-.953299 1.427781-.525166 2.749866 1.284399 3.966255 2.714346 1.824585 4.725713 3.114774 10.81801 4.15108 6.092296 1.036306 16.674633 7.270985 17.12687 23.471411.301491 10.800284-1.372847 19.472779-5.023013 26.017486-3.293292 2.888978-7.614909 4.391241-12.964849 4.506788-8.024912.173321-2.835543 8.723442-1.834624 9.78124 7.613544 5.358237 8.225432 6.37708 8.709188 6.385465.483757.008386 4.806054 2.276223 4.93563 3.079741s-.535046 1.093225-3.154634 1.247122c-1.746393.102597-7.691911.420852-17.836555.954763-2.035644-.046609-3.20146-1.163472-3.497449-3.350588-.443983-3.280674-.824156-4.72221-2.413295-5.115779-1.589139-.393568-6.840437 3.017032-9.3839135 5.900349-2.5434769 2.883317-7.6320567 8.718715-9.3337873 15.875667-1.3501136 4.532163-5.2155319 5.084529-6.9046217 5.310029-1.6890898.225501-9.624412 1.310693-11.2541919 1.810467-1.6297799.499773-3.8575661-1.308343-.4103045-3.794135 3.4472617-2.485792 9.5021125-5.935873 9.31837-10.594989-1.247484-4.380288-.4842121-14.231934 0-17.011684s1.9138342-8.270558-1.8591236-7.902823-10.1900082.817932-12.4688486-.367735c-1.5192269-.790445-2.0113417-2.424103-1.4763444-4.900976-.1431368-1.465261-.4063485-2.069569-.789635-1.812922-.5749298.38497-.3870628 3.560741-.3211812 5.709086s-1.1793276 1.707557-.4733764 3.267644 2.1260804 1.884683 1.5841926 2.52489c-.5418879.640208-1.5964653.540701-2.2278361-.203472-.6313709-.744172-1.4252541-2.976149-.3438385-5.589062.449775-2.318851-.2511188-4.011817-.4612386-4.596832-.2101197-.585016-.158871-1.775516-1.478256-.34216s-1.2824339 1.306976-1.1973034 1.556266c.0567537.166194.0851305.469667.0851305.910421-.5168194 2.738684-1.020946 4.106893-1.5123798 4.104625-.7371508-.003402-1.7293696-1.371583-.3018777-4.532987s2.4173939-4.217932 3.4110402-4.596484c.9936462-.378552.7997253-1.976829-1.5967827-1.505785-1.5123798.794846-2.675183 2.574948-4.1713128.991087-1.4961299-1.58386-1.8615523-5.080405-.7907514-5.915909 1.0708008-.835503.0819775-2.934305-.6184694-3.565306-.7004468-.631001-.3402794-1.971483 1.4092208-3.342499 1.7495001-1.371017 1.5419693-2.012142 0-2.375305-1.0279796-.242109-1.7612996-.688989-2.19996-1.34064-.3480891-.845807-.8853279-1.173899-1.6117166-.984276-1.089583.284436-2.4024558-3.162338 0-3.170273 2.4024558-.007934 4.2911604.191231 7.1033432 2.309132 1.8747886 1.411934 1.5632515-.364615-.9346113-5.329647-3.7016078-7.804779-7.7116138-11.677597-12.0300179-11.618453-4.3184041.059143-6.9794491 1.149395-7.983135 3.270755-1.4113104 1.142547-3.0056413.53858-4.7829929-1.8119-2.6660273-3.525721-6.3913737-4.614983-6.0081232-7.629976.3832504-3.014993 4.2653761-6.702019 8.1653429-6.536133s9.4906068 1.098675 11.3682777.662162c1.877671-.436513 2.882909-2.29294.405998-1.974952s-8.8809966-4.480375-8.2668145-8.246156c.614182-3.7657803.7468757-4.6520698-2.652758-3.4097677s-17.3231849 3.6280057-16.1885956-9.0191062c.2876607-2.7556374 1.5624892-5.3366429 3.8244854-7.7430164 1.2648272-1.0227826.907106-2.1342433-1.0731638-3.3343821-2.9704048-1.8002081-4.2249075-4.1008448-2.9704048-8.5792365 1.2545027-4.4783916 3.5784768-8.4716838 9.9930778-7.7395844 6.414601.7320995 10.6277088-1.168032 15.3827671-9.9936559 4.7550584-8.8256239 16.4614486-7.09644 19.4640214-5.5687485 3.0025728 1.5276914 5.5847753 6.0599255 3.9253774 12.0837443-.1155325.5770207-.1732988 1.1105324-.1732988 1.600535 6.5868012 6.365394 11.0864377 10.1691311 13.4989096 11.4112113z" fill="#2d2d2d"/><path d="m116.521214 46.4273783c24.312535 0 48.967468-10.0113623 49.106289-18.1351281.327707-11.3509006-23.245298-15.7930298-47.557833-15.7930298-24.3125356 0-47.1641214 7.6303008-47.1410653 19.5974919 1.0477379 8.7918907 21.2800744 14.330666 45.5926093 14.330666z" transform="matrix(.9612617 .27563736 -.27563736 .9612617 12.703142 -31.460955)"/><path d="m118.24161 72.8144786c11.778073 0 15.732063-27.1699939 14.329242-44.5034555-1.40282-17.3334615-5.197113-43.9603714-15.433216-43.9421005-9.663217-.5635863-11.374601 19.42472625-12.317236 35.8035203-.439163 7.6306979-1.544252 17.12027.12103 27.7051192 1.909137 12.1348375 7.00938 24.9369165 13.30018 24.9369165z" transform="matrix(.25881905 -.96592583 .96592583 .25881905 60.178835 135.598331)"/><g fill="#fff"><path d="m75.6017775 136.903688c-2.4837195-2.340148-5.2721977-.68622-8.3654344 4.961784-.3500449 1.219068-.9670614 17.039313-1.2114355 19.532099-.1629161 1.661858.4733725 2.529334 1.9088658 2.602429 24.379469-.10933 39.3282946-.570401 44.8464766-1.383212 8.277273-1.219217 17.291385-2.554478 19.527491-3.760188 1.490738-.803807 2.236107-1.918245 2.236107-3.343315 3.601331-13.513379 4.388206-23.489366 2.360624-29.927961-3.041372-9.657893-11.185726-12.508895-15.456203-12.583517-4.270476-.074623-9.020274 2.184116-9.76595 2.781393-.745676.597276-1.954314 1.909716 1.909767 3.254747 2.576054.896687 4.051311 1.535648 4.425772 1.916884.544479.584406.485834.945188-.175937 1.082346-.992655.205735-10.688371 1.711353-13.477951 1.699758-2.789579-.011595-6.8486445-1.437919-7.9844455-2.075026-1.8564086-.707078-3.698074 0-6.9059169 1.791261-.5266531.189177-5.1505965 4.672683-13.8718301 13.450518z"/><path d="m115.429549 166c-18.7604525.377326-28.7851044.50971-30.0739553.397151-1.2888508-.112559-2.0698182 1.422225-2.3429022 4.604353-.9815578 10.625497-1.3158436 17.811807-1.0028574 21.558932.2495966 1.411877-.6360091 3.212918-2.6568169 5.403123l-4.7420019 4.749848c-1.2271808 1.318036-.6058325 1.623386 1.8640448.916051s5.6491849-1.859876 9.5379228-3.457622c2.4854585-8.954101 6.5468292-15.935691 12.184112-20.944772 5.6372831-5.00908 9.8782571-6.595197 12.7229221-4.758351 1.28364.960097 1.941041 3.048916 1.972204 6.266459.019464 1.41699.86524 2.125485 2.537328 2.125485h12.570451l-7.159496-5.026518c-2.982268-1.975018-4.629661-4.773142-4.942178-8.394374-.080512-.593797-.236771-1.740385-.468777-3.439765z"/><path d="m81.0921228 115.0105c-14.1163642-.566366-22.8663928-2.270535-26.2500858-5.112506-1.493161-1.197325-2.6434704-1.197325-3.4509282 0-1.3601212 3.035597-3.1501978 4.576174-5.3702298 4.621733-2.2200319.045559-4.9103466-.238506-8.0709439-.852196-2.7985003-.62545-4.934942-.48109-6.4093251.433079-1.4743831.914168-2.5443474 1.779998-3.2098928 2.59749-.5711634.715093-.4025083 1.466805.5059655 2.255133.9084737.788329 2.5464012 2.118463 4.9137825 3.990404 1.4145824.906573 2.9629044.957022 4.644966.151345 2.5230923-1.208514 9.3370544-2.592988 12.9956776 0 2.4390822 1.72866 5.0768164 5.716648 7.9132026 11.963966 2.3085616 3.676317 4.786123 4.78061 7.4326841 3.31288s7.3184981-4.098928 14.015811-7.893594l-5.7933979.19598c1.7824174-1.168725 2.5657649-2.294831 2.3500423-3.378318-.3235838-1.625231-1.6622152-5.709701 0-7.637376 1.6622153-1.927675 3.229165-1.767449 3.7826719-2.393717 1.2105029-1.337692 1.2105029-2.089126 0-2.254303z"/><path d="m98.9228483 71c.0431146 3.7805006-.486988 5.1202732 5.3476957 16.415448 1.361048 2.8233646 3.075084 6.3106941 5.142108 10.4619887-.568558 4.8708233-2.62362 7.6351913-6.165188 8.2931023-1.140712.255684-1.470137.928413-.988275 2.018186 1.150065.285499 2.570109.020509 4.260133-.794969s3.268891-.550488 4.7366.794969c1.791008 1.115596 2.705139 1.8268 2.742395 2.13361.055883.460216-1.262758 3.070832-6.500943 2.627112-2.570766-1.918629-5.323808-3.590099-7.458685-3.79581-2.1348773-.205711-3.843248-.522468-3.0920671-2.983098.452861-.604923 2.3684826-2.509689 2.7302747-4.044204.3617924-1.534515 2.2975454-11.610226-5.004922-18.6956466-1.1586576-1.1566534-2.6891763-1.9943191-2.4973181-3.92492s.3471626-3.6162541-.6162778-4.1549803c-.4054512-.708906-.9249107-1.3476095-1.5583787-1.9161105 5.2125102-.4106282 8.186793-1.2221874 8.9228483-2.4346776z"/><path d="m53.0723777 83.2218722c-6.1300305 4.8659504-9.5163597 7.9217373-10.1589877 9.1673607-.963942 1.8684352-3.0044425 8.0041471-1.1820387 10.8746571 1.8224039 2.87051 3.7812705 3.360939 6.2767627 2.87051 2.4954923-.490429 4.2950944-.733277 7.1710809.490429s8.2117101 3.814317 18.7313799 5.062645c5.1397047.986687 12.7586369-.562883 16.2399343-1.87197 9.5107234-3.576358 9.1762591-9.776747 8.6137434-12.0061088-.0618876-.2452729-.0925755-1.5628471-1.5411554-.576187-1.390409 2.0780261-6.006851 6.4280358-12.0049912 8.3715038-4.9508096 1.604121-10.9094582 4.103058-11.7976283.793598-.1763164-.656982 5.1899192-.793598 9.9524952-1.980451 4.6833336-1.167106 9.7090051-4.6885595 11.8130593-8.1796814 2.1919207-3.6369133 3.4176039-4.9608206 0-8.4585974-4.634579-4.7433006-5.1459581-2.3574539-9.6856336-6.7158572-1.5991805-1.2785523-3.260983-.3859421-6.4340489 1.1516227-.4013884.1944998-1.6809601.7383304 1.1299423 2.0721002.689447.547384 2.7106489.8901289 2.0413236 3.9201171-.2234879 1.011714 1.5838329 2.0666606 4.2112069.1618592 2.3278119-.8111081 2.6749326-.8823032 2.4620559-.3976806-.5234525 1.1916611-1.2050459 2.9329923-4.8608182 3.615999-2.332429.435767-1.6503052 1.9542095-4.015629 2.6770292-2.3610967.721528-4.4655396.6410405-6.4296995.1998135-.951669-.213782.9794129-1.4115477 3.1235985-1.4472684 2.1441855-.0357207 2.5563769-.9978789 3.306101-1.6311841.9349855-.7897989 0-1.6983513-2.3386588-1.4054675-.8507589.109142 1.0400227-2.159917-.1614645-3.0898996-2.1570826-1.6696385-3.3909711-1.4392194-4.9534052-2.6033178-.5547828-.2796929-.5538953-2.5223054 3.0245736-4.7445097 2.0902961.6803735 3.4384321-.2465404 3.9002366-1.4138973 1.0868755-2.3103621-1.3548433-4.4081846-2.7773827-4.8294883-2.4232953-.7176908-7.5541689 0-11.1727.6289674-2.0957317.3642768-2.8317198 2.1997085-3.116885 2.7059642-2.2069555 3.9180227-4.8394208 9.2214045-8.089764 11.5730808-2.1668955 1.5677842-1.9636989-.3024154.6095897-5.610599.1760149-.8733412.0290165-1.0705283-.4409953-.5915613-.4700118.4789669-.9517444.8844568-1.4451978 1.2164695z"/></g><path d="m64.7850953 87.1812022c.9725014 0 1.8060791-1.8882815 1.8060791-3.2930058 0-.7092863-.2300353-1.6323151-.6996049-2.1531626-.4604016-.5106783-1.155629-.6261649-1.637086-.6261649-.9725014 0-1.1850482 1.3746032-1.1850482 2.7793275s.7431586 3.2930058 1.71566 3.2930058z" fill="#3e3e3e" transform="matrix(.95105652 .30901699 -.30901699 .95105652 29.175267 -15.915315)"/><path d="m69.834599 67.4782288c-5.1333386 2.8514555-8.3581426 4.5165482-9.6744119 4.9952782-1.9744039.718095-12.8860218 11.4576654-14.4754791 12.6237082-1.0596381.777362-3.1885314 2.7794183-6.3866797 6.0061691-.586621.5381341-.969892.6807811-1.1498132.4279412-1.9798082-2.7821876-1.6239316-5.1848402-3.8008062-5.4070028-2.1768745-.2221626 1.1383178 4.6658491.4801391 6.8411727-.4016404 1.3274479-3.485707 1.004074-4.1078573.9897062-4.5107068-.104169-13.1398252-1.3434717-7.7517498-9.6083028 2.40937-4.0010073 3.7682732-6.1082493 5.2506624-6.9593141.9882595-.5673766.757938-1.2432958-.6909646-2.0277578-5.5914714-1.3051413-7.5907688-3.9680053-5.997892-7.9885918 2.389315-6.0308798 7.361809-5.8083485 7.7142548-2.1614643.2349638 2.4312561 1.3763583 2.4312561 3.4241835 0 2.7160733-2.2221831 6.4880604-3.1568146 11.3159612-2.8038943 1.7368509.1544886 2.3037048-.3395246 1.7005618-1.4820397-2.7914534-2.5898762-2.905711-5.2608777-.3427728-8.0130045 3.8444075-4.1281903 14.7769689-11.1519836 19.3683002-3.4911574 1.563144 2.7105647 1.0708816 7.0392985-1.4767872 12.9862016.0014065 1.5162882.6619523 1.8236198 1.9816374.9219947 1.3196852-.9016251 2.8040716-.6872254 4.4531594.643199.67674.4885564 1.1058311 1.0748964 1.2872733 1.75902.1814423.6841237-.1921975 1.2668366-1.1209193 1.7481386z" fill="#fff"/><path d="m81.5941449 54.4262188c1.7564487-.1872962 4.7457747-.2761902 6.3123985 0s4.6394243-.1000624.8756489-2.0785202-6.8059736-4.3152083-6.8758134-5.460115c-.0698399-1.1449066-.0592351-1.32194 3.5580433.3042621 2.411519 1.0841347 5.462403 2.6851325 9.1526522 4.8029935.9910891.42812 1.4032602 1.2385799 1.2365132 2.4313796-.2501205 1.7891996 3.6240958.3539159 4.1885714 0 .564475-.3539159 6.302097-.6865516 2.870704 5.4949783-2.074288 1.6369177-3.5894029 2.0661445-3.5753138 6.5431429.0140892 4.4769985-8.1267188 4.7038367-10.3837115 4.4769985-2.2569927-.2268383-3.7013589-4.4990333-3.9407231-6.8090704-.2393643-2.310037-2.5260502-5.2196429-4.1061572-5.6322681-1.5801069-.4126252-.9317025-3.3297277.6871875-4.0737812z" fill="#2d2d2d"/><path d="m58.7531164 154.279416c2.2247683 0 4.2974764-1.035356 4.2974764-1.855008 0-.819651-1.9425501-1.013505-4.1673185-1.013505-.4753496 0-1.8436801-.795231-2.2670864-.739531-1.5582528.204991-2.6256646 1.821723-2.6256646 2.466246 0 .413548-.3619512 1.276078.5639569 1.458857.9092406.179489 3.0963551-.317059 4.1986362-.317059z" fill="#fff" transform="matrix(.81915204 -.57357644 .57357644 .81915204 -76.980614 61.152845)"/><path d="m58.5578863 148.449542c2.3150447 0 5.103155-1.172389 3.8935222-2.130426-1.2096329-.958037-1.1662648-1.541293-3.4813095-1.541293s-4.9093034 1.182687-4.9093034 2.224457c0 .582666 1.0921761 1.472907 2.0146645 1.818918.7268625.272635 1.4621951-.371656 2.4824262-.371656z" fill="#fff" transform="matrix(.87461971 -.48480962 .48480962 .87461971 -63.863623 46.723973)"/><path d="m53.8098275 143.998904c.5402786 0 .558833-1.471402.558833-3.200293 0-.6392.8510437-1.820605.7962637-2.57465-.0933875-1.285478-1.1554736-2.056723-1.4960023-2.056723-.3641221 0 .0897415 1.094725-.0369582 2.504344-.0612953.681951-.6176517.818883-.6176517 1.382584 0 1.728891.255237 3.944738.7955155 3.944738z" fill="#fff" transform="matrix(.42261826 -.90630779 .90630779 .42261826 -95.727288 129.904398)"/><path d="m83.6177404 57.2804221c3.4410962-.3263922 6.0416945-.3263922 7.801795 0 2.6401507.4895882 5.6699606.9791764 6.1752825.4895882.5053218-.4895882 3.0537781-1.1554282 3.2384391-.4895882.184661.6658399.615535 2.1411078-1.4604016 2.8880623-2.075937.7469544-2.4504275 3.3216222-1.7780375 4.1049634.67239.7833411-.2264237 2.8282486-3.3682779 3.9830723-3.1418542 1.1548238-6.8241262 1.3077307-7.775878-2.0792527-.9517519-3.3869833-1.5974409-7.0359266-2.8329216-7.4972275-.8236539-.3075339-.8236539-.7740732 0-1.3996178z" fill="#fff"/><path d="m19.5217476 116.857508c-2.054613 1.042794-4.6410487 2.199248-8.7425786 1.931597-4.10152988-.267652-4.50813005 1.153023-3.90960543 1.948996.59852463.795972 1.46154464 1.499292.62672098 2.723811 3.16996375 1.438594 7.78819615 2.248877 12.55792025 1.689007 4.769724-.55987 5.6780801-2.300301 6.8395029-2.321506s4.0944046 1.231455 0 3.085879c-4.0944046 1.854423-13.701411 3.391285-21.84931571.393848-8.1479047-2.997437-4.22529885-12.952001-3.19292304-13.693667s1.42347524-1.229356 5.6448156 1.077249c4.22134035 2.306605 8.15022135 2.103391 9.78865685 1.88357s3.3196205.514967 2.2368062 1.281216z" fill="#2d2d2d"/><path d="m20.3523595 116c-2.6414815 1.333339-6.0744151 1.992075-10.298801 1.976207-4.22438577-.015867-5.14696245 1.10661-2.76773 3.367432.29866521 1.352067.29866521 2.056286 0 2.112657-.4479978.084556 5.4196287 2.656949 11.0577267 2.539823 5.6380979-.117126 7.7391987-2.452853 8.572137-3.222838.5552922-.513323-1.6324853-2.771083-6.5633327-6.773281z" fill="#fff"/><g transform="translate(88 45)"><g fill="#2d2d2d"><path d="m23.0414201 13c1.294111 0 2.7933078-1.3177602 2.7933078-2.0660169 0-.7482568-1.4991968-.6436605-2.7933078-.6436605s-2.3431952.6065819-2.3431952 1.3548387c0 .7482567 1.0490842 1.3548387 2.3431952 1.3548387z"/><path d="m22.0629537 6.80475694c2.1558915-.0041591 6.6670931-.68406913 6.6687567-1.5396038.0016636-.85553466-.0916091-.85473334-2.2475006-.85057424-2.1558915.00415909-5.7440316-.87929179-5.7456952-.02375712-.0016637.85553466-.8314524 2.41809426 1.3244391 2.41393516z" transform="matrix(.97437006 .22495105 -.22495105 .97437006 1.849175 -5.407694)"/><path d="m46.4733728 8.35483871c1.7254813 0 3.1242603-.77989108 3.1242603-1.74193548 0-.96204441-1.398779-.97240425-3.1242603-.97240425-1.7254814 0-3.1196917-.9620444-3.1196917 0s1.3942103 2.71433973 3.1196917 2.71433973z"/><path d="m59.1585874 8.81526982c3.9896542.00424623 6.3853318-1.33195877 6.384299-2.29412999-.0010329-.96217122-2.3971148-.00255128-6.386769-.00679751-3.9896543-.00424624-7.491299-.9701432-7.4902661-.00797198s3.5030818 2.30465324 7.4927361 2.30889948z" transform="matrix(.99254615 -.12186934 .12186934 .99254615 -.470802 7.197589)"/></g><path d="m4.71537217 4.65602008c2.55218083-.00909901 4.08869407-.87386768 4.09090734-1.49145235s-1.53343371.00546698-4.08561454.01456599c-2.55218084.00909901-4.78930809-.60050198-4.79152136.01708269s2.23404772 1.46890268 4.78622856 1.45980367z" fill="#000" transform="matrix(.89100652 .4539905 -.4539905 .89100652 2.189394 -1.571563)"/></g><path d="m84.0525097 120.431855c-1.4288795-1.794168-3.02931-1.902216-4.8012917-.324144-2.6579724 2.367109-.258335 4.976184-.2359668 6.36183.0223683 1.385646.1799545 2.136605 0 2.492512-.1799544.355906 4.7935911-1.824118 7.7037565-5.177158s.1089994-4.548591-1.0264647-3.817642c-.7569761.487299-1.3036539.642166-1.6400333.464602z" fill="#ff8700"/><path d="m96.8419603 115.98505c-.7579515-.192013-1.7610129 1.692832.8280103 3.77179 2.5890234 2.078957 6.3705054 3.247353 7.5220594 3.243149 1.151555-.004205 1.795535-.133749 3.324389-.781108s2.284042-.34032 2.454129-.824498c.170088-.484177-.364113-2.397627-2.454129-2.566713-2.090016-.169087-6.172028-3.904107-6.433753-4.979103-.261724-1.074996-3.1068446-1.518468-3.0583802 1.074996.0484643 2.593463-1.0682552.950482-2.1823255 1.061487z" fill="#ff8700"/><path d="m91.3249798 116.792388c2.8447331 0 2.1851597-1.898834 2.1851597-2.803976 0-.905143-1.3171078-2.47111-3.8693088-1.54354-2.552201.927571-4.5839767.968987-4.5839767 1.874129 0 .905143 3.4233927 2.473387 6.2681258 2.473387z" fill="#ff8700" transform="matrix(.93969262 -.34202014 .34202014 .93969262 -33.766891 37.451865)"/><path d="m86.6232385 93.2254259c-3.2743948 2.6997901-5.8204118 4.017487-7.6380509 3.9530907-2.7264587-.0965943-3.7877337-1.2465743-4.6979489-.8446492s-1.8204304 5.1647106-.9102152 5.5835066 2.885717-.868247 4.6601564-1.313286c1.7744394-.44504 8.281515-3.2606111 10.9373469-5.806578 2.6004103-1.5720841 2.4707258-2.3370099 3.5454431-2.3235572 1.0747172.0134526.2347982-1.5972251-1.4286225-1.4180404-1.6634208.1791847-2.7361548.2911063-3.3686006 0-.6324459-.2911062-1.2567383.6159544-1.0995083 1.3017081.10482.4571692.10482.7464376 0 .8678054z" fill="#2d2d2d"/><path d="m55.7570894 117.281859c4.8219325 2.511032 8.5110066 3.750202 11.0672224 3.717511 3.8343235-.049037 3.4288329-.03816 3.9734716-.579167.5446387-.541008.0586476-2.075586-2.3137805-1.873377-2.3724282.202209-8.7338304-1.887286-10.3225467-2.808818-1.5887162-.921532-3.2424305-1.044569-3.1583814 0 .0560328.69638.307371 1.210997.7540146 1.543851z" fill="#000"/><path d="m118.86904 47.2001689c24.312536 0 48.967468-10.0113623 49.106289-18.1351281.327707-11.3509006-23.245298-15.7930298-47.557833-15.7930298-24.3125355 0-47.1641213 7.6303009-47.1410652 19.5974919 1.0477379 8.7918907 21.2800744 14.330666 45.5926092 14.330666z" fill="#f1a738" transform="matrix(.9612617 .27563736 -.27563736 .9612617 13.007103 -32.078167)"/><path d="m120.589436 73.5872692c11.778073 0 15.732063-27.1699939 14.329242-44.5034554-1.40282-17.3334616-5.197113-43.9603714-15.433216-43.9421005-9.663217-.5635863-11.374601 19.42472619-12.317236 35.8035203-.439163 7.6306979-1.544252 17.1202699.12103 27.7051191 1.909137 12.1348376 7.00938 24.9369165 13.30018 24.9369165z" fill="#f5deba" transform="matrix(.25881905 -.96592583 .96592583 .25881905 61.17254 138.438934)"/><g fill="#ce5349" transform="translate(85 14)"><ellipse cx="8.03996" cy="1.920831" rx="3.334631" ry="1.19103" transform="matrix(.97437006 .22495105 -.22495105 .97437006 .638157 -1.759367)"/><ellipse cx="4.511551" cy="11.057817" rx="3.334631" ry="1.19103" transform="matrix(.97437006 .22495105 -.22495105 .97437006 2.603098 -.731467)"/><ellipse cx="4.511551" cy="5.893433" rx="3.334631" ry="1.19103" transform="matrix(.97437006 .22495105 -.22495105 .97437006 1.441365 -.86383)"/><ellipse cx="15.096778" cy="7.085214" rx="3.334631" ry="1.19103" transform="matrix(.97437006 .22495105 -.22495105 .97437006 1.980756 -3.214443)"/><ellipse cx="25.682005" cy="7.879735" rx="3.334631" ry="1.19103" transform="matrix(.97437006 .22495105 -.22495105 .97437006 2.430783 -5.575237)"/><ellipse cx="20.585414" cy="13.044118" rx="3.334631" ry="1.19103" transform="matrix(.97437006 .22495105 -.22495105 .97437006 3.461891 -4.296391)"/><ellipse cx="31.23671" cy="12.936836" rx="3.334632" ry="1.48843" transform="matrix(.97437006 .22495105 -.22495105 .97437006 3.71075 -6.69516)"/><ellipse cx="29.276482" cy="22.073822" rx="3.334632" ry="1.48843" transform="matrix(.97437006 .22495105 -.22495105 .97437006 5.715884 -6.020025)"/><ellipse cx="32.804891" cy="18.10122" rx="3.334632" ry="1.48843" transform="matrix(.97437006 .22495105 -.22495105 .97437006 4.912676 -6.915562)"/><ellipse cx="36.3333" cy="8.169713" rx="3.334632" ry="1.48843" transform="matrix(.97437006 .22495105 -.22495105 .97437006 2.769006 -7.963825)"/><ellipse cx="45.350346" cy="7.375192" rx="3.334632" ry="1.48843" transform="matrix(.97437006 .22495105 -.22495105 .97437006 2.821384 -10.012582)"/><ellipse cx="43.390119" cy="14.923138" rx="3.334632" ry="1.48843" transform="matrix(.97437006 .22495105 -.22495105 .97437006 4.469061 -9.378174)"/><ellipse cx="36.3333" cy="3.40259" rx="3.334632" ry="1.48843" transform="matrix(.97437006 .22495105 -.22495105 .97437006 1.696636 -8.086006)"/><ellipse cx="15.096778" cy="17.811242" rx="3.334631" ry="1.19103" transform="matrix(.97437006 .22495105 -.22495105 .97437006 4.393587 -2.939535)"/><ellipse cx="27.642233" cy="3.112611" rx="3.334631" ry="1.19103" transform="matrix(.97437006 .22495105 -.22495105 .97437006 1.408654 -6.138373)"/><ellipse cx="18.625187" cy="1.920831" rx="3.334631" ry="1.19103" transform="matrix(.97437006 .22495105 -.22495105 .97437006 .909455 -4.140525)"/><ellipse cx="7.252841" cy="1.986301" rx="3.334631" ry="1.19103" transform="matrix(-.97437006 -.22495105 .22495105 -.97437006 69.36729 30.580625)"/><ellipse cx="3.724432" cy="11.123288" rx="3.334631" ry="1.19103" transform="matrix(-.97437006 -.22495105 .22495105 -.97437006 67.402348 29.552726)"/><ellipse cx="3.724432" cy="5.958904" rx="3.334631" ry="1.19103" transform="matrix(-.97437006 -.22495105 .22495105 -.97437006 68.564081 29.685089)"/><ellipse cx="14.309659" cy="7.150685" rx="3.334631" ry="1.19103" transform="matrix(-.97437006 -.22495105 .22495105 -.97437006 68.02469 32.035701)"/><ellipse cx="24.894886" cy="7.945205" rx="3.334631" ry="1.19103" transform="matrix(-.97437006 -.22495105 .22495105 -.97437006 67.574663 34.396496)"/><ellipse cx="17.838068" cy="13.109589" rx="3.334631" ry="1.19103" transform="matrix(-.97437006 -.22495105 .22495105 -.97437006 66.593796 32.676694)"/><ellipse cx="14.309659" cy="17.876712" rx="3.334631" ry="1.19103" transform="matrix(-.97437006 -.22495105 .22495105 -.97437006 65.611859 31.760794)"/><ellipse cx="26.855114" cy="3.178082" rx="3.334631" ry="1.19103" transform="matrix(-.97437006 -.22495105 .22495105 -.97437006 68.596792 34.959632)"/><ellipse cx="17.838068" cy="1.986301" rx="3.334631" ry="1.19103" transform="matrix(-.97437006 -.22495105 .22495105 -.97437006 69.095991 32.961783)"/></g></g></svg>