<?xml version="1.0" encoding="UTF-8"?>
<svg width="167px" height="198px" viewBox="0 0 167 198" version="1.1" xmlns="http://www.w3.org/2000/svg" xmlns:xlink="http://www.w3.org/1999/xlink">
    <!-- Generator: Sketch 53.2 (72643) - https://sketchapp.com -->
    <title>picon</title>
    <desc>Created with Sketch.</desc>
    <g id="personalwebsite" stroke="none" stroke-width="1" fill="none" fill-rule="evenodd">
        <g id="t" transform="translate(-1123.000000, -1035.000000)">
            <g id="Group-4" transform="translate(883.000000, 1026.000000)">
                <g id="picon" transform="translate(240.000000, 0.000000)">
                    <g id="Group">
                        <g id="Pepis-Guy-2">
                            <path d="M80.5744837,70.3372229 C81.3398879,70.8006153 81.3398879,71.7996502 80.5744837,73.3343274 C80.0955799,74.2630968 80.5156112,75.1583769 81.8345778,76.0201677 C83.1535443,76.8819585 85.03084,78.1110771 87.4664647,79.7075235 C88.7700786,80.4612803 89.3373221,79.9596853 89.1681952,78.2027385 C88.914505,75.5673182 89.5800175,75.0372154 89.861738,74.2026768 C97.3006136,73.6226014 96.5987175,74.5499921 98.7483995,71.7529628 C99.5345923,71.9603935 99.5591799,72.2840162 100.655468,73.5954477 C101.418867,75.476029 110.541104,95.8591587 112.060837,98.3296892 C113.073993,99.9767095 112.965786,101.508525 111.736218,102.925137 C110.782919,104.352918 111.211052,105.675003 113.020617,106.891392 C115.734963,108.715977 117.74633,110.006166 123.838627,111.042472 C129.930923,112.078778 140.51326,118.313457 140.965497,134.513883 C141.266988,145.314167 139.59265,153.986662 135.942484,160.531369 C132.649192,163.420347 128.327575,164.92261 122.977635,165.038157 C114.952723,165.211478 120.142092,173.761599 121.143011,174.819397 C128.756555,180.177634 129.368443,181.196477 129.852199,181.204862 C130.335956,181.213248 134.658253,183.481085 134.787829,184.284603 C134.917405,185.088121 134.252783,185.377828 131.633195,185.531725 C129.886802,185.634322 123.941284,185.952577 113.79664,186.486488 C111.760996,186.439879 110.59518,185.323016 110.299191,183.1359 C109.855208,179.855226 109.475035,178.41369 107.885896,178.020121 C106.296757,177.626553 101.045459,181.037153 98.5019825,183.92047 C95.9585056,186.803787 90.8699258,192.639185 89.1681952,199.796137 C87.8180816,204.3283 83.9526633,204.880666 82.2635735,205.106166 C80.5744837,205.331667 72.6391615,206.416859 71.0093816,206.916633 C69.3796017,207.416406 67.1518155,205.60829 70.5990771,203.122498 C74.0463388,200.636706 80.1011896,197.186625 79.9174471,192.527509 C78.6699631,188.147221 79.433235,178.295575 79.9174471,175.515825 C80.4016592,172.736075 81.8312813,167.245267 78.0583235,167.613002 C74.2853657,167.980737 67.8683153,168.430934 65.5894749,167.245267 C64.070248,166.454822 63.5781332,164.821164 64.1131305,162.344291 C63.9699937,160.87903 63.706782,160.274722 63.3234955,160.531369 C62.7485657,160.916339 62.9364327,164.09211 63.0023143,166.240455 C63.0681959,168.3888 61.8229867,167.948012 62.5289379,169.508099 C63.2348891,171.068186 64.6550183,171.392782 64.1131305,172.032989 C63.5712426,172.673197 62.5166652,172.57369 61.8852944,171.829517 C61.2539235,171.085345 60.4600403,168.853368 61.5414559,166.240455 C61.9912309,163.921604 61.2903371,162.228638 61.0802173,161.643623 C60.8700976,161.058607 60.9213463,159.868107 59.6019613,161.301463 C58.2825763,162.734819 58.3195274,162.608439 58.4046579,162.857729 C58.4614116,163.023923 58.4897884,163.327396 58.4897884,163.76815 C57.972969,166.506834 57.4688424,167.875043 56.9774086,167.872775 C56.2402578,167.869373 55.248039,166.501192 56.6755309,163.339788 C58.1030228,160.178384 59.0929248,159.121856 60.0865711,158.743304 C61.0802173,158.364752 60.8862964,156.766475 58.4897884,157.237519 C56.9774086,158.032365 55.8146054,159.812467 54.3184756,158.228606 C52.8223457,156.644746 52.4569233,153.148201 53.5277242,152.312697 C54.598525,151.477194 53.6097017,149.378392 52.9092548,148.747391 C52.208808,148.11639 52.5689754,146.775908 54.3184756,145.404892 C56.0679757,144.033875 55.8604449,143.39275 54.3184756,143.029587 C53.290496,142.787478 52.557176,142.340598 52.1185156,141.688947 C51.7704265,140.84314 51.2331877,140.515048 50.506799,140.704671 C49.417216,140.989107 48.1043432,137.542333 50.506799,137.534398 C52.9092548,137.526464 54.7979594,137.725629 57.6101422,139.84353 C59.4849308,141.255464 59.1733937,139.478915 56.6755309,134.513883 C52.9739231,126.709104 48.9639171,122.836286 44.645513,122.89543 C40.3271089,122.954573 37.6660639,124.044825 36.662378,126.166185 C35.2510676,127.308732 33.6567367,126.704765 31.8793851,124.354285 C29.2133578,120.828564 25.4880114,119.739302 25.8712619,116.724309 C26.2545123,113.709316 30.136638,110.02229 34.0366048,110.188176 C37.9365716,110.354062 43.5272116,111.286851 45.4048825,110.850338 C47.2825535,110.413825 48.2877915,108.557398 45.8108805,108.875386 C43.3339695,109.193374 36.9298839,104.395011 37.544066,100.62923 C38.158248,96.8634497 38.2909417,95.9771602 34.891308,97.2194623 C31.4916743,98.4617644 17.5681231,100.847468 18.7027124,88.2003561 C18.9903731,85.4447187 20.2652016,82.8637132 22.5271978,80.4573397 C23.792025,79.4345571 23.4343038,78.3230964 21.454034,77.1229576 C18.4836292,75.3227495 17.2291265,73.0221128 18.4836292,68.5437211 C19.7381319,64.0653295 22.062106,60.0720373 28.476707,60.8041367 C34.891308,61.5362362 39.1044158,59.6361047 43.8594741,50.8104808 C48.6145325,41.9848569 60.3209227,43.7140408 63.3234955,45.2417323 C66.3260683,46.7694237 68.9082708,51.3016578 67.2488729,57.3254766 C67.1333404,57.9024973 67.0755741,58.436009 67.0755741,58.9260116 C73.6623753,65.2914056 78.1620118,69.0951427 80.5744837,70.3372229 Z" id="body-copy-2" fill="#2D2D2D"></path>
                            <path d="M116.521214,46.4273783 C140.833749,46.4273783 165.488682,36.416016 165.627503,28.2922502 C165.95521,16.9413496 142.382205,12.4992204 118.06967,12.4992204 C93.7571344,12.4992204 70.9055486,20.1295212 70.9286047,32.0967123 C71.9763426,40.888603 92.2086791,46.4273783 116.521214,46.4273783 Z" id="pizza-back-copy" transform="translate(118.279734, 29.463299) rotate(16.000000) translate(-118.279734, -29.463299) "></path>
                            <path d="M118.24161,72.8144786 C130.019683,72.8144786 133.973673,45.6444847 132.570852,28.3110231 C131.168032,10.9775616 127.373739,-15.6493483 117.137636,-15.6310774 C107.474419,-16.1946637 105.763035,3.79364885 104.8204,20.1724429 C104.381237,27.8031408 103.276148,37.2927129 104.94143,47.8775621 C106.850567,60.0123996 111.95081,72.8144786 118.24161,72.8144786 Z" id="pizza-front-copy" transform="translate(118.447010, 28.585873) rotate(-75.000000) translate(-118.447010, -28.585873) "></path>
                            <path d="M75.6017775,136.903688 C73.118058,134.56354 70.3295798,136.217468 67.2363431,141.865472 C66.8862982,143.08454 66.2692817,158.904785 66.0249076,161.397571 C65.8619915,163.059429 66.4982801,163.926905 67.9337734,164 C92.3132424,163.89067 107.262068,163.429599 112.78025,162.616788 C121.057523,161.397571 130.071635,160.06231 132.307741,158.8566 C133.798479,158.052793 134.543848,156.938355 134.543848,155.513285 C138.145179,141.999906 138.932054,132.023919 136.904472,125.585324 C133.8631,115.927431 125.718746,113.076429 121.448269,113.001807 C117.177793,112.927184 112.427995,115.185923 111.682319,115.7832 C110.936643,116.380476 109.728005,117.692916 113.592086,119.037947 C116.16814,119.934634 117.643397,120.573595 118.017858,120.954831 C118.562337,121.539237 118.503692,121.900019 117.841921,122.037177 C116.849266,122.242912 107.15355,123.74853 104.36397,123.736935 C101.574391,123.72534 97.5153255,122.299016 96.3795245,121.661909 C94.5231159,120.954831 92.6814505,121.661909 89.4736076,123.45317 C88.9469545,123.642347 84.3230111,128.125853 75.6017775,136.903688 Z" id="Belly-Copy" fill="#FFFFFF"></path>
                            <path d="M115.429549,166 C96.6690965,166.377326 86.6444446,166.50971 85.3555937,166.397151 C84.0667429,166.284592 83.2857755,167.819376 83.0126915,171.001504 C82.0311337,181.627001 81.6968479,188.813311 82.0098341,192.560436 C82.2594307,193.972313 81.373825,195.773354 79.3530172,197.963559 L74.6110153,202.713407 C73.3838345,204.031443 74.0051828,204.336793 76.4750601,203.629458 C78.9449374,202.922123 82.124245,201.769582 86.0129829,200.171836 C88.4984414,191.217735 92.5598121,184.236145 98.1970949,179.227064 C103.834378,174.217984 108.075352,172.631867 110.920017,174.468713 C112.203657,175.42881 112.861058,177.517629 112.892221,180.735172 C112.911685,182.152162 113.757461,182.860657 115.429549,182.860657 L128,182.860657 L120.840504,177.834139 C117.858236,175.859121 116.210843,173.060997 115.898326,169.439765 C115.817814,168.845968 115.661555,167.69938 115.429549,166 Z" id="Legs-Copy" fill="#FFFFFF"></path>
                            <path d="M81.0921228,115.0105 C66.9757586,114.444134 58.22573,112.739965 54.842037,109.897994 C53.348876,108.700669 52.1985666,108.700669 51.3911088,109.897994 C50.0309876,112.933591 48.240911,114.474168 46.020879,114.519727 C43.8008471,114.565286 41.1105324,114.281221 37.9499351,113.667531 C35.1514348,113.042081 33.0149931,113.186441 31.54061,114.10061 C30.0662269,115.014778 28.9962626,115.880608 28.3307172,116.6981 C27.7595538,117.413193 27.9282089,118.164905 28.8366827,118.953233 C29.7451564,119.741562 31.3830839,121.071696 33.7504652,122.943637 C35.1650476,123.85021 36.7133696,123.900659 38.3954312,123.094982 C40.9185235,121.886468 47.7324856,120.501994 51.3911088,123.094982 C53.830191,124.823642 56.4679252,128.81163 59.3043114,135.058948 C61.612873,138.735265 64.0904344,139.839558 66.7369955,138.371828 C69.3835566,136.904098 74.0554936,134.2729 80.7528065,130.478234 L74.9594086,130.674214 C76.741826,129.505489 77.5251735,128.379383 77.3094509,127.295896 C76.9858671,125.670665 75.6472357,121.586195 77.3094509,119.65852 C78.9716662,117.730845 80.5386159,117.891071 81.0921228,117.264803 C82.3026257,115.927111 82.3026257,115.175677 81.0921228,115.0105 Z" id="left-chest-copy" fill="#FFFFFF"></path>
                            <path d="M98.9228483,71 C98.9659629,74.7805006 98.4358603,76.1202732 104.270544,87.415448 C105.631592,90.2388126 107.345628,93.7261421 109.412652,97.8774367 C108.844094,102.74826 106.789032,105.512628 103.247464,106.170539 C102.106752,106.426223 101.777327,107.098952 102.259189,108.188725 C103.409254,108.474224 104.829298,108.209234 106.519322,107.393756 C108.209346,106.578278 109.788213,106.843268 111.255922,108.188725 C113.04693,109.304321 113.961061,110.015525 113.998317,110.322335 C114.0542,110.782551 112.735559,113.393167 107.497374,112.949447 C104.926608,111.030818 102.173566,109.359348 100.038689,109.153637 C97.9038117,108.947926 96.195441,108.631169 96.9466219,106.170539 C97.3994829,105.565616 99.3151045,103.66085 99.6768966,102.126335 C100.038689,100.59182 101.974442,90.516109 94.6719746,83.4306884 C93.513317,82.274035 91.9827983,81.4363693 92.1746565,79.5057684 C92.3665147,77.5751675 92.5218191,75.8895143 91.5583787,75.3507881 C91.1529275,74.6418821 90.633468,74.0031786 90,73.4346776 C95.2125102,73.0240494 98.186793,72.2124902 98.9228483,71 Z" id="right-chest-copy" fill="#FFFFFF"></path>
                            <path d="M53.0723777,83.2218722 C46.9423472,88.0878226 43.556018,91.1436095 42.91339,92.3892329 C41.949448,94.2576681 39.9089475,100.39338 41.7313513,103.26389 C43.5537552,106.1344 45.5126218,106.624829 48.008114,106.1344 C50.5036063,105.643971 52.3032084,105.401123 55.1791949,106.624829 C58.0551814,107.848535 63.390905,110.439146 73.9105748,111.687474 C79.0502795,112.674161 86.6692117,111.124591 90.1505091,109.815504 C99.6612325,106.239146 99.3267682,100.038757 98.7642525,97.8093952 C98.7023649,97.5641223 98.671677,96.2465481 97.2230971,97.2332082 C95.8326881,99.3112343 91.2162461,103.661244 85.2181059,105.604712 C80.2672963,107.208833 74.3086477,109.70777 73.4204776,106.39831 C73.2441612,105.741328 78.6103968,105.604712 83.3729728,104.417859 C88.0563064,103.250753 93.0819779,99.7292995 95.1860321,96.2381776 C97.3779528,92.6012643 98.603636,91.277357 95.1860321,87.7795802 C90.5514531,83.0362796 90.040074,85.4221263 85.5003985,81.063723 C83.901218,79.7851707 82.2394155,80.6777809 79.0663496,82.2153457 C78.6649612,82.4098455 77.3853895,82.9536761 80.1962919,84.2874459 C80.8857389,84.8348299 82.9069408,85.1775748 82.2376155,88.207563 C82.0141276,89.219277 83.8214484,90.2742236 86.4488224,88.3694222 C88.7766343,87.5583141 89.123755,87.487119 88.9108783,87.9717416 C88.3874258,89.1634027 87.7058324,90.9047339 84.0500601,91.5877406 C81.7176311,92.0235076 82.3997549,93.5419501 80.0344311,94.2647698 C77.6733344,94.9862978 75.5688915,94.9058103 73.6047316,94.4645833 C72.6530626,94.2508013 74.5841445,93.0530356 76.7283301,93.0173149 C78.8725156,92.9815942 79.284707,92.019436 80.0344311,91.3861308 C80.9694166,90.5963319 80.0344311,89.6877795 77.6957723,89.9806633 C76.8450134,90.0898053 78.735795,87.8207463 77.5343078,86.8907637 C75.3772252,85.2211252 74.1433367,85.4515443 72.5809026,84.2874459 C72.0261198,84.007753 72.0270073,81.7651405 75.6054762,79.5429362 C77.6957723,80.2233097 79.0439083,79.2963958 79.5057128,78.1290389 C80.5925883,75.8186768 78.1508695,73.7208543 76.7283301,73.2995506 C74.3050348,72.5818598 69.1741612,73.2995506 65.5556301,73.928518 C63.4598984,74.2927948 62.7239103,76.1282265 62.4387451,76.6344822 C60.2317896,80.5525049 57.5993243,85.8558867 54.3489811,88.207563 C52.1820856,89.7753472 52.3852822,87.9051476 54.9585708,82.596964 C55.1345857,81.7236228 54.9875873,81.5264357 54.5175755,82.0054027 C54.0475637,82.4843696 53.5658311,82.8898595 53.0723777,83.2218722 Z" id="Face-Copy" fill="#FFFFFF"></path>
                            <path d="M64.7850953,87.1812022 C65.7575967,87.1812022 66.5911744,85.2929207 66.5911744,83.8881964 C66.5911744,83.1789101 66.3611391,82.2558813 65.8915695,81.7350338 C65.4311679,81.2243555 64.7359405,81.1088689 64.2544835,81.1088689 C63.2819821,81.1088689 63.0694353,82.4834721 63.0694353,83.8881964 C63.0694353,85.2929207 63.8125939,87.1812022 64.7850953,87.1812022 Z" id="Eye-Copy" fill="#3E3E3E" transform="translate(64.830305, 84.145036) rotate(18.000000) translate(-64.830305, -84.145036) "></path>
                            <path d="M69.834599,67.4782288 C64.7012604,70.3296843 61.4764564,71.994777 60.1601871,72.473507 C58.1857832,73.191602 47.2741653,83.9311724 45.684708,85.0972152 C44.6250699,85.8745772 42.4961766,87.8766335 39.2980283,91.1033843 C38.7114073,91.6415184 38.3281363,91.7841654 38.1482151,91.5313255 C36.1684069,88.7491379 36.5242835,86.3464853 34.3474089,86.1243227 C32.1705344,85.9021601 35.4857267,90.7901718 34.827548,92.9654954 C34.4259076,94.2929433 31.341841,93.9695694 30.7196907,93.9552016 C26.2089839,93.8510326 17.5798655,92.6117299 22.9679409,84.3468988 C25.3773109,80.3458915 26.7362141,78.2386495 28.2186033,77.3875847 C29.2068628,76.8202081 28.9765413,76.1442889 27.5276387,75.3598269 C21.9361673,74.0546856 19.9368699,71.3918216 21.5297467,67.3712351 C23.9190617,61.3403553 28.8915557,61.5628866 29.2440015,65.2097708 C29.4789653,67.6410269 30.6203598,67.6410269 32.668185,65.2097708 C35.3842583,62.9875877 39.1562454,62.0529562 43.9841462,62.4058765 C45.7209971,62.5603651 46.287851,62.0663519 45.684708,60.9238368 C42.8932546,58.3339606 42.778997,55.6629591 45.3419352,52.9108323 C49.1863427,48.782642 60.1189041,41.7588487 64.7102354,49.4196749 C66.2733794,52.1302396 65.781117,56.4589734 63.2334482,62.4058765 C63.2348547,63.9221647 63.8954005,64.2294963 65.2150856,63.3278712 C66.5347708,62.4262461 68.0191572,62.6406458 69.668245,63.9710702 C70.344985,64.4596266 70.7740761,65.0459666 70.9555183,65.7300902 C71.1369606,66.4142139 70.7633208,66.9969268 69.834599,67.4782288 Z" id="hat-copy" fill="#FFFFFF"></path>
                            <path d="M81.5941449,54.4262188 C83.3505936,54.2389226 86.3399196,54.1500286 87.9065434,54.4262188 C89.4731672,54.702409 92.5459677,54.3261564 88.7821923,52.3476986 C85.0184169,50.3692408 81.9762187,48.0324903 81.9063789,46.8875836 C81.836539,45.742677 81.8471438,45.5656436 85.4644222,47.1918457 C87.8759412,48.2759804 90.9268252,49.8769782 94.6170744,51.9948392 C95.6081635,52.4229592 96.0203346,53.2334191 95.8535876,54.4262188 C95.6034671,56.2154184 99.4776834,54.7801347 100.042159,54.4262188 C100.606634,54.0723029 106.344256,53.7396672 102.912863,59.9211971 C100.838575,61.5581148 99.3234601,61.9873416 99.3375492,66.46434 C99.3516384,70.9413385 91.2108304,71.1681767 88.9538377,70.9413385 C86.696845,70.7145002 85.2524788,66.4423052 85.0131146,64.1322681 C84.7737503,61.8222311 82.4870644,58.9126252 80.9069574,58.5 C79.3268505,58.0873748 79.9752549,55.1702723 81.5941449,54.4262188 Z" id="Path-3-Copy" fill="#2D2D2D"></path>
                            <path d="M58.7531164,154.279416 C60.9778847,154.279416 63.0505928,153.24406 63.0505928,152.424408 C63.0505928,151.604757 61.1080427,151.410903 58.8832743,151.410903 C58.4079247,151.410903 57.0395942,150.615672 56.6161879,150.671372 C55.0579351,150.876363 53.9905233,152.493095 53.9905233,153.137618 C53.9905233,153.551166 53.6285721,154.413696 54.5544802,154.596475 C55.4637208,154.775964 57.6508353,154.279416 58.7531164,154.279416 Z" id="Oval-Copy" fill="#FFFFFF" transform="translate(58.485715, 152.652080) rotate(-35.000000) translate(-58.485715, -152.652080) "></path>
                            <path d="M58.5578863,148.449542 C60.872931,148.449542 63.6610413,147.277153 62.4514085,146.319116 C61.2417756,145.361079 61.2851437,144.777823 58.970099,144.777823 C56.6550543,144.777823 54.0607956,145.96051 54.0607956,147.00228 C54.0607956,147.584946 55.1529717,148.475187 56.0754601,148.821198 C56.8023226,149.093833 57.5376552,148.449542 58.5578863,148.449542 Z" id="Oval-2-Copy" fill="#FFFFFF" transform="translate(58.402287, 146.833140) rotate(-29.000000) translate(-58.402287, -146.833140) "></path>
                            <path d="M53.8098275,143.998904 C54.3501061,143.998904 54.3686605,142.527502 54.3686605,140.798611 C54.3686605,140.159411 55.2197042,138.978006 55.1649242,138.223961 C55.0715367,136.938483 54.0094506,136.167238 53.6689219,136.167238 C53.3047998,136.167238 53.7586634,137.261963 53.6319637,138.671582 C53.5706684,139.353533 53.014312,139.490465 53.014312,140.054166 C53.014312,141.783057 53.269549,143.998904 53.8098275,143.998904 Z" id="Oval-3-Copy" fill="#FFFFFF" transform="translate(54.090886, 140.083071) rotate(-65.000000) translate(-54.090886, -140.083071) "></path>
                            <path d="M83.6177404,57.2804221 C87.0588366,56.9540299 89.6594349,56.9540299 91.4195354,57.2804221 C94.0596861,57.7700103 97.089496,58.2595985 97.5948179,57.7700103 C98.1001397,57.2804221 100.648596,56.6145821 100.833257,57.2804221 C101.017918,57.946262 101.448792,59.4215299 99.3728554,60.1684844 C97.2969184,60.9154388 96.9224279,63.4901066 97.5948179,64.2734478 C98.2672079,65.0567889 97.3683942,67.1016964 94.22654,68.2565201 C91.0846858,69.4113439 87.4024138,69.5642508 86.450662,66.1772674 C85.4989101,62.7902841 84.8532211,59.1413408 83.6177404,58.6800399 C82.7940865,58.372506 82.7940865,57.9059667 83.6177404,57.2804221 Z" id="right-hand-copy" fill="#FFFFFF"></path>
                            <path d="M19.5217476,116.857508 C17.4671346,117.900302 14.8806989,119.056756 10.779169,118.789105 C6.67763912,118.521453 6.27103895,119.942128 6.86956357,120.738101 C7.4680882,121.534073 8.33110821,122.237393 7.49628455,123.461912 C10.6662483,124.900506 15.2844807,125.710789 20.0542048,125.150919 C24.8239288,124.591049 25.7322849,122.850618 26.8937077,122.829413 C28.0551305,122.808208 30.9881123,124.060868 26.8937077,125.915292 C22.7993031,127.769715 13.1922967,129.306577 5.04439199,126.30914 C-3.10351271,123.311703 0.819093137,113.357139 1.85146895,112.615473 C2.88384476,111.873807 3.27494419,111.386117 7.49628455,113.692722 C11.7176249,115.999327 15.6465059,115.796113 17.2849414,115.576292 C18.9233769,115.356471 20.6045619,116.091259 19.5217476,116.857508 Z" id="left-hand-background-copy" fill="#2D2D2D"></path>
                            <path d="M20.3523595,116 C17.710878,117.333339 14.2779444,117.992075 10.0535585,117.976207 C5.82917273,117.96034 4.90659605,119.082817 7.2858285,121.343639 C7.58449371,122.695706 7.58449371,123.399925 7.2858285,123.456296 C6.8378307,123.540852 12.7054572,126.113245 18.3435552,125.996119 C23.9816531,125.878993 26.0827539,123.543266 26.9156922,122.773281 C27.4709844,122.259958 25.2832069,120.002198 20.3523595,116 Z" id="left-hand-copy" fill="#FFFFFF"></path>
                            <g id="specs-copy" transform="translate(88.000000, 45.000000)">
                                <path d="M23.0414201,13 C24.3355311,13 25.8347279,11.6822398 25.8347279,10.9339831 C25.8347279,10.1857263 24.3355311,10.2903226 23.0414201,10.2903226 C21.7473091,10.2903226 20.6982249,10.8969045 20.6982249,11.6451613 C20.6982249,12.393418 21.7473091,13 23.0414201,13 Z" id="Oval-4" fill="#2D2D2D"></path>
                                <path d="M22.0629537,6.80475694 C24.2188452,6.80059784 28.7300468,6.12068781 28.7317104,5.26515314 C28.733374,4.40961848 28.6401013,4.4104198 26.4842098,4.4145789 C24.3283183,4.41873799 20.7401782,3.53528711 20.7385146,4.39082178 C20.7368509,5.24635644 19.9070622,6.80891604 22.0629537,6.80475694 Z" id="Oval-5" fill="#2D2D2D" transform="translate(24.655947, 5.411155) rotate(13.000000) translate(-24.655947, -5.411155) "></path>
                                <path d="M46.4733728,8.35483871 C48.1988541,8.35483871 49.5976331,7.57494763 49.5976331,6.61290323 C49.5976331,5.65085882 48.1988541,5.64049898 46.4733728,5.64049898 C44.7478914,5.64049898 43.3536811,4.67845458 43.3536811,5.64049898 C43.3536811,6.60254338 44.7478914,8.35483871 46.4733728,8.35483871 Z" id="Oval-6" fill="#2D2D2D"></path>
                                <path d="M59.1585874,8.81526982 C63.1482416,8.81951605 65.5439192,7.48331105 65.5428864,6.52113983 C65.5418535,5.55896861 63.1457716,6.51858855 59.1561174,6.51434232 C55.1664631,6.51009608 51.6648184,5.54419912 51.6658513,6.50637034 C51.6668842,7.46854156 55.1689331,8.81102358 59.1585874,8.81526982 Z" id="Oval-7" fill="#2D2D2D" transform="translate(58.604369, 7.447569) rotate(-7.000000) translate(-58.604369, -7.447569) "></path>
                                <path d="M4.71537217,4.65602008 C7.267553,4.64692107 8.80406624,3.7821524 8.80627951,3.16456773 C8.80849278,2.54698306 7.2728458,3.17003471 4.72066497,3.17913372 C2.16848413,3.18823273 -0.0686431155,2.57863174 -0.0708563884,3.19621641 C-0.0730696612,3.81380108 2.16319133,4.66511909 4.71537217,4.65602008 Z" id="Oval-7-Copy" fill="#000000" transform="translate(4.367712, 3.773959) rotate(27.000000) translate(-4.367712, -3.773959) "></path>
                            </g>
                            <path d="M84.0525097,120.431855 C82.6236302,118.637687 81.0231997,118.529639 79.251218,120.107711 C76.5932456,122.47482 78.992883,125.083895 79.0152512,126.469541 C79.0376195,127.855187 79.1952057,128.606146 79.0152512,128.962053 C78.8352968,129.317959 83.8088423,127.137935 86.7190077,123.784895 C89.6291731,120.431855 86.8280071,119.236304 85.692543,119.967253 C84.9355669,120.454552 84.3888891,120.609419 84.0525097,120.431855 Z" id="tie-left-copy" fill="#FF8700"></path>
                            <path d="M96.8419603,115.98505 C96.0840088,115.793037 95.0809474,117.677882 97.6699706,119.75684 C100.258994,121.835797 104.040476,123.004193 105.19203,122.999989 C106.343585,122.995784 106.987565,122.86624 108.516419,122.218881 C110.045273,121.571522 110.800461,121.878561 110.970548,121.394383 C111.140636,120.910206 110.606435,118.996756 108.516419,118.82767 C106.426403,118.658583 102.344391,114.923563 102.082666,113.848567 C101.820942,112.773571 98.9758214,112.330099 99.0242858,114.923563 C99.0727501,117.517026 97.9560306,115.874045 96.8419603,115.98505 Z" id="tie-right-copy" fill="#FF8700"></path>
                            <path d="M91.3249798,116.792388 C94.1697129,116.792388 93.5101395,114.893554 93.5101395,113.988412 C93.5101395,113.083269 92.1930317,111.517302 89.6408307,112.444872 C87.0886297,113.372443 85.056854,113.413859 85.056854,114.319001 C85.056854,115.224144 88.4802467,116.792388 91.3249798,116.792388 Z" id="tie-middle-copy" fill="#FF8700" transform="translate(89.316596, 114.476709) rotate(-20.000000) translate(-89.316596, -114.476709) "></path>
                            <path d="M86.6232385,93.2254259 C83.3488437,95.925216 80.8028267,97.2429129 78.9851876,97.1785166 C76.2587289,97.0819223 75.1974539,95.9319423 74.2872387,96.3338674 C73.3770235,96.7357925 72.4668083,101.498578 73.3770235,101.917374 C74.2872387,102.33617 76.2627405,101.049127 78.0371799,100.604088 C79.8116193,100.159048 86.3186949,97.3434769 88.9745268,94.79751 C91.5749371,93.2254259 91.4452526,92.4605001 92.5199699,92.4739528 C93.5946871,92.4874054 92.7547681,90.8767277 91.0913474,91.0559124 C89.4279266,91.2350971 88.3551926,91.3470187 87.7227468,91.0559124 C87.0903009,90.7648062 86.4660085,91.6718668 86.6232385,92.3576205 C86.7280585,92.8147897 86.7280585,93.1040581 86.6232385,93.2254259 Z" id="smile-copy" fill="#2D2D2D"></path>
                            <path d="M55.7570894,117.281859 C60.5790219,119.792891 64.268096,121.032061 66.8243118,120.99937 C70.6586353,120.950333 70.2531447,120.96121 70.7977834,120.420203 C71.3424221,119.879195 70.856431,118.344617 68.4840029,118.546826 C66.1115747,118.749035 59.7501725,116.65954 58.1614562,115.738008 C56.57274,114.816476 54.9190257,114.693439 55.0030748,115.738008 C55.0591076,116.434388 55.3104458,116.949005 55.7570894,117.281859 Z" id="Path-2-Copy" fill="#000000"></path>
                            <path d="M118.86904,47.2001689 C143.181576,47.2001689 167.836508,37.1888066 167.975329,29.0650408 C168.303036,17.7141402 144.730031,13.272011 120.417496,13.272011 C96.1049605,13.272011 73.2533747,20.9023119 73.2764308,32.8695029 C74.3241687,41.6613936 94.5565052,47.2001689 118.86904,47.2001689 Z" id="pizza-back-copy-2" fill="#F1A738" transform="translate(120.627560, 30.236090) rotate(16.000000) translate(-120.627560, -30.236090) "></path>
                            <path d="M120.589436,73.5872692 C132.367509,73.5872692 136.321499,46.4172753 134.918678,29.0838138 C133.515858,11.7503522 129.721565,-14.8765576 119.485462,-14.8582867 C109.822245,-15.421873 108.110861,4.56643949 107.168226,20.9452336 C106.729063,28.5759315 105.623974,38.0655035 107.289256,48.6503527 C109.198393,60.7851903 114.298636,73.5872692 120.589436,73.5872692 Z" id="pizza-front-copy-2" fill="#F5DEBA" transform="translate(120.794836, 29.358664) rotate(-75.000000) translate(-120.794836, -29.358664) "></path>
                            <g id="X-Copy" transform="translate(85.000000, 14.000000)" fill="#CE5349">
                                <g id="Group-3">
                                    <ellipse id="Oval-8" transform="translate(8.039960, 1.920831) rotate(13.000000) translate(-8.039960, -1.920831) " cx="8.03995972" cy="1.92083056" rx="3.33463119" ry="1.19102964"></ellipse>
                                    <ellipse id="Oval-8-Copy" transform="translate(4.511551, 11.057817) rotate(13.000000) translate(-4.511551, -11.057817) " cx="4.51155063" cy="11.0578169" rx="3.33463119" ry="1.19102964"></ellipse>
                                    <ellipse id="Oval-8-Copy-5" transform="translate(4.511551, 5.893433) rotate(13.000000) translate(-4.511551, -5.893433) " cx="4.51155063" cy="5.89343329" rx="3.33463119" ry="1.19102964"></ellipse>
                                    <ellipse id="Oval-8-Copy-2" transform="translate(15.096778, 7.085214) rotate(13.000000) translate(-15.096778, -7.085214) " cx="15.0967779" cy="7.08521412" rx="3.33463119" ry="1.19102964"></ellipse>
                                    <ellipse id="Oval-8-Copy-8" transform="translate(25.682005, 7.879735) rotate(13.000000) translate(-25.682005, -7.879735) " cx="25.6820052" cy="7.87973466" rx="3.33463119" ry="1.19102964"></ellipse>
                                    <ellipse id="Oval-8-Copy-7" transform="translate(20.585414, 13.044118) rotate(13.000000) translate(-20.585414, -13.044118) " cx="20.5854143" cy="13.0441182" rx="3.33463119" ry="1.19102964"></ellipse>
                                    <ellipse id="Oval-8-Copy-18" transform="translate(31.236709, 12.936836) rotate(13.000000) translate(-31.236709, -12.936836) " cx="31.2367095" cy="12.9368361" rx="3.3346322" ry="1.48842962"></ellipse>
                                    <ellipse id="Oval-8-Copy-19" transform="translate(29.276482, 22.073822) rotate(13.000000) translate(-29.276482, -22.073822) " cx="29.2764822" cy="22.0738224" rx="3.3346322" ry="1.48842962"></ellipse>
                                    <ellipse id="Oval-8-Copy-20" transform="translate(32.804891, 18.101220) rotate(13.000000) translate(-32.804891, -18.101220) " cx="32.8048913" cy="18.1012197" rx="3.3346322" ry="1.48842962"></ellipse>
                                    <ellipse id="Oval-8-Copy-21" transform="translate(36.333300, 8.169713) rotate(13.000000) translate(-36.333300, -8.169713) " cx="36.3333004" cy="8.16971281" rx="3.3346322" ry="1.48842962"></ellipse>
                                    <ellipse id="Oval-8-Copy-22" transform="translate(45.350346, 7.375192) rotate(13.000000) translate(-45.350346, -7.375192) " cx="45.3503458" cy="7.37519226" rx="3.3346322" ry="1.48842962"></ellipse>
                                    <ellipse id="Oval-8-Copy-24" transform="translate(43.390119, 14.923137) rotate(13.000000) translate(-43.390119, -14.923137) " cx="43.3901186" cy="14.9231375" rx="3.3346322" ry="1.48842962"></ellipse>
                                    <ellipse id="Oval-8-Copy-23" transform="translate(36.333300, 3.402590) rotate(13.000000) translate(-36.333300, -3.402590) " cx="36.3333004" cy="3.40258952" rx="3.3346322" ry="1.48842962"></ellipse>
                                    <ellipse id="Oval-8-Copy-6" transform="translate(15.096778, 17.811242) rotate(13.000000) translate(-15.096778, -17.811242) " cx="15.0967779" cy="17.8112415" rx="3.33463119" ry="1.19102964"></ellipse>
                                    <ellipse id="Oval-8-Copy-3" transform="translate(27.642232, 3.112611) rotate(13.000000) translate(-27.642232, -3.112611) " cx="27.6422325" cy="3.11261138" rx="3.33463119" ry="1.19102964"></ellipse>
                                    <ellipse id="Oval-8-Copy-4" transform="translate(18.625187, 1.920831) rotate(13.000000) translate(-18.625187, -1.920831) " cx="18.625187" cy="1.92083056" rx="3.33463119" ry="1.19102964"></ellipse>
                                </g>
                                <g id="Group-2" transform="translate(54.500000, 19.000000) scale(-1, -1) translate(-54.500000, -19.000000) translate(39.000000, 9.000000)">
                                    <ellipse id="Oval-8-Copy-9" transform="translate(7.252841, 1.986301) rotate(13.000000) translate(-7.252841, -1.986301) " cx="7.25284091" cy="1.98630137" rx="3.33463119" ry="1.19102964"></ellipse>
                                    <ellipse id="Oval-8-Copy-10" transform="translate(3.724432, 11.123288) rotate(13.000000) translate(-3.724432, -11.123288) " cx="3.72443182" cy="11.1232877" rx="3.33463119" ry="1.19102964"></ellipse>
                                    <ellipse id="Oval-8-Copy-11" transform="translate(3.724432, 5.958904) rotate(13.000000) translate(-3.724432, -5.958904) " cx="3.72443182" cy="5.95890411" rx="3.33463119" ry="1.19102964"></ellipse>
                                    <ellipse id="Oval-8-Copy-12" transform="translate(14.309659, 7.150685) rotate(13.000000) translate(-14.309659, -7.150685) " cx="14.3096591" cy="7.15068493" rx="3.33463119" ry="1.19102964"></ellipse>
                                    <ellipse id="Oval-8-Copy-13" transform="translate(24.894886, 7.945205) rotate(13.000000) translate(-24.894886, -7.945205) " cx="24.8948864" cy="7.94520548" rx="3.33463119" ry="1.19102964"></ellipse>
                                    <ellipse id="Oval-8-Copy-14" transform="translate(17.838068, 13.109589) rotate(13.000000) translate(-17.838068, -13.109589) " cx="17.8380682" cy="13.109589" rx="3.33463119" ry="1.19102964"></ellipse>
                                    <ellipse id="Oval-8-Copy-15" transform="translate(14.309659, 17.876712) rotate(13.000000) translate(-14.309659, -17.876712) " cx="14.3096591" cy="17.8767123" rx="3.33463119" ry="1.19102964"></ellipse>
                                    <ellipse id="Oval-8-Copy-16" transform="translate(26.855114, 3.178082) rotate(13.000000) translate(-26.855114, -3.178082) " cx="26.8551136" cy="3.17808219" rx="3.33463119" ry="1.19102964"></ellipse>
                                    <ellipse id="Oval-8-Copy-17" transform="translate(17.838068, 1.986301) rotate(13.000000) translate(-17.838068, -1.986301) " cx="17.8380682" cy="1.98630137" rx="3.33463119" ry="1.19102964"></ellipse>
                                </g>
                            </g>
                        </g>
                    </g>
                </g>
            </g>
        </g>
    </g>
</svg>