<svg height="131" viewBox="0 0 644 131" width="644" xmlns="http://www.w3.org/2000/svg"><g fill="none" fill-rule="evenodd"><path d="m326.189664 10.245245-2.721866-2.98953964c47.920821-1.77138184 74.22446-2.68367865 78.910918-2.73689039 4.686457-.05321173 9.08792 2.0801103 13.20439 6.39996613 3.568424-3.67588355 9.397132-5.51382531 17.486121-5.51382531 12.133484 0 18.415653 5.59716991 18.415653 16.63859191.343128.6195033.957934 1.1643379 1.844418 1.6345039l50.840517-5.8772981c2.245056-.2595224 3.239417.1572676 2.983084 1.2503702s-1.00962 3.6049444-2.259862 7.5355253l44.685985-3.9404804v-18.97996964l16.854873 14.13455454c1.562262.8036393 3.106766.8036393 4.63351 0 2.290123-1.205459 30.338451-7.7683286 45.475995 13.574643 2.877859 3.7621133 4.601429 12.2453581 5.170721 25.4497344l1.780092 36.9086204c6.927047 7.4236307 13.33382 14.8748977 19.220332 22.3538007.780401.991512 2.210378 2.700188 0 2.065933-1.562354-.088267-10.286069-.088267-26.171145 0l5.870276 9.477324-.699555 1.201744h-44.047153c.614831-2.206093-.08755-3.228869-2.107144-3.068328-3.029393.240811-5.055065 4.69262-14.762263 4.827361-9.707203.13474-13.822293-5.1509-15.478735-6.298532-.392159 1.474754-.9108 3.265327-1.555929 5.371721l-70.149514-3.90055 3.492313-4.18213v-1.281976l-13.151888-.905026 3.048251 5.492693-61.896587-1.391001.649894 3.214417-78.753141-.946977 9.929356-10.892192h-8.441951l17.444835-19.2237356-1.044642-46.5459113c-1.11881-3.6566652-3.771558-7.3126114-7.958242-10.9678387-2.591914-2.262897-5.657023-4.9717645-9.195328-8.1266026v25.1781734c-.004799 1.4567271.445491 2.5926857 1.350868 3.4078766 1.358065 1.2227853 6.428542 4.7012062 6.750464 20.7368542s-3.635131 34.69442-26.057817 34.183625c-22.422686-.510796-26.693236-.811952-28.080069-1.160996-.924556-.232696-3.698785 1.920922-8.322688 6.460855l-9.446647 8.121294-1.279378-.540237c.056273-6.407253-.165069-9.732509-.664026-9.975767-.748435-.364887-.674314-.657328-2.020804.664141-.897661.88098-1.602088-.828211-2.113281-5.127571l-23.272821.773448 6.955447 7.377599v1.392816l-104.224489-1.392816 6.222198-6.592766c.364692-1.038855-.192585-1.558281-1.671832-1.558281-2.21887 0-2.461673 1.475676-1.780435 2.185404-3.840971 0-44.2294439 1.988548-121.1654174 5.965643l10.9828828-11.420594-29.46873365 1.270146v-1.270146l33.73428735-31.0525252v-44.9744921l-23.6374341-28.83173653v-1.67640387l78.1416039-1.61792605c20.1290331 1.8058371 32.2238141 7.71006564 36.2843421 17.71268555h21.542386v-2.8730301h46.234137c1.94635.6228919 2.960971 1.5805686 3.043864 2.8730301 4.425606-4.7486033 18.013971-3.4507151 20.825751-.9093346.97871-13.5652751 9.680104-19.16639208 26.104183-16.80335095 5.885994 2.08732285 9.856468 4.95179504 11.911422 8.59341654h6.448263l29.409053-8.59341654c1.208527.23834324 1.510658.77765193.906395 1.61792605-.604263.84027411-3.83034 6.03754456-9.678229 15.5918113v1.1394504c3.529794.3136119 6.453739-.0662049 8.771834-1.1394504 3.477144-1.6098682 12.363414-5.6415821 23.861049 1.1394504 3.305639-2.4308291 7.257999-5.3099974 11.857082-8.637505zm1.546589 1.6986847v11.7341219h9.195328v-1.6345039z" fill="#0f0f0f" fill-rule="nonzero"/><g transform="translate(26.69283 8.5969)"><path d="m8.10776712.57851656h-2.35609193c-1.51066774.16408418-1.88833467.68798274-1.13300081 1.5716957.75533387.88371295 5.53305832 5.96452182 14.33317332 15.24242664v54.9805548c.0137972.5919513-.254787 1.2018549-.8057524 1.829711-.5509655.6278555-6.4964825 6.409878-17.83655106 17.3460663l72.20545006-3.1209602c.9170749-.2330409 1.0212673-.5519057.3125777-.9565938-.7086901-.4046886-11.1327659-4.9749298-31.272228-13.7107252-1.3042786-.5981778-1.9523406-1.6067883-1.9441857-3.0258315.0081548-1.4190432.0122323-5.5526873.0122323-12.4009328 22.4492788-.0722921 37.0665968-5.3090408 43.8519542-15.7102465 8.3153383-9.0980572 9.4789782-38.37159005-14.6449182-42.04516444-3.3630198-.52532405-23.6039061-.52532405-60.72265948 0z" fill="#fff"/><path d="m11.6221351 5.03639402 9.8919899 10.31668488v58.8560394c-5.8731591 5.8863179-10.8212118 10.5300743-14.84415827 13.9312699-1.01047004.7515508-1.06226271 1.7192526 0 1.7192526.70817519 0 19.61351847-.573084 56.71602987-1.7192526 1.018774-.2332296 1.018774-.5550993 0-.9656085-1.018774-.4105098-9.7507466-4.4273456-26.1959186-12.0505073v-19.9100954c27.8714445 1.8244753 44.2463563-5.8057062 49.1247352-22.8905435 2.5241834-21.6048502-12.2761635-29.4594818-25.8351643-29.4594818-9.0393339 0-25.8482843 0-50.4268514 0-.44948868-.10043107-.32982543.209252.3589897.9290492.6888152.71979721 1.0922645 1.13419492 1.2103479 1.24319312z" fill="#ff5d00"/><path d="m38.747657 11.4004211v30.3578842c14.2095347.0216266 23.1813447-2.1778725 26.9154301-6.5986574 3.7340849-4.420785 5.4599568-8.6525323 5.1776142-12.6952418-.7610713-6.3352073-3.563446-10.0232023-8.407125-11.063985-5.0830078 0-12.9783139 0-23.6859193 0z" fill="#fff"/><path d="m40.469775 13.9794911v23.2118752c12.4743095.0165359 20.3505094-1.6652183 23.6285996-5.045385s4.7932034-6.6157936 4.5453396-9.7068809c-.6681317-4.8439489-3.1282889-7.6638187-7.3804723-8.4596093-4.4622863 0-11.3934417 0-20.7934669 0z" fill="#0f0f0f"/></g><g transform="translate(114.296157 26.015151)"><path d="m51.9420531 35.9055327c2.3593548 0 3.610958-1.1396731 3.7548093-3.4190195 1.3064183-18.5731113-5.8254523-29.15623694-21.395612-31.74937678-24.2292376-2.48806456-32.6111557 15.84078758-33.78410818 24.99073738-1.17295248 9.1499499-.51698567 34.78787 22.27427538 37.3471426 9.5910608.8774294 14.9828622-.8604242 17.8433863-4.106719.2895697-.3546784.7975739-.3772967 1.1338627-.0723815 2.4454333 2.3097747 4.9476818 5.0860259 7.5067456 8.328753.9794404.7248209 1.4691606.2977404 1.4691606-1.281242 0-1.5789829.3184027-9.5306365.955208-23.8549612-.0437953-1.4619886-.5554131-1.6180509-1.5348535-.4681869-1.4691606 1.724796-10.0021286 11.4794973-21.7410332 9.619444-7.0900401-1.8289432-9.8865815-6.6059717-8.3896242-14.3310855 18.9125007-.6687364 29.5484284-1.0031046 31.9077832-1.0031046z" fill="#fff"/><path d="m20.1094018 35.1003292 30.552294-.713517c1.1493445-.354332 1.7217977-1.4186411 1.7173595-3.1929271-.0066574-2.6614292-.6605609-12.3950566-3.6733987-16.6696894-3.0128379-4.2746329-9.9846024-13.7736528-29.1889472-8.5256326-12.44190531 4.5977163-17.66764508 16.6496933-15.67721922 36.1559311 2.97613503 12.4247916 10.74015992 18.9958594 23.29207472 19.713202 7.2958801.5683151 11.7485197-3.2063814 13.0794449-4.0297185.9093885-.6445265 1.5087871-.8600792 3.2705273.8473112 1.7617401 1.7073904 2.0926809 2.2061252 4.26336 4.5528381.49516.4627497 1.3057441.2185204 1.3057441-.2178788 0-.2799217.8283288-8.4129753 1.6110546-18.764188.0301879-.3992223-.3969787-.5157241-.7827258-.3410933-2.8649799 3.4533582-8.1686702 9.52989-18.758675 9.52989-12.5486835-.6405794-13.8174941-8.0447184-13.2942418-15.7883414 0-.9249998.276651-2.5561863 1.137131-2.5561863z" fill="#ff5d00"/><path d="m39.4532014 24.1215596c0-6.674858-4.7337529-12.0858996-10.573133-12.0858996-5.8393802 0-10.5731331 5.4110416-10.5731331 12.0858996.3720337 2.7428392 21.1462661 2.8193116 21.1462661 0z" fill="#fff"/><path d="m36.2834098 23.412588c0-4.8589227-3.445907-8.7978579-7.6966487-8.7978579-4.2507416 0-7.6966486 3.9389352-7.6966486 8.7978579.2708196 1.9966333 15.3932973 2.052301 15.3932973 0z" fill="#0f0f0f"/></g><g transform="translate(153.808778 24.07132)"><path d="m7.17407831 1.5348468c4.60391599 4.33556121 7.74476089 7.16937407 9.42253489 8.5014385 2.516661 1.9980966 3.7397081 2.0984975 3.5855629 5.4990368-.4810759 23.7865689-.0400876 23.8610471-.9034896 48.3239681-.0786567 1.754228-.2256446 2.5049788-1.5909946 3.5324183-5.604711 3.6314526-11.20389623 7.2720445-16.79755568 10.9217751-1.08679073.6477454-1.08679073.9716184 0 .9716184 1.6301861 0 28.01905458.1909559 53.90279708 0 1.2212175 0 2.9495022-.6105517-.1901799-1.7321332-2.0931212-.7477206-7.1809771-2.5588268-15.2635673-5.4333172-1.8645457-.8361191-3.1165443-1.476487-3.7559956-1.9211043-1.570958-1.0923033-2.356437-1.942358-2.356437-3.4906281 0-1.9887008 0-5.0721162 0-9.2502459 3.8285038 1.5107707 7.9593882 2.2661566 12.3926533 2.2661566 6.6498976 0 22.5223153-5.6450698 25.7899114-26.7945794 3.2675954-21.1495095-10.2574165-32.5600576-21.1637743-32.81416286-7.2709052-.1694035-12.2915021 1.53391829-15.0617906 5.10996537h-.8009018v-2.89739422c.130614-.90972328-.7307846-1.36458491-2.5841955-1.36458491-2.7801165 0-12.136223 0-24.18349436.03203899-.63341922-.02135933-.78044702.15855198-.44108333.53973393z" fill="#fff"/><path d="m15.1904695 4.05974863c4.9328878-.01943027 10.1172078.05142587 15.55296.21256841.9626012.01348653 1.4439017.680914 1.4439017 2.00228241v4.07972625c6.7995136-4.4842702 12.096054-6.73091809 15.889621-6.73994369 5.6903506-.0135384 18.6466247.92928859 20.4374017 20.01374939 1.7907765 19.0844609-7.0248379 32.2092682-20.8033571 34.0375047-5.0000972.6634498-10.2654558-.1826393-15.7960759-2.5382679-.4127592-.3116409-.4127592.1501994-.4127592.3122291v10.2702992c0 2.4809152-.1731483 3.2776098.6851695 4.3105841.9495698 1.142795 1.3004004 1.5991769 4.2213132 2.8784096 5.2727328 2.3092271 11.1319507 4.3036627 12.1517287 4.4994247.2909373.0675459.6793038 1.0504103-1.019778 1.0504103-1.1327212 0-14.321602-.2021923-39.56664232-.6065769-.50657618-.4451633-.60593441-.7646562-.29807469-.958478.29864317-.1880195 4.19096741-2.0338337 11.96163661-7.5447412.4606228-.2741059 1.4240554-.7317336 1.5193388-2.122821.5233151-18.3541405 1.0550281-36.6476638 1.5951389-54.8805696-2.5993437-2.3191343-5.3352639-4.63291241-8.2077607-6.94133441-.3062707-.22386695-.6601101-1.36560202.6462378-1.33445546z" fill="#ff5d00"/><ellipse cx="44.234802" cy="28.594221" fill="#fff" rx="11.193036" ry="16.335183" transform="matrix(.98480775 .17364818 -.17364818 .98480775 5.63736 -7.246882)"/><ellipse cx="44.282394" cy="28.736237" fill="#0f0f0f" rx="9.146034" ry="13.347776" transform="matrix(.98480775 .17364818 -.17364818 .98480775 5.662744 -7.252989)"/></g><g transform="translate(212.456889 4.522901)"><path d="m10.8113794 23.8536514h23.8865261v50.8413211l11.7284232 10.062255c.0937589.9164981-.160392 1.3747469-.7624526 1.3747469-.6020607 0-15.7254345-.4582488-45.37012149-1.3747469-.6872592-.5628795.00710277-1.4316645 2.08308594-2.6063555 2.07598316-1.1746905 6.8352367-4.2300687 14.27776065-9.1661336l.4121582-38.6552717c-2.595065-3.0794245-5.0363776-5.9711209-7.32393776-8.6750894-.85694481-1.3248955.17678141-1.8007259 1.06855776-1.8007259z" fill="#fff"/><path d="m13.7923074 27.6232416c1.6915236 2.0877105 3.4674666 4.106281 5.327829 6.0557115.3798592 18.0020695.3798592 31.6715619 0 41.0084769-.0758736.2141764-.3539323.4541571-.834176.7199415-4.8172108 3.1794617-8.46701445 5.5143162-10.94941088 7.0045635-.30838648.3077832-.34752666.6245962-.11742044.950439l33.24520162.9039356c1.0911559-.1865489.8811377-.6956774-.6300545-1.5273856-2.2667884-1.2475632-6.7081765-5.3623745-7.1733286-6.8143278-.3101014-.9679687-.4719984-17.2619865-.4856909-48.8820526-6.0759905-.1655933-11.8587235-.3637766-17.3481991-.5945499-.6154415.0194411-1.3837763.5873729-1.0347502 1.1752479z" fill="#ff5d00"/><path d="m23.4732896 18.9131801c3.1438785 0 6.5148701-.2151958 8.6609865-1.7617092 2.3986498-1.7284917 3.3938401-4.9384131 3.3938401-7.69488085 0-5.22273047-5.3971297-9.45659005-12.0548266-9.45659005-2.1029646 0-4.2810054.27527263-6.0020615 1.01786056-3.727571 1.60834341-6.0527651 4.8657012-6.0527651 8.43872949 0 5.22273045 5.3971297 9.45659005 12.0548266 9.45659005z" fill="#fff"/><ellipse cx="23.47329" cy="10.31628" fill="#ff5d00" rx="9.47165" ry="6.01783"/></g><g transform="translate(260.039831 11.400421)"><path d="m18.972151 1.1868219c-6.8045244 11.9909184-8.0716183 12.9615043-16.51127803 24.7936869-.40276132.5646608-1.06765371.7256928-1.17356412 0-.74968405-5.1367971-1.178787-10.7573895-1.28730885-16.86177702.03721133-2.33668404.71874158-3.67634751 2.04459074-4.01899043 1.98877373-.51396435 7.61744321-3.30312171 15.12476496-5.03848966.9564584-.22109178 2.3525123.15686002 1.8027953 1.12557021z" fill="#fff"/><path d="m14.9422317 5.01771864c-4.1238545 7.26704756-4.8917717 7.85526726-10.0065934 15.02611376-.24409188.3422105-.64704721.4398032-.7112338 0-.45434299-3.1131351-.7143991-6.5194724-.78016832-10.21901181.02255177-1.41613793.43559043-2.2280356 1.23911595-2.43569292 1.2052883-.31148603 4.61652069-2.00184358 9.16630277-3.05355631.5796577-.13399178 1.4257305.09506437 1.0925768.68214728z" fill="#ff5d00"/></g><g transform="translate(267.789363 24.295771)"><path d="m49.9660108 24.8001739c-9.4223152-4.3228214-16.647818-10.0158734-18.8916443-10.4335488-2.2438263-.4176753-7.6780405-1.7052854-8.6962705 1.5021307-1.0182301 3.2074162-.9405273 6.2251269 9.4862131 11.6085999 10.4267405 5.383473 28.3390525 8.7723278 23.8187733 29.6643068-4.5202792 20.8919792-34.0239855 13.9284845-37.0025541 12.5488717-1.9857123-.9197424-5.1208421-2.5812903-9.40538929-4.9846438-1.06894027-.6046389-1.92792567-.6046389-2.57695628 0-.6490306.6046389-2.84043378 2.5634964-6.5742095 5.8765721v-27.3061689c.21366483-1.1080464.82776005-1.2558068 1.84228569-.4432814 1.52178845 1.2187882 19.96569338 15.3171908 29.10810758 13.2071872 9.1424142-2.110003 5.5648142-10.2829084.520267-12.4630716-5.0445473-2.1801632-23.90084189-9.4163678-27.68575107-18.0122464-3.7849092-8.5958787-2.04628833-19.51683092 14.77164587-24.58227023 14.6988036-3.20886579 25.9860781 6.91822202 28.4798445 3.59680981 1.9346282-1.84435309 1.9039912-2.55818714 3.7569859-3.59680981.8779857-.49212004 2.2108835-.17327519 2.2339366 1.03662088-.3818277 10.73602875-.161386 10.43426715-1.6041093 21.74002535-.1382211 1.0831558-.7670807 1.4144112-1.5811752 1.0409165z" fill="#fff"/><path d="m50.1591017 5.0608272c.0754369 7.8553883.0612467 9.4046277-.6723044 16.743377-.0705281.7055926-.9525648.193114-1.2343199 0-8.3039523-5.6915012-14.2256133-9.1288232-18.5457041-9.5351035-11.5773747-1.6490441-11.994321 7.4035928-5.8570808 12.664298 2.554294 1.9720879 7.5684938 4.9411183 13.7483902 7.7796999s7.9506703 4.188519 10.6543947 6.1178967c4.951704 4.2336234 6.5470315 9.0209445 6.7335003 12.6485276.266663 5.187697-3.4741461 18.510983-20.4633203 18.1928271s-20.8372115-4.0457981-25.8466914-8.2111609c-.64128828-.1938207-.7769176-.4236556-1.32133008 0-2.15204192 2.1215774-3.91205192 3.8339447-5.28003003 5.137102v-20.8464423c10.80818551 10.1553587 20.53403791 14.8969651 29.17755731 14.2248187 9.120165-.6978305 11.4217564-12.997173 2.881346-17.2487822-8.5404104-4.2516093-23.6862265-7.8088055-28.68026918-19.8859981-4.99404262-12.0771925 11.07625088-19.25008583 16.85311498-19.33805521 5.776864-.08796937 12.3953946.13528497 22.5527695 4.07868047.6445139.21073193 1.4224038.25049081 2.5372217-.4233803.5617484-.37188539 1.4382153-1.47732496 2.230952-2.45882571.2438994-.14955927.5282579-.00869328.5318035.36052075z" fill="#ff5d00"/></g><g transform="translate(341.090909 13.975256)"><path d="m.03008849.25378491 16.76440591 15.74141209 1.2647036 65.6502991c-4.2807493 4.6127154-8.64958061 9.0838128-13.1064939 13.4132916-.4607786.5272933-.62813956 1.5644397 0 1.5851717h48.0283571c.6281396-.020732.5334109-1.1950656 0-1.5851717-4.834938-2.8349262-10.2924498-6.2514823-16.3725355-10.2496675 0-2.3943479 0-4.0454784 0-4.9533914 0-1.361869 0-11.42431-.1570212-21.9572345.1048541-1.4813178.6559875-1.9065131 1.8583121-2.0775997h12.7422177c16.6818786.150174 25.732418-7.5840991 27.1516168-23.202819 2.1287981-23.42807999-8.5843007-32.36429069-24.2390676-32.36429069-10.4365112 0-28.4146762 0-53.93449501 0z" fill="#fff"/><path d="m7.59382627 4.1523329c3.61211273 3.20557903 7.52750093 6.9240897 11.74616463 11.1555319l1.7798376 66.0171616c0 2.4903957-.3573661 4.0824759-1.0720981 4.7762395-1.0720982 1.0406462-5.5973332 5.8484616-7.851715 7.6964673-.3646351.4547829.0018424 1.3018688.557724 1.3204067 13.5242248-.2379904 16.6532683 0 31.9001966-.2379904.5168845-.0264744.120281-1.0092374-.3308148-1.378955-3.1039064-1.8695571-7.4008915-4.1045077-10.8721466-7.8029757.2251191-10.4792452-.345201-15.5390372.2251191-30.4968749.0320331-.8401327.374783-.8299686.9795873-1.0990657 8.8558742.2833465 37.6065228 2.9321622 40.4175639-17.3198767 2.8110416-20.2520386-3.6416185-30.05741251-17.9922336-32.6300686-20.6953448 0-24.125606-.40937106-48.21606415-.40937106-.65313442 0-1.70722655-.07210851-1.27112088.40937106z" fill="#ff5d00"/><g transform="translate(34.413897 12.877315)"><path d="m0 .52797334v25.73397996l.99580036 1.1712325h12.55721944c8.4301217-.7132665 12.824535-5.1974686 13.1832398-13.4526062.5380573-12.38270653-9.4773136-13.9805796-13.3681298-13.9805796-2.5938774 0-7.04606484 0-13.35656218 0z" fill="#fff"/><path d="m1.95837794 3.16658057c-.25808361 6.70780206-.25808361 13.32287393 0 19.84521553.02337366.5907037.21934793.8545839.82099817.9032167 3.32354348.2686503 6.774521.2686503 10.35293269 0 6.9503032-.5500481 10.5733239-4.0081201 10.8690619-10.3742161.443607-9.54914396-7.8136717-10.78137214-11.0214964-10.78137214-2.1385498 0-5.80920287 0-11.01195931 0z" fill="#0f0f0f"/></g></g><g transform="translate(413 12.704778)"><path d="m9.08726346 30.2066617h18.94100724c.4321854.0138991.7212472.0000976.7563468.6334655.6284201 17.12353 1.3365983 34.240731 2.1245345 51.3516033 5.0322295 4.8063668 8.8861704 8.0201909 11.5618227 9.6414722.4365154.4426647.548582 1.664106 0 1.6806664-19.9043472-.4370402-21.3996451-.4370402-41.19643313-.4370402-.85878294-.0521213-1.68646724-1.5086365-1.02162622-2.1252723 4.29160532-2.90931 8.85121443-6.2379327 13.67882745-9.985867.4255574-.330383 1.2528352-.5312416 1.2657295-1.8065902.1311798-12.9747543-.1509539-26.1975439-.8464014-39.6683693-1.7500565-2.0084822-3.631146-4.1418254-5.64326855-6.4000297-.5710039-1.0071111-.52658697-2.7487895.37946111-2.8840387z" fill="#fff"/><path d="m13.9092693 33.8680752h11.7206036c1.0422893.2062023 1.5532114.5733026 1.7002915 2.6551347.6414936 24.026278.4444201 22.6461747 1.6469032 44.72241.082693 1.5181493.134066 2.2113943.4042849 2.5665709 1.1876367 1.1983934 4.6915532 3.9647856 7.1384685 6.6105635 1.1112006 1.0615615.440876 1.8008527 0 1.8229313-13.8933246-.3646307-17.9349923 0-32.0355282.0620757-.42536629-.0265806-.68418374-.96891-.29216094-1.3768887 3.84968999-2.7381755 7.29190224-5.5495951 12.16529674-9.7223305.2163459-.1852416.3484999-.4287975.3395012-1.0590612-.1872772-13.1168575-.1872772-26.5155485 0-40.1960737-1.0327295-1.5870332-2.0777633-3.1839233-3.1351014-4.7906703-.2186229-.4772435-.0078608-1.2565448.3474409-1.2946617z" fill="#ff5d00"/><ellipse cx="19.759169" cy="10.068887" fill="#fff" rx="11.52791" ry="10.068887"/><ellipse cx="20.20255" cy="10.984241" fill="#ff5d00" rx="9.311004" ry="8.23818"/></g><g transform="translate(448.636364 29.22099)"><path d="m.51850239 5.07709169c.16314005-1.59966217.8226617-1.56979854 2.0883277-1.68242096 17.82884051-1.01118551 24.05532831-1.35279476 42.52883271-3.04535522 1.1387441-.00679957 1.7113944 1.34348253 1.2250981 2.78409572-8.6024191 25.48396747-10.5660168 25.23158487-19.3135596 50.75797587-.3838352 1.7136449-.3085381 2.733482.9222115 2.9102091 4.7824696 0 6.4399574 0 8.7985394-2.6031193 4.3787235-5.6199328 5.659881-7.4102562 10.2113605-14.0753513.8846992-.9912467 1.8675776-.1019641 1.9012398 1.3552744-.7158438 11.5093501-.8006618 12.7200769-1.2863354 25.2638795-.2115311 1.6425319-.7425766 2.0974345-1.9620728 2.0974345-20.2068105-.8885137-21.5523908-1.0911551-40.12004354-2.0974345-1.49230459-.1994435-2.54802962-1.7425631-1.78764247-3.5034532 7.43771491-15.2640802 15.33190531-30.9975468 23.68257131-47.2003999h-16.1247579c-3.18474774 4.3663364-6.4432351 8.2521495-9.77546209 11.6574393-.47638067.4868259-1.13835617.3473874-1.17398023-.4679182-.45852955-10.4940814.18567301-11.5450965.18567301-22.15085581z" fill="#fff"/><path d="m4.49108307 6.60580056c-.73455.04326779-1.22752966.74345707-1.22752966 1.64634702v12.39674892c.08407422.8335469.72025515 1.088303 1.22752966.6127351 1.71999962-2.0374628 3.69930493-4.4809003 5.93791593-7.3303126h20.5900658l-21.88238385 46.9194587-.91054387 2.0720776c-.73586071 1.1920267-.73586071 1.8027773 0 1.8322528 12.87939612.5158888 25.28368402 1.7513978 36.17669232 1.7513978.8247698 0 1.2051716-.2894599 1.3352548-1.4051475.2898211-7.6828239.8586562-10.1725376 1.3236364-17.9782262-.0423185-1.0883007-.7893259-1.5919456-1.4809328-1.0473867-5.5386074 7.2874931-8.7968546 12.7356198-11.67428 12.7356198-1.9182835 0-4.7452437 0-8.4808805 0-1.20325-.2100878-1.5040625-1.2359612-.9024375-3.0776196.9024375-2.7624875 9.5120429-23.5798108 17.8741012-47.97101255.8212918-2.39561765-1.0320142-2.30243465-1.5478224-2.30020679-12.1935819.05266593-24.3130437.43375733-36.35838553 1.1432742z" fill="#ff5d00"/></g><g transform="translate(498.665876 32.077965)"><path d="m.2606705 6.43680581c.17491395-1.73453191.88203358-1.70215044 2.23904329-1.82426822 19.11555621-1.09643997 31.46333491-2.75060637 51.27008071-4.58586898 1.2209279-.00737284 1.8349068 1.45675343 1.3135142 3.01882673-9.2232599 27.63255636-13.0906243 26.42641556-22.4694813 54.10497226-.4115368 1.8581244-.0078333 1.7805369 1.3117401 1.9721645 5.1276226 0 4.5278914-.3437871 7.0566934-3.1663794 3.0961622-5.7488033 5.7049409-12.5428392 10.5849028-19.7698778.9485483-1.0748201 2.4717153-.9153389 2.5078069.6647615-.7675067 12.4797194-1.1175262 22.7366142-1.6382512 36.3380024-.2267973 1.7810162-.7961687 2.2742721-2.1036764 2.2742721-21.6651454-.9634257-25.6838675-.0057974-45.59155641-1.096918-1.6000049-.2162589-2.7319221-1.8894809-1.91665745-3.7988339 11.96174736-24.8265244 23.73068886-48.2824659 25.92582456-52.357286.0720901-.3926471-.152939-.6495377-.985389-.6495377-2.8090634 0-10.8041205-.0944469-15.4625306 0-.3276485.0066429-.5168441.5543532-.6894397.8928152-2.74640768 5.3857377-3.96677542 10.2213999-8.78846526 18.4727013-.39092949.6689931-1.18624986.3541934-1.25870692-.5073691-1.20962226-14.3832105-1.30545172-18.4822312-1.30545172-29.98217689z" fill="#fff"/><path d="m4.75495433 8.12002902c-.78427458.04384359-1.31048671.80396581-1.31048671 1.78034046v17.83939082c.089756.901388.76893034 1.1768782 1.31048671.6626046 1.83623801-2.2032885 4.10572076-6.3424371 6.80844827-12.4174459h21.2384962l-24.87341171 52.8251453-.97207889 2.2407205c-.78559048 1.2890438-.78559048 1.9495027 0 1.9813766 13.7497919.5578762 29.3724465 1.51951 41.0016096 1.51951.8805081 0 1.2866177-.3130188 1.4254919-1.51951.3094074-8.3081164 1.9357794-16.208658 2.4321833-24.6496385-.0451785-1.1768757-.8426689-1.7215113-1.5810151-1.1326317-5.9129091 7.8806103-8.0850893 14.6594403-11.1569723 14.6594403-2.0479221 0-5.0659296 0-9.0540227 0-1.8984747.1547293-2.2196163-.954638-.9634246-3.3281019 1.8842875-3.5601962 10.0174473-20.5453029 22.7554347-50.98605004.8767951-2.59059293-1.1017582-2.48982592-1.652425-2.48741674-13.1814014 1.19029744-30.5636338 2.18239855-45.40831367 3.0122662z" fill="#ff5d00"/></g><g transform="translate(557.454546 21.598123)"><path d="m.1278382.87224612c1.47390551 16.63308918 1.39418722 19.03235628 2.65002189 36.07060388.23013177 1.7580888 1.37242007 2.0074238 2.59933629 1.275422 5.54332262-7.455421 11.78983372-16.2249507 21.74366122-15.7989232 9.9538274.4260275 12.3737388 4.1510897 12.6687239 5.3776013.2132837.7635316.2132837 3.812165 0 9.1458999-14.9787169 2.7465075-26.7644159 10.784641-35.35709672 24.1144004-10.39860737 21.3012032 9.90943452 28.0763367 15.25073822 27.8300572 5.3413037-.2462794 11.4635022.1355624 19.4382222-5.36889.6681363-.431308 2.3128243-2.3041137 3.7895834.7633753 1.4767592 3.067489 2.6592854 3.8640655 4.4844738 3.8640655 1.8251883 0 11.4210549.4916344 19.0200469.4916344.6541824-.0699416.5165809-1.3207361-.698378-2.1107254-2.9306728-2.386068-4.7034346-3.8768102-9.698612-8.83462-.5876554-.6602961-1.0045011-2.3316469-1.0274955-4.833396-.0959209-10.4362454-.0959209-20.7435611 0-30.9219465-.0235006-13.2699876-3.2341792-23.0363653-9.6320358-29.2991333-10.8994772-10.31399505-28.3507612-6.86900142-34.1870389-.8562126-.0861762.0887826-.2263894.3055488-.5288387-.1288086-3.61036228-5.18496072-4.36534715-6.25563623-9.08923445-11.14765678-.55417848-.57390287-1.45745803-.56696496-1.42607775.3672525z" fill="#fff"/><path d="m2.01740903 7.25533484c-.09766916-2.26985573 2.00006826-.79853401 2.60880339 0 3.06364706 3.73168936 3.32004874 4.92733236 4.96187282 6.26604636.85524176.7325766 2.13126126.6962082 3.18477866-.1735433 2.2157003-1.9056585 4.3995268-5.36168959 16.5051633-5.162931 12.1056365.19875854 20.7878199 9.1231147 22.9204457 23.8122994 2.132626 14.6891849 1.3060534 20.3947389 1.1364287 43.26711.0571678 1.493387.5072302 2.396942.8162949 2.7932316 2.7846809 3.5705796 4.4924754 5.4204522 6.7126395 7.351486.7787743 1.0600585.6692311 1.6407685-.5451871 1.6407685-2.8796519 0-11.4765515.2931516-13.4064958-.9480507-1.0038883-.7654374-2.6307536-2.4747146-3.6694413-5.3186933-.179504-.5750544-.7901269-1.5980248-1.8074705-.9150312-3.6647547 2.4603336-9.7830213 7.3712595-18.1841704 7.3712595-10.7685543 0-19.59523781-6.1442133-19.59523781-12.8912006s2.73791355-17.957239 15.54508591-26.857205c9.6950674-6.7373007 13.0446167-7.8167462 20.3321012-8.4085624 1.3047594-.1059594 1.7373215-.8748793 1.9022211-1.8892744.3478977-2.497729.3478977-5.6790638 0-9.5440045-.3145753-3.4147514-4.5238182-5.6591718-12.6277287-6.7332613-12.1558657-1.6111343-19.35070227 10.7923096-23.13574906 13.8325435-.96342088.4546469-1.82982256.2821463-2.03959348-.9876488-.67511372-9.3736235-.80853856-16.6440957-1.61476103-26.50533836z" fill="#ff5d00"/><path d="m36.3919913 50.5172465c1.2617627-.091757 2.1686068.4202375 2.7205321 1.5359837.0991034 9.0113012-.6785254 14.7235389-2.3328863 17.1367126-2.4815414 3.6197607-7.7442547 9.0833718-9.8607915 9.6481785-6.6356643 1.3539966-9.7141034-.0176699-10.3126712-2.2280291-1.0588889-3.9102087-.8018887-7.7412676.8590877-11.2817998 3.0689123-5.5030722 5.8409679-11.3564115 18.9267292-14.8110459z" fill="#fff"/><ellipse cx="28.31831" cy="65.778354" fill="#0f0f0f" rx="7.008197" ry="13.565313" transform="matrix(.81915204 .57357644 -.57357644 .81915204 42.850222 -4.346834)"/></g></g></svg>