<?xml version="1.0" encoding="UTF-8"?>
<svg width="419px" height="19px" viewBox="0 0 419 19" version="1.1" xmlns="http://www.w3.org/2000/svg" xmlns:xlink="http://www.w3.org/1999/xlink">
    <!-- Generator: Sketch 53.2 (72643) - https://sketchapp.com -->
    <title>pmoto</title>
    <desc>Created with Sketch.</desc>
    <g id="personalwebsite" stroke="none" stroke-width="1" fill="none" fill-rule="evenodd">
        <g id="t" transform="translate(-991.000000, -1291.000000)" fill="#000000" fill-rule="nonzero">
            <g id="Group-4" transform="translate(883.000000, 1026.000000)">
                <path d="M115.661117,265.15 L118.986117,265.15 L125.861117,283 L122.511117,283 L120.836117,278.275 L113.711117,278.275 L112.036117,283 L108.811117,283 L115.661117,265.15 Z M114.561117,275.9 L120.011117,275.9 L117.336117,268.225 L117.261117,268.225 L114.561117,275.9 Z M135.458339,265.15 L138.583339,265.15 L138.583339,273.275 L146.533339,265.15 L150.383339,265.15 L143.258339,272.275 L150.883339,283 L146.983339,283 L141.133339,274.475 L138.583339,277 L138.583339,283 L135.458339,283 L135.458339,265.15 Z M152.381949,274.85 L159.656949,274.85 L159.656949,277.55 L152.381949,277.55 L152.381949,274.85 Z M161.50556,265.15 L164.68056,265.15 L167.90556,278.8 L167.95556,278.8 L171.55556,265.15 L174.75556,265.15 L178.25556,278.8 L178.30556,278.8 L181.63056,265.15 L184.80556,265.15 L179.88056,283 L176.70556,283 L173.13056,269.35 L173.08056,269.35 L169.43056,283 L166.20556,283 L161.50556,265.15 Z M193.052782,265.15 L207.502782,265.15 L207.502782,267.85 L201.827782,267.85 L201.827782,283 L198.702782,283 L198.702782,267.85 L193.052782,267.85 L193.052782,265.15 Z M207.351392,270.075 L210.026392,270.075 L210.026392,272.575 L210.076392,272.575 C210.159726,272.224998 210.322225,271.883335 210.563892,271.55 C210.80556,271.216665 211.097224,270.912501 211.438892,270.6375 C211.780561,270.362499 212.159724,270.141667 212.576392,269.975 C212.993061,269.808333 213.418057,269.725 213.851392,269.725 C214.184727,269.725 214.413892,269.733333 214.538892,269.75 C214.663893,269.766667 214.793058,269.783333 214.926392,269.8 L214.926392,272.55 C214.726391,272.516666 214.522227,272.4875 214.313892,272.4625 C214.105558,272.4375 213.901393,272.425 213.701392,272.425 C213.218057,272.425 212.763895,272.520832 212.338892,272.7125 C211.91389,272.904168 211.543061,273.187498 211.226392,273.5625 C210.909724,273.937502 210.659727,274.399997 210.476392,274.95 C210.293058,275.500003 210.201392,276.13333 210.201392,276.85 L210.201392,283 L207.351392,283 L207.351392,270.075 Z M227.450003,280.125 C227.450003,280.475002 227.495836,280.724999 227.587503,280.875 C227.67917,281.025001 227.858335,281.1 228.125003,281.1 L228.425003,281.1 C228.54167,281.1 228.675002,281.083333 228.825003,281.05 L228.825003,283.025 C228.725003,283.058334 228.595837,283.095833 228.437503,283.1375 C228.279169,283.179167 228.116671,283.216666 227.950003,283.25 C227.783336,283.283334 227.616671,283.308333 227.450003,283.325 C227.283336,283.341667 227.14167,283.35 227.025003,283.35 C226.441667,283.35 225.958338,283.233335 225.575003,283 C225.191668,282.766665 224.94167,282.358336 224.825003,281.775 C224.258334,282.325003 223.562507,282.724999 222.737503,282.975 C221.912499,283.225001 221.116674,283.35 220.350003,283.35 C219.766667,283.35 219.208339,283.270834 218.675003,283.1125 C218.141667,282.954166 217.670839,282.720835 217.262503,282.4125 C216.854168,282.104165 216.529171,281.712502 216.287503,281.2375 C216.045835,280.762498 215.925003,280.208336 215.925003,279.575 C215.925003,278.774996 216.070835,278.125002 216.362503,277.625 C216.654171,277.124998 217.037501,276.733335 217.512503,276.45 C217.987506,276.166665 218.520834,275.962501 219.112503,275.8375 C219.704173,275.712499 220.3,275.616667 220.900003,275.55 C221.416672,275.449999 221.908334,275.379167 222.375003,275.3375 C222.841672,275.295833 223.254168,275.225001 223.612503,275.125 C223.970838,275.024999 224.254169,274.870834 224.462503,274.6625 C224.670838,274.454166 224.775003,274.141669 224.775003,273.725 C224.775003,273.358332 224.687504,273.058335 224.512503,272.825 C224.337502,272.591665 224.120838,272.412501 223.862503,272.2875 C223.604169,272.162499 223.316671,272.079167 223.000003,272.0375 C222.683335,271.995833 222.383338,271.975 222.100003,271.975 C221.299999,271.975 220.641672,272.141665 220.125003,272.475 C219.608334,272.808335 219.31667,273.324996 219.250003,274.025 L216.400003,274.025 C216.450003,273.191663 216.650001,272.500003 217.000003,271.95 C217.350005,271.399997 217.795834,270.958335 218.337503,270.625 C218.879173,270.291665 219.491666,270.058334 220.175003,269.925 C220.85834,269.791666 221.558333,269.725 222.275003,269.725 C222.90834,269.725 223.533333,269.791666 224.150003,269.925 C224.766673,270.058334 225.320834,270.274998 225.812503,270.575 C226.304172,270.875001 226.700002,271.262498 227.000003,271.7375 C227.300005,272.212502 227.450003,272.791663 227.450003,273.475 L227.450003,280.125 Z M224.600003,276.525 C224.166668,276.808335 223.63334,276.979166 223.000003,277.0375 C222.366667,277.095834 221.73334,277.183333 221.100003,277.3 C220.800002,277.35 220.508338,277.420833 220.225003,277.5125 C219.941668,277.604167 219.691671,277.729166 219.475003,277.8875 C219.258335,278.045834 219.087504,278.254165 218.962503,278.5125 C218.837503,278.770835 218.775003,279.083331 218.775003,279.45 C218.775003,279.766668 218.866669,280.033332 219.050003,280.25 C219.233337,280.466668 219.454169,280.637499 219.712503,280.7625 C219.970838,280.887501 220.254168,280.975 220.562503,281.025 C220.870838,281.075 221.150002,281.1 221.400003,281.1 C221.716671,281.1 222.058335,281.058334 222.425003,280.975 C222.791672,280.891666 223.137502,280.750001 223.462503,280.55 C223.787505,280.349999 224.058335,280.095835 224.275003,279.7875 C224.491671,279.479165 224.600003,279.100002 224.600003,278.65 L224.600003,276.525 Z M243.173614,283 L240.473614,283 L240.473614,281.25 L240.423614,281.25 C240.040279,282.000004 239.481951,282.537498 238.748614,282.8625 C238.015277,283.187502 237.240285,283.35 236.423614,283.35 C235.406942,283.35 234.519451,283.170835 233.761114,282.8125 C233.002777,282.454165 232.373616,281.96667 231.873614,281.35 C231.373611,280.73333 230.998615,280.004171 230.748614,279.1625 C230.498613,278.320829 230.373614,277.416672 230.373614,276.45 C230.373614,275.283327 230.531946,274.275004 230.848614,273.425 C231.165282,272.574996 231.586111,271.875003 232.111114,271.325 C232.636117,270.774997 233.236111,270.370835 233.911114,270.1125 C234.586117,269.854165 235.27361,269.725 235.973614,269.725 C236.373616,269.725 236.781945,269.7625 237.198614,269.8375 C237.615283,269.9125 238.015279,270.033333 238.398614,270.2 C238.781949,270.366668 239.136112,270.579165 239.461114,270.8375 C239.786116,271.095835 240.056946,271.399998 240.273614,271.75 L240.323614,271.75 L240.323614,265.15 L243.173614,265.15 L243.173614,283 Z M233.223614,276.675 C233.223614,277.225003 233.294447,277.766664 233.436114,278.3 C233.577781,278.833336 233.794446,279.308331 234.086114,279.725 C234.377782,280.141669 234.748612,280.474999 235.198614,280.725 C235.648616,280.975001 236.181944,281.1 236.798614,281.1 C237.43195,281.1 237.977778,280.966668 238.436114,280.7 C238.89445,280.433332 239.269446,280.083335 239.561114,279.65 C239.852782,279.216664 240.069447,278.729169 240.211114,278.1875 C240.352781,277.645831 240.423614,277.09167 240.423614,276.525 C240.423614,275.091659 240.102784,273.975004 239.461114,273.175 C238.819444,272.374996 237.948619,271.975 236.848614,271.975 C236.181944,271.975 235.61945,272.112499 235.161114,272.3875 C234.702778,272.662501 234.327782,273.020831 234.036114,273.4625 C233.744446,273.904169 233.536115,274.404164 233.411114,274.9625 C233.286113,275.520836 233.223614,276.091664 233.223614,276.675 Z M246.822225,265.15 L249.672225,265.15 L249.672225,267.85 L246.822225,267.85 L246.822225,265.15 Z M246.822225,270.075 L249.672225,270.075 L249.672225,283 L246.822225,283 L246.822225,270.075 Z M251.945835,270.075 L254.095835,270.075 L254.095835,266.2 L256.945835,266.2 L256.945835,270.075 L259.520835,270.075 L259.520835,272.2 L256.945835,272.2 L256.945835,279.1 C256.945835,279.400002 256.958335,279.658332 256.983335,279.875 C257.008336,280.091668 257.066668,280.274999 257.158335,280.425 C257.250003,280.575001 257.387501,280.6875 257.570835,280.7625 C257.75417,280.8375 258.004167,280.875 258.320835,280.875 C258.520836,280.875 258.720834,280.870833 258.920835,280.8625 C259.120836,280.854167 259.320834,280.825 259.520835,280.775 L259.520835,282.975 C259.204167,283.008333 258.895837,283.041667 258.595835,283.075 C258.295834,283.108334 257.987504,283.125 257.670835,283.125 C256.920832,283.125 256.316671,283.054167 255.858335,282.9125 C255.4,282.770833 255.04167,282.562501 254.783335,282.2875 C254.525001,282.012499 254.350003,281.666669 254.258335,281.25 C254.166668,280.833331 254.112502,280.358336 254.095835,279.825 L254.095835,272.2 L251.945835,272.2 L251.945835,270.075 Z M262.119446,265.15 L264.969446,265.15 L264.969446,267.85 L262.119446,267.85 L262.119446,265.15 Z M262.119446,270.075 L264.969446,270.075 L264.969446,283 L262.119446,283 L262.119446,270.075 Z M274.468057,283.35 C273.434718,283.35 272.513894,283.179168 271.705557,282.8375 C270.89722,282.495832 270.213893,282.025003 269.655557,281.425 C269.097221,280.824997 268.672225,280.108338 268.380557,279.275 C268.088889,278.441663 267.943057,277.525005 267.943057,276.525 C267.943057,275.541662 268.088889,274.633337 268.380557,273.8 C268.672225,272.966662 269.097221,272.250003 269.655557,271.65 C270.213893,271.049997 270.89722,270.579168 271.705557,270.2375 C272.513894,269.895832 273.434718,269.725 274.468057,269.725 C275.501395,269.725 276.42222,269.895832 277.230557,270.2375 C278.038894,270.579168 278.722221,271.049997 279.280557,271.65 C279.838893,272.250003 280.263889,272.966662 280.555557,273.8 C280.847225,274.633337 280.993057,275.541662 280.993057,276.525 C280.993057,277.525005 280.847225,278.441663 280.555557,279.275 C280.263889,280.108338 279.838893,280.824997 279.280557,281.425 C278.722221,282.025003 278.038894,282.495832 277.230557,282.8375 C276.42222,283.179168 275.501395,283.35 274.468057,283.35 Z M274.468057,281.1 C275.101393,281.1 275.651388,280.966668 276.118057,280.7 C276.584726,280.433332 276.968055,280.083335 277.268057,279.65 C277.568058,279.216664 277.78889,278.729169 277.930557,278.1875 C278.072224,277.645831 278.143057,277.09167 278.143057,276.525 C278.143057,275.974997 278.072224,275.425003 277.930557,274.875 C277.78889,274.324997 277.568058,273.837502 277.268057,273.4125 C276.968055,272.987498 276.584726,272.641668 276.118057,272.375 C275.651388,272.108332 275.101393,271.975 274.468057,271.975 C273.83472,271.975 273.284726,272.108332 272.818057,272.375 C272.351388,272.641668 271.968058,272.987498 271.668057,273.4125 C271.368055,273.837502 271.147224,274.324997 271.005557,274.875 C270.86389,275.425003 270.793057,275.974997 270.793057,276.525 C270.793057,277.09167 270.86389,277.645831 271.005557,278.1875 C271.147224,278.729169 271.368055,279.216664 271.668057,279.65 C271.968058,280.083335 272.351388,280.433332 272.818057,280.7 C273.284726,280.966668 273.83472,281.1 274.468057,281.1 Z M283.841668,270.075 L286.541668,270.075 L286.541668,271.975 L286.591668,272.025 C287.025003,271.30833 287.591664,270.745835 288.291668,270.3375 C288.991671,269.929165 289.766663,269.725 290.616668,269.725 C292.033341,269.725 293.149997,270.091663 293.966668,270.825 C294.783338,271.558337 295.191668,272.658326 295.191668,274.125 L295.191668,283 L292.341668,283 L292.341668,274.875 C292.308334,273.858328 292.09167,273.120836 291.691668,272.6625 C291.291666,272.204164 290.666672,271.975 289.816668,271.975 C289.333332,271.975 288.900003,272.062499 288.516668,272.2375 C288.133332,272.412501 287.808336,272.654165 287.541668,272.9625 C287.275,273.270835 287.066668,273.633331 286.916668,274.05 C286.766667,274.466669 286.691668,274.908331 286.691668,275.375 L286.691668,283 L283.841668,283 L283.841668,270.075 Z M309.490278,280.125 C309.490278,280.475002 309.536111,280.724999 309.627778,280.875 C309.719446,281.025001 309.89861,281.1 310.165278,281.1 L310.465278,281.1 C310.581946,281.1 310.715278,281.083333 310.865278,281.05 L310.865278,283.025 C310.765278,283.058334 310.636113,283.095833 310.477778,283.1375 C310.319444,283.179167 310.156946,283.216666 309.990278,283.25 C309.823611,283.283334 309.656946,283.308333 309.490278,283.325 C309.323611,283.341667 309.181946,283.35 309.065278,283.35 C308.481942,283.35 307.998614,283.233335 307.615278,283 C307.231943,282.766665 306.981946,282.358336 306.865278,281.775 C306.298609,282.325003 305.602783,282.724999 304.777778,282.975 C303.952774,283.225001 303.156949,283.35 302.390278,283.35 C301.806942,283.35 301.248614,283.270834 300.715278,283.1125 C300.181942,282.954166 299.711114,282.720835 299.302778,282.4125 C298.894443,282.104165 298.569446,281.712502 298.327778,281.2375 C298.086111,280.762498 297.965278,280.208336 297.965278,279.575 C297.965278,278.774996 298.11111,278.125002 298.402778,277.625 C298.694447,277.124998 299.077776,276.733335 299.552778,276.45 C300.027781,276.166665 300.561109,275.962501 301.152778,275.8375 C301.744448,275.712499 302.340275,275.616667 302.940278,275.55 C303.456948,275.449999 303.948609,275.379167 304.415278,275.3375 C304.881947,275.295833 305.294443,275.225001 305.652778,275.125 C306.011114,275.024999 306.294444,274.870834 306.502778,274.6625 C306.711113,274.454166 306.815278,274.141669 306.815278,273.725 C306.815278,273.358332 306.727779,273.058335 306.552778,272.825 C306.377778,272.591665 306.161113,272.412501 305.902778,272.2875 C305.644444,272.162499 305.356947,272.079167 305.040278,272.0375 C304.72361,271.995833 304.423613,271.975 304.140278,271.975 C303.340274,271.975 302.681948,272.141665 302.165278,272.475 C301.648609,272.808335 301.356945,273.324996 301.290278,274.025 L298.440278,274.025 C298.490279,273.191663 298.690277,272.500003 299.040278,271.95 C299.39028,271.399997 299.836109,270.958335 300.377778,270.625 C300.919448,270.291665 301.531942,270.058334 302.215278,269.925 C302.898615,269.791666 303.598608,269.725 304.315278,269.725 C304.948615,269.725 305.573609,269.791666 306.190278,269.925 C306.806948,270.058334 307.361109,270.274998 307.852778,270.575 C308.344448,270.875001 308.740277,271.262498 309.040278,271.7375 C309.34028,272.212502 309.490278,272.791663 309.490278,273.475 L309.490278,280.125 Z M306.640278,276.525 C306.206943,276.808335 305.673615,276.979166 305.040278,277.0375 C304.406942,277.095834 303.773615,277.183333 303.140278,277.3 C302.840277,277.35 302.548613,277.420833 302.265278,277.5125 C301.981944,277.604167 301.731946,277.729166 301.515278,277.8875 C301.298611,278.045834 301.127779,278.254165 301.002778,278.5125 C300.877778,278.770835 300.815278,279.083331 300.815278,279.45 C300.815278,279.766668 300.906944,280.033332 301.090278,280.25 C301.273613,280.466668 301.494444,280.637499 301.752778,280.7625 C302.011113,280.887501 302.294444,280.975 302.602778,281.025 C302.911113,281.075 303.190277,281.1 303.440278,281.1 C303.756947,281.1 304.09861,281.058334 304.465278,280.975 C304.831947,280.891666 305.177777,280.750001 305.502778,280.55 C305.82778,280.349999 306.098611,280.095835 306.315278,279.7875 C306.531946,279.479165 306.640278,279.100002 306.640278,278.65 L306.640278,276.525 Z M313.113889,265.15 L315.963889,265.15 L315.963889,283 L313.113889,283 L313.113889,265.15 Z M327.361111,265.15 L335.236111,265.15 C336.502784,265.15 337.536107,265.333331 338.336111,265.7 C339.136115,266.066668 339.752775,266.524997 340.186111,267.075 C340.619446,267.625003 340.915277,268.224997 341.073611,268.875 C341.231945,269.525003 341.311111,270.124997 341.311111,270.675 C341.311111,271.225003 341.231945,271.82083 341.073611,272.4625 C340.915277,273.10417 340.619446,273.699997 340.186111,274.25 C339.752775,274.800003 339.136115,275.254165 338.336111,275.6125 C337.536107,275.970835 336.502784,276.15 335.236111,276.15 L330.486111,276.15 L330.486111,283 L327.361111,283 L327.361111,265.15 Z M330.486111,273.6 L335.061111,273.6 C335.411113,273.6 335.769442,273.550001 336.136111,273.45 C336.502779,273.349999 336.840276,273.187501 337.148611,272.9625 C337.456946,272.737499 337.706943,272.437502 337.898611,272.0625 C338.090278,271.687498 338.186111,271.216669 338.186111,270.65 C338.186111,270.066664 338.102778,269.583335 337.936111,269.2 C337.769443,268.816665 337.544446,268.512501 337.261111,268.2875 C336.977776,268.062499 336.652779,267.908334 336.286111,267.825 C335.919442,267.741666 335.52778,267.7 335.111111,267.7 L330.486111,267.7 L330.486111,273.6 Z M344.184722,265.15 L347.034722,265.15 L347.034722,267.85 L344.184722,267.85 L344.184722,265.15 Z M344.184722,270.075 L347.034722,270.075 L347.034722,283 L344.184722,283 L344.184722,270.075 Z M350.158332,270.075 L360.658332,270.075 L360.658332,272.075 L353.258332,280.75 L361.033332,280.75 L361.033332,283 L349.658332,283 L349.658332,281 L356.808332,272.325 L350.158332,272.325 L350.158332,270.075 Z M363.131943,270.075 L373.631943,270.075 L373.631943,272.075 L366.231943,280.75 L374.006943,280.75 L374.006943,283 L362.631943,283 L362.631943,281 L369.781943,272.325 L363.131943,272.325 L363.131943,270.075 Z M387.380554,280.125 C387.380554,280.475002 387.426387,280.724999 387.518054,280.875 C387.609721,281.025001 387.788886,281.1 388.055554,281.1 L388.355554,281.1 C388.472221,281.1 388.605553,281.083333 388.755554,281.05 L388.755554,283.025 C388.655553,283.058334 388.526388,283.095833 388.368054,283.1375 C388.20972,283.179167 388.047221,283.216666 387.880554,283.25 C387.713886,283.283334 387.547221,283.308333 387.380554,283.325 C387.213886,283.341667 387.072221,283.35 386.955554,283.35 C386.372218,283.35 385.888889,283.233335 385.505554,283 C385.122219,282.766665 384.872221,282.358336 384.755554,281.775 C384.188884,282.325003 383.493058,282.724999 382.668054,282.975 C381.84305,283.225001 381.047224,283.35 380.280554,283.35 C379.697218,283.35 379.13889,283.270834 378.605554,283.1125 C378.072218,282.954166 377.601389,282.720835 377.193054,282.4125 C376.784718,282.104165 376.459722,281.712502 376.218054,281.2375 C375.976386,280.762498 375.855554,280.208336 375.855554,279.575 C375.855554,278.774996 376.001386,278.125002 376.293054,277.625 C376.584722,277.124998 376.968051,276.733335 377.443054,276.45 C377.918056,276.166665 378.451384,275.962501 379.043054,275.8375 C379.634723,275.712499 380.230551,275.616667 380.830554,275.55 C381.347223,275.449999 381.838885,275.379167 382.305554,275.3375 C382.772223,275.295833 383.184719,275.225001 383.543054,275.125 C383.901389,275.024999 384.184719,274.870834 384.393054,274.6625 C384.601388,274.454166 384.705554,274.141669 384.705554,273.725 C384.705554,273.358332 384.618055,273.058335 384.443054,272.825 C384.268053,272.591665 384.051388,272.412501 383.793054,272.2875 C383.534719,272.162499 383.247222,272.079167 382.930554,272.0375 C382.613886,271.995833 382.313889,271.975 382.030554,271.975 C381.23055,271.975 380.572223,272.141665 380.055554,272.475 C379.538885,272.808335 379.247221,273.324996 379.180554,274.025 L376.330554,274.025 C376.380554,273.191663 376.580552,272.500003 376.930554,271.95 C377.280556,271.399997 377.726384,270.958335 378.268054,270.625 C378.809723,270.291665 379.422217,270.058334 380.105554,269.925 C380.788891,269.791666 381.488884,269.725 382.205554,269.725 C382.83889,269.725 383.463884,269.791666 384.080554,269.925 C384.697224,270.058334 385.251385,270.274998 385.743054,270.575 C386.234723,270.875001 386.630552,271.262498 386.930554,271.7375 C387.230555,272.212502 387.380554,272.791663 387.380554,273.475 L387.380554,280.125 Z M384.530554,276.525 C384.097218,276.808335 383.56389,276.979166 382.930554,277.0375 C382.297217,277.095834 381.66389,277.183333 381.030554,277.3 C380.730552,277.35 380.438889,277.420833 380.155554,277.5125 C379.872219,277.604167 379.622222,277.729166 379.405554,277.8875 C379.188886,278.045834 379.018054,278.254165 378.893054,278.5125 C378.768053,278.770835 378.705554,279.083331 378.705554,279.45 C378.705554,279.766668 378.79722,280.033332 378.980554,280.25 C379.163888,280.466668 379.384719,280.637499 379.643054,280.7625 C379.901388,280.887501 380.184719,280.975 380.493054,281.025 C380.801389,281.075 381.080553,281.1 381.330554,281.1 C381.647222,281.1 381.988885,281.058334 382.355554,280.975 C382.722222,280.891666 383.068052,280.750001 383.393054,280.55 C383.718055,280.349999 383.988886,280.095835 384.205554,279.7875 C384.422222,279.479165 384.530554,279.100002 384.530554,278.65 L384.530554,276.525 Z M398.752775,265.15 L407.277775,265.15 C409.244452,265.15 410.719437,265.574996 411.702775,266.425 C412.686114,267.275004 413.177775,268.458326 413.177775,269.975 C413.177775,270.825004 413.052777,271.529164 412.802775,272.0875 C412.552774,272.645836 412.26111,273.095832 411.927775,273.4375 C411.59444,273.779168 411.265277,274.024999 410.940275,274.175 C410.615274,274.325001 410.377776,274.425 410.227775,274.475 L410.227775,274.525 C410.494443,274.558334 410.78194,274.641666 411.090275,274.775 C411.39861,274.908334 411.686107,275.120832 411.952775,275.4125 C412.219443,275.704168 412.440274,276.083331 412.615275,276.55 C412.790276,277.016669 412.877775,277.599996 412.877775,278.3 C412.877775,279.350005 412.956941,280.304162 413.115275,281.1625 C413.273609,282.020838 413.51944,282.633331 413.852775,283 L410.502775,283 C410.269441,282.616665 410.131942,282.191669 410.090275,281.725 C410.048608,281.258331 410.027775,280.808335 410.027775,280.375 C410.027775,279.558329 409.977776,278.85417 409.877775,278.2625 C409.777775,277.67083 409.594443,277.179169 409.327775,276.7875 C409.061107,276.395831 408.698611,276.108334 408.240275,275.925 C407.78194,275.741666 407.194446,275.65 406.477775,275.65 L401.877775,275.65 L401.877775,283 L398.752775,283 L398.752775,265.15 Z M401.877775,273.275 L407.002775,273.275 C408.00278,273.275 408.761106,273.037502 409.277775,272.5625 C409.794445,272.087498 410.052775,271.375005 410.052775,270.425 C410.052775,269.858331 409.969443,269.395835 409.802775,269.0375 C409.636108,268.679165 409.406943,268.400001 409.115275,268.2 C408.823607,267.999999 408.490277,267.866667 408.115275,267.8 C407.740273,267.733333 407.352777,267.7 406.952775,267.7 L401.877775,267.7 L401.877775,273.275 Z M425.301386,275.4 C425.268053,274.949998 425.17222,274.516669 425.013886,274.1 C424.855552,273.683331 424.638887,273.320835 424.363886,273.0125 C424.088885,272.704165 423.755555,272.454168 423.363886,272.2625 C422.972217,272.070832 422.534722,271.975 422.051386,271.975 C421.551384,271.975 421.097221,272.062499 420.688886,272.2375 C420.280551,272.412501 419.930554,272.654165 419.638886,272.9625 C419.347218,273.270835 419.113887,273.633331 418.938886,274.05 C418.763885,274.466669 418.668053,274.916664 418.651386,275.4 L425.301386,275.4 Z M418.651386,277.275 C418.651386,277.775003 418.722219,278.258331 418.863886,278.725 C419.005553,279.191669 419.218051,279.599998 419.501386,279.95 C419.784721,280.300002 420.143051,280.579166 420.576386,280.7875 C421.009722,280.995834 421.526383,281.1 422.126386,281.1 C422.959724,281.1 423.63055,280.920835 424.138886,280.5625 C424.647222,280.204165 425.026385,279.66667 425.276386,278.95 L427.976386,278.95 C427.826385,279.650004 427.568055,280.274997 427.201386,280.825 C426.834718,281.375003 426.393055,281.837498 425.876386,282.2125 C425.359717,282.587502 424.780556,282.870832 424.138886,283.0625 C423.497216,283.254168 422.82639,283.35 422.126386,283.35 C421.109714,283.35 420.209723,283.183335 419.426386,282.85 C418.643049,282.516665 417.980555,282.050003 417.438886,281.45 C416.897217,280.849997 416.488887,280.133337 416.213886,279.3 C415.938885,278.466662 415.801386,277.550005 415.801386,276.55 C415.801386,275.633329 415.947218,274.762504 416.238886,273.9375 C416.530554,273.112496 416.947217,272.387503 417.488886,271.7625 C418.030555,271.137497 418.684716,270.641668 419.451386,270.275 C420.218057,269.908332 421.084715,269.725 422.051386,269.725 C423.068058,269.725 423.980549,269.937498 424.788886,270.3625 C425.597223,270.787502 426.26805,271.349996 426.801386,272.05 C427.334722,272.750003 427.722218,273.554162 427.963886,274.4625 C428.205554,275.370838 428.268053,276.308329 428.151386,277.275 L418.651386,277.275 Z M432.949997,278.85 C433.033331,279.683337 433.349994,280.266665 433.899997,280.6 C434.45,280.933335 435.108326,281.1 435.874997,281.1 C436.141665,281.1 436.445828,281.079167 436.787497,281.0375 C437.129165,280.995833 437.449995,280.916667 437.749997,280.8 C438.049998,280.683333 438.295829,280.512501 438.487497,280.2875 C438.679164,280.062499 438.766664,279.766668 438.749997,279.4 C438.73333,279.033331 438.599998,278.733335 438.349997,278.5 C438.099996,278.266665 437.779165,278.079167 437.387497,277.9375 C436.995828,277.795833 436.549999,277.675001 436.049997,277.575 C435.549994,277.475 435.041666,277.366667 434.524997,277.25 C433.991661,277.133333 433.479166,276.991668 432.987497,276.825 C432.495828,276.658333 432.054165,276.433335 431.662497,276.15 C431.270828,275.866665 430.958331,275.504169 430.724997,275.0625 C430.491662,274.620831 430.374997,274.075003 430.374997,273.425 C430.374997,272.724996 430.545828,272.137502 430.887497,271.6625 C431.229165,271.187498 431.662494,270.804168 432.187497,270.5125 C432.712499,270.220832 433.295827,270.016667 433.937497,269.9 C434.579167,269.783333 435.191661,269.725 435.774997,269.725 C436.441667,269.725 437.07916,269.795833 437.687497,269.9375 C438.295833,270.079167 438.845828,270.308332 439.337497,270.625 C439.829166,270.941668 440.237495,271.354164 440.562497,271.8625 C440.887498,272.370836 441.091663,272.98333 441.174997,273.7 L438.199997,273.7 C438.066663,273.016663 437.754166,272.558335 437.262497,272.325 C436.770828,272.091665 436.208333,271.975 435.574997,271.975 C435.374996,271.975 435.137498,271.991667 434.862497,272.025 C434.587495,272.058334 434.329165,272.120833 434.087497,272.2125 C433.845829,272.304167 433.641664,272.437499 433.474997,272.6125 C433.308329,272.787501 433.224997,273.016665 433.224997,273.3 C433.224997,273.650002 433.345829,273.933332 433.587497,274.15 C433.829165,274.366668 434.145828,274.545833 434.537497,274.6875 C434.929165,274.829167 435.374994,274.949999 435.874997,275.05 C436.374999,275.150001 436.891661,275.258333 437.424997,275.375 C437.941666,275.491667 438.449994,275.633332 438.949997,275.8 C439.449999,275.966667 439.895828,276.191665 440.287497,276.475 C440.679165,276.758335 440.995829,277.116665 441.237497,277.55 C441.479165,277.983336 441.599997,278.516663 441.599997,279.15 C441.599997,279.916671 441.424999,280.566664 441.074997,281.1 C440.724995,281.633336 440.270833,282.066665 439.712497,282.4 C439.154161,282.733335 438.533334,282.974999 437.849997,283.125 C437.16666,283.275001 436.491667,283.35 435.824997,283.35 C435.008326,283.35 434.254167,283.258334 433.562497,283.075 C432.870827,282.891666 432.270833,282.612502 431.762497,282.2375 C431.254161,281.862498 430.854165,281.395836 430.562497,280.8375 C430.270829,280.279164 430.116664,279.61667 430.099997,278.85 L432.949997,278.85 Z M442.948608,270.075 L445.098608,270.075 L445.098608,266.2 L447.948608,266.2 L447.948608,270.075 L450.523608,270.075 L450.523608,272.2 L447.948608,272.2 L447.948608,279.1 C447.948608,279.400002 447.961107,279.658332 447.986108,279.875 C448.011108,280.091668 448.06944,280.274999 448.161108,280.425 C448.252775,280.575001 448.390273,280.6875 448.573608,280.7625 C448.756942,280.8375 449.006939,280.875 449.323608,280.875 C449.523609,280.875 449.723607,280.870833 449.923608,280.8625 C450.123609,280.854167 450.323607,280.825 450.523608,280.775 L450.523608,282.975 C450.206939,283.008333 449.898609,283.041667 449.598608,283.075 C449.298606,283.108334 448.990276,283.125 448.673608,283.125 C447.923604,283.125 447.319443,283.054167 446.861108,282.9125 C446.402772,282.770833 446.044442,282.562501 445.786108,282.2875 C445.527773,282.012499 445.352775,281.666669 445.261108,281.25 C445.16944,280.833331 445.115274,280.358336 445.098608,279.825 L445.098608,272.2 L442.948608,272.2 L442.948608,270.075 Z M463.872218,280.125 C463.872218,280.475002 463.918051,280.724999 464.009718,280.875 C464.101385,281.025001 464.28055,281.1 464.547218,281.1 L464.847218,281.1 C464.963886,281.1 465.097218,281.083333 465.247218,281.05 L465.247218,283.025 C465.147218,283.058334 465.018052,283.095833 464.859718,283.1375 C464.701384,283.179167 464.538886,283.216666 464.372218,283.25 C464.205551,283.283334 464.038886,283.308333 463.872218,283.325 C463.705551,283.341667 463.563886,283.35 463.447218,283.35 C462.863882,283.35 462.380554,283.233335 461.997218,283 C461.613883,282.766665 461.363886,282.358336 461.247218,281.775 C460.680549,282.325003 459.984722,282.724999 459.159718,282.975 C458.334714,283.225001 457.538889,283.35 456.772218,283.35 C456.188882,283.35 455.630554,283.270834 455.097218,283.1125 C454.563882,282.954166 454.093054,282.720835 453.684718,282.4125 C453.276383,282.104165 452.951386,281.712502 452.709718,281.2375 C452.46805,280.762498 452.347218,280.208336 452.347218,279.575 C452.347218,278.774996 452.49305,278.125002 452.784718,277.625 C453.076386,277.124998 453.459716,276.733335 453.934718,276.45 C454.409721,276.166665 454.943049,275.962501 455.534718,275.8375 C456.126388,275.712499 456.722215,275.616667 457.322218,275.55 C457.838888,275.449999 458.330549,275.379167 458.797218,275.3375 C459.263887,275.295833 459.676383,275.225001 460.034718,275.125 C460.393053,275.024999 460.676384,274.870834 460.884718,274.6625 C461.093053,274.454166 461.197218,274.141669 461.197218,273.725 C461.197218,273.358332 461.109719,273.058335 460.934718,272.825 C460.759717,272.591665 460.543053,272.412501 460.284718,272.2875 C460.026384,272.162499 459.738887,272.079167 459.422218,272.0375 C459.10555,271.995833 458.805553,271.975 458.522218,271.975 C457.722214,271.975 457.063888,272.141665 456.547218,272.475 C456.030549,272.808335 455.738885,273.324996 455.672218,274.025 L452.822218,274.025 C452.872219,273.191663 453.072217,272.500003 453.422218,271.95 C453.77222,271.399997 454.218049,270.958335 454.759718,270.625 C455.301388,270.291665 455.913882,270.058334 456.597218,269.925 C457.280555,269.791666 457.980548,269.725 458.697218,269.725 C459.330555,269.725 459.955549,269.791666 460.572218,269.925 C461.188888,270.058334 461.743049,270.274998 462.234718,270.575 C462.726387,270.875001 463.122217,271.262498 463.422218,271.7375 C463.72222,272.212502 463.872218,272.791663 463.872218,273.475 L463.872218,280.125 Z M461.022218,276.525 C460.588883,276.808335 460.055555,276.979166 459.422218,277.0375 C458.788882,277.095834 458.155555,277.183333 457.522218,277.3 C457.222217,277.35 456.930553,277.420833 456.647218,277.5125 C456.363884,277.604167 456.113886,277.729166 455.897218,277.8875 C455.680551,278.045834 455.509719,278.254165 455.384718,278.5125 C455.259718,278.770835 455.197218,279.083331 455.197218,279.45 C455.197218,279.766668 455.288884,280.033332 455.472218,280.25 C455.655553,280.466668 455.876384,280.637499 456.134718,280.7625 C456.393053,280.887501 456.676383,280.975 456.984718,281.025 C457.293053,281.075 457.572217,281.1 457.822218,281.1 C458.138887,281.1 458.48055,281.058334 458.847218,280.975 C459.213887,280.891666 459.559717,280.750001 459.884718,280.55 C460.20972,280.349999 460.480551,280.095835 460.697218,279.7875 C460.913886,279.479165 461.022218,279.100002 461.022218,278.65 L461.022218,276.525 Z M478.770829,283 L475.970829,283 L475.970829,281.2 L475.920829,281.2 C475.570827,281.850003 475.049999,282.370831 474.358329,282.7625 C473.666659,283.154169 472.962499,283.35 472.245829,283.35 C470.545821,283.35 469.316666,282.929171 468.558329,282.0875 C467.799992,281.245829 467.420829,279.975009 467.420829,278.275 L467.420829,270.075 L470.270829,270.075 L470.270829,278 C470.270829,279.133339 470.487494,279.933331 470.920829,280.4 C471.354165,280.866669 471.962492,281.1 472.745829,281.1 C473.345832,281.1 473.845827,281.008334 474.245829,280.825 C474.645831,280.641666 474.970828,280.395835 475.220829,280.0875 C475.47083,279.779165 475.649995,279.408336 475.758329,278.975 C475.866663,278.541665 475.920829,278.075002 475.920829,277.575 L475.920829,270.075 L478.770829,270.075 L478.770829,283 Z M482.24444,270.075 L484.91944,270.075 L484.91944,272.575 L484.96944,272.575 C485.052774,272.224998 485.215272,271.883335 485.45694,271.55 C485.698608,271.216665 485.990271,270.912501 486.33194,270.6375 C486.673608,270.362499 487.052771,270.141667 487.46944,269.975 C487.886109,269.808333 488.311104,269.725 488.74444,269.725 C489.077775,269.725 489.306939,269.733333 489.43194,269.75 C489.55694,269.766667 489.686106,269.783333 489.81944,269.8 L489.81944,272.55 C489.619439,272.516666 489.415274,272.4875 489.20694,272.4625 C488.998605,272.4375 488.794441,272.425 488.59444,272.425 C488.111104,272.425 487.656942,272.520832 487.23194,272.7125 C486.806938,272.904168 486.436108,273.187498 486.11944,273.5625 C485.802772,273.937502 485.552774,274.399997 485.36944,274.95 C485.186106,275.500003 485.09444,276.13333 485.09444,276.85 L485.09444,283 L482.24444,283 L482.24444,270.075 Z M502.343051,280.125 C502.343051,280.475002 502.388883,280.724999 502.480551,280.875 C502.572218,281.025001 502.751383,281.1 503.018051,281.1 L503.318051,281.1 C503.434718,281.1 503.56805,281.083333 503.718051,281.05 L503.718051,283.025 C503.61805,283.058334 503.488885,283.095833 503.330551,283.1375 C503.172216,283.179167 503.009718,283.216666 502.843051,283.25 C502.676383,283.283334 502.509718,283.308333 502.343051,283.325 C502.176383,283.341667 502.034718,283.35 501.918051,283.35 C501.334714,283.35 500.851386,283.233335 500.468051,283 C500.084715,282.766665 499.834718,282.358336 499.718051,281.775 C499.151381,282.325003 498.455555,282.724999 497.630551,282.975 C496.805546,283.225001 496.009721,283.35 495.243051,283.35 C494.659714,283.35 494.101387,283.270834 493.568051,283.1125 C493.034715,282.954166 492.563886,282.720835 492.155551,282.4125 C491.747215,282.104165 491.422218,281.712502 491.180551,281.2375 C490.938883,280.762498 490.818051,280.208336 490.818051,279.575 C490.818051,278.774996 490.963882,278.125002 491.255551,277.625 C491.547219,277.124998 491.930548,276.733335 492.405551,276.45 C492.880553,276.166665 493.413881,275.962501 494.005551,275.8375 C494.59722,275.712499 495.193048,275.616667 495.793051,275.55 C496.30972,275.449999 496.801382,275.379167 497.268051,275.3375 C497.73472,275.295833 498.147215,275.225001 498.505551,275.125 C498.863886,275.024999 499.147216,274.870834 499.355551,274.6625 C499.563885,274.454166 499.668051,274.141669 499.668051,273.725 C499.668051,273.358332 499.580551,273.058335 499.405551,272.825 C499.23055,272.591665 499.013885,272.412501 498.755551,272.2875 C498.497216,272.162499 498.209719,272.079167 497.893051,272.0375 C497.576382,271.995833 497.276385,271.975 496.993051,271.975 C496.193047,271.975 495.53472,272.141665 495.018051,272.475 C494.501381,272.808335 494.209718,273.324996 494.143051,274.025 L491.293051,274.025 C491.343051,273.191663 491.543049,272.500003 491.893051,271.95 C492.243052,271.399997 492.688881,270.958335 493.230551,270.625 C493.77222,270.291665 494.384714,270.058334 495.068051,269.925 C495.751387,269.791666 496.45138,269.725 497.168051,269.725 C497.801387,269.725 498.426381,269.791666 499.043051,269.925 C499.65972,270.058334 500.213881,270.274998 500.705551,270.575 C501.19722,270.875001 501.593049,271.262498 501.893051,271.7375 C502.193052,272.212502 502.343051,272.791663 502.343051,273.475 L502.343051,280.125 Z M499.493051,276.525 C499.059715,276.808335 498.526387,276.979166 497.893051,277.0375 C497.259714,277.095834 496.626387,277.183333 495.993051,277.3 C495.693049,277.35 495.401385,277.420833 495.118051,277.5125 C494.834716,277.604167 494.584718,277.729166 494.368051,277.8875 C494.151383,278.045834 493.980551,278.254165 493.855551,278.5125 C493.73055,278.770835 493.668051,279.083331 493.668051,279.45 C493.668051,279.766668 493.759716,280.033332 493.943051,280.25 C494.126385,280.466668 494.347216,280.637499 494.605551,280.7625 C494.863885,280.887501 495.147216,280.975 495.455551,281.025 C495.763885,281.075 496.043049,281.1 496.293051,281.1 C496.609719,281.1 496.951382,281.058334 497.318051,280.975 C497.684719,280.891666 498.030549,280.750001 498.355551,280.55 C498.680552,280.349999 498.951383,280.095835 499.168051,279.7875 C499.384718,279.479165 499.493051,279.100002 499.493051,278.65 L499.493051,276.525 Z M505.891661,270.075 L508.591661,270.075 L508.591661,271.975 L508.641661,272.025 C509.074997,271.30833 509.641658,270.745835 510.341661,270.3375 C511.041665,269.929165 511.816657,269.725 512.666661,269.725 C514.083335,269.725 515.199991,270.091663 516.016661,270.825 C516.833332,271.558337 517.241661,272.658326 517.241661,274.125 L517.241661,283 L514.391661,283 L514.391661,274.875 C514.358328,273.858328 514.141663,273.120836 513.741661,272.6625 C513.341659,272.204164 512.716666,271.975 511.866661,271.975 C511.383326,271.975 510.949997,272.062499 510.566661,272.2375 C510.183326,272.412501 509.858329,272.654165 509.591661,272.9625 C509.324993,273.270835 509.116662,273.633331 508.966661,274.05 C508.816661,274.466669 508.741661,274.908331 508.741661,275.375 L508.741661,283 L505.891661,283 L505.891661,270.075 Z M519.415272,270.075 L521.565272,270.075 L521.565272,266.2 L524.415272,266.2 L524.415272,270.075 L526.990272,270.075 L526.990272,272.2 L524.415272,272.2 L524.415272,279.1 C524.415272,279.400002 524.427772,279.658332 524.452772,279.875 C524.477772,280.091668 524.536105,280.274999 524.627772,280.425 C524.719439,280.575001 524.856938,280.6875 525.040272,280.7625 C525.223606,280.8375 525.473604,280.875 525.790272,280.875 C525.990273,280.875 526.190271,280.870833 526.390272,280.8625 C526.590273,280.854167 526.790271,280.825 526.990272,280.775 L526.990272,282.975 C526.673604,283.008333 526.365274,283.041667 526.065272,283.075 C525.765271,283.108334 525.45694,283.125 525.140272,283.125 C524.390268,283.125 523.786108,283.054167 523.327772,282.9125 C522.869437,282.770833 522.511107,282.562501 522.252772,282.2875 C521.994438,282.012499 521.819439,281.666669 521.727772,281.25 C521.636105,280.833331 521.581939,280.358336 521.565272,279.825 L521.565272,272.2 L519.415272,272.2 L519.415272,270.075 Z" id="pmoto"></path>
            </g>
        </g>
    </g>
</svg>