<svg height="19" viewBox="0 0 419 19" width="419" xmlns="http://www.w3.org/2000/svg"><path d="m115.661117 265.15h3.325l6.875 17.85h-3.35l-1.675-4.725h-7.125l-1.675 4.725h-3.225zm-1.1 10.75h5.45l-2.675-7.675h-.075zm20.897222-10.75h3.125v8.125l7.95-8.125h3.85l-7.125 7.125 7.625 10.725h-3.9l-5.85-8.525-2.55 2.525v6h-3.125zm16.92361 9.7h7.275v2.7h-7.275zm9.123611-9.7h3.175l3.225 13.65h.05l3.6-13.65h3.2l3.5 13.65h.05l3.325-13.65h3.175l-4.925 17.85h-3.175l-3.575-13.65h-.05l-3.65 13.65h-3.225zm31.547222 0h14.45v2.7h-5.675v15.15h-3.125v-15.15h-5.65zm14.29861 4.925h2.675v2.5h.05c.083334-.350002.245833-.691665.4875-1.025.241668-.333335.533332-.637499.875-.9125.341669-.275001.720832-.495833 1.1375-.6625.416669-.166667.841665-.25 1.275-.25.333335 0 .5625.008333.6875.025.125001.016667.254166.033333.3875.05v2.75c-.200001-.033334-.404165-.0625-.6125-.0875-.208334-.025-.412499-.0375-.6125-.0375-.483335 0-.937497.095832-1.3625.2875-.425002.191668-.795831.474998-1.1125.85-.316668.375002-.566665.837497-.75 1.3875-.183334.550003-.275 1.18333-.275 1.9v6.15h-2.85zm20.098611 10.05c0 .350002.045833.599999.1375.75s.270832.225.5375.225h.3c.116667 0 .249999-.016667.4-.05v1.975c-.1.033334-.229166.070833-.3875.1125s-.320832.079166-.4875.1125c-.166667.033334-.333332.058333-.5.075-.166667.016667-.308333.025-.425.025-.583336 0-1.066665-.116665-1.45-.35s-.633333-.641664-.75-1.225c-.566669.550003-1.262496.949999-2.0875 1.2s-1.620829.375-2.3875.375c-.583336 0-1.141664-.079166-1.675-.2375s-1.004164-.391665-1.4125-.7c-.408335-.308335-.733332-.699998-.975-1.175s-.3625-1.029164-.3625-1.6625c0-.800004.145832-1.449998.4375-1.95s.674998-.891665 1.15-1.175c.475003-.283335 1.008331-.487499 1.6-.6125.59167-.125001 1.187497-.220833 1.7875-.2875.516669-.100001 1.008331-.170833 1.475-.2125s.879165-.112499 1.2375-.2125.641666-.254166.85-.4625c.208335-.208334.3125-.520831.3125-.9375 0-.366668-.087499-.666665-.2625-.9s-.391665-.412499-.65-.5375c-.258334-.125001-.545832-.208333-.8625-.25s-.616665-.0625-.9-.0625c-.800004 0-1.458331.166665-1.975.5s-.808333.849996-.875 1.55h-2.85c.05-.833337.249998-1.524997.6-2.075s.795831-.991665 1.3375-1.325c.54167-.333335 1.154163-.566666 1.8375-.7s1.38333-.2 2.1-.2c.633337 0 1.25833.066666 1.875.2s1.170831.349998 1.6625.65c.491669.300001.887499.687498 1.1875 1.1625.300002.475002.45 1.054163.45 1.7375zm-2.85-3.6c-.433335.283335-.966663.454166-1.6.5125-.633336.058334-1.266663.145833-1.9.2625-.300001.05-.591665.120833-.875.2125s-.533332.216666-.75.375-.387499.366665-.5125.625c-.125.258335-.1875.570831-.1875.9375 0 .316668.091666.583332.275.8s.404166.387499.6625.5125c.258335.125001.541665.2125.85.2625s.587499.075.8375.075c.316668 0 .658332-.041666 1.025-.125.366669-.083334.712499-.224999 1.0375-.425.325002-.200001.595832-.454165.8125-.7625s.325-.687498.325-1.1375zm18.573611 6.475h-2.7v-1.75h-.05c-.383335.750004-.941663 1.287498-1.675 1.6125s-1.508329.4875-2.325.4875c-1.016672 0-1.904163-.179165-2.6625-.5375s-1.387498-.84583-1.8875-1.4625c-.500003-.61667-.874999-1.345829-1.125-2.1875s-.375-1.745828-.375-2.7125c0-1.166673.158332-2.174996.475-3.025s.737497-1.549997 1.2625-2.1 1.124997-.954165 1.8-1.2125 1.362496-.3875 2.0625-.3875c.400002 0 .808331.0375 1.225.1125s.816665.195833 1.2.3625c.383335.166668.737498.379165 1.0625.6375s.595832.562498.8125.9125h.05v-6.6h2.85zm-9.95-6.325c0 .550003.070833 1.091664.2125 1.625s.358332 1.008331.65 1.425.662498.749999 1.1125 1 .98333.375 1.6.375c.633336 0 1.179164-.133332 1.6375-.4s.833332-.616665 1.125-1.05c.291668-.433336.508333-.920831.65-1.4625s.2125-1.09583.2125-1.6625c0-1.433341-.32083-2.549996-.9625-3.35s-1.512495-1.2-2.6125-1.2c-.66667 0-1.229164.137499-1.6875.4125s-.833332.633331-1.125 1.075-.499999.941664-.625 1.5-.1875 1.129164-.1875 1.7125zm13.598611-11.525h2.85v2.7h-2.85zm0 4.925h2.85v12.925h-2.85zm5.12361 0h2.15v-3.875h2.85v3.875h2.575v2.125h-2.575v6.9c0 .300002.0125.558332.0375.775.025001.216668.083333.399999.175.55.091668.150001.229166.2625.4125.3375.183335.075.433332.1125.75.1125.200001 0 .399999-.004167.6-.0125s.399999-.0375.6-.0875v2.2c-.316668.033333-.624998.066667-.925.1-.300001.033334-.608331.05-.925.05-.750003 0-1.354164-.070833-1.8125-.2125-.458335-.141667-.816665-.349999-1.075-.625-.258334-.275001-.433332-.620831-.525-1.0375-.091667-.416669-.145833-.891664-.1625-1.425v-7.625h-2.15zm10.173611-4.925h2.85v2.7h-2.85zm0 4.925h2.85v12.925h-2.85zm12.348611 13.275c-1.033339 0-1.954163-.170832-2.7625-.5125s-1.491664-.812497-2.05-1.4125-.983332-1.316662-1.275-2.15c-.291668-.833337-.4375-1.749995-.4375-2.75 0-.983338.145832-1.891663.4375-2.725.291668-.833338.716664-1.549997 1.275-2.15s1.241663-1.070832 2.05-1.4125 1.729161-.5125 2.7625-.5125c1.033338 0 1.954163.170832 2.7625.5125s1.491664.812497 2.05 1.4125.983332 1.316662 1.275 2.15c.291668.833337.4375 1.741662.4375 2.725 0 1.000005-.145832 1.916663-.4375 2.75-.291668.833338-.716664 1.549997-1.275 2.15s-1.241663 1.070832-2.05 1.4125-1.729162.5125-2.7625.5125zm0-2.25c.633336 0 1.183331-.133332 1.65-.4s.849998-.616665 1.15-1.05c.300001-.433336.520833-.920831.6625-1.4625s.2125-1.09583.2125-1.6625c0-.550003-.070833-1.099997-.2125-1.65s-.362499-1.037498-.6625-1.4625c-.300002-.425002-.683331-.770832-1.15-1.0375s-1.016664-.4-1.65-.4c-.633337 0-1.183331.133332-1.65.4s-.849999.612498-1.15 1.0375c-.300002.425002-.520833.912497-.6625 1.4625s-.2125 1.099997-.2125 1.65c0 .56667.070833 1.120831.2125 1.6625s.362498 1.029164.6625 1.4625c.300001.433335.683331.783332 1.15 1.05s1.016663.4 1.65.4zm9.373611-11.025h2.7v1.9l.05.05c.433335-.71667.999996-1.279165 1.7-1.6875.700003-.408335 1.474995-.6125 2.325-.6125 1.416673 0 2.533329.366663 3.35 1.1.81667.733337 1.225 1.833326 1.225 3.3v8.875h-2.85v-8.125c-.033334-1.016672-.249998-1.754164-.65-2.2125s-1.024996-.6875-1.875-.6875c-.483336 0-.916665.087499-1.3.2625-.383336.175001-.708332.416665-.975.725s-.475.670831-.625 1.0875c-.150001.416669-.225.858331-.225 1.325v7.625h-2.85zm25.64861 10.05c0 .350002.045833.599999.1375.75.091668.150001.270832.225.5375.225h.3c.116668 0 .25-.016667.4-.05v1.975c-.1.033334-.229165.070833-.3875.1125-.158334.041667-.320832.079166-.4875.1125-.166667.033334-.333332.058333-.5.075-.166667.016667-.308332.025-.425.025-.583336 0-1.066664-.116665-1.45-.35-.383335-.233335-.633332-.641664-.75-1.225-.566669.550003-1.262495.949999-2.0875 1.2-.825004.250001-1.620829.375-2.3875.375-.583336 0-1.141664-.079166-1.675-.2375s-1.004164-.391665-1.4125-.7c-.408335-.308335-.733332-.699998-.975-1.175-.241667-.475002-.3625-1.029164-.3625-1.6625 0-.800004.145832-1.449998.4375-1.95.291669-.500002.674998-.891665 1.15-1.175.475003-.283335 1.008331-.487499 1.6-.6125.59167-.125001 1.187497-.220833 1.7875-.2875.51667-.100001 1.008331-.170833 1.475-.2125s.879165-.112499 1.2375-.2125c.358336-.100001.641666-.254166.85-.4625.208335-.208334.3125-.520831.3125-.9375 0-.366668-.087499-.666665-.2625-.9-.175-.233335-.391665-.412499-.65-.5375-.258334-.125001-.545831-.208333-.8625-.25-.316668-.041667-.616665-.0625-.9-.0625-.800004 0-1.45833.166665-1.975.5-.516669.333335-.808333.849996-.875 1.55h-2.85c.050001-.833337.249999-1.524997.6-2.075.350002-.550003.795831-.991665 1.3375-1.325.54167-.333335 1.154164-.566666 1.8375-.7.683337-.133334 1.38333-.2 2.1-.2.633337 0 1.258331.066666 1.875.2.61667.133334 1.170831.349998 1.6625.65.49167.300001.887499.687498 1.1875 1.1625.300002.475002.45 1.054163.45 1.7375zm-2.85-3.6c-.433335.283335-.966663.454166-1.6.5125-.633336.058334-1.266663.145833-1.9.2625-.300001.05-.591665.120833-.875.2125-.283334.091667-.533332.216666-.75.375-.216667.158334-.387499.366665-.5125.625-.125.258335-.1875.570831-.1875.9375 0 .316668.091666.583332.275.8.183335.216668.404166.387499.6625.5125.258335.125001.541666.2125.85.2625.308335.05.587499.075.8375.075.316669 0 .658332-.041666 1.025-.125.366669-.083334.712499-.224999 1.0375-.425.325002-.200001.595833-.454165.8125-.7625.216668-.308335.325-.687498.325-1.1375zm6.473611-11.375h2.85v17.85h-2.85zm14.247222 0h7.875c1.266673 0 2.299996.183331 3.1.55.800004.366668 1.416664.824997 1.85 1.375.433335.550003.729166 1.149997.8875 1.8s.2375 1.249997.2375 1.8-.079166 1.14583-.2375 1.7875-.454165 1.237497-.8875 1.7875c-.433336.550003-1.049996 1.004165-1.85 1.3625s-1.833327.5375-3.1.5375h-4.75v6.85h-3.125zm3.125 8.45h4.575c.350002 0 .708331-.049999 1.075-.15.366668-.100001.704165-.262499 1.0125-.4875s.558332-.524998.75-.9c.191667-.375002.2875-.845831.2875-1.4125 0-.583336-.083333-1.066665-.25-1.45-.166668-.383335-.391665-.687499-.675-.9125s-.608332-.379166-.975-.4625c-.366669-.083334-.758331-.125-1.175-.125h-4.625zm13.698611-8.45h2.85v2.7h-2.85zm0 4.925h2.85v12.925h-2.85zm5.97361 0h10.5v2l-7.4 8.675h7.775v2.25h-11.375v-2l7.15-8.675h-6.65zm12.973611 0h10.5v2l-7.4 8.675h7.775v2.25h-11.375v-2l7.15-8.675h-6.65zm24.248611 10.05c0 .350002.045833.599999.1375.75s.270832.225.5375.225h.3c.116667 0 .249999-.016667.4-.05v1.975c-.100001.033334-.229166.070833-.3875.1125s-.320833.079166-.4875.1125c-.166668.033334-.333333.058333-.5.075-.166668.016667-.308333.025-.425.025-.583336 0-1.066665-.116665-1.45-.35s-.633333-.641664-.75-1.225c-.56667.550003-1.262496.949999-2.0875 1.2s-1.62083.375-2.3875.375c-.583336 0-1.141664-.079166-1.675-.2375s-1.004165-.391665-1.4125-.7c-.408336-.308335-.733332-.699998-.975-1.175s-.3625-1.029164-.3625-1.6625c0-.800004.145832-1.449998.4375-1.95s.674997-.891665 1.15-1.175c.475002-.283335 1.00833-.487499 1.6-.6125.591669-.125001 1.187497-.220833 1.7875-.2875.516669-.100001 1.008331-.170833 1.475-.2125s.879165-.112499 1.2375-.2125.641665-.254166.85-.4625c.208334-.208334.3125-.520831.3125-.9375 0-.366668-.087499-.666665-.2625-.9s-.391666-.412499-.65-.5375c-.258335-.125001-.545832-.208333-.8625-.25s-.616665-.0625-.9-.0625c-.800004 0-1.458331.166665-1.975.5s-.808333.849996-.875 1.55h-2.85c.05-.833337.249998-1.524997.6-2.075s.79583-.991665 1.3375-1.325c.541669-.333335 1.154163-.566666 1.8375-.7s1.38333-.2 2.1-.2c.633336 0 1.25833.066666 1.875.2s1.170831.349998 1.6625.65c.491669.300001.887498.687498 1.1875 1.1625.300001.475002.45 1.054163.45 1.7375zm-2.85-3.6c-.433336.283335-.966664.454166-1.6.5125-.633337.058334-1.266664.145833-1.9.2625-.300002.05-.591665.120833-.875.2125s-.533332.216666-.75.375-.3875.366665-.5125.625c-.125001.258335-.1875.570831-.1875.9375 0 .316668.091666.583332.275.8s.404165.387499.6625.5125c.258334.125001.541665.2125.85.2625s.587499.075.8375.075c.316668 0 .658331-.041666 1.025-.125.366668-.083334.712498-.224999 1.0375-.425.325001-.200001.595832-.454165.8125-.7625s.325-.687498.325-1.1375zm14.222221-11.375h8.525c1.966677 0 3.441662.424996 4.425 1.275.983339.850004 1.475 2.033326 1.475 3.55 0 .850004-.124998 1.554164-.375 2.1125-.250001.558336-.541665 1.008332-.875 1.35s-.662498.587499-.9875.7375c-.325001.150001-.562499.25-.7125.3v.05c.266668.033334.554165.116666.8625.25s.595832.345832.8625.6375.487499.670831.6625 1.1375.2625 1.049996.2625 1.75c0 1.050005.079166 2.004162.2375 2.8625s.404165 1.470831.7375 1.8375h-3.35c-.233334-.383335-.370833-.808331-.4125-1.275s-.0625-.916665-.0625-1.35c0-.816671-.049999-1.52083-.15-2.1125-.1-.59167-.283332-1.083331-.55-1.475s-.629164-.679166-1.0875-.8625c-.458335-.183334-1.045829-.275-1.7625-.275h-4.6v7.35h-3.125zm3.125 8.125h5.125c1.000005 0 1.758331-.237498 2.275-.7125.51667-.475002.775-1.187495.775-2.1375 0-.566669-.083332-1.029165-.25-1.3875-.166667-.358335-.395832-.637499-.6875-.8375s-.624998-.333333-1-.4-.762498-.1-1.1625-.1h-5.075zm23.423611 2.125c-.033333-.450002-.129166-.883331-.2875-1.3s-.374999-.779165-.65-1.0875-.608331-.558332-1-.75-.829164-.2875-1.3125-.2875c-.500002 0-.954165.087499-1.3625.2625s-.758332.416665-1.05.725-.524999.670831-.7 1.0875-.270833.866664-.2875 1.35zm-6.65 1.875c0 .500003.070833.983331.2125 1.45s.354165.874998.6375 1.225.641665.629166 1.075.8375c.433336.208334.949997.3125 1.55.3125.833338 0 1.504164-.179165 2.0125-.5375s.887499-.89583 1.1375-1.6125h2.7c-.150001.700004-.408331 1.324997-.775 1.875-.366668.550003-.808331 1.012498-1.325 1.3875s-1.09583.658332-1.7375.85-1.312496.2875-2.0125.2875c-1.016672 0-1.916663-.166665-2.7-.5s-1.445831-.799997-1.9875-1.4-.949999-1.316663-1.225-2.15c-.275001-.833338-.4125-1.749995-.4125-2.75 0-.916671.145832-1.787496.4375-2.6125s.708331-1.549997 1.25-2.175 1.19583-1.120832 1.9625-1.4875c.766671-.366668 1.633329-.55 2.6-.55 1.016672 0 1.929163.212498 2.7375.6375s1.479164.987496 2.0125 1.6875c.533336.700003.920832 1.504162 1.1625 2.4125s.304167 1.845829.1875 2.8125zm14.298611 1.575c.083334.833337.399997 1.416665.95 1.75s1.208329.5 1.975.5c.266668 0 .570831-.020833.9125-.0625.341668-.041667.662498-.120833.9625-.2375.300001-.116667.545832-.287499.7375-.5125.191667-.225001.279167-.520832.2625-.8875-.016667-.366669-.149999-.666665-.4-.9s-.570832-.420833-.9625-.5625c-.391669-.141667-.837498-.262499-1.3375-.3625-.500003-.1-1.008331-.208333-1.525-.325-.533336-.116667-1.045831-.258332-1.5375-.425-.491669-.166667-.933332-.391665-1.325-.675-.391669-.283335-.704166-.645831-.9375-1.0875-.233335-.441669-.35-.987497-.35-1.6375 0-.700004.170831-1.287498.5125-1.7625.341668-.475002.774997-.858332 1.3-1.15.525002-.291668 1.10833-.495833 1.75-.6125s1.254164-.175 1.8375-.175c.66667 0 1.304163.070833 1.9125.2125.608336.141667 1.158331.370832 1.65.6875s.899998.729164 1.225 1.2375c.325001.508336.529166 1.12083.6125 1.8375h-2.975c-.133334-.683337-.445831-1.141665-.9375-1.375s-1.054164-.35-1.6875-.35c-.200001 0-.437499.016667-.7125.05-.275002.033334-.533332.095833-.775.1875s-.445833.224999-.6125.4c-.166668.175001-.25.404165-.25.6875 0 .350002.120832.633332.3625.85s.558331.395833.95.5375c.391668.141667.837497.262499 1.3375.3625.500002.100001 1.016664.208333 1.55.325.516669.116667 1.024997.258332 1.525.425.500002.166667.945831.391665 1.3375.675.391668.283335.708332.641665.95 1.075.241668.433336.3625.966663.3625 1.6 0 .766671-.174998 1.416664-.525 1.95s-.804164.966665-1.3625 1.3-1.179163.574999-1.8625.725-1.35833.225-2.025.225c-.816671 0-1.57083-.091666-2.2625-.275s-1.291664-.462498-1.8-.8375-.908332-.841664-1.2-1.4-.445833-1.22083-.4625-1.9875zm9.998611-8.775h2.15v-3.875h2.85v3.875h2.575v2.125h-2.575v6.9c0 .300002.012499.558332.0375.775.025.216668.083332.399999.175.55.091667.150001.229165.2625.4125.3375.183334.075.433331.1125.75.1125.200001 0 .399999-.004167.6-.0125s.399999-.0375.6-.0875v2.2c-.316669.033333-.624999.066667-.925.1-.300002.033334-.608332.05-.925.05-.750004 0-1.354165-.070833-1.8125-.2125-.458336-.141667-.816666-.349999-1.075-.625-.258335-.275001-.433333-.620831-.525-1.0375-.091668-.416669-.145834-.891664-.1625-1.425v-7.625h-2.15zm20.92361 10.05c0 .350002.045833.599999.1375.75s.270832.225.5375.225h.3c.116668 0 .25-.016667.4-.05v1.975c-.1.033334-.229166.070833-.3875.1125s-.320832.079166-.4875.1125c-.166667.033334-.333332.058333-.5.075-.166667.016667-.308332.025-.425.025-.583336 0-1.066664-.116665-1.45-.35-.383335-.233335-.633332-.641664-.75-1.225-.566669.550003-1.262496.949999-2.0875 1.2s-1.620829.375-2.3875.375c-.583336 0-1.141664-.079166-1.675-.2375s-1.004164-.391665-1.4125-.7c-.408335-.308335-.733332-.699998-.975-1.175s-.3625-1.029164-.3625-1.6625c0-.800004.145832-1.449998.4375-1.95s.674998-.891665 1.15-1.175c.475003-.283335 1.008331-.487499 1.6-.6125.59167-.125001 1.187497-.220833 1.7875-.2875.51667-.100001 1.008331-.170833 1.475-.2125s.879165-.112499 1.2375-.2125.641666-.254166.85-.4625c.208335-.208334.3125-.520831.3125-.9375 0-.366668-.087499-.666665-.2625-.9s-.391665-.412499-.65-.5375c-.258334-.125001-.545831-.208333-.8625-.25-.316668-.041667-.616665-.0625-.9-.0625-.800004 0-1.45833.166665-1.975.5-.516669.333335-.808333.849996-.875 1.55h-2.85c.050001-.833337.249999-1.524997.6-2.075.350002-.550003.795831-.991665 1.3375-1.325.54167-.333335 1.154164-.566666 1.8375-.7.683337-.133334 1.38333-.2 2.1-.2.633337 0 1.258331.066666 1.875.2.61667.133334 1.170831.349998 1.6625.65.491669.300001.887499.687498 1.1875 1.1625.300002.475002.45 1.054163.45 1.7375zm-2.85-3.6c-.433335.283335-.966663.454166-1.6.5125-.633336.058334-1.266663.145833-1.9.2625-.300001.05-.591665.120833-.875.2125-.283334.091667-.533332.216666-.75.375-.216667.158334-.387499.366665-.5125.625-.125.258335-.1875.570831-.1875.9375 0 .316668.091666.583332.275.8.183335.216668.404166.387499.6625.5125.258335.125001.541665.2125.85.2625s.587499.075.8375.075c.316669 0 .658332-.041666 1.025-.125.366669-.083334.712499-.224999 1.0375-.425.325002-.200001.595833-.454165.8125-.7625.216668-.308335.325-.687498.325-1.1375zm17.748611 6.475h-2.8v-1.8h-.05c-.350002.650003-.87083 1.170831-1.5625 1.5625s-1.39583.5875-2.1125.5875c-1.700008 0-2.929163-.420829-3.6875-1.2625s-1.1375-2.112491-1.1375-3.8125v-8.2h2.85v7.925c0 1.133339.216665 1.933331.65 2.4.433336.466669 1.041663.7 1.825.7.600003 0 1.099998-.091666 1.5-.275s.724999-.429165.975-.7375.429166-.679164.5375-1.1125c.108334-.433335.1625-.899998.1625-1.4v-7.5h2.85zm3.473611-12.925h2.675v2.5h.05c.083334-.350002.245832-.691665.4875-1.025s.533331-.637499.875-.9125c.341668-.275001.720831-.495833 1.1375-.6625s.841664-.25 1.275-.25c.333335 0 .562499.008333.6875.025.125.016667.254166.033333.3875.05v2.75c-.200001-.033334-.404166-.0625-.6125-.0875-.208335-.025-.412499-.0375-.6125-.0375-.483336 0-.937498.095832-1.3625.2875s-.795832.474998-1.1125.85-.566666.837497-.75 1.3875-.275 1.18333-.275 1.9v6.15h-2.85zm20.098611 10.05c0 .350002.045832.599999.1375.75.091667.150001.270832.225.5375.225h.3c.116667 0 .249999-.016667.4-.05v1.975c-.100001.033334-.229166.070833-.3875.1125-.158335.041667-.320833.079166-.4875.1125-.166668.033334-.333333.058333-.5.075-.166668.016667-.308333.025-.425.025-.583337 0-1.066665-.116665-1.45-.35-.383336-.233335-.633333-.641664-.75-1.225-.56667.550003-1.262496.949999-2.0875 1.2-.825005.250001-1.62083.375-2.3875.375-.583337 0-1.141664-.079166-1.675-.2375s-1.004165-.391665-1.4125-.7c-.408336-.308335-.733333-.699998-.975-1.175-.241668-.475002-.3625-1.029164-.3625-1.6625 0-.800004.145831-1.449998.4375-1.95.291668-.500002.674997-.891665 1.15-1.175.475002-.283335 1.00833-.487499 1.6-.6125.591669-.125001 1.187497-.220833 1.7875-.2875.516669-.100001 1.008331-.170833 1.475-.2125s.879164-.112499 1.2375-.2125c.358335-.100001.641665-.254166.85-.4625.208334-.208334.3125-.520831.3125-.9375 0-.366668-.0875-.666665-.2625-.9-.175001-.233335-.391666-.412499-.65-.5375-.258335-.125001-.545832-.208333-.8625-.25-.316669-.041667-.616666-.0625-.9-.0625-.800004 0-1.458331.166665-1.975.5-.51667.333335-.808333.849996-.875 1.55h-2.85c.05-.833337.249998-1.524997.6-2.075.350001-.550003.79583-.991665 1.3375-1.325.541669-.333335 1.154163-.566666 1.8375-.7.683336-.133334 1.383329-.2 2.1-.2.633336 0 1.25833.066666 1.875.2.616669.133334 1.17083.349998 1.6625.65.491669.300001.887498.687498 1.1875 1.1625.300001.475002.45 1.054163.45 1.7375zm-2.85-3.6c-.433336.283335-.966664.454166-1.6.5125-.633337.058334-1.266664.145833-1.9.2625-.300002.05-.591666.120833-.875.2125-.283335.091667-.533333.216666-.75.375-.216668.158334-.3875.366665-.5125.625-.125001.258335-.1875.570831-.1875.9375 0 .316668.091665.583332.275.8.183334.216668.404165.387499.6625.5125.258334.125001.541665.2125.85.2625.308334.05.587498.075.8375.075.316668 0 .658331-.041666 1.025-.125.366668-.083334.712498-.224999 1.0375-.425.325001-.200001.595832-.454165.8125-.7625.216667-.308335.325-.687498.325-1.1375zm6.39861-6.45h2.7v1.9l.05.05c.433336-.71667.999997-1.279165 1.7-1.6875.700004-.408335 1.474996-.6125 2.325-.6125 1.416674 0 2.53333.366663 3.35 1.1.816671.733337 1.225 1.833326 1.225 3.3v8.875h-2.85v-8.125c-.033333-1.016672-.249998-1.754164-.65-2.2125s-1.024995-.6875-1.875-.6875c-.483335 0-.916664.087499-1.3.2625-.383335.175001-.708332.416665-.975.725s-.474999.670831-.625 1.0875c-.15.416669-.225.858331-.225 1.325v7.625h-2.85zm13.523611 0h2.15v-3.875h2.85v3.875h2.575v2.125h-2.575v6.9c0 .300002.0125.558332.0375.775s.083333.399999.175.55.229166.2625.4125.3375.433332.1125.75.1125c.200001 0 .399999-.004167.6-.0125s.399999-.0375.6-.0875v2.2c-.316668.033333-.624998.066667-.925.1-.300001.033334-.608332.05-.925.05-.750004 0-1.354164-.070833-1.8125-.2125-.458335-.141667-.816665-.349999-1.075-.625-.258334-.275001-.433333-.620831-.525-1.0375s-.145833-.891664-.1625-1.425v-7.625h-2.15z" transform="translate(-108 -265)"/></svg>