<?xml version="1.0" encoding="UTF-8"?>
<svg width="771px" height="437px" viewBox="0 0 771 437" version="1.1" xmlns="http://www.w3.org/2000/svg" xmlns:xlink="http://www.w3.org/1999/xlink">
    <!-- Generator: Sketch 53.2 (72643) - https://sketchapp.com -->
    <title>createprofile</title>
    <desc>Created with Sketch.</desc>
    <defs>
        <linearGradient x1="37.9549028%" y1="101.734476%" x2="62.04522%" y2="-1.73827221%" id="linearGradient-1">
            <stop stop-color="#808080" stop-opacity="0.25" offset="0%"></stop>
            <stop stop-color="#808080" stop-opacity="0.12" offset="54%"></stop>
            <stop stop-color="#808080" stop-opacity="0.1" offset="100%"></stop>
        </linearGradient>
        <linearGradient x1="50.0025296%" y1="99.9998003%" x2="50.0025296%" y2="-0.00102386172%" id="linearGradient-2">
            <stop stop-color="#808080" stop-opacity="0.25" offset="0%"></stop>
            <stop stop-color="#808080" stop-opacity="0.12" offset="54%"></stop>
            <stop stop-color="#808080" stop-opacity="0.1" offset="100%"></stop>
        </linearGradient>
        <linearGradient x1="62.1964243%" y1="101.590723%" x2="37.9653772%" y2="-1.77537439%" id="linearGradient-3">
            <stop stop-color="#808080" stop-opacity="0.25" offset="0%"></stop>
            <stop stop-color="#808080" stop-opacity="0.12" offset="54%"></stop>
            <stop stop-color="#808080" stop-opacity="0.1" offset="100%"></stop>
        </linearGradient>
        <linearGradient x1="49.9974704%" y1="99.9998003%" x2="49.9974704%" y2="-0.00102386172%" id="linearGradient-4">
            <stop stop-color="#808080" stop-opacity="0.25" offset="0%"></stop>
            <stop stop-color="#808080" stop-opacity="0.12" offset="54%"></stop>
            <stop stop-color="#808080" stop-opacity="0.1" offset="100%"></stop>
        </linearGradient>
        <linearGradient x1="38.9387408%" y1="102.226107%" x2="63.1689362%" y2="-1.13999013%" id="linearGradient-5">
            <stop stop-color="#808080" stop-opacity="0.25" offset="0%"></stop>
            <stop stop-color="#808080" stop-opacity="0.12" offset="54%"></stop>
            <stop stop-color="#808080" stop-opacity="0.1" offset="100%"></stop>
        </linearGradient>
        <path d="M258.075882,170.5 L219.415779,170.5 L215.807503,185.836657 C215.807503,185.836657 213.690041,192.938632 216.312863,196.061095 C218.935686,199.183559 243.57708,206.285533 261.674051,196.562293 C263.248332,192.471777 263.425865,187.981968 262.179412,183.781746 C260.11754,176.624639 261.674051,183.280548 261.674051,183.280548 L258.075882,170.5 Z" id="path-6"></path>
        <filter x="-12.5%" y="-19.4%" width="125.0%" height="138.7%" filterUnits="objectBoundingBox" id="filter-7">
            <feOffset dx="0" dy="0" in="SourceAlpha" result="shadowOffsetOuter1"></feOffset>
            <feGaussianBlur stdDeviation="2" in="shadowOffsetOuter1" result="shadowBlurOuter1"></feGaussianBlur>
            <feColorMatrix values="0 0 0 0 0   0 0 0 0 0   0 0 0 0 0  0 0 0 0.5 0" type="matrix" in="shadowBlurOuter1"></feColorMatrix>
        </filter>
    </defs>
    <g id="Page-1" stroke="none" stroke-width="1" fill="none" fill-rule="evenodd">
        <g id="createprofile" fill-rule="nonzero">
            <g id="BG">
                <g id="Group-21" transform="translate(0.000000, -0.000000)">
                    <polygon id="Path" fill="#FBFDFE" points="771 1.13686838e-13 0 1.13686838e-13 0 437 771 437"></polygon>
                    <g id="undraw_swipe_profiles1_i6mr" transform="translate(148.000000, 22.000000)">
                        <g id="Group" opacity="0.5" transform="translate(294.000000, 0.500000)" fill="url(#linearGradient-1)">
                            <path d="M174.23232,0.00503840246 L7.06381215,0.413149002 C5.24237428,0.417153405 3.49712559,1.14611061 2.21200311,2.43965742 C0.926880635,3.73320423 0.207155599,5.48537934 0.211160221,7.31072197 L0.94519337,320.638894 C0.950500171,322.468624 1.682628,324.220923 2.97979755,325.508583 C4.27696711,326.796243 6.03239316,327.513261 7.8581768,327.501198 L175.026685,327.093088 C176.848123,327.089083 178.593372,326.360126 179.878494,325.066579 C181.163617,323.773032 181.883342,322.020857 181.879337,320.195515 L181.120166,6.86230415 C181.106306,3.06319102 178.023316,-0.00611184468 174.23232,0.00503840246 Z" id="Path"></path>
                        </g>
                        <path d="M310.528623,5.46800249 L459.414,5.46800249 C466.947164,5.46800249 473.054,11.5748385 473.054,19.1080025 L473.054,309.841605 C473.054,317.374769 466.947164,323.481605 459.414,323.481605 L310.528623,323.481605 C302.995459,323.481605 296.888623,317.374769 296.888623,309.841605 L296.888623,19.1080025 C296.888623,11.5748385 302.995459,5.46800249 310.528623,5.46800249 Z" id="Rectangle" fill="#FFFFFF" transform="translate(384.971312, 164.474804) rotate(-0.140000) translate(-384.971312, -164.474804) "></path>
                        <path d="M428.842151,13.580415 C427.807447,20.5399139 421.846626,25.7054624 414.804012,25.7456343 L353.97375,25.8863308 C346.936901,25.8737414 340.959001,20.7399034 339.890342,13.7914597 L307.674546,13.8718577 C305.900348,13.8758513 304.200404,14.5837925 302.948686,15.8399415 C301.696968,17.0960906 300.996011,18.7975495 301.000017,20.5700144 L301.699158,308.831945 C301.703151,310.606157 302.413166,312.305967 303.672722,313.556751 C304.932277,314.807535 306.637987,315.506627 308.413925,315.499953 L462.325454,315.128112 C464.099652,315.124118 465.799596,314.416177 467.051314,313.160028 C468.303032,311.903879 469.003989,310.20242 468.999983,308.429955 L468.300842,20.1680245 C468.296845,18.3955595 467.588211,16.6972771 466.330834,15.4467821 C465.073456,14.1962872 463.370333,13.4960145 461.596134,13.5000171 L428.842151,13.580415 Z" id="03400db2-955d-4119-b6c0-e63250e8f2de" fill="#000000" opacity="0.3"></path>
                        <g id="Group" opacity="0.5" transform="translate(335.000000, 35.500000)" fill="url(#linearGradient-2)">
                            <path d="M102.688488,51.3693659 C102.685568,26.9389899 85.4384518,5.9071917 61.4816624,1.12017573 C37.524873,-3.66684024 13.5197607,9.12198869 4.12862762,31.6752567 C-5.26250547,54.2285248 2.57160977,80.2751407 22.8459024,93.9058537 L22.8760488,94.1319512 C24.5502617,95.7367924 26.5261119,96.9936858 28.6892683,97.8299024 L28.7545854,97.6038049 C31.1512195,99.6638049 41.2552683,102.959805 52.8716585,102.929659 L53.122878,102.929659 C60.4785854,102.929659 68.4573171,101.633366 75.4763902,97.8349268 C75.4763902,97.8349268 75.5366829,97.6992683 75.6321463,97.4480488 C77.4110269,96.6117307 79.0431888,95.4936489 80.4656098,94.1369756 C80.4924065,93.9426992 80.5192033,93.7484228 80.546,93.5541463 C94.4189551,83.9930155 102.699186,68.2179264 102.688488,51.3693659 L102.688488,51.3693659 Z" id="Path"></path>
                        </g>
                        <circle id="Oval" fill="#F5F5F5" cx="386" cy="87.5" r="50"></circle>
                        <path d="M364.616682,17.272242 L401.418362,17.272184 C402.096494,17.272183 402.64623,17.8219169 402.646231,18.5000491 C402.646231,18.5000501 402.646231,18.500051 402.646231,18.500052 L402.646231,18.500052 C402.64623,19.1781863 402.096494,19.7279228 401.41836,19.7279239 L364.61668,19.7279819 C363.938548,19.727983 363.388812,19.1782491 363.388811,18.5001168 C363.388811,18.5001159 363.388811,18.5001149 363.388811,18.5001139 L363.388811,18.5001139 C363.388812,17.8219796 363.938548,17.2722431 364.616682,17.272242 Z" id="Rectangle" fill="#DBDBDB" transform="translate(383.017521, 18.500083) rotate(-0.860000) translate(-383.017521, -18.500083) "></path>
                        <ellipse id="Oval" fill="#DBDBDB" transform="translate(410.985679, 17.833779) rotate(-0.860000) translate(-410.985679, -17.833779) " cx="410.985679" cy="17.8337791" rx="1.47429179" ry="1.47445158"></ellipse>
                        <rect id="Rectangle" fill="#F5F5F5" x="342" y="156.5" width="82" height="9"></rect>
                        <rect id="Rectangle" fill="#F5F5F5" x="324" y="175.5" width="118" height="9"></rect>
                        <g id="Group" opacity="0.5" transform="translate(0.000000, 0.500000)" fill="url(#linearGradient-3)">
                            <path d="M7.64701658,0.00503840246 L174.815525,0.413149002 C176.636963,0.417153405 178.382211,1.14611061 179.667334,2.43965742 C180.952456,3.73320423 181.672181,5.48537934 181.668177,7.31072197 L180.934144,320.638894 C180.928837,322.468624 180.196709,324.220923 178.899539,325.508583 C177.60237,326.796243 175.846944,327.513261 174.02116,327.501198 L6.85265193,327.093088 C5.03121406,327.089083 3.28596537,326.360126 2.00084289,325.066579 C0.715720414,323.773032 -0.00400462174,322.020857 4.6855546e-10,320.195515 L0.759171271,6.86230415 C0.773031266,3.06319102 3.8560215,-0.00611184468 7.64701658,0.00503840246 Z" id="Path"></path>
                        </g>
                        <path d="M16.4670855,5.46815209 L165.352462,5.46815209 C172.885626,5.46815209 178.992462,11.5749881 178.992462,19.1081521 L178.992462,309.841754 C178.992462,317.374918 172.885626,323.481754 165.352462,323.481754 L16.4670855,323.481754 C8.9339215,323.481754 2.82708548,317.374918 2.82708548,309.841754 L2.82708548,19.1081521 C2.82708548,11.5749881 8.9339215,5.46815209 16.4670855,5.46815209 Z" id="Rectangle" fill="#FFFFFF" transform="translate(90.909774, 164.474953) rotate(-179.860000) translate(-90.909774, -164.474953) "></path>
                        <path d="M47.1590508,13.580415 C48.1937866,20.5399143 54.1547858,25.7054631 61.1976109,25.745635 L122.024664,25.8913564 C129.061723,25.8787669 135.039803,20.7449286 136.108494,13.7964846 L168.325254,13.8768826 C170.099505,13.8808761 171.7995,14.5888174 173.051255,15.8449665 C174.303011,17.1011156 175.00399,18.8025746 174.999983,20.5750397 L174.300821,308.836987 C174.295493,310.609453 173.58556,312.307208 172.327201,313.556761 C171.068841,314.806315 169.365135,315.505308 167.590883,315.49997 L13.6747463,315.128129 C11.9004946,315.124135 10.2005001,314.416194 8.94874459,313.160045 C7.69698908,311.903896 6.9960105,310.202437 7.00001708,308.429972 L7.69917862,20.1680249 C7.70317617,18.3955598 8.41183108,16.6972772 9.66924637,15.4467822 C10.9266617,14.1962872 12.6298357,13.4960145 14.4040874,13.5000171 L47.1590508,13.580415 Z" id="630d207c-7e3b-460e-9d0a-7242eec8ea7a" fill="#000000" opacity="0.3"></path>
                        <g id="Group" opacity="0.5" transform="translate(38.000000, 35.500000)" fill="url(#linearGradient-4)">
                            <path d="M0.190926829,51.3693659 C0.193846387,26.9389899 17.4409629,5.9071917 41.3977523,1.12017573 C65.3545417,-3.66684024 89.3596539,9.12198869 98.750787,31.6752567 C108.14192,54.2285248 100.307805,80.2751407 80.0335122,93.9058537 L80.0033659,94.1319512 C78.329153,95.7367924 76.3533028,96.9936858 74.1901463,97.8299024 L74.1248293,97.6038049 C71.7281951,99.6638049 61.6241463,102.959805 50.0077561,102.929659 L49.7565366,102.929659 C42.4008293,102.929659 34.4220976,101.633366 27.4030244,97.8349268 C27.4030244,97.8349268 27.3427317,97.6992683 27.2472683,97.4480488 C25.4683877,96.6117307 23.8362259,95.4936489 22.4138049,94.1369756 C22.3870081,93.9426992 22.3602114,93.7484228 22.3334146,93.5541463 C8.4604595,83.9930155 0.180228719,68.2179264 0.190926829,51.3693659 Z" id="Path"></path>
                        </g>
                        <circle id="Oval" fill="#F5F5F5" cx="90" cy="87.5" r="50"></circle>
                        <path d="M74.4555203,17.2657763 L111.2572,17.2658343 C111.935334,17.2658354 112.485071,17.8155718 112.485071,18.4937062 L112.485071,18.4937062 C112.485072,19.1718384 111.935337,19.7215736 111.257205,19.7215742 C111.257204,19.7215742 111.257203,19.7215742 111.257202,19.7215742 L74.4555223,19.7215161 C73.777388,19.7215151 73.2276519,19.1717786 73.2276514,18.4936443 L73.2276514,18.4936443 C73.2276508,17.8155121 73.7773852,17.2657768 74.4555174,17.2657763 C74.4555184,17.2657763 74.4555194,17.2657763 74.4555203,17.2657763 Z" id="Rectangle" fill="#DBDBDB" transform="translate(92.856361, 18.493675) rotate(-179.140000) translate(-92.856361, -18.493675) "></path>
                        <ellipse id="Oval" fill="#DBDBDB" transform="translate(64.890404, 17.825879) rotate(-89.140000) translate(-64.890404, -17.825879) " cx="64.8904042" cy="17.8258787" rx="1.47445158" ry="1.47429179"></ellipse>
                        <rect id="Rectangle" fill="#F5F5F5" transform="translate(93.000000, 161.000000) rotate(-180.000000) translate(-93.000000, -161.000000) " x="52" y="156.5" width="82" height="9"></rect>
                        <rect id="Rectangle" fill="#F5F5F5" transform="translate(93.000000, 180.000000) rotate(-180.000000) translate(-93.000000, -180.000000) " x="34" y="175.5" width="118" height="9"></rect>
                        <g id="Group" opacity="0.5" transform="translate(146.000000, 63.500000)" fill="url(#linearGradient-5)">
                            <path d="M174.23232,0.00503840246 L7.06381215,0.413149002 C5.24237428,0.417153405 3.49712559,1.14611061 2.21200311,2.43965742 C0.926880635,3.73320423 0.207155599,5.48537934 0.211160221,7.31072197 L0.94519337,320.638894 C0.950500171,322.468624 1.682628,324.220923 2.97979755,325.508583 C4.27696711,326.796243 6.03239316,327.513261 7.8581768,327.501198 L175.026685,327.093088 C176.848123,327.089083 178.593372,326.360126 179.878494,325.066579 C181.163617,323.773032 181.883342,322.020857 181.879337,320.195515 L181.120166,6.86230415 C181.106306,3.06319102 178.023316,-0.00611184468 174.23232,0.00503840246 L174.23232,0.00503840246 Z" id="Path"></path>
                        </g>
                        <path d="M163.101392,67.870802 L311.986769,67.870802 C319.519933,67.870802 325.626769,73.977638 325.626769,81.510802 L325.626769,372.244404 C325.626769,379.777568 319.519933,385.884404 311.986769,385.884404 L163.101392,385.884404 C155.568228,385.884404 149.461392,379.777568 149.461392,372.244404 L149.461392,81.510802 C149.461392,73.977638 155.568228,67.870802 163.101392,67.870802 Z" id="Rectangle" fill="#FFFFFF" transform="translate(237.544080, 226.877603) rotate(-0.140000) translate(-237.544080, -226.877603) "></path>
                        <path d="M281.842151,75.580415 C280.807447,82.5399139 274.846626,87.7054624 267.804012,87.7456343 L206.97375,87.8863308 C199.936901,87.8737414 193.959001,82.7399034 192.890342,75.7914597 L160.674546,75.8718577 C158.900348,75.8758513 157.200404,76.5837925 155.948686,77.8399415 C154.696968,79.0960906 153.996011,80.7975495 154.000017,82.5700144 L154.699158,370.831945 C154.703151,372.606157 155.413166,374.305967 156.672722,375.556751 C157.932277,376.807535 159.637987,377.506627 161.413925,377.499953 L315.325454,377.128112 C317.099652,377.124118 318.799596,376.416177 320.051314,375.160028 C321.303032,373.903879 322.003989,372.20242 321.999983,370.429955 L321.300842,82.1680245 C321.296845,80.3955595 320.588211,78.6972771 319.330834,77.4467821 C318.073456,76.1962872 316.370333,75.4960145 314.596134,75.5000171 L281.842151,75.580415 Z" id="e707708a-3328-453c-98e2-ff60f305110c" fill="#000000" opacity="0.4"></path>
                        <g id="Group" opacity="0.5" transform="translate(187.000000, 98.500000)" fill="url(#linearGradient-2)">
                            <path d="M102.688488,51.3693659 C102.685568,26.9389899 85.4384518,5.9071917 61.4816624,1.12017573 C37.524873,-3.66684024 13.5197607,9.12198869 4.12862762,31.6752567 C-5.26250547,54.2285248 2.57160977,80.2751407 22.8459024,93.9058537 L22.8760488,94.1319512 C24.5502617,95.7367924 26.5261119,96.9936858 28.6892683,97.8299024 L28.7545854,97.6038049 C31.1512195,99.6638049 41.2552683,102.959805 52.8716585,102.929659 L53.122878,102.929659 C60.4785854,102.929659 68.4573171,101.633366 75.4763902,97.8349268 C75.4763902,97.8349268 75.5366829,97.6992683 75.6321463,97.4480488 C77.4110269,96.6117307 79.0431888,95.4936489 80.4656098,94.1369756 C80.4924065,93.9426992 80.5192033,93.7484228 80.546,93.5541463 C94.4189551,83.9930155 102.699186,68.2179264 102.688488,51.3693659 Z" id="Path"></path>
                        </g>
                        <circle id="Oval" fill="#F5F5F5" cx="239" cy="149.5" r="50"></circle>
                        <path d="M217.184565,79.6690956 L253.986245,79.6690376 C254.664377,79.6690365 255.214113,80.2187704 255.214114,80.8969027 C255.214114,80.8969036 255.214114,80.8969046 255.214114,80.8969056 L255.214114,80.8969056 C255.214113,81.5750399 254.664377,82.1247764 253.986243,82.1247775 L217.184563,82.1248355 C216.506431,82.1248366 215.956695,81.5751026 215.956694,80.8969704 C215.956694,80.8969694 215.956694,80.8969685 215.956694,80.8969675 L215.956694,80.8969675 C215.956695,80.2188332 216.506431,79.6690967 217.184565,79.6690956 Z" id="Rectangle" fill="#DBDBDB" transform="translate(235.585404, 80.896937) rotate(-0.860000) translate(-235.585404, -80.896937) "></path>
                        <ellipse id="Oval" fill="#DBDBDB" transform="translate(263.553562, 80.230633) rotate(-0.860000) translate(-263.553562, -80.230633) " cx="263.553562" cy="80.2306327" rx="1.47429179" ry="1.47445158"></ellipse>
                        <rect id="Rectangle" fill="#F5F5F5" x="195" y="219.5" width="82" height="9"></rect>
                        <rect id="Rectangle" fill="#F5F5F5" x="177" y="237.5" width="118" height="9"></rect>
                        <path d="M219.364052,170.5 C219.364052,170.5 207.361349,171.464629 210.533892,192.931373 C212.179439,194.479822 214.121412,195.692742 216.247525,196.5 L223,174.068627 L219.364052,170.5 Z" id="Path" fill="#FDA57D"></path>
                        <path d="M257.635948,170.5 C257.635948,170.5 269.638651,171.464629 266.466108,192.931373 C264.820561,194.479822 262.878588,195.692742 260.752475,196.5 L254,174.068627 L257.635948,170.5 Z" id="Path" fill="#FDA57D"></path>
                        <path d="M219.733945,134.5 C219.733945,134.5 214.082569,150.74295 211,149.220174 C211,149.220174 240.717575,174.599783 267,149.220174 C267,149.220174 262.376147,141.098698 255.697248,134.5 L219.733945,134.5 Z" id="Path" fill="#333333"></path>
                        <circle id="Oval" fill="#333333" cx="239" cy="133.5" r="22"></circle>
                        <path d="M258.075882,170.5 L219.415779,170.5 L215.807503,185.836657 C215.807503,185.836657 213.690041,192.938632 216.312863,196.061095 C218.935686,199.183559 243.57708,206.285533 261.674051,196.562293 C263.248332,192.471777 263.425865,187.981968 262.179412,183.781746 C260.11754,176.624639 261.674051,183.280548 261.674051,183.280548 L258.075882,170.5 Z" id="Path" fill="#000000" opacity="0.1"></path>
                        <path d="M258.075882,170.5 L219.415779,170.5 L215.807503,185.836657 C215.807503,185.836657 213.690041,192.938632 216.312863,196.061095 C218.935686,199.183559 243.57708,206.285533 261.674051,196.562293 C263.248332,192.471777 263.425865,187.981968 262.179412,183.781746 C260.11754,176.624639 261.674051,183.280548 261.674051,183.280548 L258.075882,170.5 Z" id="Path" fill="#000000" opacity="0.1"></path>
                        <g id="Path">
                            <use fill="black" fill-opacity="1" filter="url(#filter-7)" xlink:href="#path-6"></use>
                            <use fill="#FFFFFF" xlink:href="#path-6"></use>
                        </g>
                        <path d="M232,157.5 L247,157.5 L247,169.801887 C247,174.053437 243.642136,177.5 239.5,177.5 L239.5,177.5 C235.357864,177.5 232,174.053437 232,169.801887 L232,157.5 L232,157.5 Z" id="Path" fill="#000000" opacity="0.1"></path>
                        <path d="M232,156.5 L247,156.5 L247,168.807692 C247,173.056037 243.642136,176.5 239.5,176.5 L239.5,176.5 C235.357864,176.5 232,173.056037 232,168.807692 L232,156.5 L232,156.5 Z" id="Path" fill="#FDA57D"></path>
                        <path d="M232,159.207406 C236.834272,160.918001 242.156345,160.93117 247,159.244524 L247,157.5 L232,157.5 L232,159.207406 Z" id="Path" fill="#000000" opacity="0.1"></path>
                        <circle id="Oval" fill="#FDA57D" cx="239" cy="137.5" r="22"></circle>
                        <path d="M218,129.5 L260,129.5 C260,129.5 256.414634,112.465131 240.536585,113.549673 C224.658537,114.634214 218,129.5 218,129.5 Z" id="Path" fill="#333333"></path>
                        <ellipse id="Oval" fill="#FDA57D" cx="218" cy="136.5" rx="2" ry="4"></ellipse>
                        <ellipse id="Oval" fill="#FDA57D" cx="261" cy="136.5" rx="2" ry="4"></ellipse>
                        <path d="M218,130.5 L260,130.5 C260,130.5 256.414634,113.465131 240.536585,114.549673 C224.658537,115.634214 218,130.5 218,130.5 Z" id="Path" fill="#000000" opacity="0.1"></path>
                        <path d="M364.364052,106.5 C364.364052,106.5 352.361349,107.464629 355.533892,128.931373 C357.179439,130.479822 359.121412,131.692742 361.247525,132.5 L368,110.068627 L364.364052,106.5 Z" id="Path" fill="#4D8AF0"></path>
                        <path d="M402.635948,106.5 C402.635948,106.5 414.638651,107.464629 411.466108,128.931373 C409.820561,130.479822 407.878588,131.692742 405.752475,132.5 L399,110.068627 L402.635948,106.5 Z" id="Path" fill="#4D8AF0"></path>
                        <circle id="Oval" fill="#333333" cx="384" cy="69.5" r="22"></circle>
                        <path d="M403.075882,106.5 L364.415779,106.5 L360.807503,121.836657 C360.807503,121.836657 358.690041,128.938632 361.312863,132.061095 C363.935686,135.183559 388.57708,142.285533 406.674051,132.562293 C408.248332,128.471777 408.425865,123.981968 407.179412,119.781746 C405.11754,112.624639 406.674051,119.280548 406.674051,119.280548 L403.075882,106.5 Z" id="Path" fill="#4D8AF0"></path>
                        <path d="M403.075882,106.5 L364.415779,106.5 L360.807503,121.836657 C360.807503,121.836657 358.690041,128.938632 361.312863,132.061095 C363.935686,135.183559 388.57708,142.285533 406.674051,132.562293 C408.248332,128.471777 408.425865,123.981968 407.179412,119.781746 C405.11754,112.624639 406.674051,119.280548 406.674051,119.280548 L403.075882,106.5 Z" id="Path" fill="#4D8AF0"></path>
                        <path d="M403.075882,106.5 L364.415779,106.5 L360.807503,121.836657 C360.807503,121.836657 358.690041,128.938632 361.312863,132.061095 C363.935686,135.183559 388.57708,142.285533 406.674051,132.562293 C408.248332,128.471777 408.425865,123.981968 407.179412,119.781746 C405.11754,112.624639 406.674051,119.280548 406.674051,119.280548 L403.075882,106.5 Z" id="Path" fill="#4D8AF0"></path>
                        <path d="M377,93.5 L392,93.5 L392,105.801887 C392,110.053437 388.642136,113.5 384.5,113.5 L384.5,113.5 C380.357864,113.5 377,110.053437 377,105.801887 L377,93.5 L377,93.5 Z" id="Path" fill="#000000" opacity="0.1"></path>
                        <path d="M377,93.5 L392,93.5 L392,105.807692 C392,110.056037 388.642136,113.5 384.5,113.5 L384.5,113.5 C380.357864,113.5 377,110.056037 377,105.807692 L377,93.5 L377,93.5 Z" id="Path" fill="#FDB797"></path>
                        <path d="M377,95.2074061 C381.834272,96.9180006 387.156345,96.9311701 392,95.2445236 L392,93.5 L377,93.5 L377,95.2074061 Z" id="Path" fill="#000000" opacity="0.1"></path>
                        <circle id="Oval" fill="#FDB797" cx="384" cy="74.5" r="22"></circle>
                        <path d="M363,66.5 L405,66.5 C405,66.5 401.414634,49.465131 385.536585,50.5496725 C369.658537,51.6342141 363,66.5 363,66.5 Z" id="Path" fill="#000000" opacity="0.1"></path>
                        <path d="M363,66.5 L405,66.5 C405,66.5 401.414634,49.465131 385.536585,50.5496725 C369.658537,51.6342141 363,66.5 363,66.5 Z" id="Path" fill="#333333"></path>
                        <ellipse id="Oval" fill="#FDB797" cx="363" cy="73.5" rx="2" ry="4"></ellipse>
                        <ellipse id="Oval" fill="#FDB797" cx="406" cy="73.5" rx="2" ry="4"></ellipse>
                        <path d="M366.658263,54.8123064 C367.10948,53.1302958 368.106218,51.6471942 369.490955,50.5973899 C370.56577,49.8512085 371.846509,49.4882013 373.082044,49.0546094 C374.90525,48.4015273 376.654458,47.556524 378.300425,46.5337263 C380.168796,45.3791619 381.921649,43.9876344 383.980875,43.2212859 C387.496627,41.905385 391.459382,42.616274 395.115764,43.5590843 C396.02632,43.7519059 396.903168,44.0798612 397.71742,44.5321452 C398.604621,45.148096 399.385109,45.9060298 400.027772,46.7757311 L405.82374,53.8039532 C406.377483,54.420253 406.860963,55.0966768 407.265198,55.8206597 C407.614144,56.5434948 407.836701,57.3211692 407.923146,58.1197051 C408.131136,59.4107746 407.914261,60.7347171 407.305378,61.8909462 C406.300878,63.5698543 404.291877,64.4118293 402.363236,64.4924976 C400.434594,64.5731658 398.526043,63.9883209 396.662695,63.4589355 C390.635692,61.6943173 384.578553,60.0507015 378.355672,59.3146037 C375.265526,58.9320351 372.147245,58.8307874 369.03893,59.0120977 C368.064564,59.0776407 366.773781,59.5162743 366.181125,58.5079211 C365.663808,57.6810714 366.392071,55.6643649 366.658263,54.8123064 Z" id="Path" fill="#333333"></path>
                        <path d="M70.3640518,106.5 C70.3640518,106.5 58.3613489,107.464629 61.5338919,128.931373 C63.1794387,130.479822 65.1214125,131.692742 67.2475248,132.5 L74,110.068627 L70.3640518,106.5 Z" id="Path" fill="#BE7C5E"></path>
                        <path d="M108.635948,106.5 C108.635948,106.5 120.638651,107.464629 117.466108,128.931373 C115.820561,130.479822 113.878588,131.692742 111.752475,132.5 L105,110.068627 L108.635948,106.5 Z" id="Path" fill="#BE7C5E"></path>
                        <path d="M70.230568,70.5 C70.230568,70.5 69.3189067,73.1326278 68.0244484,76.1790967 C65.198802,82.8454288 68.4223558,108.443745 75.1867821,111.171108 C82.7722072,114.232535 92.7551505,116.192047 103.120891,112.452519 C112.131731,109.201623 114.907009,80.0432757 108.540491,72.9680886 C107.795044,72.1354203 107.02945,71.3077381 106.198377,70.504986 L70.230568,70.5 Z" id="Path" fill="#333333"></path>
                        <circle id="Oval" fill="#333333" cx="90" cy="69.5" r="22"></circle>
                        <path d="M109.075882,106.5 L70.4157789,106.5 L66.8075026,121.836657 C66.8075026,121.836657 64.6900408,128.938632 67.3128634,132.061095 C69.9356861,135.183559 94.57708,142.285533 112.674051,132.562293 C114.248332,128.471777 114.425865,123.981968 113.179412,119.781746 C111.11754,112.624639 112.674051,119.280548 112.674051,119.280548 L109.075882,106.5 Z" id="Path" fill="#000000" opacity="0.1"></path>
                        <path d="M109.075882,106.5 L70.4157789,106.5 L66.8075026,121.836657 C66.8075026,121.836657 64.6900408,128.938632 67.3128634,132.061095 C69.9356861,135.183559 94.57708,142.285533 112.674051,132.562293 C114.248332,128.471777 114.425865,123.981968 113.179412,119.781746 C111.11754,112.624639 112.674051,119.280548 112.674051,119.280548 L109.075882,106.5 Z" id="Path" fill="#000000" opacity="0.1"></path>
                        <path d="M109.075882,106.5 L70.4157789,106.5 L66.8075026,121.836657 C66.8075026,121.836657 64.6900408,128.938632 67.3128634,132.061095 C69.9356861,135.183559 94.57708,142.285533 112.674051,132.562293 C114.248332,128.471777 114.425865,123.981968 113.179412,119.781746 C111.11754,112.624639 112.674051,119.280548 112.674051,119.280548 L109.075882,106.5 Z" id="Path" fill="#F55F44"></path>
                        <path d="M82,93.5 L97,93.5 L97,105.801887 C97,107.843553 96.2098237,109.801599 94.8033009,111.245275 C93.396778,112.688951 91.4891237,113.5 89.5,113.5 L89.5,113.5 C85.3578644,113.5 82,110.053437 82,105.801887 L82,93.5 L82,93.5 Z" id="Path" fill="#000000" opacity="0.1"></path>
                        <path d="M82,92.5 L97,92.5 L97,104.807692 C97,106.847819 96.2098237,108.804388 94.8033009,110.246975 C93.396778,111.689563 91.4891237,112.5 89.5,112.5 L89.5,112.5 C85.3578644,112.5 82,109.056037 82,104.807692 L82,92.5 L82,92.5 Z" id="Path" fill="#BE7C5E"></path>
                        <path d="M82,95.2074061 C86.8342716,96.9180006 92.1563446,96.9311701 97,95.2445236 L97,93.5 L82,93.5 L82,95.2074061 Z" id="Path" fill="#000000" opacity="0.1"></path>
                        <circle id="Oval" fill="#BE7C5E" cx="90" cy="73.5" r="22"></circle>
                        <path d="M69,65.5 L111,65.5 C111,65.5 107.414634,48.465131 91.5365854,49.5496725 C75.6585366,50.6342141 69,65.5 69,65.5 Z" id="Path" fill="#333333"></path>
                        <ellipse id="Oval" fill="#BE7C5E" cx="68" cy="73.5" rx="2" ry="4"></ellipse>
                        <ellipse id="Oval" fill="#BE7C5E" cx="111" cy="73.5" rx="2" ry="4"></ellipse>
                        <path d="M69,66.5 L111,66.5 C111,66.5 107.414634,49.465131 91.5365854,50.5496725 C75.6585366,51.6342141 69,66.5 69,66.5 Z" id="Path" fill="#000000" opacity="0.1"></path>
                    </g>
                </g>
            </g>
        </g>
    </g>
</svg>