<svg height="437" viewBox="0 0 771 437" width="771" xmlns="http://www.w3.org/2000/svg" xmlns:xlink="http://www.w3.org/1999/xlink"><defs><linearGradient id="a"><stop offset="0" stop-color="#808080" stop-opacity=".25"/><stop offset=".54" stop-color="#808080" stop-opacity=".12"/><stop offset="1" stop-color="#808080" stop-opacity=".1"/></linearGradient><linearGradient id="b" x1="37.954903%" x2="62.04522%" xlink:href="#a" y1="101.734476%" y2="-1.738272%"/><linearGradient id="c" x1="50.00253%" x2="50.00253%" xlink:href="#a" y1="99.9998%" y2="-.001024%"/><linearGradient id="d" x1="62.196424%" x2="37.965377%" xlink:href="#a" y1="101.590723%" y2="-1.775374%"/><linearGradient id="e" x1="49.99747%" x2="49.99747%" xlink:href="#a" y1="99.9998%" y2="-.001024%"/><linearGradient id="f" x1="38.938741%" x2="63.168936%" xlink:href="#a" y1="102.226107%" y2="-1.13999%"/><path id="g" d="m258.075882 170.5h-38.660103l-3.608276 15.336657s-2.117462 7.101975.50536 10.224438c2.622823 3.122464 27.264217 10.224438 45.361188.501198 1.574281-4.090516 1.751814-8.580325.505361-12.780547-2.061872-7.157107-.505361-.501198-.505361-.501198z"/><filter id="h" height="138.7%" width="125%" x="-12.5%" y="-19.4%"><feOffset dx="0" dy="0" in="SourceAlpha" result="shadowOffsetOuter1"/><feGaussianBlur in="shadowOffsetOuter1" result="shadowBlurOuter1" stdDeviation="2"/><feColorMatrix in="shadowBlurOuter1" type="matrix" values="0 0 0 0 0   0 0 0 0 0   0 0 0 0 0  0 0 0 0.5 0"/></filter></defs><g fill="none"><path d="m771 0h-771v437h771z" fill="#fbfdfe"/><g transform="translate(148 22)"><path d="m174.23232.0050384-167.16850785.4081106c-1.82143787.00400441-3.56668656.73296161-4.85180904 2.02650842-1.28512247 1.29354681-2.00484751 3.04572192-2.00084289 4.87106455l.73403315 313.32817203c.0053068 1.82973.73743463 3.582029 2.03460418 4.869689 1.29716956 1.28766 3.05259561 2.004678 4.87837925 1.992615l167.1685082-.40811c1.821438-.004005 3.566687-.732962 4.851809-2.026509 1.285123-1.293547 2.004848-3.045722 2.000843-4.871064l-.759171-313.33321085c-.01386-3.79911313-3.09685-6.86841599-6.887846-6.85726575z" fill="url(#b)" opacity=".5" transform="translate(294 .5)"/><path d="m310.528623 5.46800249h148.885377c7.533164 0 13.64 6.10683601 13.64 13.64000001v290.7336025c0 7.533164-6.106836 13.64-13.64 13.64h-148.885377c-7.533164 0-13.64-6.106836-13.64-13.64v-290.7336025c0-7.533164 6.106836-13.64000001 13.64-13.64000001z" fill="#fff" transform="matrix(.99999701 -.00244346 .00244346 .99999701 -.400738 .941152)"/><path d="m428.842151 13.580415c-1.034704 6.9594989-6.995525 12.1250474-14.038139 12.1652193l-60.830262.1406965c-7.036849-.0125894-13.014749-5.1464274-14.083408-12.0948711l-32.215796.080398c-1.774198.0039936-3.474142.7119348-4.72586 1.9680838-1.251718 1.2561491-1.952675 2.957608-1.948669 4.7300729l.699141 288.2619306c.003993 1.774212.714008 3.474022 1.973564 4.724806 1.259555 1.250784 2.965265 1.949876 4.741203 1.943202l153.911529-.371841c1.774198-.003994 3.474142-.711935 4.72586-1.968084s1.952675-2.957608 1.948669-4.730073l-.699141-288.2619305c-.003997-1.772465-.712631-3.4707474-1.970008-4.7212424-1.257378-1.2504949-2.960501-1.9507676-4.7347-1.946765z" fill="#000" opacity=".3"/><path d="m102.688488 51.3693659c-.00292-24.430376-17.2500362-45.4621742-41.2068256-50.24919017s-47.9619017 8.00181296-57.35303478 30.55508097c-9.39113309 22.5532681-1.55701785 48.599884 18.71727478 62.230597l.0301464.2260975c1.6742129 1.6048412 3.6500631 2.8617346 5.8132195 3.6979512l.0653171-.2260975c2.3966341 2.06 12.5006829 5.3560001 24.1170731 5.3258541h.2512195c7.3557074 0 15.3344391-1.296293 22.3535122-5.0947322 0 0 .0602927-.1356585.1557561-.386878 1.7788806-.8363181 3.4110425-1.9543999 4.8334635-3.3110732.0267967-.1942764.0535935-.3885528.0803902-.5828293 13.8729551-9.5611308 22.153186-25.3362199 22.142488-42.1847804z" fill="url(#c)" opacity=".5" transform="translate(335 35.5)"/><circle cx="386" cy="87.5" fill="#f5f5f5" r="50"/><path d="m364.616682 17.272242 36.80168-.000058c.678132-.000001 1.227868.5497329 1.227869 1.2278651v.0000029c-.000001.6781343-.549737 1.2278708-1.227871 1.2278719l-36.80168.000058c-.678132.0000011-1.227868-.5497328-1.227869-1.2278651 0-.0000009 0-.0000019 0-.0000029.000001-.6781343.549737-1.2278708 1.227871-1.2278719z" fill="#dbdbdb" transform="matrix(.99988735 -.01500927 .01500927 .99988735 -.234528 5.750897)"/><ellipse cx="410.985679" cy="17.833779" fill="#dbdbdb" rx="1.474292" ry="1.474452" transform="matrix(.99988735 -.01500927 .01500927 .99988735 -.221376 6.170603)"/><path d="m342 156.5h82v9h-82z" fill="#f5f5f5"/><path d="m324 175.5h118v9h-118z" fill="#f5f5f5"/><path d="m7.64701658.0050384 167.16850842.4081106c1.821438.00400441 3.566686.73296161 4.851809 2.02650842 1.285122 1.29354681 2.004847 3.04572192 2.000843 4.87106455l-.734033 313.32817203c-.005307 1.82973-.737435 3.582029-2.034605 4.869689-1.297169 1.28766-3.052595 2.004678-4.878379 1.992615l-167.16850807-.40811c-1.82143787-.004005-3.56668656-.732962-4.85180904-2.026509s-2.00484751-3.045722-2.00084289-4.871064l.75917127-313.33321085c.01386-3.79911313 3.09685023-6.86841599 6.88784531-6.85726575z" fill="url(#d)" opacity=".5" transform="translate(0 .5)"/><path d="m16.4670855 5.46815209h148.8853765c7.533164 0 13.64 6.10683601 13.64 13.64000001v290.7336019c0 7.533164-6.106836 13.64-13.64 13.64h-148.8853765c-7.533164 0-13.64000002-6.106836-13.64000002-13.64v-290.7336019c0-7.533164 6.10683602-13.64000001 13.64000002-13.64000001z" fill="#fff" transform="matrix(-.99999701 -.00244346 .00244346 -.99999701 181.417389 329.171549)"/><path d="m47.1590508 13.580415c1.0347358 6.9594993 6.995735 12.1250481 14.0385601 12.16522l60.8270531.1457214c7.037059-.0125895 13.015139-5.1464278 14.08383-12.0948718l32.21676.080398c1.774251.0039935 3.474246.7119348 4.726001 1.9680839 1.251756 1.2561491 1.952735 2.9576081 1.948728 4.7300732l-.699162 288.2619473c-.005328 1.772466-.715261 3.470221-1.97362 4.719774-1.25836 1.249554-2.962066 1.948547-4.736318 1.943209l-153.9161367-.371841c-1.7742517-.003994-3.4742462-.711935-4.72600171-1.968084s-1.95273409-2.957608-1.94872751-4.730073l.69916154-288.2619471c.00399755-1.7724651.71265246-3.4707477 1.97006775-4.7212427 1.25741533-1.250495 2.96058933-1.9507677 4.73484103-1.9467651z" fill="#000" opacity=".3"/><path d="m.19092683 51.3693659c.00291956-24.430376 17.25003607-45.4621742 41.20682547-50.24919017s47.9619016 8.00181296 57.3530347 30.55508097c9.391133 22.5532681 1.557018 48.599884-18.7172748 62.230597l-.0301463.2260975c-1.6742129 1.6048412-3.6500631 2.8617346-5.8132196 3.6979512l-.065317-.2260975c-2.3966342 2.06-12.500683 5.3560001-24.1170732 5.3258541h-.2512195c-7.3557073 0-15.334439-1.296293-22.3535122-5.0947322 0 0-.0602927-.1356585-.1557561-.386878-1.7788806-.8363181-3.4110424-1.9543999-4.8334634-3.3110732-.0267968-.1942764-.0535935-.3885528-.0803903-.5828293-13.8729551-9.5611308-22.15318588-25.3362199-22.14248777-42.1847804z" fill="url(#e)" opacity=".5" transform="translate(38 35.5)"/><circle cx="90" cy="87.5" fill="#f5f5f5" r="50"/><path d="m74.4555203 17.2657763 36.8016797.000058c.678134.0000011 1.227871.5497375 1.227871 1.2278719.000001.6781322-.549734 1.2278674-1.227866 1.227868-.000001 0-.000002 0-.000003 0l-36.8016797-.0000581c-.6781343-.000001-1.2278704-.5497375-1.2278709-1.2278718-.0000006-.6781322.5497338-1.2278675 1.227866-1.227868z" fill="#dbdbdb" transform="matrix(-.99988735 -.01500927 .01500927 -.99988735 185.424686 38.378973)"/><ellipse cx="64.890404" cy="17.825879" fill="#dbdbdb" rx="1.474452" ry="1.474292" transform="matrix(.01500927 -.99988735 .99988735 .01500927 46.092576 82.44142)"/><path d="m52 156.5h82v9h-82z" fill="#f5f5f5" transform="matrix(-1 0 0 -1 186 322)"/><path d="m34 175.5h118v9h-118z" fill="#f5f5f5" transform="matrix(-1 0 0 -1 186 360)"/><path d="m174.23232.0050384-167.16850785.4081106c-1.82143787.00400441-3.56668656.73296161-4.85180904 2.02650842-1.28512247 1.29354681-2.00484751 3.04572192-2.00084289 4.87106455l.73403315 313.32817203c.0053068 1.82973.73743463 3.582029 2.03460418 4.869689 1.29716956 1.28766 3.05259561 2.004678 4.87837925 1.992615l167.1685082-.40811c1.821438-.004005 3.566687-.732962 4.851809-2.026509 1.285123-1.293547 2.004848-3.045722 2.000843-4.871064l-.759171-313.33321085c-.01386-3.79911313-3.09685-6.86841599-6.887846-6.85726575z" fill="url(#f)" opacity=".5" transform="translate(146 63.5)"/><path d="m163.101392 67.870802h148.885377c7.533164 0 13.64 6.106836 13.64 13.64v290.733602c0 7.533164-6.106836 13.64-13.64 13.64h-148.885377c-7.533164 0-13.64-6.106836-13.64-13.64v-290.733602c0-7.533164 6.106836-13.64 13.64-13.64z" fill="#fff" transform="matrix(.99999701 -.00244346 .00244346 .99999701 -.553657 .581106)"/><path d="m281.842151 75.580415c-1.034704 6.9594989-6.995525 12.1250474-14.038139 12.1652193l-60.830262.1406965c-7.036849-.0125894-13.014749-5.1464274-14.083408-12.0948711l-32.215796.080398c-1.774198.0039936-3.474142.7119348-4.72586 1.9680838-1.251718 1.2561491-1.952675 2.957608-1.948669 4.7300729l.699141 288.2619306c.003993 1.774212.714008 3.474022 1.973564 4.724806 1.259555 1.250784 2.965265 1.949876 4.741203 1.943202l153.911529-.371841c1.774198-.003994 3.474142-.711935 4.72586-1.968084s1.952675-2.957608 1.948669-4.730073l-.699141-288.2619305c-.003997-1.772465-.712631-3.4707474-1.970008-4.7212424-1.257378-1.2504949-2.960501-1.9507676-4.7347-1.946765z" fill="#000" opacity=".4"/><path d="m102.688488 51.3693659c-.00292-24.430376-17.2500362-45.4621742-41.2068256-50.24919017s-47.9619017 8.00181296-57.35303478 30.55508097c-9.39113309 22.5532681-1.55701785 48.599884 18.71727478 62.230597l.0301464.2260975c1.6742129 1.6048412 3.6500631 2.8617346 5.8132195 3.6979512l.0653171-.2260975c2.3966341 2.06 12.5006829 5.3560001 24.1170731 5.3258541h.2512195c7.3557074 0 15.3344391-1.296293 22.3535122-5.0947322 0 0 .0602927-.1356585.1557561-.386878 1.7788806-.8363181 3.4110425-1.9543999 4.8334635-3.3110732.0267967-.1942764.0535935-.3885528.0803902-.5828293 13.8729551-9.5611308 22.153186-25.3362199 22.142488-42.1847804z" fill="url(#c)" opacity=".5" transform="translate(187 98.5)"/><circle cx="239" cy="149.5" fill="#f5f5f5" r="50"/><path d="m217.184565 79.6690956 36.80168-.000058c.678132-.0000011 1.227868.5497328 1.227869 1.2278651v.0000029c-.000001.6781343-.549737 1.2278708-1.227871 1.2278719l-36.80168.000058c-.678132.0000011-1.227868-.5497329-1.227869-1.2278651 0-.000001 0-.0000019 0-.0000029.000001-.6781343.549737-1.2278708 1.227871-1.2278719z" fill="#dbdbdb" transform="matrix(.99988735 -.01500927 .01500927 .99988735 -1.187666 3.545077)"/><ellipse cx="263.553562" cy="80.230633" fill="#dbdbdb" rx="1.474292" ry="1.474452" transform="matrix(.99988735 -.01500927 .01500927 .99988735 -1.174515 3.964784)"/><path d="m195 219.5h82v9h-82z" fill="#f5f5f5"/><path d="m177 237.5h118v9h-118z" fill="#f5f5f5"/><path d="m219.364052 170.5s-12.002703.964629-8.83016 22.431373c1.645547 1.548449 3.58752 2.761369 5.713633 3.568627l6.752475-22.431373z" fill="#fda57d"/><path d="m257.635948 170.5s12.002703.964629 8.83016 22.431373c-1.645547 1.548449-3.58752 2.761369-5.713633 3.568627l-6.752475-22.431373z" fill="#fda57d"/><path d="m219.733945 134.5s-5.651376 16.24295-8.733945 14.720174c0 0 29.717575 25.379609 56 0 0 0-4.623853-8.121476-11.302752-14.720174z" fill="#333"/><circle cx="239" cy="133.5" fill="#333" r="22"/><g fill="#000"><path d="m258.075882 170.5h-38.660103l-3.608276 15.336657s-2.117462 7.101975.50536 10.224438c2.622823 3.122464 27.264217 10.224438 45.361188.501198 1.574281-4.090516 1.751814-8.580325.505361-12.780547-2.061872-7.157107-.505361-.501198-.505361-.501198z" opacity=".1"/><path d="m258.075882 170.5h-38.660103l-3.608276 15.336657s-2.117462 7.101975.50536 10.224438c2.622823 3.122464 27.264217 10.224438 45.361188.501198 1.574281-4.090516 1.751814-8.580325.505361-12.780547-2.061872-7.157107-.505361-.501198-.505361-.501198z" opacity=".1"/><use filter="url(#h)" xlink:href="#g"/></g><use fill="#fff" xlink:href="#g"/><path d="m232 157.5h15v12.301887c0 4.25155-3.357864 7.698113-7.5 7.698113-4.142136 0-7.5-3.446563-7.5-7.698113z" fill="#000" opacity=".1"/><path d="m232 156.5h15v12.307692c0 4.248345-3.357864 7.692308-7.5 7.692308-4.142136 0-7.5-3.443963-7.5-7.692308z" fill="#fda57d"/><path d="m232 159.207406c4.834272 1.710595 10.156345 1.723764 15 .037118v-1.744524h-15z" fill="#000" opacity=".1"/><circle cx="239" cy="137.5" fill="#fda57d" r="22"/><path d="m218 129.5h42s-3.585366-17.034869-19.463415-15.950327c-15.878048 1.084541-22.536585 15.950327-22.536585 15.950327z" fill="#333"/><ellipse cx="218" cy="136.5" fill="#fda57d" rx="2" ry="4"/><ellipse cx="261" cy="136.5" fill="#fda57d" rx="2" ry="4"/><path d="m218 130.5h42s-3.585366-17.034869-19.463415-15.950327c-15.878048 1.084541-22.536585 15.950327-22.536585 15.950327z" fill="#000" opacity=".1"/><path d="m364.364052 106.5s-12.002703.964629-8.83016 22.431373c1.645547 1.548449 3.58752 2.761369 5.713633 3.568627l6.752475-22.431373z" fill="#4d8af0"/><path d="m402.635948 106.5s12.002703.964629 8.83016 22.431373c-1.645547 1.548449-3.58752 2.761369-5.713633 3.568627l-6.752475-22.431373z" fill="#4d8af0"/><circle cx="384" cy="69.5" fill="#333" r="22"/><path d="m403.075882 106.5h-38.660103l-3.608276 15.336657s-2.117462 7.101975.50536 10.224438c2.622823 3.122464 27.264217 10.224438 45.361188.501198 1.574281-4.090516 1.751814-8.580325.505361-12.780547-2.061872-7.157107-.505361-.501198-.505361-.501198z" fill="#4d8af0"/><path d="m403.075882 106.5h-38.660103l-3.608276 15.336657s-2.117462 7.101975.50536 10.224438c2.622823 3.122464 27.264217 10.224438 45.361188.501198 1.574281-4.090516 1.751814-8.580325.505361-12.780547-2.061872-7.157107-.505361-.501198-.505361-.501198z" fill="#4d8af0"/><path d="m403.075882 106.5h-38.660103l-3.608276 15.336657s-2.117462 7.101975.50536 10.224438c2.622823 3.122464 27.264217 10.224438 45.361188.501198 1.574281-4.090516 1.751814-8.580325.505361-12.780547-2.061872-7.157107-.505361-.501198-.505361-.501198z" fill="#4d8af0"/><path d="m377 93.5h15v12.301887c0 4.25155-3.357864 7.698113-7.5 7.698113-4.142136 0-7.5-3.446563-7.5-7.698113z" fill="#000" opacity=".1"/><path d="m377 93.5h15v12.307692c0 4.248345-3.357864 7.692308-7.5 7.692308-4.142136 0-7.5-3.443963-7.5-7.692308z" fill="#fdb797"/><path d="m377 95.2074061c4.834272 1.7105945 10.156345 1.723764 15 .0371175v-1.7445236h-15z" fill="#000" opacity=".1"/><circle cx="384" cy="74.5" fill="#fdb797" r="22"/><path d="m363 66.5h42s-3.585366-17.034869-19.463415-15.9503275c-15.878048 1.0845416-22.536585 15.9503275-22.536585 15.9503275z" fill="#000" opacity=".1"/><path d="m363 66.5h42s-3.585366-17.034869-19.463415-15.9503275c-15.878048 1.0845416-22.536585 15.9503275-22.536585 15.9503275z" fill="#333"/><ellipse cx="363" cy="73.5" fill="#fdb797" rx="2" ry="4"/><ellipse cx="406" cy="73.5" fill="#fdb797" rx="2" ry="4"/><path d="m366.658263 54.8123064c.451217-1.6820106 1.447955-3.1651122 2.832692-4.2149165 1.074815-.7461814 2.355554-1.1091886 3.591089-1.5427805 1.823206-.6530821 3.572414-1.4980854 5.218381-2.5208831 1.868371-1.1545644 3.621224-2.5460919 5.68045-3.3124404 3.515752-1.3159009 7.478507-.6050119 11.134889.3377984.910556.1928216 1.787404.5207769 2.601656.9730609.887201.6159508 1.667689 1.3738846 2.310352 2.2435859l5.795968 7.0282221c.553743.6162998 1.037223 1.2927236 1.441458 2.0167065.348946.7228351.571503 1.5005095.657948 2.2990454.20799 1.2910695-.008885 2.615012-.617768 3.7712411-1.0045 1.6789081-3.013501 2.5208831-4.942142 2.6015514-1.928642.0806682-3.837193-.5041767-5.700541-1.0335621-6.027003-1.7646182-12.084142-3.408234-18.307023-4.1443318-3.090146-.3825686-6.208427-.4838163-9.316742-.302506-.974366.065543-2.265149.5041766-2.857805-.5041766-.517317-.8268497.210946-2.8435562.477138-3.6956147z" fill="#333"/><path d="m70.3640518 106.5s-12.0027029.964629-8.8301599 22.431373c1.6455468 1.548449 3.5875206 2.761369 5.7136329 3.568627l6.7524752-22.431373z" fill="#be7c5e"/><path d="m108.635948 106.5s12.002703.964629 8.83016 22.431373c-1.645547 1.548449-3.58752 2.761369-5.713633 3.568627l-6.752475-22.431373z" fill="#be7c5e"/><path d="m70.230568 70.5s-.9116613 2.6326278-2.2061196 5.6790967c-2.8256464 6.6663321.3979074 32.2646483 7.1623337 34.9920113 7.5854251 3.061427 17.5683684 5.020939 27.9341089 1.281411 9.01084-3.250896 11.786118-32.4092433 5.4196-39.4844304-.745447-.8326683-1.511041-1.6603505-2.342114-2.4631026z" fill="#333"/><circle cx="90" cy="69.5" fill="#333" r="22"/><path d="m109.075882 106.5h-38.6601031l-3.6082763 15.336657s-2.1174618 7.101975.5053608 10.224438c2.6228227 3.122464 27.2642166 10.224438 45.3611876.501198 1.574281-4.090516 1.751814-8.580325.505361-12.780547-2.061872-7.157107-.505361-.501198-.505361-.501198z" fill="#000" opacity=".1"/><path d="m109.075882 106.5h-38.6601031l-3.6082763 15.336657s-2.1174618 7.101975.5053608 10.224438c2.6228227 3.122464 27.2642166 10.224438 45.3611876.501198 1.574281-4.090516 1.751814-8.580325.505361-12.780547-2.061872-7.157107-.505361-.501198-.505361-.501198z" fill="#000" opacity=".1"/><path d="m109.075882 106.5h-38.6601031l-3.6082763 15.336657s-2.1174618 7.101975.5053608 10.224438c2.6228227 3.122464 27.2642166 10.224438 45.3611876.501198 1.574281-4.090516 1.751814-8.580325.505361-12.780547-2.061872-7.157107-.505361-.501198-.505361-.501198z" fill="#f55f44"/><path d="m82 93.5h15v12.301887c0 2.041666-.7901763 3.999712-2.1966991 5.443388-1.4065229 1.443676-3.3141772 2.254725-5.3033009 2.254725-4.1421356 0-7.5-3.446563-7.5-7.698113z" fill="#000" opacity=".1"/><path d="m82 92.5h15v12.307692c0 2.040127-.7901763 3.996696-2.1966991 5.439283-1.4065229 1.442588-3.3141772 2.253025-5.3033009 2.253025-4.1421356 0-7.5-3.443963-7.5-7.692308z" fill="#be7c5e"/><path d="m82 95.2074061c4.8342716 1.7105945 10.1563446 1.723764 15 .0371175v-1.7445236h-15z" fill="#000" opacity=".1"/><circle cx="90" cy="73.5" fill="#be7c5e" r="22"/><path d="m69 65.5h42s-3.585366-17.034869-19.4634146-15.9503275c-15.8780488 1.0845416-22.5365854 15.9503275-22.5365854 15.9503275z" fill="#333"/><ellipse cx="68" cy="73.5" fill="#be7c5e" rx="2" ry="4"/><ellipse cx="111" cy="73.5" fill="#be7c5e" rx="2" ry="4"/><path d="m69 66.5h42s-3.585366-17.034869-19.4634146-15.9503275c-15.8780488 1.0845416-22.5365854 15.9503275-22.5365854 15.9503275z" fill="#000" opacity=".1"/></g></g></svg>