<svg height="443" viewBox="0 0 783 443" width="783" xmlns="http://www.w3.org/2000/svg"><g fill="none"><path d="m783 0h-783v443h783z" fill="#fbfdfe"/><g transform="translate(0 105)"><path d="m438.045 88.79h-438.045v56.333333h438.045z" fill="#ff7000"/><path d="m783 88.79h-438.045v56.333333h438.045z" fill="#ff7000"/><path d="m623.007 132.426667v-30.333334c.02075-6.4481215-.798079-12.8716958-2.436-19.1099997-.8265-3.25-4.089-10.9633333-4.089-11.3966666-1.526265-3.1122798-3.30097-6.0974308-5.307-8.9266667-.3915-.39-8.961-12.61-8.961-12.61-.8265-.8233333-1.653-2.0366667-2.436-2.86-2.0445-2.0366667-4.089-4.0733333-6.525-6.11-.216219 0-.3915-.1746089-.3915-.39-3.506818-2.4519237-7.3633-4.3654732-11.4405-5.6766667-7.464755-2.2535895-15.103038-3.8913399-22.8375-4.8966666-7.702187-1.1556493-15.483666-1.7062349-23.2725-1.6466667h-294.5385c-8.525823.0555207-17.013009 1.1469152-25.2735 3.25l-33.843 8.9266667s-17.9655 30.3333333-18.7485 34.6666666c-1.349503 4.9298932-2.309437 9.9574803-2.871 15.0366667v53.083333c.362793 5.106901 1.326392 10.153689 2.871 15.036667 1.218 4.073333 18.7485 34.146667 18.7485 34.146667l33.4515 8.926666c8.260491 2.103085 16.747677 3.19448 25.2735 3.25h294.1035c7.788839.059747 15.570332-.490839 23.2725-1.646666.70493.067729 1.414556-.067636 2.0445-.39 7.160543-1.244395 14.247186-2.879072 21.228-4.896667 4.111197-1.226866 7.980767-3.14691 11.4405-5.676667.216219 0 .3915-.174609.3915-.39 2.463398-1.707648 4.661831-3.766257 6.525-6.11.8265-.823333 1.653-2.036666 2.436-2.86 0 0 8.961-12.176666 8.961-12.61 2.00603-2.829236 3.780735-5.814387 5.307-8.926666.344037-.978357.750877-1.933662 1.218-2.86 1.331544-2.752112 2.2967-5.665622 2.871-8.666667 2.011964-5.553478 2.970731-11.430978 2.8275-17.333333z" fill="#fff"/><path d="m386.4105 37.7433333-17.9655-5.2866666-3.045 32.5433333 13.05-6.11z" fill="#fff"/><path d="m213.846 174.286667c-15.501285-36.494867-15.501285-77.6884674 0-114.1833337v-.39c1.390346-2.9405235 4.498745-4.6801239 7.743-4.3333333 13.05 1.2133333 44.892 4.0733333 56.289 5.6766667 1.738647.1408086 3.328075 1.0333849 4.349089 2.4423218 1.021014 1.408937 1.371095 3.1927622.957911 4.8810115v.39c-5.299622 31.87846-5.299622 64.408206 0 96.286667v.39c.500533 3.466754-1.846287 6.70522-5.307 7.323333-11.4405 1.646667-43.239 4.333333-56.289 5.676667-3.23694.568766-6.441908-1.153134-7.743-4.16z" fill="#000"/><path d="m481.023 193.006667c1.218.823333.8265 3.25-.8265 3.25h-157.4265c-15.642072-.767305-31.194665-2.810816-46.5015-6.11-.767301-.101864-1.368081-.708209-1.460309-1.473835-.092229-.765625.347486-1.496351 1.068809-1.776165 8.178-4.073334 27.318-11.786667 58.725-11.786667h59.943c15.253779-.072174 30.459807 1.703069 45.2835 5.286667l25.6215 5.936666c5.495762 1.439127 10.744744 3.688418 15.573 6.673334z" fill="#000"/><path d="m386.4105 196.256667-17.9655 4.073333-3.2625-30.333333 13.2675 5.113333z" fill="#fff"/><path d="m510.429 181.22 3.2625-6.5c14.172997-33.047147 15.199372-70.226858 2.871-104l-6.1335-17.3333333c-1.384213-2.5156446-4.036697-4.0777713-6.9165-4.0733334-2.456955.1999669-4.929761.0687835-7.3515-.39l-57.942 14.2133334c-3.017686.8060294-4.83465 3.8676296-4.089 6.89 7.754095 30.9565323 7.754095 63.3368013 0 94.2933333-.65172 3.007889 1.129327 6.008969 4.089 6.89l57.942 14.213333h7.3515c2.93642.082289 5.646428-1.564652 6.9165-4.203333z" fill="#000"/><path d="m162.864 158.86c.3915.823333.3915 2.036667.8265 2.86.903072 2.954492 1.992746 5.849154 3.2625 8.666667 3.621959 8.423322 8.734805 16.129257 15.0945 22.75h13.7025c1.038885.010656 1.974276-.625019 2.343326-1.592482s.093491-2.061535-.690326-2.740852c-10.875-9.62-34.539-29.943333-34.539-29.943333z" fill="#ffafa1"/><path d="m162.864 75.14c.3915-.8233333.3915-2.0366667.8265-2.86.903072-2.9544917 1.992746-5.8491539 3.2625-8.6666667 3.621959-8.4233222 8.734805-16.1292578 15.0945-22.75h13.7025c1.038885-.0106564 1.974276.6250182 2.343326 1.5924812s.093491 2.0615357-.690326 2.7408522c-10.875 9.23-34.539 29.9433333-34.539 29.9433333z" fill="#ffafa1"/><path d="m469.8 35.75-15.921-31.67666667c-.355442-.81095566-.272443-1.74632195.220291-2.48259097.492734-.73626901 1.327547-1.17234624 2.215709-1.15740903h3.654c5.146843-.09945454 9.962262 2.52156984 12.6585 6.89l8.178 12.17666667c1.537771 2.2851808 2.383378 4.9627049 2.436 7.7133333v10.14z" fill="#fff"/><path d="m470.0175 198.25-15.921 31.676667c-.355442.810955-.272443 1.746322.220291 2.482591s1.327547 1.172346 2.215709 1.157409h3.654c5.146843.099454 9.962262-2.52157 12.6585-6.89l8.178-12.176667c1.537771-2.285181 2.383378-4.962705 2.436-7.713333v-10.14z" fill="#fff"/><path d="m617.265 159.683333-11.832.823334c-3.480893.565172-6.60262 2.462129-8.7 5.286666l-17.4 24.786667c-1.510208 1.891999-3.468257 3.380966-5.6985 4.333333l-11.0055 3.64c-1.438184.435951-2.424993 1.752506-2.436 3.25v1.863334c7.160491-1.24465 14.24712-2.879324 21.228-4.896667 4.111514-1.226067 7.981217-3.146176 11.4405-5.676667.103832 0 .203412-.041089.276832-.114228.073421-.073139.114668-.172337.114668-.275772 2.463398-1.707648 4.661831-3.766257 6.525-6.11.8265-.823333 1.653-2.036666 2.436-2.86 0 0 8.961-12.176666 8.961-12.61 2.00603-2.829236 3.780735-5.814387 5.307-8.926666-.435.303333 0-.91.783-2.513334z" fill="#ffafa1"/><path d="m617.265 74.3166667-11.832-.65c-3.480893-.565172-6.60262-2.4621296-8.7-5.2866667l-17.4-24.7866667c-1.510208-1.8919985-3.468257-3.3809656-5.6985-4.3333333l-11.0055-3.64c-1.438184-.4359508-2.424993-1.7525062-2.436-3.25v-2.0366667c7.160491 1.2446498 14.24712 2.8793237 21.228 4.8966667 4.111514 1.2260666 7.981217 3.1461761 11.4405 5.6766667.216219 0 .3915.1746089.3915.39 2.463398 1.7076479 4.661831 3.7662573 6.525 6.11.8265.8233333 1.653 2.0366666 2.436 2.86 0 0 8.961 12.1766666 8.961 12.61 2.00603 2.8292359 3.780735 5.8143869 5.307 8.9266666-.435-.3033333 0 .91.783 2.5133334z" fill="#ffafa1"/><path d="m481.023 40.6033333c1.218-.8233333.8265-3.25-.8265-3.25h-157.4265c-15.638465.7245037-31.191021 2.7245313-46.5015 5.98-.767301.1018641-1.368081.7082087-1.460309 1.4738343-.092229.7656257.347486 1.4963512 1.068809 1.7761657 8.178 4.0733334 27.318 11.7866667 58.725 11.7866667h59.943c15.253755.0717452 30.459731-1.7034914 45.2835-5.2866667l25.6215-5.98c5.5448-1.2046265 10.822295-3.407395 15.573-6.5z" fill="#000"/><path d="m386.4105 37.7433333-17.9655-4.3333333-3.045 30.7666667 13.05-5.2866667z" fill="#fff"/></g></g></svg>