<svg height="443" viewBox="0 0 783 443" width="783" xmlns="http://www.w3.org/2000/svg" xmlns:xlink="http://www.w3.org/1999/xlink"><linearGradient id="a"><stop offset="0" stop-color="#808080" stop-opacity=".25"/><stop offset=".54" stop-color="#808080" stop-opacity=".12"/><stop offset="1" stop-color="#808080" stop-opacity=".1"/></linearGradient><linearGradient id="b" x1="50.002128%" x2="50.002128%" xlink:href="#a" y1="100.004257%" y2="0%"/><linearGradient id="c" x1="50.002128%" x2="50.002128%" y1="98.565745%" y2="0%"><stop offset="0" stop-opacity=".25"/><stop offset=".54" stop-color="#ffe9e9" stop-opacity=".12"/><stop offset="1" stop-color="#d0d0d0" stop-opacity=".1"/></linearGradient><linearGradient id="d" x1="-.004257%" x2="99.995743%" xlink:href="#a" y1="50.002128%" y2="50.002128%"/><linearGradient id="e" x1="173.921883%" x2="173.921883%" xlink:href="#a" y1="100.004209%" y2=".000181%"/><linearGradient id="f" x1="49.995573%" x2="49.995573%" xlink:href="#a" y1="100%" y2="-.006326%"/><linearGradient id="g" x1="50.002312%" x2="50.002312%" xlink:href="#a" y1="100%" y2="0%"/><linearGradient id="h" x1="50%" x2="50%" y1="100%" y2="0%"><stop offset="0" stop-opacity=".12"/><stop offset=".55" stop-opacity=".09"/><stop offset="1" stop-opacity=".02"/></linearGradient><g fill="none" fill-rule="evenodd"><path d="m783 0h-783v443h783z" fill="#fbfdfe" fill-rule="nonzero"/><g transform="translate(184 54)"><path d="m365.252023 149.911176c4.714598 9.672353 1.714399 23.548824 8.390665 31.454706 4.895929 5.797647 13.02284 5.764706 18.574032 10.656471 4.318967 3.817059 6.470208 10.063529 8.427756 15.992941l9.511618 28.82353c4.331331 13.127058 8.032125 30.025882-.692353 39.648823-5.229742 5.764706-13.12999 6.419412-20.271947 5.805882-51.691608-4.442941-93.26991-56.535294-144.78431-63.255294-36.410377-4.751764-72.383912 13.954706-109.004468 12.921177-19.369414-.547647-38.2813806-6.588236-56.9708046-12.616471-14.374578-4.624117-30.3275571-10.705882-37.1810328-26.295294-3.0620159-6.967059-4.014002-15.383529-8.5637537-21.111176-3.4864945-4.39353-8.5266634-6.472942-12.857994-9.655883-18.87075476-13.868235-21.01787492-44.927647-19.39001991-71.070588.91077458-14.5023529 2.4520854-29.3505882 8.19285005-42.2223529 5.74076466-12.8717647 16.54230386-23.5158824 28.87279046-23.9358824 7.7972195-.2676471 15.2482622 3.4464706 22.8353029 5.5217647s16.4846077 2.1370588 22.1800397-4.117647c4.6733863-5.1347059 6.1405164-13.382353 10.8139027-18.52941181 3.6389771-3.9982353 8.7162362-5.55058824 13.6245282-6.50176471 26.395978-5.11823529 54.518719 3.73882353 75.215144 23.73823532 5.015442 4.8547059 9.824826 10.4711764 15.973585 12.9417647 8.188729 3.3147059 17.139871.5064706 25.798411.5764706 30.545978.2470588 51.263009 33.2788235 72.791907 54.1017647 12.585998 12.1758828 24.759881 14.7988238 38.417378 22.9105878 8.456604 5.031765 24.998908 23.762942 30.096773 34.217647z" fill="#000" fill-rule="nonzero" opacity=".373698"/><path d="m360.071735 281.350588c1.767974 3.792353-.762413 7.885294.115392 11.801177 1.10859 4.941176 7.463406 8.787059 14.30864 11.241176 6.845233 2.454118 14.48997 3.944706 21.162115 6.588235 2.884806 1.140589 5.893247 3.244706 4.393148 5.18-.519265.671177-1.491857 1.140589-2.443843 1.581177-19.435353 8.96-43.457548 13.827059-67.459136 13.670588-25.386296-.168823-50.245085-5.764706-75.610775-5.122353-32.713704.82353-64.355909 11.965883-96.706951 8.754118-13.731679-1.362941-26.490765-5.25-39.859782-7.675294-19.666137-3.57-40.3501985-3.928236-60.7169314-5.101765-15.2935948-.881176-32.7714002-3.166471-40.0782026-11.755882-5.2833168-6.209412-3.066137-14.411765 4.3766634-19.67 7.4428004-5.258236 19.3364448-7.514706 30.3193148-6.501765 5.9056107.547647 11.774131 1.968235 17.6797418 1.404118 3.4287984-.329412 6.5938431-1.309412 9.7217974-2.272942 24.1952826-7.494117 49.2601286-14.971764 76.1176766-16.058823 43.68421-1.782941 84.174528 13.402941 126.733664 19.970588 6.626812 1.021177 13.822344 1.807647 20.082373.094706 6.593843-1.807647 10.921053-6.077647 17.52726-7.877059 3.136196-.85647 6.630933-1.103529 9.713555-2.034117 8.473088-2.561177 4.533267-6.081765 16.295034-3.705883 6.144638 1.255883 12.351093 3.257059 14.329246 7.49z" fill="#000" fill-rule="nonzero" opacity=".373698"/><rect fill="#656565" fill-rule="nonzero" height="304.112941" rx="26.87" transform="matrix(-1 0 0 -1 496.870804 323.55647)" width="152.185899" x="172.342453" y="9.721765"/><path d="m183.551986 38.014118h129.770953v247.532353h-129.770953z" fill="#404040" fill-rule="nonzero" transform="matrix(-1 0 0 -1 496.874926 323.560588)"/><ellipse cx="263.77433" cy="23.87" fill="#ff7000" fill-rule="nonzero" rx="1.178649" ry="1.177647"/><rect fill="#ff7000" fill-rule="nonzero" height="2.359412" rx="1" transform="matrix(-1 0 0 -1 489.798908 47.735882)" width="25.955015" x="231.921946" y="22.688235"/><ellipse cx="249.028848" cy="297.335294" fill="#ff7000" fill-rule="nonzero" rx="8.258788" ry="8.251765"/><path d="m197.951291 60.018824h96.818222v96.735882h-96.818222z" fill="url(#b)" fill-rule="nonzero"/><path d="m199.37721 61.443529h93.966385v93.886471h-93.966385z" fill="#545252" fill-rule="nonzero" transform="matrix(-1 0 0 -1 492.720804 216.77353)"/><path d="m203.659086 65.725882h85.406753v63.947059h-85.406753z" fill="#b4b4b4" fill-rule="nonzero" opacity=".5" transform="matrix(-1 0 0 -1 492.724926 195.398824)"/><path d="m.49.295.055.255c-.16636634-.01414974-.33363366-.01414974-.5 0 .13365617-.10837598.2839196-.19448199.445-.255z" fill="#000" fill-rule="nonzero" opacity=".05" transform="translate(258.808342 100.882353)"/><path d="m198.392254 170.470588h96.818222v96.735882h-96.818222z" fill="url(#c)" fill-rule="nonzero"/><path d="m119.971199 97.6690491 96.737345.0108775.010878 96.8167594-96.737346-.010877z" fill="url(#d)" fill-rule="nonzero" transform="matrix(.13329432 -.9910765 .9910765 .13329432 1.12654 293.453932)"/><path d="m121.368835 99.1468412 93.964966-.0105571-.010558 93.8878909-93.964965.010557z" fill="#fff" fill-rule="nonzero" transform="matrix(-.9910765 -.13329432 .13329432 -.9910765 315.717474 313.306992)"/><path d="m127.075089 103.519455 85.405462-.009596-.00719 63.948026-85.405462.009595z" fill="#d9d9d9" fill-rule="nonzero" opacity=".5" transform="matrix(-.9910765 -.13329432 .13329432 -.9910765 319.9736 292.398246)"/><g fill-rule="nonzero" transform="translate(151.658391 124.764706)"><path d="m3.79921127 16.7113276s-.96298882 1.9770098.50574232 2.8871803c.69279771.432704 5.70172511 1.4920828 10.73143651 2.5066992 2.4663598.4923873 4.9396476.9698538 6.927977 1.3428745 2.424792.4625457 4.1013624.7460414 4.1013624.7460414h1.2747478l7.7039105.1566687 7.246664.1492083 3.0690938-.6788977-1.7666341-12.9661997-9.1726416-10.8549026-1.9190497 1.74573691-.3256149.29841656-5.0435673 2.6409866-14.2300649 7.46041413-6.40145078 3.3571864-.74822152.3954019z" fill="#ffe09c"/><path d="m52.3386296 24.1624997s-1.7150045-13.6436293-6.6602783-18.42608039c0 0-4.0636652-4.30851451-6.5638524-5.48617514 0 0-2.1282585-1.5726078-4.2220792 3.16675816 0 0 8.0377919 5.12713227 9.7734591 13.10506497l1.7287796 7.9779327z" fill="#e7c4c3"/><ellipse cx="37.728442" cy="17.948189" fill="#ff7f8e" rx="3.651431" ry="4.300225" transform="matrix(.5383296 -.84273438 .84273438 .5383296 2.292548 40.081202)"/><ellipse cx="24.451361" cy="14.930637" fill="#ff7f8e" rx="3.651431" ry="4.300225" transform="matrix(.5383296 -.84273438 .84273438 .5383296 -1.294092 27.499036)"/><path d="m27.9139358 6.29307089c.096918 1.42955012.7862425 2.71474252 1.8476426 3.44478743 1.6875136 1.25330108 3.799985.92386188 4.7114887-.71617202.9115036-1.64003393.289464-4.03204849-1.4042084-5.28534953-.1155941-.08568068-.2348144-.16455889-.3572109-.23633677l-.289464.28646881z" fill="#ff7f8e"/><path d="m3.48924197 18.6154838c.30513207.4941203.65501136.925802 1.04006071 1.2832286 1.95189475 1.8110083 4.39532503 1.3349718 5.44963315-1.0348618.61697267-1.485043.65213007-3.3315347.09260817-4.8638506z" fill="#ff7f8e"/><g fill="#94cc79"><path d="m34.8924197 12.647343-1.2442426 1.352657c-1.2872725-.9178494-2.8542619-1.6334225-4.5912555-2.0966184l-.3608304-.0591787c-2.3142914-.2789855 1.2442427-1.3442029 1.2442427-1.3442029s4.4668312 1.2596618 4.9520858 2.147343z"/><path d="m31.4031778 16.1525424-1.2433132 1.3474576c-1.2880672-.9165906-2.8536476-1.6308951-4.5878256-2.0932203l-.3605608-.0593221c-2.3249957-.2881356 1.2433131-1.3474576 1.2433131-1.3474576s4.4510612 1.2457627 4.9483865 2.1525424z"/><path d="m24.4246938 19.647343-1.2433132 1.352657c-1.2863108-.9178494-2.8521296-1.6334225-4.5878256-2.0966184l-.3605608-.0591787c-2.3249956-.2789855 1.2433132-1.3442029 1.2433132-1.3442029s4.4510611 1.2258454 4.9483864 2.147343z"/><path d="m10.4677259 19.647343-1.24202816 1.352657c-1.29038199-.9174049-2.85845493-1.6328108-4.59550424-2.0966184l-.36018817-.0591787c-2.3101724-.2789855 1.24202817-1.3442029 1.24202817-1.3442029s4.44646087 1.2512077 4.9556924 2.147343z"/><path d="m20.9354518 16.1557971-1.2433131 1.3442029c-1.2863109-.9178494-2.8521297-1.6334225-4.5878256-2.0966184l-.3605609-.0591787c-2.3249956-.2789855 1.2433132-1.3442029 1.2433132-1.3442029s4.4510612 1.2596618 4.9483864 2.1557971z"/></g><path d="m49.2217548 28s4.9095816-.455814 2.4051605-3.2102326c-2.659817-.5537101-5.4420934-.5133415-8.078285.1172093 0 0-20.8981722.7944186-23.6087498-.4818604 0 0-18.93586665-2.6046512-19.69940966-3.4251163 0 0-1.52708602.2865116 3.11525547 2.0446512 4.64234149 1.7581395 19.49325299 3.5944186 19.49325299 3.5944186l15.7518923 1.0679069 5.6654891-.5990697z" fill="#fff" opacity=".2"/><path d="m49.2217548 28s4.9095816-.455814 2.4051605-3.2102326c-2.659817-.5537101-5.4420934-.5133415-8.078285.1172093 0 0-20.8981722.7944186-23.6087498-.4818604 0 0-18.93586665-2.6046512-19.69940966-3.4251163 0 0-1.52708602.2865116 3.11525547 2.0446512 4.64234149 1.7581395 19.49325299 3.5944186 19.49325299 3.5944186l15.7518923 1.0679069 5.6654891-.5990697z" fill="#e7c4c3"/><path d="m35.0862574 21.5737654c-.4003913 1.4714615-.1727288 3.0806114.6110164 4.3187474 1.2351729 2.0547003 3.436146 2.7215087 4.9209815 1.4886885s1.6753675-3.876793.4336245-5.9702612c-.0854109-.1395646-.1773918-.2791291-.2693728-.4109401l-.3942041.1550717z" fill="#ff7f8e"/><path d="m28.4530867 23.4470408c-.426759 1.2873348-.5416732 2.8536958-.3161282 4.3090507l6.892833.2439085c-.0539942-2.4015153-.7541156-4.5879514-1.8595773-5.807346-1.6736195-1.9861123-3.7997361-1.4402218-4.7171275 1.2543868z" fill="#ff7f8e"/><path d="m14.4357344 22.708429c-.5324462 1.166748-.5653021 2.6150593-.0866976 3.8216902 2.204596.5389563 4.4153848 1.0615806 6.1926855 1.4698808l.0557342-.1061581c.9165174-1.894513.2848635-4.5974606-1.4119323-6.0265114-1.6967959-1.4290508-3.8270797-1.0534146-4.7497898.8410985z" fill="#ff7f8e"/><path d="m42.0357498 23.2791625-1.2482082 1.4267199c-1.2931383-.9705077-2.8648824-1.7268302-4.6058879-2.216351l-.3619803-.0628116c-2.3341492-.3050847 1.2482081-1.4267198 1.2482081-1.4267198s4.4810671 1.336989 4.9678683 2.2791625z" fill="#94cc79"/></g><circle cx="172.033913" cy="157.739412" r="1" stroke="#c1272d"/><g fill-rule="nonzero"><path d="m47.4509434 113.630588c0-.208627.0206058-.406274.0618173-.592941s.0769281-.404902.1071499-.654706c.0769282-.428235.1648461-.84.2637537-1.235294.0494539-.197647.1002814-.392549.1524827-.584706.5872164-2.204131 1.6428291-4.255979 3.0949851-6.015882l.2472691-.288235c.1648461-.186667.3283184-.362353.4904171-.527059.1620986-.164706.3214498-.318432.4780536-.461177.1566038-.144117.3090864-.275882.4574479-.411764.2926017-.247059.5687189-.448824.8242303-.617648.2555115-.168823.3461768-.234705.4904171-.321176.3509118-.212753.7453476-.34365 1.1539226-.382941l2.5427507-.255294 3.4370407-.341765 12.421152-4.9.490417.1770588c.3628007-1.0159784.6695997-2.05106.9190169-3.1005882-.3772637-.1667975-.7123948-.4158217-.9808341-.7288235-.2947236-.2333927-.5269397-.5361486-.6758689-.8811765-.3132076-.7329412.2843594-2.2976471.164846-3.1952941-.1978153-1.4370589-.9313803-2.8247059-1.5289473-4.1176471-1.2775571-2.7958823-2.2089375-5.8264706-2.060576-8.8941176.1483615-3.0676471 1.5289474-6.1764706 4.0799404-7.8976471 1.3187686-.8852941 2.8848064-1.3629412 4.2406654-2.17 1.0673783-.63 2.0070009-1.4535294 3.0249255-2.1617647 5.072909-3.4417716 11.5998169-3.9128545 17.115144-1.2352941 2.5798409 1.2929412 4.7805359 3.22 7.2161369 4.7682353s5.303923 2.7382353 8.151639 2.2811764c.040535.1162875.069522.236277.086544.3582353l.239027-.0288235c.490417 1.3588235-.71296 2.7011765-1.82155 3.6276471-2.101787 1.7623529-4.487934 3.5164706-7.232621 3.5782353-1.059136.0247058-2.18009-.2017647-3.144439.2388235-.209639.0989051-.406204.2233828-.585204.3705882 1.239379 5.048667-.414337 10.3683752-4.2983611 13.8270589l6.3383321-2.3182353s.263753.14.675868.4117647l8.79866-5.962353s17.650894-6.5305882 22.555064 3.5947059c4.904171 10.1252941-21.248659 4.9-21.248659 4.9l-5.596524 3.1252941c.185339 1.1718049-.031047 2.3718036-.614052 3.4052941l-15.2482621 9.5776471c3.0826216.963529 8.1475171 2.507647 9.0665341 2.507647 1.306405 0 4.904171 1.305294 7.19141 6.530588 2.28724 5.225294 10.459484 30.701177 17.650894 34.946471s26.15283 32.661176 26.15283 32.661176l-.086544.222353c.337934.090589.669.189412.993198.296471 4.743446 1.568823 7.933217 4.871176 9.857795 7.547647.6526.920064.775187 2.114442.323069 3.147698s-1.412874 1.754405-2.532006 1.900537c-7.484012.959412-11.572195-2.540588-13.537984-5.188235-.127756-.172941-.24727-.341765-.358541-.502353-.583885.254511-1.241123.285293-1.846276.086471l-9.181926-7.506471s7.162562 7.160588 2.963108 13.682941l.317329.452941c7.093673 10.287815 12.288449 21.760431 15.338927 33.875883 0 0 3.923337 2.94 4.248908 14.695882s4.248907 30.701177 4.248907 30.701177 2.629295 22.54.980835 29.4c0 0-.189573.271764-.53575.691764.123634.148236.255511.304706.412115.47353 1.425919 1.564706 4.001639 3.72647 7.005958 3.084117 4.5786-.98 4.5786 7.185294-1.961668 7.82353-4.211817.411764-12.482969 2.330588-17.844588 3.64-1.197071.292637-2.461777-.015631-3.389491-.826179-.927715-.810548-1.402156-2.021778-1.271532-3.246174.32145-2.927647.902533-6.468824 1.961669-8.988824.065938-.15647.131876-.308823.201936-.457059-.193694-.181176-.383267-.370588-.576961-.572353 0 0 0-14.370588-2.28724-18.290588 0 0-6.210576-29.721176-5.885005-37.235882.267875-5.86353-16.117825-28.757647-23.222691-38.425882l.057696-.366471c-1.821549-2.470588-2.975471-3.985882-2.975471-3.985882l-5.555313 35.601176s-2.616932 7.823529-5.885005 12.085294c0 0-14.0572493 27.110588-15.6892254 35.601177-1.2363456 6.44-3.7914598 10.244706-4.9453824 11.710588.1359981.135882.2761172.275882.4121152.411765 1.4877359 1.383529 3.6843099 2.775294 6.1817279 2.244117 4.5785998-.98 4.5785998 7.185294-1.9616683 7.82353-4.2118173.411764-12.4829692 2.330588-17.8445879 3.64-1.1970709.292637-2.4617768-.015631-3.3894915-.826179-.9277148-.810548-1.4021556-2.021778-1.2715313-3.246174.3709037-3.401177 1.1003476-7.625883 2.5097815-10.125294.1181397-.211373.2417743-.40902.3709037-.592942-.4994995-.204681-.9440887-.523385-1.2981629-.930588 0 0 8.4978153-20.588235 8.4978153-26.130588 0 0 3.5977657-21.230588 15.6892255-29.070588 0 0-1.1456803-26.550589-4.5868421-41.328824-.0851705-.365098-.1717147-.721961-.2596326-1.070588-3.2109965-.510389-6.3938993-1.183809-9.5363456-2.017647l-.325571-9.8-1.6484608 7.823529-18.3226415-11.397647s.1607249-2.058823.4698113-5.217059c.1566038-1.581176.3461768-3.434117.5769613-5.443529.1813307-1.605882.3915094-3.294118.6181728-5.056471.0576961-.43647.116766-.874313.1772095-1.313529.2390268-1.758235.5027806-3.541176.78714-5.282941.10715-.653334.2170474-1.299804.3296922-1.939412.1483615-.852353.3049652-1.688235.4656902-2.503529.0796756-.406275.1620986-.807059.2472691-1.202353s.1703409-.782353.2555114-1.161177c.0851705-.378823.1717147-.750784.2596326-1.115882l.1318768-.539412c.0906654-.354118.1813307-.698627.2719961-1.033529.3839778-1.397481.6065953-2.834283.6635054-4.282353.0219795-.576471.0219795-1.151569 0-1.725294-.0219794-.573726-.0769281-1.146079-.164846-1.717059-.0384641-.27451-.0851705-.558628-.1401192-.852353-.2104075-1.136826-.5206946-2.25291-.9272592-3.335294-.2033102-.54902-.4313472-1.084314-.6841112-1.605883-.5934459-1.235294-1.2363456-2.573529-1.8792453-3.981764-.3269447-.70549-.6566369-1.426079-.9890765-2.161765s-.6676266-1.482353-1.005561-2.24c-3.1815293-7.197647-6.3218471-15.235294-7.1625621-20.497647-.0865442-.555882-.1524826-1.078824-.1854518-1.568824-.0360062-.453407-.0428889-.908654-.0206058-1.362941z" fill="url(#e)"/><path d="m102.052085 93.5364706 10.780934-7.2882353s17.123386-6.3370588 21.879195 3.4835294c4.75581 9.8205882-20.605759 4.7517647-20.605759 4.7517647l-10.780934 6.0199996z" fill="#f7bbc3"/><path d="m70.1502483 315.658824c5.2008937-1.268236 13.2247765-3.121177 17.3088381-3.528824 6.3424528-.634118 6.3424528-8.552353 1.9039722-7.601176-2.4067527.514705-4.5332671-.82353-5.9797915-2.178236-.447964-.419454-.8678526-.867872-1.2569513-1.342353-.5283284-.631519-1.254254-1.066704-2.060576-1.235294-2.3779046-.518823-7.3274081-1.301176-10.3729394.337647-.7050633.43462-1.2756922 1.056076-1.6484608 1.795294-1.3682224 2.425294-2.0605759 6.522353-2.4356008 9.820589-.1234458 1.18946.3417105 2.364285 1.2461885 3.147445s2.1345 1.076137 3.295321.784908z" fill="#fff"/><path d="m150.376713 318.825294c5.200894-1.268235 13.224777-3.121176 17.308838-3.528823 6.342453-.634118 6.342453-8.552353 1.903972-7.601177-2.884806.625882-5.40283-1.474118-6.783416-2.989412-.168967-.185294-.32145-.362353-.453326-.527058-.528329-.631519-1.254254-1.066704-2.060576-1.235295-2.377905-.518823-7.327409-1.301176-10.37294.337647-.890169.481765-1.603128 1.535883-2.171847 2.882353-1.026167 2.445883-1.590765 5.88-1.903972 8.717059-.12696 1.189675.335294 2.366369 1.238286 3.152124.902991.785754 2.133014 1.081627 3.294981.792582z" fill="#fff"/><path d="m147.75566 306.163529c7.570556 7.794706 14.061371-.144117 15.046326-1.453529-.168967-.185294-.32145-.362353-.453327-.527059-.528328-.631519-1.254254-1.066704-2.060576-1.235294-2.377904-.518823-7.327408-1.301176-10.372939.337647-.877805.452941-1.590765 1.511177-2.159484 2.878235z" fill="#000" opacity=".1"/><path d="m68.0896723 301.885294c3.2969215 2.24 14.321003 1.688235 14.321003 1.688235.3621646-.386896.695495-.799764.9973187-1.235294-.447964-.419454-.8678526-.867872-1.2569513-1.342353-.5283284-.631519-1.254254-1.066704-2.060576-1.235294-2.3779046-.518823-7.3274081-1.301176-10.3729394.337647-.6963337.435306-1.2594759 1.053523-1.627855 1.787059z" fill="#000" opacity=".1"/><path d="m67.4921053 300.398824c2.2213009 2.849411 14.9020854 2.219411 14.9020854 2.219411s3.8038232-3.800588 5.3904667-12.04c1.5866435-8.239411 15.2194136-34.530588 15.2194136-34.530588 3.169166-4.117647 5.707796-11.722941 5.707796-11.722941l5.390467-34.514118s25.996226 34.205294 25.695382 41.49353c-.300844 7.288235 5.707795 36.115882 5.707795 36.115882 2.221301 3.800588 2.221301 17.738824 2.221301 17.738824 8.242304 8.552352 15.219414-1.585295 15.219414-1.585295 1.586644-6.654117-.951986-28.510588-.951986-28.510588s-3.803823-18.372941-4.121152-29.778823c-.317328-11.405883-4.121152-14.255294-4.121152-14.255294-2.961893-11.753918-8.004577-22.88357-14.889722-32.862942-1.949304-2.738235-3.18565-4.204117-3.18565-4.204117l-51.3825223 6.02c.8242304 1.647059 1.5619166 4.00647 2.2089374 6.798235 3.3381331 14.333529 4.446723 40.089412 4.446723 40.089412-11.7329196 7.601176-15.2194141 28.193529-15.2194141 28.193529.0041211 5.385883-8.2381827 25.335883-8.2381827 25.335883z" fill="#575988"/><g fill="#000" opacity=".05" transform="translate(66.762661 193.941176)"><path d="m50.1667825 20.0817647.6593843-4.2205882s26.0003476 34.2135294 25.6830189 41.5017647 5.7077954 36.1158823 5.7077954 36.1158823c2.2213009 3.8005883 2.2213009 17.7388235 2.2213009 17.7388235 1.7267627 1.791177 3.3999504 2.762941 4.9453823 3.178824-2.497418.654705-5.534707.177058-8.7698113-3.178824 0 0 0-13.9382352-2.2213009-17.7388235 0 0-6.0251241-28.8235294-5.7077954-36.1158823.2678749-5.7029412-15.6068024-27.9052941-22.5179742-37.2811765z"/><path d="m8.65441907 81.1217647s3.48649453-20.5882353 15.21941413-28.1935294c0 0-1.1085899-25.7517647-4.446723-40.0894118-.651142-2.7917647-1.3805859-5.14705879-2.2089374-6.79823526l51.3660377-6.02s.1195134.14.3379345.4117647l-47.900149 5.6082353c.8242304 1.64705882 1.5619166 4.00647056 2.2089375 6.79823526 3.338133 14.3335294 4.4467229 40.0894118 4.4467229 40.0894118-11.7287984 7.6011765-15.2235352 28.1935294-15.2235352 28.1935294 0 5.3858824-8.24230392 25.3441173-8.24230392 25.3441173 1.30640516 1.68 6.25178752 2.149412 10.09270112 2.252353-3.0455313.078236-12.05849059.107059-13.89652436-2.252353.00412115-.008235 8.24642503-19.9582349 8.24642503-25.3441173z"/></g><path d="m145.155214 189.527059c.383409.936783.889207 1.818753 1.50422 2.622941 1.908093 2.565294 5.872641 5.962353 13.134111 5.031765 1.086045-.140534 2.018817-.839742 2.457627-1.842245.43881-1.002502.319396-2.161485-.314628-3.053638-1.86276-2.594117-4.945382-5.801764-9.561072-7.321176-1.311045-.435713-2.669803-.712211-4.046972-.82353z" fill="#f7bbc3"/><path d="m78.2112214 100.927647 25.4275076-9.2935294s7.310923 3.8047059 4.426117 9.1905884l-24.7269115 15.515294z" fill="#0a0a18"/><path d="m78.2112214 100.927647 25.4275076-9.2935294s7.310923 3.8047059 4.426117 9.1905884l-24.7269115 15.515294z" fill="#323232" opacity=".670108"/><path d="m77.3210526 85.6182353s.3173287 14.8894117-6.3424528 19.9582357c-6.6597815 5.068823 19.340566 7.918235 19.340566 7.918235s-4.1211519-15.2064707 0-23.124706c4.121152-7.9182353-12.9981132-4.7517647-12.9981132-4.7517647z" fill="#f7bbc3"/><path d="m84.2940417 199.981765c.8242304 1.647059 1.5619166 4.00647 2.2089374 6.798235 30.6654919 4.677647 52.0089379-8.066471 52.0089379-8.066471.115392-.185294.226663-.36647.329692-.547647-1.928699-2.738235-3.165045-4.204117-3.165045-4.204117z" fill="#000" opacity=".1"/><path d="m145.155214 189.527059c.383409.936783.889207 1.818753 1.50422 2.622941 2.93426-.485882 5.283317-6.094118 5.716038-7.189412-1.311045-.435713-2.669803-.71221-4.046972-.823529z" fill="#000" opacity=".1"/><path d="m74.782423 98.9223529 11.4155909 4.1176471 4.7558093 6.337059s9.8289478 3.16647 11.0982618 3.16647c1.269315 0 4.75581 1.268236 6.977111 6.337059 2.221301 5.068824 10.146276 29.778824 17.123386 33.896471s25.36569 31.681176 25.36569 31.681176-3.169166 8.552353-6.97711 7.288236l-8.864598-7.288236s6.97711 6.971177 2.851837 13.304118c0 0-26.000347 15.523529-61.8172789 6.02l-.3173287-9.503529-1.5866434 7.601176-17.7539226-11.088824s1.5577954-20.444117 4.4426018-30.853529c1.1873598-4.38134.7482209-9.043953-1.2363456-13.127059-4.6033267-9.585882-11.7081926-25.595294-10.8427507-31.434117 1.0220457-6.880589 4.9124131-9.882353 6.3960278-10.771765.339772-.205605.7214605-.332257 1.1168322-.370588l5.8025819-.56z" fill="#323232"/><path d="m94.283714 130.751765s6.342453 29.461764 13.315442 34.213529 25.683019 19.958235 26.317676 22.494706" fill="#000" opacity=".05"/><path d="m97.1355511 129.808824s6.3424529 29.461764 13.3154419 34.213529 25.683019 19.958235 26.317676 22.494706" fill="#262626"/><path d="m91.1145482 109.216471s-21.8791957-7.288236-28.2175273-5.385883" fill="#000" opacity=".1"/><g fill="#000" opacity=".05" transform="translate(49.041708 98.823529)"><path d="m11.2177756 47.9870588c-4.60332674-9.5858823-11.70819268-25.5952941-10.84275077-31.4341176 1.02204568-6.88058826 4.9124131-9.88235296 6.3960278-10.77176473.33977202-.20560516.72146052-.33225738 1.11683218-.37058823l2.47269119-.24705883c-.2584417.06220519-.50582902.16357551-.73356508.30058824-1.48361469.90588235-5.35749751 3.89117647-6.3960278 10.77176475-.86544191 5.8347058 6.23942403 21.8482352 10.84275078 31.4341176 1.9805092 4.0783742 2.4195763 8.7343765 1.2363455 13.1105882-2.8848063 10.4094118-4.4549652 30.8576471-4.4549652 30.8576471l15.2894737 9.5488237-.3873883 1.857059-17.75392254-11.0888239s1.56603774-20.4317647 4.45084414-30.8411765c1.1873597-4.3813397.7482209-9.0439526-1.2363456-13.1270588z"/><path d="m16.546425 4.53352941-2.7446872.27588235 11.9389772-4.71058823 1.0714995.38705882z"/></g><path d="m97.1355511 160.538824s-9.8289473-5.385883-12.9981132-4.117648c-3.1691658 1.268236-14.9020854-.317058-14.9020854-.317058" fill="#000" opacity=".05"/><path d="m78.4296425 89.5752941c.3626614-3.1747059-1.1085899-2.6929412-1.1085899-2.6929412s17.1233863-3.1664705 12.9981132 4.7517647c-1.0302879 1.9847059-1.5454319 4.422353-1.7391261 6.9670589h-.1607249c-4.7764151.0041176-7.5540715-5.32-9.9896723-9.0258824z" fill="#000" opacity=".05"/><ellipse cx="88.419315" cy="83.715882" fill="#f7bbc3" rx="13.632771" ry="13.621177"/><path d="m73.5419563 87.7429412c-1.2363456-2.7094118-2.142999-5.6494118-1.9905164-8.6470588.1524826-2.9976471 1.4836147-5.9911765 3.9563059-7.6382353 1.2775571-.8605883 2.7858987-1.3217647 4.1211519-2.1041177 1.0344092-.6135294 1.9493049-1.4082353 2.9342602-2.1 4.9187255-3.3407605 11.24918-3.8008512 16.6-1.2064706 2.5015391 1.2352941 4.6362961 3.1252941 7.0059581 4.6241177 2.369663 1.4988235 5.143198 2.6558823 7.908491 2.2111764.473932 1.3176471-.692354 2.6188236-1.767974 3.5205883-2.039971 1.7088235-4.351937 3.4135294-7.005959 3.4711764-1.030288.0247059-2.114151-.197647-3.049652.2347059-.630255.3465272-1.165302.8429345-1.557796 1.4452941-1.2810453 1.6996071-2.3662644 3.5380761-3.2351039 5.4805883-.354419.7947059-.7170804 1.6470588-1.4506454 2.1288235-1.2363456.782353-2.8147468.1317647-4.2653923.0741177-2.2583913-.0864706-4.285998 1.33-5.9591857 2.8535294s-3.2598312 3.2529411-5.3574975 4.0558823c-1.57428.5970588-4.7228401.5764706-5.5264648-1.3052941-.300844-.7082353.2761172-2.2276471.1566038-3.0964706-.2266633-1.3917647-.9396226-2.7382353-1.5165839-4.0023529z" fill="#000" opacity=".1"/><path d="m73.2246276 87.4258824c-1.2363456-2.7094118-2.142999-5.6494118-1.9905164-8.6470589.1524826-2.997647 1.4836147-5.9994117 3.9563059-7.6629411 1.2775571-.8605883 2.7858987-1.3217648 4.1211519-2.1041177 1.0344092-.6135294 1.9493049-1.4082353 2.9342602-2.1 4.9187255-3.3407605 11.24918-3.8008513 16.6-1.2064706 2.5015388 1.2352941 4.6362958 3.1252941 7.0059578 4.6241177 2.369663 1.4988235 5.143198 2.6558823 7.908491 2.2111764.473933 1.3176471-.692353 2.6188236-1.767974 3.5205883-2.03997 1.7088235-4.351937 3.4135294-7.005958 3.4711764-1.030288.0247059-2.114151-.197647-3.049653.2347059-.630254.3465272-1.165302.8429345-1.557795 1.4452941-1.281046 1.6996071-2.3662651 3.5380761-3.2351046 5.4805883-.354419.7947059-.7170804 1.6470588-1.4506454 2.1288235-1.2363456.7823529-2.8147468.1317647-4.2653923.0741177-2.2583913-.0864706-4.285998 1.33-5.9591857 2.8535294s-3.2598312 3.2529411-5.3574975 4.0558823c-1.57428.5970588-4.7228401.5764706-5.5264648-1.3052941-.300844-.7082353.2761172-2.2276471.1566038-3.0964706-.2266633-1.3670588-.9396226-2.7135294-1.5165839-3.977647z" fill="#121212"/></g></g><g fill-rule="nonzero" transform="translate(318 162)"><path d="m12.3713249 2.48708386-.9909256-2.47126415-10.50272235 4.47584696c-.48568494.20727334-.80297425.69802581-.80362976 1.24297694v11.77777149l3.03484573.3661132v-11.23538155z" fill="url(#f)" transform="translate(9.931034)"/><path d="m21.9310345 2.2206401-.7545803-1.81230677-10.061442 4.07301933c-.4658973.1888826-.7700777.63639606-.7701846 1.13310386v10.71887678h1.9873215v-10.22431156z" fill="#f2f2f2"/><path d="m24 14.7h-24v3.771563h1.63875919l3.33632287 30.528437h14.34274884l2.9657436-30.7075089h1.7164255z" fill="url(#g)"/><path d="m18.6837599 48.5916667h-13.01347121l-3.18753007-32.2583334h19.03448278z" fill="#6c63ff"/><path d="m1.241379 15.925h21.931035v2.041667h-21.931035z" fill="#6c63ff"/><ellipse cx="11.793103" cy="30.420833" fill="url(#h)" rx="5.586207" ry="5.5125"/><ellipse cx="11.586207" cy="30.420833" fill="#fff" rx="4.965517" ry="5.104167"/></g><g transform="translate(401 125)"><g fill-rule="nonzero"><path d="m55.8782678 30.5830571c-1.1812874-2.2060824-2.8555438-4.1028415-4.8894904-5.5392863-.1453666-.1014705-.3130906-.1654064-.4885228-.1862235.2395722-1.5932453.1892706-3.3537469-.6999602-4.6814514-2.1101114-3.1502805-12.8610224.1008711-12.8610224.1008711-7.5358686-2.6416145-14.0674094.7112702-14.0674094.7112702s-8.3398423-1.3208072-12.1576519-.3043374c-1.80062843.479353-2.23799698 2.3364149-2.19707361 4.1658882h-.00596799c-.32340079-.0005834-.62942293.147957-.831256.4034842-1.01541119 1.2828728-4.082959 5.2340868-3.99940711 5.9970857.10060329.9147367 3.41624905 12.8020021 3.26619668 18.5430305l46.31928983-.5172874s.7673133-11.5527529 2.6864489-17.8765919c.0831797-.271344.0565037-.5649754-.0741736-.816452z" fill="#3f3d56"/><path d="m7.76642336 31.392904 1.76596561-3.9135652 1.48675533 7.6200496.0173521 3.5369752z" fill="#000" opacity=".1"/><path d="m51.5036496 31.3325514-1.8924972-3.8532126-2.195094 7.1136895.4226211 4.0433353z" fill="#000" opacity=".1"/><path d="m11.0364964 34.708377 36.3850865-.2042448.4032346 4.1322314-36.6482142-.1034372z" fill="#3f3d56"/><path d="m11.0364964 34.708377 36.3850865-.2042448.4032346 4.1322314-36.6482142-.1034372z" fill="#000" opacity=".1"/><rect fill="#fff" height="4.545455" opacity=".1" rx="2.272727" width="36.788321" x="11.036496" y="38.223141"/><path d="m40.4671533 23.4566175s-.1184332-.1766288-.2582502-.0812492c-.0666187.0468066-.3799733.4707158-.6875707.9016901-.1513314.2110714-.3018403.4239091-.4210959.5934728-.1472191.208422-.2467359.3532576-.2467359.3532576l-.0592166.1192245-.359412.7215287-.3380282.6782547-.0822453.3196981 1.1415648.416844 1.2994756-.3806351-.0559268-.2587612-.0098694-.0441572.0106919-.5952391.0296083-1.6779738.0139817-.7550882v-.0883144z" fill="#ffe09c"/><path d="m37.6058394 27.6445823s1.3025926.3947445 1.9703884.1881493c0 0 .5774827-.1564221.8050022-.3076794 0 0 .2422822-.1077246-.0868395-.4589365 0 0-.8432116.4390149-1.6412666.2663603l-.7980551-.1733924z" fill="#e7c4c3"/><circle cx="38.779528" cy="26.645382" fill="#ff7f8e" r="1" transform="matrix(.86277851 -.50558208 .50558208 .86277851 -8.150043 23.262554)"/><circle cx="39.630087" cy="25.61284" fill="#ff7f8e" r="1" transform="matrix(.86277851 -.50558208 .50558208 .86277851 -7.511293 23.550894)"/><path d="m40.0583942 26.2772511c-.1709689-.0604591-.3658439-.0474041-.523477.0350685-.2617384.1298484-.3691183.3876495-.2382491.5753136.1308693.1876641.4474162.235054.7080361.1052056.0178967-.009478.0357933-.018956.0525714-.0293817l-.0134225-.04739z" fill="#ff7f8e"/><path d="m38.7776761 25.1706285c-.0619125-.0891056-.1643797-.1511298-.2818873-.1706285l-.4811903.7831657c.1710363.067124.3692511.0556202.5285386-.0306748.2576625-.1313264.3622691-.3920621.234539-.5818624z" fill="#ff7f8e"/><path d="m39.6055978 24.351698c-.0665883-.1113351-.1835718-.1787307-.3092111-.1781404-.166847.2264657-.3327872.4548265-.4642699.6367571l.0054407.0113707c.1051861.189511.3627108.2340461.5748967.104231.2121859-.129815.2965162-.3866025.1931436-.5742184z" fill="#ff7f8e"/><path d="m40.0583942 23.7603306c-.0515066.0125102-.1009179.0320367-.1467552.057995-.2336102.1324219-.328452.3953326-.2126452.5867161.0736849.1141595.203395.1829932.3424287.1817177z" fill="#ff7f8e"/><path d="m38.0923025 26.6524224-.077704-.1513067c.116349-.0400872.2237373-.1089295.3147013-.2017422.0058278-.0067248.0106843-.0145703.0155408-.021295.09713-.1412196.0767327.1524275.0767327.1524275s-.2389399.2342451-.3292708.2219164z" fill="#94cc79"/><path d="m39.3185799 26.6524254-.077704-.1521714c.1162646-.0402503.223612-.1089508.3147012-.2014033 0-.0067135.0106843-.0134269.0155408-.0212593.09713-.1398634.0767327.1521714.0767327.1521714s-.2389398.2349706-.3292707.2226626z" fill="#94cc79"/><path d="m39.3185799 25.8261281-.077704-.1524428c.1161812-.0399899.2235221-.1084264.3147012-.2006417.0048565-.0078464.0106843-.0145718.0155408-.0212972.09713-.1412338.0767327.1513219.0767327.1513219s-.2389398.2331479-.3292707.2230598z" fill="#94cc79"/><path d="m39.3185799 24.9996112-.077704-.1520446c.1162646-.0402168.223612-.10886.3147012-.2012356 0-.0067079.0106843-.0134157.0155408-.0212416.09713-.1408649.0767327.1520447.0767327.1520447s-.2389398.2336569-.3292707.2224771z" fill="#94cc79"/><path d="m39.726405 24.1731646-.07677-.1522002c.1160729-.0401428.2231757-.1088786.3138825-.2014414.0056978-.0065662.0108994-.0136797.0155483-.0212632.0971772-.1398899.0777418.1522001.0777418.1522001s-.2400277.2338958-.3304026.2227047z" fill="#94cc79"/><path d="m39.727339 25.4127553-.077704-.1523876c.1162769-.0397119.2236645-.1081533.3147012-.200569 0-.0078434.0106843-.0145664.0155408-.0212894.0971301-.1411826.0767328.1512671.0767328.1512671s-.2389399.2353044-.3292708.2229789z" fill="#94cc79"/><path d="m37.2337431 27.111485s-.1679991.4290647.2152489.3604144c.1705511-.1939136.2871866-.4277129.3386232-.6787805 0 0 .8286205-1.7806187 1.0736192-1.9436633 0 0 1.0797443-1.4476644 1.1961187-1.4691177 0 0 .0376248-.1407332-.3394982.1570377-.377123.297771-1.2031186 1.444232-1.2031186 1.444232l-.7874958 1.2588759-.185499.5020058z" fill="#e7c4c3"/><path d="m37.2337431 27.111485s-.1679991.4290647.2152489.3604144c.1705511-.1939136.2871866-.4277129.3386232-.6787805 0 0 .8286205-1.7806187 1.0736192-1.9436633 0 0 1.0797443-1.4476644 1.1961187-1.4691177 0 0 .0376248-.1407332-.3394982.1570377-.377123.297771-1.2031186 1.444232-1.2031186 1.444232l-.7874958 1.2588759-.185499.5020058z" fill="#fff" opacity=".2"/><path d="m24.9343066 36.1962163c.1279708.4105043.2855111.8116636.4714426 1.2004779.5339436-.1090005 1.0591999-.2552085 1.5717341-.4375008.0162834-.0052984-.2938763-.4011685-.326443-.4337161-.1263034-.1362742-.2768307-.249108-.4443037-.3330456-.1636093-.0696368-.365213-.0166523-.5427794-.0075692-.2419246.0121107-.4851414.0158953-.7296506.0113538z" fill="#fbbebe"/><path d="m26.4819999 36.4410372c-.303114-.0949554-.4881545-.4000434-.6115149-.6937016-.1233603-.2936583-.2229297-.6154515-.4573144-.8299802-.0904135.013753-.1678671.0718811-.206188.154742-.0365789.0823825-.0774614.1627946-.1224792.2409053-.096926.1406746-.2643436.2092535-.3921097.3288269s-.1991388.3015712-.3321918.4220238c-.1674176.1512252-.4035646.1890315-.6229698.2391468-.3398521.0769826-.6680966.198179-.976309.3604787-.1134238.068304-.2347332.1226261-.3612696.1617758-.1393352.0271136-.2821144.0318625-.4229498.0140675l-.9692599-.0685789c-.0863322-.0110489-.1739141-.007482-.2590567.0105506-.2015375.0733693-.3281998.2730577-.3084009.4862066.0251119.2087753.1362176.3976874.3066386.5213753.1693727.1201157.3559207.2140747.5533593.2787115.8455148.3189336 1.7161505.5671421 2.6029034.7420586v.1916692c.616415.30318 1.2944627.4608141 1.9816959.4607093.0506854.0035897.1014862-.0051603.1480324-.0254973.0635885-.045897.1081053-.1134645.1251226-.1899107.2333336-.680964.3694834-1.3912997.4044458-2.1101191.01726-.1818593.0032539-.3653242-.0414139-.5424765-.0528687-.1758432.1286472-.1011098-.0396515-.1696887" fill="#2f2e41"/><path d="m44.0843834 32.7800899c-2.7620167.1731261-5.4952889-.6587446-8.2564601-.7470389-.3438099-.0222268-.6889846.0004621-1.0271963.0675191-.3550803.0813693-.6864884.245839-1.0145149.4033837-1.483728.7063544-3.0173363 1.2915204-4.5500992 1.8758209l-1.7601833.6717291c-.3516985.1341727-.7160784.2700767-1.0906035.2467046-.1690858-.0103875-.374525-.0363564-.4683676.1064726-.2866005.4328151-.1513318 1.0725159.0380443 1.5581345.0608709.1575447.1690858.3289395.3297173.3462521.1158238.0121188.2240387-.056266.3381716-.086563.3204176-.086563.6399898.1333071.9697071.1687979.4074968.0441471.7854036-.1930356 1.1700738-.3384615.6374536-.2415108 1.3349325-.2337201 2.0053578-.3462521 1.1244206-.1921699 2.1659892-.7262638 3.1399235-1.3348019.3702979-.2319889.7456684-.4804248 1.1717646-.5652566.4895035-.0978162.9925337.0311627 1.4735829.1731261 1.1449345.3315105 2.2720404.7244728 3.3766436 1.1772572.5816552.238914 1.1599287.4942749 1.7652559.6596103 1.309436.3525254 2.6944188.2697689 3.9549171-.2363171.441314-.1791855.9223631-.4951405.947726-.983356.0143723-.278733-.196985-.5193782-.3381717-.7617547-.0896154-.1532165-.1800763-.3055675-.2789915-.4527246-.4793583-.7150106-1.0576318-1.6533539-1.8962974-1.6022817z" fill="#2f2e41"/><path d="m44.0843834 32.7800899c-2.7620167.1731261-5.4952889-.6587446-8.2564601-.7470389-.3438099-.0222268-.6889846.0004621-1.0271963.0675191-.3550803.0813693-.6864884.245839-1.0145149.4033837-1.483728.7063544-3.0173363 1.2915204-4.5500992 1.8758209l-1.7601833.6717291c-.3516985.1341727-.7160784.2700767-1.0906035.2467046-.1690858-.0103875-.374525-.0363564-.4683676.1064726-.2866005.4328151-.1513318 1.0725159.0380443 1.5581345.0608709.1575447.1690858.3289395.3297173.3462521.1158238.0121188.2240387-.056266.3381716-.086563.3204176-.086563.6399898.1333071.9697071.1687979.4074968.0441471.7854036-.1930356 1.1700738-.3384615.6374536-.2415108 1.3349325-.2337201 2.0053578-.3462521 1.1244206-.1921699 2.1659892-.7262638 3.1399235-1.3348019.3702979-.2319889.7456684-.4804248 1.1717646-.5652566.4895035-.0978162.9925337.0311627 1.4735829.1731261 1.1449345.3315105 2.2720404.7244728 3.3766436 1.1772572.5816552.238914 1.1599287.4942749 1.7652559.6596103 1.309436.3525254 2.6944188.2697689 3.9549171-.2363171.441314-.1791855.9223631-.4951405.947726-.983356.0143723-.278733-.196985-.5193782-.3381717-.7617547-.0896154-.1532165-.1800763-.3055675-.2789915-.4527246-.4793583-.7150106-1.0576318-1.6533539-1.8962974-1.6022817z" fill="#000" opacity=".1"/><path d="m30.2481752 36.1379024c.4148901.1563994.8341133.3005146 1.2576696.4323455.2364224-.429649.6792066-.7289651.7799501-1.2197357.0085553-.0219497.0082079-.0469014-.0009544-.0685492s-.0262628-.0379205-.04698-.0447056c-.3026343-.1854437-.6386412-.2944177-.9838746-.3190908-.2729826-.0188758-.3972871.2957208-.5215917.5177361-.0495593.0889858-.3729136.7442455-.484219.7019997z" fill="#fbbebe"/><path d="m30.4738165 35.5985838c-.2635373-.0454911-.49635-.2016367-.6418936-.430513-.0614579-.1098069-.1271837-.2614451-.2500995-.2501158s-.1707164.1472807-.1929095.2614451c-.0827744.4321325-.2030343.8558911-.3593581 1.266266-.156944.4112437-.4229546.7697419-.7682237 1.0353228-.1621806.1141644-.3414328.2004413-.5001991.3207061-.1425482.1071925-.2663175.243144-.426791.3259349-.1048863.0495979-.2133203.0909678-.3243611.1237507-.1628917.0586762-.3186847.1361597-.4643486.2309433-.1279361.0755535-.2362442.1813512-.3158253.3085052-.0817592.1308932-.0917576.2955401-.0264611.435742.068263.1139628.1810491.1926338.3098503.2161279.1271318.0226739.2568326.0261973.3849655.0104578.5078812-.0383452 1.0157625-.0871483 1.5236438-.1307225.2146077-.013278.427992-.0424036.6384793-.0871484.1118192-.0278875.2202241-.0636183.3311898-.0932488.1899353-.0498245.3844923-.0790358.5804357-.0871484.0573646-.0045995.1150781.0007036.1707164.0156867.1177944.0392168.2005918.1586101.322654.1830116.0778803.0075847.1564273-.0031476.2296136-.0313734.3653331-.1019636.7502985-.0993491 1.1284353-.1202647.1707164-.0087149.3619188-.0409598.4387412-.1934694.0956012-.1899835-.0631651-.4026256-.1254766-.6100387-.0318138-.1303883-.04956-.2639389-.0529221-.3982681-.0287549-.3314681-.1240591-.6533394-.2799748-.94556-.1288909-.2422725-.3055824-.5106895-.2151027-.7712632.030729-.0871484.0921869-.1742968.0853582-.2614452-.0290218-.4174407-.9688155-.2736459-1.2001363-.3233205z" fill="#2f2e41"/><path d="m40.0231071 28.5018155c-.5063197-.2010731-.9118252-.563623-1.1382412-1.0176661-.0481564-.0975952-.087557-.1991257-.1330867-.297508-.1501639-.3274658-.3834397-.618827-.6811936-.8508098-.0647558-.0636171-.1571588-.0986813-.2530397-.0960211-.0932247.0255249-.1640715.0940161-.1856209.1794493-.0262037.0895678-.0327464.1828665-.0192626.2746832.0255825.2163178.0671175.4308697.124331.6422395l.1383401.5674688c.0170606.0874846.0464844.1726515.087557.2534328.059404.0956418.1380848.1805141.2320261.2502844.1269577.1054658.2556665.2069963.3861264.3061656.1818865.1564659.418728.2510877.6698112.2675998.5673695.094447 1.1452458.2313951 1.6250582.5643206-.006129 0 0-.3809361-.0105068-.4242243-.0218893-.1141234-.0394007-.2274598-.1217043-.3045915-.1882476-.1731527-.4938216-.2227374-.7205942-.3148232z" fill="#fbbebe"/><path d="m40.0231071 28.5018155c-.5063197-.2010731-.9118252-.563623-1.1382412-1.0176661-.0481564-.0975952-.087557-.1991257-.1330867-.297508-.1501639-.3274658-.3834397-.618827-.6811936-.8508098-.0647558-.0636171-.1571588-.0986813-.2530397-.0960211-.0932247.0255249-.1640715.0940161-.1856209.1794493-.0262037.0895678-.0327464.1828665-.0192626.2746832.0255825.2163178.0671175.4308697.124331.6422395l.1383401.5674688c.0170606.0874846.0464844.1726515.087557.2534328.059404.0956418.1380848.1805141.2320261.2502844.1269577.1054658.2556665.2069963.3861264.3061656.1818865.1564659.418728.2510877.6698112.2675998.5673695.094447 1.1452458.2313951 1.6250582.5643206-.006129 0 0-.3809361-.0105068-.4242243-.0218893-.1141234-.0394007-.2274598-.1217043-.3045915-.1882476-.1731527-.4938216-.2227374-.7205942-.3148232z" fill="#000" opacity=".1"/><ellipse cx="45.576642" cy="23.140496" fill="#2f2e41" rx="1" ry="1"/><path d="m45.0853878 22.5353457c-.180761-.0212598-.3825408-.0363189-.5279904.0806104-.0772106.071518-.1388671.1597459-.180761.2586619-.1495396.2708517-.2661958.560422-.3472294.8619109-.0596932.2586619-.0697822.531497-.1437681.7830722-.1370421.4712606-.4876344.8689975-.5279904 1.3606322-.0176557.2196855.0176558.4774615-.1353606.6280523-.0373177.0330707-.0772596.062707-.1193863.0885828-.1057173.0746024-.1953732.1717816-.2631545.2852367-.0459204.1019051-.1091813.1940781-.1866463.2719493-.1362013.1062994-.3615221.0947836-.428782.2595477s.1059344.3543313.0655784.531497c-.0327892.1452758-.1866463.2117129-.2925806.3109257-.1362014.1266734-.1984168.3171265-.2522248.4996071-.4520713.0900472-.9189141-.0325977-1.2779385-.3357289.1858055.4836623.1900093 1.0178167.1984168 1.5404554 0 .1691932 0 .3596463-.1177049.4774615.5321941.0124016 1.0509363.1638782 1.5696785.2878941.2270022.0540356.4733417.1009845.6843697 0 .1191262-.0675549.2254309-.157639.3135994-.2657484.2824917-.3020675.5784353-.6307098.6473768-1.0497066.0386744-.2338586 0-.4748039.0117704-.7086626.0259787-.2937847.0823636-.5836965.1681499-.8645684.1496047-.5824364.2500448-1.1776679.3001474-1.7787432.0302669-.3702762.3362996-.6688003.4943604-1.0009859.3026697-.6253948.6112246-1.2773644.6339248-1.9798263.0109297-.232087-.0647377-.5164378-.2858547-.5421269z" fill="#2f2e41"/><path d="m45.0853878 22.5353457c-.180761-.0212598-.3825408-.0363189-.5279904.0806104-.0772106.071518-.1388671.1597459-.180761.2586619-.1495396.2708517-.2661958.560422-.3472294.8619109-.0596932.2586619-.0697822.531497-.1437681.7830722-.1370421.4712606-.4876344.8689975-.5279904 1.3606322-.0176557.2196855.0176558.4774615-.1353606.6280523-.0373177.0330707-.0772596.062707-.1193863.0885828-.1057173.0746024-.1953732.1717816-.2631545.2852367-.0459204.1019051-.1091813.1940781-.1866463.2719493-.1362013.1062994-.3615221.0947836-.428782.2595477s.1059344.3543313.0655784.531497c-.0327892.1452758-.1866463.2117129-.2925806.3109257-.1362014.1266734-.1984168.3171265-.2522248.4996071-.4520713.0900472-.9189141-.0325977-1.2779385-.3357289.1858055.4836623.1900093 1.0178167.1984168 1.5404554 0 .1691932 0 .3596463-.1177049.4774615.5321941.0124016 1.0509363.1638782 1.5696785.2878941.2270022.0540356.4733417.1009845.6843697 0 .1191262-.0675549.2254309-.157639.3135994-.2657484.2824917-.3020675.5784353-.6307098.6473768-1.0497066.0386744-.2338586 0-.4748039.0117704-.7086626.0259787-.2937847.0823636-.5836965.1681499-.8645684.1496047-.5824364.2500448-1.1776679.3001474-1.7787432.0302669-.3702762.3362996-.6688003.4943604-1.0009859.3026697-.6253948.6112246-1.2773644.6339248-1.9798263.0109297-.232087-.0647377-.5164378-.2858547-.5421269z" fill="#000" opacity=".1"/><path d="m44.8381344 33.5686841c-.5908147-.2735907-1.0234995-.7827734-1.5013643-1.2193364-.9122873-.832594-2.0287532-1.4219963-2.9879582-2.2030809-.6359946-.5167825-1.2042193-1.1196954-1.9027707-1.5528808-.6147843-.3798145-1.3113936-.6167581-2.035704-.6924209-.0829768-.0143324-.1682111-.0102915-.2493585.0118218-.0915761.039385-.171388.1006839-.2319817.1781717-.3094888.3395081-.5847272.7071077-.8219274 1.0977406-1.2163831 2.0054876-2.9436471 3.6943193-4.374635 5.557945-.0935912.0917994-.1010794.2373515-.0173769.3377664l.2910631.5539367c.1624741.3107451.4239964.6755327.7750098.6105127.1607364-.0287101.2884566-.1435507.4066195-.2533248l1.3032676-1.2134255 1.3701687-1.2733791c.8028129-.7456192 1.6186584-1.5089711 2.142572-2.4623166.4083572.6890434 1.1347116 1.1399614 1.6325599 1.7732733.1894082.2398141.347538.5066495.5126186.7599742.2710796.4070085.5795196.7895288.8870908 1.1712048l1.5717407 1.9497562c.2137359.2651465.4344225.5370484.7272233.716909.3727346.2288367.8254028.2896346 1.2633008.3276333.5904272.0512189 1.1832269.0720769 1.7759193.0624868.4517994-.0075997.9175004-.0363099 1.323251-.2313699.4057507-.1950601.7385183-.5910911.7176661-1.0369427-.0248426-.2291174-.1023411-.4498813-.2267686-.6459781-.5577985-1.0048548-1.2919726-1.8366044-2.3502259-2.3246768z" fill="#2f2e41"/><ellipse cx="45.781022" cy="23.347107" fill="#e8e8f0" rx="1" ry="1"/><path d="m45.664912 23.337088c.1151555.2340019.1353265.5048498.0561461.7539096-.0792426.2457167-.18998.4796713-.329335.695785-.1199032.2231002-.2635069.4320672-.4282195.6231293.7902367.0393195 1.5570092-.2769464 2.2542275-.6607393.5614618-.3077182 1.1212477-.6889468 1.4246047-1.2650637-.1803487.0445507-.3707616.0088136-.5237518-.0982988-.1504795-.1071717-.2853376-.2355197-.4005653-.3812287l-.3972133-.4555938c-.0932146-.0990109-.1750316-.2085626-.2438588-.3265232-.0860915-.1613729-.1225903-.3454342-.1047503-.5282495-.1576321.1684639-.3339624.3176293-.5254278.4444818-.2832449.18805-.5958199.3248136-.8799029.5128636-.1005603.0658175-.325145.1709546-.2673228.3068634.0578221.1359089.2874349.2350625.3653692.3786643z" fill="#fbbebe"/><path d="m45.664912 23.337088c.1151555.2340019.1353265.5048498.0561461.7539096-.0792426.2457167-.18998.4796713-.329335.695785-.1199032.2231002-.2635069.4320672-.4282195.6231293.7902367.0393195 1.5570092-.2769464 2.2542275-.6607393.5614618-.3077182 1.1212477-.6889468 1.4246047-1.2650637-.1803487.0445507-.3707616.0088136-.5237518-.0982988-.1504795-.1071717-.2853376-.2355197-.4005653-.3812287l-.3972133-.4555938c-.0932146-.0990109-.1750316-.2085626-.2438588-.3265232-.0860915-.1613729-.1225903-.3454342-.1047503-.5282495-.1576321.1684639-.3339624.3176293-.5254278.4444818-.2832449.18805-.5958199.3248136-.8799029.5128636-.1005603.0658175-.325145.1709546-.2673228.3068634.0578221.1359089.2874349.2350625.3653692.3786643z" fill="#000" opacity=".1"/><path d="m45.6301346 23.0291102c-.1485326.259519-.180421.5622913 0 .7975885.0226575.0294122.1057351.2110756.1418193.2128057.0349238-.0036007.0672656-.0205793.0906301-.0475785.1921694-.1807983.335667-.4117703.5035005-.6167903.1678335-.2050201.3818213-.3910087.6386065-.4325318.3096528-.0493086.6092356.1193788.8802868.2828758.1178981.0592557.2207638.1460427.3004219.2534636.0571295.106501.0909293.2246121.0990218.3460254.0931476.7275185.0914693 1.4645526.0889518 2.1981265 0 .531149 0 1.0648932-.1007001 1.5856615-.0503501.2698998-.1258752.5337442-.1619594.8053741-.0258886.2397989-.0362613.4811086-.0310492.7223281v1.0103942c-.0068029.1854105.0058582.3710358.0377626.5536407.0461542.2214563.1476934.4256113.215666.6410121.0701782.2475519.1182114.5012102.1434977.7577956l.1342668 1.0458619c.0419583.3295892.0730075.6920508-.120001.9515699-.0839167.1193787-.2022394.2154008-.290352.3347796-.335667.4446426-.225736 1.0804643-.3641987 1.6245893-.1089467.3983483-.3331969.7529504-.6428023 1.0164497-.2374844.2076152-.5437805.3702472-.8483984.3122879-.4120312-.0787208-.6595856-.5190381-.7720341-.9403241-.1124484-.4212859-.1527285-.8737141-.3960871-1.2266601-.1988827-.2889312-.5035005-.4705945-.7854608-.6764797-.2819603-.2058851-.5504939-.4714596-.6109139-.8209453-.0268534-.1522512-.01007-.3088277-.0260142-.462809-.0446857-.3975639-.2963454-.7382673-.656229-.8884202-.2106311-.0865064-.470773-.1150535-.5874173-.3140181.3071353-.1782031.5102139-.5077923.6176273-.8546828s.1292318-.7154075.150211-1.0787342l.0704901-1.2154143c.0310492-.5432599.045315-1.0813294.2777644-1.5692253.1032176-.2188611.2324494-.4230161.340702-.6384169.1427879-.3031013.2647668-.6161581.3650379-.9368638.1678335-.4982766.335667-.9965532.4867172-1.5008853.0601087-.2436234.1497671-.4784649.2668552-.6989713.1191618-.2110755.305457-.4870308.5437806-.5328791z" fill="#6c63ff"/><path d="m43.3612297 31.1870203.2999543.0113268.0636999-.4887964c.0081197-.0980371.029303-.1942927.0628937-.2857847.0496488-.096436.1074108-.1877266.1725543-.2727152.2951163-.4504594.2733454-1.0455538.3467213-1.5953408.0975658-.730145.3797808-1.4132401.6587705-2.0850084l.5837819-1.4019134c.115612-.2381607.1712273-.5049879.1612657-.7737097.0056443-.2169524.0645063-1.0046029.0701506-1.2198127 0-.0801592-.1612657-.0357231-.1975505-.1071693-.0725696-.1559618-.1725543.2666162-.3088239.3589735-.1362695.0923572-.2120644.2613884-.2693137.4234492-.1257873.3528744-.2023885.724046-.3225315 1.0804056-.1201429.3563595-.279796.70662-.5434655.9584242-.1193366.1132684-.2564125.2021404-.3692985.3232504-.3620415.3868549-.39752.9976325-.4104212 1.5491621-.0064506.3232504-.0677316 3.5252588.0016126 3.5252588z" fill="#2f2e41"/><path d="m47.6024881 22.9702153c-.3245065.1210881-.5024906.4553594-.5932805.775987s-.1285441.6634262-.3029326.9507972c-.4081051.6728063-1.4472449.8689348-1.7339971 1.596316-.089891.2379125-.089891.4988488-.1159594.7521104-.0521367.5210199-.2328176 1.0232795-.2858533 1.5451521-.0283024.4047932-.0183749.8111767.029664 1.2142917l.359564 4.1093199c.0530356.596913.0512378 1.2304936-.1087681 1.806941.3676541.0673659.7505897-.0230238 1.0912765-.1705465.3406868-.1475228.6526086-.3504733.9807107-.5218726.5645153-.2958983 1.1874599-.5048179 1.6818603-.8987805.089603-.0661179.1662751-.1466442.2265252-.2379125.0988801-.1620192.1078692-.3590005.1546125-.5414854.0426312-.1458689.0970259-.2884114.1627027-.4263664.1810948-.4141671.338925-.8371472.4728266-1.2671611.091972-.285178.1643365-.5757178.2166373-.8697876.039552-.2336488.0611258-.4707086.0826997-.7069156.0263388-.3701101.1037047-.7353484.2301209-1.0863817.3158922-.8367537.4950479-1.7144103.5312557-2.6025409.0101809-.1282328.0007954-.2571883-.0278662-.3828771-.0554477-.1524022-.1290344-.2983093-.219334-.4348938-.1510169-.2694636-.2418067-.5662146-.3838345-.8407946-.3218097-.6182314-.8908197-1.0880872-1.485898-1.4811971-.2894489-.1918649-.6310347-.4041954-.9627324-.2814019z" fill="#2f2e41"/><path d="m40.496222 29.3573877c-.2423218-.1365229-.4616443-.3156293-.6488748-.5298935-.084379-.1068845-.1552574-.227356-.2421678-.3324289-.2190692-.2512669-.5037891-.4255598-.8167891-.5000021-.3105129-.0732001-.628056-.1063454-.9458889-.0987323-.2127055-.0145453-.4260875.0130897-.6294676.0815221-.2068094.0726086-.3642818.254315-.4168325.4809802-.0464084.2717403.1189745.5353284.3172652.7101479.1846501.1617302.4019284.2749415.6345303.3306174.1895976.0352128.3808697.0591023.5729337.0715582 1.1289915.1268122 2.1364771.7862352 3.1220243 1.3867812.869104.5283838 1.7548026 1.0217434 2.6570958 1.4800786.0355644-.2903312.0505145-.5831449.0447209-.8759094-.0050628-.218298-.0151883-.5516328-.2075725-.6802565-.2236044-.1494571-.5906532-.1811602-.8437903-.2717403-.5815803-.2047083-1.1496186-.4513453-1.7002376-.7382277-.304327-.1600248-.6033101-.3315231-.8969491-.5144949z" fill="#fbbebe"/><ellipse cx="45.60935" cy="20.904806" fill="#fbbebe" rx="2.067844" ry="2.034444" transform="matrix(.25426437 -.96713475 .96713475 .25426437 13.794753 59.699846)"/><path d="m48.225629 24.8466387c-.1774566.2114012-.2666014.484177-.3857389.7347898-.2449401.5165691-.6298459.9598297-.8222988 1.5002667-.2032836.5694195-.1966186 1.2462444-.5948545 1.6937671-.0691497.0775706-.1524627.152584-.1724578.2557273-.0027402.0626429-.0096994.1250178-.0208282.1866809-.0566528.1619607-.3165892.1704849-.3649107.3358552-.0141632.0485882-.0066651.1014385-.0241608.1491743-.0399902.106553-.1774566.1227491-.2699339.1875333-.1932861.1338306-.154129.4441131-.2915954.6376134-.1228903.1474493-.3141579.215291-.4998776.1773043-.1805711-.0379043-.3542752-.1043362-.5148741-.1969101-.0570383-.0324203-.1200039-.0524439-.1849547-.0588172-.0769719.0024945-.1514891.0283043-.2141143.0741609-.366577.2386788-.5390348.7117743-.5365354 1.1584446s.1524627.8762922.3057585 1.2939801c.0212045.0704148.0557408.1358736.1016418.1926479.1216369.1312733.3332518.1108151.494879.0375067.1616271-.0733085.3082579-.1883858.4815488-.2207779.3074248-.0571125.6081845.1594033.9164424.1415024.2282775-.0136388.430728-.1491743.6198484-.2804476.3032591-.2096964.611517-.4262121.8331294-.7228558.1366333-.1824188.2366088-.3895579.3557463-.5847631.1524543-.2378351.3194113-.4656.4998777-.6819394l1.1447199-1.4337777c.1149132-.1357679.2180553-.2815145.3082579-.4355888.1041894-.2081128.1846963-.4277699.2399413-.6546619.10914-.3827385.2191131-.7671819.2374419-1.1669689.0063632-.3280167-.0215665-.6557895-.0833129-.9777306-.039511-.3208879-.1236762-.6343443-.2499389-.9308474-.2357756-.5319127-.8414607-.9692064-1.3088464-.4108685z" fill="#2f2e41"/><path d="m51.8350572 24.1855078c.1886431-.7363681.0276477-1.522732-.4327293-2.1136171.3084887-1.3769464-.363425-2.7556615-1.5466692-3.2659364.0422587-1.2911637-.7395276-2.4762042-1.9439012-2.8087231-1.2517033-.3440155-2.5355233.347553-3.0755897 1.5768115-.760657-.4129955-1.5652631-.3687776-1.8306478.1167353-.2772172.5076219.1394537 1.3061977.9296918 1.782867.2490777.1523085.5216523.2579536.8054513.3121786.2464459.7294188.775961 1.3159244 1.4579259 1.6148389-.0424397 1.0647805.4943253 2.0630803 1.386086 2.5779054.0477698.3628797.1759887.7090393.3744123 1.0108219-.0232537.0633178-.043007.1279828-.0591622.1936746-.2484813.9860599.2890496 1.9889226 1.1993025 2.2391961.9102529.2502734 1.8500868-.3457843 2.0977229-1.3318442.0665597-.2628732.0780914-.5376849.033807-.8056507.2921082-.3029968.5008494-.6827097.6042997-1.0992578z" fill="#3f3d56"/><path d="m43.5305146 18.3245893c.2672959-.4769668 1.0768449-.5212752 1.8438309-.1146806.5422531-1.2076208 1.8370208-1.887885 3.0977381-1.5490561.0570345.0147695.1132177.0330141.1702522.0521275-.215605-.1357222-.4496755-.2381877-.6946289-.3040772-1.2607172-.3379601-2.5537824.3414353-3.0977381 1.5490562-.7661347-.4057259-1.576535-.3622863-1.8438309.1146805-.2792135.4986866.1404581 1.2832058.9363869 1.7514847.1493827.0877349.3067516.1604748.469896.217198-.7610272-.4743604-1.1543097-1.2302095-.8819062-1.716733z" fill="#000" opacity=".1"/><path d="m48.3544648 25.11086c.0168555-.0649553.0374651-.1288953.0617267-.1915031-.207036-.2987168-.3408073-.6412809-.3906419-1.0003634-.9304263-.5086076-1.4905262-1.4954954-1.4461688-2.5481284-.711526-.2955632-1.263994-.875493-1.5211226-1.5967339-.1726567-.0305317-.3414765-.0794939-.5035137-.146032.2720487.6720615.8048409 1.2076489 1.4787958 1.4865539-.0442793 1.0528426.5157529 2.0399498 1.4461688 2.5490029.0498405.3588112.1836172.7010897.3906419.9994889-.0242617.0626078-.0448713.1265478-.0617267.1915032-.2583704.9715067.2980518 1.9596279 1.2424706 2.2114676-.6199758-.4444333-.8974564-1.2232479-.6966301-1.9552557z" fill="#000" opacity=".1"/><circle cx="46.232856" cy="21.279481" fill="#fbbebe" r="1" transform="matrix(.79631882 -.60487712 .60487712 .79631882 -3.454709 32.299426)"/><ellipse cx="21.459854" cy="2.066116" fill="#3f3d56" rx="1.430657" ry="1.446281"/><ellipse cx="24.729927" cy="5.165289" fill="#3f3d56" rx="3.883212" ry="4.958678"/><path d="m24.7303519 8.91073798c-1.9452175 0-3.5564593-1.98394409-3.8394464-4.571895-.0294371.26992995-.044192.54146319-.0441902.81322605 0 2.97364201 1.7387135 5.38512107 3.8836366 5.38512107 2.1449232 0 3.8827868-2.41147906 3.8827868-5.38512107.0000018-.27176286-.0147531-.5432961-.0441902-.81322605-.2821373 2.5915895-1.8933791 4.571895-3.8385966 4.571895z" fill="#000" opacity=".1"/><path d="m33.0854976 20.2537299c-.0883338.3544924-.4602189.6434037-.8736208.8428057-.8709708.4209597-1.9433425.5459183-2.9847974.5884574-.2649803.0161313-.5308196.0110934-.7950037-.015066-.5450192-.0646948-1.0502883-.2977736-1.3656398-.6301102-.0449768-.0362834-.0761623-.0869694-.0883337-.1435694.0044486-.0686068.0362967-.1325116.0883337-.1772462.5556193-.6079545 1.481357-.981944 2.410628-1.2478133.70667-.2047193 1.9380425-.7346855 2.7091961-.6629008.7490702.0646949 1.0087714.993465.8992376 1.4454428z" fill="#3f3d56"/><path d="m33.0854976 20.2537299c-.0883338.3544924-.4602189.6434037-.8736208.8428057-.8709708.4209597-1.9433425.5459183-2.9847974.5884574-.2649803.0161313-.5308196.0110934-.7950037-.015066-.5450192-.0646948-1.0502883-.2977736-1.3656398-.6301102-.0449768-.0362834-.0761623-.0869694-.0883337-.1435694.0044486-.0686068.0362967-.1325116.0883337-.1772462.5556193-.6079545 1.481357-.981944 2.410628-1.2478133.70667-.2047193 1.9380425-.7346855 2.7091961-.6629008.7490702.0646949 1.0087714.993465.8992376 1.4454428z" fill="#000" opacity=".1"/><path d="m22.3033961 17.5979173c-.2540314.5203431-.3000295 1.1246378-.1279055 1.6803419.1754797.552592.504201 1.0383184.9444679 1.3955681 1.0816911.9065001 2.5657339 1.0311992 3.948977 1.0197021 1.2129038-.0114106 2.4240801-.0982346 3.6270956-.2600108.4006577-.0539478.8055507-.1176239 1.1765614-.2847737.451481-.2042942.8470564-.5783913 1.0088442-1.0612685.1617877-.4828772.0474351-1.0807251-.3388226-1.404412-.3388226-.2847737-.7987742-.3236869-1.2299259-.3537562l-2.4691695-.1547683c.2439523-.258242.5683749-.4041664.8656917-.5907728.3938812-.2493981.6556216-.6668304.9427738-1.0426963.4235282-.5624724.931762-1.0541934 1.4399959-1.5432613.0847056.4811084.3718577.8764309.7149156 1.2089617.3430578.3325308.7386332.5996167 1.096091.9153441.8639975.7658821 1.485737 1.8059252 2.3946285 2.5134376.6252677-.1716598 1.2098169-.4763647 1.7169833-.8950031l-.3532225-.6677148c-.0289905-.069939-.074801-.1308684-.1329878-.1768781-.1007998-.0636761-.2295523-.0309537-.3455991-.0486415-.3100226-.0486414-.4455516-.4227386-.5675278-.7243157-.3337402-.8295583-.9741148-1.4725101-1.5247015-2.167641-.4015529-.5124655-.7573861-1.0621915-1.0630558-1.642313-.1838113-.3457967-.3515284-.7075124-.6014101-1.0055519-.2498816-.2980396-.5980218-.5306343-.9775031-.5306343-.3388225 0-.6437628.1768781-.931762.3537562-.8773112.5442182-1.7214686 1.1446915-2.5276164 1.7979657-.4235282.3413747-.841127.7030904-1.3358079.912691-.2083759.088439-.4235282.1485775-.6276688.2555888-.3498343.1883751-.6158101.5067557-.9021151.7888763-1.0198559 1.0073207-2.416652 1.6600008-3.8202245 1.7121798z" fill="#605d82"/><path d="m27.3739801 10.6152832c-.0112832.3104192-.0757378.6163925-.1904231.9039602-.1173491.2888082-.346652.5146394-.6330047.6234209-.2015127.0553339-.4127668.0623433-.6173535.0204838-.1787772-.0197525-.3508822-.0806435-.5034474-.1781202-.2373768-.1674331-.3556304-.4657845-.399106-.7579017s-.0234768-.5904686-.0513012-.8843669c-.0270819-.2375383-.0712573-.47270305-.1321658-.70357499-.0182598-.0765917-.037389-.1531834-.0565183-.2297751-.0191293-.07659171-.03565-.15318341-.0521707-.22977511-.0165208-.07659171-.0295634-.14338679-.0417366-.21641609s-.0191293-.12290297-.0252158-.18435445c-.0055442-.18363278-.0347816-.36570741-.0869512-.54148552-.0495274-.11379302-.1116713-.22137238-.1852061-.32061643-.0313024-.04631127-.0617353-.08906012-.0869512-.13982439-.0809455-.12407659-.1186297-.27250709-.10695-.42125437.0033315-.02306121.0088649-.0457318.0165208-.06768569.0026604-.00851463.0058553-.01684426.0095646-.02493683.06294-.01769756.1133429-.06599221.1347744-.12913717.011893-.06711609.0061922-.13626235-.0165208-.20038527-.0255576-.0895564-.0608488-.17589147-.1052109-.25738375-.0286939-.05343607-.1269488-.1505116-.1278183-.21196308 0-.12379357.2347683-.2235409.3304146-.27252396.29217-.15010382.6181199-.2177357.94429-.19593227.2086828.01424962.4347559.08015411.550401.26005555.1043415.16119882.0869512.3704901.1347744.55840695.0039934.02743671.015104.0532725.0321719.0748105.0227034.02114545.051269.03452964.0817341.03829585.0509359.01052324.1031878.01262794.1547732.00623421.0137826-.00076549.0274648-.00285269.040867-.00623421.0804071-.01522949.1564654-.04870346.2225951-.09796613.0434756-.01246842.0869512-.02137443.1295573-.02938984h.0052171c.1739023.55929755.1956401 1.15778155.3373706 1.72954752.0704305.28321118.1739024.56285995.185206.85497714v.03829585c0 .09440373-.005217.18880746 0 .28232058.0015787.04185988.0062292.08353885.0139122.12468417.0156847.06631769.0348416.13172298.0573878.19593223.0060866.0204839.0121732.0409677.0173903.0623421.0042998.0149297.0077833.0300935.0104341.0454207.0254814.1593433.0284098.3216162.0086951.4818152z" fill="#fbbebe"/><ellipse cx="24.934307" cy="4.752066" fill="#fbbebe" rx="2.043796" ry="2.066116"/><path d="m37.8434864 15.9090909c-.0586843-.5471769-.2539132-1.0709856-.5678652-1.5236095l.1572154.9292391c-.1332546.0380568-.2764787-.0059533-.3651176-.1121939-.0849493-.1055965-.1498709-.2257508-.1915793-.3545668-.2288015-.5661254-.5281122-1.1013183-.8908868-1.5929813-1.2817774-.1070552-2.5498092-.6363361-3.6769485-1.2546869-1.1271394-.6183508-2.1829734-1.3574599-3.2963672-2.00064749-.1930404-.11605519-.3939875-.21850724-.6013701-.30660608-.3479355-.13874353-.7388261-.21068462-1.0687205-.37426496l-.0661507-.03511411c-.07478-.03998971-.1455489-.08702298-.2113386-.14045641-.0353446-.02908878-.0689096-.06026198-.1005148-.09335213-.1647625-.19081477-.2955185-.40835674-.386595-.64318762-.1769746-.39053735-.240548-.86243666-.4166636-1.25297401.0812593-.07540701.172272-.13963878.2706166-.19098647l.042955-.02141104c.0699894-.03257566.1427213-.05894177.2173523-.07879262.042955-.01199018.08591-.0205546.1280059-.02826257h.0051546c.1996564-.03208277.4041206-.01592898.5962155.04710428.2800666.09506502.5154601.28348216.7525717.46247845.3737086.28176927.7620218.54726616 1.1013664.87014463.1941566.18584782.3719903.38968091.5807516.5583999.17406.13395034.3575174.25530437.548965.36313122l3.3968819 2.01691993c.3831586.226957.7671764.4547704 1.141744.6962869.5695834.3657006 1.1168302.762233 1.6666542 1.1587655l.9699241.7005692c.1062475.0686487.1993458.1556583.274912.2569325.0665032.1135602.1078093.2400154.1211331.3708392.0805971.5275033.0352698 1.06652-.1323014 1.5732831z" fill="#fbbebe"/><path d="m27.7693801 12.0113755c-.1305817.6093966-.71861.9781288-1.0265857 1.513607-.3827112.6644057-.2266702 1.4371102-.0821269 2.1986411l-.7875966.70996c-.1445432.1297868-.2899078.2578547-.4451275.3756083-.2276579.1601573-.4655652.3037483-.7120399.4297578l-.6964357.3747489c-.2160593.1270416-.4449603.2285164-.6824742.3025495-.4582679.1229107-.9444589.0369592-1.3961566-.1048609-.0534628-.0145837-.1048326-.0365511-.1527559-.0653232-.0281684-.0177352-.0527257-.0410997-.0722717-.0687613-.0450187-.0837607-.0612508-.1811381-.045991-.2759045.045991-.7976305.232419-1.5789303.4180257-2.3542134.0975327-.4655975.2296098-.9225259.3950302-1.3666299.1629463-.3801549.3503522-.7483002.5609264-1.1018991.2463806-.4357744.4927612-.8749869.8212686-1.2488763.1404369-.1615889.2972992-.3145827.3810686-.5157094.1157989-.276764.0706291-.5939253.0944459-.89475576.0177548-.22646376.0750998-.44758919.1691813-.65237239.05032-.11021247.1108354-.2150008.1806791-.31286371.0320295.07735641.0632377.15471282.0952672.23120972l.0615951.15127476c.0271019.06446367.0533825.12978686.0821269.19425054.0766517.18450936.1527559.36930523.2283126.55438764.0815199.2331351.198255.4510706.3457541.6454962.1568623.1856554.3876387.3205994.6225216.2939544.2233765-.038992.4181738-.1810061.5305395-.3867821.1100317-.2035389.1895273-.4235635.235704-.65237236.0647045-.27842136.0736523-.56784442.0262806-.85006099-.0821268-.54407342-.299763-1.09932054-.4599104-1.60471575-.0653244-.16838798-.1030834-.34708812-.1116925-.52860213-.0001218-.020496.001805-.04094913.0057489-.06102561v-.01547128c.0669074-.0326926.1364364-.05915335.2077809-.07907544.0410635-.01203322.0821269-.02062838.122369-.02836402.1412582.80221462.2827902 1.60271021.4245959 2.40148676 0 .01890935.0073914.03781869.0106765.05672804.0197104.1151751.0402421.22949068.0632377.34380626.0229955.11431559.0427059.20714328.067344.30942564.0082127.03438063.0172466.06962077.0262806.10400138.0254593.0945467.0533824.1873744.0821268.2802021.2003896.5612638.5346459 1.1208085.4122769 1.6975435z" fill="#6c63ff"/><path d="m35.9721878 20.6076778c-.0074818.11113.0154393.2222106.0666103.3228076.1263.2162811.4325341.2655093.6920545.2856848 1.5393339.1183752 3.0880653.0745194 4.616869-.1307371.0830487-.0056569.1635745-.0291326.2352985-.0685966.2171321-.1420354.0865068-.4882466-.1539821-.5996152-.240489-.1113687-.5190409-.080702-.7785614-.1315442-.2588579-.0610707-.5054171-.1608162-.7301175-.295369-.5276916-.2829947-1.0467325-.5789017-1.5571228-.887721-.305369-.1831933-.6661025-.3784919-1.0095346-.2695444-.9334085.293755-1.3884344.8376859-1.3815139 1.7746351z" fill="#2f2e41"/><path d="m24.4363502 8.97181818-.0073447.04219679-.012241.07061505c-.0399875.21701207-.0897678.43057952-.1460767.64845275-.1558696.59333863-.3639677 1.17806553-.5712497 1.75331983l-1.6656009 4.6330356c-.1403642.3892439-.2799124.7750432-.4390462 1.1591201-.0530446.1265904-.1077214.2583477-.1632142.3840769-.195041.4624424-.3827373.9403857-.4447587 1.4338298-.0408035.3263793-.0816071.6596479-.0204018.9825825.0612054.3229347.2448213.63898.539423.75782.1419963.0585588.345198.1369243.3060266.292794-.0204018.0861159-.1126178.1274516-.1958571.1412301-.2209974.037607-.4463614-.0309268-.6145014-.1868715-.1550535-.1446747-.2750159-.3711595-.4814819-.395272-.1428124-.016362-.2741998.0740597-.4080355.1369243-.5345265.2583477-1.1563726.0775043-1.7178294-.1059226.0440678-.2394022.2725677-.3978554.4986194-.4452192.2260516-.0473637.4610801-.0146397.6928442-.0206678.0741365.0040894.1476631-.0160596.2105463-.0576977.0568278-.0536024.0974192-.1236945.1166982-.2015112.1487134-.4656553.2592886-.9439175.3305087-1.429524.0750786-.5080838.1060893-1.0230569.2121785-1.5242515.0816071-.3909662.2105463-.7698762.3198998-1.1539531.2122837-.790457.3863316-1.5917959.5214694-2.4009114.0684851-.3358383.11754-.6757632.1468928-1.01789.0187696-.2841825.0097928-.5700873.0359071-.8525475.0433388-.3680455.1159534-.7315893.2170749-1.0867827.0995606-.3883827.1983052-.77504311.2978659-1.16256468.1468928-.57353192.3043945-1.16859282.6765228-1.61381204.2611158-.31719857.6352382-.50586332 1.0331459-.52100122.0738286-.00035453.1474625.00802228.2195231.02497361l.0359071.00947275c.0788103.02142114.1543617.05447104.2244195.09817213.1150661-.07750432.1730071-.04994723.2497178.06803156.066578.12599472.0979842.26930893.0905838.41335634.0058745.37761301-.0236477.75491375-.0881356 1.12639603z" fill="#fbbebe"/><path d="m24.9343066 9.41161438-.0046671.00502738-.0248912.02681272-.2481335.26728932-.1221221-.55133658-.4177044-1.88862108c.0703707-.00034494.1405557.00780559.2092411.02429903.0029803-.02169651.0079304-.04302551.0147791-.06368021l.0194462.07289709.1415684.51865858.2683575.98452962.0443374.16255212z" fill="#6c63ff"/><rect fill="#3f3d56" height="2.892562" rx="1.446281" width="4.49635" x="22.890511" y="1.859504"/><ellipse cx="27.591241" cy="2.066116" fill="#3f3d56" rx="1.430657" ry="1.446281"/><path d="m27.4449443.62249821h-.058083c.8438354.0332347 1.5092955.67032406 1.5092955 1.44494924s-.6654601 1.41171455-1.5092955 1.44494924h.058083c.8709274 0 1.5769535-.64752205 1.5769535-1.44628099 0-.79875893-.7060261-1.44628099-1.5769535-1.44628099z" fill="#000" opacity=".1"/><path d="m21.6061506.62249821h.058083c-.8438354.0332347-1.5092955.67032406-1.5092955 1.44494924s.6654601 1.41171455 1.5092955 1.44494924h-.058083c-.8709274 0-1.5769535-.64752205-1.5769535-1.44628099 0-.79875893.7060261-1.44628099 1.5769535-1.44628099z" fill="#000" opacity=".1"/><path d="m27.3703856 4.42107126h-3.6494169c-.2325529.0000006-.4212111-.22165288-.4216986-.49545143v.329954c.0004863.27396761.1890026.49591973.4216986.49649229h3.6529531c.232696-.00057256.4212123-.22252468.4216986-.49649229v-.329954c-.0004673.13213566-.0455602.25862503-.1253331.35157042-.079773.0929454-.1876728.14471146-.2999017.14388101z" fill="#000" opacity=".1"/><path d="m39.3905026 18.7981384s.220119.0387905.2559523-.14137c.0179167-.0862012-.0426587-.6396127-.1117658-1.1930243-.0332738-.2723957-.0691071-.5439294-.098115-.7611564-.0349802-.2663616-.0605754-.4499701-.0605754-.4499701l-.0400992-.1344738-.2371824-.805119-.2235317-.7585704-.1646626-.2982561-1.1850591.58272-.7371425 1.2869836.2286507.14568.0400992.0258603.4206149.4447981 1.1790868 1.2499171.5306744.5628936.0622817.0655129z" fill="#ffe09c"/><path d="m38.6170473 13.4297521s-1.2214018.6136041-1.515116 1.2804904c0 0-.2744543.5611814-.3089617.8593895 0 0-.0802498.2724265.4261264.3394589 0 0 .2303169-1.0011888.9212676-1.4360399l.6917532-.4339917z" fill="#e7c4c3"/><circle cx="38.455462" cy="15.174125" fill="#ff7f8e" r="1" transform="matrix(.25890199 -.9659036 .9659036 .25890199 13.842524 48.389783)"/><circle cx="38.316035" cy="16.738201" fill="#ff7f8e" r="1" transform="matrix(.25747011 -.96628626 .96628626 .25747011 12.276908 49.452873)"/><path d="m37.6951519 16.7355372c.1503368-.0542449.2620659-.1695443.3001438-.3097348.0687636-.2279649-.0520373-.4551037-.269479-.5063132s-.4488219.0916815-.5166563.3196463c-.0053462.0154025-.0093843.0311399-.0120801.0470797l.0436742.0247788z" fill="#ff7f8e"/><path d="m39.2333397 15.8990263c.1428867.0231034.2944114.0060121.4162953-.0469564l-.3582975-.7694253c-.21676.051417-.3791654.1685072-.4330502.3122187-.0940854.229839.0734638.4530877.3750524.504163z" fill="#ff7f8e"/><path d="m39.1920376 17.5528292c.1647084.0272061.3378038-.0071482.4575974-.0908195-.0451805-.2562409-.0938364-.5116708-.1332245-.7160148h-.0150602c-.2710831-.051086-.5595432.0900086-.6452703.3138139-.0857272.2238053.066033.4427453.3359576.4930204z" fill="#ff7f8e"/><path d="m39.5509808 18.8016529c.0330011-.0513896.0581589-.106734.0747618-.1644676.0851135-.2928583-.0644102-.5835945-.3335529-.6493815-.1657433-.037041-.3403989.0088798-.4600729.1209632z" fill="#ff7f8e"/><path d="m38.5889887 14.6694215.2431281.0350027c-.0955288.0941913-.1520228.1983093-.165631.3052564-.0006965.0070499-.0006965.0141146 0 .0211645.0319105.1343128-.2431281-.0350028-.2431281-.0350028s.047106-.2759518.165631-.3264208z" fill="#94cc79"/><path d="m37.7699509 15.9090909.2446476.0350718c-.0963609.0938995-.1529167.1980587-.165631.3050433-.0007515.007063-.0007515.0141433 0 .0212062.0319106.134578-.2431281-.0350718-.2431281-.0350718s.0455865-.2764964.1641115-.3262495z" fill="#94cc79"/><path d="m38.1802296 15.9090909.2431281.0342562c-.0955288.0943772-.1520229.1987007-.1656311.3058589-.0007515.007063-.0007515.0141433 0 .0212062.0334302.134578-.2431281-.0350718-.2431281-.0350718s.0501452-.2764964.1656311-.3262495z" fill="#94cc79"/><path d="m38.9962283 17.1487603.2446476.0342562c-.096251.0942174-.1527922.198628-.165631.3058589-.0007515.007063-.0007515.0141433 0 .0212063.0319106.1345779-.2431281-.0350719-.2431281-.0350719s.0471061-.2764964.1641115-.3262495z" fill="#94cc79"/><path d="m39.4065069 17.9752066.2431281.0350582c-.0953641.0940843-.1518545.1980826-.165631.3049249-.0008121.0070593-.0008121.0141387 0 .021198.0334301.1345257-.2431281-.0342429-.2431281-.0342429s.0471061-.2772045.165631-.3269382z" fill="#94cc79"/><path d="m38.5871675 17.1487603.2449493.0347158c-.0967675.0943663-.1527099.1988619-.1638098.3059828-.0008183.0069903-.0008183.0140006 0 .0209909.0321495.1332115-.2449493-.0339084-.2449493-.0339084s.045928-.2785332.1638098-.3277811z" fill="#94cc79"/><path d="m38.8406063 13.6595623s-.1910999-.4331161-.4172486-.1101567c.0190626.2622179.1052765.5151192.2503492.734378 0 0 .6917983 1.8818437.634218 2.1697533 0 0 .2728806 1.8175856.2052863 1.9193971 0 0 .0751048.1285162.1285126-.3546712.0534078-.4831873-.1810859-1.9027067-.1810859-1.9027067l-.3429784-1.4754322-.2294868-.5007123z" fill="#e7c4c3"/><path d="m38.8406063 13.6595623s-.1910999-.4331161-.4172486-.1101567c.0190626.2622179.1052765.5151192.2503492.734378 0 0 .6917983 1.8818437.634218 2.1697533 0 0 .2728806 1.8175856.2052863 1.9193971 0 0 .0751048.1285162.1285126-.3546712.0534078-.4831873-.1810859-1.9027067-.1810859-1.9027067l-.3429784-1.4754322-.2294868-.5007123z" fill="#fff" opacity=".2"/><path d="m36.379562 14.7814087s.4269378.9171815.8175183.6731679l-.3116334-1.1983783z" fill="#fbbebe"/><path d="m12.6180479 18.8016529s3.0906331 5.3199287 3.8127755 6.0307625c0 0 3.0880753 3.2754105 1.51846 3.0489194-.1150995-.0165513-2.3753114-1.9687308-2.5074626-2.2893029s-4.4053244-5.9924333-4.4053244-5.9924333l.6096007-.5731968z" fill="#a0616a"/><path d="m12.6180479 18.8016529s3.0906331 5.3199287 3.8127755 6.0307625c0 0 3.0880753 3.2754105 1.51846 3.0489194-.1150995-.0165513-2.3753114-1.9687308-2.5074626-2.2893029s-4.4053244-5.9924333-4.4053244-5.9924333l.6096007-.5731968z" fill="#000" opacity=".1"/><path d="m15.3672596 36.0432254s-.9523175 1.1863811-.5549712 1.6609335c.3973462.4745525 2.3766889 1.3819295 3.0153984 1.3442925.6748319-.0392733 2.936586.0818194 3.0162195-.9491048 0 0 .1584459-.4745525-1.9046351-.5539173-2.0630809-.0793648-1.4292972-2.2148508-1.4292972-2.2148508z" fill="#2f2e41"/><path d="m3.43085427 25.4399653s-1.00488296 3.4565716 2.00976591 4.0470583l3.26586961-.1683367s4.60600231-.9280323 5.86297231-.2529411c0 0 .5024415.0872211.3343834.7588234-.168058.6716024.2512208 5.2280319.2512208 5.2280319v1.5176468s2.8474571 0 3.1827069-.3375456c0 0-.2512208-1.3493101 0-2.4421903.2512207-1.0928802-.4184125-4.5538129-.4184125-4.5538129l-.0667034-2.076734c-.010369-.5240023-.3008521-1.0015627-.7597262-1.2490059-.1583868-.0844308-.3344997-.1295829-.5137031-.1317039 0 0-5.6949143-.9271601-7.7046802-.7588234-2.00976591.1683367-5.44369353.4195334-5.44369353.4195334z" fill="#605d82"/><path d="m9.19135766 14.2561983s1.42248174 1.810998 1.58026274 2.4149614c.1577811.6039633 1.8999124 2.153571 1.8999124 2.153571s-1.2647007 1.034856-1.0276204 1.552284c.2370803.5174279-1.65956204-1.7244626-1.65956204-1.7244626l-2.217927-3.5336764z" fill="#6c63ff"/><path d="m9.19135766 14.2561983s1.42248174 1.810998 1.58026274 2.4149614c.1577811.6039633 1.8999124 2.153571 1.8999124 2.153571s-1.2647007 1.034856-1.0276204 1.552284c.2370803.5174279-1.65956204-1.7244626-1.65956204-1.7244626l-2.217927-3.5336764z" fill="#000" opacity=".1"/><path d="m9.81021898 12.538245s-.71941221 2.4847423-.71941221 3.4316066c0 .9468642-3.03806947-.2573484-2.95785914-.772045s1.7588388-2.4022133 1.83904913-3.1742582 1.83822222.5146966 1.83822222.5146966z" fill="#a0616a"/><path d="m7.61763347 14.3066182s-2.90789325-.7411141-3.3229383 3.4593846.33169231 4.693723-.91430214 7.2467335c-1.24599445 2.5530104 8.47362157.329668 8.47362157.329668s-.4983978-.5767061-2.07694385-.329668l-.74759667-2.2233425s-.24919889-.9881522 1.16350102-.9881522c1.4126999 0 .7475967-2.8826785.7475967-2.8826785s-.7475967-2.4703805-1.16350105-2.7174186c-.41590436-.247038-1.1600638-1.7292663-2.15943728-1.8945263z" fill="#000" opacity=".1"/><path d="m7.61763347 13.8934101s-2.90789325-.7411132-3.3229383 3.4585284.33169231 4.6945689-.91430214 7.2475762c-1.24599445 2.5530072 8.47362157.3296676 8.47362157.3296676s-.4983978-.5767054-2.07694385-.3296676l-.74759667-2.2233397s-.24662097-.9864472 1.16607892-.9864472c1.4126999 0 .7475967-2.8826749.7475967-2.8826749s-.7475967-2.4703774-1.16350103-2.7174151c-.41590436-.2470378-1.16264172-1.7326716-2.1620152-1.8962277z" fill="#6c63ff"/><ellipse cx="9.605839" cy="11.157025" fill="#a0616a" rx="2.656934" ry="2.68595"/><path d="m8.99270073 25.4065602 6.77595637 4.1388943 6.3043356-6.0027786-7.5155051-2.6749073-5.40842515 3.7623171z" fill="#dadae5"/></g><path d="m16.3698082 13.2078805-2.0632389 6.4427398 7.4829146 2.4568177 3.1448227-9.0909091z"/><path d="m16.7890806 13.6329867-2.0737521 6.4170251 6.8753818 2.0574262 2.9348371-8.6776859z" fill="#dadae5" fill-rule="nonzero"/><path d="m16.350365 13.2361303.5697939.6068449 7.8340356-.2303854.1801121-.5960609z" fill="#000" fill-rule="nonzero" opacity=".03"/><path d="m13.8978102 19.7786444 2.243219-6.3488923.6180949.5211463-2.2203942 6.0904239z" fill="#000" fill-rule="nonzero" opacity=".03"/><path d="m16.350365 13.2361303.5697939.6068449 7.8340356-.2303854.1801121-.5960609z" fill="#eff0f4" fill-rule="nonzero"/><path d="m13.8978102 19.7794863 2.243219-6.3497342.6180949.5211463-2.2203942 6.0904239z" fill="#eff0f4" fill-rule="nonzero"/><path d="m16.350365 13.1718343.858892.6711409 7.7250496-.1629319-.1203279-.6635144z" fill="#000" fill-rule="nonzero" opacity=".03"/><path d="m13.8978102 19.8892731 2.3008503-6.459521.9692227.829066-2.2774391 6.1957274z" fill="#000" fill-rule="nonzero" opacity=".03"/><path d="m14.3065693 20.0413223.1913455 1.1752427 7.5750779 2.5437656-.2209786-1.3636091z" fill="#000" fill-rule="nonzero" opacity=".03"/><path d="m8.58394161 24.0843935 5.87469109-4.0430712.2566958 1.2293817-5.77076933 4.1425191z" fill="#000" fill-rule="nonzero" opacity=".03"/><path d="m14.3065693 19.6280992.1648273 1.0592708 7.6015961 2.6597374-.1954138-1.256225z" fill="#eff0f4" fill-rule="nonzero"/><path d="m8.17518248 23.8022113 5.90208442-4.1741121.2293024 1.0942105-5.79680153 4.2776903z" fill="#eff0f4" fill-rule="nonzero"/><path d="m14.3065693 19.6280992.1648273 1.0592708 7.6015961 2.6597374-.1954138-1.256225z" fill="#000" fill-rule="nonzero" opacity=".03"/><path d="m8.17518248 23.8022113 5.90208442-4.1741121.2293024 1.0942105-5.79680153 4.2776903z" fill="#000" fill-rule="nonzero" opacity=".03"/><path d="m8.17518248 23.7603306.26524495 1.5723896 7.09241927 4.2127343-.17476-1.6182473z" fill="#cccad6" fill-rule="nonzero"/><g fill-rule="nonzero" transform="translate(12.262774 21.07438)"><path d="m.44507153 1.97300208s-.1128126.2334132.05924691.34087135c.08116014.05108666.66794799.1761609 1.25717064.29595031.28893011.0581331.57867183.11450458.81160145.15854481.2840605.05460988.48046805.08808045.48046805.08808045h.14933467l.90250081.01849689.84893511.01761609.35953944-.08015321-.20695837-1.53083822-1.07456031-1.28157055-.2248136.20610825-.03814527.03523218-.59084585.3118048-1.66702938.8808045-.74991973.39636202-.08765296.04668264z" fill="#ffe09c"/><path d="m6.13138686 2.85271543s-.20091003-1.6108181-.78024096-2.17545223c0 0-.47605189-.5086794-.76894482-.64771843 0 0-.24932209-.18566799-.49460984.37387935 0 0 .94161449.60532849 1.14494512 1.54723318l.20252377.94190468z" fill="#e7c4c3"/><ellipse cx="4.419827" cy="2.119031" fill="#ff7f8e" rx="1" ry="1" transform="matrix(.5383296 -.84273438 .84273438 .5383296 .254723 4.703034)"/><ellipse cx="2.864438" cy="1.762767" fill="#ff7f8e" rx="1" ry="1" transform="matrix(.5383296 -.84273438 .84273438 .5383296 -.163118 3.227778)"/><path d="m3.27007299.74298358c.0113538.16877805.09210706.32051269.21644838.40670453.19768952.14796943.44516217.10907461.55194338-.08455395.1067812-.19362857.03391024-.47603879-.16450077-.62400821-.01354166-.01011579-.02750814-.01942844-.04184669-.02790281l-.03391025.03382158z" fill="#ff7f8e"/><path d="m.40875912 2.1978139c.03574574.05833771.07673354.10930367.12184146.1515028.22866135.21381443.5149053.15761178.63841581-.12217967.07227737-.17532976.076396-.3933335.0108489-.57424447z" fill="#ff7f8e"/><g fill="#94cc79"><path d="m4.08759124 1.4931928-.14576104.15969976c-.15080192-.10836474-.33437222-.19284799-.53785825-.24753463l-.0422707-.00698687c-.27111554-.03293807.14576104-.15870164.14576104-.15870164s.52328214.14872041.58012895.25352338z"/><path d="m3.67883212 1.9070298-.14565216.1590859c-.15089501-.10821612-.33430025-.1925496-.53745644-.24713345l-.04223912-.00700378c-.27236953-.03401837.14565215-.15908591.14565215-.15908591s.52143471.14707942.57969557.25413724z"/><path d="m2.86131387 2.31963908-.14565215.15969976c-.15068927-.10836474-.33412244-.19284798-.53745644-.24753463l-.04223913-.00698687c-.27236952-.03293807.14565215-.15870164.14565215-.15870164s.52143471.14472791.57969557.25352338z"/><path d="m1.22627737 2.31963908-.14550161.15969976c-.15116619-.10831227-.33486343-.19277576-.53835599-.24753463l-.04219547-.00698687c-.270633-.03293807.14550162-.15870164.14550162-.15870164s.52089579.14772228.58055145.25352338z"/><path d="m2.45255474 1.90741406-.14565215.15870164c-.15068926-.10836474-.33412243-.19284798-.53745644-.24753463l-.04223912-.00698687c-.27236953-.03293807.14565215-.15870164.14565215-.15870164s.5214347.14872041.57969556.2545215z"/></g><path d="m5.76624996 3.30578512s.57514964-.0538151.28176071-.3790121c-.31159331-.0653731-.63753255-.06060704-.94635819.01383817 0 0-2.44818749.09379204-2.76572733-.05689026 0 0-2.21830653-.3075149-2.30775438-.40438209 0 0-.17889568.03382664.36494721.2413992.54384289.20757255 2.28360345.42437055 2.28360345.42437055l1.84530902.12608111.663703-.07072843z" fill="#fff" opacity=".2"/><path d="m5.76624996 3.30578512s.57514964-.0538151.28176071-.3790121c-.31159331-.0653731-.63753255-.06060704-.94635819.01383817 0 0-2.44818749.09379204-2.76572733-.05689026 0 0-2.21830653-.3075149-2.30775438-.40438209 0 0-.17889568.03382664.36494721.2413992.54384289.20757255 2.28360345.42437055 2.28360345.42437055l1.84530902.12608111.663703-.07072843z" fill="#e7c4c3"/><path d="m4.11029902 2.54707974c-.04690521.17372627-.02023491.36370855.07157959.50988753.14469854.24258563.40253901.32131153.57648512.17576015.17394611-.14555137.19626663-.45770873.05079842-.70487145-.01000575-.01647752-.02078117-.03295503-.03155659-.04851713l-.04618039.01830835z" fill="#ff7f8e"/><path d="m3.32016215 2.76824566c-.04979808.15198759-.06320729.33691805-.03688867.50874271l.80431776.02879675c-.00630053-.28353191-.08799698-.54167076-.2169922-.68563707-.19529298-.23448787-.4433874-.17003799-.55043689.14809761z" fill="#ff7f8e"/><path d="m1.68449137 2.68104238c-.06213061.13775066-.06596453.30874373-.01011665.45120309.2572521.06363121.51522682.1253342.72261826.17353965l.00650356-.01253342c.1069475-.22367332.03324044-.54279346-.16475696-.71151256-.19799741-.1687191-.44657809-.12437008-.55424821.09930324z" fill="#ff7f8e"/><path d="m4.90510949 2.73347608-.14565215.1590859c-.15089502-.10821612-.33430026-.1925496-.53745644-.24713345l-.04223913-.00700378c-.27236952-.03401837.14565215-.15908591.14565215-.15908591s.52289123.14908051.57969557.25413724z" fill="#94cc79"/></g><path d="m15.5328467 27.9204087 6.3454022-5.8129707.1947438 1.2832106-6.3718805 6.1548059z" fill="#cccad6" fill-rule="nonzero"/><path d="m22.8683267 22.5206612-.795334-.3226712 3.089757-9.1814611.5890751.4348296z" fill="#cccad6" fill-rule="nonzero"/><g fill="#fff" fill-rule="nonzero" opacity=".1" transform="translate(14.715328 34.917355)"><path d="m2.88802871.70786921c.00667991-.23125224.03986217-.46094947.09888536-.68451312l-.0436521.01527129c-.04275054.22035525-.06127357.44479217-.05523326.66924183z"/><path d="m3.31568191 3.93011139c-.66950442.04132231-2.74514023-.95580309-3.16078372-1.47682357-.05486646-.07021107-.08842401-.15591007-.09638109-.24613726-.02483551.1480164.01004555.30016584.09638109.42040963.41564349.52102048 2.4912793 1.51724757 3.16078372 1.47592526.70736842-.04311894 3.07817134.08983111 3.16164425-1.04204097.00577067-.03041546.00184144-.0619668-.01118709-.08983111-.19104111 1.04024434-2.4611602.91807402-3.15045716.95849802z"/></g><path d="m20.3668387 18.7956858s.1502448-.1627397.0139763-.2799123c-.0655137-.0569588-.5791412-.27503-1.0962628-.488219-.2541932-.1041533-.5101334-.2066793-.7136627-.2880492l-.4236553-.1684355-.1371421-.032548-.8254728-.1961013-.7765558-.1847095-.3494065-.0089507-.1170512 1.2522818.7328801 1.2270571.2463316-.1171726.0428023-.0203424.6053467-.126937 1.7103446-.3547725.7678207-.1627396.0873516-.0187151z" fill="#ffe09c" fill-rule="nonzero"/><path d="m15.5548516 17.1487603s-.1285673 1.4699047.2358336 2.096724c0 0 .2921292.5520934.5020971.7419854 0 0 .1673657.2180241.4663418-.2232989 0 0-.6496833-.7419854-.6428365-1.6202358l.006086-.8791296z" fill="#e7c4c3" fill-rule="nonzero"/><circle cx="16.823872" cy="18.028889" fill="#ff7f8e" fill-rule="nonzero" r="1" transform="matrix(.71703227 -.69703997 .69703997 .71703227 -7.806243 16.828505)"/><circle cx="18.081657" cy="18.648523" fill="#ff7f8e" fill-rule="nonzero" r="1" transform="matrix(.71703227 -.69703997 .69703997 .71703227 -7.882241 17.880568)"/><path d="m17.5710935 19.4466398c.0230717-.1731056-.0266441-.3486082-.1334778-.4711929-.1711254-.2005076-.4278135-.2345939-.5775482-.065165-.1497347.169429-.1300552.4721955.0402145.6777158.011339.0141328.0233361.0275204.0359363.0401015l.0419258-.0250635z" fill="#ff7f8e" fill-rule="nonzero"/><path d="m17.8846363 17.8363178c.0694878-.1014472.1059582-.2416908.100167-.3851828l-.8090405-.3023747c-.0283498.2214031.0208242.4489032.1309875.6060041.167801.2584614.4263515.2948467.577886.0815534z" fill="#ff7f8e" fill-rule="nonzero"/><path d="m19.1091699 18.2842572c.0878212-.1011275.1224067-.2463114.0912781-.3831691-.2482423-.1226141-.4981907-.2433124-.6969552-.3391046l-.0093837.0086213c-.1475805.1618889-.1296661.4521395.0400941.6485137.1697602.1963741.4273862.2270276.5749667.0651387z" fill="#ff7f8e" fill-rule="nonzero"/><path d="m20.0291971 18.6395917c-.0242301-.0402596-.0550478-.0771222-.0914526-.1093913-.1829051-.1661127-.4572627-.1896115-.6163902-.0526698-.0946371.0852961-.1314837.2084944-.0969397.3241223z" fill="#ff7f8e" fill-rule="nonzero"/><path d="m16.7591241 17.2641017.1069787-.1153414c.0602883.1134168.1418655.2109313.2391288.2858461l.0206765.0120357c.1375441.0661959-.1069786.1153414-.1069786.1153414s-.2445227-.1995908-.2598054-.2978818z" fill="#94cc79" fill-rule="nonzero"/><path d="m17.1678832 18.5044924.1063135-.1160626c.0602938.1135234.1420623.2111568.2396559.2861545l.0207222.0110059c.1378471.0670362-.1072145.1160627-.1072145.1160627s-.2486655-.2051108-.2594771-.2971605z" fill="#94cc79" fill-rule="nonzero"/><path d="m17.5766423 18.0912693.1069787-.1160627c.0601612.1135235.1417498.2111569.2391288.2861545l.0206766.011006c.137544.0670362-.1069787.1160627-.1069787.1160627s-.2481186-.1991076-.2598054-.2971605z" fill="#94cc79" fill-rule="nonzero"/><path d="m18.3941606 18.0912693.1070731-.1160627c.0600915.1133074.1414136.2109028.2384401.2861545l.0215946.0120065c.1367656.0660357-.1070731.1150622-.1070731.1150622s-.2483377-.1991076-.2600347-.2971605z" fill="#94cc79" fill-rule="nonzero"/><path d="m19.620438 18.5044924.1070731-.1160626c.0597214.1136131.1411111.2112898.2384401.2861545l.0215945.0110059c.1367657.0670362-.1070731.1160627-.1070731.1160627s-.2483376-.2001081-.2600346-.2971605z" fill="#94cc79" fill-rule="nonzero"/><path d="m18.8029197 18.5034919.1069787-.1150621c.0602883.1131421.1418655.2104205.2391288.2851539.0063946.0049844.0133452.0090205.0206766.0120065.137544.0660357-.1069787.1160627-.1069787.1160627s-.2481186-.2001081-.2598054-.298161z" fill="#94cc79" fill-rule="nonzero"/><path d="m15.8844233 16.7393784s-.4838924-.0643878-.316292.3340698c.2408772.1335632.5092802.1978207.7795566.1866312 0 0 2.0292539.4161875 2.256159.6382786 0 0 1.7507794.7819846 1.8049273.9032949 0 0 .1538485 0-.2449545-.3275377-.3988029-.3275377-1.776564-.9200917-1.776564-.9200917l-1.4851973-.5179016-.5603869-.066254z" fill="#e7c4c3" fill-rule="nonzero"/><path d="m15.8844233 16.7393784s-.4838924-.0643878-.316292.3340698c.2408772.1335632.5092802.1978207.7795566.1866312 0 0 2.0292539.4161875 2.256159.6382786 0 0 1.7507794.7819846 1.8049273.9032949 0 0 .1538485 0-.2449545-.3275377-.3988029-.3275377-1.776564-.9200917-1.776564-.9200917l-1.4851973-.5179016-.5603869-.066254z" fill="#fff" fill-rule="nonzero" opacity=".2"/><path d="m13.4594025 18.9146639c.2423597-.1260709.4617165-.2914651.6489762-.4893255.0843923-.0987016.1552817-.2099499.2422057-.3069786.2191035-.2320301.5038679-.3929794.8169168-.4617225.3105616-.067596.6281543-.0982037.9460369-.0911735.2127388-.0134317.4261542.0120877.6295661.0752809.2068417.0670498.3643387.2348449.4168976.444157.0464157.2509361-.118993.4943442-.3173148.6557798-.184679.1493483-.4019912.2538922-.6346296.3053056-.1896272.032517-.3809291.0545775-.5730232.0660799-1.1291681.1171035-2.1368113.7260419-3.1225125 1.2806108-.86924.4876526-1.3620906.4650683-2.2642436.8883139-.0354447-.2676652-.44390312-.0602246-.43799567-.3303992.00506354-.2015854.0151906-.5094004.20760487-.6281768.2236394-.1380149.5907456-.1672908.8439223-.2509362.5816713-.1890361 1.1497984-.4167909 1.7005035-.6817099.3043746-.1477735.6034044-.3061421.8970894-.4751057z" fill="#a0616a" fill-rule="nonzero"/><path d="m5.96777512 17.5735285 4.38803548 4.1206864s.8276244-1.7166567 1.0758261-1.7166567c.2482018 0-2.97842077-5.06205-2.97842077-5.06205s-.8276244-1.0301716-1.32402787-.5150858-1.98903734.1678469-1.16141294 3.1731061z" fill="#000" fill-rule="nonzero" opacity=".1"/><path d="m5.96825822 17.5744611 4.38714028 4.1197538s.8279401-1.717156 1.0762365-1.717156-2.9804129-5.0609044-2.9804129-5.0609044-.82794002-1.0308263-1.3245328-.5158571c-.49659278.5149693-1.98637111.1695847-1.15843108 3.1741637z" fill="#6c63ff" fill-rule="nonzero"/><path d="m13.1437549 10.8030025c.0960378-.1084119.1740216-.231987.2308838-.3658642.3793705-.8711051-.2223008-1.96521317-1.2496909-2.26487334-.5149826-.1524434-1.091763-.12195472-1.6058872-.28398028-.4137026-.12979467-.76217416-.37544632-1.14154462-.56708946-.71291255-.35648818-1.50170603-.5282714-2.29596379-.50001435-.77676532.02787536-1.62133667.3048868-1.93976753.9137893-.46520089.88678504.39052842 2.00354185-.12788733 2.86680703-.38108707.6341646-1.30548071.8214522-2.07194638 1.0967214-.79351811.2785339-1.51595859.7329249-2.11486159 1.3301776-.60081296.6097736-1.02996507 1.4460345-.72784198 2.2021538.17595236.4433925.57334722.7900924.88920317 1.1725075 1.08345861 1.2901357 1.17815257 3.1579552.23088383 4.5541378-.14762832.2151629-.32014747.4250993-.38108707.6690087-.14591172.5818982.44288498 1.1672809 1.12352022 1.2805246.68063525.1132436 1.38701962-.1446035 1.91659332-.5252764.48891941-.3420827.88244191-.8065892 1.14240291-1.3484708.629137-1.3536974.18711032-2.874647.12445412-4.3320059-.00772474-.1698655 0-.3545398.11758767-.4878189.1819605-.1994831.52528219-.1942564.81882223-.2203896.75959923-.0679462 1.45911717-.5000144 1.78098125-1.0958503.61540412-1.1463744-.1012799-2.7483367.97417529-3.6107308 1.35354578-1.085397 3.30189628.6306801 4.30697058-.4834634z" fill="#3f3d56" fill-rule="nonzero"/><path d="m12.108286 8.05785124h-.0086879c.4065928.46238202.5594995 1.08685369.3179764 1.62601502-.0575567.13111054-.1364931.25213185-.2337039.35830344-1.0173507 1.0911192-2.98949925-.58949446-4.35957779.4734723-1.08859127.8445724-.36315335 2.4134295-.98607429 3.5361135-.32318911.5835227-1.03385762 1.006662-1.80273493 1.073204-.29712547.0255931-.64464064.0204745-.82882367.2158352-.1224991.1305248-.12684304.3113827-.11902395.4777379.06342152 1.4272419.5108473 2.9167604-.12597425 4.242483-.26313627.5306833-.66146543.9855906-1.15635672 1.320604-.53604214.3711-1.25018581.627031-1.94000342.5161276l-.04778333-.0102373c.23796019.3264514.59952968.5453171 1.00345004.6074096.68981761.1100503 1.39961734-.1458807 1.94000342-.5178337.49489129-.3350134.89322045-.7899207 1.15635672-1.320604.63682155-1.3257227.18939577-2.8152412.12597425-4.2424831-.00781909-.1663551 0-.3472131.11902395-.4777379.18418303-.1953606.5316982-.190242.82882367-.2158351.76887731-.0665421 1.47693946-.4896814 1.80273493-1.0732041.62292094-1.122684-.10251698-2.6915411.98607428-3.5361134 1.37007859-1.0629668 3.34222709.6176468 4.35957779-.4734724.0972108-.1061715.1761472-.2271929.2337039-.3583034.3840043-.85566267-.225016-1.92033567-1.2649552-2.22148116z" fill="#000" fill-rule="nonzero" opacity=".1"/></g></g></svg>