<svg height="444" viewBox="0 0 783 444" width="783" xmlns="http://www.w3.org/2000/svg"><g fill="none" fill-rule="evenodd"><path d="m668 3.55720011v378.44279989h-577v-45.311695zm5.794911-3.34569357.36634-.21150654h108.838749v201h-98.255507v-200.78849346zm-33.122646-.21150654-154.672265 89.300074v-14.300074h-395v-74.78849346h-17v74.78849346h-74v-75zm-158.906123 91.744493-390.766142 225.608937v-225.608937zm-481.766142 290.255507v-119.255507h74v119.255507zm0 16.744493h74v45.255507h-74zm668 0v45.255507h-577v-45.255507zm115-16.744493h-98.255507v-164.255507h98.255507zm0 16.744493v45.255507h-98.255507v-45.255507zm-783-152.744493v-154.255507h74v154.255507z" fill="#fbfdfe" fill-rule="nonzero"/><g transform="translate(198.5 63)"><ellipse cx="363.130033" cy="298.419856" fill="#8b572a" fill-rule="nonzero" opacity=".1" rx="8.333321" ry="20.230858" transform="matrix(.70710678 -.70710678 .70710678 .70710678 -104.65638 344.176861)"/><ellipse cx="365" cy="294" fill="#8b572a" fill-rule="nonzero" rx="4.5" ry="6"/><ellipse cx="365" cy="287" fill="#8b572a" fill-rule="nonzero" rx="4.5" ry="6"/><ellipse cx="365" cy="280" fill="#8b572a" fill-rule="nonzero" rx="4.5" ry="6"/><ellipse cx="365" cy="273" fill="#8b572a" fill-rule="nonzero" rx="4.5" ry="6"/><ellipse cx="365" cy="265" fill="#8b572a" fill-rule="nonzero" rx="4.5" ry="6"/><ellipse cx="365" cy="258" fill="#8b572a" fill-rule="nonzero" rx="4.5" ry="6"/><ellipse cx="365" cy="251" fill="#8b572a" fill-rule="nonzero" rx="4.5" ry="6"/><path d="m381.888506 202.74576c.613785-.778545 1.172545-1.598825 1.672225-2.45489l-11.789184-1.933017 12.750713.09185c2.472006-5.37033 2.623187-11.519695.418056-17.004705l-17.102678 8.863489 15.764898-11.581402c-4.025115-6.958241-11.605088-11.088202-19.642424-10.702207-8.037336.385994-15.185504 5.223277-18.523463 12.535131-3.337958 7.311854-2.306485 15.873292 2.672918 22.185751-.955652 1.211819-1.777047 2.523456-2.449809 3.911959l15.300856 7.932467-16.304191-5.469227c-2.325769 6.871062-1.022364 14.450238 3.465686 20.152641-6.929002 8.797401-5.923745 21.435772 2.309082 29.030416 8.232826 7.594645 20.927948 7.594645 29.160775 0 8.232826-7.594644 9.238084-20.233015 2.309082-29.030416 6.131134-7.78579 6.131134-18.750399 0-26.53619z" fill="#417505" fill-rule="nonzero"/><path d="m343.500335 215.3142c-.008084 4.782889 1.613256 9.428245 4.601095 13.182756-6.932735 8.740818-5.926936 21.297899 2.310326 28.843696 8.237263 7.545797 20.939225 7.545797 29.176488 0 8.237262-7.545797 9.243061-20.102878 2.310326-28.843696 2.881959-3.625465-38.398235-15.576227-38.398235-13.182756z" fill="#417505" fill-rule="nonzero" opacity=".1"/><path d="m354.5 0v299.759036l-101.797176-14.155288-123.746149 25.192249-.997111.204003-98.459564-27.06158v-260.6238283l102.214377-23.3145917 111.810013 23.3145917 4.251284-.8951138z" fill="#444053" fill-rule="nonzero"/><path d="m337.5 16v267.954964l-91.145208-12.653001-110.801277 22.519181-.893458.178856-88.160057-24.187115v-232.9741155l91.525136-20.8387695 100.10901 20.8387695 3.807633-.7986115z" fill="#fff" fill-rule="nonzero"/><path d="m252.5 285.791215-124 25.208785 2.763359-311 112.039379 23.3298951 4.260004-.8957013z" fill="#000" fill-rule="nonzero" opacity=".1"/><g opacity=".3" stroke="#444053" stroke-width="3" transform="translate(36.5 57)"><path d="m203.083986 0 .050109 87.1101871h36.328378v-35.7588357h62.217568l7.307432-9.3305614"/><path d="m.82260811 27.6507277h135.08310789l8.351352-3.7422038h3.34054v83.9916841h58.45946l2.505405 7.484407v37.837838h45.097297v46.777547"/><path d="m165.44027 200v-92.099792"/><path d="m308.987473 175.326403h-143.547203"/><path d="m273.034905 0v200"/><path d="m.40504054 157.64657h308.58243246"/><path d="m37.9610676 200v-200"/><path d="m109.690824 0v200"/><path d="m.82260811 50.5197505 238.63986489.8316009"/><path d="m70.2766216.36174636v199.63825364"/><path d="m.40504054 96.8066528h109.28578346l55.749446 60.8399172"/><path d="m177.516324 0v107.900208"/><path d="m165.44027 127.226611h143.547203"/></g><path d="m244.293103 184h-41.793103v-18.786517l39.517241-.213483 2.482759 7.258427z" fill="#ff7000" fill-rule="nonzero"/><path d="m223.5 135c-5.522847 0-10 4.414811-10 9.860757 0 5.445892 10 23.139243 10 23.139243s10-17.686216 10-23.139243c0-5.445946-4.477153-9.860757-10-9.860757zm.5 14c-2.485281 0-4.5-2.014719-4.5-4.5s2.014719-4.5 4.5-4.5 4.5 2.014719 4.5 4.5c-.001022 2.484559-2.015441 4.49815-4.5 4.49815z" fill="#ff7000" fill-rule="nonzero"/><path d="m91 141.5h14v10.5h-14z" fill="#ff7000" stroke="#b4b3b9"/><g fill-rule="nonzero"><path d="m98.5 114c-5.5228475 0-10 4.414811-10 9.860757 0 5.445892 10 23.139243 10 23.139243s10-17.686216 10-23.139243c0-5.445946-4.477153-9.860757-10-9.860757zm.5 14c-2.4852814 0-4.5-2.014719-4.5-4.5s2.0147186-4.5 4.5-4.5c2.485281 0 4.5 2.014719 4.5 4.5-.001022 2.484559-2.015441 4.49815-4.5 4.49815z" fill="#ff7000"/><path d="m302.5 74c-5.522847 0-10 4.4148112-10 9.8607568 0 5.4458918 10 23.1392432 10 23.1392432s10-17.6862162 10-23.1392432c0-5.4459456-4.477153-9.8607568-10-9.8607568zm.5 14c-2.485281 0-4.5-2.0147186-4.5-4.5s2.014719-4.5 4.5-4.5 4.5 2.0147186 4.5 4.5c-.001022 2.4845587-2.015441 4.4981499-4.5 4.4981497z" fill="#ff7000"/><ellipse cx="213.982761" cy="305.431604" fill="#000" opacity=".1" rx="13.954156" ry="5.740507" transform="matrix(.91844638 -.3955455 .3955455 .91844638 -103.361029 109.548971)"/><ellipse cx="213.5" cy="303" fill="#8b572a" rx="3" ry="4"/><ellipse cx="213.5" cy="298" fill="#8b572a" rx="3" ry="4"/><ellipse cx="213.5" cy="293" fill="#8b572a" rx="3" ry="4"/><ellipse cx="213.5" cy="289" fill="#8b572a" rx="3" ry="4"/><ellipse cx="213.5" cy="284" fill="#8b572a" rx="3" ry="4"/><ellipse cx="213.5" cy="278" fill="#3f3d56" rx="3" ry="4"/><ellipse cx="213.5" cy="273" fill="#3f3d56" rx="3" ry="4"/><path d="m201.710136 239.87642c-.426896-.528685-.817115-1.085055-1.168007-1.665333l8.226831-1.332267-8.887009.066614c-1.722314-3.691511-1.826369-7.917248-.28777-11.686475l11.933984 6.070139-11.002964-7.960292c2.808885-4.780579 8.096548-7.617446 13.702781-7.351634s10.592087 3.589784 12.920652 8.613948c2.328565 5.024165 1.609846 10.907059-1.862532 15.2453.660297.834437 1.227792 1.73609 1.692763 2.689513l-10.668643 5.458129 11.383836-3.747c1.624116 4.722311.715254 9.932089-2.41642 13.851408 4.835873 6.046903 4.135115 14.734908-1.609601 19.955835-5.744715 5.220927-14.603585 5.220927-20.3483 0-5.744716-5.220927-6.445474-13.908932-1.609601-19.955835-4.277202-5.351779-4.277202-12.887781 0-18.23956z" fill="#417505"/><path d="m228.49765 249.212327c.005791 3.288674-1.124994 6.482893-3.209095 9.064986 4.837845 6.0092 4.136801 14.643033-1.610257 19.831407-5.747057 5.188373-14.609539 5.188373-20.356596 0-5.747058-5.188374-6.448102-13.822207-1.610257-19.831407-2.010977-2.482424 26.786205-10.695111 26.786205-9.064986z" fill="#417505" opacity=".1"/><ellipse cx="20.528528" cy="289.257276" fill="#8b572a" opacity=".1" rx="8.333321" ry="20.230858" transform="matrix(.70710678 -.70710678 .70710678 .70710678 -198.523115 99.237356)"/><ellipse cx="22" cy="285" fill="#8b572a" rx="4.5" ry="6"/><ellipse cx="22" cy="278" fill="#8b572a" rx="4.5" ry="6"/><ellipse cx="22" cy="270" fill="#8b572a" rx="4.5" ry="6"/><ellipse cx="22" cy="263" fill="#8b572a" rx="4.5" ry="6"/><ellipse cx="22" cy="256" fill="#8b572a" rx="4.5" ry="6"/><ellipse cx="22" cy="249" fill="#8b572a" rx="4.5" ry="6"/><ellipse cx="22" cy="242" fill="#8b572a" rx="4.5" ry="6"/><path d="m38.8885059 192.74576c.6137854-.778545 1.1725448-1.598825 1.6722247-2.45489l-11.7891841-1.933017 12.7507133.09185c2.4720064-5.37033 2.6231869-11.519695.4180562-17.004705l-17.102678 8.863489 15.7648982-11.581402c-4.0251156-6.958241-11.6050886-11.088202-19.6424246-10.702207-8.0373359.385994-15.1855036 5.223277-18.52346222 12.535131s-2.30648491 15.873292 2.67291776 22.185751c-.95565236 1.211819-1.77704668 2.523456-2.44980918 3.911959l15.30085594 7.932467-16.30419076-5.469227c-2.32576917 6.871062-1.02236463 14.450238 3.46568568 20.152641-6.9290019 8.797401-5.92374485 21.435772 2.30908179 29.030416 8.23282669 7.594645 20.92794859 7.594645 29.16077519 0 8.2328267-7.594644 9.2380837-20.233015 2.3090818-29.030416 6.1311347-7.78579 6.1311347-18.750399 0-26.53619z" fill="#417505"/><path d="m.50033465 206.3142c-.00808328 4.782889 1.61325657 9.428245 4.6010957 13.182756-6.93273533 8.740818-5.92693663 21.297899 2.31032596 28.843696s20.93922479 7.545797 29.17648739 0 9.2430613-20.102878 2.3103259-28.843696c2.8819591-3.625465-38.39823495-15.576227-38.39823495-13.182756z" fill="#417505" opacity=".1"/></g></g></g></svg>