<svg height="443" viewBox="0 0 783 443" width="783" xmlns="http://www.w3.org/2000/svg" xmlns:xlink="http://www.w3.org/1999/xlink"><defs><path id="a" d="m783 0h-783v443h783z"/><linearGradient id="b" x1="50.036695%" x2="50.036695%" y1="100.016503%" y2="-.005283%"><stop offset="0" stop-color="#808080" stop-opacity=".25"/><stop offset=".54" stop-color="#808080" stop-opacity=".12"/><stop offset="1" stop-color="#808080" stop-opacity=".1"/></linearGradient><mask id="c" fill="#fff"><use fill="#fff" fill-rule="evenodd" xlink:href="#a"/></mask></defs><g fill="none" fill-rule="nonzero"><use fill="#fbfdfe" xlink:href="#a"/><g mask="url(#c)"><g transform="translate(133 70)"><path d="m503.151741 282.372084c-.485341.355495-.984164.69749-1.48748 1.034986-1.856676 1.246387-3.794919 2.366396-5.801622 3.352455-10.542684 5.264929-23.530048 7.834394-36.184863 9.580371-28.378963 3.923947-57.355615 4.684437-86.210931 5.431427-77.955641 2.029472-156.118001 4.049945-233.87591-.620992-30.720284-1.844975-62.1281335-4.949933-89.9723227-14.399806-3.9875851-1.352982-7.9002719-2.843962-11.7380604-4.47294-7.7564672-3.307455-15.2073493-7.325901-21.4044341-12.113837-5.8420668-4.499939-10.54268361-9.67487-13.36485127-15.55179-5.88700579-12.248836-2.77273479-26.00515 3.94564205-38.006489 2.80822637-4.87013 5.96206462-9.532056 9.43718482-13.949812 5.17697-6.758909 10.8887138-13.306321 16.1106227-20.05623 18.5687847-24.038677 30.6843325-54.399768 13.5446073-79.023436-4.9432873-7.0739052-12.0481394-13.2838216-16.0611899-20.6682222-5.1275371-9.4498728-4.7275802-19.9392316-3.0962954-30.1495942.2067193-1.2869826.4493898-2.5649654.6695907-3.8429482 2.7996982-15.1062967 8.0126194-31.3870775 24.1502055-40.81895059 16.7622378-9.80086807 40.5574254-9.30587473 61.3686647-5.80042192 32.356063 5.45392659 62.20453 16.84327331 92.345101 27.13013481s61.710201 19.6827351 94.857189 20.6997214c29.264261.8999879 63.404401-5.7914221 82.827026-23.1566883 18.87437-16.865773 54.331222-18.14825574 79.901499-7.9603929 17.5262 6.9929059 30.625911 19.5882364 36.148911 33.7495457 1.116283 2.835382 1.922402 5.7835557 2.404236 8.7928817.448146 2.7401338.598819 5.5207868.449389 8.2933883-.076396 1.3499819-.224694 2.7224634-.449389 4.0499455-4.269203 27.9581239-35.011956 50.0078269-53.697582 74.9824909-9.1316 12.199336-15.580343 26.851138-9.302368 40.004461 9.576496 20.042731 42.88077 27.166135 62.99995 42.087934 3.758717 2.685279 7.091692 5.922611 9.886574 9.602871 9.729288 13.283821 6.129677 31.211579-8.399094 41.799937z" fill="#2b2b2b" opacity=".966169"/><ellipse cx="241" cy="293" fill="#000" opacity=".39381" rx="121" ry="4"/><path d="m341 291h-3.998916l-29.250242-150.542714-3.750956 150.542714h-4.246876l-4.751812-150.291008-28.501854 150.291008h-4.499344l19.372425-154.731822.63117-5.029627 38.00097-4.238551 1.181191 9.268178z" fill="#464353"/><path d="m236 97h24v15h-24z" fill="#464353"/><path d="m376 89.9437387 14.92867-5.9437387h3.271974c.993757 0 1.799356.794268 1.799356 1.7740472v41.4519058c0 .979779-.805599 1.774047-1.799356 1.774047h-3.271974l-14.92867-6.129764z" fill="#3e3d43"/><path d="m346 92h30v29h-30z" fill="#3e3d43"/><path d="m295 38h19v3h-19z" fill="#514e7f"/><path d="m273 42h54v40h-54z" fill="#0f0f10"/><path d="m273 77h54v5h-54z" fill="#000" opacity=".1"/><path d="m346 92h1v29h-1z" fill="#000" opacity=".1"/><path d="m252 97h8v15h-8z" fill="#000" opacity=".1"/><path d="m321 136h-40l.63413-4.884093 38.179141-4.115907z" fill="#000" opacity=".1"/><rect fill="#0f0f10" height="58" rx="10.7" width="94" x="253" y="78"/><path d="m376.675258 90h.324742v33h-.324742c-1.477504 0-2.675258-1.056638-2.675258-2.360066v-28.2798679c0-1.3034285 1.197754-2.3600661 2.675258-2.3600661z" fill="#d0021b"/><path d="m391 84h3.053539c1.075001 0 1.946461.8712846 1.946461 1.9460685v41.1078625c0 1.074784-.87146 1.946069-1.946461 1.946069h-3.053539z" fill="#d0021b"/><path d="m237 97h4v15h-4z" fill="#000" opacity=".1"/><rect fill="#d0021b" height="25" rx="4" width="8" x="232" y="92"/><circle cx="273" cy="42" fill="#464353" r="27"/><circle cx="273" cy="42" fill="#ff7000" r="20"/><circle cx="322.5" cy="42.5" fill="#464353" r="19.5"/><ellipse cx="322.5" cy="43" fill="#ff7000" rx="14.5" ry="15"/><circle cx="321.5" cy="86.5" fill="#ff7000" r="2.5"/><circle cx="329.5" cy="86.5" fill="#ff7000" opacity=".5" r="2.5"/><path d="m297.136762 95.05244-.184487-.3647574c1.140941.3794355 2.236505.8838486 3.266761 1.5040613-.449967-3.9132613-15.447368-14.9010147-18.14717-14.9010147s-5.701082-4.6652921-5.701082-4.6652921-7.797929-1.2023484-8.999341-2.4767477c-1.201412-1.2743992-9.300818-.5313749-11.249175-.0810572-1.948358.4503178-4.949638-1.2023484-4.949638-1.2023484s-1.651379-2.7019066-3.748225-2.7019066-4.342182-3.0081226-4.342182-3.0081226-1.957356-1.8012711-3.757224-2.1074872c-1.799868-.306216-4.049704-2.2515888-5.102626-3.7601533-1.052923-1.5085645-6.299539-2.2515888-9.296319-1.801271-2.99678.4503177-11.100687-.6124322-11.100687-.6124322 3.298259-1.5040613 4.0947-5.1156098 4.0947-5.1156098-2.951783-.153108-10.709215-6.6737092-10.709215-6.6737092s.319477 2.1074871.68845 5.0480621l-.499464-.6439544-.067495.0540381c-.158525-2.0978186-.18107-4.2037124-.067495-6.3044487 0-.1621144.026998-.3242288.035998-.4908463 3.915292-3.4327747 5.606461-8.7547451 4.391678-13.8202522-.080994-.3422415-23.681765 13.3023867-23.699763 13.4464884-.103493 1.0267245-.229483 2.1300031-.373473 3.2422879-1.165415-.5358781-2.065349-.7430243-2.420823-.355751-1.507389 1.6571694 0 7.376205 0 7.376205s-7.35696 0-9.156828 1.6526661c-1.799869 1.6526662-5.098127 0-5.098127 0s-6.749505.7565339-6.299538 2.1119904c.449967 1.3554564-3.599736 0-3.599736 0s-2.852791.3017129-2.699802 2.2515888c.152988 1.9498759-4.351182 2.8550146-3.752725 4.2104711.598456 1.3554564-2.699803 2.2515888-2.699803 2.2515888s-3.298258-.1486049-2.096846 1.801271c0 0-1.799868 4.2149743-3.298258 4.5031777-1.49839.2882033-3.451247 3.7601533-3.451247 3.7601533s-5.777577 1.0537435-5.516596 2.8595178c.260981 1.8057742-8.882349 14.7253908-8.882349 14.7253908s-3.00128 6.1918694-.899934 10.7085564 3.599736 7.52481 4.049703 9.177476 5.903568 8.929801 5.858571 10.285258c0 .423298 1.349901 2.701906 3.190266 5.592946l-.53996.558394-1.183414 1.220362s-3.752725 9.330584.746946 9.780901c3.802221.378267 6.533521.652961 7.919419.274694.22493-.052462.438409-.145551.629954-.274694l.053996-.040528c1.63788 2.418206 2.798795 4.106898 2.798795 4.106898s.161988-.238669.449967-.648458l.449967.643955s.359974-.513363.971929-1.350954c-.197986 4.093389-.224984 8.128236-.224984 8.128236s1.952857-.301713 1.052923 8.727158 5.399604 16.400573 5.399604 16.400573v13.396954s0 .337738.062996.900635c.166488 1.922857.715447 6.457557 2.335329 9.456673 2.101346 3.908758 0 14.144481 0 14.144481s-.13949 8.348891.364473 18.760238c0 .2837.031498.576407.044997.86461-9.098334 7.61037-18.858118 17.697488-18.858118 17.697488.477872.133779.932927.338713 1.349901.607929l-.54446.697993-2.479319 3.057657-1.916859 2.368672 3.037277 9.362106 3.316257-1.296915s1.799868 3.120702 1.421896 5.237196c-.057416.382629-.212387.743995-.449967 1.04924-.114534.153635-.194368.330327-.233983.517865-.868436 3.390893 2.753798 18.012711 8.499877 18.647659 0 0 1.948357.643954 2.573812-1.112285.301477-.846597.296978-2.251589-.377973-4.5347 0 0-3.037277-3.665586-1.070921-7.614873 1.151915-2.31013 3.055276-5.403813 4.432175-7.587854l.566958-.900636c1.23741 1.562603 1.997854 2.566811 1.997854 2.566811l4.418676-4.755355c.094493.202643.188986.400782.287979.589916.330649.662428.712797 1.297831 1.142916 1.900341l2.996781 11.892892 1.210411-.270191c-.026998.288204-.044997.59442-.062995.900636-.098993 2.134506 0 4.90396.985427 6.880855.737946 1.513068 1.984355 2.566812 4.018206 2.517277 6.974489-.171121 8.99934-3.949287 8.99934-3.949287v-9.456673l2.398324-.535878s-.175487-20.777662-.791941-32.364338c0-.256681-.026998-.504356-.040497-.747527 0-.036026 0-.072051 0-.103574l15.402371-16.576196 1.183413-.472834c9.899274-3.913261 10.052263-13.995876 10.052263-13.995876s0-5.565928 1.196913-10.23122c1.196912-4.665292.152988-28.896891-2.096847-34.913136s-3.00128-12.798031-3.00128-12.798031 2.249835-3.152224 0-5.777577c-.635501-.785814-1.165001-1.651842-1.574884-2.575817l2.929285-.48184 1.687376-.279197.899934-.153108c-.449967 3.980809-.526461 7.038466.539961 7.767981 3.302758 2.251589 14.398944-5.268718 14.398944-5.268718-4.049703 0-6.299538-30.247844-5.476098-30.999875.823439-.75203 2.051849-15.909726.976428-18.611633-1.075421-2.7019063 3.775224-14.7659191 3.775224-14.7659191l.746945-1.1077817s17.701703 7.731956 19.65006 9.2135014 8.099406-3.6025421 9.147829-1.6346535 7.64944 4.8994573 7.64944 4.8994573 9.750785-.9861959 10.799208 1.4230041c1.048423 2.4092005 7.352461 8.0516815 7.352461 8.0516815.003315-1.322924.082941-2.644554.238483-3.958293.13049.310719.256481.625942.391471.945667 2.987781 7.074492 7.959917 16.031313 12.567579 11.212913 5.219618-5.475864 1.246409-15.599008-1.304904-20.701108zm-133.410723 31.972561v.085561l-.035997-.036026zm-3.491744-34.710493-1.90786 20.133707-3.748225 3.886242-.449967.477337-3.874217-4.219477s-1.952856-.900636 0-2.557805c1.952857-1.657169-3.298258-5.403813-3.298258-5.403813s-.152989-2.701907 1.799868-3.458441c1.952857-.756533 4.499671-5.7190352 4.499671-5.7190352l7.050983-3.6025421zm25.090161 103.050717c.136641-.126794.287661-.237124.449967-.328732.841439-.477337 1.381399.045032 1.660379.96368.367573 1.539599.2561 3.154858-.319477 4.629267-1.048423 2.4092 1.50289 12.041497 1.50289 12.041497s-3.302758 1.499558-3.901214 4.363579c-.088917.351953-.241416.68466-.449967.981692-.040497-.252178-.076495-.495349-.112492-.729514-.292479-1.801271-.449967-2.963091-.449967-2.963091-.537914-2.317534-.640147-4.715018-.301478-7.069989.476965-2.895543 1.439895-8.776693 1.799868-11.005766.089994-.540382.13949-.86461.14399-.900636z" fill="url(#b)"/><path d="m206.496815 48.6461538.917198-.6461538 2.585987 5.7660256-.993631 1.2339744h-3.006369s.106157-3.1410256.178344-3.2532051.318471-3.1006411.318471-3.1006411z" fill="#464353"/><path d="m187 279v12.13261s-2.020219 3.692726-8.978752 3.860377c-1.731705.100399-3.339106-.884889-4.009012-2.457406-.969706-1.932394-1.08194-4.641275-.983174-6.728084.049574-1.043878.162005-2.083956.336703-3.114772z" fill="#dfdfdf"/><path d="m187 278v3.860661l-14 3.139339c.049677-1.073397.162342-2.142886.337404-3.202852z" fill="#000" opacity=".1"/><path d="m190 281.082223-17.292344 3.917777-2.953-11.90245c-.422887-.603652-.799413-1.239676-1.12622-1.902404-.190659-.379577-.376884-.781748-.554241-1.201994-3.219037-7.505683-4.651198-21.04393-5.263081-32.562285-.031037-.582921-.062075-1.161324-.088678-1.73069-.496601-10.420293-.359149-18.780024-.359149-18.780024s2.070647-10.244061 0-14.157319c-1.596216-3.018541-2.137156-7.55539-2.301212-9.489425-.044339-.573884-.062075-.903755-.062075-.903755l.319243-.854048 1.303577-3.515606h14.339344l8.335796 7.189369 1.268106 1.093544-.141886.903754c-.359149 2.232275-1.308011 8.133793-1.773574 11.016771-.333678 2.357101-.23293 4.756958.297074 7.0764 0 0 .172923 1.147768.443393 2.968834.066509.451878.141886.930868.226131 1.450527 1.05971 6.678748 3.046113 18.874918 3.892994 21.789527.234999.799823.443393 2.806159.598581 5.521942.035472.542253.066509 1.1071.097547 1.699059.620751 11.577099.793674 32.372496.793674 32.372496z" fill="#575988"/><path d="m187 291v.123813s-2.022122 3.701126-8.987211 3.869158c-1.733336.100628-3.342251-.886902-4.012789-2.462996 3.123056.756144 8.191842 1.242553 13-1.529975z" fill="#000" opacity=".1"/><path d="m298.406929 116.646682c-4.65833 4.783129-9.642925-4.110713-12.656339-11.135234-1.690231-3.953815-2.75059-7.320385-2.75059-7.320385l12.398046-5.191063s.761284 1.1969031 1.71742 3.0931204c2.569332 5.0655446 6.570602 15.1159446 1.291463 20.5535616z" fill="#ffcdd3"/><path d="m206.891224 46.5779039c-.196795 4.5232027.136229 9.0541681.992041 13.4972132 0 0-24.985059 2.7414787-22.740623-1.2153888 1.315239-2.3211186 2.168125-8.4483234 2.643945-13.1316828.345643-3.3171892.498265-5.9078865.498265-5.9078865s23.939152-9.7459566 20.348054-1.5215207c-1.07284 2.4536234-1.571105 5.3595908-1.741682 8.2792656z" fill="#ffcdd3"/><path d="m209.268278 110.395455-3.268278 40.604545 15-2.572727-2.621614-33.486364.873872-8.940909z" fill="#464353"/><path d="m221 148.427273-6.512813 1.118182-8.487187 1.454545.598427-7.409091 2.673268-33.195454 3.402737-1.5 2.411182-1.059091 4.167152-1.836364-.873616 8.940909z" fill="#000" opacity=".1"/><path d="m156.822857 280.682411c-1.980492 3.938554 1.078621 7.593532 1.078621 7.593532.679803 2.282111.684335 3.677485.380689 4.501205-.62995 1.750969-2.592315 1.107297-2.592315 1.107297-2.7797-.304053-4.854755-4.111797-7.721308-11.325015-.918065-2.310161-2.554542-6.556304-4.909431-12.738427l-3.059113-9.335499 1.93064-2.363133 2.497143-3.051817 1.690444-2.070554 16.881773 17.496184s-.720591 1.075788-1.713103 2.619701c-1.386798 2.16508-3.303843 5.270911-4.46404 7.566526z" fill="#dfdfdf"/><path d="m189 248.718533-21.052384 22.281467c-3.690061-7.112534-5.276696-21.382335-5.947616-33.42891 3.921256-3.22077 7.706514-5.994211 10.571525-7.331725 0 0 9.692075-6.920182 11.736568-10.239365 1.083445 6.611525 3.114338 18.68494 3.980188 21.570213.285594.948338.521323 3.609947.711719 7.14832z" fill="#000" opacity=".1"/><path d="m184 195-24-3.576996 1.304734-3.423004h14.352071z" fill="#000" opacity=".1"/><path d="m189 246.889393-21.512085 23.110607c-3.308157-7.540113-4.771903-21.140463-5.397281-32.711654-.031722-.585596-.063444-1.166652-.090634-1.73863 3.956193-3.304757 7.785498-6.146486 10.65861-7.517416 0 0 9.040786-6.550502 11.501511-10.0323.067976.45395.145015.935137.231118 1.45718 1.083081 6.709385 3.113293 18.961502 3.978852 21.889481.240181.798952.439577 2.814491.629909 5.542732z" fill="#000" opacity=".1"/><path d="m162 270.39539s-.698389 1.069591-1.660322 2.60461c-3.491947-4.49765-11.771596-14.853435-16.339678-17.941374l1.63836-2.058626z" fill="#000" opacity=".1"/><path d="m216.492155 206.268285c-1.197116 4.666356-1.197116 10.230781-1.197116 10.230781s-.153015 10.077342-10.053979 13.990041l-1.183615.451291-40.953988 44.059602s-15.152975-19.856832-20.103457-21.06178c0 0 19.950442-20.610489 29.401363-25.123405 0 0 11.40411-8.272176 12.002668-11.128852s3.90188-4.36399 3.90188-4.36399-2.551748-9.62605-1.503146-12.035947c.575719-1.47287.687241-3.087339.319531-4.62574-.279027-.902583-.81908-1.43962-1.660662-.965764-.162334.091806-.313379.202375-.450044.329443l-25.949526-3.912698v-13.371771s-6.300614-7.369592-5.400526-16.395425-1.053103-8.723467-1.053103-8.723467.09451-15.244631 1.377135-16.517274c1.282624-1.272642 13.604824-7.10333 13.604824-7.10333l38.631761 6.882197 1.593155 7.410209s1.350132 5.893869 3.600351 8.51136 0 5.77202 0 5.77202.751573 6.769374 3.001792 12.794118c2.250219 6.024743 3.276319 30.236539 2.074702 34.898381z" fill="#575988"/><path d="m208.6366 38.2907405c-1.062048 2.4477488-1.5553 5.3649913-1.724161 8.2594428-5.525012 4.9090584-13.825999 4.5369344-18.912439-.8478236.342166-3.3092469.493252-5.8937414.493252-5.8937414s23.698317-9.7226223 20.143348-1.5178778z" fill="#000" opacity=".1"/><path d="m211.999997 35.0092734c-.00448 7.4097772-5.782539 13.5326069-13.179928 13.966359-7.397389.4337522-13.851485-4.9718345-14.721988-12.3303064s4.144149-14.1206888 11.438572-15.4248207c7.294424-1.304132 14.341666 3.3016016 16.074973 10.5058172.258674 1.0751372.38904 2.1771363.388371 3.2829509z" fill="#ffcdd3"/><path d="m200.860034 60.2524101s-10.008561-4.644823-10.632973-5.247346-21.387236 52.7612319-21.387236 52.7612319l-5.839825 26.528999s31.144236 13.336443 37.882495 11.537866c6.73826-1.798576 7.335719 0 7.335719 0s6.890993-38.669388 9.13708-42.113661c2.246086-3.444273-2.097845-38.5210054-2.097845-38.5210054l-7.784936-10.1979269z" fill="#000" opacity=".1"/><path d="m200.860034 58.2524101s-10.008561-4.644823-10.632973-5.247346-21.387236 52.7612319-21.387236 52.7612319l-5.839825 26.528999s31.144236 13.336443 37.882495 11.537866c6.73826-1.798576 7.335719 0 7.335719 0s6.890993-38.669388 9.13708-42.113661c2.246086-3.4442733-2.097845-38.5210054-2.097845-38.5210054l-7.784936-10.1979269z" fill="#000" opacity=".1"/><path d="m217.352211 102.715031c-.449303.714935-1.127751 2.936178-1.887073 6.011745-.530178 2.140307-1.105286 4.68979-1.693873 7.43262-2.650889 12.378707-5.553388 28.673817-5.553388 28.673817s-.184214-.548566-1.482701-.737417c-1.051369-.152879-2.839596-.067446-5.840942.737417-6.739548 1.798577-37.894234-11.542369-37.894234-11.542369l.898606-4.046799 4.942336-22.482215s20.820712-53.3592888 21.418285-52.7567655c.363935.3642119 4.254901 2.2482215 7.220303 3.6466153 1.891566.8992886 3.414704 1.5962373 3.414704 1.5962373l6.290245-4.973066.345964-.274283 7.750481 10.1934362s4.317804 35.0722553 2.071287 38.5210267z" fill="#fff"/><path d="m193.028633 64.4746715c.90982 3.4465498-1.210062 9.11162-1.210062 9.11162s-7.278566 17.6316345-9.402997 25.7796547c-2.124431 8.1480198-14.275087 24.5695528-14.275087 24.5695528s-1.783249 1.761371-4.280706 4.212948c-.277496.273393-.568638.55575-.859781.851553l5.004014-22.409297s21.080546-53.186224 21.685577-52.5856549c.368477.3630306 4.308001 2.2409297 7.310409 3.6347879-1.87878 1.6851791-4.576398 4.5535691-3.971367 6.8348355z" fill="#000" opacity=".1"/><path d="m192.407489 63.781318c.892659 3.455585-1.187237 9.1355061-1.187237 9.1355061s-7.141276 17.6778559-9.225636 25.8472361c-2.08436 8.1693798-14.005826 24.6339618-14.005826 24.6339618s-1.749613 1.765988-4.199963 4.223992c-.290114.292085-.593619.593156-.892659.898722-4.784655 4.79468-11.510844 11.517118-13.613057 13.480825-.307967.292085-.517742.480816-.607008.543727-.189997.128868-.40175.221759-.624862.27411-1.374695.377463-4.083917.103353-7.855403-.27411-4.463297-.449361-.740907-9.733156-.740907-9.733156l1.173847-1.217768 1.071191-1.114415 12.158022-12.595585.892659-.948151 3.717927-3.86001 1.892438-20.0414936.044633-.4808161s-.553449-1.2716912-1.405939-3.2129301c-2.271818-5.2530284-6.735115-15.3906091-8.368682-18.6664497-.187459-.3819567-.334747-.6650541-.44633-.8403048 0-.0224681-.022316-.0449361-.035706-.0629105-1.191701-1.9457325 2.079896-1.7974434 2.079896-1.7974434s3.27606-.8987217 2.677979-2.2468043c-.598082-1.3480825 3.869678-2.2468042 3.722389-4.1925367-.147288-1.9457325 2.677979-2.2468043 2.677979-2.2468043s4.016967 1.3480826 3.570638 0c-.44633-1.3480825 6.248616-2.0985151 6.248616-2.0985151s3.271596 1.6491543 5.056915 0c1.785319-1.6491544 9.10959-1.6446607 9.10959-1.6446607s-1.495205-5.693402 0-7.3425563c1.495204-1.6491544 12.707007 7.3425563 12.707007 7.3425563s-6.485171 4.785693-5.592511 8.2367843z" fill="#323232"/><path d="m155 140.823118s12.28658 17.801429 20.869868 12.022812c8.583288-5.778618-11.545033-20.84593-11.545033-20.84593z" fill="#000" opacity=".1"/><path d="m155 139.823118s12.28658 17.801429 20.869868 12.022812c8.583288-5.778618-11.545033-20.84593-11.545033-20.84593z" fill="#ffcdd3"/><path d="m214.480949 150c.922549-8.279196 3.598376-20.718227 1.416615-24.49131-1.07995-1.870802-1.880075-5.437017-2.465959-9.340516-.314803-2.100155-.564022-4.299246-.765147-6.38591-.533416-5.535953-.703935-10.2759165-.703935-10.2759165s-5.24672-24.0685811-4.227982-29.015412c.638351-3.0940179-.09619-10.8470511-.734541-16.2166112l.336665-.2743243 7.542161 10.1949688s4.22361 35.0775285 2.037476 38.5268192c-.437226.715042-1.097439 2.936618-1.836352 6.012648l4.171143-1.798848-.874453 8.845833 2.62336 33.130276z" fill="#000" opacity=".1"/><path d="m207 48s7.780369 6.5396567 10.74088 6.6890052c0 0-.798797 3.6205712-4.106807 5.1321597 0 0 8.123355 1.0771199 11.133509.6109714 3.010154-.4661486 8.272283.2941714 9.323806 1.8102856 1.051523 1.5161141 3.335088 3.4621712 5.140278 3.7608683s3.768334 2.1135084 3.768334 2.1135084l-13.245581 19.6099186s-4.815344 12.0700792-3.763821 14.7855078c1.051523 2.715428-.153441 17.953507-.979316 18.704776-.825874.751268 1.430613 31.078077 5.492291 31.078077 0 0-11.128996 7.544366-14.44152 5.281509-3.312523-2.262857 4.215119-26.701713.902595-32.286444-3.312523-5.584731-4.061677-26.167678-4.061677-26.167678s-5.41557-24.2170954-4.359534-29.1953808-1.543437-21.9270842-1.543437-21.9270842z" fill="#323232"/><path d="m297 96.2185597c-4.004494-1.2948764-10.139326-1.3321391-11.27191 9.7814403-1.676405-4.108205-2.72809-7.6062343-2.72809-7.6062343l12.296629-5.3937657s.755056 1.2482981 1.703371 3.2185597z" fill="#000" opacity=".1"/><path d="m235.568509 67 7.349856.8961749s2.247662 2.9887431 4.337988 2.9887431 3.744606 2.6885246 3.744606 2.6885246 2.998382 1.64 4.944857 1.1919126c1.946476-.4480874 10.038061-1.1874317 11.238313.0806557 1.200251 1.2680875 8.990649 2.46 8.990649 2.46s2.998382 4.6287432 5.695577 4.6287432 17.680113 10.9064481 18.129645 14.7868852c0 0-14.834572-9.409836-14.982918 11.2783607 0 0-6.293455-5.601093-7.345361-7.989399-1.051906-2.3883059-10.788779-1.4159562-10.788779-1.4159562s-6.590147-2.9170492-7.642053-4.8572678c-1.051906-1.9402185-7.192519 3.0918033-9.138995 1.6175957-1.946476-1.4742077-19.631084-9.1454645-19.631084-9.1454645l-5.47081-10.2477596z" fill="#323232"/><g fill="#000"><path d="m158 292.773747c-.61946 1.755839-2.549146 1.110376-2.549146 1.110376-4.046546-.451372-8.194107-8.502355-12.442684-24.152949l-3.00817-9.361468 1.89849-2.369706c-.84196 3.200081 1.464224 8.05126 2.10151 9.269966 1.21004 2.52722 2.220803 8.730034 3.957207 11.730034-.1025 2.933922 4.102214 13.394594 10.042793 13.773747z" opacity=".1"/><path d="m210.986751 32.5874782c-.30032-.1028447-.600639-.2235754-.883293-.3443061-1.01137-.4158501-2.075738-.8943013-2.689626-1.7886027-.560891-.8317003-.741966-2.003235-1.616426-2.4772148-1.006954-.5455238-2.208232.1922748-3.299098.4471507-1.298441.308534-2.649878-.0581296-3.912987-.5276378-1.881414-.7020266-4.509209-1.994292-6.439204-.6573115-1.501597 1.0373896-.918624 3.2373709-1.302857 4.8068698-.596222 2.4369712-3.153355 4.0243562-3.634749 6.4881564-.216407 1.0865762-.07508 2.4146137-.945123 3.0898112-.253925.1832845-.542674.3111867-.847961.3756066-2.326845-4.7704251-1.751569-10.4683132 1.480463-14.6634203 3.232032-4.1951072 8.550441-6.1470933 13.686837-5.023404s9.184323 5.1247487 10.417273 10.29666z" opacity=".1"/><path d="m179.299023 36.929672c1.095229-.3647165 2.401289.252496 3.011879 1.1222044s.695471 1.921775.769399 2.9289535c.725589.1571086 1.133562-.6845447 1.199275-1.3157847.273808-2.5838756.287498-5.215445 1.133562-7.7067387.846065-2.4912938 2.694264-4.9040333 5.536383-5.863518.96652-.3435815 1.999375-.4446004 3.011879-.2945787.599638.1038039 1.166419.3170227 1.766057.4180211 2.072721.3506889 4.33163-.6564895 6.2784.0448882 1.218442.4404652 2.004269 1.4588657 2.562835 2.4800717.248962.5482859.585848 1.04994.996659 1.4841154.821421.7574879 2.124744.9566792 3.307591 1.1951477 1.182847.2384684 2.480694.648073 2.987237 1.5851137.457258.8416533.120475 1.8235821-.032857 2.7437897-.234134 1.44989.003504 2.9384384.676304 4.2363217.219046.4264376.662614.9089855 1.185585.7715155.238038-.0822696.439226-.2495741.566781-.4713258 1.369037-1.9638578 1.325227-4.5112618 3.031047-6.2647061.572257-.5863518 1.308798-1.0464556 1.864627-1.6440295.854472-.8841041 1.217693-2.1492601.966539-3.3666132-.306664-1.3494508-1.369036-2.4744607-2.209624-3.6471643-1.104946-1.5027449-1.909782-3.2140307-2.368433-5.0358923-.080886-.2109825-.080886-.445507 0-.6564896.160885-.2147181.367963-.3884935.605114-.5077974.96134-.6532149 1.298117-1.9373141.785827-2.9962858-.476424-1.0184005-1.547011-1.773083-2.721644-2.2275757-1.174633-.4544928-2.464265-.6480731-3.740207-.8416533-.83785.1262479-1.820818-.3647165-2.080935-1.0520667-.114999-.3058007-.114999-.636851-.232736-.9426517-.22726-.5863518-.881659-1.0015674-1.585344-1.14464847-.715709-.12018584-1.448927-.06734671-2.141172.15430307-.788565.2272464-1.703081.5611022-2.390337.1739417-.361426-.2104133-.564043-.59196281-.95285-.76309898-.788564-.34507785-1.620938.35068888-2.190457.92581868-.552583.5991526-1.228973 1.0640618-1.979627 1.3606728-.791303.2805511-1.766056.2805511-2.447836-.1655252-.547615-.3562999-.821422-.9286241-1.256776-1.3831169-.714637-.74907142-1.84546-1.15587052-2.973546-1.24845238-1.131421-.06092189-2.265013.06602962-3.356877.37593847-2.084539.51741983-4.076022 1.36961471-5.900546 2.52495991-.911778.5863518-1.785223 1.2708965-2.261648 2.1546325-.338441.6891236-.512955 1.4505168-.509281 2.2219647-.08488 2.415545.698208 4.962949 2.738072 6.6546721-1.243085.5330471-1.664748 1.8376097-1.954983 2.9962858-.465473 1.8460262-.933683 3.7257186-.758446 5.611022.087618.9735123.347735 1.9470246.208093 2.9149259-.065714.4685204-.224522.9286242-.186189 1.4027555.103963.5379509.517118.9568376 1.043206 1.0576777z"/><path d="m197 190s14.536894 8.673654 15 12z" opacity=".1"/><path d="m196 196s15.844907 8.171024 14.964635 11z" opacity=".1"/><path d="m195 203s9.386248 5.021176 10 8z" opacity=".1"/><path d="m199 214s5.738156 5.094362 6.887509 3.784758c1.149353-1.309605-6.887509-3.784758-6.887509-3.784758z" opacity=".1"/><path d="m190 218s4.617384 7.530453 2.395351 7.98246c-2.222032.452008-2.395351-7.98246-2.395351-7.98246z" opacity=".1"/><path d="m170 84s-7.946328 4.6924127-5.549388 5.8677168 5.549388-5.8677168 5.549388-5.8677168z" opacity=".1"/><path d="m170 67s-7.581593 15.0059331-4.073 13.9464233 4.073-13.9464233 4.073-13.9464233z" opacity=".1"/><path d="m256 81s-4.760331 5.823-3.894816 9z" opacity=".1"/><path d="m269 84s-6.911695 6.2841396-5.898593 7z" opacity=".1"/><path d="m273.340272 92s-1.101747 4.82.659728 5z" opacity=".1"/><path d="m192.612472 184.295964c-1.895127 2.466368-1.895127 6.838565-2.751279 8.632287-.468208.986547-1.511643 2.690583-2.358876 4.071749-.276466-.896861-.811561-1.430493-1.645417-.959641-.548472-4.112108-1.516102-11.210763-1.82824-12.641256-.445913-2.017937 4.459123-7.399103 4.459123-7.399103s4.793558 1.008969 6.019817 3.475336c1.226258 2.466368 0 2.358745-1.895128 4.820628z" opacity=".05"/><path d="m167 131.71621c-5.348877.753746-15.302246 15.28379-15.302246 15.28379s-1.306017-1.934312-3.120178-4.635992c-2.282188-3.428182-5.348877-8.1005-7.577576-11.642198l13.060175-13.72181 2.375793 2.606327s4.608949 4.690479 4.608949 5.598607c0 .35417.891479 1.430301 2.023658 2.606327 1.733928 1.829877 3.931425 3.904949 3.931425 3.904949z" opacity=".1"/><path d="m150.455235 70.8621485c-.191199-.3918857-.341426-.6823421-.455235-.8621485l5.881639.3964961 3.118361 19.6035039c-2.326252-5.3757492-6.878604-15.7768557-8.544765-19.1378515z" opacity=".1"/><path d="m162 128.67183c-4.7272 4.804575-11.37262 11.540886-13.449589 13.508646-.304269.292687-.511525.481808-.599719.544848-.187715.129135-.396926.222217-.617359.274676-2.076969-3.115994-5.040288-7.605367-7.333333-11.257205l1.058328-1.116714 12.020846-12.626081 1.48607 1.634546s4.559631 4.651477 4.559631 5.552053c0 .432277 1.424333 1.99928 2.875125 3.485231z" opacity=".1"/></g><path d="m156.857869 70.4502924-6.819003-.4502924s-1.8184 4.2012281-3.332219 4.502924-3.486784 3.7509356-3.486784 3.7509356-5.837066 1.0536843-5.58249 2.8548539c.254576 1.8011695-8.973808 14.684035-8.973808 14.684035s-3.032184 6.1780115-.909201 10.6809355 3.636802 7.506374 4.091402 9.154445c.4546 1.64807 5.837067 8.857251 5.791607 10.208128-.04546 1.350878 13.756202 21.163743 13.756202 21.163743s10.151223-14.409357 15.606425-15.161345c0 0-6.059821-5.552105-6.059821-6.45269s-4.664198-5.552105-4.664198-5.552105l-5.909803-6.304094s-1.972964-.900585 0-2.553158c1.972965-1.652573-3.332219-5.403509-3.332219-5.403509s-.154564-2.701754 1.818401-3.453742c1.972965-.751989 4.546002-5.700702 4.546002-5.700702l7.123585-3.6023392z" fill="#323232"/><path d="m131 99.9080128s7.85412-1.5780633 7.998112-.5734493c.143993 1.0046145-7.998112.5734493-7.998112.5734493z" fill="#000" opacity=".1"/><path d="m137 108s7.310713.999458 6.989731 2.628575c-.320981 1.629116-6.989731-2.628575-6.989731-2.628575z" fill="#000" opacity=".1"/><path d="m144 83s6.160168 9.7419573 7 7.725086z" fill="#000" opacity=".1"/></g></g></g></svg>