<svg height="443" viewBox="0 0 783 443" width="783" xmlns="http://www.w3.org/2000/svg" xmlns:xlink="http://www.w3.org/1999/xlink"><defs><path id="a" d="m783 0h-783v443h783z"/><linearGradient id="b" x1="49.98887%" x2="49.98887%" y1="100.023495%" y2="-.001611%"><stop offset="0" stop-color="#808080" stop-opacity=".25"/><stop offset=".54" stop-color="#808080" stop-opacity=".12"/><stop offset="1" stop-color="#808080" stop-opacity=".1"/></linearGradient><mask id="c" fill="#fff"><use fill="#fff" fill-rule="evenodd" xlink:href="#a"/></mask></defs><g fill="none" fill-rule="evenodd"><use fill="#fbfdfe" fill-rule="nonzero" xlink:href="#a"/><g mask="url(#c)"><g fill-rule="nonzero" transform="translate(116 14)"><path d="m319.562929 79.1590896c-35.259337-1.2505968-68.844293-12.9098577-100.910626-25.6639991-32.066332-12.7541415-63.835755-26.8902654-98.248167-33.6493278-22.1368667-4.3454591-47.4521362-4.9585921-65.2862349 7.1921485-17.167267 11.6787254-22.7112185 31.8926527-25.6900582 50.6078103-2.2438645 14.1117932-3.5629258 28.9291765 2.5797141 42.1261355 4.2686966 9.162934 11.8472151 16.86116 17.0893888 25.634803 18.2283569 30.535001 5.3541235 68.189158-14.4171944 98.003971-9.2480316 13.985274-20.0195546 27.328217-27.16974324 42.213726-7.1501886 14.885509-10.46001041 31.946181-4.20542066 47.13339 6.20591591 15.055823 20.9832968 26.359856 36.9921262 34.311122 32.5189993 16.15557 70.8399213 20.778399 108.2068363 23.39638 82.716341 5.795567 165.875614 3.284641 248.810988.773715 30.69373-.934298 61.518879-1.873462 91.716136-6.734731 16.763274-2.700705 34.071695-6.982905 46.240157-17.328309 15.453948-13.138566 19.28458-35.362208 8.926785-51.824344-17.352228-27.605588-65.378716-34.457107-77.517974-64.101605-6.68292-16.311286.180093-34.481437 9.890526-49.634583 20.832408-32.452258 55.751028-60.924018 57.5909-98.023435 1.26552-25.4790865-15.522091-50.9971016-41.474988-63.0505195-27.208682-12.6519526-64.930916-11.0461279-85.004012 9.868523-20.666917 21.5715791-56.987344 29.8586081-88.119139 28.7491291z" fill="#262626"/><path d="m223.762069 77.9575339c-.726457-2.4894747 1.038493-4.0435694 4.422126-5.0325388 5.56912-1.5016616 11.411934-1.6851505 17.064433-.5358948l-4.387997-15.0050528c-5.624564-.5184573-11.296399.0539107-16.703642 1.6856326-12.968969 3.7804938-19.619222 13.0660882-16.318473 24.358852 5.129081 17.6552959 28.575611 7.7412431 30.808614 15.3363332.858097 2.9230627-1.41391 4.6427967-4.992566 5.6853557-5.3046 1.549223-12.71544 1.354352-18.94152 0l4.441628 15.195052c6.210956.774689 12.514741.277408 18.527099-1.461531 13.290755-3.897416 20.506572-13.119678 17.166819-24.548851-5.621512-18.9999045-28.975407-8.5207264-31.067019-15.6724853zm34.411647-42.6767087-14.626656 7.8679092 14.875309 51.1535892c2.764439 9.4512344 11.886597 14.3424924 21.345168 11.5801984 5.241218-1.524864 8.775994-3.600238 10.565321-5.358948l-3.783428-12.9589089c-1.803954 1.4274288-11.043126 7.3076556-13.802688-2.1435789l-6.591747-22.6634759 12.140125-3.5417771-3.973575-13.601983-12.140125 3.5417771zm37.375983 9.2563638-2.403647-4.4284393-13.802688 4.0289541 16.323349 55.8743342 15.977184-4.6622838-11.062628-37.8633995c2.330514-6.0166365 8.985643-6.9861188 11.16989-6.8594527l-4.290486-14.6883878c-2.267132-.170512-10.155775.6089713-11.910974 8.6035465zm15.80654-9.7435408 16.040567-4.6768996 16.323349 55.8645911-16.040567 4.6817714-16.323349-55.8353605zm-1.41391-4.8717704 15.031328-8.1261131-3.788304-12.93455036-15.05083 8.06277996 3.807806 13.0319859zm50.491219-10.6155877c-4.667501 1.3421833-8.633815 4.4376989-11.067504 8.6376489l-1.989225-3.7171608-14.056217 4.1020306 21.749838 74.4455232 14.987448-8.0238055-5.211966-18.0888835c2.783941.9743541 6.859902 2.3628086 12.481414.7258938 11.438045-3.3371628 19.170671-15.5896653 13.256626-35.8123842-5.475245-18.5127276-18.965898-25.5085898-30.150414-22.2493754zm9.019771 45.1125939c-3.768802 1.1010201-6.396724.4141004-8.415203-.7989704l-6.986666-23.6719324c1.121377-2.333578 3.04722-4.2822861 6.694133-5.3589474 5.811658-1.7002479 11.74033 3.6392125 14.182981 12.0040423 2.501158 8.5548288.404671 16.0768423-5.475245 17.8111926zm71.670617-36.898789c-4.778041-16.3447897-16.469615-26.9311468-31.61308-22.51245105s-20.643088 20.01810455-15.904051 36.23622825c5.616636 19.2045189 19.302311 25.737563 34.904078 21.1922012 7.605861-2.2166555 12.851955-5.622023 16.489117-9.314825l-3.729797-12.7689102c-3.710296 3.4394699-8.288439 6.2358661-14.626657 8.0773953-6.196827 1.8074268-12.325396 1.2423015-15.231225-6.089713l31.237663-9.1150824c-.243778-.828201-1.087248-4.1848508-1.530924-5.7194584zm-33.339026 3.1422919c-2.111114-7.215092 1.423662-11.5022499 5.450868-12.6666031 3.900441-1.1351225 8.927136.6528173 11.033374 7.8679092z" fill="#000" opacity=".1"/><path d="m223.762069 73.9575339c-.726457-2.4894747 1.038493-4.0435694 4.422126-5.0325388 5.56912-1.5016616 11.411934-1.6851505 17.064433-.5358948l-4.387997-15.0050528c-5.624564-.5184573-11.296399.0539107-16.703642 1.6856326-12.968969 3.7804938-19.619222 13.0660882-16.318473 24.358852 5.129081 17.6552959 28.575611 7.7412431 30.808614 15.3363332.858097 2.9230622-1.41391 4.6427972-4.992566 5.6853557-5.3046 1.549223-12.71544 1.354352-18.94152 0l4.441628 15.195052c6.210956.774689 12.514741.277408 18.527099-1.461531 13.290755-3.897416 20.506572-13.119678 17.166819-24.548851-5.621512-18.9999045-28.975407-8.5207264-31.067019-15.6724853zm34.411647-42.6767087-14.626656 7.8679092 14.875309 51.1535892c2.764439 9.4512346 11.886597 14.3424924 21.345168 11.5801984 5.241218-1.524864 8.775994-3.6002385 10.565321-5.3589476l-3.783428-12.9589093c-1.803954 1.4274288-11.043126 7.3076556-13.802688-2.1435789l-6.591747-22.6634759 12.140125-3.5417771-3.973575-13.601983-12.140125 3.5417771zm37.375983 9.2563638-2.403647-4.4284393-13.802688 4.0289541 16.323349 55.8743347 15.977184-4.6622843-11.062628-37.8633995c2.330514-6.0166365 8.985643-6.9861188 11.16989-6.8594527l-4.290486-14.6883878c-2.267132-.170512-10.155775.6089713-11.910974 8.6035465zm15.80654-9.7435408 16.040567-4.6768996 16.323349 55.8645911-16.040567 4.6817714-16.323349-55.8353605zm-1.41391-4.8717704 15.031328-8.1261131-3.788304-12.93455036-15.05083 8.06277996 3.807806 13.0319859zm50.491219-10.6155877c-4.667501 1.3421833-8.633815 4.4376989-11.067504 8.6376489l-1.989225-3.7171608-14.056217 4.1020306 21.749838 74.4455235 14.987448-8.0238058-5.211966-18.0888835c2.783941.9743541 6.859902 2.3628086 12.481414.7258938 11.438045-3.3371628 19.170671-15.5896653 13.256626-35.8123842-5.475245-18.5127276-18.965898-25.5085898-30.150414-22.2493754zm9.019771 45.1125939c-3.768802 1.1010201-6.396724.4141004-8.415203-.7989704l-6.986666-23.6719324c1.121377-2.333578 3.04722-4.2822861 6.694133-5.3589474 5.811658-1.7002479 11.74033 3.6392125 14.182981 12.0040423 2.501158 8.5548288.404671 16.0768423-5.475245 17.8111926zm71.670617-36.898789c-4.778041-16.34478972-16.469615-26.9311468-31.61308-22.51245105s-20.643088 20.01810455-15.904051 36.23622825c5.616636 19.2045189 19.302311 25.737563 34.904078 21.1922012 7.605861-2.2166555 12.851955-5.622023 16.489117-9.314825l-3.729797-12.7689102c-3.710296 3.4394699-8.288439 6.2358661-14.626657 8.0773953-6.196827 1.8074268-12.325396 1.2423015-15.231225-6.089713l31.237663-9.1150824c-.243778-.828201-1.087248-4.1848508-1.530924-5.7194584zm-33.339026 3.1422919c-2.111114-7.215092 1.423662-11.5022499 5.450868-12.6666031 3.900441-1.1351225 8.927136.6528173 11.033374 7.8679092z" fill="#6772e5"/><ellipse cx="330" cy="408" fill="#262626" opacity=".542829" rx="45" ry="7"/><path d="m314 396-87-1.108949.258769-2.222763 4.203771-36.668288h76.405129l5.619676 36.668288.429654 2.777237z" fill="#d0d2d5"/><path d="m314 395h-43.456016l-43.543984-.598949.259016-2.401051h86.31092z" fill="#000" opacity=".1"/><path d="m213 393h115v3h-115z" fill="#d0d2d5"/><path d="m436.999895 135.273187c.010359-1.919494-.743372-3.764409-2.095239-5.128542s-3.191029-2.135637-5.11255-2.144645h-321.584235c-4.000382.021441-7.226665 3.276997-7.207789 7.273187l-.000082 194.726813h336z" fill="#444053"/><path d="m101 328v22.801555c0 3.975591 3.227038 7.198443 7.207792 7.198443h321.584414c1.912022.001292 3.746103-.756699 5.098107-2.106949s2.110979-3.181952 2.109685-5.091494l.000002-22.801555z" fill="#d0d2d5"/><path d="m115 141h310v175h-310z" fill="#282828"/><path d="m271.455208 350c2.308119.000393 4.488758-1.059728 5.915813-2.87598.215-.274049.41056-.562843.585241-.864259l-4.106443-.683595 4.462465.03418c.864976-1.88477.916135-4.043077.141433-5.966805l-5.984091 3.110356 5.520775-4.062506c-1.424774-2.407597-4.065703-3.825427-6.857122-3.681369s-5.272745 1.826235-6.442715 4.367741c-1.169971 2.541505-.835542 5.522992.868338 7.741374 1.421839 1.812706 3.594204 2.874098 5.896306 2.880863z" fill="#ff7000"/><path d="m278 358 35 35-5.37136-35z" fill="#000" opacity=".1"/><path d="m115 141h310v10h-310z" fill="#444053" opacity=".1"/><rect fill="#ff7000" height="6" rx=".78" width="9" x="117" y="142"/><rect fill="#ff7000" height="6" opacity=".3" rx=".58" width="93" x="223" y="142"/><path d="m313.562371 146.134173h-.229046l-.082847-.068561c.283553-.342787.440253-.773658.443473-1.219399-.005398-1.025037-.836675-1.8516-1.856718-1.846187-1.020042.005414-1.842585.840755-1.837207 1.865793s.836641 1.851616 1.856683 1.846222c.441458-.006724.867569-.163845 1.208583-.445644l.082847.06856v.230168l1.427882 1.434875.423979-.430952zm-1.705662 0c-.521245.00198-.992171-.312286-1.192554-.795836-.200383-.483549-.090621-1.040816.277957-1.411199.368579-.370384.92313-.480684 1.404323-.279319s.793928.674597.791957 1.198394c.002621.342389-.131571.671519-.372504.913632-.240932.242112-.568459.376962-.909179.374328z" fill="#444053"/><circle cx="421" cy="145" fill="#ff7000" r="3"/><path d="m341.083214 190h-142.166428c-4.923977 0-8.916786 3.728935-8.916786 8.326654v78.346692c0 4.597719 3.992809 8.326654 8.916786 8.326654h142.166428c4.923977 0 8.916786-3.728935 8.916786-8.326654v-78.346692c0-4.597719-3.992809-8.326654-8.916786-8.326654z" fill="#000" opacity=".1"/><rect fill="#454b69" height="95" rx="18.67" width="149" x="196" y="185"/><rect fill="#ff7000" height="8" opacity=".3" rx="4" width="24" x="211" y="239"/><rect fill="#ff7000" height="8" opacity=".3" rx="4" width="24" x="243" y="239"/><rect fill="#ff7000" height="6" opacity=".3" rx="3" width="21" x="256" y="255"/><rect fill="#ff7000" height="8" opacity=".3" rx="4" width="24" x="275" y="239"/><rect fill="#ff7000" height="8" opacity=".3" rx="4" width="24" x="306" y="239"/><rect fill="#ff7000" height="16" rx="2.95" width="16" x="214" y="220"/><g fill="#454b69"><path d="m224 230h-5v-5h5zm-4.798464-.206334h4.587332v-4.587332h-4.587332z"/><path d="m221.895354 219h1v6h-1z"/><path d="m221.895354 230h1v5h-1z"/><path d="m213 227.895399h6v1h-6z"/><path d="m224 227.895399h6v1h-6z"/><path d="m218.843566 225-1.720774-1.770235h-4.122792v-.229765h4.213625l1.786375 1.83812z"/><path d="m224.152098 225-.152098-.167102 2.082168-1.832898h3.917832v.229765h-3.828671z"/><path d="m217.215126 232h-4.215126v-.201373h4.114286l1.719327-1.798627.166387.132723z"/><path d="m230 232h-3.919651l-2.080349-1.858447.162445-.141553 2.017468 1.799087h3.820087z"/></g><rect fill="#ff7000" height="8" rx="4" width="45" x="211" y="193"/><path d="m351.993227 318.061744c-.029233-.836107-.131548-1.672214-.233863-2.503461-.375156-3.120819-.760057-6.241639-1.369077-9.318709-.107611-.60032-.270713-1.189406-.487215-1.759714-.219247-.539581-.521321-1.035412-.750312-1.570132.002094-.019388.002094-.038945 0-.058333.282585-.136111.560298-.272221.833138-.418054.197257-.099926.386242-.215335.565171-.345137.180021-.129557.331017-.29511.443366-.486109.487216-.855552-.058466-1.944436-.306946-2.916654-.263096-1.045134-.204631-2.299296-.974431-2.999292-2.747897-2.430545-1.383693-7.388857-2.757641-10.869397-.243608-.607636-.521321-1.20555-.730824-1.82777-.160781-.486109-.272841-.972218-.389772-1.458327-.974432-4.050908-2.000833-8.083992-3.079204-12.099252-1.135212-4.161093-1.013408-8.497185-2.436078-12.561056-.268622-.842427-.619475-1.656512-1.047514-2.430545-.476378-.806383-1.121105-1.50104-1.890397-2.036796-2.075539-1.42916-4.165695-2.649294-6.601773-3.169431-2.436079-.520136-5.067044-.437498-7.551844-.427775-.890053-1.231617-2.113735-2.184393-3.527442-2.746516l-.043849-.126388c-.198817-.492189-.352116-1.001482-.457983-1.521522-.079664-.514732-.120381-1.034717-.121804-1.555548 0-.559026-.02436-1.122912-.038977-1.681937l.13642-.13125c.326066-.343209.625741-.710452.896477-1.098606.260954-.366638.489195-.755393.682102-1.1618.218647-.461074.404254-.937033.555426-1.4243.296258-.984759.49694-1.995655.599276-3.018736.131548-1.20069.170525-2.430545.20463-3.631234 0-.243055 0-.486109 0-.734025v-.17986c0-.194444 0-.384026 0-.573609v-.063194c.040476-1.241507-.273828-2.46889-.906221-3.538873-.88186-1.312495-2.392229-1.944436-3.849004-2.469434-2.923294-1.011107-6.134046-1.677076-9.023235-.593053-2.294786.865274-4.126717 2.751377-6.39227 3.709012.051879.086521.099045.175771.141292.26736.000882.012948.000882.02594 0 .038888.038977.0875.073082.170138.102315.257638.073486.196779.12734.40031.160782.607636.06578.392645.06578.793461 0 1.186106-.683995.305746-1.439419.416783-2.182727.320832.280559.915492.748397 1.76297 1.373949 2.488878.199758.252777.409261.486109.609019.753469l.306946.379165c.522107.610875.947642 1.297726 1.261889 2.036796.115398.2925.195539.597649.238735.909024.092571.617359.068211 1.327078.151037 1.944436.031251.265465.09845.525473.199759.772913.378207 2.598398 1.989077 4.85537 4.326475 6.061779.316678 1.921814.316678 3.882327 0 5.804141 0 .106944-.038977.213888-.063338.320832-1.325226 1.667354-2.596859 3.427068-4.229032 4.729841-.742375.580245-1.536629 1.091188-2.372741 1.526382-.490915.282465-1.016674.499809-1.563962.646525-.613892.140971-1.257017.121527-1.866036.272221-1.17648.372758-2.167295 1.177161-2.772258 2.250684-.308069.567455-.649724 1.116109-1.023153 1.643048-.341051.422915-.769801.768053-1.13034 1.171523-1.305738 1.458327-1.661406 3.56804-1.948863 5.541642-1.015545 1.1192-2.129191 2.145722-3.327683 3.067348-.375043.297618-.792042.538404-1.237528.71458-1.149829.384026-2.411718-.106944-3.41051-.845829-.998793-.738886-1.778338-1.711104-2.743025-2.469434l-.253352.374304c-.072222-.071063-.138996-.147434-.199758-.228471-.395508-.55589-.669405-1.188564-.803906-1.856937-.350796-1.793742.311818-3.713872-.204631-5.459003-.190014-.631942-.647997-1.283328-1.281377-1.268745-.633381.014584-1.028026.646525-1.573707.943052-.876988.486109-1.948863.043749-2.816107-.437498-.867244-.481248-1.856292-1.020829-2.806363-.734025-.036964.635072.23289 1.249447.725952 1.652771.489415.38637.891255.87179 1.179062 1.424299.142273.603182.196426 1.223714.160781 1.842353.097443 1.419438.974432 2.639571 1.822187 3.7479 1.052386 1.344901 2.153493 2.650914 3.303322 3.918038-.137891.241456-.35456.428465-.613891.529859-.065679.230384-.065679.474474 0 .704858.048147.15901.110096.313529.185142.461804.112059.228471.24848.452081.365411.661108l1.710128 2.999292.277713.486109c.116931.204166.233863.398609.355667.597914.403062.698336.88178 1.350391 1.427542 1.944436.272062.285566.572421.542898.896477.768052.210941.151246.434218.284582.667486.398609.325895.166078.673609.285538 1.032897.35486.176424.037599.355698.060364.535937.068055.186481.014561.373817.014561.560298 0 .561623-.078325 1.112478-.220211 1.641917-.422915 3.259473-1.142356 6.250978-2.965264 9.34967-4.515952.426178-.237766.883777-.414498 1.359332-.524998.160488-.030723.323873-.043764.487215-.038888.165457.004913.329428.032724.487216.082638.155683.052135.303281.125767.438494.218749.273213.183322.463793.465925.531065.787497.092571.486109.18027.93819.267969 1.404855.087699.466664.185142.933329.282585 1.399994.194886.928468.404389 1.856936.647997 2.775682.131548.486109.258224 1.001384.3849 1.506938.311819 1.234716.618764 2.479155.90135 3.723594.087698.388888.170525.782636.24848 1.171523.1451.691659.24922 1.391248.311818 2.09513.002146.016132.002146.032478 0 .048611.048721.612497.053593 1.220133.058466 1.83263v1.920131l.048721 5.66803c0 .816663-.438494 1.327078-.784417 2.061102-.06821.150694-.131548.306249-.185142.461804-.065531.197565-.11922.398846-.160781.602775 0 .063194-.029233.131249-.038978.194444-.009744.063194 0 .150693-.029233.22361-.029233.072916 0 .145832-.02436.213888-.024361.068055 0 .145832 0 .213888v.233332.199305.252776.179861c0 .058333.034105.189582.048721.286804l.029233.145833c.034105.140971.06821.281943.116932.422914.097443.291666.219247.57847.345923.860413s.253352.568748.36054.860413c.067968.184888.126509.373091.175397.563887.012063.043203.021821.087014.029233.131249.038978.150694.073083.301388.102316.456942v.106944c.029233.165277.053593.335416.073082.486109.002395.019371.002395.038962 0 .058333 0 .189583.038977.379165.048722.568748.043849.690275.034105 1.395133 0 2.090268l-.058466 3.461096v.106944c-.00539.10791.018155.215301.06821.31111.071002.110899.194558.177136.326434.174999.246983-.017924.482895-.109365.67723-.262499l1.549346-1.122911h.097443c-1.222911 1.997908-2.202215 4.199981-2.392229 6.547888-.073633 1.550426.026049 3.104211.297202 4.632618 1.427542 10.208288 4.78933 20.508937 4.082867 30.814448-.277712 4.059009 1.408054 8.015936 1.39831 12.079807 0 1.579855-.267969 3.145126-.336179 4.720119-.297202 6.766636 3.16203 13.611051 1.753976 20.222133.487216 1.643048 2.333764 2.518044 2.855084 4.15137.438495 1.385411-.194886 2.858321-.706462 4.214565-.184164.472671-.326011.960687-.423878 1.458327-1.417798 0-2.991505.029167-3.936703.422915-.262009.085579-.517623.189542-.764929.31111-.872116.520136-.930582 1.944435-.380028 2.804848s3.644374 3.606929 4.550595 4.05901l1.982968.972218c1.064023.600013 2.214356 1.032867 3.41051 1.283328 1.006796.111725 2.023891.092116 3.025609-.058333.774673-.082639 1.632173-.209027 2.134005-.840969.706463-.89444.345923-2.347906-.13642-3.640956.178264-.141821.316038-.327897.399517-.539581.085661-.338559.129833-.686237.131548-1.035412.143042-.675925.375704-1.329822.691846-1.944436.813651-1.978463.779545-4.204843.730824-6.358305.008923-3.501296-.232047-6.998783-.721079-10.465926-.243608-1.458327-.574915-2.916654-.8575-4.374981-1.039675-5.28124-1.485799-10.661691-1.330099-16.041596.017646-1.306531-.164725-2.608093-.540809-3.859705-.159753-.722575-.202519-1.466008-.126676-2.202074l.584658-8.900655c.166354-1.810064.194043-3.630153.082827-5.444421-.082827-.972218-.243608-1.944436-.341051-2.916653-.147803-1.853168-.178721-3.713772-.092571-5.570809.053594-1.997908.146165-4.141649 1.291122-5.745808.117947-.208058.314456-.360356.545681-.422915.233864-.034028.302074.281943.214375.486109.121804.369443.24848.734024.375156 1.103467.038978.106944.073083.209027.11206.31111.063338.189583.131548.379165.199758.568748.068211.189582.097444.262498.141293.393748l.190014.486109c.053594.145832.11206.286804.165653.427776.053594.140971.121804.306248.185142.456942s.126677.301388.194887.452081c.06821.150694.116931.277083.18027.418054l.233863.486109c.058466.121527.116932.247916.18027.369443s.190014.354859.287457.529859c.053594.102083.107188.204165.165653.301387.15591.272221.316691.53472.487216.797219.331307.486109.686974.972218.974432 1.492354.101549.170982.192662.347923.27284.529859.269734.671494.483216 1.36414.638253 2.070824.170526.641664.370284 1.268745.589531 1.886103.219247.617359.487216 1.234717.725951 1.837492.131549.301388.267969.602775.40439.899302.409261.899301.852627 1.78402 1.300865 2.659016.078657.155098.140714.318034.185142.486109.022511.08157.040404.164339.053594.247915.017862.161547.017862.324563 0 .486109-.00547.101289-.018499.202031-.038977.301388-.028996.149874-.073068.296449-.131548.437498-.599276 1.365966-.116932 2.712488.146164 4.054149.230017 1.414181.340841 2.845109.331307 4.277759 0 .486109 0 .972218.04385 1.424299 0 .593053 0 1.181245.034105 1.774298s0 1.273605.034105 1.910408c.010715.637767-.015313 1.275621-.077955 1.910408 0 .22361-.058466.442359-.092571.661108-.107187.656248-.258224 1.307634-.389772 1.944436-.486506 2.563315-.711773 5.169171-.672358 7.777744 0 1.046754.034105 2.095129.102315 3.145125.058466 1.054856.141293 2.104852.233864 3.159708.048721.57847.107187 1.15694.165653 1.735409.097443 1.001385.204631 2.002769.311818 3.004154.107188 1.001384.224119 2.104851.326435 3.149986.102315 1.045134.194886 2.090268.267968 3.130542.045627.515677-.062877 1.033284-.311818 1.487493-.098361.180111-.179908.368869-.243608.563886-.045408.135049-.081226.273122-.107187.413193-.028568.16082-.048087.323111-.058466.486109-.012112.341347.00746.68308.058466 1.020829.025985.168518.055218.330554.087699.486109.073082.335415.160781.67083.24848 1.001384.200828.915966.528803 1.799484.974431 2.624989.094858.169828.202347.33232.321563.486109.034105.048611.073082.09236.112059.140971.100655.116887.19343.240305.277713.369443.039842.059941.074091.123401.102316.189583.100086.268891.120384.560864.058465.840968-.053593.291665-.155909.583331-.233863.860413l.253352.034028c-.355667 1.122911-.521321 2.27499.077955 3.028458.487215.631942 1.359331.75833 2.134004.840969 1.001292.15454 2.018713.17579 3.02561.063194 1.196154-.250461 2.346487-.683315 3.41051-1.283328l1.982968-.972217c.906221-.452082 3.995169-3.179153 4.545723-4.063871.550553-.884719.487215-2.279852-.375156-2.799988-.246659-.124346-.50236-.229968-.764929-.315971-.876988-.364582-2.294786-.398609-3.620013-.418054-.06821-.486109-.107187-1.015967-.126676-1.51666-.088592-1.860486-.052784-3.724796.107187-5.580531.11206-1.317355.282586-2.629849.267969-3.947204 0-1.759715-.365412-3.499985-.555426-5.249977-.190014-1.749993-.209503-3.461096-.238736-5.191644-.043849-2.547211.706463-4.972895 1.032898-7.490939l.570042-4.428453c.095664-.537711.108806-1.086811.038977-1.628465-.087698-.486109-.311818-.972218-.404389-1.458327-.199758-1.103467.302074-2.197213.457983-3.310402.18027-1.278467-.097443-2.576378-.277713-3.859705-.23635-2.026466-.348618-4.065427-.336179-6.105529-.175397-12.541611-.531065-25.365166-4.779586-37.099837-.170525-.486108-.355667-.972217-.545681-1.424299.085832-.023134.170398-.050718.253352-.082638.132631-.049084.258646-.114398.375156-.194444.051796-.031263.10071-.067052.146165-.106944.135737-.134976.234681-.302297.287457-.486109.057075-.177582.086648-.362816.087699-.549303-.005978-.328708-.053449-.655354-.141293-.972218l-.058466-.199305c-.097443-.330554-.20463-.656247-.31669-.972218-.107187-.31597-.224119-.622219-.345923-.933329-.253844-.576666-.459182-1.173396-.613892-1.78402-.297202-1.380549 0-2.974987-.833139-4.097898-1.841675-2.518045-.540809-6.387472-1.31061-9.45482-.253352-.972218-.623636-1.944436-.8575-2.916654-.146164-.622219-.238735-1.259022-.331306-1.895825-.243695-1.376881-.364349-2.772635-.36054-4.170815 0-.699996.107187-1.399993.190014-2.095129l.584659-4.822201c.653203 1.247575 1.119399 2.584026 1.383693 3.966649.043849.199305.082826.393748.126676.593053.526757 2.378438 1.177259 4.727903 1.948862 7.038858.443367 1.395133.881861 2.785404 1.359332 4.165954.141293.393748.277713.792357.404389 1.195828.124347.403118.222.813956.29233 1.229855.053594.330555.077954.670831.102315 1.006246s.04385.680553.077955 1.015968c.159277 1.43568.642332 2.816736 1.412925 4.039565.024355.031247.047121.063695.06821.097222.131177.236204.341662.418669.594404.515276.175152.036296.355912.036296.531065 0h.029233c.258224-.053472.516448-.111805.7698-.175.0379-.007497.075319-.017236.11206-.029166.116932 1.506938.56517 3.009014.604148 4.530535.048721 2.211796-.764929 4.331231-1.281378 6.474972-.434877 1.95633-.726354 3.941667-.872116 5.940252-.066661.395753-.041663.801479.073082 1.186105.114574.384984.485982.63542.886733.597914.277159-.093004.504203-.294948.628508-.559025.57956-.961255.772786-2.10582.54081-3.203458.462855.097222.70159.627081.81365 1.108328.296233 1.247665.225179 2.554127-.204631 3.762484-.287457.806941-.730823 1.550688-.974431 2.381934-.087622.258549-.087622.538669 0 .797219.243608.559025 1.013409.520136 1.568835.31597 1.815249-.738427 3.289873-2.124787 4.136461-3.888871.8625-1.755126 1.279124-3.694958 1.213167-5.648587z" fill="url(#b)"/><path d="m323.600788 414.033605c-.505594.627547-1.370302.754029-2.154681.836729-1.012726.150453-2.039742.170064-3.057191.058376-1.199593-.249078-2.357058-.678529-3.435204-1.274552l-2.003476-.97294c-.911959-.452418-4.030577-3.166922-4.588148-4.047433s-.500869-2.266951.378015-2.787474c.251179-.121688.510083-.225707.774929-.311341 1.474255-.603223 4.460568-.296747 6.029327-.530253.777782-.037533 1.550272.149497 2.230284.539982 1.549859.705382 4.281012 1.264823 4.956712 3.059898.524495 1.381576 1.960949 4.062027.869433 5.429008z" fill="#2f2e41"/><path d="m335.40925 412.005278c.50528.625215 1.369451.751227 2.153344.83362 2.233433.428487 4.542374-.004731 6.483644-1.216503l2.002233-.969325c.916115-.450736 4.032798-3.155153 4.590023-4.032392s.500558-2.263374-.382502-2.777116c-.248136-.124224-.505527-.227948-.769726-.310184-1.473341-.600981-4.457801-.295644-6.025586-.528282-.778954-.03909-1.552929.147325-2.233623.537975-1.544174.702761-4.250022 1.260123-4.948914 3.048527-.538336 1.381288-1.978621 4.051779-.868893 5.41368z" fill="#2f2e41"/><path d="m340.055912 314.506746c.495641.952323.928009 1.936219 1.2943 2.945307 4.401588 11.626211 4.770002 24.347225 4.95421 36.782427-.016406 2.022143.098561 4.043217.344177 6.050475.184207 1.274039.484756 2.557766.286006 3.831806-.15997 1.099645-.678659 2.184759-.484756 3.274716.092103.484425.324786.968851.41689 1.453276.072628.536544.057895 1.081297-.043628 1.613137l-.586555 4.388895c-.33933 2.499636-1.11494 4.902386-1.071312 7.426243.029086 1.719711.058171 3.439421.247226 5.149443.281279 1.723232.473819 3.459762.57686 5.20273 0 1.307949-.164817 2.611053-.281159 3.914158-.16321 1.839356-.200461 3.687707-.111494 5.532139.067866 1.419367.232684 2.906553.969513 4.103084-.848323 1.211064-1.682104 2.296177-3.034575 2.906553-2.748568 1.201375-5.904332.794458-8.875889.363319.164817-.547401.416891-1.167465.17936-1.690645-.137594-.252812-.308814-.485839-.508994-.692728-.646663-.92254-1.097075-1.967838-1.323385-3.071258-.35872-1.312793-.717439-2.722471 0-3.977133.252341-.440649.365551-.947213.324787-1.453277-.615641-8.235233-2.452867-16.780499-.761068-24.875249.17936-.862277.392653-1.724555.484757-2.601365.091303-1.260658.10749-2.525628.048475-3.788207l.019391-1.806907c-.087257-1.874727 0-3.797896-.387805-5.653246-.266616-1.327326-.770763-2.66434-.150275-4.020731.270666-.625406.236664-1.34075-.092104-1.937702-1.305995-2.28542-2.356167-4.707614-3.131526-7.222785-.160253-.702323-.380826-1.389524-.659268-2.053964-.377597-.701258-.812102-1.370392-1.299148-2.000677-1.454269-2.136316-2.355915-4.611731-3.218782-7.053235.092104-.22768 0-.537712-.21814-.484426-.23809.058522-.442539.210444-.567165.421451-1.182806 1.588915-1.284604 3.710699-1.337928 5.696843-.088917 1.84095-.05653 3.685751.096952 5.522451.096951.968851.266616 1.937702.353872 2.906553.113887 1.798306.08471 3.60281-.087256 5.3965l-.596251 8.787478c-.085005.730049-.042358 1.469309.126037 2.184759.389018 1.236193.578827 2.526345.562317 3.822118-.152573 5.329353.315944 10.658346 1.396099 15.879467.290853 1.453277.63503 2.877488.887104 4.32592.503245 3.435812.75276 6.903978.746525 10.376394.053323 2.136317.087256 4.35983-.75622 6.297532-.330955.60815-.572579 1.260743-.71744 1.937702-.000578.346754-.046203.691967-.135732 1.026982-.247225.634597-.969512.905875-1.653019 1.051203-1.252257.271545-2.536916.362894-3.815032.271278-.299631-.003105-.595262-.069123-.867714-.19377-.484757-.247057-.727135-.770237-1.090702-1.162621-.780458-.852589-2.079605-1.114179-2.792197-2.024899-.891951-1.143244-.518689-2.795135 0-4.141838.51869-1.346703 1.182806-2.804823.727135-4.180592-.53808-1.613137-2.423782-2.485103-2.957014-4.112772 1.454269-6.559121-2.123233-13.341078-1.817836-20.050371.072713-1.564695.344177-3.114856.349024-4.679551 0-4.03042-1.73058-7.954266-1.454269-11.974998.731982-10.216534-2.753416-20.418535-4.227075-30.55756-.281925-1.511867-.386046-3.051483-.310244-4.58751.21814-2.538389 1.396098-4.897541 2.811586-7.014481 1.017989-1.516252 2.239575-3.003438 3.921679-3.710699 1.386404-.586155 2.937624-.581311 4.440369-.571622 3.752014.029065 7.504028.058131 11.256043.12595 2.553508-.03686 5.103981.190415 7.610675.678196 2.031129.460204 3.931374 1.404834 5.991588 1.700334z" fill="#2f2e41"/><path d="m.66909091.88179487c.12587412-.21109573.32984331-.36349432.56727273-.42384615.24242424-.03410257.31515151.27769231.2230303.48717949.8630303 2.43589743 1.74545454 4.94487179 3.21454545 7.09333333.49034765.63259197.92664579 1.30566794 1.30424243 2.01205126.27631665.6690224.4968723 1.3599429.65939394 2.065641.7757954 2.5285857 1.82445256 4.9643452 3.12727272 7.2638462.33102372.5997211.36508132 1.3201697.09212122 1.9487179-.62060606 1.3641026-.11636364 2.708718.1551515 4.0435898.3733333 1.8658974.3006061 3.8.3878788 5.6853846 0 .5894872 0 1.1789744.0339394 1.7684615.0630619 1.2696152.048489 2.5419231-.0436364 3.8097436-.1018182.8817949-.3151515 1.7489744-.48484845 2.6161539-1.68727273 8.1407692.14545455 16.72.76121215 25.0166666.0425444.5084633-.0690093 1.0179634-.32 1.4615385-.73696973 1.2617949-.37818185 2.6794872 0 3.9997436.2225959 1.1108754.673414 2.1628635 1.3236363 3.0887179.1887196.2119374.3514952.4458256.4848485.6966667.2375758.5261539 0 1.1497436-.1842424 1.7002564 1.3135769.2120603 2.637479.3535435 3.9660606.4238462-1.7239366.0142635-3.4456458-.1275922-5.1442424-.4238462.1648485-.5505128.4169697-1.1741025.1793939-1.7002564-.1376201-.2542496-.3088732-.4886013-.5090909-.6966667-.64678542-.9277847-1.09728295-1.979025-1.32363636-3.0887179-.35878788-1.3202564-.71757576-2.7379487 0-3.9997436.25238874-.443154.36562-.9525972.32484848-1.4615385-.61575757-8.2820512-2.45333333-16.8758974-.76121212-25.0166666.17939394-.8671795.39272728-1.734359.48484849-2.6161539.09132032-1.2678254.10751052-2.5399863.04848485-3.8097436 0-.5894871-.02424243-1.1789743-.03878788-1.7684615-.08727273-1.8853846 0-3.8194872-.38787879-5.6853846-.26666667-1.3348718-.77090909-2.6794872-.15030303-4.0435898.27071723-.6289611.2367087-1.3483722-.09212121-1.9487179-1.30624391-2.2984128-2.35661517-4.734377-3.13212121-7.2638462-.16252165-.7056981-.38307729-1.3966186-.65939394-2.065641-.37766871-.70524478-.81225629-1.37818351-1.29939394-2.01205126-1.40606061-2.05102564-2.2739394-4.40897436-3.09818182-6.75717949.10666667-.12179487.19393939-.26307692.29090909-.39948718z" fill="#000" opacity=".1" transform="translate(324 334)"/><path d="m278.99449 267.11204c-.363253-1.812101.324506-3.75258-.213108-5.515306-.193735-.636951-.668386-1.29859-1.322242-1.283777-.653855.014813-1.065542.651764-1.627373.952958-.905712.49376-2.010001.044438-2.906025-.439447-.896025-.483885-1.93735-1.036897-2.906025-.745579-.116241.632014.300289 1.229464.755566 1.668911.499355.38898.913439.880075 1.215687 1.441781.227639.582637.121085 1.234401.169518 1.861477.101711 1.431906.968675 2.671245 1.884073 3.787144 1.434838 1.798462 2.959278 3.52066 4.567303 5.159798 0 0 2.421687-3.081066 2.387783-3.619265-.033903-.538199-.86212-.987521-1.16241-1.392405-.413084-.554493-.700861-1.1952-.842747-1.87629z" fill="#a1616a"/><path d="m352.840057 304.896303c.217147.562377.37939 1.144294.484481 1.737682.629826 3.040942 1.027101 6.125326 1.419531 9.204884.101741.820571.208327 1.64597.237396 2.471368.113091 1.966847-.292804 3.928907-1.17729 5.690907-.893077 1.7734-2.41875 3.15055-4.277972 3.861514-.571688.202729-1.371082.241344-1.623012-.308922-.089745-.25464-.089745-.532143 0-.786783.227706-.820572.687963-1.559086.968962-2.355524.442318-1.189828.51657-2.484423.213172-3.716707-.116275-.482689-.363361-.999166-.842997-1.095704.239055 1.08802.037066 2.226077-.561999 3.166441-.13336.26291-.367358.461247-.649205.550266-.407184.041819-.789241-.202594-.920515-.588881-.116499-.379839-.141397-.781705-.072672-1.172935.151938-1.976278.453169-3.938336.901135-5.869501.53293-2.119006 1.380773-4.20905 1.322635-6.395632-.048448-1.979026-.838153-3.924264-.615292-5.888809-.007714-.224387.140879-.424446.358517-.482689.556367-.227186 1.127796-.415883 1.710219-.564747.343982-.086884 1.516427-.482689 1.845875-.308921.329447.173768.348826 1.028128.484481 1.327395.256775.49717.571688.989513.79455 1.525298z" fill="#a1616a"/><circle cx="313" cy="237" fill="#a1616a" r="8"/><path d="m320.109854 243.098383c-.003497.52701.038054 1.053365.124206 1.5734.115623.525962.282 1.039648.496826 1.533943.276621.807426.668106 1.571442 1.162572 2.268853.50148.704004 1.255111 1.191023 2.106542 1.361313-5.689684 2.648889-11.764109 4.391611-18 5.164108.982091-.648089 1.798592-1.514407 2.384764-2.530265.313591-.650079.52632-1.343512.630969-2.056765.533398-2.987314.264358-6.061427-.780017-8.91265-.104333-.276208-.203698-.621468 0-.853286.085058-.082498.186613-.146351.298096-.187427 2.469791-1.041028 5.138246-1.535847 7.820038-1.450093.68562 0 1.37124.034526 2.056859.083849.367651.029593 1.177478-.049323 1.490478.21702.313.266344.173889 1.31199.183825 1.741099z" fill="#a1616a"/><path d="m324.756139 249.361885c-2.481339-3.165168-6.806604-4.238932-10.487514-2.603567-3.913252 1.857601-5.820962 6.338271-9.249949 8.932087-.780371.582436-1.612075 1.093211-2.484914 1.526061-.515028.282677-1.064024.498937-1.633783.643578-.640795.141393-1.306048.12189-1.956626.273034-1.216141.356074-2.252289 1.157206-2.900698 2.242773-.319816.568309-.676006 1.115507-1.066361 1.638199-.357084.424177-.802216.770344-1.178867 1.175018-1.364746 1.462678-1.736505 3.559184-2.044674 5.528923-1.06819 1.119402-2.233667 2.142391-3.482794 3.056998-.391865.301004-.827276.541014-1.291373.711836-1.198433.390048-2.524047-.102387-3.546384-.838602-1.022337-.736214-1.853903-1.706458-2.861565-2.437797-.924506 1.316411-1.893035 2.642572-2.881131 3.900475-.147598.244719-.375801.430821-.645687.526564-.185879.624076.259253 1.267655.591879 1.823472l1.785421 2.993615c.59303 1.088335 1.317476 2.100231 2.15718 3.013117.866328.89828 2.03545 1.445331 3.28224 1.535812.78864-.007158 1.56937-.157507 2.303927-.443679 3.424095-1.140889 6.530238-2.959486 9.783129-4.509924.586831-.332726 1.243327-.524692 1.917493-.560694.692334-.015747 1.311214.427994 1.516385 1.087258.371759 1.872228.738626 3.734704 1.247349 5.567928.485895 1.735711.934289 3.476298 1.34518 5.221761.27571 1.071425.471903 2.161629.586988 3.261772.053807.624076.058699 1.248152.068482 1.877103l.068482 7.566922c0 .819099-.459807 1.326161-.821783 2.0575-.54545 1.137196-.627846 2.440755-.229903 3.637193.200554.589947.518505 1.136013.743517 1.721085.538072 1.409046.518506 2.959485.489157 4.466043l-.063591 3.451921c-.018395.143941.007176.290066.073374.419301.210337.326664.71906.136516 1.041903-.087761l1.599542-1.092133c2.167938.298387 4.358165.404441 6.544913.316914 6.217178-.087761 12.439248.156019 18.641752.589946 2.074024.146268 4.211637.302287 6.168263-.385171.978313-.351043 1.90771-.911736 2.934939-1.189645.419771-.068537.817151-.235661 1.159301-.48756.567421-.521688.415783-1.462678.185879-2.174514-.205446-.643579-.435349-1.282282-.694602-1.906358-.263601-.574636-.479551-1.169822-.645687-1.779591-.308168-1.374918 0-2.969237-.865807-4.090623-1.927276-2.510931-.56253-6.377277-1.374529-9.434274-.259253-.975119-.645687-1.950238-.890265-2.925356-.15653-.624076-.254361-1.257903-.347301-1.891731-.256944-1.372982-.383056-2.767107-.37665-4.163757 0-.697209.112505-1.394419.200554-2.086754l.611445-4.817086c.762441 1.425747 1.294026 2.96264 1.575084 4.553804.555631 2.377536 1.241477 4.722958 2.054457 7.025731.459807 1.389544.919614 2.774213 1.418554 4.154006.31919.787991.563215 1.604193.728843 2.437796.107614.667957.112506 1.35054.190771 2.018496.16397 1.440422.66676 2.821922 1.467469 4.032116.149998.281279.39656.499345.694602.614325.198164.04365.403499.04365.601663 0 2.16325-.426049 4.25707-1.147962 6.22207-2.145261.417582-.174653.780693-.45746 1.051686-.8191.528289-.858105-.06359-1.92586-.322843-2.900978-.259253-.975119-.210337-2.296405-1.03212-2.993615-2.871349-2.437797-1.46747-7.376773-2.881132-10.848196-.254361-.609449-.547855-1.199396-.763084-1.823472-.166313-.487559-.288602-.975118-.410891-1.462678-1.00114-4.040242-2.074023-8.065857-3.21865-12.076845-1.183758-4.154006-1.056577-8.478658-2.548505-12.535152-.280176-.847193-.645644-1.663952-1.090819-2.437796-.499173-.809115-1.166327-1.502353-1.956625-2.033123-2.166963-1.428549-4.348601-2.642572-6.897106-3.159385s-5.317131-.487559-7.90966-.458305z" fill="#3f3d56"/><path d="m305.91253 239.819811c-1.105319-.587628-.81548-2.190251-.982506-3.399503-.38809-2.530202-3.271745-4.025984-3.930024-6.493052.77833.095787 1.568427-.014837 2.289239-.320525.138117-.819158-.025742-1.660114-.461778-2.36994 2.372752-.971287 4.298464-2.821588 6.705604-3.681177 3.035944-1.082985 6.386289-.417653 9.471358.587629 1.527797.485643 3.114544 1.150975 4.0381 2.452499 1.011981 1.432648.982506 3.312088.943206 5.060404-.083513 2.739029-.196502 5.575186-1.429547 8.027685-1.567097 3.122687-6.012937 6.012265-9.687509 5.167246-1.522885-.349663-1.965012-1.301524-2.618379-2.612762-.402827-.81588-.550203-1.762885-1.473759-2.190251-.923555-.427366-1.965012.247678-2.864005-.228253z" fill="#3f3d56"/><g fill="#000" opacity=".1" transform="translate(277 272)"><path d="m26.8918868 42.0753191c-.0018232.0146231-.0018232.0294196 0 .0440426.208239.3278723.7118868.1370213 1.0315094-.0880851l1.6077988-1.1206383c2.1464556.2978549 4.3148327.402663 6.4796226.3131915 6.1551572-.0880851 12.3151572.1565957 18.4557862.5921276 2.0533333.1468086 4.1696226.3034043 6.1067295-.3865957.9685535-.3523404 1.8886793-.9102128 2.9056604-1.1940426.3511549-.0657998.6896001-.1880603 1.0024528-.3621276.1162265.3229787.2276101.6459574.3293082.9787234.2276101.7389362.3777359 1.6589362-.1840251 2.1825532-.3387362.2528301-.7321526.4205715-1.1477359.4893617-1.0072956.2789362-1.9371069.8417021-2.9056604 1.1940425-1.9371069.69-4.0533962.5334043-6.1067295.3865958-6.140629-.4355319-12.300629-.6802128-18.4557862-.5921277-2.1617098.0872709-4.3268208-.0191736-6.4699371-.3180851l-1.6077987 1.1255319c-.3196227.2251064-.8232705.4159575-1.0315095.0880851-.0655379-.1297123-.0908532-.2763778-.0726415-.420851.0225996-.9689362.0435849-1.9395036.062956-2.9117022z"/><path d="m62.0406918 12.1948936c-.2782543-1.597046-.8045365-3.13962032-1.559371-4.57063828l-.605346 4.83489358c-.0387421.3034043-.0774842.6068085-.1113836.9102128-.0773619-.6952472-.1064896-1.3951121-.0871698-2.0944681 0-.6997872.1113836-1.39957445.1985534-2.09446807l.605346-4.83489362c.7548345 1.43101797 1.2811167 2.97359233 1.559371 4.5706383.5500887 2.38632459 1.2290928 4.74041679 2.0339623 7.05170209.4552201 1.3946809.9104402 2.7893617 1.4044025 4.1693617.3153606.791132.5569331 1.61029.7215723 2.4468086.1065409.6704255.1113837 1.3555319.188868 2.0259574.1596278 1.4463869.6576255 2.8336152 1.4528301 4.0470213.1451918.2831056.3881669.5025122.6828302.6165957.1979466.0357902.4012418.0274394.5956604-.0244681 2.1416697-.4276241 4.2146021-1.1522054 6.16-2.1531915.256775-.1275635.4987751-.283479.7215723-.4648936.2566667.9787234.8426415 2.0504256.3196227 2.9117022-.2682896.3629767-.6277784.646829-1.041195.8221276-1.9453979 1.0009861-4.0183303 1.7255673-6.16 2.1531915-.1961866.0438117-.3994738.0438117-.5956604 0-.2946633-.1140836-.5376384-.3334901-.6828302-.6165957-.7945384-1.213745-1.292476-2.600806-1.4528301-4.0470213-.0774843-.6704255-.0823271-1.3555319-.188868-2.0259575-.1639757-.8366846-.4055665-1.6559045-.7215723-2.4468085-.4842767-1.3848936-.9685535-2.7746808-1.4044025-4.1693617-.8036869-2.3000593-1.4826819-4.6426846-2.0339623-7.0174468z"/><path d="m61.5418868 25.5202128v.6557446c.0096855-.2202127.0048428-.4355319 0-.6557446z"/><path d="m26.4172956 33.7512766c.5327044 1.4142553.5133333 2.9704255.4842767 4.4825532v1.1842553c-.0409713-.816197-.204255-1.6213882-.4842767-2.3880851-.2227673-.587234-.5375472-1.1353191-.7361006-1.7274468-.3391119-1.0365528-.3254748-2.1579257.0387421-3.1857447.1985535.5578724.4842767 1.0814894.6973585 1.6344681z"/><path d="m.99761006.46978723.27603774-.36212766 1.45283019 2.44680852c.58590616 1.09312106 1.30322707 2.10890128 2.13566037 3.02425531.84761636.91747641 2.00216339 1.48424431 3.23981133 1.59042554.78025247-.00787785 1.55278753-.15704603 2.28094341-.44042554 3.3899371-1.15 6.4650943-2.97531914 9.6855346-4.53148936.5710465-.3347662 1.2106329-.53234043 1.8693081-.57744681.6862453-.01350512 1.2984972.43354154 1.5012579 1.09617022.3680503 1.87425532.7312579 3.74361702 1.2349057 5.58361702.4810482 1.74212763.9249685 3.48914893 1.331761 5.24106383.2729595 1.0753858.4671953 2.1696202.5811321 3.2738298.0532704.626383.0581132 1.2576596.0629559 1.8840425l.0726415 7.5997873c.0003735.1115851-.0093525.2229709-.0290566.3327659l-.0435849-4.6538298c0-.6312766 0-1.2576595-.0629559-1.8840425-.1139368-1.1042096-.3081726-2.198444-.5811321-3.2738298-.4132495-1.7519149-.8571698-3.4989362-1.331761-5.2410638-.4842768-1.84000003-.8668554-3.70936173-1.2349057-5.58851067-.2031242-.66170075-.8158305-1.107082-1.5012579-1.09127659-.6674403.0361347-1.3173875.22881008-1.8983647.56276596-3.205912 1.55617021-6.2955975 3.38148936-9.6855346 4.52659574-.7272288.28723006-1.50017033.43813496-2.28094342.44531916-1.23764793-.1061812-2.39219496-.67294914-3.23981132-1.59042554-.8313271-.9162602-1.54854647-1.93189664-2.13566038-3.02425532-.58597484-1.00319149-1.17679245-2.00148936-1.76761006-3.00468085-.32930817-.55787234-.77-1.20382979-.58597484-1.83021277.27034368-.08939592.5014825-.27105822.65377358-.51382979z"/></g><g fill="#000" opacity=".1" transform="translate(301 226)"><path d="m2.32446809 1.69578947c-.07336594-.41079805-.22610569-.80451967-.45021277-1.16052631.13702128-.05368421.27404255-.11052632.41106383-.17052632.10590074.43655705.1192189.88937067.03914894 1.33105263z"/><path d="m3.97851064 8.33684211c.18595745 1.19842105-.10276596 2.75684209.9787234 3.31578949.8906383.4736842 1.95744681-.1942105 2.83340426.2131579.87595744.4073684 1.04723404 1.3405263 1.4680851 2.1363158.64106383 1.2789473 1.0912766 2.2026315 2.6082979 2.548421 3.6604255.8242105 8.0891489-1.9989474 9.6502127-5.0447368 1.2282979-2.39210529 1.3408511-5.15842108 1.4240426-7.83000003 0-.13263158 0-.26052631 0-.39315789v1.54894737c-.0831915 2.67157894-.1957447 5.43789475-1.4240426 7.82999995-1.5610638 3.0457895-5.9897872 5.8642106-9.6502127 5.04-1.5170213-.3410526-1.95744683-1.2694736-2.6082979-2.548421-.40127659-.7957895-.5480851-1.7194737-1.4680851-2.1363158s-1.95744681.2557895-2.83340426-.208421c-1.10106383-.5731579-.81234042-2.1363158-.9787234-3.31578952-.38659575-2.46789474-3.25914894-3.92684211-3.91489362-6.3331579.1767951.02298143.35502455.03406067.53340426.0331579 1.05212766 1.75736842 3.06340425 3.11210526 3.38148936 5.14421053z"/></g><path d="m114.584207 375.562754c-1.335025-.694282-2.773474-1.185056-4.264234-1.454883 1.082052-.145312 2.149747-.376891 3.192111-.692356 2.770055-.846733 4.16721-1.978828 3.119343-2.53552-1.047866-.556692-4.147804-.322788-6.917858.523945-.935176.261818-1.829412.644197-2.658476 1.136774-.286222-.58476-1.06242-1.263082-2.280079-1.908657-2.459575-1.305185-5.7681163-1.960116-7.3884281-1.468918-1.6203119.491199-.936288 1.95076 1.5281384 3.274657 1.2031227.623613 2.4894137 1.08482 3.8227717 1.370678-.8854.104895-1.763446.261114-2.629368.467808-3.0126161.697034-4.75906 1.75428-3.8809868 2.339041.8780731.58476 4.0119698.528623 7.0294368-.168411 1.097242-.230593 2.159957-.593668 3.163004-1.080637.247413.603472 1.038164 1.323897 2.318889 2.002219 2.459575 1.300506 5.768116 1.960116 7.388428 1.468917 1.620312-.491198.916883-1.97415-1.542692-3.274657z" fill="#ff7000"/><path d="m78.493947 327.950082c-.8289785-.41778-1.7225455-.711812-2.6484152-.87147.6736519-.085783 1.3381953-.225552 1.9863114-.417767 1.7128338-.507609 2.5812453-1.19041 1.9191415-1.522827-.6621038-.332416-2.5620539-.19316-4.2796855.314448-.5774929.156887-1.1295087.386593-1.640866.682802-.3507772-.504612-.8509284-.90265-1.4393561-1.145489-1.5209196-.78612-3.5696032-1.181426-4.5723546-.898423s-.5757424 1.172442.9595707 1.958562c.755564.375787 1.5627834.652403 2.3989269.822057-.5503018.061179-1.0965129.151162-1.6360681.269527-1.8663651.417766-2.9458822 1.055647-2.3989269 1.415016.5469554.359369 2.4804904.31894 4.3468555-.098827.6789601-.137708 1.3366583-.355045 1.9575243-.646864.3327913.531831.8365561.951611 1.4393561 1.199394 1.5257175.78612 3.5744011 1.181426 4.5771525.898423s.556551-1.172442-.9691665-1.958562z" fill="#ff7000"/><ellipse cx="375.5" cy="397" fill="#ff7000" rx="15.5" ry="3"/><ellipse cx="375" cy="395.5" fill="#3f3d56" rx="2" ry="2.5"/><ellipse cx="375" cy="392.5" fill="#3f3d56" rx="2" ry="2.5"/><ellipse cx="375" cy="389.5" fill="#3f3d56" rx="2" ry="2.5"/><ellipse cx="375" cy="387.5" fill="#3f3d56" rx="2" ry="2.5"/><ellipse cx="375" cy="384.5" fill="#3f3d56" rx="2" ry="2.5"/><ellipse cx="375" cy="381.5" fill="#3f3d56" rx="2" ry="2.5"/><ellipse cx="375" cy="378.5" fill="#3f3d56" rx="2" ry="2.5"/><path d="m382.06998 358.099326c.256433-.316835.490168-.650342.699563-.998175l-4.936917-.784973 5.336668.038764c1.034984-2.183771 1.098228-4.684195.17489-6.914542l-7.165525 3.605059 6.605875-4.709836c-1.690273-2.817029-4.859199-4.485182-8.216125-4.325046-3.356927.160136-6.34171 2.121841-7.738695 5.086142-1.396984 2.964301-.973067 6.43657 1.099097 9.002607-.400277.494605-.745326 1.028985-1.029357 1.594173l6.410996 3.227109-6.835731-2.224089c-.313567.902487-.473889 1.848371-.474703 2.800705-.003769 1.957351.676081 3.858262 1.928795 5.393053-2.897028 3.576273-2.474146 8.710862.971506 11.795926 3.445653 3.085063 8.757501 3.085063 12.203154 0 3.445652-3.085064 3.868534-8.219653.971506-11.795926 2.568562-3.166427 2.566496-7.626763-.004997-10.790951z" fill="#ff7000"/><path d="m366.000016 363.130858c-.00377 1.994121.676216 3.930741 1.929179 5.494363-2.897605 3.643455-2.474638 8.874499.9717 12.017516s8.759244 3.143017 12.205582 0 3.869304-8.374061.971699-12.017516c1.204488-1.510579-16.07816-6.491542-16.07816-5.494363z" fill="#000" opacity=".1"/></g></g></g></svg>