<?xml version="1.0" encoding="UTF-8"?>
<svg width="783px" height="443px" viewBox="0 0 783 443" version="1.1" xmlns="http://www.w3.org/2000/svg" xmlns:xlink="http://www.w3.org/1999/xlink">
    <!-- Generator: Sketch 53.2 (72643) - https://sketchapp.com -->
    <title>stripe</title>
    <desc>Created with Sketch.</desc>
    <defs>
        <polygon id="path-1" points="783 1.13686838e-13 5.68434189e-14 1.13686838e-13 5.68434189e-14 443 783 443"></polygon>
        <linearGradient x1="49.9888699%" y1="100.023495%" x2="49.9888699%" y2="-0.00161146659%" id="linearGradient-3">
            <stop stop-color="#808080" stop-opacity="0.25" offset="0%"></stop>
            <stop stop-color="#808080" stop-opacity="0.12" offset="54%"></stop>
            <stop stop-color="#808080" stop-opacity="0.1" offset="100%"></stop>
        </linearGradient>
    </defs>
    <g id="Page-1" stroke="none" stroke-width="1" fill="none" fill-rule="evenodd">
        <g id="stripe">
            <g id="Group-14">
                <g id="The-gang">
                    <g id="Oval-+-Oval-Mask">
                        <g id="Path-5">
                            <mask id="mask-2" fill="white">
                                <use xlink:href="#path-1"></use>
                            </mask>
                            <use id="Mask" fill="#FBFDFE" fill-rule="nonzero" xlink:href="#path-1"></use>
                            <g id="undraw_stripe_payments_o7aw" mask="url(#mask-2)">
                                <g transform="translate(116.000000, 14.000000)">
                                    <path d="M319.562929,79.1590896 C284.303592,77.9084928 250.718636,66.2492319 218.652303,53.4950905 C186.585971,40.740949 154.816548,26.6048251 120.404136,19.8457627 C98.2672693,15.5003036 72.9519998,14.8871706 55.1179011,27.0379112 C37.9506341,38.7166366 32.4066826,58.9305639 29.4278429,77.6457215 C27.1839784,91.7575147 25.8649171,106.574898 32.007557,119.771857 C36.2762536,128.934791 43.8547721,136.633017 49.0969458,145.40666 C67.3253027,175.941661 54.4510693,213.595818 34.6797514,243.410631 C25.4317198,257.395905 14.6601968,270.738848 7.51000816,285.624357 C0.359819564,300.509866 -2.95000225,317.570538 3.3045875,332.757747 C9.51050341,347.81357 24.2878843,359.117603 40.2967137,367.068869 C72.815713,383.224439 111.136635,387.847268 148.50355,390.465249 C231.219891,396.260816 314.379164,393.74989 397.314538,391.238964 C428.008268,390.304666 458.833417,389.365502 489.030674,384.504233 C505.793948,381.803528 523.102369,377.521328 535.270831,367.175924 C550.724779,354.037358 554.555411,331.813716 544.197616,315.35158 C526.845388,287.745992 478.8189,280.894473 466.679642,251.249975 C459.996722,234.938689 466.859735,216.768538 476.570168,201.615392 C497.402576,169.163134 532.321196,140.691374 534.161068,103.591957 C535.426588,78.1128705 518.638977,52.5948554 492.68608,40.5414375 C465.477398,27.8894849 427.755164,29.4953096 407.682068,50.4099605 C387.015151,71.9815396 350.694724,80.2685686 319.562929,79.1590896 Z" id="Path" fill="#262626" fill-rule="nonzero"></path>
                                    <path d="M223.762069,77.9575339 C223.035612,75.4680592 224.800562,73.9139645 228.184195,72.9249951 C233.753315,71.4233335 239.596129,71.2398446 245.248628,72.3891003 L240.860631,57.3840475 C235.236067,56.8655902 229.564232,57.4379582 224.156989,59.0696801 C211.18802,62.8501739 204.537767,72.1357683 207.838516,83.4285321 C212.967597,101.083828 236.414127,91.1697752 238.64713,98.7648653 C239.505227,101.687928 237.23322,103.407662 233.654564,104.450221 C228.349964,105.999444 220.939124,105.804573 214.713044,104.450221 L219.154672,119.645273 C225.365628,120.419962 231.669413,119.922681 237.681771,118.183742 C250.972526,114.286326 258.188343,105.064064 254.84859,93.634891 C249.227078,74.6349865 225.873183,85.1141646 223.781571,77.9624057 L223.762069,77.9575339 Z M258.173716,35.2808252 L243.54706,43.1487344 L258.422369,94.3023236 C261.186808,103.753558 270.308966,108.644816 279.767537,105.882522 C285.008755,104.357658 288.543531,102.282284 290.332858,100.523574 L286.54943,87.5646651 C284.745476,88.9920939 275.506304,94.8723207 272.746742,85.4210862 L266.154995,62.7576103 L278.29512,59.2158332 L274.321545,45.6138502 L262.18142,49.1556273 L258.173716,35.2808252 Z M295.549699,44.537189 L293.146052,40.1087497 L279.343364,44.1377038 L295.666713,100.012038 L311.643897,95.3497542 L300.581269,57.4863547 C302.911783,51.4697182 309.566912,50.5002359 311.751159,50.626902 L307.460673,35.9385142 C305.193541,35.7680022 297.304898,36.5474855 295.549699,44.5420607 L295.549699,44.537189 Z M311.356239,34.7936482 L327.396806,30.1167486 L343.720155,85.9813397 L327.679588,90.6631111 L311.356239,34.8277506 L311.356239,34.7936482 Z M309.942329,29.9218778 L324.973657,21.7957647 L321.185353,8.86121434 L306.134523,16.9239943 L309.942329,29.9559802 L309.942329,29.9218778 Z M360.433548,19.3062901 C355.766047,20.6484734 351.799733,23.743989 349.366044,27.943939 L347.376819,24.2267782 L333.320602,28.3288088 L355.07044,102.774332 L370.057888,94.7505265 L364.845922,76.661643 C367.629863,77.6359971 371.705824,79.0244516 377.327336,77.3875368 C388.765381,74.050374 396.498007,61.7978715 390.583962,41.5751526 C385.108717,23.062425 371.618064,16.0665628 360.433548,19.3257772 L360.433548,19.3062901 Z M369.453319,64.418884 C365.684517,65.5199041 363.056595,64.8329844 361.038116,63.6199136 L354.05145,39.9479812 C355.172827,37.6144032 357.09867,35.6656951 360.745583,34.5890338 C366.557241,32.8887859 372.485913,38.2282463 374.928564,46.5930761 C377.429722,55.1479049 375.333235,62.6699184 369.453319,64.4042687 L369.453319,64.418884 Z M441.123936,27.520095 C436.345895,11.1753053 424.654321,0.588948199 409.510856,5.00764395 C394.367391,9.4263397 388.867768,25.0257485 393.606805,41.2438722 C399.223441,60.4483911 412.909116,66.9814352 428.510883,62.4360734 C436.116744,60.2194179 441.362838,56.8140504 445,53.1212484 L441.270203,40.3523382 C437.559907,43.7918081 432.981764,46.5882043 426.643546,48.4297335 C420.446719,50.2371603 414.31815,49.672035 411.412321,42.3400205 L442.649984,33.2249381 C442.406206,32.3967371 441.562736,29.0400873 441.11906,27.5054797 L441.123936,27.520095 Z M407.78491,30.6623869 C405.673796,23.4472949 409.208572,19.160137 413.235778,17.9957838 C417.136219,16.8606613 422.162914,18.6486011 424.269152,25.863693 L407.78491,30.6623869 Z" id="Shape" fill="#000000" fill-rule="nonzero" opacity="0.1"></path>
                                    <path d="M223.762069,73.9575339 C223.035612,71.4680592 224.800562,69.9139645 228.184195,68.9249951 C233.753315,67.4233335 239.596129,67.2398446 245.248628,68.3891003 L240.860631,53.3840475 C235.236067,52.8655902 229.564232,53.4379582 224.156989,55.0696801 C211.18802,58.8501739 204.537767,68.1357683 207.838516,79.4285321 C212.967597,97.083828 236.414127,87.1697752 238.64713,94.7648653 C239.505227,97.6879275 237.23322,99.4076625 233.654564,100.450221 C228.349964,101.999444 220.939124,101.804573 214.713044,100.450221 L219.154672,115.645273 C225.365628,116.419962 231.669413,115.922681 237.681771,114.183742 C250.972526,110.286326 258.188343,101.064064 254.84859,89.634891 C249.227078,70.6349865 225.873183,81.1141646 223.781571,73.9624057 L223.762069,73.9575339 Z M258.173716,31.2808252 L243.54706,39.1487344 L258.422369,90.3023236 C261.186808,99.7535582 270.308966,104.644816 279.767537,101.882522 C285.008755,100.357658 288.543531,98.2822835 290.332858,96.5235744 L286.54943,83.5646651 C284.745476,84.9920939 275.506304,90.8723207 272.746742,81.4210862 L266.154995,58.7576103 L278.29512,55.2158332 L274.321545,41.6138502 L262.18142,45.1556273 L258.173716,31.2808252 Z M295.549699,40.537189 L293.146052,36.1087497 L279.343364,40.1377038 L295.666713,96.0120385 L311.643897,91.3497542 L300.581269,53.4863547 C302.911783,47.4697182 309.566912,46.5002359 311.751159,46.626902 L307.460673,31.9385142 C305.193541,31.7680022 297.304898,32.5474855 295.549699,40.5420607 L295.549699,40.537189 Z M311.356239,30.7936482 L327.396806,26.1167486 L343.720155,81.9813397 L327.679588,86.6631111 L311.356239,30.8277506 L311.356239,30.7936482 Z M309.942329,25.9218778 L324.973657,17.7957647 L321.185353,4.86121434 L306.134523,12.9239943 L309.942329,25.9559802 L309.942329,25.9218778 Z M360.433548,15.3062901 C355.766047,16.6484734 351.799733,19.743989 349.366044,23.943939 L347.376819,20.2267782 L333.320602,24.3288088 L355.07044,98.7743323 L370.057888,90.7505265 L364.845922,72.661643 C367.629863,73.6359971 371.705824,75.0244516 377.327336,73.3875368 C388.765381,70.050374 396.498007,57.7978715 390.583962,37.5751526 C385.108717,19.062425 371.618064,12.0665628 360.433548,15.3257772 L360.433548,15.3062901 Z M369.453319,60.418884 C365.684517,61.5199041 363.056595,60.8329844 361.038116,59.6199136 L354.05145,35.9479812 C355.172827,33.6144032 357.09867,31.6656951 360.745583,30.5890338 C366.557241,28.8887859 372.485913,34.2282463 374.928564,42.5930761 C377.429722,51.1479049 375.333235,58.6699184 369.453319,60.4042687 L369.453319,60.418884 Z M441.123936,23.520095 C436.345895,7.17530528 424.654321,-3.4110518 409.510856,1.00764395 C394.367391,5.4263397 388.867768,21.0257485 393.606805,37.2438722 C399.223441,56.4483911 412.909116,62.9814352 428.510883,58.4360734 C436.116744,56.2194179 441.362838,52.8140504 445,49.1212484 L441.270203,36.3523382 C437.559907,39.7918081 432.981764,42.5882043 426.643546,44.4297335 C420.446719,46.2371603 414.31815,45.672035 411.412321,38.3400205 L442.649984,29.2249381 C442.406206,28.3967371 441.562736,25.0400873 441.11906,23.5054797 L441.123936,23.520095 Z M407.78491,26.6623869 C405.673796,19.4472949 409.208572,15.160137 413.235778,13.9957838 C417.136219,12.8606613 422.162914,14.6486011 424.269152,21.863693 L407.78491,26.6623869 Z" id="Shape" fill="#6772E5" fill-rule="nonzero"></path>
                                    <ellipse id="Oval" fill="#262626" fill-rule="nonzero" opacity="0.542829241" cx="330" cy="408" rx="45" ry="7"></ellipse>
                                    <polygon id="Path" fill="#D0D2D5" fill-rule="nonzero" points="314 396 227 394.891051 227.258769 392.668288 231.46254 356 307.867669 356 313.487345 392.668288 313.916999 395.445525"></polygon>
                                    <polygon id="Path" fill="#000000" fill-rule="nonzero" opacity="0.1" points="314 395 270.543984 395 227 394.401051 227.259016 392 313.569936 392"></polygon>
                                    <rect id="Rectangle" fill="#D0D2D5" fill-rule="nonzero" x="213" y="393" width="115" height="3"></rect>
                                    <path d="M436.999895,135.273187 C437.010254,133.353693 436.256523,131.508778 434.904656,130.144645 C433.552789,128.780512 431.713627,128.009008 429.792106,128 L108.207871,128 C104.207489,128.021441 100.981206,131.276997 101.000082,135.273187 L101,330 L437,330 L436.999895,135.273187 Z" id="Path" fill="#444053" fill-rule="nonzero"></path>
                                    <path d="M101,328 L101,350.801555 C101,354.777146 104.227038,357.999998 108.207792,357.999998 L429.792206,357.999998 C431.704228,358.00129 433.538309,357.243299 434.890313,355.893049 C436.242317,354.542799 437.001292,352.711097 436.999998,350.801555 L437,328 L101,328 Z" id="Path" fill="#D0D2D5" fill-rule="nonzero"></path>
                                    <rect id="Rectangle" fill="#282828" fill-rule="nonzero" x="115" y="141" width="310" height="175"></rect>
                                    <path d="M271.455208,350 C273.763327,350.000393 275.943966,348.940272 277.371021,347.12402 L277.371021,347.12402 C277.586021,346.849971 277.781581,346.561177 277.956262,346.259761 L273.849819,345.576166 L278.312284,345.610346 C279.17726,343.725576 279.228419,341.567269 278.453717,339.643541 L272.469626,342.753897 L277.990401,338.691391 C276.565627,336.283794 273.924698,334.865964 271.133279,335.010022 C268.34186,335.15408 265.860534,336.836257 264.690564,339.377763 C263.520593,341.919268 263.855022,344.900755 265.558902,347.119137 L265.558902,347.119137 C266.980741,348.931843 269.153106,349.993235 271.455208,350 Z" id="Path" fill="#FF7000" fill-rule="nonzero"></path>
                                    <polygon id="Path" fill="#000000" fill-rule="nonzero" opacity="0.1" points="278 358 313 393 307.62864 358"></polygon>
                                    <rect id="Rectangle" fill="#444053" fill-rule="nonzero" opacity="0.1" x="115" y="141" width="310" height="10"></rect>
                                    <rect id="Rectangle" fill="#FF7000" fill-rule="nonzero" x="117" y="142" width="9" height="6" rx="0.78"></rect>
                                    <rect id="Rectangle" fill="#FF7000" fill-rule="nonzero" opacity="0.3" x="223" y="142" width="93" height="6" rx="0.58"></rect>
                                    <path d="M313.562371,146.134173 L313.333325,146.134173 L313.250478,146.065612 C313.534031,145.722825 313.690731,145.291954 313.693951,144.846213 C313.688553,143.821176 312.857276,142.994613 311.837233,143.000026 C310.817191,143.00544 309.994648,143.840781 310.000026,144.865819 C310.005404,145.890857 310.836667,146.717435 311.856709,146.712041 C312.298167,146.705317 312.724278,146.548196 313.065292,146.266397 L313.148139,146.334957 L313.148139,146.565125 L314.576021,148 L315,147.569048 L313.562371,146.134173 Z M311.856709,146.134173 C311.335464,146.136153 310.864538,145.821887 310.664155,145.338337 C310.463772,144.854788 310.573534,144.297521 310.942112,143.927138 C311.310691,143.556754 311.865242,143.446454 312.346435,143.647819 C312.827628,143.849184 313.140363,144.322416 313.138392,144.846213 C313.141013,145.188602 313.006821,145.517732 312.765888,145.759845 C312.524956,146.001957 312.197429,146.136807 311.856709,146.134173 L311.856709,146.134173 Z" id="Shape" fill="#444053" fill-rule="nonzero"></path>
                                    <circle id="Oval" fill="#FF7000" fill-rule="nonzero" cx="421" cy="145" r="3"></circle>
                                    <path d="M341.083214,190 L198.916786,190 C193.992809,190 190,193.728935 190,198.326654 L190,276.673346 C190,281.271065 193.992809,285 198.916786,285 L341.083214,285 C346.007191,285 350,281.271065 350,276.673346 L350,198.326654 C350,193.728935 346.007191,190 341.083214,190 Z" id="Path" fill="#000000" fill-rule="nonzero" opacity="0.1"></path>
                                    <rect id="Rectangle" fill="#454B69" fill-rule="nonzero" x="196" y="185" width="149" height="95" rx="18.67"></rect>
                                    <rect id="Rectangle" fill="#FF7000" fill-rule="nonzero" opacity="0.3" x="211" y="239" width="24" height="8" rx="4"></rect>
                                    <rect id="Rectangle" fill="#FF7000" fill-rule="nonzero" opacity="0.3" x="243" y="239" width="24" height="8" rx="4"></rect>
                                    <rect id="Rectangle" fill="#FF7000" fill-rule="nonzero" opacity="0.3" x="256" y="255" width="21" height="6" rx="3"></rect>
                                    <rect id="Rectangle" fill="#FF7000" fill-rule="nonzero" opacity="0.3" x="275" y="239" width="24" height="8" rx="4"></rect>
                                    <rect id="Rectangle" fill="#FF7000" fill-rule="nonzero" opacity="0.3" x="306" y="239" width="24" height="8" rx="4"></rect>
                                    <rect id="Rectangle" fill="#FF7000" fill-rule="nonzero" x="214" y="220" width="16" height="16" rx="2.95"></rect>
                                    <path d="M224,230 L219,230 L219,225 L224,225 L224,230 Z M219.201536,229.793666 L223.788868,229.793666 L223.788868,225.206334 L219.201536,225.206334 L219.201536,229.793666 Z" id="Shape" fill="#454B69" fill-rule="nonzero"></path>
                                    <rect id="Rectangle" fill="#454B69" fill-rule="nonzero" x="221.895354" y="219" width="1" height="6"></rect>
                                    <rect id="Rectangle" fill="#454B69" fill-rule="nonzero" x="221.895354" y="230" width="1" height="5"></rect>
                                    <rect id="Rectangle" fill="#454B69" fill-rule="nonzero" x="213" y="227.895399" width="6" height="1"></rect>
                                    <rect id="Rectangle" fill="#454B69" fill-rule="nonzero" x="224" y="227.895399" width="6" height="1"></rect>
                                    <polygon id="Path" fill="#454B69" fill-rule="nonzero" points="218.843566 225 217.122792 223.229765 213 223.229765 213 223 217.213625 223 219 224.83812"></polygon>
                                    <polygon id="Path" fill="#454B69" fill-rule="nonzero" points="224.152098 225 224 224.832898 226.082168 223 230 223 230 223.229765 226.171329 223.229765"></polygon>
                                    <polygon id="Path" fill="#454B69" fill-rule="nonzero" points="217.215126 232 213 232 213 231.798627 217.114286 231.798627 218.833613 230 219 230.132723"></polygon>
                                    <polygon id="Path" fill="#454B69" fill-rule="nonzero" points="230 232 226.080349 232 224 230.141553 224.162445 230 226.179913 231.799087 230 231.799087"></polygon>
                                    <rect id="Rectangle" fill="#FF7000" fill-rule="nonzero" x="211" y="193" width="45" height="8" rx="4"></rect>
                                    <path d="M351.993227,318.061744 C351.963994,317.225637 351.861679,316.38953 351.759364,315.558283 C351.384208,312.437464 350.999307,309.316644 350.390287,306.239574 C350.282676,305.639254 350.119574,305.050168 349.903072,304.47986 C349.683825,303.940279 349.381751,303.444448 349.15276,302.909728 C349.154854,302.89034 349.154854,302.870783 349.15276,302.851395 C349.435345,302.715284 349.713058,302.579174 349.985898,302.433341 C350.183155,302.333415 350.37214,302.218006 350.551069,302.088204 C350.73109,301.958647 350.882086,301.793094 350.994435,301.602095 C351.481651,300.746543 350.935969,299.657659 350.687489,298.685441 L350.687489,298.685441 C350.424393,297.640307 350.482858,296.386145 349.713058,295.686149 C346.965161,293.255604 348.329365,288.297292 346.955417,284.816752 C346.711809,284.209116 346.434096,283.611202 346.224593,282.988982 C346.063812,282.502873 345.951752,282.016764 345.834821,281.530655 C344.860389,277.479747 343.833988,273.446663 342.755617,269.431403 C341.620405,265.27031 341.742209,260.934218 340.319539,256.870347 C340.050917,256.02792 339.700064,255.213835 339.272025,254.439802 C338.795647,253.633419 338.15092,252.938762 337.381628,252.403006 C335.306089,250.973846 333.215933,249.753712 330.779855,249.233575 C328.343776,248.713439 325.712811,248.796077 323.228011,248.8058 C322.337958,247.574183 321.114276,246.621407 319.700569,246.059284 L319.65672,245.932896 C319.457903,245.440707 319.304604,244.931414 319.198737,244.411374 C319.119073,243.896642 319.078356,243.376657 319.076933,242.855826 C319.076933,242.2968 319.052573,241.732914 319.037956,241.173889 L319.174376,241.042639 C319.500442,240.69943 319.800117,240.332187 320.070853,239.944033 C320.331807,239.577395 320.560048,239.18864 320.752955,238.782233 C320.971602,238.321159 321.157209,237.8452 321.308381,237.357933 C321.604639,236.373174 321.805321,235.362278 321.907657,234.339197 C322.039205,233.138507 322.078182,231.908652 322.112287,230.707963 C322.112287,230.464908 322.112287,230.221854 322.112287,229.973938 L322.112287,229.794078 C322.112287,229.599634 322.112287,229.410052 322.112287,229.220469 L322.112287,229.157275 C322.152763,227.915768 321.838459,226.688385 321.206066,225.618402 C320.324206,224.305907 318.813837,223.673966 317.357062,223.148968 C314.433768,222.137861 311.223016,221.471892 308.333827,222.555915 C306.039041,223.421189 304.20711,225.307292 301.941557,226.264927 L301.941557,226.264927 C301.993436,226.351448 302.040602,226.440698 302.082849,226.532287 C302.083731,226.545235 302.083731,226.558227 302.082849,226.571175 C302.121826,226.658675 302.155931,226.741313 302.185164,226.828813 L302.185164,226.828813 C302.25865,227.025592 302.312504,227.229123 302.345946,227.436449 L302.345946,227.436449 C302.411726,227.829094 302.411726,228.22991 302.345946,228.622555 C301.661951,228.928301 300.906527,229.039338 300.163219,228.943387 C300.443778,229.858879 300.911616,230.706357 301.537168,231.432265 C301.736926,231.685042 301.946429,231.918374 302.146187,232.185734 L302.453133,232.564899 C302.97524,233.175774 303.400775,233.862625 303.715022,234.601695 C303.83042,234.894195 303.910561,235.199344 303.953757,235.510719 C304.046328,236.128078 304.021968,236.837797 304.104794,237.455155 C304.136045,237.72062 304.203244,237.980628 304.304553,238.228068 C304.68276,240.826466 306.29363,243.083438 308.631028,244.289847 C308.947706,246.211661 308.947706,248.172174 308.631028,250.093988 C308.631028,250.200932 308.592051,250.307876 308.56769,250.41482 C307.242464,252.082174 305.970831,253.841888 304.338658,255.144661 C303.596283,255.724906 302.802029,256.235849 301.965917,256.671043 C301.475002,256.953508 300.949243,257.170852 300.401955,257.317568 C299.788063,257.458539 299.144938,257.439095 298.535919,257.589789 C297.359439,257.962547 296.368624,258.76695 295.763661,259.840473 C295.455592,260.407928 295.113937,260.956582 294.740508,261.483521 C294.399457,261.906436 293.970707,262.251574 293.610168,262.655044 C292.30443,264.113371 291.948762,266.223084 291.661305,268.196686 C290.64576,269.315886 289.532114,270.342408 288.333622,271.264034 C287.958579,271.561652 287.54158,271.802438 287.096094,271.978614 C285.946265,272.36264 284.684376,271.87167 283.685584,271.132785 C282.686791,270.393899 281.907246,269.421681 280.942559,268.663351 L280.689207,269.037655 C280.616985,268.966592 280.550211,268.890221 280.489449,268.809184 C280.093941,268.253294 279.820044,267.62062 279.685543,266.952247 C279.334747,265.158505 279.997361,263.238375 279.480912,261.493244 C279.290898,260.861302 278.832915,260.209916 278.199535,260.224499 C277.566154,260.239083 277.171509,260.871024 276.625828,261.167551 C275.74884,261.65366 274.676965,261.2113 273.809721,260.730053 C272.942477,260.248805 271.953429,259.709224 271.003358,259.996028 C270.966394,260.6311 271.236248,261.245475 271.72931,261.648799 C272.218725,262.035169 272.620565,262.520589 272.908372,263.073098 C273.050645,263.67628 273.104798,264.296812 273.069153,264.915451 C273.166596,266.334889 274.043585,267.555022 274.89134,268.663351 C275.943726,270.008252 277.044833,271.314265 278.194662,272.581389 L278.194662,272.581389 C278.056771,272.822845 277.840102,273.009854 277.580771,273.111248 C277.515092,273.341632 277.515092,273.585722 277.580771,273.816106 C277.628918,273.975116 277.690867,274.129635 277.765913,274.27791 C277.877972,274.506381 278.014393,274.729991 278.131324,274.939018 L279.841452,277.93831 L280.119165,278.424419 C280.236096,278.628585 280.353028,278.823028 280.474832,279.022333 C280.877894,279.720669 281.356612,280.372724 281.902374,280.966769 C282.174436,281.252335 282.474795,281.509667 282.798851,281.734821 C283.009792,281.886067 283.233069,282.019403 283.466337,282.13343 C283.792232,282.299508 284.139946,282.418968 284.499234,282.48829 C284.675658,282.525889 284.854932,282.548654 285.035171,282.556345 C285.221652,282.570906 285.408988,282.570906 285.595469,282.556345 C286.157092,282.47802 286.707947,282.336134 287.237386,282.13343 C290.496859,280.991074 293.488364,279.168166 296.587056,277.617478 C297.013234,277.379712 297.470833,277.20298 297.946388,277.09248 C298.106876,277.061757 298.270261,277.048716 298.433603,277.053592 C298.59906,277.058505 298.763031,277.086316 298.920819,277.13623 C299.076502,277.188365 299.2241,277.261997 299.359313,277.354979 C299.632526,277.538301 299.823106,277.820904 299.890378,278.142476 C299.982949,278.628585 300.070648,279.080666 300.158347,279.547331 C300.246046,280.013995 300.343489,280.48066 300.440932,280.947325 C300.635818,281.875793 300.845321,282.804261 301.088929,283.723007 C301.220477,284.209116 301.347153,284.724391 301.473829,285.229945 C301.785648,286.464661 302.092593,287.7091 302.375179,288.953539 C302.462877,289.342427 302.545704,289.736175 302.623659,290.125062 C302.768759,290.816721 302.872879,291.51631 302.935477,292.220192 C302.937623,292.236324 302.937623,292.25267 302.935477,292.268803 C302.984198,292.8813 302.98907,293.488936 302.993943,294.101433 L302.993943,296.021564 L303.042664,301.689594 C303.042664,302.506257 302.60417,303.016672 302.258247,303.750696 C302.190037,303.90139 302.126699,304.056945 302.073105,304.2125 L302.073105,304.2125 L302.073105,304.2125 C302.007574,304.410065 301.953885,304.611346 301.912324,304.815275 C301.912324,304.878469 301.883091,304.946524 301.873346,305.009719 C301.863602,305.072913 301.873346,305.160412 301.844113,305.233329 C301.81488,305.306245 301.844113,305.379161 301.819753,305.447217 C301.795392,305.515272 301.819753,305.593049 301.819753,305.661105 C301.819753,305.72916 301.819753,305.816659 301.819753,305.894437 C301.819753,305.972214 301.819753,306.030547 301.819753,306.093742 C301.819753,306.156936 301.819753,306.26388 301.819753,306.346518 C301.819753,306.429157 301.819753,306.468046 301.819753,306.526379 C301.819753,306.584712 301.853858,306.715961 301.868474,306.813183 L301.897707,306.959016 C301.931812,307.099987 301.965917,307.240959 302.014639,307.38193 C302.112082,307.673596 302.233886,307.9604 302.360562,308.242343 C302.487238,308.524286 302.613914,308.811091 302.721102,309.102756 C302.78907,309.287644 302.847611,309.475847 302.896499,309.666643 C302.908562,309.709846 302.91832,309.753657 302.925732,309.797892 C302.96471,309.948586 302.998815,310.09928 303.028048,310.254834 L303.028048,310.361778 C303.057281,310.527055 303.081641,310.697194 303.10113,310.847887 C303.103525,310.867258 303.103525,310.886849 303.10113,310.90622 C303.10113,311.095803 303.140107,311.285385 303.149852,311.474968 L303.149852,311.474968 C303.193701,312.165243 303.183957,312.870101 303.149852,313.565236 L303.091386,317.026332 L303.091386,317.133276 L303.091386,317.133276 C303.085996,317.241186 303.109541,317.348577 303.159596,317.444386 C303.230598,317.555285 303.354154,317.621522 303.48603,317.619385 C303.733013,317.601461 303.968925,317.51002 304.16326,317.356886 L305.712606,316.233975 L305.810049,316.233975 C304.587138,318.231883 303.607834,320.433956 303.41782,322.781863 C303.344187,324.332289 303.443869,325.886074 303.715022,327.414481 C305.142564,337.622769 308.504352,347.923418 307.797889,358.228929 C307.520177,362.287938 309.205943,366.244865 309.196199,370.308736 C309.196199,371.888591 308.92823,373.453862 308.86002,375.028855 C308.562818,381.795491 312.02205,388.639906 310.613996,395.250988 C311.101212,396.894036 312.94776,397.769032 313.46908,399.402358 C313.907575,400.787769 313.274194,402.260679 312.762618,403.616923 C312.578454,404.089594 312.436607,404.57761 312.33874,405.07525 C310.920942,405.07525 309.347235,405.104417 308.402037,405.498165 C308.140028,405.583744 307.884414,405.687707 307.637108,405.809275 C306.764992,406.329411 306.706526,407.75371 307.25708,408.614123 C307.807634,409.474536 310.901454,412.221052 311.807675,412.673133 L313.790643,413.645351 C314.854666,414.245364 316.004999,414.678218 317.201153,414.928679 C318.207949,415.040404 319.225044,415.020795 320.226762,414.870346 C321.001435,414.787707 321.858935,414.661319 322.360767,414.029377 C323.06723,413.134937 322.70669,411.681471 322.224347,410.388421 C322.402611,410.2466 322.540385,410.060524 322.623864,409.84884 C322.709525,409.510281 322.753697,409.162603 322.755412,408.813428 C322.898454,408.137503 323.131116,407.483606 323.447258,406.868992 C324.260909,404.890529 324.226803,402.664149 324.178082,400.510687 C324.187005,397.009391 323.946035,393.511904 323.457003,390.044761 C323.213395,388.586434 322.882088,387.128107 322.599503,385.66978 C321.559828,380.38854 321.113704,375.008089 321.269404,369.628184 C321.28705,368.321653 321.104679,367.020091 320.728595,365.768479 C320.568842,365.045904 320.526076,364.302471 320.601919,363.566405 L321.186577,354.66575 C321.352931,352.855686 321.38062,351.035597 321.269404,349.221329 C321.186577,348.249111 321.025796,347.276893 320.928353,346.304676 C320.78055,344.451508 320.749632,342.590904 320.835782,340.733867 C320.889376,338.735959 320.981947,336.592218 322.126904,334.988059 C322.244851,334.780001 322.44136,334.627703 322.672585,334.565144 C322.906449,334.531116 322.974659,334.847087 322.88696,335.051253 C323.008764,335.420696 323.13544,335.785277 323.262116,336.15472 C323.301094,336.261664 323.335199,336.363747 323.374176,336.46583 C323.437514,336.655413 323.505724,336.844995 323.573934,337.034578 C323.642145,337.22416 323.671378,337.297076 323.715227,337.428326 L323.905241,337.914435 C323.958835,338.060267 324.017301,338.201239 324.070894,338.342211 C324.124488,338.483182 324.192698,338.648459 324.256036,338.799153 C324.319374,338.949847 324.382713,339.100541 324.450923,339.251234 C324.519133,339.401928 324.567854,339.528317 324.631193,339.669288 L324.865056,340.155397 C324.923522,340.276924 324.981988,340.403313 325.045326,340.52484 C325.108664,340.646367 325.23534,340.879699 325.332783,341.054699 C325.386377,341.156782 325.439971,341.258864 325.498436,341.356086 C325.654346,341.628307 325.815127,341.890806 325.985652,342.153305 L325.985652,342.153305 C326.316959,342.639414 326.672626,343.125523 326.960084,343.645659 C327.061633,343.816641 327.152746,343.993582 327.232924,344.175518 C327.502658,344.847012 327.71614,345.539658 327.871177,346.246342 C328.041703,346.888006 328.241461,347.515087 328.460708,348.132445 C328.679955,348.749804 328.947924,349.367162 329.186659,349.969937 C329.318208,350.271325 329.454628,350.572712 329.591049,350.869239 C330.00031,351.76854 330.443676,352.653259 330.891914,353.528255 C330.970571,353.683353 331.032628,353.846289 331.077056,354.014364 C331.099567,354.095934 331.11746,354.178703 331.13065,354.262279 C331.148512,354.423826 331.148512,354.586842 331.13065,354.748388 C331.12518,354.849677 331.112151,354.950419 331.091673,355.049776 C331.062677,355.19965 331.018605,355.346225 330.960125,355.487274 C330.360849,356.85324 330.843193,358.199762 331.106289,359.541423 C331.336306,360.955604 331.44713,362.386532 331.437596,363.819182 C331.437596,364.305291 331.437596,364.7914 331.481446,365.243481 C331.481446,365.836534 331.481446,366.424726 331.515551,367.017779 C331.549656,367.610832 331.515551,368.291384 331.549656,368.928187 C331.560371,369.565954 331.534343,370.203808 331.471701,370.838595 C331.471701,371.062205 331.413235,371.280954 331.37913,371.499703 C331.271943,372.155951 331.120906,372.807337 330.989358,373.444139 C330.502852,376.007454 330.277585,378.61331 330.317,381.221883 C330.317,382.268637 330.351105,383.317012 330.419315,384.367008 C330.477781,385.421864 330.560608,386.47186 330.653179,387.526716 C330.7019,388.105186 330.760366,388.683656 330.818832,389.262125 C330.916275,390.26351 331.023463,391.264894 331.13065,392.266279 C331.237838,393.267663 331.354769,394.37113 331.457085,395.416265 C331.5594,396.461399 331.651971,397.506533 331.725053,398.546807 C331.77068,399.062484 331.662176,399.580091 331.413235,400.0343 C331.314874,400.214411 331.233327,400.403169 331.169627,400.598186 C331.124219,400.733235 331.088401,400.871308 331.06244,401.011379 C331.033872,401.172199 331.014353,401.33449 331.003974,401.497488 C330.991862,401.838835 331.011434,402.180568 331.06244,402.518317 C331.088425,402.686835 331.117658,402.848871 331.150139,403.004426 C331.223221,403.339841 331.31092,403.675256 331.398619,404.00581 C331.599447,404.921776 331.927422,405.805294 332.37305,406.630799 C332.467908,406.800627 332.575397,406.963119 332.694613,407.116908 C332.728718,407.165519 332.767695,407.209268 332.806672,407.257879 C332.907327,407.374766 333.000102,407.498184 333.084385,407.627322 C333.124227,407.687263 333.158476,407.750723 333.186701,407.816905 C333.286787,408.085796 333.307085,408.377769 333.245166,408.657873 C333.191573,408.949538 333.089257,409.241204 333.011303,409.518286 L333.011303,409.518286 L333.264655,409.552314 C332.908988,410.675225 332.743334,411.827304 333.34261,412.580772 C333.829825,413.212714 334.701941,413.339102 335.476614,413.421741 C336.477906,413.576281 337.495327,413.597531 338.502224,413.484935 C339.698378,413.234474 340.848711,412.80162 341.912734,412.201607 L343.895702,411.22939 C344.801923,410.777308 347.890871,408.050237 348.441425,407.165519 C348.991978,406.2808 348.92864,404.885667 348.066269,404.365531 C347.81961,404.241185 347.563909,404.135563 347.30134,404.04956 C346.424352,403.684978 345.006554,403.650951 343.681327,403.631506 C343.613117,403.145397 343.57414,402.615539 343.554651,402.114846 C343.466059,400.25436 343.501867,398.39005 343.661838,396.534315 C343.773898,395.21696 343.944424,393.904466 343.929807,392.587111 C343.929807,390.827396 343.564395,389.087126 343.374381,387.337134 C343.184367,385.587141 343.164878,383.876038 343.135645,382.14549 C343.091796,379.598279 343.842108,377.172595 344.168543,374.654551 L344.738585,370.226098 C344.834249,369.688387 344.847391,369.139287 344.777562,368.597633 C344.689864,368.111524 344.465744,367.625415 344.373173,367.139306 C344.173415,366.035839 344.675247,364.942093 344.831156,363.828904 C345.011426,362.550437 344.733713,361.252526 344.553443,359.969199 C344.317093,357.942733 344.204825,355.903772 344.217264,353.86367 C344.041867,341.322059 343.686199,328.498504 339.437678,316.763833 C339.267153,316.277725 339.082011,315.791616 338.891997,315.339534 C338.977829,315.3164 339.062395,315.288816 339.145349,315.256896 C339.27798,315.207812 339.403995,315.142498 339.520505,315.062452 C339.572301,315.031189 339.621215,314.9954 339.66667,314.955508 C339.802407,314.820532 339.901351,314.653211 339.954127,314.469399 C340.011202,314.291817 340.040775,314.106583 340.041826,313.920096 C340.035848,313.591388 339.988377,313.264742 339.900533,312.947878 L339.842067,312.748573 C339.744624,312.418019 339.637437,312.092326 339.525377,311.776355 L339.525377,311.776355 C339.41819,311.460385 339.301258,311.154136 339.179454,310.843026 C338.92561,310.26636 338.720272,309.66963 338.565562,309.059006 C338.26836,307.678457 338.565562,306.084019 337.732423,304.961108 C335.890748,302.443063 337.191614,298.573636 336.421813,295.506288 C336.168461,294.53407 335.798177,293.561852 335.564313,292.589634 C335.418149,291.967415 335.325578,291.330612 335.233007,290.693809 C334.989312,289.316928 334.868658,287.921174 334.872467,286.522994 C334.872467,285.822998 334.979654,285.123001 335.062481,284.427865 L335.64714,279.605664 C336.300343,280.853239 336.766539,282.18969 337.030833,283.572313 C337.074682,283.771618 337.113659,283.966061 337.157509,284.165366 C337.684266,286.543804 338.334768,288.893269 339.106371,291.204224 C339.549738,292.599357 339.988232,293.989628 340.465703,295.370178 C340.606996,295.763926 340.743416,296.162535 340.870092,296.566006 C340.994439,296.969124 341.092092,297.379962 341.162422,297.795861 C341.216016,298.126416 341.240376,298.466692 341.264737,298.802107 C341.289098,299.137522 341.308587,299.48266 341.342692,299.818075 C341.501969,301.253755 341.985024,302.634811 342.755617,303.85764 C342.779972,303.888887 342.802738,303.921335 342.823827,303.954862 C342.955004,304.191066 343.165489,304.373531 343.418231,304.470138 L343.418231,304.470138 C343.593383,304.506434 343.774143,304.506434 343.949296,304.470138 L343.978529,304.470138 C344.236753,304.416666 344.494977,304.358333 344.748329,304.295138 C344.786229,304.287641 344.823648,304.277902 344.860389,304.265972 C344.977321,305.77291 345.425559,307.274986 345.464537,308.796507 C345.513258,311.008303 344.699608,313.127738 344.183159,315.271479 C343.748282,317.227809 343.456805,319.213146 343.311043,321.211731 C343.244382,321.607484 343.26938,322.01321 343.384125,322.397836 C343.498699,322.78282 343.870107,323.033256 344.270858,322.99575 C344.548017,322.902746 344.775061,322.700802 344.899366,322.436725 C345.478926,321.47547 345.672152,320.330905 345.440176,319.233267 C345.903031,319.330489 346.141766,319.860348 346.253826,320.341595 C346.550059,321.58926 346.479005,322.895722 346.049195,324.104079 C345.761738,324.91102 345.318372,325.654767 345.074764,326.486013 C344.987142,326.744562 344.987142,327.024682 345.074764,327.283232 C345.318372,327.842257 346.088173,327.803368 346.643599,327.599202 C348.458848,326.860775 349.933472,325.474415 350.78006,323.710331 C351.64256,321.955205 352.059184,320.015373 351.993227,318.061744 Z" id="Path" fill="url(#linearGradient-3)" fill-rule="nonzero"></path>
                                    <path d="M323.600788,414.033605 C323.095194,414.661152 322.230486,414.787634 321.446107,414.870334 C320.433381,415.020787 319.406365,415.040398 318.388916,414.92871 C317.189323,414.679632 316.031858,414.250181 314.953712,413.654158 L312.950236,412.681218 C312.038277,412.2288 308.919659,409.514296 308.362088,408.633785 C307.804517,407.753274 307.861219,406.366834 308.740103,405.846311 C308.991282,405.724623 309.250186,405.620604 309.515032,405.53497 C310.989287,404.931747 313.9756,405.238223 315.544359,405.004717 C316.322141,404.967184 317.094631,405.154214 317.774643,405.544699 C319.324502,406.250081 322.055655,406.809522 322.731355,408.604597 C323.25585,409.986173 324.692304,412.666624 323.600788,414.033605 Z" id="Path" fill="#2F2E41" fill-rule="nonzero"></path>
                                    <path d="M335.40925,412.005278 C335.91453,412.630493 336.778701,412.756505 337.562594,412.838898 C339.796027,413.267385 342.104968,412.834167 344.046238,411.622395 L346.048471,410.65307 C346.964586,410.202334 350.081269,407.497917 350.638494,406.620678 C351.195719,405.743439 351.139052,404.357304 350.255992,403.843562 C350.007856,403.719338 349.750465,403.615614 349.486266,403.533378 C348.012925,402.932397 345.028465,403.237734 343.46068,403.005096 C342.681726,402.966006 341.907751,403.152421 341.227057,403.543071 C339.682883,404.245832 336.977035,404.803194 336.278143,406.591598 C335.739807,407.972886 334.299522,410.643377 335.40925,412.005278 Z" id="Path" fill="#2F2E41" fill-rule="nonzero"></path>
                                    <path d="M340.055912,314.506746 C340.551553,315.459069 340.983921,316.442965 341.350212,317.452053 C345.7518,329.078264 346.120214,341.799278 346.304422,354.23448 C346.288016,356.256623 346.402983,358.277697 346.648599,360.284955 C346.832806,361.558994 347.133355,362.842721 346.934605,364.116761 C346.774635,365.216406 346.255946,366.30152 346.449849,367.391477 C346.541952,367.875902 346.774635,368.360328 346.866739,368.844753 C346.939367,369.381297 346.924634,369.92605 346.823111,370.45789 L346.236556,374.846785 C345.897226,377.346421 345.121616,379.749171 345.165244,382.273028 C345.19433,383.992739 345.223415,385.712449 345.41247,387.422471 C345.693749,389.145703 345.886289,390.882233 345.98933,392.625201 C345.98933,393.93315 345.824513,395.236254 345.708171,396.539359 C345.544961,398.378715 345.50771,400.227066 345.596677,402.071498 C345.664543,403.490865 345.829361,404.978051 346.56619,406.174582 C345.717867,407.385646 344.884086,408.470759 343.531615,409.081135 C340.783047,410.28251 337.627283,409.875593 334.655726,409.444454 C334.820543,408.897053 335.072617,408.276989 334.835086,407.753809 C334.697492,407.500997 334.526272,407.26797 334.326092,407.061081 C333.679429,406.138541 333.229017,405.093243 333.002707,403.989823 C332.643987,402.67703 332.285268,401.267352 333.002707,400.01269 C333.255048,399.572041 333.368258,399.065477 333.327494,398.559413 C332.711853,390.32418 330.874627,381.778914 332.566426,373.684164 C332.745786,372.821887 332.959079,371.959609 333.051183,371.082799 C333.142486,369.822141 333.158673,368.557171 333.099658,367.294592 L333.119049,365.487685 C333.031792,363.612958 333.119049,361.689789 332.731244,359.834439 C332.464628,358.507113 331.960481,357.170099 332.580969,355.813708 C332.851635,355.188302 332.817633,354.472958 332.488865,353.876006 C331.18287,351.590586 330.132698,349.168392 329.357339,346.653221 C329.197086,345.950898 328.976513,345.263697 328.698071,344.599257 C328.320474,343.897999 327.885969,343.228865 327.398923,342.59858 C325.944654,340.462264 325.043008,337.986849 324.180141,335.545345 C324.272245,335.317665 324.180141,335.007633 323.962001,335.060919 C323.723911,335.119441 323.519462,335.271363 323.394836,335.48237 C322.21203,337.071285 322.110232,339.193069 322.056908,341.179213 C321.967991,343.020163 322.000378,344.864964 322.15386,346.701664 C322.250811,347.670515 322.420476,348.639366 322.507732,349.608217 C322.621619,351.406523 322.592442,353.211027 322.420476,355.004717 L321.824225,363.792195 C321.73922,364.522244 321.781867,365.261504 321.950262,365.976954 C322.33928,367.213147 322.529089,368.503299 322.512579,369.799072 C322.360006,375.128425 322.828523,380.457418 323.908678,385.678539 C324.199531,387.131816 324.543708,388.556027 324.795782,390.004459 C325.299027,393.440271 325.548542,396.908437 325.542307,400.380853 C325.59563,402.51717 325.629563,404.740683 324.786087,406.678385 C324.455132,407.286535 324.213508,407.939128 324.068647,408.616087 C324.068069,408.962841 324.022444,409.308054 323.932915,409.643069 C323.68569,410.277666 322.963403,410.548944 322.279896,410.694272 C321.027639,410.965817 319.74298,411.057166 318.464864,410.96555 C318.165233,410.962445 317.869602,410.896427 317.59715,410.77178 C317.112393,410.524723 316.870015,410.001543 316.506448,409.609159 C315.72599,408.75657 314.426843,408.49498 313.714251,407.58426 C312.8223,406.441016 313.195562,404.789125 313.714251,403.442422 C314.232941,402.095719 314.897057,400.637599 314.441386,399.26183 C313.903306,397.648693 312.017604,396.776727 311.484372,395.149058 C312.938641,388.589937 309.361139,381.80798 309.666536,375.098687 C309.739249,373.533992 310.010713,371.983831 310.01556,370.419136 C310.01556,366.388716 308.28498,362.46487 308.561291,358.444138 C309.293273,348.227604 305.807875,338.025603 304.334216,327.886578 C304.052291,326.374711 303.94817,324.835095 304.023972,323.299068 C304.242112,320.760679 305.42007,318.401527 306.835558,316.284587 C307.853547,314.768335 309.075133,313.281149 310.757237,312.573888 C312.143641,311.987733 313.694861,311.992577 315.197606,312.002266 C318.94962,312.031331 322.701634,312.060397 326.453649,312.128216 C329.007157,312.091356 331.55763,312.318631 334.064324,312.806412 C336.095453,313.266616 337.995698,314.211246 340.055912,314.506746 Z" id="Path" fill="#2F2E41" fill-rule="nonzero"></path>
                                    <g id="Group" opacity="0.1" stroke-width="1" fill="none" fill-rule="evenodd" transform="translate(324.000000, 334.000000)">
                                        <path d="M0.669090909,0.881794872 C0.794965025,0.670699135 0.998934223,0.518300552 1.23636364,0.457948718 C1.47878788,0.423846154 1.55151515,0.735641026 1.45939394,0.945128205 C2.32242424,3.38102564 3.20484848,5.89 4.67393939,8.03846154 C5.16428704,8.67105351 5.60058518,9.34412948 5.97818182,10.0505128 C6.25449847,10.7195352 6.47505412,11.4104557 6.63757576,12.1161538 C7.41337116,14.6447395 8.46202832,17.080499 9.76484848,19.38 C10.0958722,19.9797211 10.1299298,20.7001697 9.8569697,21.3287179 C9.23636364,22.6928205 9.74060606,24.0374359 10.0121212,25.3723077 C10.3854545,27.2382051 10.3127273,29.1723077 10.4,31.0576923 C10.4,31.6471795 10.4,32.2366667 10.4339394,32.8261538 C10.4970013,34.095769 10.4824284,35.3680769 10.390303,36.6358974 C10.2884848,37.5176923 10.0751515,38.3848718 9.90545455,39.2520513 C8.21818182,47.3928205 10.0509091,55.9720513 10.6666667,64.2687179 C10.7092111,64.7771812 10.5976574,65.2866813 10.3466667,65.7302564 C9.60969697,66.9920513 9.96848485,68.4097436 10.3466667,69.73 C10.5692626,70.8408754 11.0200807,71.8928635 11.670303,72.8187179 C11.8590226,73.0306553 12.0217982,73.2645435 12.1551515,73.5153846 C12.3927273,74.0415385 12.1551515,74.6651282 11.9709091,75.215641 C13.284486,75.4277013 14.6083881,75.5691845 15.9369697,75.6394872 C14.2130331,75.6537507 12.4913239,75.511895 10.7927273,75.215641 C10.9575758,74.6651282 11.209697,74.0415385 10.9721212,73.5153846 C10.8345011,73.261135 10.663248,73.0267833 10.4630303,72.8187179 C9.81624488,71.8909332 9.36574735,70.8396929 9.13939394,69.73 C8.78060606,68.4097436 8.42181818,66.9920513 9.13939394,65.7302564 C9.39178268,65.2871024 9.50501394,64.7776592 9.46424242,64.2687179 C8.84848485,55.9866667 7.01090909,47.3928205 8.7030303,39.2520513 C8.88242424,38.3848718 9.09575758,37.5176923 9.18787879,36.6358974 C9.27919911,35.368072 9.29538931,34.0959111 9.23636364,32.8261538 C9.23636364,32.2366667 9.21212121,31.6471795 9.19757576,31.0576923 C9.11030303,29.1723077 9.19757576,27.2382051 8.80969697,25.3723077 C8.5430303,24.0374359 8.03878788,22.6928205 8.65939394,21.3287179 C8.93011117,20.6997568 8.89610264,19.9803457 8.56727273,19.38 C7.26102882,17.0815872 6.21065756,14.645623 5.43515152,12.1161538 C5.27262987,11.4104557 5.05207423,10.7195352 4.77575758,10.0505128 C4.39808887,9.34526802 3.96350129,8.67232929 3.47636364,8.03846154 C2.07030303,5.9874359 1.20242424,3.62948718 0.378181818,1.28128205 C0.484848485,1.15948718 0.572121212,1.01820513 0.669090909,0.881794872 Z" id="Path" fill="#000000" fill-rule="nonzero"></path>
                                    </g>
                                    <path d="M278.99449,267.11204 C278.631237,265.299939 279.318996,263.35946 278.781382,261.596734 C278.587647,260.959783 278.112996,260.298144 277.45914,260.312957 C276.805285,260.32777 276.393598,260.964721 275.831767,261.265915 C274.926055,261.759675 273.821766,261.310353 272.925742,260.826468 C272.029717,260.342583 270.988392,259.789571 270.019717,260.080889 C269.903476,260.712903 270.320006,261.310353 270.775283,261.7498 C271.274638,262.13878 271.688722,262.629875 271.99097,263.191581 C272.218609,263.774218 272.112055,264.425982 272.160488,265.053058 C272.262199,266.484964 273.129163,267.724303 274.044561,268.840202 C275.479399,270.638664 277.003839,272.360862 278.611864,274 C278.611864,274 281.033551,270.918934 280.999647,270.380735 C280.965744,269.842536 280.137527,269.393214 279.837237,268.98833 C279.424153,268.433837 279.136376,267.79313 278.99449,267.11204 L278.99449,267.11204 Z" id="Path" fill="#A1616A" fill-rule="nonzero"></path>
                                    <path d="M352.840057,304.896303 C353.057204,305.45868 353.219447,306.040597 353.324538,306.633985 C353.954364,309.674927 354.351639,312.759311 354.744069,315.838869 C354.84581,316.65944 354.952396,317.484839 354.981465,318.310237 C355.094556,320.277084 354.688661,322.239144 353.804175,324.001144 C352.911098,325.774544 351.385425,327.151694 349.526203,327.862658 C348.954515,328.065387 348.155121,328.104002 347.903191,327.553736 C347.813446,327.299096 347.813446,327.021593 347.903191,326.766953 C348.130897,325.946381 348.591154,325.207867 348.872153,324.411429 C349.314471,323.221601 349.388723,321.927006 349.085325,320.694722 C348.96905,320.212033 348.721964,319.695556 348.242328,319.599018 C348.481383,320.687038 348.279394,321.825095 347.680329,322.765459 C347.546969,323.028369 347.312971,323.226706 347.031124,323.315725 C346.62394,323.357544 346.241883,323.113131 346.110609,322.726844 C345.99411,322.347005 345.969212,321.945139 346.037937,321.553909 C346.189875,319.577631 346.491106,317.615573 346.939072,315.684408 C347.472002,313.565402 348.319845,311.475358 348.261707,309.288776 C348.213259,307.30975 347.423554,305.364512 347.646415,303.399967 C347.638701,303.17558 347.787294,302.975521 348.004932,302.917278 C348.561299,302.690092 349.132728,302.501395 349.715151,302.352531 C350.059133,302.265647 351.231578,301.869842 351.561026,302.04361 C351.890473,302.217378 351.909852,303.071738 352.045507,303.371005 C352.302282,303.868175 352.617195,304.360518 352.840057,304.896303 Z" id="Path" fill="#A1616A" fill-rule="nonzero"></path>
                                    <circle id="Oval" fill="#A1616A" fill-rule="nonzero" cx="313" cy="237" r="8"></circle>
                                    <path d="M320.109854,243.098383 C320.106357,243.625393 320.147908,244.151748 320.23406,244.671783 C320.349683,245.197745 320.51606,245.711431 320.730886,246.205726 C321.007507,247.013152 321.398992,247.777168 321.893458,248.474579 C322.394938,249.178583 323.148569,249.665602 324,249.835892 C318.310316,252.484781 312.235891,254.227503 306,255 C306.982091,254.351911 307.798592,253.485593 308.384764,252.469735 C308.698355,251.819656 308.911084,251.126223 309.015733,250.41297 C309.549131,247.425656 309.280091,244.351543 308.235716,241.50032 C308.131383,241.224112 308.032018,240.878852 308.235716,240.647034 C308.320774,240.564536 308.422329,240.500683 308.533812,240.459607 C311.003603,239.418579 313.672058,238.92376 316.35385,239.009514 C317.03947,239.009514 317.72509,239.04404 318.410709,239.093363 C318.77836,239.122956 319.588187,239.04404 319.901187,239.310383 C320.214187,239.576727 320.075076,240.622373 320.085012,241.051482 L320.109854,243.098383 Z" id="Path" fill="#A1616A" fill-rule="nonzero"></path>
                                    <path d="M324.756139,249.361885 C322.2748,246.196717 317.949535,245.122953 314.268625,246.758318 C310.355373,248.615919 308.447663,253.096589 305.018676,255.690405 C304.238305,256.272841 303.406601,256.783616 302.533762,257.216466 C302.018734,257.499143 301.469738,257.715403 300.899979,257.860044 C300.259184,258.001437 299.593931,257.981934 298.943353,258.133078 C297.727212,258.489152 296.691064,259.290284 296.042655,260.375851 C295.722839,260.94416 295.366649,261.491358 294.976294,262.01405 C294.61921,262.438227 294.174078,262.784394 293.797427,263.189068 C292.432681,264.651746 292.060922,266.748252 291.752753,268.717991 C290.684563,269.837393 289.519086,270.860382 288.269959,271.774989 C287.878094,272.075993 287.442683,272.316003 286.978586,272.486825 C285.780153,272.876873 284.454539,272.384438 283.432202,271.648223 C282.409865,270.912009 281.578299,269.941765 280.570637,269.210426 C279.646131,270.526837 278.677602,271.852998 277.689506,273.110901 C277.541908,273.35562 277.313705,273.541722 277.043819,273.637465 C276.85794,274.261541 277.303072,274.90512 277.635698,275.460937 L279.421119,278.454552 C280.014149,279.542887 280.738595,280.554783 281.578299,281.467669 C282.444627,282.365949 283.613749,282.913 284.860539,283.003481 C285.649179,282.996323 286.429909,282.845974 287.164466,282.559802 C290.588561,281.418913 293.694704,279.600316 296.947595,278.049878 C297.534426,277.717152 298.190922,277.525186 298.865088,277.489184 C299.557422,277.473437 300.176302,277.917178 300.381473,278.576442 C300.753232,280.44867 301.120099,282.311146 301.628822,284.14437 C302.114717,285.880081 302.563111,287.620668 302.974002,289.366131 C303.249712,290.437556 303.445905,291.52776 303.56099,292.627903 C303.614797,293.251979 303.619689,293.876055 303.629472,294.505006 L303.697954,302.071928 C303.697954,302.891027 303.238147,303.398089 302.876171,304.129428 C302.330721,305.266624 302.248325,306.570183 302.646268,307.766621 C302.846822,308.356568 303.164773,308.902634 303.389785,309.487706 C303.927857,310.896752 303.908291,312.447191 303.878942,313.953749 L303.815351,317.40567 C303.796956,317.549611 303.822527,317.695736 303.888725,317.824971 C304.099062,318.151635 304.607785,317.961487 304.930628,317.73721 L306.53017,316.645077 C308.698108,316.943464 310.888335,317.049518 313.075083,316.961991 C319.292261,316.87423 325.514331,317.11801 331.716835,317.551937 C333.790859,317.698205 335.928472,317.854224 337.885098,317.166766 C338.863411,316.815723 339.792808,316.25503 340.820037,315.977121 C341.239808,315.908584 341.637188,315.74146 341.979338,315.489561 C342.546759,314.967873 342.395121,314.026883 342.165217,313.315047 C341.959771,312.671468 341.729868,312.032765 341.470615,311.408689 C341.207014,310.834053 340.991064,310.238867 340.824928,309.629098 C340.51676,308.25418 340.824928,306.659861 339.959121,305.538475 C338.031845,303.027544 339.396591,299.161198 338.584592,296.104201 C338.325339,295.129082 337.938905,294.153963 337.694327,293.178845 C337.537797,292.554769 337.439966,291.920942 337.347026,291.287114 C337.090082,289.914132 336.96397,288.520007 336.970376,287.123357 C336.970376,286.426148 337.082881,285.728938 337.17093,285.036603 L337.782375,280.219517 C338.544816,281.645264 339.076401,283.182157 339.357459,284.773321 C339.91309,287.150857 340.598936,289.496279 341.411916,291.799052 C341.871723,293.188596 342.33153,294.573265 342.83047,295.953058 C343.14966,296.741049 343.393685,297.557251 343.559313,298.390854 C343.666927,299.058811 343.671819,299.741394 343.750084,300.40935 C343.914054,301.849772 344.416844,303.231272 345.217553,304.441466 C345.367551,304.722745 345.614113,304.940811 345.912155,305.055791 C346.110319,305.099441 346.315654,305.099441 346.513818,305.055791 C348.677068,304.629742 350.770888,303.907829 352.735888,302.91053 C353.15347,302.735877 353.516581,302.45307 353.787574,302.09143 C354.315863,301.233325 353.723984,300.16557 353.464731,299.190452 C353.205478,298.215333 353.254394,296.894047 352.432611,296.196837 C349.561262,293.75904 350.965141,288.820064 349.551479,285.348641 C349.297118,284.739192 349.003624,284.149245 348.788395,283.525169 C348.622082,283.03761 348.499793,282.550051 348.377504,282.062491 C347.376364,278.022249 346.303481,273.996634 345.158854,269.985646 C343.975096,265.83164 344.102277,261.506988 342.610349,257.450494 C342.330173,256.603301 341.964705,255.786542 341.51953,255.012698 C341.020357,254.203583 340.353203,253.510345 339.562905,252.979575 C337.395942,251.551026 335.214304,250.337003 332.665799,249.82019 C330.117294,249.303377 327.348668,249.332631 324.756139,249.361885 Z" id="Path" fill="#3F3D56" fill-rule="nonzero"></path>
                                    <path d="M305.91253,239.819811 C304.807211,239.232183 305.09705,237.62956 304.930024,236.420308 C304.541934,233.890106 301.658279,232.394324 301,229.927256 C301.77833,230.023043 302.568427,229.912419 303.289239,229.606731 C303.427356,228.787573 303.263497,227.946617 302.827461,227.236791 C305.200213,226.265504 307.125925,224.415203 309.533065,223.555614 C312.569009,222.472629 315.919354,223.137961 319.004423,224.143243 C320.53222,224.628886 322.118967,225.294218 323.042523,226.595742 C324.054504,228.02839 324.025029,229.90783 323.985729,231.656146 C323.902216,234.395175 323.789227,237.231332 322.556182,239.683831 C320.989085,242.806518 316.543245,245.696096 312.868673,244.851077 C311.345788,244.501414 310.903661,243.549553 310.250294,242.238315 C309.847467,241.422435 309.700091,240.47543 308.776535,240.048064 C307.85298,239.620698 306.811523,240.295742 305.91253,239.819811 Z" id="Path" fill="#3F3D56" fill-rule="nonzero"></path>
                                    <g id="Group" opacity="0.1" stroke-width="1" fill="none" fill-rule="evenodd" transform="translate(277.000000, 272.000000)">
                                        <path d="M26.8918868,42.0753191 C26.8900636,42.0899422 26.8900636,42.1047387 26.8918868,42.1193617 C27.1001258,42.447234 27.6037736,42.256383 27.9233962,42.0312766 L29.531195,40.9106383 C31.6776506,41.2084932 33.8460277,41.3133013 36.0108176,41.2238298 C42.1659748,41.1357447 48.3259748,41.3804255 54.4666038,41.8159574 C56.5199371,41.962766 58.6362264,42.1193617 60.5733333,41.4293617 C61.5418868,41.0770213 62.4620126,40.5191489 63.4789937,40.2353191 C63.8301486,40.1695193 64.1685938,40.0472588 64.4814465,39.8731915 C64.597673,40.1961702 64.7090566,40.5191489 64.8107547,40.8519149 C65.0383648,41.5908511 65.1884906,42.5108511 64.6267296,43.0344681 C64.2879934,43.2872982 63.894577,43.4550396 63.4789937,43.5238298 C62.4716981,43.802766 61.5418868,44.3655319 60.5733333,44.7178723 C58.6362264,45.4078723 56.5199371,45.2512766 54.4666038,45.1044681 C48.3259748,44.6689362 42.1659748,44.4242553 36.0108176,44.5123404 C33.8491078,44.5996113 31.6839968,44.4931668 29.5408805,44.1942553 L27.9330818,45.3197872 C27.6134591,45.5448936 27.1098113,45.7357447 26.9015723,45.4078723 C26.8360344,45.27816 26.8107191,45.1314945 26.8289308,44.9870213 C26.8515304,44.0180851 26.8725157,43.0475177 26.8918868,42.0753191 Z" id="Path" fill="#000000" fill-rule="nonzero"></path>
                                        <path d="M62.0406918,12.1948936 C61.7624375,10.5978476 61.2361553,9.05527328 60.4813208,7.62425532 L59.8759748,12.4591489 C59.8372327,12.7625532 59.7984906,13.0659574 59.7645912,13.3693617 C59.6872293,12.6741145 59.6581016,11.9742496 59.6774214,11.2748936 C59.6774214,10.5751064 59.788805,9.87531915 59.8759748,9.18042553 L60.4813208,4.34553191 C61.2361553,5.77654988 61.7624375,7.31912424 62.0406918,8.91617021 C62.5907805,11.3024948 63.2697846,13.656587 64.0746541,15.9678723 C64.5298742,17.3625532 64.9850943,18.757234 65.4790566,20.137234 C65.7944172,20.928366 66.0359897,21.747524 66.2006289,22.5840426 C66.3071698,23.2544681 66.3120126,23.9395745 66.3894969,24.61 C66.5491247,26.0563869 67.0471224,27.4436152 67.842327,28.6570213 C67.9875188,28.9401269 68.2304939,29.1595335 68.5251572,29.273617 C68.7231038,29.3094072 68.926399,29.3010564 69.1208176,29.2491489 C71.2624873,28.8215248 73.3354197,28.0969435 75.2808176,27.0959574 C75.5375926,26.9683939 75.7795927,26.8124784 76.0023899,26.6310638 L76.0023899,26.6310638 C76.2590566,27.6097872 76.8450314,28.6814894 76.3220126,29.542766 C76.053723,29.9057427 75.6942342,30.189595 75.2808176,30.3648936 C73.3354197,31.3658797 71.2624873,32.0904609 69.1208176,32.5180851 C68.924631,32.5618968 68.7213438,32.5618968 68.5251572,32.5180851 C68.2304939,32.4040015 67.9875188,32.184595 67.842327,31.9014894 C67.0477886,30.6877444 66.549851,29.3006834 66.3894969,27.8544681 C66.3120126,27.1840426 66.3071698,26.4989362 66.2006289,25.8285106 C66.0366532,24.991826 65.7950624,24.1726061 65.4790566,23.3817021 C64.9947799,21.9968085 64.5105031,20.6070213 64.0746541,19.2123404 C63.2709672,16.9122811 62.5919722,14.5696558 62.0406918,12.1948936 L62.0406918,12.1948936 Z" id="Path" fill="#000000" fill-rule="nonzero"></path>
                                        <path d="M61.5418868,25.5202128 C61.5418868,25.7355319 61.5418868,25.9557447 61.5418868,26.1759574 C61.5515723,25.9557447 61.5467296,25.7404255 61.5418868,25.5202128 Z" id="Path" fill="#000000" fill-rule="nonzero"></path>
                                        <path d="M26.4172956,33.7512766 C26.95,35.1655319 26.9306289,36.7217021 26.9015723,38.2338298 C26.9015723,38.6302128 26.9015723,39.0217021 26.9015723,39.4180851 C26.860601,38.6018881 26.6973173,37.7966969 26.4172956,37.03 C26.1945283,36.442766 25.8797484,35.8946809 25.681195,35.3025532 C25.3420831,34.2660004 25.3557202,33.1446275 25.7199371,32.1168085 C25.9184906,32.6746809 26.2042138,33.1982979 26.4172956,33.7512766 Z" id="Path" fill="#000000" fill-rule="nonzero"></path>
                                        <path d="M0.997610063,0.469787234 L1.2736478,0.107659574 L2.72647799,2.55446809 C3.31238415,3.64758915 4.02970506,4.66336937 4.86213836,5.5787234 C5.70975472,6.49619981 6.86430175,7.06296771 8.10194969,7.16914894 C8.88220216,7.16127109 9.65473722,7.01210291 10.3828931,6.7287234 C13.7728302,5.5787234 16.8479874,3.75340426 20.0684277,2.19723404 C20.6394742,1.86246784 21.2790606,1.66489361 21.9377358,1.61978723 C22.6239811,1.60628211 23.236233,2.05332877 23.4389937,2.71595745 C23.807044,4.59021277 24.1702516,6.45957447 24.6738994,8.29957447 C25.1549476,10.0417021 25.5988679,11.7887234 26.0056604,13.5406383 C26.2786199,14.6160241 26.4728557,15.7102585 26.5867925,16.8144681 C26.6400629,17.4408511 26.6449057,18.0721277 26.6497484,18.6985106 L26.7223899,26.2982979 C26.7227634,26.409883 26.7130374,26.5212688 26.6933333,26.6310638 L26.6497484,21.977234 C26.6497484,21.3459574 26.6497484,20.7195745 26.5867925,20.0931915 C26.4728557,18.9889819 26.2786199,17.8947475 26.0056604,16.8193617 C25.5924109,15.0674468 25.1484906,13.3204255 24.6738994,11.5782979 C24.1896226,9.73829787 23.807044,7.86893617 23.4389937,5.98978723 C23.2358695,5.32808648 22.6231632,4.88270523 21.9377358,4.89851064 C21.2702955,4.93464534 20.6203483,5.12732072 20.0393711,5.4612766 C16.8334591,7.01744681 13.7437736,8.84276596 10.3538365,9.98787234 C9.6266077,10.2751024 8.85366617,10.4260073 8.07289308,10.4331915 C6.83524515,10.3270103 5.68069812,9.76024236 4.83308176,8.84276596 C4.00175466,7.92650576 3.28453529,6.91086932 2.69742138,5.81851064 C2.11144654,4.81531915 1.52062893,3.81702128 0.929811321,2.81382979 C0.600503145,2.25595745 0.159811321,1.61 0.343836478,0.983617021 C0.61418016,0.8942211 0.845318982,0.712558802 0.997610063,0.469787234 L0.997610063,0.469787234 Z" id="Path" fill="#000000" fill-rule="nonzero"></path>
                                    </g>
                                    <g id="Group" opacity="0.1" stroke-width="1" fill="none" fill-rule="evenodd" transform="translate(301.000000, 226.000000)">
                                        <path d="M2.32446809,1.69578947 L2.32446809,1.69578947 C2.25110215,1.28499142 2.0983624,0.891269801 1.87425532,0.535263158 C2.0112766,0.481578947 2.14829787,0.424736842 2.28531915,0.364736842 C2.39121989,0.801293885 2.40453805,1.25410751 2.32446809,1.69578947 Z" id="Path" fill="#000000" fill-rule="nonzero"></path>
                                        <path d="M3.97851064,8.33684211 C4.16446809,9.53526316 3.87574468,11.0936842 4.95723404,11.6526316 C5.84787234,12.1263158 6.91468085,11.4584211 7.7906383,11.8657895 C8.66659574,12.2731579 8.83787234,13.2063158 9.2587234,14.0021053 C9.89978723,15.2810526 10.35,16.2047368 11.8670213,16.5505263 C15.5274468,17.3747368 19.9561702,14.5515789 21.517234,11.5057895 C22.7455319,9.11368421 22.8580851,6.34736842 22.9412766,3.67578947 C22.9412766,3.54315789 22.9412766,3.41526316 22.9412766,3.28263158 C22.9412766,3.79894737 22.9412766,4.32 22.9412766,4.83157895 C22.8580851,7.50315789 22.7455319,10.2694737 21.517234,12.6615789 C19.9561702,15.7073684 15.5274468,18.5257895 11.8670213,17.7015789 C10.35,17.3605263 9.90957447,16.4321053 9.2587234,15.1531579 C8.85744681,14.3573684 8.7106383,13.4336842 7.7906383,13.0168421 C6.8706383,12.6 5.83319149,13.2726316 4.95723404,12.8084211 C3.85617021,12.2352632 4.14489362,10.6721053 3.97851064,9.49263158 C3.59191489,7.02473684 0.719361702,5.56578947 0.0636170213,3.15947368 C0.240412116,3.18245511 0.418641569,3.19353435 0.597021277,3.19263158 C1.64914894,4.95 3.66042553,6.30473684 3.97851064,8.33684211 Z" id="Path" fill="#000000" fill-rule="nonzero"></path>
                                    </g>
                                    <path d="M114.584207,375.562754 C113.249182,374.868472 111.810733,374.377698 110.319973,374.107871 C111.402025,373.962559 112.46972,373.73098 113.512084,373.415515 C116.282139,372.568782 117.679294,371.436687 116.631427,370.879995 C115.583561,370.323303 112.483623,370.557207 109.713569,371.40394 C108.778393,371.665758 107.884157,372.048137 107.055093,372.540714 C106.768871,371.955954 105.992673,371.277632 104.775014,370.632057 C102.315439,369.326872 99.0068977,368.671941 97.3865859,369.163139 C95.766274,369.654338 96.4502979,371.113899 98.9147243,372.437796 C100.117847,373.061409 101.404138,373.522616 102.737496,373.808474 C101.852096,373.913369 100.97405,374.069588 100.108128,374.276282 C97.0955119,374.973316 95.349068,376.030562 96.2271412,376.615323 C97.1052143,377.200083 100.239111,377.143946 103.256578,376.446912 C104.35382,376.216319 105.416535,375.853244 106.419582,375.366275 C106.666995,375.969747 107.457746,376.690172 108.738471,377.368494 C111.198046,378.669 114.506587,379.32861 116.126899,378.837411 C117.747211,378.346213 117.043782,376.863261 114.584207,375.562754 Z" id="Path" fill="#FF7000" fill-rule="nonzero"></path>
                                    <path d="M78.493947,327.950082 C77.6649685,327.532302 76.7714015,327.23827 75.8455318,327.078612 C76.5191837,326.992829 77.1837271,326.85306 77.8318432,326.660845 C79.544677,326.153236 80.4130885,325.470435 79.7509847,325.138018 C79.0888809,324.805602 77.1889308,324.944858 75.4712992,325.452466 C74.8938063,325.609353 74.3417905,325.839059 73.8304332,326.135268 C73.479656,325.630656 72.9795048,325.232618 72.3910771,324.989779 C70.8701575,324.203659 68.8214739,323.808353 67.8187225,324.091356 C66.8159711,324.374359 67.2429801,325.263798 68.7782932,326.049918 C69.5338572,326.425705 70.3410766,326.702321 71.1772201,326.871975 C70.6269183,326.933154 70.0807072,327.023137 69.541152,327.141502 C67.6747869,327.559268 66.5952698,328.197149 67.1422251,328.556518 C67.6891805,328.915887 69.6227155,328.875458 71.4890806,328.457691 C72.1680407,328.319983 72.8257389,328.102646 73.4466049,327.810827 C73.7793962,328.342658 74.283161,328.762438 74.885961,329.010221 C76.4116785,329.796341 78.4603621,330.191647 79.4631135,329.908644 C80.4658649,329.625641 80.0196645,328.736202 78.493947,327.950082 Z" id="Path" fill="#FF7000" fill-rule="nonzero"></path>
                                    <ellipse id="Oval" fill="#FF7000" fill-rule="nonzero" cx="375.5" cy="397" rx="15.5" ry="3"></ellipse>
                                    <ellipse id="Oval" fill="#3F3D56" fill-rule="nonzero" cx="375" cy="395.5" rx="2" ry="2.5"></ellipse>
                                    <ellipse id="Oval" fill="#3F3D56" fill-rule="nonzero" cx="375" cy="392.5" rx="2" ry="2.5"></ellipse>
                                    <ellipse id="Oval" fill="#3F3D56" fill-rule="nonzero" cx="375" cy="389.5" rx="2" ry="2.5"></ellipse>
                                    <ellipse id="Oval" fill="#3F3D56" fill-rule="nonzero" cx="375" cy="387.5" rx="2" ry="2.5"></ellipse>
                                    <ellipse id="Oval" fill="#3F3D56" fill-rule="nonzero" cx="375" cy="384.5" rx="2" ry="2.5"></ellipse>
                                    <ellipse id="Oval" fill="#3F3D56" fill-rule="nonzero" cx="375" cy="381.5" rx="2" ry="2.5"></ellipse>
                                    <ellipse id="Oval" fill="#3F3D56" fill-rule="nonzero" cx="375" cy="378.5" rx="2" ry="2.5"></ellipse>
                                    <path d="M382.06998,358.099326 C382.326413,357.782491 382.560148,357.448984 382.769543,357.101151 L377.832626,356.316178 L383.169294,356.354942 C384.204278,354.171171 384.267522,351.670747 383.344184,349.4404 L376.178659,353.045459 L382.784534,348.335623 C381.094261,345.518594 377.925335,343.850441 374.568409,344.010577 C371.211482,344.170713 368.226699,346.132418 366.829714,349.096719 C365.43273,352.06102 365.856647,355.533289 367.928811,358.099326 C367.528534,358.593931 367.183485,359.128311 366.899454,359.693499 L373.31045,362.920608 L366.474719,360.696519 C366.161152,361.599006 366.00083,362.54489 366.000016,363.497224 C365.996247,365.454575 366.676097,367.355486 367.928811,368.890277 C365.031783,372.46655 365.454665,377.601139 368.900317,380.686203 C372.34597,383.771266 377.657818,383.771266 381.103471,380.686203 C384.549123,377.601139 384.972005,372.46655 382.074977,368.890277 C384.643539,365.72385 384.641473,361.263514 382.06998,358.099326 L382.06998,358.099326 Z" id="Path" fill="#FF7000" fill-rule="nonzero"></path>
                                    <path d="M366.000016,363.130858 C365.996246,365.124979 366.676232,367.061599 367.929195,368.625221 C365.03159,372.268676 365.454557,377.49972 368.900895,380.642737 C372.347233,383.785754 377.660139,383.785754 381.106477,380.642737 C384.552815,377.49972 384.975781,372.268676 382.078176,368.625221 C383.282664,367.114642 366.000016,362.133679 366.000016,363.130858 Z" id="Path" fill="#000000" fill-rule="nonzero" opacity="0.1"></path>
                                </g>
                            </g>
                        </g>
                    </g>
                </g>
            </g>
        </g>
    </g>
</svg>