<?xml version="1.0" encoding="UTF-8"?>
<svg width="644px" height="131px" viewBox="0 0 644 131" version="1.1" xmlns="http://www.w3.org/2000/svg" xmlns:xlink="http://www.w3.org/1999/xlink">
    <!-- Generator: Sketch 53.2 (72643) - https://sketchapp.com -->
    <title>plabel</title>
    <desc>Created with Sketch.</desc>
    <g id="personalwebsite" stroke="none" stroke-width="1" fill="none" fill-rule="evenodd">
        <g id="t" transform="translate(-883.000000, -1169.000000)">
            <g id="Group-4" transform="translate(883.000000, 1026.000000)">
                <g id="plabel" transform="translate(0.000000, 143.000000)">
                    <g id="pepisSign-Copy">
                        <g id="Original-Version-Copy">
                            <path d="M326.189664,10.245245 L323.467798,7.25570536 C371.388619,5.48432352 397.692258,4.57202671 402.378716,4.51881497 C407.065173,4.46560324 411.466636,6.59892527 415.583106,10.9187811 C419.15153,7.24289755 424.980238,5.40495579 433.069227,5.40495579 C445.202711,5.40495579 451.48488,11.0021257 451.48488,22.0435477 C451.828008,22.663051 452.442814,23.2078856 453.329298,23.6780516 L504.169815,17.8007535 C506.414871,17.5412311 507.409232,17.9580211 507.152899,19.0511237 C506.896566,20.1442263 506.143279,22.6560681 504.893037,26.586649 L549.579022,22.6461686 L549.579022,3.66619896 L566.433895,17.8007535 C567.996157,18.6043928 569.540661,18.6043928 571.067405,17.8007535 C573.357528,16.5952945 601.405856,10.0324249 616.5434,31.3753965 C619.421259,35.1375098 621.144829,43.6207546 621.714121,56.8251309 L623.494213,93.7337513 C630.42126,101.157382 636.828033,108.608649 642.714545,116.087552 C643.494946,117.079064 644.924923,118.78774 642.714545,118.153485 C641.152191,118.065218 632.428476,118.065218 616.5434,118.153485 L622.413676,127.630809 L621.714121,128.832553 L577.666968,128.832553 C578.281799,126.62646 577.579418,125.603684 575.559824,125.764225 C572.530431,126.005036 570.504759,130.456845 560.797561,130.591586 C551.090358,130.726326 546.975268,125.440686 545.318826,124.293054 C544.926667,125.767808 544.408026,127.558381 543.762897,129.664775 L473.613383,125.764225 L477.105696,121.582095 L477.105696,120.300119 L463.953808,119.395093 L467.002059,124.887786 L405.105472,123.496785 L405.755366,126.711202 L327.002225,125.764225 L336.931581,114.872033 L328.48963,114.872033 L345.934465,95.6482974 L344.889823,49.1023861 C343.771013,45.4457209 341.118265,41.7897747 336.931581,38.1345474 C334.339667,35.8716504 331.274558,33.1627829 327.736253,30.0079448 L327.736253,55.1861182 C327.731454,56.6428453 328.181744,57.7788039 329.087121,58.5939948 C330.445186,59.8167801 335.515663,63.295201 335.837585,79.330849 C336.159507,95.366497 332.202454,114.025269 309.779768,113.514474 C287.357082,113.003678 283.086532,112.702522 281.699699,112.353478 C280.775143,112.120782 278.000914,114.2744 273.377011,118.814333 L263.930364,126.935627 L262.650986,126.39539 C262.707259,119.988137 262.485917,116.662881 261.98696,116.419623 C261.238525,116.054736 261.312646,115.762295 259.966156,117.083764 C259.068495,117.964744 258.364068,116.255553 257.852875,111.956193 L234.580054,112.729641 L241.535501,120.10724 L241.535501,121.500056 L137.311012,120.10724 L143.53321,113.514474 C143.897902,112.475619 143.340625,111.956193 141.861378,111.956193 C139.642508,111.956193 139.399705,113.431869 140.080943,114.141597 C136.239972,114.141597 95.8514991,116.130145 18.9155256,120.10724 L29.8984084,108.686646 L0.429674754,109.956792 L0.429674754,108.686646 L34.1639621,77.6341208 L34.1639621,32.6596287 L10.526528,3.82789217 L10.526528,2.1514883 L88.6681319,0.533562252 C108.797165,2.33939935 120.891946,8.24362789 124.952474,18.2462478 C130.902998,18.2462478 138.083793,18.2462478 146.49486,18.2462478 L146.49486,15.3732177 L192.728997,15.3732177 C194.675347,15.9961096 195.689968,16.9537863 195.772861,18.2462478 C200.198467,13.4976445 213.786832,14.7955327 216.598612,17.3369132 C217.577322,3.7716381 226.278716,-1.82947888 242.702795,0.533562252 C248.588789,2.6208851 252.559263,5.48535729 254.614217,9.12697879 C256.727484,9.12697879 258.876905,9.12697879 261.06248,9.12697879 L290.471533,0.533562252 C291.68006,0.771905494 291.982191,1.31121418 291.377928,2.1514883 C290.773665,2.99176241 287.547588,8.18903286 281.699699,17.7432996 L281.699699,18.88275 C285.229493,19.1963619 288.153438,18.8165451 290.471533,17.7432996 C293.948677,16.1334314 302.834947,12.1017175 314.332582,18.88275 C317.638221,16.4519209 321.590581,13.5727526 326.189664,10.245245 Z M327.736253,11.9439297 L327.736253,23.6780516 L336.931581,23.6780516 L336.931581,22.0435477 L327.736253,11.9439297 Z" id="Combined-Shape" fill="#0F0F0F" fill-rule="nonzero"></path>
                            <g id="P" transform="translate(26.692830, 8.596900)">
                                <path d="M8.10776712,0.578516556 L5.75167519,0.578516556 C4.24100745,0.742600735 3.86334052,1.2664993 4.61867438,2.15021226 C5.37400825,3.03392521 10.1517327,8.11473408 18.9518477,17.3926389 L18.9518477,72.3731937 C18.9656449,72.965145 18.6970607,73.5750486 18.1460953,74.2029047 C17.5951298,74.8307602 11.6496128,80.6127827 0.309544235,91.548971 L72.5149943,88.4280108 C73.4320692,88.1949699 73.5362616,87.8761051 72.827572,87.471417 C72.1188819,87.0667284 61.6948061,82.4964872 41.555344,73.7606918 C40.2510654,73.162514 39.6030034,72.1539035 39.6111583,70.7348603 C39.6193131,69.3158171 39.6233906,65.182173 39.6233906,58.3339275 C62.0726694,58.2616354 76.6899874,53.0248867 83.4753448,42.623681 C91.7906831,33.5256238 92.954323,4.25209095 68.8304266,0.578516556 C65.4674068,0.0531925072 45.2265205,0.0531925072 8.10776712,0.578516556 Z" id="Path-21" fill="#FFFFFF"></path>
                                <path d="M11.6221351,5.03639402 L21.514125,15.3530789 L21.514125,74.2091183 C15.6409659,80.0954362 10.6929132,84.7391926 6.66996673,88.1403882 C5.65949669,88.891939 5.60770402,89.8596408 6.66996673,89.8596408 C7.37814192,89.8596408 26.2834852,89.2865568 63.3859966,88.1403882 C64.4047706,87.9071586 64.4047706,87.5852889 63.3859966,87.1747797 C62.3672226,86.7642699 53.63525,82.7474341 37.190078,75.1242724 L37.190078,55.214177 C65.0615225,57.0386523 81.4364343,49.4084708 86.3148132,32.3236335 C88.8389966,10.7187833 74.0386497,2.8641517 60.4796489,2.8641517 C51.440315,2.8641517 34.6313646,2.8641517 10.0527975,2.8641517 C9.60330882,2.76372063 9.72297207,3.0734037 10.4117872,3.7932009 C11.1006024,4.51299811 11.5040517,4.92739582 11.6221351,5.03639402 Z" id="Path-20" fill="#FF5D00"></path>
                                <path d="M38.747657,11.4004211 L38.747657,41.7583053 C52.9571917,41.7799319 61.9290017,39.5804328 65.6630871,35.1596479 C69.397172,30.7388629 71.1230439,26.5071156 70.8407013,22.4644061 C70.07963,16.1291988 67.2772553,12.4412038 62.4335763,11.4004211 C57.3505685,11.4004211 49.4552624,11.4004211 38.747657,11.4004211 Z" id="Path-41" fill="#FFFFFF"></path>
                                <path d="M40.469775,13.9794911 L40.469775,37.1913663 C52.9440845,37.2079022 60.8202844,35.526148 64.0983746,32.1459813 C67.3764648,28.7658146 68.891578,25.5301877 68.6437142,22.4391004 C67.9755825,17.5951515 65.5154253,14.7752817 61.2632419,13.9794911 C56.8009556,13.9794911 49.8698002,13.9794911 40.469775,13.9794911 Z" id="Path-41-Copy" fill="#0F0F0F"></path>
                            </g>
                            <g id="e" transform="translate(114.296157, 26.015151)">
                                <path d="M51.9420531,35.9055327 C54.3014079,35.9055327 55.5530111,34.7658596 55.6968624,32.4865132 C57.0032807,13.9134019 49.8714101,3.33027626 34.3012504,0.737136423 C10.0720128,-1.75092814 1.6900947,16.577924 0.517142222,25.7278738 C-0.655810258,34.8778237 0.000156553471,60.5157438 22.7914176,63.0750164 C32.3824784,63.9524458 37.7742798,62.2145922 40.6348039,58.9682974 C40.9243736,58.613619 41.4323778,58.5910007 41.7686666,58.8959159 C44.2140999,61.2056906 46.7163484,63.9819418 49.2754122,67.2246689 C50.2548526,67.9494898 50.7445728,67.5224093 50.7445728,65.9434269 C50.7445728,64.364444 51.0629755,56.4127904 51.6997808,42.0884657 C51.6559855,40.6264771 51.1443677,40.4704148 50.1649273,41.6202788 C48.6957667,43.3450748 40.1627987,53.0997761 28.4238941,51.2397228 C21.333854,49.4107796 18.5373126,44.6337511 20.0342699,36.9086373 C38.9467706,36.2399009 49.5826983,35.9055327 51.9420531,35.9055327 Z" id="Path-22" fill="#FFFFFF"></path>
                                <path d="M20.1094018,35.1003292 L50.6616958,34.3868122 C51.8110403,34.0324802 52.3834935,32.9681711 52.3790553,31.1938851 C52.3723979,28.5324559 51.7184944,18.7988285 48.7056566,14.5241957 C45.6928187,10.2495628 38.7210542,0.750542898 19.5167094,5.9985631 C7.07480409,10.5962794 1.84906432,22.6482564 3.83949018,42.1544942 C6.81562521,54.5792858 14.5796501,61.1503536 27.1315649,61.8676962 C34.427445,62.4360113 38.8800846,58.6613148 40.2110098,57.8379777 C41.1203983,57.1934512 41.7197969,56.9778985 43.4815371,58.6852889 C45.2432772,60.3926793 45.574218,60.8914141 47.7448971,63.238127 C48.2400571,63.7008767 49.0506412,63.4566474 49.0506412,63.0202482 C49.0506412,62.7403265 49.87897,54.6072729 50.6616958,44.2560602 C50.6918837,43.8568379 50.2647171,43.7403361 49.87897,43.9149669 C47.0139901,47.3683251 41.7102998,53.4448569 31.120295,53.4448569 C18.5716115,52.8042775 17.3028009,45.4001385 17.8260532,37.6565155 C17.8260532,36.7315157 18.1027042,35.1003292 18.9631842,35.1003292 C19.5368376,35.1003292 19.9189101,35.1003292 20.1094018,35.1003292 Z" id="Path-23" fill="#FF5D00"></path>
                                <path d="M39.4532014,24.1215596 C39.4532014,17.4467016 34.7194485,12.03566 28.8800684,12.03566 C23.0406882,12.03566 18.3069353,17.4467016 18.3069353,24.1215596 C18.678969,26.8643988 39.4532014,26.9408712 39.4532014,24.1215596 Z" id="Oval-7" fill="#FFFFFF"></path>
                                <path d="M36.2834098,23.412588 C36.2834098,18.5536653 32.8375028,14.6147301 28.5867611,14.6147301 C24.3360195,14.6147301 20.8901125,18.5536653 20.8901125,23.412588 C21.1609321,25.4092213 36.2834098,25.464889 36.2834098,23.412588 Z" id="Oval-7-Copy" fill="#0F0F0F"></path>
                            </g>
                            <g id="p(small)" transform="translate(153.808778, 24.071320)">
                                <path d="M7.17407831,1.5348468 C11.7779943,5.87040801 14.9188392,8.70422087 16.5966132,10.0362853 C19.1132742,12.0343819 20.3363213,12.1347828 20.1821761,15.5353221 C19.7011002,39.321891 20.1420885,39.3963692 19.2786865,63.8592902 C19.2000298,65.6135182 19.0530419,66.364269 17.6876919,67.3917085 C12.0829809,71.0231611 6.48379567,74.663753 0.890136222,78.3134836 C-0.196654508,78.961229 -0.196654508,79.285102 0.890136222,79.285102 C2.52032232,79.285102 28.9091908,79.4760579 54.7929333,79.285102 C56.0141508,79.285102 57.7424355,78.6745503 54.6027534,77.5529688 C52.5096322,76.8052482 47.4217763,74.994142 39.3391861,72.1196516 C37.4746404,71.2835325 36.2226418,70.6431646 35.5831905,70.1985473 C34.0122325,69.106244 33.2267535,68.2561893 33.2267535,66.7079192 C33.2267535,64.7192184 33.2267535,61.635803 33.2267535,57.4576733 C37.0552573,58.968444 41.1861417,59.7238299 45.6194068,59.7238299 C52.2693044,59.7238299 68.1417221,54.0787601 71.4093182,32.9292505 C74.6769136,11.779741 61.1519017,0.369192897 50.2455439,0.115087644 C42.9746387,-0.0543158577 37.9540418,1.64900593 35.1837533,5.22505301 L34.3828515,5.22505301 L34.3828515,2.32765879 C34.5134655,1.41793551 33.6520669,0.963073875 31.798656,0.963073875 C29.0185395,0.963073875 19.662433,0.963073875 7.61516164,0.995112869 C6.98174242,0.97375354 6.83471462,1.15366485 7.17407831,1.5348468 Z" id="Path-24" fill="#FFFFFF"></path>
                                <path d="M15.1904695,4.05974863 C20.1233573,4.04031836 25.3076773,4.1111745 30.7434295,4.27231704 C31.7060307,4.28580357 32.1873312,4.95323104 32.1873312,6.27459945 C32.1873312,7.59596788 32.1873312,8.95587662 32.1873312,10.3543257 C38.9868448,5.8700555 44.2833852,3.62340761 48.0769522,3.61438201 C53.7673028,3.60084361 66.7235769,4.5436706 68.5143539,23.6281314 C70.3051304,42.7125923 61.489516,55.8373996 47.7109968,57.6656361 C42.7108996,58.3290859 37.445541,57.4829968 31.9149209,55.1273682 C31.5021617,54.8157273 31.5021617,55.2775676 31.5021617,55.4395973 C31.5021617,60.1268927 31.5021617,63.5503259 31.5021617,65.7098965 C31.5021617,68.1908117 31.3290134,68.9875063 32.1873312,70.0204806 C33.136901,71.1632756 33.4877316,71.6196575 36.4086444,72.8988902 C41.6813772,75.2081173 47.5405951,77.2025529 48.5603731,77.3983149 C48.8513104,77.4658608 49.2396769,78.4487252 47.5405951,78.4487252 C46.4078739,78.4487252 33.2189931,78.2465329 7.97395278,77.8421483 C7.4673766,77.396985 7.36801837,77.0774921 7.67587809,76.8836703 C7.97452126,76.6956508 11.8668455,74.8498366 19.6375147,69.3389291 C20.0981375,69.0648232 21.0615701,68.6071955 21.1568535,67.2161081 C21.6801686,48.8619676 22.2118816,30.5684443 22.7519924,12.3355385 C20.1526487,10.0164042 17.4167285,7.70262609 14.5442317,5.39420409 C14.237961,5.17033714 13.8841216,4.02860207 15.1904695,4.05974863 Z" id="Path-25" fill="#FF5D00"></path>
                                <ellipse id="Oval-8" fill="#FFFFFF" transform="translate(44.234802, 28.594221) rotate(10.000000) translate(-44.234802, -28.594221) " cx="44.2348018" cy="28.5942212" rx="11.1930359" ry="16.335183"></ellipse>
                                <ellipse id="Oval-8-Copy" fill="#0F0F0F" transform="translate(44.282394, 28.736237) rotate(10.000000) translate(-44.282394, -28.736237) " cx="44.2823938" cy="28.7362365" rx="9.14603372" ry="13.3477759"></ellipse>
                            </g>
                            <g id="i" transform="translate(212.456889, 4.522901)">
                                <path d="M10.8113794,23.8536514 C18.4834497,23.8536514 26.445625,23.8536514 34.6979055,23.8536514 L34.6979055,74.6949725 L46.4263287,84.7572275 C46.5200876,85.6737256 46.2659367,86.1319744 45.6638761,86.1319744 C45.0618154,86.1319744 29.9384416,85.6737256 0.293754611,84.7572275 C-0.393504593,84.194348 0.300857385,83.325563 2.37684055,82.150872 C4.45282371,80.9761815 9.21207725,77.9208033 16.6546012,72.9847384 L17.0667594,34.3294667 C14.4716944,31.2500422 12.0303818,28.3583458 9.74282164,25.6543773 C8.88587683,24.3294818 9.91960305,23.8536514 10.8113794,23.8536514 Z" id="Path-26" fill="#FFFFFF"></path>
                                <path d="M13.7923074,27.6232416 C15.483831,29.7109521 17.259774,31.7295226 19.1201364,33.6789531 C19.4999956,51.6810226 19.4999956,65.350515 19.1201364,74.68743 C19.0442628,74.9016064 18.7662041,75.1415871 18.2859604,75.4073715 C13.4687496,78.5868332 9.81894595,80.9216877 7.33654952,82.411935 C7.02816304,82.7197182 6.98902286,83.0365312 7.21912908,83.362374 L40.4643307,84.2663096 C41.5554866,84.0797607 41.3454684,83.5706322 39.8342762,82.738924 C37.5674878,81.4913608 33.1260997,77.3765495 32.6609476,75.9245962 C32.3508462,74.9566275 32.1889492,58.6626097 32.1752567,27.0425436 C26.0992662,26.8769503 20.3165332,26.678767 14.8270576,26.4479937 C14.2116161,26.4674348 13.4432813,27.0353666 13.7923074,27.6232416 Z" id="Path-27" fill="#FF5D00"></path>
                                <path d="M23.4732896,18.9131801 C26.6171681,18.9131801 29.9881597,18.6979843 32.1342761,17.1514709 C34.5329259,15.4229792 35.5281162,12.2130578 35.5281162,9.45659005 C35.5281162,4.23385958 30.1309865,0 23.4732896,0 C21.370325,0 19.1922842,0.275272629 17.4712281,1.01786056 C13.7436571,2.62620397 11.418463,5.88356176 11.418463,9.45659005 C11.418463,14.6793205 16.8155927,18.9131801 23.4732896,18.9131801 Z" id="Oval-6-Copy" fill="#FFFFFF"></path>
                                <ellipse id="Oval-6" fill="#FF5D00" cx="23.4732896" cy="10.31628" rx="9.4716495" ry="6.01783002"></ellipse>
                            </g>
                            <g id="'" transform="translate(260.039831, 11.400421)">
                                <path d="M18.972151,1.1868219 C12.1676266,13.1777403 10.9005327,14.1483262 2.46087297,25.9805088 C2.05811165,26.5451696 1.39321926,26.7062016 1.28730885,25.9805088 C0.537624801,20.8437117 0.108521851,15.2231193 0,9.11873178 C0.0372113325,6.78204774 0.718741576,5.44238427 2.04459074,5.09974135 C4.03336447,4.585777 9.66203395,1.79661964 17.1693557,0.0612516893 C18.1258141,-0.159840091 19.521868,0.218111706 18.972151,1.1868219 Z" id="Path-28" fill="#FFFFFF"></path>
                                <path d="M14.9422317,5.01771864 C10.8183772,12.2847662 10.05046,12.8729859 4.9356383,20.0438324 C4.69154642,20.3860429 4.28859109,20.4836356 4.2244045,20.0438324 C3.77006151,16.9306973 3.5100054,13.52436 3.44423618,9.82482059 C3.46678795,8.40868266 3.87982661,7.59678499 4.68335213,7.38912767 C5.88864043,7.07764164 9.29987282,5.38728409 13.8496549,4.33557136 C14.4293126,4.20157958 15.2753854,4.43063573 14.9422317,5.01771864 Z" id="Path-28-Copy" fill="#FF5D00"></path>
                            </g>
                            <g id="s" transform="translate(267.789363, 24.295771)">
                                <path d="M49.9660108,24.8001739 C40.5436956,20.4773525 33.3181928,14.7843005 31.0743665,14.3666251 C28.8305402,13.9489498 23.396326,12.6613397 22.378096,15.8687558 C21.3598659,19.076172 21.4375687,22.0938827 31.8643091,27.4773557 C42.2910496,32.8608287 60.2033616,36.2496835 55.6830824,57.1416625 C51.1628032,78.0336417 21.6590969,71.070147 18.6805283,69.6905342 C16.694816,68.7707918 13.5596862,67.1092439 9.27513901,64.7058904 C8.20619874,64.1012515 7.34721334,64.1012515 6.69818273,64.7058904 C6.04915213,65.3105293 3.85774895,67.2693868 0.123973229,70.5824625 L0.123973229,43.2762936 C0.337638055,42.1682472 0.951733282,42.0204868 1.96625892,42.8330122 C3.48804737,44.0518004 21.9319523,58.150203 31.0743665,56.0401994 C40.2167807,53.9301964 36.6391807,45.757291 31.5946335,43.5771278 C26.5500862,41.3969646 7.69379161,34.16076 3.90888243,25.5648814 C0.123973229,16.9690027 1.8625941,6.04805048 18.6805283,0.982611172 C33.3793319,-2.22625462 44.6666064,7.90083319 47.1603728,4.57942098 C49.095001,2.73506789 49.064364,2.02123384 50.9173587,0.982611172 C51.7953444,0.490491133 53.1282422,0.809335984 53.1512953,2.01923205 C52.7694676,12.7552608 52.9899093,12.4534992 51.547186,23.7592574 C51.4089649,24.8424132 50.7801053,25.1736686 49.9660108,24.8001739 Z" id="Path-29" fill="#FFFFFF"></path>
                                <path d="M50.1591017,5.0608272 C50.2345386,12.9162155 50.2203484,14.4654549 49.4867973,21.8042042 C49.4162692,22.5097968 48.5342325,21.9973182 48.2524774,21.8042042 C39.9485251,16.112703 34.0268641,12.675381 29.7067733,12.2691007 C18.1293986,10.6200566 17.7124523,19.6726935 23.8496925,24.9333987 C26.4039865,26.9054866 31.4181863,29.874517 37.5980827,32.7130986 C43.7779791,35.5516802 45.548753,36.9016176 48.2524774,38.8309953 C53.2041814,43.0646187 54.7995089,47.8519398 54.9859777,51.4795229 C55.2526407,56.6672199 51.5118316,69.9905059 34.5226574,69.67235 C17.5334832,69.3541941 13.6854459,65.6265519 8.675966,61.4611891 C8.03467772,61.2673684 7.8990484,61.0375335 7.35463592,61.4611891 C5.202594,63.5827665 3.442584,65.2951338 2.07460589,66.5982911 L2.07460589,45.7518488 C12.8827914,55.9072075 22.6086438,60.6488139 31.2521632,59.9766675 C40.3723282,59.278837 42.6739196,46.9794945 34.1335092,42.7278853 C25.5930988,38.476276 10.4472827,34.9190798 5.45324002,22.8418872 C0.459197396,10.7646947 16.5294909,3.59180137 22.306355,3.50383199 C28.083219,3.41586262 34.7017496,3.63911696 44.8591245,7.58251246 C45.5036384,7.79324439 46.2815283,7.83300327 47.3963462,7.15913216 C47.9580946,6.78724677 48.8345615,5.6818072 49.6272982,4.70030645 C49.8711976,4.55074718 50.1555561,4.69161317 50.1591017,5.0608272 Z" id="Path-30" fill="#FF5D00"></path>
                            </g>
                            <g id="P" transform="translate(341.090909, 13.975256)">
                                <path d="M0.0300884944,0.253784905 L16.7944944,15.995197 L18.059198,81.6454961 C13.7784487,86.2582115 9.40961739,90.7293089 4.9527041,95.0587877 C4.4919255,95.586081 4.32456454,96.6232274 4.9527041,96.6439594 C28.1109384,96.6439594 29.5556229,96.6439594 52.9810612,96.6439594 C53.6092008,96.6232274 53.5144721,95.4488938 52.9810612,95.0587877 C48.1461232,92.2238615 42.6886114,88.8073054 36.6085257,84.8091202 C36.6085257,82.4147723 36.6085257,80.7636418 36.6085257,79.8557288 C36.6085257,78.4938598 36.6085257,68.4314188 36.4515045,57.8984943 C36.5563586,56.4171765 37.107492,55.9919812 38.3098166,55.8208946 C42.3007949,55.8208946 46.5482008,55.8208946 51.0520343,55.8208946 C67.7339129,55.9710686 76.7844523,48.2367955 78.2036511,32.6180756 C80.3324492,9.18999561 69.6193504,0.253784905 53.9645835,0.253784905 C43.5280723,0.253784905 25.5499073,0.253784905 0.0300884944,0.253784905 Z" id="Path-32" fill="#FFFFFF"></path>
                                <path d="M7.59382627,4.1523329 C11.205939,7.35791193 15.1213272,11.0764226 19.3399909,15.3078648 L21.1198285,81.3250264 C21.1198285,83.8154221 20.7624624,85.4075023 20.0477304,86.1012659 C18.9756322,87.1419121 14.4503972,91.9497275 12.1960154,93.7977332 C11.8313803,94.2525161 12.1978578,95.099602 12.7537394,95.1181399 C26.2779642,94.8801495 29.4070077,95.1181399 44.653936,94.8801495 C45.1708205,94.8536751 44.774217,93.8709121 44.3231212,93.5011945 C41.2192148,91.6316374 36.9222297,89.3966868 33.4509746,85.6982188 C33.6760937,75.2189736 33.1057736,70.1591816 33.6760937,55.2013439 C33.7081268,54.3612112 34.0508767,54.3713753 34.655681,54.1022782 C43.5115552,54.3856247 72.2622038,57.0344404 75.0732449,36.7824015 C77.8842865,16.5303629 71.4316264,6.72498899 57.0810113,4.1523329 C36.3856665,4.1523329 32.9554053,3.74296184 8.86494715,3.74296184 C8.21181273,3.74296184 7.1577206,3.67085333 7.59382627,4.1523329 Z" id="Path-31" fill="#FF5D00"></path>
                                <g id="Group-15" transform="translate(34.413897, 12.877315)">
                                    <path d="M0,0.527973339 L0,26.2619533 L0.99580036,27.4331858 L13.5530198,27.4331858 C21.9831415,26.7199193 26.3775548,22.2357172 26.7362596,13.9805796 C27.2743169,1.59787307 17.258946,0 13.3681298,0 C10.7742524,0 6.32206496,0 0.0115676169,0 L0,0.527973339 Z" id="Path-40" fill="#FFFFFF"></path>
                                    <path d="M1.95837794,3.16658057 C1.70029433,9.87438263 1.70029433,16.4894545 1.95837794,23.0117961 C1.9817516,23.6024998 2.17772587,23.86638 2.77937611,23.9150128 C6.10291959,24.1836631 9.55389711,24.1836631 13.1323088,23.9150128 C20.082612,23.3649647 23.7056327,19.9068927 24.0013707,13.5407967 C24.4449777,3.99165274 16.187699,2.75942456 12.9798743,2.75942456 C10.8413245,2.75942456 7.17067143,2.75942456 1.96791499,2.75942456 L1.95837794,3.16658057 Z" id="Path-40-Copy" fill="#0F0F0F"></path>
                                </g>
                            </g>
                            <g id="i" transform="translate(413.000000, 12.704778)">
                                <path d="M9.08726346,30.2066617 C16.9214834,30.2066617 18.5163762,30.2066617 28.0282707,30.2066617 C28.4604561,30.2205608 28.7495179,30.2067593 28.7846175,30.8401272 C29.4130376,47.9636572 30.1212158,65.0808582 30.909152,82.1917305 C35.9413815,86.9980973 39.7953224,90.2119214 42.4709747,91.8332027 C42.9074901,92.2758674 43.0195567,93.4973087 42.4709747,93.5138691 C22.5666275,93.0768289 21.0713296,93.0768289 1.27454157,93.0768289 C0.415758628,93.0247076 -0.411925674,91.5681924 0.252915352,90.9515566 C4.54452067,88.0422466 9.10412978,84.7136239 13.9317428,80.9656896 C14.3573002,80.6353066 15.184578,80.434448 15.1974723,79.1590994 C15.3286521,66.1843451 15.0465184,52.9615555 14.3510709,39.4907301 C12.6010144,37.4822479 10.7199249,35.3489047 8.70780235,33.0907004 C8.13679845,32.0835893 8.18121538,30.3419109 9.08726346,30.2066617 Z" id="Path-33" fill="#FFFFFF"></path>
                                <path d="M13.9092693,33.8680752 C19.3851129,33.8680752 21.3992691,33.8680752 25.6298729,33.8680752 C26.6721622,34.0742775 27.1830843,34.4413778 27.3301644,36.5232099 C27.971658,60.5494879 27.7745845,59.1693846 28.9770676,81.2456199 C29.0597606,82.7637692 29.1111336,83.4570142 29.3813525,83.8121908 C30.5689892,85.0105842 34.0729057,87.7769764 36.519821,90.4227543 C37.6310216,91.4843158 36.960697,92.223607 36.519821,92.2456856 C22.6264964,91.8810549 18.5848287,92.2456856 4.4842928,92.3077613 C4.05892651,92.2811807 3.80010906,91.3388513 4.19213186,90.9308726 C8.04182185,88.1926971 11.4840341,85.3812775 16.3574286,81.2085421 C16.5737745,81.0233005 16.7059285,80.7797446 16.6969298,80.1494809 C16.5096526,67.0326234 16.5096526,53.6339324 16.6969298,39.9534072 C15.6642003,38.366374 14.6191665,36.7694839 13.5618284,35.1627369 C13.3432055,34.6854934 13.5539676,33.9061921 13.9092693,33.8680752 Z" id="Path-34" fill="#FF5D00"></path>
                                <ellipse id="Oval-5" fill="#FFFFFF" cx="19.7591693" cy="10.0688872" rx="11.5279099" ry="10.0688872"></ellipse>
                                <ellipse id="Oval-5-Copy" fill="#FF5D00" cx="20.2025504" cy="10.9842406" rx="9.31100414" ry="8.23818045"></ellipse>
                            </g>
                            <g id="z-(1)" transform="translate(448.636364, 29.220990)">
                                <path d="M0.51850239,5.07709169 C0.681642443,3.47742952 1.34116409,3.50729315 2.60683009,3.39467073 C20.4356706,2.38348522 26.6621584,2.04187597 45.1356628,0.349315506 C46.2744069,0.342515941 46.8470572,1.69279804 46.3607609,3.13341123 C37.7583418,28.6173787 35.7947441,28.3649961 27.0472013,53.8913871 C26.6633661,55.605032 26.7386632,56.6248691 27.9694128,56.8015962 C32.7518824,56.8015962 34.4093702,56.8015962 36.7679522,54.1984769 C41.1466757,48.5785441 42.4278332,46.7882207 46.9793127,40.1231256 C47.8640119,39.1318789 48.8468903,40.0211615 48.8805525,41.4784 C48.1647087,52.9877501 48.0798907,54.1984769 47.5942171,66.7422795 C47.382686,68.3848114 46.8516405,68.839714 45.6321443,68.839714 C25.4253338,67.9512003 24.0797535,67.7485589 5.51210076,66.7422795 C4.01979617,66.542836 2.96407114,64.9997164 3.72445829,63.2388263 C11.1621732,47.9747461 19.0563636,32.2412795 27.4070296,16.0384264 L11.2822717,16.0384264 C8.09752396,20.4047628 4.8390366,24.2905759 1.50680961,27.6958657 C1.03042894,28.1826916 0.368453435,28.0432531 0.332829381,27.2279475 C-0.125700172,16.7338661 0.51850239,15.682851 0.51850239,5.07709169 Z" id="Path-36" fill="#FFFFFF"></path>
                                <path d="M4.49108307,6.60580056 C3.75653307,6.64906835 3.26355341,7.34925763 3.26355341,8.25214758 C3.26355341,10.2641431 3.26355341,15.3047274 3.26355341,20.6488965 C3.34762763,21.4824434 3.98380856,21.7371995 4.49108307,21.2616316 C6.21108269,19.2241688 8.190388,16.7807313 10.428999,13.931319 L31.0190648,13.931319 L9.13668095,60.8507777 L8.22613708,62.9228553 C7.49027637,64.114882 7.49027637,64.7256326 8.22613708,64.7551081 C21.1055332,65.2709969 33.5098211,66.5065059 44.4028294,66.5065059 C45.2275992,66.5065059 45.608001,66.217046 45.7380842,65.1013584 C46.0279053,57.4185345 46.5967404,54.9288208 47.0617206,47.1231322 C47.0194021,46.0348315 46.2723947,45.5311866 45.5807878,46.0757455 C40.0421804,53.3632386 36.7839332,58.8113653 33.9065078,58.8113653 C31.9882243,58.8113653 29.1612641,58.8113653 25.4256273,58.8113653 C24.2223773,58.6012775 23.9215648,57.5754041 24.5231898,55.7337457 C25.4256273,52.9712582 34.0352327,32.1539349 42.397291,7.76273315 C43.2185828,5.3671155 41.3652768,5.4602985 40.8494686,5.46252636 C28.6558867,5.51519229 16.5364249,5.89628369 4.49108307,6.60580056 Z" id="Path-35" fill="#FF5D00"></path>
                            </g>
                            <g id="z-(2)" transform="translate(498.665876, 32.077965)">
                                <path d="M0.2606705,6.43680581 C0.435584449,4.7022739 1.14270408,4.73465537 2.49971379,4.61253759 C21.61527,3.51609762 33.9630487,1.86193122 53.7697945,0.0266686137 C54.9907224,0.0192957676 55.6047013,1.48342204 55.0833087,3.04549534 C45.8600488,30.6780517 41.9926844,29.4719109 32.6138274,57.1504676 C32.2022906,59.008592 32.6059941,58.9310045 33.9255675,59.1226321 C39.0531901,59.1226321 38.4534589,58.778845 40.9822609,55.9562527 C44.0784231,50.2074494 46.6872018,43.4134135 51.5671637,36.1863749 C52.515712,35.1115548 54.038879,35.271036 54.0749706,36.8511364 C53.3074639,49.3308558 52.9574444,59.5877506 52.4367194,73.1891388 C52.2099221,74.970155 51.6405507,75.4634109 50.333043,75.4634109 C28.6678976,74.4999852 24.6491755,75.4576135 4.74148659,74.3664929 C3.14148169,74.150234 2.00956449,72.477012 2.82482914,70.567659 C14.7865765,45.7411346 26.555518,22.2851931 28.7506537,18.210373 C28.8227438,17.8177259 28.5977147,17.5608353 27.7652647,17.5608353 C24.9562013,17.5608353 16.9611442,17.4663884 12.3027341,17.5608353 C11.9750856,17.5674782 11.78589,18.1151885 11.6132944,18.4536505 C8.86688672,23.8393882 7.64651898,28.6750504 2.82482914,36.9263518 C2.43389965,37.5953449 1.63857928,37.2805452 1.56612222,36.4189827 C0.356499958,22.0357722 0.2606705,17.9367515 0.2606705,6.43680581 Z" id="Path-36" fill="#FFFFFF"></path>
                                <path d="M4.75495433,8.12002902 C3.97067975,8.16387261 3.44446762,8.92399483 3.44446762,9.90036948 C3.44446762,12.0761179 3.44446762,21.9606381 3.44446762,27.7397603 C3.53422362,28.6411483 4.21339796,28.9166385 4.75495433,28.4023649 C6.59119234,26.1990764 8.86067509,22.0599278 11.5634026,15.984919 L32.8018988,15.984919 L7.92848709,68.8100643 L6.9564082,71.0507848 C6.17081772,72.3398286 6.17081772,73.0002875 6.9564082,73.0321614 C20.7062001,73.5900376 36.3288547,74.5516714 47.9580178,74.5516714 C48.8385259,74.5516714 49.2446355,74.2386526 49.3835097,73.0321614 C49.6929171,64.724045 51.3192891,56.8235034 51.815693,48.3825229 C51.7705145,47.2056472 50.9730241,46.6610116 50.2346779,47.2498912 C44.3217688,55.1305015 42.1495886,61.9093315 39.0777056,61.9093315 C37.0297835,61.9093315 34.011776,61.9093315 30.0236829,61.9093315 C28.1252082,62.0640608 27.8040666,60.9546935 29.0602583,58.5812296 C30.9445458,55.0210334 39.0777056,38.0359267 51.815693,7.59517956 C52.6924881,5.00458663 50.7139348,5.10535364 50.163268,5.10776282 C36.9818666,6.29806026 19.5996342,7.29016137 4.75495433,8.12002902 Z" id="Path-35" fill="#FF5D00"></path>
                            </g>
                            <g id="a" transform="translate(557.454546, 21.598123)">
                                <path d="M0.127838197,0.87224612 C1.60174371,17.5053353 1.52202542,19.9046024 2.77786009,36.94285 C3.00799186,38.7009388 4.15028016,38.9502738 5.37719638,38.218272 C10.920519,30.762851 17.1670301,21.9933213 27.1208576,22.4193488 C37.074685,22.8453763 39.4945964,26.5704385 39.7895815,27.7969501 C40.0028652,28.5604817 40.0028652,31.6091151 39.7895815,36.94285 C24.8108646,39.6893575 13.0251656,47.727491 4.43248478,61.0572504 C-5.96612259,82.3584536 14.3419193,89.1335871 19.683223,88.8873076 C25.0245267,88.6410282 31.1467252,89.02287 39.1214452,83.5184176 C39.7895815,83.0871096 41.4342695,81.2143039 42.9110286,84.2817929 C44.3877878,87.3492819 45.570314,88.1458584 47.3955024,88.1458584 C49.2206907,88.1458584 58.8165573,88.6374928 66.4155493,88.6374928 C67.0697317,88.5675512 66.9321302,87.3167567 65.7171713,86.5267674 C62.7864985,84.1406994 61.0137367,82.6499572 56.0185593,77.6921474 C55.4309039,77.0318513 55.0140582,75.3605005 54.9910638,72.8587514 C54.8951429,62.422506 54.8951429,52.1151903 54.9910638,41.9368049 C54.9675632,28.6668173 51.7568846,18.9004396 45.359028,12.6376716 C34.4595508,2.32367655 17.0082668,5.76867018 11.1719891,11.781459 C11.0858129,11.8702416 10.9455997,12.0870078 10.6431504,11.6526504 C7.03278812,6.46768968 6.27780325,5.39701417 1.55391595,0.504993621 C0.999737474,-0.0689092497 0.0964579213,-0.061971343 0.127838197,0.87224612 Z" id="Path-37" fill="#FFFFFF"></path>
                                <path d="M2.01740903,7.25533484 C1.91973987,4.98547911 4.01747729,6.45680083 4.62621242,7.25533484 C7.68985948,10.9870242 7.94626116,12.1826672 9.58808524,13.5213812 C10.443327,14.2539578 11.7193465,14.2175894 12.7728639,13.3478379 C14.9885642,11.4421794 17.1723907,7.98614831 29.2780272,8.1849069 C41.3836637,8.38366544 50.0658471,17.3080216 52.1984729,31.9972063 C54.3310989,46.6863912 53.5045263,52.3919452 53.3349016,75.2643163 C53.3920694,76.7577033 53.8421318,77.6612583 54.1511965,78.0575479 C56.9358774,81.6281275 58.6436719,83.4780001 60.863836,85.4090339 C61.6426103,86.4690924 61.5330671,87.0498024 60.3186489,87.0498024 C57.438997,87.0498024 48.8420974,87.342954 46.9121531,86.1017517 C45.9082648,85.3363143 44.2813995,83.6270371 43.2427118,80.7830584 C43.0632078,80.208004 42.4525849,79.1850336 41.4352413,79.8680272 C37.7704866,82.3283608 31.65222,87.2392867 23.2510709,87.2392867 C12.4825166,87.2392867 3.65583309,81.0950734 3.65583309,74.3480861 C3.65583309,67.6010988 6.39374664,56.3908471 19.200919,47.4908811 C28.8959864,40.7535804 32.2455357,39.6741349 39.5330202,39.0823187 C40.8377796,38.9763593 41.2703417,38.2074394 41.4352413,37.1930443 C41.783139,34.6953153 41.783139,31.5139805 41.4352413,27.6490398 C41.120666,24.2342884 36.9114231,21.989868 28.8075126,20.9157785 C16.6516469,19.3046442 9.45681033,31.7080881 5.67176354,34.748322 C4.70834266,35.2029689 3.84194098,35.0304683 3.63217006,33.7606732 C2.95705634,24.3870497 2.8236315,17.1165775 2.01740903,7.25533484 Z" id="Path-38" fill="#FF5D00"></path>
                                <path d="M36.3919913,50.5172465 C37.653754,50.4254895 38.5605981,50.937484 39.1125234,52.0532302 C39.2116268,61.0645314 38.433998,66.7767691 36.7796371,69.1899428 C34.2980957,72.8097035 29.0353824,78.2733146 26.9188456,78.8381213 C20.2831813,80.1921179 17.2047422,78.8204514 16.6061744,76.6100922 C15.5472855,72.6998835 15.8042857,68.8688246 17.4652621,65.3282924 C20.5341744,59.8252202 23.30623,53.9718809 36.3919913,50.5172465 Z" id="Path-39" fill="#FFFFFF"></path>
                                <ellipse id="Oval-4" fill="#0F0F0F" transform="translate(28.318310, 65.778354) rotate(35.000000) translate(-28.318310, -65.778354) " cx="28.3183104" cy="65.7783544" rx="7.00819731" ry="13.5653134"></ellipse>
                            </g>
                        </g>
                    </g>
                </g>
            </g>
        </g>
    </g>
</svg>