<?xml version="1.0" encoding="UTF-8"?>
<svg width="361px" height="112px" viewBox="0 0 361 112" version="1.1" xmlns="http://www.w3.org/2000/svg" xmlns:xlink="http://www.w3.org/1999/xlink">
    <!-- Generator: Sketch 53.2 (72643) - https://sketchapp.com -->
    <title>appstore</title>
    <desc>Created with Sketch.</desc>
    <g id="personalwebsite" stroke="none" stroke-width="1" fill="none" fill-rule="evenodd">
        <g id="t" transform="translate(-282.000000, -662.000000)" fill-rule="nonzero">
            <g id="Group-11" transform="translate(171.000000, 343.000000)">
                <g id="Group-2" transform="translate(0.000000, 6.000000)">
                    <g id="appstore" transform="translate(111.000000, 313.000000)">
                        <path d="M350.133324,112 L10.8801956,112 C5.15067372,112 0.5,106.975712 0.5,100.773032 L0.5,11.2416248 C0.5,5.04187605 5.15067372,0 10.8801956,0 L350.13062,0 C355.86555,0 360.497296,5.04187605 360.497296,11.2416248 L360.5,100.773032 C360.5,106.975712 355.86555,112 350.133324,112 Z" id="Shape-Copy-2" fill="#030303"></path>
                        <g id="Group-Copy-2" transform="translate(115.500000, 51.000000)" fill="#FFFFFF">
                            <path d="M30.5165744,37.7397904 L24.4192853,37.7397904 L21.0793349,26.8152614 L9.47005366,26.8152614 L6.2885092,37.7397904 L0.352311051,37.7397904 L11.8541984,0.547763546 L18.9583052,0.547763546 L30.5165744,37.7397904 Z M20.072517,22.2319337 L17.0520634,12.5203096 C16.7325665,11.5281869 16.1338455,9.19180767 15.2505306,5.51396672 L15.1431367,5.51396672 C14.7914217,7.09577369 14.2249188,9.4321529 13.446313,12.5203096 L10.4795564,22.2319337 L20.072517,22.2319337 L20.072517,22.2319337 Z" id="Shape"></path>
                            <path d="M60.0955409,24.0009864 C60.0955409,28.5619563 58.9115231,32.1671348 56.5434874,34.813727 C54.4224578,37.1696692 51.7886223,38.3462429 48.6446657,38.3462429 C45.2510182,38.3462429 42.8131766,37.0774437 41.3284558,34.5398452 L41.2210619,34.5398452 L41.2210619,48.6671143 L35.4969667,48.6671143 L35.4969667,19.7502295 C35.4969667,16.882855 35.4244759,13.9400233 35.2848638,10.9217344 L40.3189531,10.9217344 L40.63845,15.1724913 L40.7458439,15.1724913 C42.6547706,11.9697514 45.5517212,10.3711761 49.4393806,10.3711761 C52.4786281,10.3711761 55.0158091,11.6204124 57.0455539,14.1216796 C59.0806685,16.6257415 60.0955409,19.9179122 60.0955409,24.0009864 Z M54.2640518,24.2189739 C54.2640518,21.608713 53.7002338,19.4567847 52.5672281,17.7631893 C51.3295133,15.9969313 49.6675926,15.1138023 47.5841508,15.1138023 C46.171921,15.1138023 44.8885638,15.6056716 43.7421339,16.5754367 C42.5930191,17.5535859 41.8412617,18.8307693 41.4895467,20.4125762 C41.3123467,21.1503802 41.2237468,21.754038 41.2237468,22.229139 L41.2237468,26.7006782 C41.2237468,28.6513871 41.7983042,30.2974725 42.947419,31.6417289 C44.0965337,32.9859854 45.589309,33.6567163 47.4257448,33.6567163 C49.5816775,33.6567163 51.2597073,32.7903556 52.4598342,31.0632236 C53.6626459,29.3332968 54.2640518,27.0528119 54.2640518,24.2189739 Z" id="Shape"></path>
                            <path d="M89.7282043,24.0009864 C89.7282043,28.5619563 88.5441865,32.1671348 86.1734661,34.813727 C84.0551213,37.1696692 81.4212857,38.3462429 78.2773291,38.3462429 C74.8836817,38.3462429 72.44584,37.0774437 70.9638041,34.5398452 L70.8564102,34.5398452 L70.8564102,48.6671143 L65.1323151,48.6671143 L65.1323151,19.7502295 C65.1323151,16.882855 65.0598242,13.9400233 64.9202121,10.9217344 L69.9543014,10.9217344 L70.2737983,15.1724913 L70.3811922,15.1724913 C72.287434,11.9697514 75.1843846,10.3711761 79.0747289,10.3711761 C82.1112916,10.3711761 84.6484726,11.6204124 86.6835871,14.1216796 C88.7106471,16.6257415 89.7282043,19.9179122 89.7282043,24.0009864 Z M83.8967153,24.2189739 C83.8967153,21.608713 83.3302124,19.4567847 82.1972067,17.7631893 C80.9594919,15.9969313 79.3029409,15.1138023 77.2168143,15.1138023 C75.8018996,15.1138023 74.5212273,15.6056716 73.3721125,16.5754367 C72.2229977,17.5535859 71.4739252,18.8307693 71.1222102,20.4125762 C70.9476951,21.1503802 70.8564102,21.754038 70.8564102,22.229139 L70.8564102,26.7006782 C70.8564102,28.6513871 71.4309676,30.2974725 72.5747127,31.6417289 C73.7238275,32.9831907 75.2166028,33.6567163 77.0584083,33.6567163 C79.214341,33.6567163 80.8923707,32.7903556 82.0924976,31.0632236 C83.2953094,29.3332968 83.8967153,27.0528119 83.8967153,24.2189739 Z" id="Shape"></path>
                            <path d="M122.859224,27.3099254 C122.859224,30.4735393 121.804079,33.0474691 119.685734,35.0345093 C117.357971,37.2060005 114.11736,38.2903487 109.953162,38.2903487 C106.10846,38.2903487 103.026255,37.5190082 100.693122,35.9735325 L102.019437,31.0073293 C104.532454,32.5891363 107.289793,33.3828345 110.294137,33.3828345 C112.45007,33.3828345 114.1281,32.8741969 115.333596,31.8625112 C116.533723,30.8508254 117.132444,29.4925954 117.132444,27.799 C117.132444,26.2898555 116.638432,25.0182616 115.647724,23.9870128 C114.662384,22.9557641 113.016573,21.9971779 110.718343,21.1112542 C104.462648,18.6826495 101.337486,15.1249812 101.337486,10.4466333 C101.337486,7.38921845 102.432903,4.88236181 104.626424,2.93165286 C106.81189,0.97814919 109.727634,0.00279471197 113.373658,0.00279471197 C116.625008,0.00279471197 119.325965,0.592478938 121.481897,1.76905268 L120.050874,6.62626208 C118.037238,5.4860196 115.760487,4.91589836 113.212567,4.91589836 C111.198931,4.91589836 109.62561,5.43292007 108.497974,6.46137408 C107.544853,7.38083431 107.06695,8.50151381 107.06695,9.829002 C107.06695,11.2990205 107.611975,12.5147202 108.707392,13.4705117 C109.660513,14.3536407 111.39224,15.3094322 113.905257,16.3406809 C116.979408,17.6290431 119.237365,19.1353929 120.689867,20.8625249 C122.137,22.5840674 122.859224,24.7387904 122.859224,27.3099254 Z" id="Shape"></path>
                            <path d="M141.784715,15.3932735 L135.475323,15.3932735 L135.475323,28.4138366 C135.475323,31.7255703 136.58685,33.3800398 138.815274,33.3800398 C139.838201,33.3800398 140.686613,33.2878143 141.357825,33.1033633 L141.516231,37.628002 C140.388595,38.0667718 138.903874,38.287554 137.064753,38.287554 C134.804111,38.287554 133.037482,37.569313 131.762179,36.1356258 C130.492246,34.6991438 129.853252,32.2901021 129.853252,28.9057059 L129.853252,15.3876841 L126.094466,15.3876841 L126.094466,10.916145 L129.853252,10.916145 L129.853252,6.00583602 L135.475323,4.23957806 L135.475323,10.916145 L141.784715,10.916145 L141.784715,15.3932735 Z" id="Shape"></path>
                            <path d="M170.252155,24.1099802 C170.252155,28.2321803 169.119149,31.6165765 166.858508,34.2631688 C164.487787,36.9880129 161.341146,38.3462429 157.418583,38.3462429 C153.638318,38.3462429 150.628603,37.0411125 148.384071,34.4308515 C146.139538,31.8205905 145.017272,28.5256251 145.017272,24.5543394 C145.017272,20.3986027 146.171756,16.9946435 148.48878,14.3480513 C150.800434,11.6986643 153.920227,10.3739708 157.842789,10.3739708 C161.623055,10.3739708 164.664987,11.6791013 166.960532,14.292157 C169.156737,16.8269608 170.252155,20.0995685 170.252155,24.1099802 Z M164.313272,24.3028153 C164.313272,21.8294952 163.805836,19.7083088 162.777539,17.9392561 C161.577412,15.7985068 159.861795,14.7309268 157.638741,14.7309268 C155.337826,14.7309268 153.58999,15.8013015 152.389864,17.9392561 C151.361567,19.7111035 150.854131,21.8658265 150.854131,24.4146038 C150.854131,26.8879239 151.361567,29.0091103 152.389864,30.7753682 C153.627578,32.9161176 155.35662,33.9836976 157.587729,33.9836976 C159.773195,33.9836976 161.488812,32.8937599 162.726527,30.719474 C163.781672,28.9168848 164.313272,26.7733407 164.313272,24.3028153 Z" id="Shape"></path>
                            <path d="M188.858149,16.1618193 C188.291646,16.0528256 187.687556,15.9969313 187.053932,15.9969313 C185.040296,15.9969313 183.483084,16.7878348 182.387666,18.3724365 C181.434545,19.7697925 180.956643,21.5360504 180.956643,23.6684157 L180.956643,37.7397904 L175.235232,37.7397904 L175.288929,19.367354 C175.288929,16.2764025 175.216438,13.4621276 175.074141,10.9245291 L180.059903,10.9245291 L180.269322,16.0556203 L180.427728,16.0556203 C181.031818,14.292157 181.984939,12.8724433 183.289775,11.8076581 C184.565078,10.8490719 185.942405,10.3711761 187.427125,10.3711761 C187.95604,10.3711761 188.433943,10.4103021 188.858149,10.4801699 L188.858149,16.1618193 Z" id="Shape"></path>
                            <path d="M214.458171,23.0619632 C214.458171,24.1295432 214.39105,25.0294404 214.248753,25.7644497 L197.076468,25.7644497 C197.143589,28.4138366 197.973207,30.4400028 199.568006,31.8373588 C201.015139,33.086595 202.886478,33.7126105 205.184708,33.7126105 C207.727258,33.7126105 210.046967,33.290609 212.133093,32.4438113 L213.029832,36.579985 C210.591991,37.6866909 207.713834,38.2372492 204.392678,38.2372492 C200.397624,38.2372492 197.261722,37.0131653 194.979602,34.5677924 C192.702851,32.1224194 191.561791,28.8386328 191.561791,24.7192274 C191.561791,20.6752792 192.622306,17.3076512 194.74602,14.621933 C196.969074,11.7545585 199.973418,10.3208713 203.753684,10.3208713 C207.466828,10.3208713 210.277864,11.7545585 212.18679,14.621933 C213.69836,16.8996233 214.458171,19.716693 214.458171,23.0619632 Z M208.999876,21.5164875 C209.037464,19.7502295 208.66427,18.2243168 207.888349,16.9359545 C206.89764,15.2786903 205.375332,14.4514556 203.326793,14.4514556 C201.455454,14.4514556 199.933146,15.2591274 198.770607,16.8800603 C197.817486,18.1684225 197.250983,19.7138982 197.076468,21.5136927 L208.999876,21.5136927 L208.999876,21.5164875 Z" id="Shape"></path>
                        </g>
                        <g id="Group-Copy-3" transform="translate(118.500000, 19.000000)" fill="#FFFFFF">
                            <path d="M14.538405,9.74263876 C14.538405,12.9596137 13.5850901,15.3812278 11.681161,17.007481 C9.9176635,18.5080071 7.41149863,19.2596368 4.16536698,19.2596368 C2.5558042,19.2596368 1.17849376,19.1885736 0.0253338499,19.0464473 L0.0253338499,1.46924617 C1.52957289,1.22325828 3.14993811,1.09753114 4.89993255,1.09753114 C7.9921295,1.09753114 10.3227548,1.77809763 11.8945091,3.1392306 C13.6553059,4.67802149 14.538405,6.87824648 14.538405,9.74263876 Z M11.5542324,9.82190152 C11.5542324,7.73647088 11.0087094,6.13754962 9.9176635,5.02240453 C8.82661759,3.90999264 7.23325846,3.3524201 5.1348855,3.3524201 C4.24368463,3.3524201 3.48481359,3.41255047 2.85557176,3.53827761 L2.85557176,16.9008863 C3.20395028,16.9555502 3.84129394,16.980149 4.76760272,16.980149 C6.93349089,16.980149 8.60516768,16.3706457 9.78263307,15.1516391 C10.9600985,13.9326324 11.5542324,12.1560532 11.5542324,9.82190152 Z" id="Shape"></path>
                            <path d="M30.3612713,12.5523671 C30.3612713,14.5339361 29.8022453,16.1574562 28.6841933,17.4311268 C27.5121292,18.740329 25.9592792,19.3935635 24.0202421,19.3935635 C22.1514209,19.3935635 20.6633855,18.767661 19.5534353,17.5103896 C18.4461858,16.2558514 17.892561,14.6733293 17.892561,12.7655566 C17.892561,10.7703215 18.4623894,9.13313544 19.6074475,7.86219802 C20.7525056,6.59126061 22.2918525,5.9544253 24.2308896,5.9544253 C26.0997108,5.9544253 27.6012492,6.58032781 28.7382055,7.83486603 C29.818449,9.05387267 30.3612713,10.6281951 30.3612713,12.5523671 Z M27.4257097,12.6452958 C27.4257097,11.4563544 27.1718525,10.4368712 26.6668386,9.58684643 C26.0727047,8.5591637 25.2274142,8.04532234 24.1282665,8.04532234 C22.9913102,8.04532234 22.1271154,8.5591637 21.5329815,9.58684643 C21.0252671,10.4368712 20.7741105,11.4727536 20.7741105,12.6972266 C20.7741105,13.886168 21.0279677,14.9056512 21.5329815,15.755676 C22.1460197,16.7833587 22.999412,17.2972001 24.1012604,17.2972001 C25.1815038,17.2972001 26.029495,16.7751591 26.6398325,15.728344 C27.1637506,14.86192 27.4257097,13.8342373 27.4257097,12.6452958 Z" id="Shape"></path>
                            <path d="M51.5772532,6.21681238 L47.5938554,19.1011112 L45.0012711,19.1011112 L43.3511992,13.5062534 C42.9326048,12.1095889 42.5923281,10.7211239 42.3276685,9.34359174 L42.2763569,9.34359174 C42.0306015,10.7593887 41.6903248,12.1451204 41.2528262,13.5062534 L39.5001312,19.1011112 L36.8778401,19.1011112 L33.1320958,6.21681238 L36.0406514,6.21681238 L37.4800758,12.3419108 C37.8284544,13.7905061 38.1147189,15.1707715 38.3442706,16.4772405 L38.3955822,16.4772405 C38.6062297,15.4003601 38.9546082,14.0282944 39.446119,12.3692427 L41.2528262,6.21954558 L43.559146,6.21954558 L45.2902362,12.2380492 C45.7088305,13.7057769 46.0491072,15.1188407 46.3110663,16.4799737 L46.3893839,16.4799737 C46.5811272,15.1543723 46.8700923,13.7413085 47.2535787,12.2380492 L48.7983269,6.21954558 L51.5772532,6.21954558 L51.5772532,6.21681238 Z" id="Shape"></path>
                            <path d="M66.2496603,19.1011112 L63.4194224,19.1011112 L63.4194224,11.7214746 C63.4194224,9.44745329 62.56603,8.31044262 60.8538441,8.31044262 C60.0139548,8.31044262 59.336102,8.62202727 58.8094833,9.24792978 C58.2882658,9.8738323 58.0236062,10.611796 58.0236062,11.4563544 L58.0236062,19.098378 L55.1933683,19.098378 L55.1933683,9.89843108 C55.1933683,8.76688681 55.1582604,7.53968057 55.0907452,6.21134598 L57.5780058,6.21134598 L57.7103356,8.22571345 L57.7886532,8.22571345 C58.1181275,7.59981094 58.6096383,7.08323638 59.2550838,6.67052337 C60.0220566,6.18948039 60.8808502,5.9462257 61.820662,5.9462257 C63.0089298,5.9462257 63.9973526,6.33433993 64.7832298,7.11330157 C65.7608501,8.06718793 66.2496603,9.49118447 66.2496603,11.382558 L66.2496603,19.1011112 L66.2496603,19.1011112 Z" id="Shape"></path>
                            <polygon id="Shape" points="74.0544194 19.1011112 71.2268821 19.1011112 71.2268821 0.304903504 74.0544194 0.304903504"></polygon>
                            <path d="M90.7171751,12.5523671 C90.7171751,14.5339361 90.1581491,16.1574562 89.0400971,17.4311268 C87.8680329,18.740329 86.3124823,19.3935635 84.3761458,19.3935635 C82.504624,19.3935635 81.0165886,18.767661 79.9093391,17.5103896 C78.8020895,16.2558514 78.2484647,14.6733293 78.2484647,12.7655566 C78.2484647,10.7703215 78.8182932,9.13313544 79.9633512,7.86219802 C81.1084093,6.59126061 82.6477563,5.9544253 84.5840927,5.9544253 C86.4556145,5.9544253 87.9544524,6.58032781 89.0941092,7.83486603 C90.1743527,9.05387267 90.7171751,10.6281951 90.7171751,12.5523671 Z M87.7789128,12.6452958 C87.7789128,11.4563544 87.5250556,10.4368712 87.0200418,9.58684643 C86.4286085,8.5591637 85.5806173,8.04532234 84.4841702,8.04532234 C83.3445133,8.04532234 82.4803185,8.5591637 81.8888852,9.58684643 C81.3811708,10.4368712 81.1300142,11.4727536 81.1300142,12.6972266 C81.1300142,13.886168 81.3838714,14.9056512 81.8888852,15.755676 C82.5019234,16.7833587 83.3553158,17.2972001 84.4571641,17.2972001 C85.5374076,17.2972001 86.3826981,16.7751591 86.9930357,15.728344 C87.5196544,14.86192 87.7789128,13.8342373 87.7789128,12.6452958 Z" id="Shape"></path>
                            <path d="M104.414662,19.1011112 L101.87339,19.1011112 L101.662742,17.6169843 L101.584424,17.6169843 C100.714828,18.8004594 99.4752491,19.3935635 97.8656863,19.3935635 C96.6639154,19.3935635 95.6916963,19.0027161 94.9598313,18.2264876 C94.2954816,17.5213224 93.9633067,16.6439656 93.9633067,15.6026169 C93.9633067,14.0282944 94.6114528,12.8284201 95.9158468,11.9975277 C97.2175402,11.1666353 99.0485529,10.7593887 101.406184,10.7785211 L101.406184,10.5379996 C101.406184,8.84068317 100.525786,7.99339156 98.7622884,7.99339156 C97.5065053,7.99339156 96.3992558,8.31317581 95.4432403,8.94727792 L94.8680106,7.06683719 C96.0508772,6.32614033 97.5119065,5.9544253 99.2348949,5.9544253 C102.562045,5.9544253 104.231021,7.73100448 104.231021,11.2841628 L104.231021,16.0289959 C104.231021,17.3163325 104.293135,18.341282 104.414662,19.1011112 Z M101.4764,14.6733293 L101.4764,12.6862938 C98.3544965,12.6316298 96.7935446,13.4980538 96.7935446,15.2828326 C96.7935446,15.9551995 96.9717848,16.4581081 97.336367,16.7942915 C97.7009492,17.130475 98.1654538,17.2972001 98.7190786,17.2972001 C99.3402186,17.2972001 99.9208495,17.0976766 100.450169,16.7013627 C100.982189,16.3023157 101.308962,15.796674 101.43049,15.1762379 C101.460196,15.0368447 101.4764,14.8673864 101.4764,14.6733293 Z" id="Shape"></path>
                            <path d="M120.496787,19.1011112 L117.985221,19.1011112 L117.852891,17.0320798 L117.774574,17.0320798 C116.972493,18.6064023 115.605985,19.3935635 113.685852,19.3935635 C112.151906,19.3935635 110.874518,18.7840602 109.86179,17.5650536 C108.849062,16.3460469 108.344048,14.7635248 108.344048,12.8202205 C108.344048,10.7347899 108.892272,9.04567308 109.99412,7.75560327 C111.06086,6.55299583 112.367955,5.9516921 113.923506,5.9516921 C115.632991,5.9516921 116.829361,6.53386343 117.509914,7.7009393 L117.563926,7.7009393 L117.563926,0.304903504 L120.396865,0.304903504 L120.396865,15.6299488 C120.396865,16.8844871 120.429272,18.0406301 120.496787,19.1011112 Z M117.563926,13.6675121 L117.563926,11.5192179 C117.563926,11.1475029 117.53692,10.846851 117.485608,10.6172624 C117.326273,9.92849627 116.983295,9.34905814 116.462078,8.88168115 C115.935459,8.41430417 115.300816,8.17924908 114.568951,8.17924908 C113.513013,8.17924908 112.686627,8.60289488 112.07899,9.45291969 C111.476754,10.3029445 111.171585,11.3880244 111.171585,12.7136258 C111.171585,13.9872964 111.46055,15.0204455 112.041181,15.8158064 C112.654219,16.663098 113.480606,17.0867438 114.514939,17.0867438 C115.443948,17.0867438 116.186616,16.7341611 116.751043,16.0262627 C117.296566,15.3730282 117.563926,14.5858669 117.563926,13.6675121 Z" id="Shape"></path>
                            <path d="M144.702343,12.5523671 C144.702343,14.5339361 144.143317,16.1574562 143.025265,17.4311268 C141.853201,18.740329 140.303051,19.3935635 138.361314,19.3935635 C136.495193,19.3935635 135.007158,18.767661 133.894507,17.5103896 C132.787257,16.2558514 132.233633,14.6733293 132.233633,12.7655566 C132.233633,10.7703215 132.803461,9.13313544 133.948519,7.86219802 C135.093577,6.59126061 136.632924,5.9544253 138.574662,5.9544253 C140.440782,5.9544253 141.945021,6.58032781 143.079277,7.83486603 C144.159521,9.05387267 144.702343,10.6281951 144.702343,12.5523671 Z M141.769482,12.6452958 C141.769482,11.4563544 141.515625,10.4368712 141.010611,9.58684643 C140.413776,8.5591637 139.571186,8.04532234 138.469338,8.04532234 C137.335082,8.04532234 136.470888,8.5591637 135.874053,9.58684643 C135.366339,10.4368712 135.115182,11.4727536 135.115182,12.6972266 C135.115182,13.886168 135.369039,14.9056512 135.874053,15.755676 C136.487091,16.7833587 137.340484,17.2972001 138.442332,17.2972001 C139.522575,17.2972001 140.373267,16.7751591 140.983605,15.728344 C141.504822,14.86192 141.769482,13.8342373 141.769482,12.6452958 Z" id="Shape"></path>
                            <path d="M159.920273,19.1011112 L157.092736,19.1011112 L157.092736,11.7214746 C157.092736,9.44745329 156.239343,8.31044262 154.524457,8.31044262 C153.684567,8.31044262 153.006715,8.62202727 152.482797,9.24792978 C151.958878,9.8738323 151.696919,10.611796 151.696919,11.4563544 L151.696919,19.098378 L148.863981,19.098378 L148.863981,9.89843108 C148.863981,8.76688681 148.831574,7.53968057 148.764058,6.21134598 L151.248618,6.21134598 L151.380948,8.22571345 L151.459266,8.22571345 C151.791441,7.59981094 152.282951,7.08323638 152.925696,6.67052337 C153.69537,6.18948039 154.551463,5.9462257 155.493975,5.9462257 C156.679542,5.9462257 157.667965,6.33433993 158.453842,7.11330157 C159.434163,8.06718793 159.920273,9.49118447 159.920273,11.382558 L159.920273,19.1011112 L159.920273,19.1011112 Z" id="Shape"></path>
                            <path d="M178.967666,8.36237339 L175.851164,8.36237339 L175.851164,14.6213985 C175.851164,16.2121202 176.404788,17.007481 177.501235,17.007481 C178.00895,17.007481 178.430245,16.9637498 178.76242,16.8735543 L178.835336,19.0464473 C178.27631,19.2596368 177.541745,19.3662315 176.637041,19.3662315 C175.518989,19.3662315 174.649393,19.0218485 174.020151,18.3330824 C173.388208,17.6443163 173.074938,16.48544 173.074938,14.8591868 L173.074938,8.36237339 L171.214218,8.36237339 L171.214218,6.21681238 L173.074938,6.21681238 L173.074938,3.85532867 L175.848463,3.00803706 L175.848463,6.21407918 L178.964965,6.21407918 L178.964965,8.36237339 L178.967666,8.36237339 Z" id="Shape"></path>
                            <path d="M193.950643,19.1011112 L191.117705,19.1011112 L191.117705,11.7761386 C191.117705,9.46658568 190.264312,8.31044262 188.554827,8.31044262 C187.242331,8.31044262 186.345729,8.98007631 185.854218,10.3193437 C185.770499,10.6008632 185.721888,10.9452462 185.721888,11.3497596 L185.721888,19.098378 L182.894351,19.098378 L182.894351,0.304903504 L185.721888,0.304903504 L185.721888,8.06992113 L185.775901,8.06992113 C186.667101,6.65685738 187.944489,5.9516921 189.599962,5.9516921 C190.772027,5.9516921 191.741545,6.33980632 192.511219,7.11876796 C193.469935,8.08905352 193.950643,9.53218245 193.950643,11.4399552 L193.950643,19.1011112 L193.950643,19.1011112 Z" id="Shape"></path>
                            <path d="M209.406227,12.0494585 C209.406227,12.5632999 209.368418,12.9951453 209.300903,13.3477279 L200.81289,13.3477279 C200.850698,14.6213985 201.25579,15.5916841 202.041667,16.264051 C202.760029,16.8653547 203.686337,17.1660065 204.820593,17.1660065 C206.076376,17.1660065 207.221434,16.9637498 208.253067,16.5565032 L208.695967,18.5462719 C207.488794,19.0765125 206.068274,19.3416327 204.423604,19.3416327 C202.452159,19.3416327 200.899309,18.753995 199.775856,17.5787195 C198.647002,16.4034441 198.087976,14.8263884 198.087976,12.8475525 C198.087976,10.9042482 198.609193,9.28619457 199.65973,7.99612476 C200.756177,6.6185926 202.238811,5.92982651 204.110333,5.92982651 C205.941346,5.92982651 207.332159,6.6185926 208.271971,7.99612476 C209.030842,9.08940426 209.406227,10.4423376 209.406227,12.0494585 Z M206.705618,11.3087616 C206.727223,10.4587368 206.540881,9.72623956 206.157394,9.10853665 C205.665884,8.31317581 204.917815,7.9141288 203.905087,7.9141288 C202.981479,7.9141288 202.228009,8.30224302 201.652779,9.08120466 C201.182873,9.70164077 200.90471,10.4423376 200.81289,11.3087616 L206.705618,11.3087616 Z" id="Shape"></path>
                        </g>
                        <g id="Group-Copy" transform="translate(24.500000, 14.000000)" fill="#FFFFFF">
                            <path d="M46.4545496,38.5253953 C46.37684,29.3591611 53.5261278,24.8997582 53.8530443,24.6921457 C49.8041035,18.4267985 43.5283793,17.5707524 41.323033,17.5024963 C36.052175,16.9137868 30.9394159,20.8498924 28.2544135,20.8498924 C25.5158182,20.8498924 21.3811288,17.5593764 16.9248823,17.6560726 C11.190446,17.7499249 5.82580046,21.2736494 2.8835523,26.7455187 C-3.18851903,37.9025578 1.34007786,54.2982577 7.1575831,63.3166036 C10.0676755,67.7333463 13.4681427,72.6648543 17.9190299,72.4913699 C22.27345,72.3008214 23.8999934,69.5449787 29.1547736,69.5449787 C34.3613202,69.5449787 35.8887167,72.4913699 40.4280322,72.3804536 C45.1013298,72.3008214 48.043578,67.9438028 50.851844,63.487244 C54.2147961,58.4249117 55.5653363,53.4393676 55.6189291,53.183407 C55.5090638,53.1435909 46.5429778,49.5117941 46.4545496,38.5253953 Z" id="Shape"></path>
                            <path d="M38.2405087,11.6291443 C40.5825168,8.52064471 42.1849434,4.29160643 41.7401227,0 C38.3503741,0.159264387 34.1111787,2.48850605 31.6700238,5.52874944 C29.5102314,8.20780395 27.5808883,12.5989506 28.079302,16.7284487 C31.8870749,17.0299134 35.7966742,14.6892957 38.2405087,11.6291443 Z" id="Shape"></path>
                        </g>
                    </g>
                </g>
            </g>
        </g>
    </g>
</svg>