<?xml version="1.0" encoding="UTF-8"?>
<svg width="584px" height="90px" viewBox="0 0 584 90" version="1.1" xmlns="http://www.w3.org/2000/svg" xmlns:xlink="http://www.w3.org/1999/xlink">
    <!-- Generator: Sketch 53.2 (72643) - https://sketchapp.com -->
    <title>label</title>
    <desc>Created with Sketch.</desc>
    <g id="personalwebsite" stroke="none" stroke-width="1" fill="none" fill-rule="evenodd">
        <g id="t" transform="translate(-171.000000, -461.000000)" fill="#FF7000" fill-rule="nonzero">
            <g id="Group-11" transform="translate(171.000000, 343.000000)">
                <g id="Group-2" transform="translate(0.000000, 6.000000)">
                    <g id="Group">
                        <g id="label" transform="translate(0.000000, 111.500000)">
                            <path d="M18.6372959,38.1965588 L37.5120095,38.1965588 C40.8358751,38.1965588 43.5661523,37.4004717 45.702923,35.8082738 C47.8396937,34.2160758 48.908063,31.628793 48.908063,28.0463476 C48.908063,26.0561001 48.5519399,24.4241217 47.839683,23.1503634 C47.1274261,21.876605 46.1777645,20.8814962 44.9906696,20.1650071 C43.8035748,19.448518 42.4384362,18.9509636 40.8952129,18.672329 C39.3519896,18.3936944 37.7494356,18.2543791 36.0875028,18.2543791 L18.6372959,18.2543791 L18.6372959,38.1965588 Z M0,3.68584071 L39.8861873,3.68584071 C43.9223098,3.68584071 47.6022486,4.04407987 50.9261142,4.76056895 C54.2499797,5.47705803 57.0989646,6.65128641 59.4731543,8.28328931 C61.847344,9.91529221 63.6873134,12.0846294 64.9931177,14.7913659 C66.2989221,17.4981024 66.9518144,20.841668 66.9518144,24.8221628 C66.9518144,29.1210973 65.9823682,32.703489 64.0434466,35.5694453 C62.104525,38.4354016 59.2357555,40.7838584 55.437052,42.614886 C60.6602693,44.1274741 64.557839,46.7744634 67.1298778,50.5559336 C69.7019166,54.3374037 70.9879167,58.895002 70.9879167,64.2288651 C70.9879167,68.5277996 70.1569628,72.2495065 68.49503,75.3940975 C66.8330972,78.5386884 64.5974355,81.1060691 61.7879777,83.0963165 C58.9785199,85.086564 55.7734119,86.559325 52.1725575,87.5146438 C48.5717032,88.4699625 44.8719797,88.9476148 41.0732762,88.9476148 L0,88.9476148 L0,3.68584071 Z M18.6372959,74.3790763 L38.5803895,74.3790763 C40.4006016,74.3790763 42.1416479,74.1999568 43.8035807,73.8417122 C45.4655135,73.4834677 46.9295752,72.8864024 48.1958097,72.0504985 C49.4620442,71.2145945 50.4710597,70.0801705 51.2228864,68.6471924 C51.9747131,67.2142142 52.3506209,65.383214 52.3506209,63.1541369 C52.3506209,58.7755925 51.1239746,55.6509509 48.6706453,53.7801183 C46.2173159,51.9092857 42.9726387,50.9738835 38.9365162,50.9738835 L18.6372959,50.9738835 L18.6372959,74.3790763 Z M81.8115008,46.1973135 C82.0489197,42.2168186 83.0381506,38.9130574 84.779223,36.2859308 C86.5202955,33.6588042 88.7361726,31.5491735 91.4269209,29.9569756 C94.1176692,28.3647776 97.1447157,27.2303536 100.508151,26.5536695 C103.871586,25.8769853 107.254756,25.5386483 110.657761,25.5386483 C113.744208,25.5386483 116.870177,25.7575723 120.035764,26.1954267 C123.20135,26.6332812 126.089904,27.4890747 128.701513,28.7628331 C131.313121,30.0365914 133.44986,31.8078851 135.111793,34.0767672 C136.773726,36.3456493 137.604679,39.3508778 137.604679,43.092543 L137.604679,75.2149761 C137.604679,78.0013225 137.762956,80.6682141 138.079515,83.2157308 C138.396074,85.7632475 138.950043,87.6738564 139.74144,88.9476148 L122.647359,88.9476148 C122.330801,87.992296 122.073601,87.0170894 121.875751,86.0219656 C121.677902,85.0268419 121.53941,84.011831 121.46027,82.9769023 C118.769522,85.7632487 115.603983,87.7136619 111.963559,88.8282005 C108.323135,89.9427391 104.603627,90.5 100.804923,90.5 C97.876756,90.5 95.1464788,90.1417608 92.6140098,89.4252718 C90.0815408,88.7087827 87.8656637,87.5942608 85.966312,86.0816728 C84.0669602,84.5690847 82.5831139,82.6584758 81.5147285,80.3497888 C80.4463432,78.0411018 79.9121585,75.2946015 79.9121585,72.1102056 C79.9121585,68.6073701 80.5254817,65.7215546 81.7521463,63.4526725 C82.978811,61.1837904 84.5615804,59.3726924 86.500502,58.0193242 C88.4394235,56.6659559 90.6553007,55.6509449 93.1481999,54.9742608 C95.641099,54.2975767 98.1537454,53.7602179 100.686214,53.3621684 C103.218683,52.964119 105.711545,52.6456841 108.164875,52.4068545 C110.618204,52.1680248 112.794512,51.8097856 114.693864,51.3321262 C116.593215,50.8544668 118.096846,50.1578907 119.204801,49.2423768 C120.312757,48.326863 120.827157,46.9934172 120.748017,45.2419995 C120.748017,43.4109718 120.451248,41.958113 119.8577,40.8833794 C119.264153,39.8086458 118.472768,38.9727544 117.483522,38.3756801 C116.494277,37.7786059 115.346769,37.3805624 114.040965,37.1815377 C112.73516,36.9825129 111.330452,36.883002 109.826799,36.883002 C106.502933,36.883002 103.891364,37.5994804 101.992012,39.0324585 C100.09266,40.4654367 98.9847219,42.8536978 98.6681633,46.1973135 L81.8115008,46.1973135 Z M120.748017,58.7358097 C120.03576,59.3726888 119.145452,59.8702432 118.077067,60.2284878 C117.008682,60.5867323 115.861174,60.885265 114.634509,61.1240947 C113.407844,61.3629243 112.121844,61.5619461 110.77647,61.7211659 C109.431096,61.8803857 108.085742,62.0794075 106.740368,62.3182371 C105.474133,62.5570668 104.227702,62.8755017 103.001038,63.2735511 C101.774373,63.6716006 100.706004,64.2089594 99.7958977,64.8856435 C98.8857917,65.5623276 98.1537609,66.4181212 97.5997833,67.4530499 C97.0458057,68.4879785 96.768821,69.8015221 96.768821,71.3937201 C96.768821,72.9063082 97.0458057,74.1800474 97.5997833,75.2149761 C98.1537609,76.2499047 98.9055763,77.065894 99.8552522,77.6629682 C100.804928,78.2600424 101.912867,78.6779881 103.179101,78.9168178 C104.445336,79.1556475 105.75112,79.2750606 107.096495,79.2750606 C110.42036,79.2750606 112.99236,78.7177996 114.812572,77.6032611 C116.632785,76.4887225 117.978139,75.1552767 118.848675,73.6028837 C119.719211,72.0504907 120.253396,70.4782188 120.451245,68.8860209 C120.649094,67.2938229 120.748017,66.0200837 120.748017,65.0647649 L120.748017,58.7358097 Z M151.395986,27.2104478 L167.421686,27.2104478 L167.421686,38.6742158 L167.659104,38.6742158 C168.4505,36.7635782 169.51887,34.9922846 170.864244,33.3602817 C172.209618,31.7282788 173.752818,30.3351265 175.493891,29.1807829 C177.234963,28.0264394 179.094717,27.1308415 181.073209,26.4939623 C183.0517,25.8570832 185.1093,25.5386483 187.246071,25.5386483 C188.354026,25.5386483 189.580672,25.7376701 190.926046,26.1357196 L190.926046,41.8984005 C190.13465,41.7391807 189.184988,41.5998655 188.077033,41.4804506 C186.969078,41.3610358 185.900709,41.3013293 184.871893,41.3013293 C181.785446,41.3013293 179.173877,41.8187858 177.037106,42.8537145 C174.900335,43.8886432 173.179074,45.3016977 171.873269,47.0929204 C170.567465,48.8841431 169.637588,50.9738715 169.083611,53.3621684 C168.529633,55.7504654 168.252648,58.3377482 168.252648,61.1240947 L168.252648,88.9476148 L151.395986,88.9476148 L151.395986,27.2104478 Z M201.987048,38.5548015 L201.987048,27.2104478 L201.987048,22.4338779 C201.987048,16.9407949 203.688525,12.4429032 207.091531,8.94006768 C210.494536,5.43723218 215.638536,3.68584071 222.523686,3.68584071 C224.02734,3.68584071 225.530971,3.74554724 227.034624,3.86496208 C228.538278,3.98437693 230.002339,4.08388781 231.426853,4.16349771 L231.426853,16.8214081 C229.448362,16.5825784 227.390762,16.4631654 225.253991,16.4631654 C222.958941,16.4631654 221.316818,17.0005241 220.327572,18.0752578 C219.338326,19.1499914 218.843711,20.9610894 218.843711,23.5086061 L218.843711,27.2104478 L230.477182,27.2104478 L230.477182,38.5548015 L218.843711,38.5548015 L218.843711,88.9476148 L201.987048,88.9476148 L201.987048,38.5548015 Z M238.570462,27.2104478 L254.596162,27.2104478 L254.596162,38.6742158 L254.83358,38.6742158 C255.624976,36.7635782 256.693346,34.9922846 258.03872,33.3602817 C259.384094,31.7282788 260.927294,30.3351265 262.668366,29.1807829 C264.409439,28.0264394 266.269193,27.1308415 268.247684,26.4939623 C270.226176,25.8570832 272.283776,25.5386483 274.420547,25.5386483 C275.528502,25.5386483 276.755148,25.7376701 278.100522,26.1357196 L278.100522,41.8984005 C277.309126,41.7391807 276.359464,41.5998655 275.251509,41.4804506 C274.143554,41.3610358 273.075184,41.3013293 272.046369,41.3013293 C268.959922,41.3013293 266.348353,41.8187858 264.211582,42.8537145 C262.074811,43.8886432 260.35355,45.3016977 259.047745,47.0929204 C257.741941,48.8841431 256.812064,50.9738715 256.258086,53.3621684 C255.704109,55.7504654 255.427124,58.3377482 255.427124,61.1240947 L255.427124,88.9476148 L238.570462,88.9476148 L238.570462,27.2104478 Z M294.618637,17.2256637 L294.319216,17.2256637 C289.700551,17.2256637 285.956384,13.4814964 285.956384,8.86283186 L285.956384,8.86283186 C285.956384,4.24416736 289.700551,0.5 294.319216,0.5 L294.618637,0.5 C299.237301,0.5 302.981469,4.24416736 302.981469,8.86283186 L302.981469,8.86283186 C302.981469,13.4814964 299.237301,17.2256637 294.618637,17.2256637 Z M285.956384,27.2104478 L302.813047,27.2104478 L302.813047,88.9476148 L285.956384,88.9476148 L285.956384,27.2104478 Z M358.152465,51.4515405 C357.361068,47.152606 355.95636,43.8886491 353.938299,41.659572 C351.920238,39.4304949 348.853622,38.315973 344.73836,38.315973 C342.047612,38.315973 339.81195,38.7737231 338.031308,39.6892369 C336.250665,40.6047507 334.826173,41.7391747 333.757788,43.092543 C332.689402,44.4459113 331.937587,45.8788679 331.502319,47.391456 C331.067051,48.904044 330.809851,50.257392 330.730711,51.4515405 L358.152465,51.4515405 Z M330.730711,62.1988229 C330.96813,67.6919058 332.353053,71.672341 334.885522,74.1402478 C337.417991,76.6081547 341.058361,77.8420896 345.80674,77.8420896 C349.209745,77.8420896 352.137869,76.986296 354.591198,75.2746832 C357.044527,73.5630704 358.548158,71.7519724 359.102136,69.8413349 L373.940747,69.8413349 C371.566557,77.2450553 367.926188,82.5390341 363.019529,85.72343 C358.112871,88.9078259 352.177485,90.5 345.213196,90.5 C340.385677,90.5 336.033061,89.7238151 332.155218,88.1714221 C328.277374,86.6190291 324.993128,84.4098876 322.30238,81.5439313 C319.611631,78.677975 317.534246,75.2548007 316.070163,71.2743059 C314.606079,67.293811 313.874048,62.9153323 313.874048,58.1387384 C313.874048,53.5213644 314.625864,49.2224944 316.129517,45.2419995 C317.633171,41.2615046 319.769909,37.8184282 322.539797,34.9126669 C325.309685,32.0069057 328.613716,29.7181554 332.45199,28.0463476 C336.290263,26.3745397 340.543956,25.5386483 345.213196,25.5386483 C350.436413,25.5386483 354.986875,26.5536593 358.864718,28.5837117 C362.742561,30.6137641 365.927885,33.3403622 368.420784,36.7635878 C370.913683,40.1868134 372.714083,44.0876399 373.822038,48.4661842 C374.929993,52.8447286 375.325686,57.422229 375.009127,62.1988229 L330.730711,62.1988229 Z M385.714002,27.2104478 L401.739703,27.2104478 L401.739703,35.8082738 L402.095829,35.8082738 C404.2326,32.2258284 407.002446,29.6186434 410.405452,27.9866405 C413.808457,26.3546376 417.290549,25.5386483 420.851834,25.5386483 C425.362794,25.5386483 429.062518,26.1556158 431.951115,27.3895692 C434.839713,28.6235226 437.114944,30.3351097 438.776877,32.5243819 C440.438809,34.7136541 441.606102,37.3805457 442.278789,40.5251366 C442.951476,43.6697276 443.287814,47.1526084 443.287814,50.9738835 L443.287814,88.9476148 L426.431152,88.9476148 L426.431152,54.0786539 C426.431152,48.9836205 425.639767,45.1823049 424.056974,42.6745931 C422.474181,40.1668814 419.664765,38.9130443 415.628643,38.9130443 C411.038543,38.9130443 407.714727,40.2862944 405.657096,43.0328359 C403.599465,45.7793773 402.570665,50.2971713 402.570665,56.5863532 L402.570665,88.9476148 L385.714002,88.9476148 L385.714002,27.2104478 Z M500.407866,57.8999099 C500.407866,55.3523932 500.17045,52.9044256 499.695613,50.5559336 C499.220775,48.2074416 498.409605,46.1376153 497.26208,44.3463926 C496.114555,42.5551699 494.630709,41.1023111 492.810497,39.9877725 C490.990285,38.8732339 488.695269,38.315973 485.925381,38.315973 C483.155493,38.315973 480.820908,38.8732339 478.921557,39.9877725 C477.022205,41.1023111 475.498789,42.5750721 474.351264,44.4060997 C473.203739,46.2371274 472.372785,48.3268559 471.858378,50.6753478 C471.34397,53.0238398 471.08677,55.4718074 471.08677,58.0193242 C471.08677,60.4076211 471.363754,62.7958822 471.917732,65.1841791 C472.47171,67.5724761 473.362017,69.7020089 474.588682,71.5728415 C475.815347,73.4436741 477.358547,74.9562394 479.218329,76.110583 C481.078111,77.2649265 483.313773,77.8420896 485.925381,77.8420896 C488.695269,77.8420896 491.010069,77.2848286 492.869851,76.1702901 C494.729633,75.0557515 496.21348,73.5630883 497.321435,71.6922557 C498.42939,69.8214231 499.220775,67.6918903 499.695613,65.3035934 C500.17045,62.9152965 500.407866,60.4474266 500.407866,57.8999099 Z M500.645284,81.0662743 L500.407866,81.0662743 C498.429374,84.40989 495.83759,86.8180533 492.632434,88.2908364 C489.427277,89.7636195 485.806692,90.5 481.77057,90.5 C477.18047,90.5 473.144408,89.6044021 469.662263,87.8131794 C466.180118,86.0219567 463.311349,83.5938912 461.055869,80.5289102 C458.800388,77.4639291 457.098911,73.941244 455.951386,69.9607491 C454.803861,65.9802542 454.230107,61.8406016 454.230107,57.5416672 C454.230107,53.4019525 454.803861,49.4016151 455.951386,45.5405351 C457.098911,41.6794551 458.800388,38.276183 461.055869,35.3306168 C463.311349,32.3850506 466.140549,30.0166917 469.543554,28.225469 C472.946559,26.4342463 476.903483,25.5386483 481.414443,25.5386483 C485.054868,25.5386483 488.517176,26.3148332 491.801471,27.8672262 C495.085767,29.4196192 497.677552,31.7083694 499.576904,34.7335455 L499.814321,34.7335455 L499.814321,3.68584071 L516.670984,3.68584071 L516.670984,88.9476148 L500.645284,88.9476148 L500.645284,81.0662743 Z M543.164142,68.8860209 C543.164142,70.7170485 543.540049,72.2893204 544.291876,73.6028837 C545.043703,74.916447 546.013149,75.9911645 547.200244,76.8270684 C548.387339,77.6629724 549.752477,78.2799398 551.295701,78.6779893 C552.838924,79.0760388 554.441478,79.2750606 556.103411,79.2750606 C557.290505,79.2750606 558.536936,79.1357453 559.842741,78.8571107 C561.148545,78.578476 562.335622,78.1406282 563.404007,77.5435539 C564.472393,76.9464797 565.362701,76.1503927 566.074957,75.155269 C566.787214,74.1601452 567.143337,72.9063082 567.143337,71.3937201 C567.143337,68.8462034 565.461645,66.9355945 562.09821,65.6618361 C558.734774,64.3880778 554.04582,63.1143385 548.031206,61.8405802 C545.577877,61.2833109 543.183938,60.6265391 540.849318,59.870245 C538.514698,59.113951 536.437313,58.1188422 534.617101,56.8848888 C532.796889,55.6509354 531.332828,54.0985657 530.224872,52.2277331 C529.116917,50.3569005 528.562948,48.0681503 528.562948,45.3614137 C528.562948,41.3809189 529.334548,38.116962 530.877771,35.5694453 C532.420995,33.0219286 534.45881,31.0118088 536.991279,29.5390257 C539.523748,28.0662426 542.372733,27.0313294 545.538319,26.4342552 C548.703906,25.837181 551.948583,25.5386483 555.272448,25.5386483 C558.596314,25.5386483 561.821207,25.8570832 564.947223,26.4939623 C568.073239,27.1308415 570.86287,28.205559 573.3162,29.7181471 C575.769529,31.2307351 577.807345,33.2408549 579.429708,35.7485667 C581.052071,38.2562784 582.021517,41.4207244 582.338076,45.2419995 L566.312375,45.2419995 C566.074956,41.9779937 564.84831,39.7688522 562.6324,38.6145086 C560.416489,37.4601651 557.80492,36.883002 554.797613,36.883002 C553.847937,36.883002 552.819137,36.9427086 551.711182,37.0621234 C550.603226,37.1815383 549.594211,37.4402665 548.684105,37.838316 C547.773999,38.2363655 547.002399,38.8135286 546.369282,39.5698226 C545.736164,40.3261167 545.41961,41.3411276 545.41961,42.614886 C545.41961,44.1274741 545.97358,45.361409 547.081535,46.3167277 C548.18949,47.2720465 549.633767,48.0482314 551.414409,48.6453056 C553.195052,49.2423798 555.232867,49.7797386 557.527917,50.257398 C559.822967,50.7350573 562.157552,51.2525139 564.531742,51.8097832 C566.985071,52.3670525 569.37901,53.0437265 571.71363,53.8398254 C574.04825,54.6359244 576.125634,55.6907397 577.945847,57.0043031 C579.766059,58.3178664 581.23012,59.9498448 582.338076,61.9002873 C583.446031,63.8507298 584,66.258893 584,69.1248494 C584,73.1849541 583.188831,76.5882262 581.566468,79.3347677 C579.944105,82.0813092 577.827151,84.2904507 575.215542,85.9622585 C572.603933,87.6340664 569.616456,88.8082948 566.253021,89.4849789 C562.889585,90.161663 559.466847,90.5 555.984702,90.5 C552.423417,90.5 548.941325,90.1417608 545.538319,89.4252718 C542.135314,88.7087827 539.108268,87.5146521 536.457089,85.8428443 C533.805911,84.1710364 531.629603,81.9618949 529.9281,79.2153534 C528.226598,76.468812 527.296721,73.0257355 527.138441,68.8860209 L543.164142,68.8860209 Z" id="Barfriends"></path>
                        </g>
                    </g>
                </g>
            </g>
        </g>
    </g>
</svg>