<svg height="143" viewBox="0 0 146 143" width="146" xmlns="http://www.w3.org/2000/svg"><path d="m136.20754 36.5032007c-6.527862-11.2295943-15.382491-20.1200797-26.566216-26.6734618-11.1853901-6.55371636-23.3965013-9.8297389-36.6419898-9.8297389-13.2438239 0-25.4589302 3.27702531-36.6419897 9.8297389-11.1847241 6.5530479-20.0390199 15.4438675-26.56688238 26.6734618-6.52686377 11.22926-9.79046212 23.4916988-9.79046212 36.7869823 0 15.9706516 4.64088146 30.331871 13.9249748 43.087334 9.2830946 12.756466 21.2754785 21.583443 35.976153 26.481934 1.7112002.318879 2.9779544.094594 3.8015944-.66717.8239728-.762768 1.2354599-1.718065 1.2354599-2.861882 0-.190859-.016313-1.907922-.0479403-5.153193-.032626-3.245271-.0479402-6.076402-.0479402-8.492055l-2.1862746.379713c-1.3939291.256373-3.1524037.365005-5.2754238.334254-2.1220214-.029749-4.324942-.25303-6.6057654-.668174-2.2818222-.411466-4.4041766-1.365761-6.3687276-2.860879-1.9635523-1.495118-3.3574813-3.452174-4.1814542-5.868162l-.9504818-2.196048c-.6335436-1.462026-1.6309669-3.086166-2.9936016-4.866402-1.3626347-1.781908-2.7405836-2.989902-4.1345127-3.625987l-.6655037-.478317c-.4434472-.317876-.8549343-.701265-1.2354599-1.146157-.3801927-.444892-.6648379-.890118-.8549343-1.336013-.1904292-.446229-.032626-.812237.4750745-1.099361.5077004-.287124 1.4252233-.426508 2.7565637-.426508l1.9002978.285119c1.2674201.255036 2.8351325 1.0168 4.7051347 2.289973 1.8690035 1.272171 3.4054216 2.926059 4.6095872 4.960997 1.4581822 2.609186 3.2149922 4.597328 5.2754237 5.965429 2.058767 1.368102 4.1345127 2.050982 6.2252398 2.050982s3.8964761-.159105 5.4179128-.475643c1.5197722-.31821 2.9456614-.796527 4.2770018-1.432278.5702891-4.264411 2.1230201-7.540434 4.6568615-9.830407-3.611498-.38105-6.8584504-.954964-9.7425219-1.718065-2.8824068-.764105-5.8610271-2.004187-8.9338632-3.723589-3.0745008-1.7170623-5.6249881-3.849268-7.6521278-6.3929402-2.0274726-2.5450093-3.6913983-5.8862113-4.9894469-10.0205979-1.2987144-4.1360579-1.948238-8.9071981-1.948238-14.3147578 0-7.6995388 2.5035458-14.2515839 7.5096386-19.6598121-2.3450767-5.7886092-2.123686-12.2778145.6648379-19.4669475 1.8377092-.5732455 4.5629786-.1430607 8.1744766 1.2878803 3.6121638 1.4316094 6.256867 2.657987 7.9367729 3.6747874 1.6799058 1.0164661 3.0258946 1.8778385 4.0399639 2.5764291 5.8943189-1.653554 11.9770696-2.4804982 18.2499167-2.4804982s12.3569295.8269442 18.2515814 2.4804982l3.6118309-2.289305c2.4699211-1.5275403 5.3866184-2.9273957 8.7431014-4.1999003 3.35848-1.2718361 5.926612-1.6221342 7.701732-1.0488888 2.850447 7.1894673 3.104464 13.6783384.758721 19.4669476 5.00576 5.4082282 7.510305 11.9619445 7.510305 19.659812 0 5.4075597-.651854 10.1937414-1.948571 14.3615534-1.298382 4.1684805-2.976623 7.50634-5.03539 10.0205979-2.061097 2.5139236-4.627898 4.6294166-7.700734 6.3461449-3.073502 1.718065-6.0531208 2.958147-8.9355277 3.722251-2.8837385.764105-6.130691 1.338353-9.742189 1.720071 3.293894 2.861882 4.9411738 7.379323 4.9411738 13.550319v20.134453c0 1.143816.3961728 2.09878 1.1891843 2.861882.7920127.761764 2.0427868.986049 3.753987.666836 14.7026716-4.897822 26.6950556-13.725134 35.9778176-26.4816 9.281763-12.755463 13.924309-27.1166824 13.924309-43.0873341-.003329-13.2936121-3.268592-25.5550482-9.79246-36.7843082z" fill="#ff7000"/></svg>