<svg height="143" viewBox="0 0 152 143" width="152" xmlns="http://www.w3.org/2000/svg"><g fill="none" fill-rule="evenodd"><rect height="129" rx="23" stroke="#ff7000" stroke-width="14" width="138" x="7" y="7"/><path d="m26.2843494 44.0344226-1.2843494-.9482698v-5.3107401c0-2.6364773 2.1117188-4.7754127 4.7146484-4.7754127h2.7294922l42.5558594 31.4171472 42.555859-31.4171472h2.726954c2.605468 0 4.717187 2.1387376 4.717187 4.7754127v5.3107401l-.536547.3961469 1.536547.1139055v62.6049288c0 2.649426-2.17283 4.798866-4.853698 4.798866h-7.146302v-58.7507674l.651385-1.5224182-1.313885.9700767-38.3375 28.3031089-38.3375-28.3031089-.1752788-.129413.5127788 1.0337371v58.3987848h-7.1489148c-2.6782556 0-4.8510852-2.136372-4.8510852-4.770131v-62.229869z" fill="#ff7000" fill-rule="nonzero"/></g></svg>