<svg height="143" viewBox="0 0 143 143" width="143" xmlns="http://www.w3.org/2000/svg"><path d="m203.685452 1331h60.905286c23.762168 0 42.409262 14.47044 42.409262 45.22164v50.91732c0 29.96919-19.629398 46.86104-42.409262 46.86104-17.078923 0-46.550022 0-60.905286 0-32.034169 0-39.685452-25.46473-39.685452-46.86104 0-19.56858 0-40.95449 0-50.91732 0-24.10859 12.82007-45.22164 39.685452-45.22164zm5.784463 13c-21.980767 0-32.469915 17.27431-32.469915 36.99953v41.65962c0 17.50607 6.260141 38.34085 32.469915 38.34085h49.831598c18.638071 0 34.698487-13.82061 34.698487-38.34085 0-10.31271 0-23.81259 0-41.65962 0-25.16008-15.256714-36.99953-34.698487-36.99953-12.892677 0-36.995711 0-49.831598 0zm25.530085 96c-20.434536 0-37-16.56546-37-37s16.565464-37 37-37 37 16.56546 37 37-16.565464 37-37 37zm.5-12c13.530976 0 24.5-10.96902 24.5-24.5s-10.969024-24.5-24.5-24.5-24.5 10.96902-24.5 24.5 10.969024 24.5 24.5 24.5zm37.5-54c-4.970563 0-9-4.02944-9-9s4.029437-9 9-9 9 4.02944 9 9-4.029437 9-9 9z" fill="#fff" transform="translate(-164 -1331)"/></svg>