<?xml version="1.0" encoding="UTF-8"?>
<svg width="505px" height="160px" viewBox="0 0 505 160" version="1.1" xmlns="http://www.w3.org/2000/svg" xmlns:xlink="http://www.w3.org/1999/xlink">
    <!-- Generator: Sketch 52.5 (67469) - http://www.bohemiancoding.com/sketch -->
    <title>Apple Download</title>
    <desc>Created with Sketch.</desc>
    <g id="Instagram-Ads" stroke="none" stroke-width="1" fill="none" fill-rule="evenodd">
        <g id="NightclubApp" transform="translate(-1533.000000, 0.000000)">
            <g id="Apple-Download" transform="translate(1533.000000, 0.000000)">
                <g id="google-download-selected-copy">
                    <path d="M490.457857,160 L14.5611077,160 C6.52386174,160 0,152.822446 0,143.961474 L0,16.059464 C0,7.20268007 6.52386174,0 14.5611077,0 L490.454064,0 C498.498896,0 504.996207,7.20268007 504.996207,16.059464 L505,143.961474 C505,152.822446 498.498896,160 490.457857,160 Z" id="Shape-Copy-2" fill="#000000" fill-rule="nonzero"></path>
                    <g id="Group-Copy-2" transform="translate(161.104294, 72.156863)" fill="#FFFFFF" fill-rule="nonzero">
                        <path d="M42.692465,53.0745447 L34.1624022,53.0745447 L29.4898358,37.7110675 L13.248536,37.7110675 L8.79757852,53.0745447 L0.492880591,53.0745447 L16.5839371,0.770335512 L26.5225308,0.770335512 L42.692465,53.0745447 Z M28.0813049,31.2654031 L23.8557124,17.6076688 C23.4087386,16.2124183 22.5711322,12.9267015 21.3353812,7.7544488 L21.1851379,7.7544488 C20.6930911,9.97898911 19.9005577,13.2647059 18.8112939,17.6076688 L14.660823,31.2654031 L28.0813049,31.2654031 Z" id="Shape"></path>
                        <path d="M84.0732235,33.7532723 C84.0732235,40.1674946 82.4167912,45.2375599 79.1039267,48.9595381 C76.1366217,52.2727669 72.4519049,53.9274161 68.0535326,53.9274161 C63.3058446,53.9274161 59.8953219,52.1430675 57.8182084,48.5743704 L57.6679651,48.5743704 L57.6679651,68.4419521 L49.6599977,68.4419521 L49.6599977,27.7753115 C49.6599977,23.742841 49.5585834,19.6042527 49.3632672,15.3595468 L56.4059214,15.3595468 L56.8528952,21.3375076 L57.0031385,21.3375076 C59.673713,16.8334031 63.7265258,14.585281 69.1653329,14.585281 C73.4172181,14.585281 76.9667158,16.3421176 79.806314,19.8597211 C82.6534244,23.3812549 84.0732235,28.0111285 84.0732235,33.7532723 Z M75.9150128,34.0598344 C75.9150128,30.3889499 75.1262355,27.3626318 73.5411688,24.9808802 C71.8096149,22.4969412 69.4845999,21.2549717 66.5698801,21.2549717 C64.5941808,21.2549717 62.7987735,21.9467015 61.1949263,23.3105098 C59.5873231,24.6861089 58.5356201,26.4822484 58.0435733,28.7067887 C57.7956719,29.7443834 57.6717212,30.5933246 57.6717212,31.2614728 L57.6717212,37.5499259 C57.6717212,40.2932636 58.4755228,42.6082004 60.083126,44.4986667 C61.6907292,46.3891329 63.779111,47.3324009 66.3482712,47.3324009 C69.3644053,47.3324009 71.7119567,46.1140131 73.3909255,43.685098 C75.0736504,41.2522527 75.9150128,38.0451416 75.9150128,34.0598344 Z" id="Shape"></path>
                        <path d="M125.529104,33.7532723 C125.529104,40.1674946 123.872671,45.2375599 120.556051,48.9595381 C117.592502,52.2727669 113.907785,53.9274161 109.509413,53.9274161 C104.761725,53.9274161 101.351202,52.1430675 99.2778446,48.5743704 L99.1276013,48.5743704 L99.1276013,68.4419521 L91.1196339,68.4419521 L91.1196339,27.7753115 C91.1196339,23.742841 91.0182197,19.6042527 90.8229034,15.3595468 L97.8655577,15.3595468 L98.3125314,21.3375076 L98.4627747,21.3375076 C101.129593,16.8334031 105.182406,14.585281 110.624969,14.585281 C114.873098,14.585281 118.422596,16.3421176 121.269706,19.8597211 C124.105548,23.3812549 125.529104,28.0111285 125.529104,33.7532723 Z M117.370893,34.0598344 C117.370893,30.3889499 116.57836,27.3626318 114.993293,24.9808802 C113.261739,22.4969412 110.944236,21.2549717 108.02576,21.2549717 C106.046305,21.2549717 104.254654,21.9467015 102.64705,23.3105098 C101.039447,24.6861089 99.9915002,26.4822484 99.4994534,28.7067887 C99.2553081,29.7443834 99.1276013,30.5933246 99.1276013,31.2614728 L99.1276013,37.5499259 C99.1276013,40.2932636 99.9314029,42.6082004 101.531494,44.4986667 C103.139097,46.3852026 105.227479,47.3324009 107.804151,47.3324009 C110.820285,47.3324009 113.167837,46.1140131 114.846806,43.685098 C116.529531,41.2522527 117.370893,38.0451416 117.370893,34.0598344 Z" id="Shape"></path>
                        <path d="M171.879159,38.4067277 C171.879159,42.8558083 170.403019,46.4755991 167.43947,49.2700305 C164.182946,52.3238606 159.649355,53.8488105 153.823671,53.8488105 C148.444962,53.8488105 144.132979,52.7640523 140.868944,50.5906057 L142.724448,43.6064924 C146.240141,45.8310327 150.097638,46.9472331 154.300694,46.9472331 C157.316828,46.9472331 159.664379,46.2319216 161.35086,44.809159 C163.029829,43.3863965 163.867436,41.4762789 163.867436,39.0945272 C163.867436,36.9721743 163.176316,35.1838954 161.790322,33.7336209 C160.41184,32.2833464 158.109361,30.9352593 154.894155,29.6893595 C146.142483,26.2739434 141.770403,21.2706928 141.770403,14.6913987 C141.770403,10.3916688 143.302885,6.86620479 146.371604,4.1228671 C149.429055,1.37559913 153.508161,0.00393028322 158.60892,0.00393028322 C163.157536,0.00393028322 166.936155,0.833220044 169.952289,2.48786928 L167.950297,9.31870153 C165.133235,7.71514597 161.948077,6.91336819 158.383555,6.91336819 C155.566494,6.91336819 153.365429,7.64047059 151.787875,9.08681481 C150.454466,10.379878 149.785883,11.9559216 149.785883,13.8228061 C149.785883,15.8901351 150.548368,17.5998083 152.080849,18.9439651 C153.414259,20.1859346 155.836932,21.5300915 159.352625,22.980366 C163.653339,24.7922266 166.812204,26.9106492 168.844245,29.3395643 C170.868773,31.7606187 171.879159,34.7908671 171.879159,38.4067277 Z" id="Shape"></path>
                        <path d="M198.355783,21.648 L189.52899,21.648 L189.52899,39.9591895 C189.52899,44.6165752 191.084008,46.9433028 194.201556,46.9433028 C195.632623,46.9433028 196.819545,46.8136035 197.758566,46.5542048 L197.980175,52.9173333 C196.40262,53.5343878 194.325507,53.8448802 191.75259,53.8448802 C188.589969,53.8448802 186.118467,52.8347974 184.334328,50.8185621 C182.557701,48.7983965 181.663753,45.4104924 181.663753,40.6509194 L181.663753,21.6401394 L176.405238,21.6401394 L176.405238,15.3516863 L181.663753,15.3516863 L181.663753,8.44617865 L189.52899,5.96223965 L189.52899,15.3516863 L198.355783,15.3516863 L198.355783,21.648 Z" id="Shape"></path>
                        <path d="M238.181523,33.9065534 C238.181523,39.7037211 236.596457,44.4632941 233.433835,48.1852723 C230.117215,52.0172985 225.715086,53.9274161 220.22745,53.9274161 C214.938886,53.9274161 210.728318,52.0919739 207.588233,48.4210893 C204.448148,44.7502048 202.878106,40.1164009 202.878106,34.5314684 C202.878106,28.6871373 204.493221,23.9000523 207.73472,20.1780741 C210.968707,16.4521656 215.333275,14.5892113 220.820911,14.5892113 C226.109475,14.5892113 230.365116,16.4246536 233.576567,20.0994684 C236.649042,23.6642353 238.181523,28.2665969 238.181523,33.9065534 Z M229.873069,34.1777429 C229.873069,30.6994423 229.16317,27.7163573 227.72459,25.228488 C226.045622,22.2178911 223.645485,20.7165229 220.535449,20.7165229 C217.316486,20.7165229 214.871277,22.2218214 213.192308,25.228488 C211.753729,27.7202876 211.043829,30.7505359 211.043829,34.3349542 C211.043829,37.8132549 211.753729,40.7963399 213.192308,43.2802789 C214.923862,46.2908758 217.342779,47.792244 220.464083,47.792244 C223.521534,47.792244 225.921671,46.2594336 227.653225,43.2016732 C229.129365,40.6666405 229.873069,37.6521133 229.873069,34.1777429 Z" id="Shape"></path>
                        <path d="M264.211174,22.7288279 C263.41864,22.5755468 262.573522,22.4969412 261.687086,22.4969412 C258.870025,22.4969412 256.691497,23.6092113 255.159015,25.8376819 C253.825606,27.8028235 253.157024,30.2867625 253.157024,33.2855686 L253.157024,53.0745447 L245.152812,53.0745447 L245.227934,27.2368627 C245.227934,22.8899695 245.12652,18.9321743 244.927447,15.3634771 L251.902492,15.3634771 L252.195466,22.5794771 L252.417075,22.5794771 C253.262194,20.0994684 254.595603,18.1028845 256.421059,16.6054466 C258.205198,15.2573595 260.132068,14.585281 262.209182,14.585281 C262.94913,14.585281 263.617713,14.640305 264.211174,14.7385621 L264.211174,22.7288279 Z" id="Shape"></path>
                        <path d="M300.025418,32.4326972 C300.025418,33.9340654 299.931516,35.1996166 299.732444,36.233281 L275.708542,36.233281 C275.802444,39.9591895 276.963073,42.8086449 279.194186,44.7737865 C281.218714,46.5306231 283.836704,47.4110065 287.05191,47.4110065 C290.60892,47.4110065 293.854175,46.8175338 296.772651,45.626658 L298.027182,51.4434771 C294.61666,52.9998693 290.59014,53.7741351 285.943866,53.7741351 C280.354815,53.7741351 275.967711,52.052671 272.775041,48.6136732 C269.589883,45.1746754 267.993549,40.5565926 267.993549,34.7633551 C267.993549,29.0762353 269.477201,24.340244 272.448262,20.5632418 C275.558298,16.5307712 279.761354,14.5145359 285.049918,14.5145359 C290.24458,14.5145359 294.177198,16.5307712 296.847773,20.5632418 C298.962447,23.7664227 300.025418,27.7281481 300.025418,32.4326972 Z M292.389303,30.2592505 C292.441888,27.7753115 291.919793,25.6293769 290.834285,23.8175163 C289.448291,21.4868584 287.318592,20.3234946 284.452701,20.3234946 C281.834712,20.3234946 279.705013,21.4593464 278.078629,23.7389107 C276.74522,25.5507712 275.952687,27.7242179 275.708542,30.2553203 L292.389303,30.2553203 L292.389303,30.2592505 Z" id="Shape"></path>
                    </g>
                    <g id="Group-Copy-3" transform="translate(164.202454, 28.235294)" fill="#FFFFFF" fill-rule="nonzero">
                        <path d="M20.3762775,13.7543135 C20.3762775,18.2959252 19.0401606,21.7146745 16.3717119,24.0105614 C13.9000849,26.1289512 10.3875737,27.1900754 5.83796322,27.1900754 C3.58208315,27.1900754 1.65171599,27.089751 0.0355066155,26.889102 L0.0355066155,2.07422988 C2.14377036,1.72695287 4.41479056,1.54945573 6.86749237,1.54945573 C11.2013559,1.54945573 14.46784,2.51025547 16.6707295,4.43185496 C19.1385715,6.60426563 20.3762775,9.71046561 20.3762775,13.7543135 Z M16.1938153,13.8662139 C16.1938153,10.9220765 15.4292385,8.66477593 13.9000849,7.09045345 C12.3709313,5.51998961 10.1377615,4.73282838 7.1967903,4.73282838 C5.94772919,4.73282838 4.88413473,4.81771831 4.00222189,4.99521546 L4.00222189,23.8600747 C4.49049123,23.9372474 5.38375918,23.9719751 6.68202572,23.9719751 C9.71762272,23.9719751 12.0605586,23.1114998 13.7108332,21.3905493 C15.3611079,19.6695987 16.1938153,17.1614869 16.1938153,13.8662139 Z" id="Shape"></path>
                        <path d="M42.5527897,17.7209888 C42.5527897,20.5184981 41.7692877,22.8105264 40.2022838,24.6086496 C38.5595792,26.4569351 36.3831848,27.3791485 33.6655307,27.3791485 C31.0462874,27.3791485 28.9607338,26.4955214 27.405085,24.72055 C25.8532212,22.9494372 25.0772893,20.7152884 25.0772893,18.0219622 C25.0772893,15.2051597 25.8759314,12.8938383 27.4807857,11.0995737 C29.08564,9.30530909 31.2431091,8.40624748 33.9607633,8.40624748 C36.5800066,8.40624748 38.6844853,9.28987456 40.2779845,11.0609873 C41.7919979,12.7819379 42.5527897,15.0045108 42.5527897,17.7209888 Z M38.4384581,17.8521823 C38.4384581,16.1736768 38.082665,14.7344065 37.3748637,13.5343714 C36.5421563,12.0835252 35.3574407,11.3581021 33.816932,11.3581021 C32.2234329,11.3581021 31.0122221,12.0835252 30.1795147,13.5343714 C29.4679284,14.7344065 29.1159202,16.1968286 29.1159202,17.9254964 C29.1159202,19.6040019 29.4717134,21.0432723 30.1795147,22.2433073 C31.0387173,23.6941535 32.234788,24.4195766 33.7790817,24.4195766 C35.2930952,24.4195766 36.4815957,23.6825776 37.3370133,22.2047209 C38.0713099,20.9815341 38.4384581,19.5306879 38.4384581,17.8521823 Z" id="Shape"></path>
                        <path d="M72.2880141,8.7766763 L66.7050895,26.9662747 L63.0714572,26.9662747 L60.7588016,19.0676519 C60.1721214,17.0958902 59.6952072,15.1357043 59.3242739,13.190953 L59.2523582,13.190953 C58.9079202,15.1897252 58.4310059,17.1460524 57.8178305,19.0676519 L55.3613436,26.9662747 L51.6860759,26.9662747 L46.4362342,8.7766763 L50.5127155,8.7766763 L52.5301384,17.423874 C53.0184078,19.4689498 53.4196214,21.4175597 53.7413492,23.2619865 L53.8132649,23.2619865 C54.1084975,21.7416849 54.5967668,19.8046509 55.2856429,17.4624603 L57.8178305,8.78053494 L61.0502492,8.78053494 L63.4764558,17.2772459 C64.063136,19.3493321 64.5400502,21.3442457 64.9071985,23.2658452 L65.0169645,23.2658452 C65.2857019,21.3944079 65.6907005,19.3994944 66.2281753,17.2772459 L68.3932145,8.78053494 L72.2880141,8.78053494 L72.2880141,8.7766763 Z" id="Shape"></path>
                        <path d="M92.852102,26.9662747 L88.8853867,26.9662747 L88.8853867,16.5479642 C88.8853867,13.3375811 87.6893161,11.7323896 85.2896048,11.7323896 C84.1124593,11.7323896 83.1624158,12.1722738 82.4243343,13.0559009 C81.6938228,13.9395279 81.3228895,14.981359 81.3228895,16.1736768 L81.3228895,26.9624161 L77.3561742,26.9624161 L77.3561742,13.9742556 C77.3561742,12.3767814 77.3069688,10.6442549 77.2123429,8.76895903 L80.6983589,8.76895903 L80.8838256,11.6127719 L80.9935916,11.6127719 C81.4553657,10.7291449 82.1442418,9.99986313 83.0488648,9.41720947 C84.1238144,8.73808997 85.3274551,8.39467158 86.6446468,8.39467158 C88.3100616,8.39467158 89.6953839,8.94259754 90.7968287,10.0423081 C92.1670109,11.3889712 92.852102,13.3993193 92.852102,16.0694936 L92.852102,26.9662747 Z" id="Shape"></path>
                        <polygon id="Shape" points="103.790849 26.9662747 99.8279191 26.9662747 99.8279191 0.430452006 103.790849 0.430452006"></polygon>
                        <path d="M127.144507,17.7209888 C127.144507,20.5184981 126.361005,22.8105264 124.794001,24.6086496 C123.151296,26.4569351 120.971117,27.3791485 118.257248,27.3791485 C115.63422,27.3791485 113.548666,26.4955214 111.996802,24.72055 C110.444938,22.9494372 109.669007,20.7152884 109.669007,18.0219622 C109.669007,15.2051597 110.467649,12.8938383 112.072503,11.0995737 C113.677357,9.30530909 115.834826,8.40624748 118.548696,8.40624748 C121.171724,8.40624748 123.272418,9.28987456 124.869702,11.0609873 C126.383715,12.7819379 127.144507,15.0045108 127.144507,17.7209888 Z M123.02639,17.8521823 C123.02639,16.1736768 122.670597,14.7344065 121.962796,13.5343714 C121.133874,12.0835252 119.945373,11.3581021 118.408649,11.3581021 C116.811365,11.3581021 115.600154,12.0835252 114.771232,13.5343714 C114.059646,14.7344065 113.707637,16.1968286 113.707637,17.9254964 C113.707637,19.6040019 114.063431,21.0432723 114.771232,22.2433073 C115.630435,23.6941535 116.826505,24.4195766 118.370799,24.4195766 C119.884812,24.4195766 121.069528,23.6825776 121.924946,22.2047209 C122.663027,20.9815341 123.02639,19.5306879 123.02639,17.8521823 Z" id="Shape"></path>
                        <path d="M146.342198,26.9662747 L142.780481,26.9662747 L142.485248,24.8710367 L142.375482,24.8710367 C141.156702,26.541825 139.419371,27.3791485 137.163491,27.3791485 C135.479151,27.3791485 134.116539,26.8273639 133.090795,25.731512 C132.159677,24.7359845 131.694117,23.4973632 131.694117,22.0272238 C131.694117,19.8046509 132.602526,18.1107108 134.430697,16.9376862 C136.255083,15.7646616 138.821336,15.1897252 142.12567,15.2167356 L142.12567,14.8771759 C142.12567,12.4809645 140.891749,11.2847881 138.420122,11.2847881 C136.660082,11.2847881 135.108218,11.7362482 133.768316,12.6314512 L132.962104,9.97671133 C134.619948,8.93102164 136.667652,8.40624748 139.082503,8.40624748 C143.745665,8.40624748 146.084815,10.9143593 146.084815,15.9305828 L146.084815,22.6291706 C146.084815,24.446587 146.171871,25.8935746 146.342198,26.9662747 Z M142.224081,20.7152884 L142.224081,17.9100618 C137.848582,17.8328892 135.660833,19.056076 135.660833,21.5757637 C135.660833,22.5249875 135.910645,23.2349761 136.421624,23.709588 C136.932604,24.1841999 137.58363,24.4195766 138.359562,24.4195766 C139.230119,24.4195766 140.043902,24.1378963 140.785768,23.5783945 C141.53142,23.015034 141.989409,22.3011868 142.159736,21.425277 C142.201371,21.2284867 142.224081,20.9892514 142.224081,20.7152884 Z" id="Shape"></path>
                        <path d="M168.882073,26.9662747 L165.361992,26.9662747 L165.176525,24.0452891 L165.066759,24.0452891 C163.942604,26.267862 162.027377,27.3791485 159.336218,27.3791485 C157.186319,27.3791485 155.395998,26.5186732 153.976611,24.7977227 C152.557223,23.0767721 151.849422,20.8426233 151.849422,18.0991349 C151.849422,15.1549975 152.617784,12.770362 154.162077,10.949087 C155.657166,9.25128822 157.489122,8.40238885 159.669301,8.40238885 C162.065228,8.40238885 163.741997,9.22427779 164.695826,10.8719143 L164.771527,10.8719143 L164.771527,0.430452006 L168.742027,0.430452006 L168.742027,22.0658101 C168.742027,23.8369229 168.787447,25.4691249 168.882073,26.9662747 Z M164.771527,19.2953113 L164.771527,16.2624253 C164.771527,15.7376512 164.733676,15.3132015 164.661761,14.9890763 C164.438444,14.0167006 163.957744,13.1986703 163.227233,12.538844 C162.489151,11.8790176 161.599668,11.5471752 160.573924,11.5471752 C159.093976,11.5471752 157.935756,12.1452634 157.084123,13.3452984 C156.240061,14.5453334 155.812352,16.0772109 155.812352,17.9486482 C155.812352,19.7467714 156.217351,21.2053349 157.031133,22.3281972 C157.890335,23.5243736 159.048556,24.1224618 160.498224,24.1224618 C161.800275,24.1224618 162.841159,23.6246981 163.632231,22.625312 C164.396808,21.7030986 164.771527,20.5918121 164.771527,19.2953113 Z" id="Shape"></path>
                        <path d="M202.80733,17.7209888 C202.80733,20.5184981 202.023828,22.8105264 200.456824,24.6086496 C198.814119,26.4569351 196.64151,27.3791485 193.920071,27.3791485 C191.304613,27.3791485 189.219059,26.4955214 187.659625,24.72055 C186.107761,22.9494372 185.331829,20.7152884 185.331829,18.0219622 C185.331829,15.2051597 186.130472,12.8938383 187.735326,11.0995737 C189.34018,9.30530909 191.497649,8.40624748 194.219088,8.40624748 C196.834547,8.40624748 198.94281,9.28987456 200.532525,11.0609873 C202.046538,12.7819379 202.80733,15.0045108 202.80733,17.7209888 Z M198.696783,17.8521823 C198.696783,16.1736768 198.34099,14.7344065 197.633189,13.5343714 C196.796696,12.0835252 195.615766,11.3581021 194.071472,11.3581021 C192.481758,11.3581021 191.270547,12.0835252 190.434055,13.5343714 C189.722468,14.7344065 189.37046,16.1968286 189.37046,17.9254964 C189.37046,19.6040019 189.726254,21.0432723 190.434055,22.2433073 C191.293257,23.6941535 192.489328,24.4195766 194.033622,24.4195766 C195.547635,24.4195766 196.739921,23.6825776 197.595338,22.2047209 C198.32585,20.9815341 198.696783,19.5306879 198.696783,17.8521823 Z" id="Shape"></path>
                        <path d="M224.135995,26.9662747 L220.173064,26.9662747 L220.173064,16.5479642 C220.173064,13.3375811 218.976994,11.7323896 216.573497,11.7323896 C215.396352,11.7323896 214.446308,12.1722738 213.712012,13.0559009 C212.977715,13.9395279 212.610567,14.981359 212.610567,16.1736768 L212.610567,26.9624161 L208.640067,26.9624161 L208.640067,13.9742556 C208.640067,12.3767814 208.594646,10.6442549 208.50002,8.76895903 L211.982251,8.76895903 L212.167718,11.6127719 L212.277484,11.6127719 C212.743043,10.7291449 213.431919,9.99986313 214.332757,9.41720947 C215.411492,8.73808997 216.611348,8.39467158 217.932324,8.39467158 C219.593954,8.39467158 220.979276,8.94259754 222.080721,10.0423081 C223.454688,11.3889712 224.135995,13.3993193 224.135995,16.0694936 L224.135995,26.9662747 Z" id="Shape"></path>
                        <path d="M250.831837,11.8057036 L246.463908,11.8057036 L246.463908,20.6419744 C246.463908,22.8876991 247.23984,24.0105614 248.776564,24.0105614 C249.48815,24.0105614 250.078615,23.9488233 250.544174,23.8214884 L250.64637,26.889102 C249.862868,27.1900754 248.833339,27.3405621 247.565353,27.3405621 C245.998349,27.3405621 244.779568,26.8543743 243.897655,25.8819987 C243.011957,24.909623 242.572893,23.2735624 242.572893,20.9776755 L242.572893,11.8057036 L239.965005,11.8057036 L239.965005,8.7766763 L242.572893,8.7766763 L242.572893,5.44281694 L246.460123,4.24664055 L246.460123,8.77281767 L250.828052,8.77281767 L250.828052,11.8057036 L250.831837,11.8057036 Z" id="Shape"></path>
                        <path d="M271.831204,26.9662747 L267.860703,26.9662747 L267.860703,16.6251369 C267.860703,13.3645916 266.664633,11.7323896 264.268706,11.7323896 C262.42918,11.7323896 261.172549,12.6777548 260.483673,14.5684852 C260.366337,14.9659245 260.298206,15.4521123 260.298206,16.02319 L260.298206,26.9624161 L256.335276,26.9624161 L256.335276,0.430452006 L260.298206,0.430452006 L260.298206,11.3928298 L260.373907,11.3928298 C261.622968,9.3979163 263.413289,8.40238885 265.733514,8.40238885 C267.376219,8.40238885 268.735046,8.95031481 269.813781,10.0500254 C271.157468,11.4198403 271.831204,13.4571988 271.831204,16.150525 L271.831204,26.9662747 Z" id="Shape"></path>
                        <path d="M293.492951,17.0110002 C293.492951,17.7364233 293.439961,18.3460874 293.345335,18.8438511 L281.448974,18.8438511 C281.501965,20.6419744 282.06972,22.0117893 283.171164,22.9610131 C284.177983,23.8099125 285.47625,24.2343622 287.065964,24.2343622 C288.826005,24.2343622 290.430859,23.9488233 291.876742,23.3738869 L292.497487,26.1829721 C290.805577,26.931547 288.81465,27.3058344 286.509564,27.3058344 C283.74649,27.3058344 281.570095,26.4762282 279.995521,24.8170158 C278.413377,23.1578034 277.629875,20.9313719 277.629875,18.1377212 C277.629875,15.3942328 278.360387,13.1099217 279.832765,11.2886467 C281.369488,9.34389543 283.447472,8.37151978 286.0705,8.37151978 C288.636753,8.37151978 290.586045,9.34389543 291.903237,11.2886467 C292.966832,12.8321001 293.492951,14.7421237 293.492951,17.0110002 Z M289.707918,15.9653105 C289.738198,14.7652755 289.477031,13.7311617 288.939556,12.8591106 C288.25068,11.7362482 287.202225,11.1728877 285.782838,11.1728877 C284.488356,11.1728877 283.432332,11.7208137 282.62612,12.8205242 C281.967524,13.696434 281.577665,14.7421237 281.448974,15.9653105 L289.707918,15.9653105 Z" id="Shape"></path>
                    </g>
                    <g id="Group-Copy" transform="translate(30.981595, 21.960784)" fill="#FFFFFF" fill-rule="nonzero">
                        <path d="M66.8216736,54.6371441 C66.7098936,41.6374887 76.9936523,35.313114 77.4638992,35.0186757 C71.6397764,26.1330905 62.6125789,24.9190365 59.44034,24.8222348 C51.8585733,23.9873206 44.5042211,29.5695492 40.6420299,29.5695492 C36.702749,29.5695492 30.7552828,24.9029029 24.3452788,25.0400385 C16.0966867,25.1731408 8.38001315,30.1705262 4.1477916,37.9307921 C-4.58646526,53.753829 1.92760981,77.0063928 10.2956909,89.7963113 C14.4816586,96.060185 19.3729966,103.054104 25.7752917,102.808067 C32.0388254,102.537829 34.3784962,98.6294622 41.9371359,98.6294622 C49.426395,98.6294622 51.6234499,102.808067 58.1529429,102.650764 C64.87516,102.537829 69.1073816,96.3586567 73.146879,90.0383154 C77.9842543,82.8588595 79.9269134,75.7883054 80.004003,75.4252992 C79.8459692,75.3688315 66.9488715,70.2181769 66.8216736,54.6371441 Z" id="Shape"></path>
                        <path d="M55.0063409,16.4925817 C58.3751584,12.0840731 60.6801388,6.08640396 60.0402947,0 C55.1643746,0.225870525 49.0665837,3.52922695 45.5551503,7.84093393 C42.4484376,11.6403988 39.6732103,17.8679719 40.390144,23.7244719 C45.8673634,24.1520125 51.491053,20.8325225 55.0063409,16.4925817 Z" id="Shape"></path>
                    </g>
                </g>
            </g>
        </g>
    </g>
</svg>