<svg height="160" viewBox="0 0 505 160" width="505" xmlns="http://www.w3.org/2000/svg"><g fill="none" fill-rule="nonzero"><path d="m490.457857 160h-475.8967493c-8.03724596 0-14.5611077-7.177554-14.5611077-16.038526v-127.90201c0-8.85678393 6.52386174-16.059464 14.5611077-16.059464h475.8929563c8.044832 0 14.542143 7.20268007 14.542143 16.059464l.003793 127.90201c0 8.860972-6.501104 16.038526-14.542143 16.038526z" fill="#000"/><g fill="#fff"><g transform="translate(161.104294 72.156863)"><path d="m42.692465 53.0745447h-8.5300628l-4.6725664-15.3634772h-16.2412998l-4.45095748 15.3634772h-8.30469793l16.09105651-52.30420919h9.9385937zm-14.6111601-21.8091416-4.2255925-13.6577343c-.4469738-1.3952505-1.2845802-4.6809673-2.5203312-9.85322h-.1502433c-.4920468 2.22454031-1.2845802 5.5102571-2.373844 9.85322l-4.1504709 13.6577343z"/><path d="m84.0732235 33.7532723c0 6.4142223-1.6564323 11.4842876-4.9692968 15.2062658-2.967305 3.3132288-6.6520218 4.967878-11.0503941 4.967878-4.747688 0-8.1582107-1.7843486-10.2353242-5.3530457h-.1502433v19.8675817h-8.0079674v-40.6666406c0-4.0324705-.1014143-8.1710588-.2967305-12.4157647h7.0426542l.4469738 5.9779608h.1502433c2.6705745-4.5041045 6.7233873-6.7522266 12.1621944-6.7522266 4.2518852 0 7.8013829 1.7568366 10.6409811 5.2744401 2.8471104 3.5215338 4.2669095 8.1514074 4.2669095 13.8935512zm-8.1582107.3065621c0-3.6708845-.7887773-6.6972026-2.373844-9.0789542-1.7315539-2.483939-4.0565689-3.7259085-6.9712887-3.7259085-1.9756993 0-3.7711066.6917298-5.3749538 2.0555381-1.6076032 1.3755991-2.6593062 3.1717386-3.151353 5.3962789-.2479014 1.0375947-.3718521 1.8865359-.3718521 2.5546841v6.2884531c0 2.7433377.8038016 5.0582745 2.4114048 6.9487408 1.6076032 1.8904662 3.695985 2.8337342 6.2651452 2.8337342 3.0161341 0 5.3636855-1.2183878 7.0426543-3.6473029 1.6827249-2.4328453 2.5240873-5.6399564 2.5240873-9.6252636z"/><path d="m125.529104 33.7532723c0 6.4142223-1.656433 11.4842876-4.973053 15.2062658-2.963549 3.3132288-6.648266 4.967878-11.046638 4.967878-4.747688 0-8.158211-1.7843486-10.2315684-5.3530457h-.1502433v19.8675817h-8.0079674v-40.6666406c0-4.0324705-.1014142-8.1710588-.2967305-12.4157647h7.0426543l.4469737 5.9779608h.1502433c2.6668183-4.5041045 6.7196313-6.7522266 12.1621943-6.7522266 4.248129 0 7.797627 1.7568366 10.644737 5.2744401 2.835842 3.5215338 4.259398 8.1514074 4.259398 13.8935512zm-8.158211.3065621c0-3.6708845-.792533-6.6972026-2.3776-9.0789542-1.731554-2.483939-4.049057-3.7259085-6.967533-3.7259085-1.979455 0-3.771106.6917298-5.37871 2.0555381-1.607603 1.3755991-2.6555498 3.1717386-3.1475966 5.3962789-.2441453 1.0375947-.3718521 1.8865359-.3718521 2.5546841v6.2884531c0 2.7433377.8038016 5.0582745 2.4038927 6.9487408 1.607603 1.8865359 3.695985 2.8337342 6.272657 2.8337342 3.016134 0 5.363686-1.2183878 7.042655-3.6473029 1.682725-2.4328453 2.524087-5.6399564 2.524087-9.6252636z"/><path d="m171.879159 38.4067277c0 4.4490806-1.47614 8.0688714-4.439689 10.8633028-3.256524 3.0538301-7.790115 4.57878-13.615799 4.57878-5.378709 0-9.690692-1.0847582-12.954727-3.2582048l1.855504-6.9841133c3.515693 2.2245403 7.37319 3.3407407 11.576246 3.3407407 3.016134 0 5.363685-.7153115 7.050166-2.1380741 1.678969-1.4227625 2.516576-3.3328801 2.516576-5.7146318 0-2.1223529-.69112-3.9106318-2.077114-5.3609063-1.378482-1.4502745-3.680961-2.7983616-6.896167-4.0442614-8.751672-3.4154161-13.123752-8.4186667-13.123752-14.9979608 0-4.2997299 1.532482-7.82519391 4.601201-10.5685316 3.057451-2.74726797 7.136557-4.11893682 12.237316-4.11893682 4.548616 0 8.327235.82928976 11.343369 2.483939l-2.001992 6.83083225c-2.817062-1.60355556-6.00222-2.40533334-9.566742-2.40533334-2.817061 0-5.018126.7271024-6.59568 2.17344662-1.333409 1.29306319-2.001992 2.86910679-2.001992 4.73599129 0 2.067329.762485 3.7770022 2.294966 5.121159 1.33341 1.2419695 3.756083 2.5861264 7.271776 4.0364009 4.300714 1.8118606 7.459579 3.9302832 9.49162 6.3591983 2.024528 2.4210544 3.034914 5.4513028 3.034914 9.0671634z"/><path d="m198.355783 21.648h-8.826793v18.3111895c0 4.6573857 1.555018 6.9841133 4.672566 6.9841133 1.431067 0 2.617989-.1296993 3.55701-.389098l.221609 6.3631285c-1.577555.6170545-3.654668.9275469-6.227585.9275469-3.162621 0-5.634123-1.0100828-7.418262-3.0263181-1.776627-2.0201656-2.670575-5.4080697-2.670575-10.1676427v-19.01078h-5.258515v-6.2884531h5.258515v-6.90550765l7.865237-2.483939v9.38944665h8.826793z"/><path d="m238.181523 33.9065534c0 5.7971677-1.585066 10.5567407-4.747688 14.2787189-3.31662 3.8320262-7.718749 5.7421438-13.206385 5.7421438-5.288564 0-9.499132-1.8354422-12.639217-5.5063268-3.140085-3.6708845-4.710127-8.3046884-4.710127-13.8896209 0-5.8443311 1.615115-10.6314161 4.856614-14.3533943 3.233987-3.7259085 7.598555-5.5888628 13.086191-5.5888628 5.288564 0 9.544205 1.8354423 12.755656 5.5102571 3.072475 3.5647669 4.604956 8.1671285 4.604956 13.807085zm-8.308454.2711895c0-3.4783006-.709899-6.4613856-2.148479-8.9492549-1.678968-3.0105969-4.079105-4.5119651-7.189141-4.5119651-3.218963 0-5.664172 1.5052985-7.343141 4.5119651-1.438579 2.4917996-2.148479 5.5220479-2.148479 9.1064662 0 3.4783007.7099 6.4613857 2.148479 8.9453247 1.731554 3.0105969 4.150471 4.5119651 7.271775 4.5119651 3.057451 0 5.457588-1.5328104 7.189142-4.5905708 1.47614-2.5350327 2.219844-5.5495599 2.219844-9.0239303z"/><path d="m264.211174 22.7288279c-.792534-.1532811-1.637652-.2318867-2.524088-.2318867-2.817061 0-4.995589 1.1122701-6.528071 3.3407407-1.333409 1.9651416-2.001991 4.4490806-2.001991 7.4478867v19.7889761h-8.004212l.075122-25.837682c0-4.3468932-.101414-8.3046884-.300487-11.8733856h6.975045l.292974 7.216h.221609c.845119-2.4800087 2.178528-4.4765926 4.003984-5.9740305 1.784139-1.3480871 3.711009-2.0201656 5.788123-2.0201656.739948 0 1.408531.055024 2.001992.1532811z"/><path d="m300.025418 32.4326972c0 1.5013682-.093902 2.7669194-.292974 3.8005838h-24.023902c.093902 3.7259085 1.254531 6.5753639 3.485644 8.5405055 2.024528 1.7568366 4.642518 2.63722 7.857724 2.63722 3.55701 0 6.802265-.5934727 9.720741-1.7843485l1.254531 5.8168191c-3.410522 1.5563922-7.437042 2.330658-12.083316 2.330658-5.589051 0-9.976155-1.7214641-13.168825-5.1604619-3.185158-3.4389978-4.781492-8.0570806-4.781492-13.8503181 0-5.6871198 1.483652-10.4231111 4.454713-14.2001133 3.110036-4.0324706 7.313092-6.0487059 12.601656-6.0487059 5.194662 0 9.12728 2.0162353 11.797855 6.0487059 2.114674 3.2031809 3.177645 7.1649063 3.177645 11.8694554zm-7.636115-2.1734467c.052585-2.483939-.46951-4.6298736-1.555018-6.4417342-1.385994-2.3306579-3.515693-3.4940217-6.381584-3.4940217-2.617989 0-4.747688 1.1358518-6.374072 3.4154161-1.333409 1.8118605-2.125942 3.9853072-2.370087 6.5164096h16.680761z"/></g><g transform="translate(164.202454 28.235294)"><path d="m20.3762775 13.7543135c0 4.5416117-1.3361169 7.960361-4.0045656 10.2562479-2.471627 2.1183898-5.9841382 3.179514-10.53374868 3.179514-2.25588007 0-4.18624723-.1003244-5.8024566-.3009734v-24.81487212c2.10826374-.34727701 4.37928394-.52477415 6.83198575-.52477415 4.33386353 0 7.60034763.96079974 9.80323713 2.88239923 2.467842 2.17241067 3.705548 5.27861065 3.705548 9.32245854zm-4.1824622.1119004c0-2.9441374-.7645768-5.20143797-2.2937304-6.77576045-1.5291536-1.57046384-3.7623234-2.35762507-6.7032946-2.35762507-1.24906111 0-2.31265557.08488993-3.19456841.26238708v18.86485924c.48826934.0771727 1.38153729.1119004 2.67980383.1119004 3.035597 0 5.37853288-.8604753 7.02880748-2.5814258 1.6502747-1.7209506 2.4829821-4.2290624 2.4829821-7.5243354z"/><path d="m42.5527897 17.7209888c0 2.7975093-.783502 5.0895376-2.3505059 6.8876608-1.6427046 1.8482855-3.819099 2.7704989-6.5367531 2.7704989-2.6192433 0-4.7047969-.8836271-6.2604457-2.6585985-1.5518638-1.7711128-2.3277957-4.0052616-2.3277957-6.6985878 0-2.8168025.7986421-5.1281239 2.4034964-6.9223885 1.6048543-1.79426461 3.7623234-2.69332622 6.4799776-2.69332622 2.6192433 0 4.723722.88362708 6.3172212 2.65473982 1.5140134 1.7209506 2.2748052 3.9435235 2.2748052 6.6600015zm-4.1143316.1311935c0-1.6785055-.3557931-3.1177758-1.0635944-4.3178109-.8327074-1.4508462-2.017423-2.1762693-3.5579317-2.1762693-1.5934991 0-2.8047099.7254231-3.6374173 2.1762693-.7115863 1.2000351-1.0635945 2.6624572-1.0635945 4.391125 0 1.6785055.3557932 3.1177759 1.0635945 4.3178109.8592026 1.4508462 2.0552733 2.1762693 3.599567 2.1762693 1.5140135 0 2.702514-.736999 3.5579316-2.2148557.7342966-1.2231868 1.1014448-2.674033 1.1014448-4.3525386z"/><path d="m72.2880141 8.7766763-5.5829246 18.1895984h-3.6336323l-2.3126556-7.8986228c-.5866802-1.9717617-1.0635944-3.9319476-1.4345277-5.8766989h-.0719157c-.344438 1.9987722-.8213523 3.9550994-1.4345277 5.8766989l-2.4564869 7.8986228h-3.6752677l-5.2498417-18.1895984h4.0764813l2.0174229 8.6471977c.4882694 2.0450758.889483 3.9936857 1.2112108 5.8381125h.0719157c.2952326-1.5203016.7835019-3.4573356 1.472378-5.7995262l2.5321876-8.68192536h3.2324187l2.4262066 8.49671096c.5866802 2.0720862 1.0635944 4.0669998 1.4307427 5.9885993h.109766c.2687374-1.8714373.673736-3.8663508 1.2112108-5.9885993l2.1650392-8.49671096h3.8947996z"/><path d="m92.852102 26.9662747h-3.9667153v-10.4183105c0-3.2103831-1.1960706-4.8155746-3.5957819-4.8155746-1.1771455 0-2.127189.4398842-2.8652705 1.3235113-.7305115.883627-1.1014448 1.9254581-1.1014448 3.1177759v10.7887393h-3.9667153v-12.9881605c0-1.5974742-.0492054-3.3300007-.1438313-5.20529657h3.486016l.1854667 2.84381287h.109766c.4617741-.883627 1.1506502-1.61290877 2.0552732-2.19556243 1.0749496-.6791195 2.2785903-1.02253789 3.595782-1.02253789 1.6654148 0 3.0507371.54792596 4.1521819 1.64763652 1.3701822 1.3466631 2.0552733 3.3570112 2.0552733 6.0271855z"/><path d="m103.790849 26.9662747h-3.9629299v-26.53582269h3.9629299z"/><path d="m127.144507 17.7209888c0 2.7975093-.783502 5.0895376-2.350506 6.8876608-1.642705 1.8482855-3.822884 2.7704989-6.536753 2.7704989-2.623028 0-4.708582-.8836271-6.260446-2.6585985-1.551864-1.7711128-2.327795-4.0052616-2.327795-6.6985878 0-2.8168025.798642-5.1281239 2.403496-6.9223885 1.604854-1.79426461 3.762323-2.69332622 6.476193-2.69332622 2.623028 0 4.723722.88362708 6.321006 2.65473982 1.514013 1.7209506 2.274805 3.9435235 2.274805 6.6600015zm-4.118117.1311935c0-1.6785055-.355793-3.1177758-1.063594-4.3178109-.828922-1.4508462-2.017423-2.1762693-3.554147-2.1762693-1.597284 0-2.808495.7254231-3.637417 2.1762693-.711586 1.2000351-1.063595 2.6624572-1.063595 4.391125 0 1.6785055.355794 3.1177759 1.063595 4.3178109.859203 1.4508462 2.055273 2.1762693 3.599567 2.1762693 1.514013 0 2.698729-.736999 3.554147-2.2148557.738081-1.2231868 1.101444-2.674033 1.101444-4.3525386z"/><path d="m146.342198 26.9662747h-3.561717l-.295233-2.095238h-.109766c-1.21878 1.6707883-2.956111 2.5081118-5.211991 2.5081118-1.68434 0-3.046952-.5517846-4.072696-1.6476365-.931118-.9955275-1.396678-2.2341488-1.396678-3.7042882 0-2.2225729.908409-3.916513 2.73658-5.0895376 1.824386-1.1730246 4.390639-1.747961 7.694973-1.7209506v-.3395597c0-2.3962114-1.233921-3.5923878-3.705548-3.5923878-1.76004 0-3.311904.4514601-4.651806 1.3466631l-.806212-2.65473987c1.657844-1.04568969 3.705548-1.57046385 6.120399-1.57046385 4.663162 0 7.002312 2.50811182 7.002312 7.52433532v6.6985878c0 1.8174164.087056 3.264404.257383 4.3371041zm-4.118117-6.2509863v-2.8052266c-4.375499-.0771726-6.563248 1.1460142-6.563248 3.6657019 0 .9492238.249812 1.6592124.760791 2.1338243.51098.4746119 1.162006.7099886 1.937938.7099886.870557 0 1.68434-.2816803 2.426206-.8411821.745652-.5633605 1.203641-1.2772077 1.373968-2.1531175.041635-.1967903.064345-.4360256.064345-.7099886z"/><path d="m168.882073 26.9662747h-3.520081l-.185467-2.9209856h-.109766c-1.124155 2.2225729-3.039382 3.3338594-5.730541 3.3338594-2.149899 0-3.94022-.8604753-5.359607-2.5814258-1.419388-1.7209506-2.127189-3.9550994-2.127189-6.6985878 0-2.9441374.768362-5.3287729 2.312655-7.1500479 1.495089-1.69779878 3.327045-2.54669815 5.507224-2.54669815 2.395927 0 4.072696.82188894 5.026525 2.46952545h.075701v-10.44146229h3.9705v21.63535809c0 1.7711128.04542 3.4033148.140046 4.9004646zm-4.110546-7.6709634v-3.032886c0-.5247741-.037851-.9492238-.109766-1.273349-.223317-.9723757-.704017-1.790406-1.434528-2.4502323-.738082-.6598264-1.627565-.9916688-2.653309-.9916688-1.479948 0-2.638168.5980882-3.489801 1.7981232-.844062 1.200035-1.271771 2.7319125-1.271771 4.6033498 0 1.7981232.404999 3.2566867 1.218781 4.379549.859202 1.1961764 2.017423 1.7942646 3.467091 1.7942646 1.302051 0 2.342935-.4977637 3.134007-1.4971498.764577-.9222134 1.139296-2.0334999 1.139296-3.3300007z"/><path d="m202.80733 17.7209888c0 2.7975093-.783502 5.0895376-2.350506 6.8876608-1.642705 1.8482855-3.815314 2.7704989-6.536753 2.7704989-2.615458 0-4.701012-.8836271-6.260446-2.6585985-1.551864-1.7711128-2.327796-4.0052616-2.327796-6.6985878 0-2.8168025.798643-5.1281239 2.403497-6.9223885 1.604854-1.79426461 3.762323-2.69332622 6.483762-2.69332622 2.615459 0 4.723722.88362708 6.313437 2.65473982 1.514013 1.7209506 2.274805 3.9435235 2.274805 6.6600015zm-4.110547.1311935c0-1.6785055-.355793-3.1177758-1.063594-4.3178109-.836493-1.4508462-2.017423-2.1762693-3.561717-2.1762693-1.589714 0-2.800925.7254231-3.637417 2.1762693-.711587 1.2000351-1.063595 2.6624572-1.063595 4.391125 0 1.6785055.355794 3.1177759 1.063595 4.3178109.859202 1.4508462 2.055273 2.1762693 3.599567 2.1762693 1.514013 0 2.706299-.736999 3.561716-2.2148557.730512-1.2231868 1.101445-2.674033 1.101445-4.3525386z"/><path d="m224.135995 26.9662747h-3.962931v-10.4183105c0-3.2103831-1.19607-4.8155746-3.599567-4.8155746-1.177145 0-2.127189.4398842-2.861485 1.3235113-.734297.883627-1.101445 1.9254581-1.101445 3.1177759v10.7887393h-3.9705v-12.9881605c0-1.5974742-.045421-3.3300007-.140047-5.20529657h3.482231l.185467 2.84381287h.109766c.465559-.883627 1.154435-1.61290877 2.055273-2.19556243 1.078735-.6791195 2.278591-1.02253789 3.599567-1.02253789 1.66163 0 3.046952.54792596 4.148397 1.64763652 1.373967 1.3466631 2.055274 3.3570112 2.055274 6.0271855z"/><path d="m250.831837 11.8057036h-4.367929v8.8362708c0 2.2457247.775932 3.368587 2.312656 3.368587.711586 0 1.302051-.0617381 1.76761-.189073l.102196 3.0676136c-.783502.3009734-1.813031.4514601-3.081017.4514601-1.567004 0-2.785785-.4861878-3.667698-1.4585634-.885698-.9723757-1.324762-2.6084363-1.324762-4.9043232v-9.1719719h-2.607888v-3.0290273h2.607888v-3.33385936l3.88723-1.19617639v4.52617712h4.367929v3.03288593z"/><path d="m271.831204 26.9662747h-3.970501v-10.3411378c0-3.2605453-1.19607-4.8927473-3.591997-4.8927473-1.839526 0-3.096157.9453652-3.785033 2.8360956-.117336.3974393-.185467.8836271-.185467 1.4547048v10.9392261h-3.96293v-26.53196409h3.96293v10.96237779h.075701c1.249061-1.9949135 3.039382-2.99044095 5.359607-2.99044095 1.642705 0 3.001532.54792596 4.080267 1.64763655 1.343687 1.3698149 2.017423 3.4071734 2.017423 6.1004996z"/><path d="m293.492951 17.0110002c0 .7254231-.05299 1.3350872-.147616 1.8328509h-11.896361c.052991 1.7981233.620746 3.1679382 1.72219 4.117162 1.006819.8488994 2.305086 1.2733491 3.8948 1.2733491 1.760041 0 3.364895-.2855389 4.810778-.8604753l.620745 2.8090852c-1.69191.7485749-3.682837 1.1228623-5.987923 1.1228623-2.763074 0-4.939469-.8296062-6.514043-2.4888186-1.582144-1.6592124-2.365646-3.8856439-2.365646-6.6792946 0-2.7434884.730512-5.0277995 2.20289-6.8490745 1.536723-1.94475127 3.614707-2.91712692 6.237735-2.91712692 2.566253 0 4.515545.97237565 5.832737 2.91712692 1.063595 1.5434534 1.589714 3.453477 1.589714 5.7223535zm-3.785033-1.0456897c.03028-1.200035-.230887-2.2341488-.768362-3.1061999-.688876-1.1228624-1.737331-1.6862229-3.156718-1.6862229-1.294482 0-2.350506.547926-3.156718 1.6476365-.658596.8759098-1.048455 1.9215995-1.177146 3.1447863z"/></g><g transform="translate(30.981595 21.960784)"><path d="m66.8216736 54.6371441c-.11178-12.9996554 10.1719787-19.3240301 10.6422256-19.6184684-5.8241228-8.8855852-14.8513203-10.0996392-18.0235592-10.1964409-7.5817667-.8349142-14.9361189 4.7473144-18.7983101 4.7473144-3.9392809 0-9.8867471-4.6666463-16.2967511-4.5295107-8.2485921.1331023-15.96526565 5.1304877-20.1974872 12.8907536-8.73425686 15.8230369-2.22018179 39.0756007 6.1478993 51.8655192 4.1859677 6.2638737 9.0773057 13.2577927 15.4796008 13.0117557 6.2635337-.270238 8.6032045-4.1786048 16.1618442-4.1786048 7.4892591 0 9.686314 4.1786048 16.215807 4.0213018 6.7222171-.112935 10.9544387-6.2921073 14.9939361-12.6124486 4.8373753-7.1794559 6.7800344-14.25001 6.857124-14.6130162-.1580338-.0564677-13.0551315-5.2071223-13.1823294-20.7881551z"/><path d="m55.0063409 16.4925817c3.3688175-4.4085086 5.6737979-10.40617774 5.0339538-16.4925817-4.8759201.22587053-10.973711 3.52922695-14.4851444 7.84093393-3.1067127 3.79946487-5.88194 10.02703797-5.1650063 15.88353797 5.4772194.4275406 11.100909-2.8919494 14.6161969-7.2318902z"/></g></g></g></svg>