<svg height="226" viewBox="0 0 226 226" width="226" xmlns="http://www.w3.org/2000/svg"><g fill="none" fill-rule="evenodd"><rect fill="#070707" fill-rule="nonzero" height="226" rx="42" width="226"/><g fill="#f87000" transform="translate(28.906977 55.186047)"><g transform="translate(44.674419)"><path d="m14.9572578 53.2085054c9.4631282 0 14.9572578-11.9663133 14.9572578-26.6465745 0-14.6802611-5.5802217-26.53631409-14.9572578-26.56188847-9.37703613-.02557438-14.9572578 11.51280827-14.9572578 26.56188847 0 15.0490803 5.49412957 26.6465745 14.9572578 26.6465745z"/><path d="m57.7382317 53.2085054c9.4631283 0 14.9572578-11.9663133 14.9572578-26.6465745 0-14.6802611-5.5802216-26.53631409-14.9572578-26.56188847-9.3770361-.02557438-14.9572578 11.51280827-14.9572578 26.56188847 0 15.0490803 5.4941296 26.6465745 14.9572578 26.6465745z" transform="matrix(-1 0 0 1 115.476464 0)"/></g><path d="m4.2758376 59.6031479c.57734564-1.2442008 1.98341967-4.3365928 6.3685505-4.4104801.7538722-.0304551 1.7894202.1836913 2.9046061.6852837 6.8368637 4.3208823 33.8333953 22.1793226 70.9655548 21.1513415 5.2903737.045925 36.389478-.2492907 66.670339-20.6511261 1.822181-1.2189253 3.385051-1.307844 4.808523-1.1116118 2.411246.4587989 4.182036 1.7730946 5.205697 4.2060997 1.680539 5.1943932 2.832661 11.9451954 4.330802 16.4407785.16881.5283488-.429661 1.6108166-1.522385 1.0175526-1.30952-1.0941445-6.794225-8.5833046-7.811046-9.9649051-.783698-.9548252-1.760964-.6902694-2.156618-.3911686-6.769289 10.1450667-24.136706 45.8940318-71.1273626 46.4250878-48.1029312-.653083-64.8789615-37.0865667-71.3927654-46.4250878-.4016097-.2744229-1.4314725-.6557337-2.30821876.5776992-2.47233253 3.3579098-6.42355405 8.6916002-7.66064891 9.7783745-.75648933.4366184-1.68207188 0-1.53539412-.9903256.62949101-2.021635 2.3598174-9.6254424 4.26036639-16.3375124z" transform="matrix(-1 0 0 1 165.55814 0)"/></g></g></svg>