<svg height="163" viewBox="0 0 815 163" width="815" xmlns="http://www.w3.org/2000/svg"><path d="m295.838707 55.9029294v-.1655982h-.067403v-.0403526h.067403v-.0175116c0-.023095.014583-.0410187.043749-.0537718.029166-.012753.069984-.0191294.122456-.0191294.016746 0 .03726.0012689.061542.0038068l-.001256.0426368c-.010048-.0011421-.022328-.0017131-.036842-.0017131-.045493 0-.06824.0097074-.06824.0291225v.0165598h.09001v.0403526h-.09001v.1655982zm-295.838707 106.8172876v-162.14281839h56.5619224c19.5934436 0 34.4546628 3.7677041 44.5841036 11.30322539 10.129441 7.5355212 15.194085 18.5787918 15.194085 33.1301432 0 7.94385-2.033251 14.9410147-6.099815 20.9917042s-9.7227 10.4865579-16.968577 13.3077382c8.281003 2.0787645 14.805891 6.2733513 19.574861 12.5838864 4.768971 6.310535 7.15342 14.031544 7.15342 23.16326 0 15.590733-4.95374 27.394969-14.861368 35.41306-9.9076279 8.018092-24.029483 12.101318-42.3659887 12.249801zm32.3693741-68.906206v42.525344h27.6952985c7.6153471 0 13.5602577-1.821466 17.8349101-5.464453 4.2746524-3.642986 6.4119466-8.674561 6.4119466-15.094874 0-14.427669-7.4356284-21.749602-22.3071082-21.966017zm0-23.0769425h23.9235652c16.3083378-.2885534 24.4623843-6.816976 24.4623843-19.5854638 0-7.1416965-2.0654523-12.2814768-6.1964189-15.419495s-10.6506118-4.7070037-19.5591311-4.7070037h-22.6303995zm154.2750179 90.4272535c-1.201433-2.338457-2.072459-5.246494-2.613105-8.7242-6.307525 7.015371-14.507185 10.523005-24.599226 10.523005-9.551395 0-17.465719-2.758139-23.743209-8.2745-6.277489-5.51636-9.416187-12.471667-9.416187-20.866128 0-10.313196 3.829512-18.227855 11.48865-23.744215 7.659138-5.516361 18.727177-8.304479 33.20445-8.36444h11.984238v-5.5762928c0-4.4970329-1.156362-8.0946053-3.469122-10.7928251-2.312759-2.6982197-5.962058-4.0473094-10.948007-4.0473094-4.385232 0-7.824283 1.049292-10.317258 3.1479073-2.492974 2.0986154-3.739443 4.9766733-3.739443 8.6342601h-26.040938c0-5.6362813 1.742052-10.8527612 5.226209-15.6495964 3.484157-4.7968351 8.40996-8.5592962 14.777557-11.2874962s13.516018-4.0922795 21.445479-4.0922795c12.014334 0 21.550569 3.0129668 28.60899 9.038991 7.058421 6.0260241 10.587579 14.4953091 10.587579 25.408109v42.181958c.060071 9.233908 1.351593 16.219194 3.874603 20.956069v1.528983zm-27.071084-14.547434c4.258661 0 8.184555-.952103 11.7778-2.856337s6.254868-4.459878 7.98495-7.667009v-18.641355h-10.779682c-14.439522 0-22.124959 5.011067-23.056541 15.033351l-.099812 1.70378c0 3.608022 1.264271 6.581255 3.792851 8.919788s5.98869 3.507782 10.380434 3.507782zm118.496331-56.9166892c-3.544237-.4796835-6.667924-.7195217-9.371155-.7195217-9.851776 0-16.309398 3.3277545-19.373061 9.9833632v63.6776677h-26.040997v-97.3153059h24.599281l.720858 11.602287c5.226247-8.9341054 12.464792-13.4010911 21.71585-13.4010911 2.883446 0 5.586637.389737 8.109653 1.1692227zm10.708684 73.2998012v-91.0789981c-.032594.0055588-.048897.0055588-.048909 0-.000012-.0055549-.033428-7.4241785-.033416-22.1939627 0-.0068763.011139-.0068763.033416 0l.048909-9.6313423c0-12.7022687 3.631678-22.5603375 10.895142-29.5745023 7.263465-7.0141648 17.428688-10.5211946 30.495974-10.5211946 4.170411 0 9.279087.69791638 15.326182 2.09377007l-.312779 23.45022483c-2.502247-.6281342-5.560502-.9421966-9.174857-.9421966-11.329615 0-16.994338 5.3390603-16.994338 16.0173411v9.1078998h22.415844v22.1939627h-22.415844v91.0789981zm117.267926-73.3007708c-3.544229-.4796658-6.667909-.7194951-9.371134-.7194951-9.851754 0-16.309361 3.3276312-19.373017 9.9829934v63.6753085h-26.040938v-97.3117005h24.599226l.720856 11.6018571c5.226235-8.9337744 12.464763-13.4005946 21.7158-13.4005946 2.88344 0 5.586625.3897225 8.109635 1.1691794zm37.17336 72.9424788h-26.484034v-99.11411h26.484034zm-26.484034-129.7881089c0-3.7542815 1.251077-6.8442977 3.753267-9.2701411 2.502191-2.4258435 5.910296-3.638747 10.224418-3.638747 4.2566 0 7.650324 1.2129035 10.181276 3.638747 2.530951 2.4258434 3.796408 5.5158596 3.796408 9.2701411 0 3.8120398-1.279837 6.9309346-3.839549 9.356778-2.559712 2.4258435-5.939057 3.638747-10.138135 3.638747-4.199079 0-7.578423-1.2129035-10.138136-3.638747-2.559712-2.4258434-3.839549-5.5447382-3.839549-9.356778zm82.864413 129.7881089c-13.210191 0-23.964125-4.299024-32.262123-12.897201s-12.446935-20.052427-12.446935-34.363092v-2.473436c0-9.599335 1.748382-18.1826605 5.245197-25.7502344s8.450562-13.3977574 14.86139-17.4907254c6.410828-4.0929679 13.723503-6.1394212 21.938244-6.1394212 12.322111 0 22.021465 4.1223519 29.098353 12.3671795s10.615279 19.93464 10.615279 35.0697875v10.423766h-57.364135c.77707 6.242512 3.122121 11.248225 7.035224 15.017289s8.86685 5.653568 14.86139 5.653568c9.269336 0 16.512631-3.56289 21.730101-10.688776l11.822507 14.045582c-3.607826 5.41803-8.492193 9.64344-14.653248 12.676359-6.161056 3.032919-12.988069 4.549355-20.481244 4.549355zm-3.114552-78.430706c-4.773431 0-8.644847 1.7078315-11.614365 5.1235458-2.969517 3.4157143-4.870535 8.3036459-5.70311 14.6639412h33.46935v-2.031751c-.11101-5.6535957-1.554118-10.0262334-4.329369-13.1180437-2.77525-3.0918104-6.716046-4.6376923-11.822506-4.6376923zm73.459945-16.3457794.78526 10.9512444c6.747456-8.4690047 15.7924-12.7034435 27.135104-12.7034435 10.004848 0 17.450204 2.9495056 22.336292 8.8486055 4.886088 5.8990998 7.387262 14.7184138 7.503598 26.458207v61.239358h-25.215579v-60.626089c0-5.3734372-1.163337-9.2720413-3.490046-11.6959288-2.326708-2.4238876-6.194804-3.6358132-11.604401-3.6358132-7.096462 0-12.418728 3.0371148-15.966958 9.1114354v66.8463956h-25.215579v-94.7939714zm68.22614 44.7671144c0-14.892543 3.363562-26.7534219 10.090788-35.5829927s15.928867-13.24429 27.605198-13.24429c9.364773 0 17.099485 3.4729124 23.204369 10.4188415v-73.3214931h25.782632v160.2040353h-23.204369l-1.244679-10.153955c-6.401237 7.946613-14.639743 11.919861-24.715765 11.919861-11.320706 0-20.403807-4.429435-27.249574-13.288438-6.845768-8.859003-10.2686-21.176069-10.2686-36.951569zm25.748365 1.880107c0 8.947298 1.570651 15.804829 4.711999 20.572797s7.705124 7.151917 13.691466 7.151917c7.942276 0 13.543275-3.325755 16.803164-9.977365v-37.7020794c-3.200619-6.65161-8.742347-9.9773651-16.625352-9.9773651-12.38758 0-18.581277 9.9772653-18.581277 29.9320955zm126.335141 19.649114c0-3.124279-1.541042-5.585348-4.623172-7.383282-3.082129-1.797935-8.028139-3.404261-14.838178-4.819029-22.66099-4.774842-33.991316-14.442277-33.991316-29.0025965 0-8.4886071 3.507705-15.5770773 10.523219-21.265623 7.015514-5.6885458 16.188381-8.532776 27.518876-8.532776 12.093689 0 21.76556 2.8589671 29.015903 8.5769872s10.87546 13.14544 10.87546 22.2824824h-25.449457c0-3.654817-1.174127-6.6758905-3.522416-9.0633113-2.348289-2.3874207-6.017436-3.5811132-11.007551-3.5811132-4.285627 0-7.602536.9726383-9.950825 2.9179441s-3.522416 4.4211124-3.522416 7.4274941c0 2.8295358 1.335569 5.1137621 4.006748 6.8527476 2.671179 1.7389856 7.176891 3.2421536 13.517272 4.5095496 6.340381 1.267397 11.682659 2.69688 16.026994 4.288494 13.443955 4.951688 20.165832 13.528589 20.165832 25.730962 0 8.724402-3.727853 15.783398-11.183671 21.1772-7.455818 5.393803-17.08366 8.090664-28.883813 8.090664-7.984183 0-15.072975-1.429484-21.266587-4.288494-6.193613-2.85901-11.051563-6.779037-14.573997-11.760199s-5.283624-10.360147-5.283624-16.137115h24.12855c.234829 4.539047 1.90796 8.016965 5.019443 10.433861 3.111483 2.416895 7.279634 3.625324 12.504578 3.625324 4.8727 0 8.556523-.928427 11.05158-2.78531 2.495058-1.856883 3.742568-4.288479 3.742568-7.294861z" fill="#f87000" fill-rule="evenodd"/></svg>