<svg height="3189" viewBox="0 0 1699 3189" width="1699" xmlns="http://www.w3.org/2000/svg" xmlns:xlink="http://www.w3.org/1999/xlink"><defs><path id="a" d="m176 54-121 105"/><filter id="b" height="191.1%" width="179.1%" x="-39.6%" y="-45.5%"><feMorphology in="SourceAlpha" operator="dilate" radius="5.5" result="shadowSpreadOuter1"/><feOffset dx="0" dy="0" in="shadowSpreadOuter1" result="shadowOffsetOuter1"/><feMorphology in="SourceAlpha" operator="erode" radius="6" result="shadowInner"/><feOffset dx="0" dy="0" in="shadowInner" result="shadowInner"/><feComposite in="shadowOffsetOuter1" in2="shadowInner" operator="out" result="shadowOffsetOuter1"/><feGaussianBlur in="shadowOffsetOuter1" result="shadowBlurOuter1" stdDeviation="12"/><feColorMatrix in="shadowBlurOuter1" type="matrix" values="0 0 0 0 0.477015399   0 0 0 0 0.289631838   0 0 0 0 0.270893482  0 0 0 0.815477491 0"/></filter><path id="c" d="m220 114c6.75717 27.951035 6.75717 51.561776 0 70.832223s-26.784486 51.816028-60.08195 97.636743"/><filter id="d" height="157.2%" width="246.1%" x="-74.7%" y="-28.3%"><feMorphology in="SourceAlpha" operator="dilate" radius="5.5" result="shadowSpreadOuter1"/><feOffset dx="0" dy="0" in="shadowSpreadOuter1" result="shadowOffsetOuter1"/><feMorphology in="SourceAlpha" operator="erode" radius="6" result="shadowInner"/><feOffset dx="0" dy="0" in="shadowInner" result="shadowInner"/><feComposite in="shadowOffsetOuter1" in2="shadowInner" operator="out" result="shadowOffsetOuter1"/><feGaussianBlur in="shadowOffsetOuter1" result="shadowBlurOuter1" stdDeviation="12"/><feColorMatrix in="shadowBlurOuter1" type="matrix" values="0 0 0 0 0.477015399   0 0 0 0 0.289631838   0 0 0 0 0.270893482  0 0 0 0.815477491 0"/></filter><path id="e" d="m.40943387 70.3374575c17.01260513-21.8555487 26.45278733-37.7862494 28.32054653-47.7921022 1.8677591-10.0058527-4.9137443-17.19513351-20.34451031-21.56784229"/><filter id="f" height="239.1%" width="432.7%" x="-170.2%" y="-68.9%"><feMorphology in="SourceAlpha" operator="dilate" radius="5.5" result="shadowSpreadOuter1"/><feOffset dx="0" dy="0" in="shadowSpreadOuter1" result="shadowOffsetOuter1"/><feMorphology in="SourceAlpha" operator="erode" radius="6" result="shadowInner"/><feOffset dx="0" dy="0" in="shadowInner" result="shadowInner"/><feComposite in="shadowOffsetOuter1" in2="shadowInner" operator="out" result="shadowOffsetOuter1"/><feGaussianBlur in="shadowOffsetOuter1" result="shadowBlurOuter1" stdDeviation="12"/><feColorMatrix in="shadowBlurOuter1" type="matrix" values="0 0 0 0 0.477015399   0 0 0 0 0.289631838   0 0 0 0 0.270893482  0 0 0 0.815477491 0"/></filter></defs><g fill="none" fill-rule="evenodd" transform="translate(-11 -45)"><g transform="translate(521 208)"><g transform="translate(697.87143 194)"><path d="m8.68770779 5.00902245c.19266059 1.51391459.19266059 4.18634958 0 5.92271965-.66120559 5.9591718-1.3893636 9.3525631-.67922505 10.3414454 1.37558569 1.9155309 5.05643466 9.0700963 1.85125476 10.8822963-3.20517993 1.8122001-11.64166587 13.8079378-9.52258227 13.8079378 2.11908361 0 6.18362913-.2863805 9.52258227-2.4636662 3.3389531-2.1772856 5.1166797-6.4496814 6.2790049-8.8969765s3.3379871-12.5035192 2.2501561-15.7125684c-1.0878309-3.2090492 3.6305032-9.47436719 1.2713362-12.36727346-2.3591671-2.89290626-3.427764-7.5932442-6.4615441-5.71041442s-3.0471972.91287677-4.51098281 4.19649983z" fill="#7b5042" fill-opacity=".215472"/><path d="m9.21999008 33.6073308c0-1.1273419-.79005356-2.4666213.62426301-4.5574194 1.41431661-2.0907981 2.69446491-4.0499114 3.75417441-4.0499114 1.0597094 0 1.9310563 3.3413315.4538535 5.9743311-1.4772027 2.6329997-4.83229092 3.7603417-4.83229092 2.6329997z" fill="#afaba9"/><path d="m11.9183558 26.1417011c.2179701 2.087874.2179701 3.5450668 0 4.3715785-.6987012 2.6493767-2.25841328 4.2847005-2.25841328 4.8250664 0 1.1898428-1.65994252.5957863-1.65994252-1.2765954 0-1.8723818 1.73462908-7.6366474 2.4868799-7.9200495.5015006-.1889348.9786592-.1889348 1.4314759 0z" fill="#101010"/><path d="m7.59607843 23.3860217c.74055926.6287767 6.94366777 4.7708948 5.84392487 6.8368167-1.0997428 2.065922-6.45092044 4.7766484-7.38874299 7.7376525s-2.10234795 8.1650562.74466891 6.1743409 10.33495238-6.6658553 11.57524538-11.8016872c1.2402929-5.1358318 2.7131921-10.2864585 0-11.7346998-2.7131922-1.4482413-8.91588968.0554803-9.84549292 1.1054964-.92960325 1.050016-1.67016251 1.0533037-.92960325 1.6820805z" fill="#d29677"/></g><g transform="translate(538.508685 72.977513)"><path d="m253.194606 474.033309c3.954484 7.878326 12.991016 18.964618 23.923148 23.891818 8.486225 3.82481 18.328442 2.607362 26.457401 1.796673 6.639079-.662106 16.693445 9.466484 19.014508-.8536 4.324842-19.229431 15.988018-22.195191 24.956471-26.656618 24.401894-12.138913 40.933625-21.97189 57.267292-52.70696 3.988054-7.504324 25.524113-22.25031 18.359303-23.880208-17.868331-4.064806-65.606468-51.201621-62.033996-91.155507.715302-7.99981 12.830636-12.313827 19.562717-19.118197 16.17005-16.343687 24.72555-37.756514 24.72555-50.284754 0-21.555142-.151448-14.476412-2.666628-31.471217-1.278334-8.637563-9.535086-21.76405-21.968171-21.434479-12.772984.338581-61.924402-128.16026-127.883563-128.16026-58.844621 0-116.963805 11.9271373-132.600634 54.770893-4.246653 11.635516-8.41367 26.843009-13.86442 42.204127-2.830287 7.976215-3.996014 15.146023-6.033833 22.645795-.9778312 3.598706-4.5457638 7.300113-4.0901915 11.152653.5648355 4.776524 6.2360105 15.227876 10.4638935 18.123996 6.75843 4.629555 13.034423 1.490079 13.034423 11.975138 0 6.291893-3.954356 11.634456-7.064343 15.909633-6.832503 9.39237-9.633045 18.248498-13.5734705 26.927273-3.2599603 7.180052-8.1551794 13.96034-9.1259653 23.307502-.8644607 8.323415 8.8284121 19.459019 14.9866008 21.552168 5.811601 1.975344 16.637871 7.941275 5.619603 39.190107 4.477469 13.101474 12.236019 28.477729 15.627098 41.153531 2.260173 8.448495 1.94453 21.43669 2.994642 33.15579.667255 7.446472 1.701624 14.276064 4.891145 19.43892 18.402961 29.78875 48.649924 11.235819 72.464084 8.323324 6.908079-.844864 22.408139-5.679168 32.157806.025736 9.385256 5.491674 12.256068 22.797741 14.39953 30.176723z" fill="#c18a6e" transform="matrix(.8660254 .5 -.5 .8660254 173.855832 -91.307828)"/><g transform="translate(316.362745 246.022487)"><path d="m43.8561106 68.8125841c4.2547301 1.7899988 4.2547301 3.8194817 0 6.0884486-6.3820952 3.4034503-5.2297672 7.6380612 0 7.6380612s12.1414799-1.6059669 16.8523782-4.2346109 17.6410349-9.2503323 22.5821122-22.8072605 6.9841499-20.5648723 0-26.4229582c-6.9841499-5.858086-32.1863216-.2143007-35.6070102 3.401624-3.4206887 3.6159247-5.977083 6.7978753-10.0557868 8.1311406-4.0787039 1.3332654-4.6410969 3.8696994-2.9113115 5.3809992 1.1531903 1.0075332 4.1997297 8.6157185 9.1396181 22.824556z" fill="#d09c7d"/><path d="m38.0785477 51.4362883c-6.814662 6.345405-11.0609514 9.5181075-12.7388681 9.5181075-2.5168752 0-7.6560617 9.557596 2.5414032 7.9554556s12.0941065-3.0559882 16.5147775 0c4.420671 3.0559883 12.3794337 3.928297 16.7850368 0 4.4056032-3.928297 7.9192979-13.148131 6.1435745-17.4735631-1.7757235-4.3254321-8.2322933-11.8121511-12.7880939-9.4449151-4.5558007 2.3672359-6.1597393 11.0276445-9.7414679 9.4449151-2.387819-1.055153-4.6266064-1.055153-6.7163621 0z" fill="#cc9879"/><path d="m47.7004569 51.5996681s-1.1296113-13.9894285 13.3520244-18.9576631 11.9103923-5.642005 8.1118131-5.642005c-3.7985791 0-17.3188776 4.4006511-21.4638375 8.3502426s-11.225809 19.2997167-13.8346505 21.2411528c-2.6088416 1.9414361 2.2893818-3.6924487 5.6128018-3.2066518 3.32342.485797 5.5616907 1.7850756 7.3491192 0 1.7874285-1.7850755.8727295-1.7850755.8727295-1.7850755z" fill="#d09c7d"/><g fill="#cc9879"><path d="m25.6145898 117.888712c-3.3452219-13.675279-6.6312071-21.9818085-9.8579554-24.9195902-3.0426671-2.7701856-4.0279995-11.8772424 0-23.139663.2436938-.6813761 1.8615598-1.5504227 2.2479007 0 0 4.1539584-1.0729153 9.9345694-1.0729153 14.3337799 0 3.2494102 8.9295234 21.4313293 13.1667429 24.6571273 1.2366084.941431 3.1524997 2.222123 2.9835625 2.417585-.3696557.427696-4.1717216.797572-5.2805616 3.411749-1.0770622 2.539258-1.8059868 3.618928-2.1867738 3.239012z" transform="matrix(.78801075 -.61566148 .61566148 .78801075 -52.646156 34.030216)"/><path d="m19.8724826 14.4259063c0 .7721026 4.9092423.5723917 8.3382356 1.0461525 5.1678488.7140067 10.1364342 2.0086483 15.0415186 2.9122837 7.5921076 1.3986501 18.2100392 9.3716481 19.0468002 9.6713363 1.7570987.6293096-.3277175-5.4039561-9.0081521-8.4404601-11.7859816-4.1228557-33.4903218-6.8271785-33.4184023-5.1893124z" transform="matrix(.64278761 -.76604444 .76604444 .64278761 -1.32437 39.202008)"/></g></g><path d="m140.721369 235.762524c-2.972576-8.029268-6.656004-13.027998-11.050282-14.996191-4.394279-1.968193-6.937943-1.226705-7.630992 2.224464 3.857724 3.159708 6.97127 5.524106 9.340637 7.093196 2.369367 1.569089 5.482912 3.461933 9.340637 5.678531z" fill="#171000"/><path d="m159.362745 219.694126c3.52198 14.262699 2.637631 21.705485-2.653048 22.328361-7.936018.934313-39.346952-14.294162-39.346952-14.294162s31.619584 24.631016 46.008483 18.354119c14.388898-6.276898-4.008483-10.310469 3.991517-37.69162 5.333333-18.254101 11.333333-30.201453 18-35.842058l-28.653048 43.095686z" fill="#9c6e58" fill-opacity=".177284"/></g><g transform="translate(633.87143 332.902727)"><path d="m1.99271762 4.1400695c-.40207931 6.2056863-2.65639906 6.0617197 2.71244729 10.3809606 5.36884639 4.3192408 35.84467369 25.8909467 38.13288839 28.5040216.9751783 1.1136254 1.7201178-.5189224-.3104826-3.5286321-2.7341174-4.0524466-8.9448545-10.5195498-11.6789326-15.3647274-4.7646492-8.4436402-12.6118354-20.49897265-19.3776543-22.28066689-6.76581889-1.78169425-9.07618688-3.91664213-9.47826618 2.28904419z" fill="#b58167"/><path d="m42.8380533 43.0250517c-27.3635556-12.7165238-41.47332722-19.8873657-42.32931482-21.5125259-.8559876-1.6251601-.63178155-5.4176436.67261815-11.3774505z" fill="#b58167"/><path d="m1.35065634 8.48873163c0 .81061898-.13555094.94390247-.28563565 1.50529654-.13433452.50248023.00341944-.18896379 0 .14104713-.00143315.138314.0793456.5010597.23380786.6506546 3.35571052 3.2499662 41.66336845 32.2393218 42.13258575 32.2393218.3261238 0-12.2801578-12.6145065-41.32531662-34.68314631-.50980282-.38735043-.75544134-.20001618-.75544134.14682624z" fill="#af7b62"/></g><g transform="translate(759.746757 76.529036)"><g transform="translate(94.944175 146.620769)"><path d="m8.1972099 0c-13.49061928 46.5560883-10.32952315 77.6301331 9.4832884 93.2221343 29.7192173 23.3880017 89.8101377 11.9705117 94.1966367 11.9705117 2.924332 0-31.635643-35.064215-103.6799251-105.192646z" fill="#100f0f"/><path d="m33.1271782 7.08262779c23.6498962 53.96897361 41.0148651 81.97636731 52.0949067 84.02218111 16.6200621 3.0687207-10.5425679.207618-12.8738254-.980191-2.3312575-1.1878089 11.054795 4.8005577 14.1486433 4.8005577 3.0938484 0-14.0316135-1.8075715-17.2815989-2.8139691s15.1744784 4.5691246 18.1787303 4.5691246c3.004252 0-19.2083593.3834843-21.8568522-1.7551555-2.648493-2.1386399-1.6792759 3.5809375 18.1912796 3.5809375 19.8705554 0-27.3606403 1.7329749-34.1753359-.9239811-6.8146956-2.6569564-22.9757093-15.0819649-20.4662009-33.1201886 1.6730056-12.0254825-.9624699-31.5627321-7.9064265-58.61174869z" fill="#1b1919"/></g><g transform="translate(83.124673 296.853727)"><path d="m106.554957 5.17812111c9.190313-8.62946986 13.785469-6.47301731 13.785469 6.46935769 0 19.4135624 15.256796 117.6090382 9.952816 120.5219162-2.87423 1.578491-1.146305 13.072428-12.63758 18.168011-9.714227 4.307585-32.4522688 2.452997-38.7666226 2.452997-13.7838081 0-34.8908766 6.915338-44.8433122 11.212233-9.9524357 4.296894-22.9638867-5.205404-20.9053299-17.772207 2.0585567-12.566803 8.1930558-22.380629-4.11299638-33.859141-12.30605219-11.478513-11.76396559-22.3577418 0-29.8458636 11.76396558-7.4881217 21.09883418-12.5713845 16.43139988-29.2319704 6.5288186-4.1539439 11.3546454-3.2896453 20.8843845-4.6059136 22.8075836-3.150233 42.8595112-23.4055542 48.6838544-29.2491106 3.8828955-3.8957042 7.7255343-8.6491405 11.5279173-14.26030869z" fill="#100f0f"/><g fill="#1b1919"><path d="m56.5148597 45.7586104c11.3173431-.4707529 21.503159 35.3679222 21.503159 25.8696849s1.9320164-16.9996011 9.1641414-11.7291041c7.2321251 5.2704971 16.1895169 24.9323992-9.1641414 30.1748097-25.353658 5.2424106-33.4215127 8.0072678-46.6159652-23.8463765-.6341707-1.5309956-4.4093661 8.201568-4.4093661 2.0155175 0-4.1240338-.3232472-9.2131081-.9697417-15.2672231 3.5612407-1.0287703 5.9621913-2.0478796 7.2028516-3.057328 7.1533326-5.8202234 20.5830739-2.4926301 23.2890624-4.1599804z"/><path d="m32.0287774 112.574491c19.02722 29.280095 29.4630292 38.057309 31.3074277 26.33164 2.7665979-17.588503-7.3307334-22.041315-9.3443709-13.10556-2.0136376 8.935756-4.4432609-19.300543 6-17.433547 10.4432608 1.866996 23.5326796 48.0921 5.4803868 42.648219-18.0522929-5.443881-25.056368.876894-28.0576707-10.134508-2.0008685-7.340934-3.7961261-16.776349-5.3857729-28.306244z" transform="matrix(.7313537 .68199836 -.68199836 .7313537 102.87152 -1.415899)"/><path d="m20.7201686 143.128308c8.0759872 12.204972 12.5054026 15.863622 13.2882463 10.975952 1.1742656-7.331506-3.111485-9.187594-3.9661611-5.462857-.8546762 3.724736-1.8859149-8.045145 2.5466633-7.266915 4.4325782.778229 9.9883021 20.046476 2.3261167 17.777275s-10.6350223.36552-11.9089069-4.224419c-.8492564-3.059959-1.6112425-6.992971-2.2859583-11.799036z" transform="matrix(.7313537 .68199836 -.68199836 .7313537 110.514078 20.118481)"/><path d="m16.7201686 119.128308c8.0759872 12.204972 12.5054026 15.863622 13.2882463 10.975952 1.1742656-7.331506-3.111485-9.187594-3.9661611-5.462857-.8546762 3.724736-1.8859149-8.045145 2.5466633-7.266915 4.4325782.778229 9.9883021 20.046476 2.3261167 17.777275s-10.6350223.36552-11.9089069-4.224419c-.8492564-3.059959-1.6112425-6.992971-2.2859583-11.799036z" transform="matrix(.7313537 .68199836 -.68199836 .7313537 93.071532 16.398963)"/><path d="m5.72016856 95.1283076c8.07598724 12.2049724 12.50540264 15.8636224 13.28824634 10.9759524 1.1742656-7.3315056-3.111485-9.1875943-3.9661611-5.462857-.8546762 3.724736-1.8859149-8.0451449 2.5466633-7.2669153s9.9883021 20.0464763 2.3261167 17.7772753-10.63502227.36552-11.90890687-4.224419c-.84925639-3.059959-1.61124252-6.9929711-2.28595837-11.7990364z" transform="matrix(.7313537 .68199836 -.68199836 .7313537 73.748462 17.453434)"/><path d="m25.7201686 101.128308c8.0759872 12.204972 12.5054026 15.863622 13.2882463 10.975952 1.1742656-7.331506-3.111485-9.187594-3.9661611-5.462857-.8546762 3.724736-1.8859149-8.0451449 2.5466633-7.2669153 4.4325782.7782293 9.9883021 20.0464763 2.3261167 17.7772753s-10.6350223.36552-11.9089069-4.224419c-.8492564-3.059959-1.6112425-6.992971-2.2859583-11.799036z" transform="matrix(.7313537 .68199836 -.68199836 .7313537 83.213378 5.425345)"/><path d="m18.7201686 77.1283076c8.0759872 12.2049721 12.5054026 15.8636229 13.2882463 10.9759525 1.1742656-7.3315057-3.111485-9.1875944-3.9661611-5.4628576-.8546762 3.7247368-1.8859149-8.0451444 2.5466633-7.2669148s9.9883021 20.0464759 2.3261167 17.7772751-10.6350223.3655203-11.9089069-4.2244184c-.8492564-3.0599592-1.6112425-6.9929715-2.2859583-11.7990368z" transform="matrix(.7313537 .68199836 -.68199836 .7313537 64.964893 3.751822)"/><path d="m53.9572932 106.885225c10.8958063 3.683279 18.380858 7.074586 22.455155 10.17392 11.2038911 8.522845 17.7368471 20.031089 18.6936432 13.881652 2.2180572-14.255706-5.8772494-17.864767-7.4916377-10.622223s-3.5622837-15.643336 4.8103641-14.130112c8.3726482 1.513224 18.8667932 38.979258 4.3937759 34.566924-6.254021-1.906641-14.5881819-15.532037-21.7170697-19.389691-9.3687402-5.069706-16.9849439-.77434-18.3514015-5.842637-1.604151-5.949921-2.5350941-8.829199-2.7928293-8.637833z" transform="matrix(.7313537 .68199836 -.68199836 .7313537 105.52429 -20.656301)"/><path d="m76.6955171 86.4035844c13.4599788 20.7129296 20.8423379 26.9219876 22.1470773 18.6271736 1.9571096-12.4422213-5.1858083-15.5921699-6.6102686-9.2709584-1.4244602 6.3212114-3.1431915-13.6533298 4.2444389-12.3326046 7.3876303 1.3207252 16.6471703 34.020663 3.8768613 30.169627-12.7703091-3.851037-17.7250372.62032-19.8481782-7.169217-1.4154273-5.193024-2.6854042-11.8676978-3.8099307-20.0240206z" transform="matrix(.7313537 .68199836 -.68199836 .7313537 91.904663 -36.03744)"/><path d="m103.655662 119.748773c12.562647 19.616733 19.452849 25.497188 20.670605 17.641362 1.826636-11.783738-4.840087-14.766981-6.169584-8.780308-1.329496 5.986672-2.933645-12.930752 3.961477-11.679923 6.895121 1.250828 15.537358 32.220178 3.618403 28.572951s-16.543368.587491-18.524966-6.789798c-1.321065-4.918193-2.506377-11.239621-3.555935-18.964284z" transform="matrix(.7313537 .68199836 -.68199836 .7313537 121.178536 -44.958101)"/><path d="m50.6999953 97.8862102s3.7994976-.9716136 2.5329984 9.2346418c-1.2664992 10.206256-2.5329984 20.732462-2.5329984 20.732462s11.9707503-28.1665191 15.3000047-31.3598283c3.3292544-3.1933093-15.3000047 1.3927245-15.3000047 1.3927245z"/><path d="m68.4044993 42.3318608s2.4203037-.6279986 1.6135358 5.9687745c-.8067679 6.5967732-1.6135358 13.400345-1.6135358 13.400345s7.6254427-18.2053187 9.7461986-20.2693016c2.1207559-2.0639828-9.7461986.9001821-9.7461986.9001821z" transform="matrix(.78801075 -.61566148 .61566148 .78801075 -15.961506 56.046379)"/><path d="m81.8645049 38.2375791s.2208439-2.2229317-.585924 4.3738415c-.806768 6.5967732-5.1437072 7.9765034-4.115288 9.6774417 1.0284193 1.7009382 2.410002-1.2898119 5.3563891 2.1030984 2.3490386 2.7050339 2.7721082 6.6912961 3.1903849 8.3167696.8546789 3.3213856-.2800066 8.9905054.3929244 7.455415 2.4229771-5.5272958 4.1689626-31.5238371 5.5077123-32.8267482 2.1207559-2.0639829-9.7461987.900182-9.7461987.900182z" transform="matrix(.78801075 -.61566148 .61566148 .78801075 -15.047444 63.328202)"/><path d="m105.161681 22.9851352c12.191001 30.4252329-5.3621834 45.1837194-6.6286826 55.389975s-2.5329984 20.7324614-2.5329984 20.7324614-2.7207904-6.414575-1.702851-14.3920053c.7335119-5.7484177 5.692584-11.6102291 4.2358494-19.7609553-1.8433874-10.3141274-15.2507129-30.6803324-14.0974948-31.7864605.6979879-.6694866 4.9590184-2.5121069 7.6344357-5.4718024 5.0555575-5.5927391 9.9492887-12.5538708 13.0917417-4.7112129z"/><path d="m110.838319 71.3257785s2.420304-.6579033 1.613536 6.2530019c-.806768 6.9109053-1.613536 14.0384566-1.613536 14.0384566s7.625443-19.0722386 9.746199-21.2345063c2.120756-2.1622678-9.746199.9430478-9.746199.9430478z" transform="matrix(.9612617 .27563736 -.27563736 .9612617 26.708502 -28.806393)"/><path d="m105.838319 101.277844s2.420304-.657903 1.613536 6.253002-1.613536 14.038456-1.613536 14.038456 7.625443-19.072238 9.746199-21.234506c2.120756-2.1622677-9.746199.943048-9.746199.943048z" transform="matrix(.9612617 .27563736 -.27563736 .9612617 34.770719 -26.267914)"/><path d="m100.741831 74.1886574s2.420303-.6579033 1.613535 6.2530019c-.806767 6.9109053 3.291728 13.7485007 3.291728 13.7485007s1.148059-25.2803291 3.268815-27.4425969c2.120756-2.1622677-8.174078 7.4410943-8.174078 7.4410943z" transform="matrix(.9612617 .27563736 -.27563736 .9612617 26.202986 -25.823334)"/><path d="m115.335416 79.6390432s1.452182-.3588564.968122 3.4107283c-.484061 3.7695847-.548227 16.7079807-.548227 16.7079807s4.155371-19.45368 5.427824-20.6330987c1.272454-1.1794188-5.847719.5143897-5.847719.5143897z" transform="matrix(.8660254 .5 -.5 .8660254 60.470156 -47.212829)"/><path d="m118.598076 101.245321s1.452182-.358856.968122 3.410728c-.484061 3.769585-.968122 7.65734-.968122 7.65734s4.575266-10.403039 5.847719-11.582458c1.272454-1.1794183-5.847719.51439-5.847719.51439z" transform="matrix(.8660254 .5 -.5 .8660254 69.447748 -46.555745)"/><path d="m119.531388 89.0077624s1.452183-.3588563.968122 3.4107283c-.484061 3.7695847-4.0569 10.1423533.502646 7.5339521 4.559546-2.6084009 3.104498-10.2796513 4.376952-11.4590701 1.272453-1.1794188-5.84772.5143897-5.84772.5143897z" transform="matrix(.8660254 .5 -.5 .8660254 63.520696 -48.424364)"/><path d="m119.598076 114.245321s1.452182-.358856.968122 3.410728c-.484061 3.769585-.968122 7.65734-.968122 7.65734s4.575266-10.403039 5.847719-11.582458c1.272454-1.179418-5.847719.51439-5.847719.51439z" transform="matrix(.8660254 .5 -.5 .8660254 76.081722 -45.314075)"/><path d="m106.266679 66.9985785c3.564651-1.7478116 6.498162-2.5127151 8.800532-2.2947104 2.30237.2180046 5.23588 1.5384391 8.800531 3.9613035-3.695735-25.3591067-5.543603-41.7561866-5.543603-49.1912398 0-11.15257984 1.549714-15.14235425-2.48582-13.91630523-4.035533 1.22604902-12.753675.91835636-9.57164 9.35590293 3.182035 8.4375466 10.015871 35.7356303 6.598953 41.0482471-2.277945 3.5417445-4.477597 7.2206785-6.598953 11.0368019z"/></g></g><path d="m.13845737 54.1585315c.58181842 0 7.97928237 1.2488254 16.73288233-1.1596135 3.5090707-.965475 7.4966205-5.9151995 10.9500806-6.5501166 16.7384486-3.0773566 32.5532459-3.0907976 37.2382416-2.3192216 9.3789676-12.5141133 23.7835447-30.1903002 17.3857432-38.59409797-6.3978015-8.40379778-16.2412582-4.74103018-19.2522493-4.74103018s-11.1049296.01511412-19.9337981 4.74103018c-8.8288684 4.72591607-23.6016268 20.97710387-24.7432831 26.37301657-1.1416564 5.3959126-20.32312618 22.2500331-18.37761723 22.2500331z" fill="#100f0f"/></g><g transform="translate(656.87143)"><path d="m219.364762 389.956382c28.305869 0 96.002279-3.907688 143.332727-38.808063 16.344348-12.051943 33.059122-26.309712 42.825437-45.192318 12.166896-23.523989 15.4147-52.678474 15.4147-75.694989 0-58.516335-11.348867-92.228003-30.37954-120.362241-11.862927-17.5377098-26.281826-36.1664187-44.111599-47.3038981-.960384-.5999099-9.50636-.6626179-15.887126-5.466275-2.953082-2.2231802-9.998822-11.2142229-13.665978-12.8524765-7.973616-3.5621083-11.657129-.1718401-20.3054-.9405283-9.525244-.8466366-16.191113 5.0076124-25.211072 7.5714688-9.370593 2.6635212-18.934474 1.7399151-19.515634 2.2440114-.77793.6747732 69.296206 3.7534535 76.352992 7.0617877 7.056786 3.3083341 12.248024 12.9437586 13.60419 15.8756821 3.574549 7.7278927-19.995623 14.6919116-25.556236 14.6536119-52.077162-.3586903-48.226071 7.5772969-50.974989 16.923639-8.35504 28.407199-18.384521 75.334859-18.384521 122.026826 0 17.26828-10.41461 44.313699-9.158322 64.18064.838561 13.261002 6.341615 27.17677 2.631552 37.061027-8.274426 22.044518-49.797629 64.944844-83.469997 101.056423-19.603804 21.023894-35.865956 41.303892-43.14171 49.744061-2.529553 2.934383 1.816347 1.455017 1.819264 1.950923.003851.654658 89.323735-94.766254 90.372744-94.447225 2.054383.624788 6.291235.717913 13.408518.717913z" fill="#b67a74" transform="matrix(.68199836 -.7313537 .7313537 .68199836 -107.564476 278.921404)"/><path d="m81.9891713 149.410992c-3.9618699 5.224078-2.5115762 9.65956-5.3162327 11.649182-2.8046564 1.989621-7.2333396 2.116522-8.720646-1.97376-1.4873063-4.090281-1.6126963-26.319808 2.4292419-38.195598s8.8392377-14.493117 11.6076368-15.639 10.4481572-.681336 7.5120679 8.348253-7.5120679 18.738711-7.5120679 23.241419c8.1873609-5.684849 3.9618699 7.345425 0 12.569504z" fill="#4a3522"/><path d="m159.785695 143.605234c6.728069 4.721558 3.992251 18.801698-3.773785 18.801698-3.573024 0-7.362758-8.029118-15.940953-12.219883-10.066679-4.917944-25.172959-6.074858-31.137097-5.447408-11.0464032 1.162123-24.4329842 3.757476-28.3948541 8.981555-3.9618699 5.224078.4939533-13.586007 1.889227-17.22028 8.1873609-5.684849 36.6238741-11.182005 57.6427241-4.991064 7.132569 2.26442 17.93253 10.457698 19.714738 12.095382z" fill="#4a3522"/><g transform="translate(162 72)"><g stroke-linecap="square"><use fill="#000" filter="url(#b)" xlink:href="#a"/><use stroke="#7f5551" xlink:href="#a"/></g><g stroke-linecap="square"><use fill="#000" filter="url(#d)" xlink:href="#c"/><use stroke="#7f5551" xlink:href="#c"/></g><g stroke-linecap="round" stroke-linejoin="round"><use fill="#000" filter="url(#f)" xlink:href="#e"/><use stroke="#7f5551" xlink:href="#e"/></g></g><path d="m301.900023 337.241665c1.856985 6.8859 5.228343 13.202623 10.114076 18.95017 7.3286 8.621321 10.186233 22.927093 4.379992 40.772809-5.80624 17.845715 2.596448-27.498572-9.404877-38.074381-2.451426-3.5172-4.147823-10.733399-5.089191-21.648598z" fill="#441727" fill-opacity=".9"/><path d="m307.114077 360.836964c10.054546 91.401063 15.081819 145.309539 15.081819 161.72543-4.534041 3.718464-11.883343-114.520435-13.527132-131.862069-1.355239-12.08351-1.873468-22.037963-1.554687-29.863361z" fill="#441727" fill-opacity=".9"/></g><g transform="translate(719.87143 205.749488)"><path d="m77.6489657 88.2904102c32.3086583 0 11.909375-33.7109384 11.909375-57.4591827 0-23.74824419-10.4368741-13.7352953-42.745532-13.7352953-20.3315286 0-26.4539877 17.6239578-34.0824504 30.5185181-4.49386206 7.596075 5.0340678 21.626352 16.1405103 28.1709904 9.860645 5.8105335 33.5836068 12.5049695 48.7780971 12.5049695z" fill="#331c15" fill-opacity=".01" transform="matrix(.90630779 .42261826 -.42261826 .90630779 26.862418 -17.877807)"/><path d="m24.9187524 41.061181c-.19983 2.1517576-2.7474873 20.6731455 12.8017281 23.4037133 15.5492153 2.7305677 21.1484213-3.5206894 29.5314609-.7972745-7.4335102-17.8041242-4.5985181-28.605095-21.2519414-32.1215727-5.7552836-1.2152652-10.5577619-1.3575151-14.836529.6570368-3.9752276 1.8716377-6.0448887 6.7063394-6.2447186 8.8580971z" fill="#d8d8d8" fill-opacity=".78"/><path d="m33.5630245 50.7767915c5.0165271 0 7.8651787-4.8425419 7.8651787-10.9176742 0-6.0751322-2.8486516-11.0823258-7.8651787-11.0823258-5.016527 0-8.1348213 5.0160195-8.1348213 11.0911518 0 6.0751322 3.1182943 10.9088482 8.1348213 10.9088482z" fill="#101010" transform="matrix(.8660254 .5 -.5 .8660254 24.366925 -11.385022)"/><path d="m67.7024168 63.1756307c-1.493958 0-20.0519869-3.2029583-29.8110564-8.3327832-7.679033-4.0364601-13.631605-8.8232528-16.2261833-10.677309-1.7841135-1.2749072-3.4362376 5.1664313-.7496906 12.8695832s12.1251296 15.0870801 22.5682383 15.0870801c6.769514 0 21.8048614 1.5203778 28.1744172 0 3.4565504-.8250595-3.016671-8.9465711-3.9557252-8.9465711z" fill="#c18a6e"/><path d="m72.6653862 71.541847c-.3469237-.5194205-5.2304308-5.37642-8.418215-12.000211-3.2206265-6.6920331-4.7703902-15.1708253-9.9874119-19.5243724-2.5121879-2.0963931-11.3955855-9.535877-14.9001119-9.6014869-1.5863727-.0296992-4.635672.2534874-7.0347866 1.4247847-2.4622118 1.2021027-4.258968 3.3010265-4.6194583 3.9025489-1.0704313 1.7861464-4.623875 6.8647439-1.7255213 11.7568897 2.8983538 4.8921458-5.4602655 6.500912-6.0815841 6.500912-.1847674-.700472-2.5609849-9.4311818-1.2047531-12.939731 1.4760496-3.8185159-1.4805385-5.1515011 0-7.4209658 2.41606-3.7034923 14.4054397-10.2428408 17.887902-11.0714949 6.5955477-1.5694146 20.1036914 3.7319819 25.4827322 8.9536385 11.5587337 11.2205394 11.8293168 41.858235 10.601208 40.0194882z" fill="#c18a6e"/><path d="m25.4400882 1.83500673c-1.5665423 7.88896685-.5809098 11.83345027 2.9568976 11.83345027 5.3067112 0 42.1419437 1.419264 58.4746131 16.8354475 16.3326691 15.4161835 13.5586001 5.0465323 9.1109481 0-4.4476522-5.0465323-23.4528023-21.09558335-33.9183688-24.93966743-6.9770444-2.56272272-19.1850744-3.8057995-36.62409-3.72923034z" fill="#171717"/></g><g fill="#171717" transform="translate(701.879913 185)"><path d="m43.4316055 22.5844947c-1.5665424 7.8889668-.5809099 11.8334503 2.9568976 11.8334503 5.3067112 0 42.1419437 1.4192639 58.4746129 16.8354475 16.33267 15.4161835 13.5586 5.0465323 9.110948 0-4.447652-5.0465324-23.452802-21.0955834-33.9183686-24.9396675-6.9770444-2.5627227-19.1850743-3.8057995-36.6240899-3.7292303z"/><path d="m0 9.19056103c2.83098701 9.88555727 4.8652589 14.21866117 6.10281569 12.99931187 1.85633517-1.8290239 1.95151063-10.061287 3.16065271-11.5302994 1.2091421-1.46901247 1.7454351-3.9303325 0-6.50751829-1.74543508-2.57718579-3.68235016-5.19304481-5.69700832-2.68786132-.748856.93118611-2.1912656 2.07744877-2.84419671 3.57151374-.34541928.79040321-.58617374 2.17535434-.72226337 4.1548534z"/></g><path d="m690.564279 479.696152c-4.16854 1.071797-6.25281 3.506413-6.25281 7.303848-19.962154-5.279831-31.944699-10.439542-36.807752-2.009091-4.863053 8.430452-16.572025 27.68138-20.275123 34.845235-3.703099 7.163856-7.824193 14.838528 0 19.692892 7.824192 4.854365-11.973791 7.876811-11.973791 15.926455s-15.265435 0-27.707584 0c-12.44215 0-26.780689-.604051-37.893295 4.344357s-30.583395-8.688713-45.135348-4.344357c-14.551953 4.344357-74.378022 37.120747-108.637935 45.056752-34.259912 7.936006-46.429865 2.358741-97.116342 36.188006-50.686477 33.829264-35.873334 34.063284-49.971698 30.774484s-21.154706-3.294938-28.614093 0-4.451899-10.19886-20.692331-2.588076c-16.240431 7.610784-16.632223 10.399359-24.1714 9.005072-7.539177-1.394288-9.52371-5.077948-17.920123-5.077948-8.396414 0 0-13.279067 0-22.6963 0-9.417232 4.888659-9.549037 0-39.349872-4.88866-29.800835-1.903455-41.290476-1.903455-49.004682 0-7.714205-11.314654-50.765467-5.657327-67.991068 5.657327-17.225602-18.036218 1.758358-13.768346-34.833455 2.845248-24.394542 3.680134-48.900321 2.504659-73.517337-27.823077.471646-47.1820079 2.582323-58.0767912 6.332031-16.342175 5.624562-25.2638108 1.882135-34.2145706 0-5.9671733-1.254757-12.1111126-2.139801-18.4318182-2.655133-1.9148995-.60594-2.8723493.279104-2.8723493 2.655133 0 3.564043 9.648521 16.367658 6.2604352 37.477666-3.3880859 21.110008-9.6485211 31.689282-6.2604352 40.123092-9.7625899 6.458235-8.6206884 8.511473-12.1483265 16.464738-3.52763816 7.953265-22.12105993 145.548305-6.95489937 224.20059 15.16616057 78.652286 34.50594067 126.067673 46.50651197 134.586646 12.0005713 8.518974 136.9262802 44.940469 257.8272612 44.940469 38.523054 0 61.815277-1.870779 69.876669-5.612336 10.532513-2.905974 15.798769 1.716262 15.798769 13.866708 0 18.225668-.338888 200.646229-15.798769 250.078189-15.459882 49.43196-38.123286 70.75276-26.791584 92.66443s8.006128 66.84559 4.003064 81.52143-37.070102 102.48648 31.869832 122.76784 292.409265 29.72909 343.836569 33.79402c51.427303 4.06494 116.16928 8.28455 138.653257 0 65.456589 16.96508 74.896486 26.52368 99.439087 21.74438s59.092933-1.80165 53.071693-55.5384-19.45012-55.56062-9.72506-169.53116c9.72506-113.97055 30.6087-181.92484 30.6087-238.41769-8.45306 130.56933-28.30924 287.63872-20.88364 347.79379 7.42559 60.15506-18.81749 106.93754-5.69595 156.95823-14.66274 26.12867-20.917293 28.43487-17.79002 52.79352 3.12728 24.35864 13.68912 86.2872 8.4082 100.87816s84.12907 6.50132 101.11372 27.58687 20.84102 24.31602 20.84102 9.0341 6.03919-56.35824 0-71.47415c-6.03918-15.11591 11.02398-7.94158 24.67047-24.23302 13.6465-16.29144 9.71834-42.54798 16.30042-72.62725s16.73787-321.35104 16.73787-357.54128c0-36.19025-5.39309-378.371089-29.17069-449.564823-23.77761-71.193734-23.56898-101.4616-41.31862-111.949259-11.83309-6.991772-19.21307-11.631834-22.13994-13.920186l-12.75499-57.435959c1.41613-19.870648-.74145-30.784687-6.47274-32.742116-8.59694-2.936143-44.10768-10.468746-95.145783-11.594457-1.786287 1.43608-2.679431 2.924135-2.679431 4.464165-28.413261-3.08006-49.343727-3.850075-62.791397-2.310045s-27.043474 5.351234-40.787411 11.433612c-5.763451 3.184051-11.72909 5.576019-17.89692 7.175902-9.251744 2.399825-28.460914 17.472734-48.333473 19.292425s-33.073794-4.280515-41.292581 0c-8.218787 4.280514-36.585436 3.041417-48.081073-7.139012s-26.564581-13.994769-24.261225-37.926783c2.303356-23.932013 6.380151-24.675638 3.190076-31.395807-3.190076-6.720168-4.96988-8.333444-6.097762-8.744185-.751922-.273827-1.469015-.273827-2.151281 0z" fill="#315a51"/><g transform="translate(429.199254 660.78256)"><path d="m284.035891 0 115.822551 180.647673 26.401873 21.560353-4.344477 6.75507-6.295266-3.663222h-2.883921v3.663222l5.269158 35.594285 17.000936-17.318743 2.299023-9.253567-7.353493-6.034935 5.05447-6.650262 27.694774 27.116637-4.352929 8.102365h-8.658526l-28.843531 20.625741-12.588038 31.489984v7.325696l7.362077 6.679443-2.883921 5.522794-6.090409 2.090375-6.7878-4.572555-33.744464-28.130372-19.861193 9.518151 18.820133 36.007746 1.04106 9.046784-40.304838 24.83606h-5.834286l-15.000413-4.185254h-53.08287v5.949055c-41.481061 30.396186-63.729539 47.048241-66.745434 49.956164-3.015894 2.907924-8.091329 9.122795-15.226304 18.644615-8.680478-9.880159-13.020717-14.820239-13.020717-14.820239s-36.891769-74.5988-36.891769-74.5988-33.4174802.417198-61.3069237-17.423663c-9.4176765-6.926483-16.6997162-36.492701-20.8539999-42.930619-2.7695226-4.291945-4.4746564-6.871045-5.1154016-7.7373l1.4271078-5.318441c21.7785113-2.445654 33.8439285-5.92533 36.1962515-10.439028-2.76517-5.00083-5.9050926-10.159988-9.419768-15.477476-14.7458274-.434275-24.1470245-1.572104-28.2035913-3.413488-6.0848501-2.762075-27.51789379-.52213-32.19492149 3.413488-1.55424744-4.786311.42856088-12.640339 3.91776068-12.855282 3.4891998-.214942 11.70185471-3.699026 14.13108061-14.060804 2.4292259-10.361777 9.4761952-27.825029 10.9283023-35.013978.9680714-4.792632 2.0406641-8.570105 3.2177779-11.332418-4.7584542-1.529486-7.1376813-3.78324-7.1376813-6.761262 0-4.467033 3.0834955-7.589813 7.1376813-6.028423 4.0541859 1.56139 1.5142485 5.200586 12.440408 4.197754 10.9261595-1.002833 31.5992219-.678555 37.1090862-14.62964 5.5098644-13.951085 16.9985807-29.217719 34.188302-37.896081 17.189721-8.6783624 49.23788-42.2729877 57.037787-52.9640735 7.799908-10.6910858 66.075916-36.3391299 81.319623-43.9841503 10.162472-5.09668029 19.899026-8.84647336 29.209663-11.2493792z" fill="#d8d8d8"/><g fill="#315a51" transform="translate(95.727014 3.21744)"><path d="m164.945162 9 22.0288-9 7.566652 9v4h-29.595452z"/><path d="m148.945162 16h47v3h-47z"/><path d="m142.945162 21h54v4h-54z"/><path d="m125.945162 27h66v5h-66z"/><path d="m139.945162 35h54v4h-54z"/><path d="m130.945162 41h81v5h-81z"/><path d="m111.945162 41h13v4h-13z"/><path d="m100.945162 47h23v4h-23z"/><path d="m87.945162 55h32v5h-32z"/><path d="m78.945162 63h38v4h-38z"/><path d="m72.945162 70h17v2h-17z"/><path d="m67.945162 78h11v5h-11z"/><path d="m55.945162 88h17v3h-17z"/><path d="m47.945162 95h22v4h-22z"/><path d="m36.945162 103h31v5h-31z"/><path d="m24.945162 111h41v6h-41z"/><path d="m13.9451623 119h31.5l-15.083131 7h-22.29842582z"/><path d="m1.94516231 129h12.99999999l-4.99889575 5h-9.94626655z"/><path d="m132.987853 49.551809h89v4h-89z" transform="matrix(.99939083 .0348995 -.0348995 .99939083 1.907253 -6.162833)"/><path d="m126.022055 54.591769h34v5h-34z" transform="matrix(.99939083 .0348995 -.0348995 .99939083 2.079599 -4.956619)"/><path d="m197.022055 63.591769h34v5h-34z" transform="matrix(.99939083 .0348995 -.0348995 .99939083 2.436946 -7.429001)"/><path d="m162.022055 57.591769h34v5h-34z" transform="matrix(.99939083 .0348995 -.0348995 .99939083 2.206228 -6.211173)"/><path d="m194.022055 127.591769h34v5h-34z" transform="matrix(.99939083 .0348995 -.0348995 .99939083 4.668686 -7.285315)"/><path d="m236.022055 134.591769h34v5h-34z" transform="matrix(.99939083 .0348995 -.0348995 .99939083 4.938568 -8.74683)"/><path d="m123.619247 64 95.325915 7.6405198-2.674084 6.8936543-95.325916-7.6405198z"/><path d="m99.6123501 75 125.3328119 10.0715943-2.667188 6.8936543-125.3328117-10.0715943z"/><path d="m77.6089509 84 168.3362111 13.5445579-2.663788 6.8936541-168.3362117-13.5445577z"/><path d="m75.7803057 96 179.1648563 13.544558-2.835143 6.893654-179.1648567-13.544558z"/><path d="m72.9672383 107 190.9779237 13.544558-3.022076 6.893654-190.9779237-13.544558z"/><path d="m216.999477 143.303224h50v5h-50z" transform="matrix(.98480775 .17364818 -.17364818 .98480775 28.99498 -39.80769)"/><path d="m266.322077 154.827517 14.425842 7.221421-5.02146.885419-20.164553-6.209531z" transform="matrix(.98480775 .17364818 -.17364818 .98480775 31.663261 -44.150854)"/></g><g transform="translate(9.098521 123.659711)"><g transform="translate(0 36.402116)"><path d="m24.1921016 4.14715435s6.6353931 3.21182571 3.3176965 14.01311315c-2.2117977 7.2008582-5.8830125 18.6864077-11.0136446 34.4566484-1.6627466 9.4472995-3.9873911 14.6497432-6.97393353 15.607331-2.98654242.9575877-6.16061575 3.4256503-9.52221997 7.4041877 9.92969958-2.4805783 16.6299283-2.9225275 20.1006862-1.3258476 5.2061368 2.3950199 21.4911642 6.0924973 28.6743773 3.0462487 7.1832131-3.0462487 17.0235454-8.6530943 19.3272173-19.6747408 2.3036718-11.0216464-.2027587-18.0325117-7.9762633-20.0680632-5.4507244-1.4273137-.6574549-2.6318139 3.3964842-6.5381396 1.7275519-1.6646477 11.6334814-25.46132059 8.2271488-30.5295791-1.2667569-1.74871538-1.6434601 1.32276992-6.6335465 1.32276992-4.9900865 0-22.9040575 5.21352315-28.8874782 3.74979729s-12.0365242-1.46372586-12.0365242-1.46372586z" fill="#315a51"/><g fill="#fff" transform="translate(23.366993 3.268359)"><path d="m21.6455781 36.2693153c4.418278 0 12.6716683-9.9260536 12.6716683-16.829613s-4.9016199-16.4397023-9.3198979-16.4397023-8 5.59644063-8 12.5c0 6.9035594.2299516 20.7693153 4.6482296 20.7693153z" transform="matrix(.89879405 .43837115 -.43837115 .89879405 11.203939 -9.260274)"/><path d="m14.833227 72.0280716c3.0862154-.1047929 7.4876861-2.4754987 9.5209852-3.9610461 4.4034355-3.2171914 3.5614282-10.6065933 3.5614282-14.1996188 0-4.0127099-2.9189316-11.7810165-6.9557238-15.3874346-2.9081991-2.5981475-6.8126996-1.7750992-8.6628434-1.7750992-4.41827796 0-7.99999996 5.5964406-7.99999996 12.5 0 4.4168864-1.33857749 14.7858832 1.66708235 20.0569575 1.6921633 2.9675742 7.76253501 2.8038138 8.86907141 2.7662412z" transform="matrix(.97029573 .2419219 -.2419219 .97029573 13.614184 -2.255048)"/></g></g><path d="m79.9367385 29.9224186-6.9367385 58.1418194 13.628493-10.8937632v-3.292906h-3.6462362v-18.8579084l3.6462362-1.4370807 7.4725811 18.7871809c19.3150539-8.3195051 36.4725809-13.2910647 51.4725809-14.9146789 0-1.6236142 0-2.9144482 0-3.872502h-4.392942l7.899805-17.1804637 10.493137-1.5189692v15.7151726l-7 4.421341v2.4354213h15.5l1.530792-57.4550817h-5.637396l-29.393396 55.0196604h-3.757141l3.757141-9.4619309h-3.757141l-7.242859 11.8973522-10.190778 1.8500508 5.66878-20.8268005c1.095352-2.3967901 2.827932-3.5951852 5.197739-3.5951852s3.55471 1.8915276 3.55471 5.6745827c-.257928.8291202.179658 1.2436803 1.312758 1.2436803 1.69965 0 4.213933-7.6812341 2.956791-9.1914551-1.257141-1.5102209 3.385777-4.4338538 3.385777-11.2982898-2.257185 2.2729861-4.80896 5.1432373-7.655326 8.6107537-4.773839 0-6.941133 0-6.501882 0s2.103507-4.8382513 4.992769-14.514754c4.751384-5.2812322 8.069007-7.32652945 9.952869-6.13589172 1.883862 1.19063772 2.161682 3.23593492.833459 6.13589172h4.751747c1.65872-3.8677395 2.905582-6.47633029 3.740587-7.82577223 1.252508-2.0241629 1.995368-4.58604661-1.198787-3.91063474-2.129436.45027458-12.071799 3.7457652-29.827089 9.88647187l2.898868 1.8499351-14.547921 47.8349202-9.927204-16.2332992c6.0375818-9.1844008 9.34665-15.4226549 9.927204-18.7147625.870831-4.9381613 1.947174-11.1537516-3.425239-10.4292598-5.3724129.7244918-13.4457118 7.3469774-16.4912302 9.7020664-2.0303455 1.5700593-3.0455183 2.3550889-3.0455183 2.3550889z" fill="#315a51"/><path d="m87.5017617 27.3215943c0 .9321394-.5049642 7.0108511-1.5148928 18.2361352 1.0920393 1.0170736 2.1672907 1.0170736 3.2257543 0 1.5876954-1.5256105 4.8884509-8.4082808 4.8884509-12.5251191s-.3667104-6.9431755-2.6275807-7.6183449c-2.2608702-.6751695-3.9717317.5091196-3.9717317 1.9073288z" fill="#fff"/><path d="m159.573655 15.8344447v15.3032425c-5.666666-.810179-8.5-1.2152686-8.5-1.2152686s8.5-15.1861657 8.5-14.0879739z" fill="#fff"/><path d="m203.573655 2.05772947h5.374354v3.5l-6.785717 3-4.560011 12.41507483 3.01686 1.2229059 14.761154-11.1379807v-2.50000003l-2.324683-1.67240236v-2.84497335l22.592232 1.51737571v3l-13.395605 3.56899033-17.350439 13.0924109 10.478495 31.1839277h1.244767l28.767864-45.3453289 10.875068 1.0689903v54.5864139l4.415404 2.4707013-1.352332 4.6937338c-11.452145-4.77629-19.346553-7.1644351-23.683222-7.1644351 0-1.953552.468752-3.1346987 1.406258-3.5434402h7.179802l1.159022-16.8491588-12.950855-2.2884157-8.352928 12.3709394 8.352928 4.6385798-3.299232 2.1280553-25.569184-3.864561-8.036958-23.5352998h-3.150185l-3.159312 16.363011 1.777113 2.680603h4.532384l-1.802832 3.1327629-11.624242-1.5431512 15.492658-54.34532893z" fill="#315a51"/><path d="m239.573655 36.402116 10 1.5655331v-13.9717075l-5-.5382831z" fill="#fff"/><path d="m267.329033 14.2594598 28.45211 11.1014935-2.418849 1.9084109c-4.168275-1.9365212-7.00845-1.5888664-8.520526 1.0429643-1.512075 2.6318307-2.934779 14.8508512-4.268113 36.6570615l23.167194-35.0469714 10.513184.7902352c-2.789818 31.4564543-3.841921 47.1846815-3.15631 47.1846815s6.921575-9.0649488 18.707892-27.1948463c1.149869-3.4769207.75732-6.1016769-1.177645-7.8742685-1.934966-1.7725917-3.422999-3.3927821-4.464098-4.8605714-.467877-1.2877555.15917-1.6096944 1.881141-.9658166s9.615264 4.2437086 23.679877 10.7994924c-.768794 1.3820396-1.153191 2.0730594-1.153191 2.0730594s-1.262572-3.2648587-8.963115 3.1792506c-5.133694 4.2960728-14.394665 17.8745652-27.782912 40.7354771-7.741287-2.0090864-11.61193-3.0136297-11.61193-3.0136297s.417409-15.0725842 1.252228-45.2177528l-20.892315 34.5480715-13.244622-4.9988428 4.091285-47.837594c-.991887-5.1100419-2.355649-8.0139201-4.091285-8.7116347-1.735637-.6977147-1.735637-2.1304712 0-4.2982697z" fill="#315a51"/><path d="m357.230005 55.9159251c-2.365148 1.9850716-12.401571 14.6094673-30.109271 37.8731869l-5.916568 2.8089698v2.9964321l20.47368 9.6038631c-1.640507-.897405-2.46076-2.014264-2.46076-3.350575s-1.451709-3.420741-4.355125-6.2532881l7.894159-13.5935697 14.473885 7.7881678v15.409265c-.896985 2.639134-1.712518 3.958701-2.446599 3.958701-.734082 0-2.420253 0-5.058516 0l24.510365 18.375016v-3.842431l-4.083829-4.646352-1.522933-65.0212463c-5.233845-3.3891647-9.033341-4.0912112-11.398488-2.1061396z" fill="#315a51"/><path d="m354.783406 67.8174962s-1.686172 3.5098635-5.058516 10.5295906c6.598702 3.753845 9.898053 5.6307675 9.898053 5.6307675s0-5.386786 0-16.1603581c-3.226358 0-4.839537 0-4.839537 0z" fill="#fff"/><path d="m378.678966 54.0242859 31.968585 24.0991204-3.707337 1.4960014h-5.586474l3.164746 42.1947683c1.234302 2.684165 3.277324 3.355206 6.129065 2.013124 2.851741-1.342083 8.78481-7.335249 17.799205-17.979498l2.26338-12.05869 17.418284 15.388226c-6.66612 1.075586-9.99918 1.613378-9.99918 1.613378s-10.396342 7.514704-31.189026 22.54411l-12.65234 32.85777c-.730099 7.171801.265021 12.133741 2.985359 14.885823 4.080507 4.128122 2.0397 6.11467-2.985359 1.514826-5.025059-4.599845-10.069693-14.506009-17.864537-16.400649-5.196563-1.263093-8.913866-4.395726-11.15191-9.3979l13.407539 1.874708 9.344748-25.334578c1.381209-4.99672.169053-24.815805-3.636468-59.4572572-1.300742-5.3806546-2.243448-9.6563078-2.828118-12.8269595l-5.135791-6.2345175z" fill="#315a51"/></g><g fill="#315a51"><g transform="translate(85.672176 186.21744)"><path d="m200 37h33v7h-33z"/><path d="m231 48h33v7h-33z"/><path d="m207 60h33v7h-33z"/><path d="m244 60h33v7h-33z"/><path d="m212 70h33v7h-33z"/><path d="m254 70h33v7h-33z"/><path d="m220 83h33v7h-33z"/><path d="m223 92h33v7h-33z"/><path d="m261.864401 83.878903h33v7h-33z" transform="matrix(.89879405 -.43837115 .43837115 .89879405 -10.132255 130.870187)"/><path d="m4 50.8297098c14.0918283-2.0896369 24.6510518-3.0219337 31.6776705-2.7968902 14.2859111.4575388 29.9391971 4.8694698 39.7217662 4.8694698 17 0 27.2001873-.6908599 30.6005633-2.0725796v7c-2.366854 1.3817197-11.5335211 2.0725796-27.5 2.0725796-11.0393611 0-28.2459105-4.4420525-44.3815568-4.9598342-6.8153276-.2186992-16.8548086.743719-30.1184432 2.8872546z" transform="matrix(.99939083 .0348995 -.0348995 .99939083 1.916372 -1.886607)"/><path d="m6.18241128 40.8558574c11.46687982-1.7003909 20.05918922-2.4590245 25.77692792-2.2759009 11.6248101.372311 24.3622878 3.9624117 32.3226137 3.9624117 13.8333333 0 22.1334861-.5621702 24.9004584-1.6865108v5.6960784c-1.9259698 1.1243406-9.3851201 1.6865109-22.377451 1.6865109-8.9830095 0-22.9844174-3.6146113-36.1144041-4.0359436-5.5458058-.1779611-13.7151874.6051832-24.50814492 2.3494327z" transform="matrix(.99939083 .0348995 -.0348995 .99939083 1.54354 -1.637657)"/><path d="m3.14372356 30.7479861c11.46687984-1.7003908 20.05918914-2.4590244 25.77692794-2.2759008 11.6248101.372311 24.3622878 3.9624117 32.3226137 3.9624117 13.8333333 0 22.1334861-.5621703 24.9004584-1.6865109v5.6960785c-1.9259698 1.1243405-9.3851201 1.6865108-22.377451 1.6865108-8.9830095 0-22.9844174-3.6146113-36.1144041-4.0359435-5.5458058-.1779611-13.7151874.6051831-24.50814494 2.3494327z" transform="matrix(.99939083 .0348995 -.0348995 .99939083 1.188929 -1.537765)"/><path d="m12.1519474 21.2768429c7.73669-1.7003908 13.5339108-2.4590244 17.3916622-2.2759008 7.8432454.372311 16.4372063 3.9624117 21.8080285 3.9624117 9.3333334 0 14.9334365-.5621703 16.8003093-1.6865109v5.6960785c-1.2994495 1.1243405-6.3321292 1.6865108-15.0980392 1.6865108-6.0608257 0-15.5075587-3.6146113-24.3663449-4.0359435-3.7417485-.1779611-9.2536205.6051831-16.5356159 2.3494327z" transform="matrix(.99939083 .0348995 -.0348995 .99939083 .855655 -1.386774)"/><path d="m27.1519474 12.2768429c7.73669-1.7003908 13.5339108-2.45902445 17.3916622-2.2759008 7.8432454.372311 16.4372063 3.9624117 21.8080285 3.9624117 9.3333334 0 14.9334365-.5621703 16.8003093-1.6865109v5.6960785c-1.2994495 1.1243405-6.3321292 1.6865108-15.0980392 1.6865108-6.0608257 0-15.5075587-3.6146113-24.3663449-4.0359435-3.7417485-.1779611-9.2536205.6051831-16.5356159 2.3494327z" transform="matrix(.99939083 .0348995 -.0348995 .99939083 .550697 -1.915749)"/><path d="m45.1519474 3.27684294c7.73669-1.70039086 13.5339108-2.45902449 17.3916622-2.27590088 7.8432454.37231101 16.4372063 3.9624117 21.8080285 3.9624117 9.3333334 0 14.9334365-.56217027 16.8003089-1.68651082v5.69607843c-1.2994491 1.12434053-6.3321288 1.68651083-15.0980388 1.68651083-6.0608257 0-15.5075587-3.61461131-24.3663449-4.03594354-3.7417485-.17796109-9.2536205.60518315-16.5356159 2.34943271z" transform="matrix(.99939083 .0348995 -.0348995 .99939083 .247567 -2.549423)"/><path d="m111.151947 9.27684294c7.73669-1.70039086 13.533911-2.45902449 17.391663-2.27590088 7.843245.37231101 16.437206 3.96241174 21.808028 3.96241174 9.333333 0 14.933437-.5621703 16.800309-1.68651086v5.69607846c-1.299449 1.1243405-6.332129 1.6865108-15.098039 1.6865108-6.060826 0-15.507559-3.6146113-24.366345-4.0359435-3.741748-.1779611-9.25362.6051831-16.535616 2.3494327z" transform="matrix(.99939083 .0348995 -.0348995 .99939083 .497169 -4.849134)"/><path d="m97.1519474 21.2768429c7.7366896-1.7003908 13.5339106-2.4590244 17.3916626-2.2759008 7.843245.372311 16.437206 3.9624117 21.808028 3.9624117 9.333333 0 14.933437-.5621703 16.800309-1.6865109v5.6960785c-1.299449 1.1243405-6.332129 1.6865108-15.098039 1.6865108-6.060826 0-15.507559-3.6146113-24.366345-4.0359435-3.741748-.1779611-9.25362.6051831-16.5356156 2.3494327z" transform="matrix(.99939083 .0348995 -.0348995 .99939083 .907435 -4.353231)"/><path d="m94.1519474 32.2768429c7.7366896-1.7003908 13.5339106-2.4590244 17.3916626-2.2759008 7.843245.372311 16.437206 3.9624117 21.808028 3.9624117 9.333333 0 14.933437-.5621703 16.800309-1.6865109v5.6960785c-1.299449 1.1243405-6.332129 1.6865108-15.098039 1.6865108-6.060826 0-15.507559-3.6146113-24.366345-4.0359435-3.741748-.1779611-9.25362.6051831-16.5356156 2.3494327z" transform="matrix(.99939083 .0348995 -.0348995 .99939083 1.289502 -4.241832)"/><path d="m158.151947 27.2768429c7.73669-1.7003908 13.533911-2.4590244 17.391663-2.2759008 7.843245.372311 16.437206 3.9624117 21.808028 3.9624117 9.333333 0 14.933437-.5621703 16.800309-1.6865109v5.6960785c-1.299449 1.1243405-6.332129 1.6865108-15.098039 1.6865108-6.060826 0-15.507559-3.6146113-24.366345-4.0359435-3.741748-.1779611-9.25362.6051831-16.535616 2.3494327z" transform="matrix(.99939083 .0348995 -.0348995 .99939083 1.153991 -6.478446)"/><path d="m3 68c24.8628928 2.8149654 42.8985713 4.5223435 54.1070355 5.1221342 35.3403874 1.8911456 65.8418125 1.5572474 93.8929645 4.6821395 28.92122 3.2218175 49.905203 7.7870596 62.95195 13.6957263v7c-14.581902-6.0796827-36.992778-10.8038803-67.232627-14.1725927-26.957314-3.0030388-56.2623559-2.5508965-90.303816-4.3274073-11.0453434-.5764198-28.8505124-2.2430865-53.415507-5z"/><path d="m0 57c24.8628928 2.8149654 42.8985713 4.5223435 54.1070355 5.1221342 35.3403874 1.8911456 65.8418125 1.5572474 93.8929645 4.6821395 28.92122 3.2218175 49.905203 7.7870596 62.95195 13.6957263v7c-14.581902-6.0796827-36.992778-10.8038803-67.232627-14.1725927-26.957314-3.0030388-56.2623559-2.5508965-90.303816-4.3274073-11.0453434-.5764198-28.8505124-2.2430865-53.415507-5z"/><path d="m115 49c10.961022 2.8149654 18.912208 4.5223435 23.853557 5.1221342 15.580117 1.8911456 29.026935 1.5572474 41.393529 4.6821395 12.750171 3.2218175 22.001143 7.7870596 27.752914 13.6957263v7c-6.428558-6.0796827-16.308587-10.8038803-29.640088-14.1725927-11.884366-3.0030388-24.803748-2.5508965-39.811222-4.3274073-4.869435-.5764198-12.718999-2.2430865-23.54869-5z" transform="matrix(.99862953 -.05233596 .05233596 .99862953 -3.141255 8.540309)"/><path d="m116.734397 36.4127224c10.961022 2.8149654 18.912208 4.5223435 23.853556 5.1221342 15.580117 1.8911456 29.026935 1.5572474 41.39353 4.6821395 12.750171 3.2218174 22.001142 7.7870595 27.752914 13.6957263v7c-6.428558-6.0796828-16.308588-10.8038803-29.640088-14.1725927-11.884366-3.0030388-24.803748-2.5508965-39.811222-4.3274073-4.869436-.5764198-12.718999-2.2430865-23.54869-5z" transform="matrix(.99862953 -.05233596 .05233596 .99862953 -2.480111 8.61383)"/></g><path d="m43.0471467 276.596343c10.050443 21.048086 15.0756645 33.574998 15.0756645 37.580735 0 6.008605 29.5493647 23.445426 85.5493648 21.038594 20.75 0 48.057251 10.247399 63.028625 10.247399 14.971375 0 36.069549 4.272692 56.020462 4.272692s34.950913-3.875791 55.950913 5.032595c18.333333-9.531281 30.676847-16.964588 37.030542-22.299921l-22.030542-37.024819-80-17.726178-180.4737003-15c-15.8176727 7.666667-25.8681157 11.5-30.151329 11.5z"/></g></g><g transform="translate(502.674358 924.138088)"><g fill="#fff"><path d="m8.21927246 46.2798042v-2.165211l2.69258264-.1455604.6782842-.709607v-19.1229986l-.6782842-.5458515-2.69258264-.1455604v-2.1652111h23.00000004v6.6957788h-3.6380697l-.6577302-3.6754003-.5960679-.4548763h-7.2350313v8.7882096h4.7890975l.5960679-.4730713.4110813-2.6928675h3.0008936v9.1339155h-3.0008936l-.4110813-2.6746725-.5960679-.5276564h-4.7890975v7.860262l.8016086.709607 3.0214477.1455604v2.165211zm21.96585014-1.6237062-.066497-1.9042251 2.8282762-.2269368.5906926-.6454622-.587297-16.8179874-.6292497-.4586683-2.8372171-.0290934-.066497-1.904225 13.9914716-.488593.066497 1.904225-2.8856968.228942-.614862.5021136.5872971 16.8179874.6534191.6020169 2.8946375.0270883.066497 1.904225zm17.2486496.9853241-.2099698-1.9977295 1.7845202-.3983222.492399-.7367283-1.9189417-18.2575111-.4449637-.4801364-1.994454.0691179-.2172731-2.0672158 8.3529329-.8779287.1004203.9554359 10.1463222 14.9338937-1.4606597-13.8972492-.5914591-.6228102-1.9711838-.126526-.197189-1.8761287 7.5002979-.788313.197189 1.8761286-1.7139337.5138475-.492399.7367283 2.2055962 20.9848463-4.7111697.4951639-11.704238-17.1060908 1.603074 15.252231.490299.6334425 2.0017573.0003684.2099699 1.9977296zm22.7165222-2.0964399-.3116166-1.9674694 2.2532242-.4924605.4456671-.7315629-2.7521764-17.3765576-.6263523-.4092388-2.2951222.2279268-.3116165-1.9674694 18.7079791-2.9630528.8955703 5.6544079-2.8883659.4574722-1.0243836-2.9223089-.5416227-.3040218-6.0423287.9570108 1.191475 7.5226772 3.5689579-.5652673.422054-.5583419-.0363422-2.4856156 2.4069716-.3812268 1.317169 8.3162783-2.4069715.3812268-.733534-2.3751912-.5739343-.4005928-3.5689579.5652674 1.2936015 8.1674781 7.1047161-1.1252765.3783799-.619217.0197645-3.8503505 2.8219667-.4469556 1.0395947 6.5637425zm27.0833094 1.2265642-.3635647-1.8703784 2.0440814-.5278198.4019267-.7142686-3.2109793-16.5190565-.6127332-.3702367-2.092964.2763404-.3635648-1.8703784 17.6692891-3.434562 1.124301 5.7840275-2.794874.5432685-1.122431-3.0767101-.534297-.3039265-5.558168 1.0803983 1.475645 7.591536 3.679129-.71515.378483-.4976642-.13636-2.3875713 2.305376-.4481197 1.533694 7.8901678-2.305377.4481198-.764914-2.2490812-.546517-.3667964-3.679128.71515 1.319831 6.7899453.734972.4932779 2.345608-.3254494.363564 1.8703785zm17.4319952-1.3399422-.20822-1.9810818 2.804948-.4294651.541261-.7133233-1.838986-17.4967815-.661994-.4353712-2.832944.1631012-.20822-1.9810819 13.923307-1.4633985.20822 1.9810819-2.862089.4354708-.576056.5654955 1.838986 17.4967815.696789.583199 2.890084-.1691069.208221 1.9810818zm18.830721-1.122936-1.039423-6.5626557 2.550729-.4039958 1.32209 4.2636242.474341.4751246c.360019.0139793.715053.0109972 1.065112-.0089464.350059-.0199435.704082-.0582654 1.062081-.1149669 1.056097-.1672692 1.850302-.5977658 2.382639-1.2915025s.719883-1.5369787.562643-2.5297512c-.051195-.3232283-.142614-.6252889-.274263-.906191-.131648-.280902-.297217-.529802-.496712-.7467076-.526502-.5437832-1.538212-1.0521242-3.03516-1.5250381-.731392-.2154955-1.297923-.4038477-1.699611-.5650622-1.55286-.5942263-2.745897-1.3785546-3.579147-2.3530086-.833251-.9744539-1.369626-2.2177855-1.609142-3.7300321-.354704-2.2395102.008938-4.1430963 1.090936-5.7108154 1.081999-1.5677191 2.710395-2.5237949 4.885238-2.8682562.912897-.1445887 1.885252-.1743453 2.917095-.0892706 1.031842.0850747 2.094463.2776869 3.187895.5778425l.948919 5.9912371-2.550729.4039958-1.172977-3.8434891-.404186-.3797355c-.267055-.0642038-.541179-.1006614-.822381-.1093739-.281201-.0087126-.573947.011029-.878246.0592252-1.038197.1644342-1.807838.5762486-2.308946 1.2354554-.501108.6592069-.674868 1.4736406-.521285 2.4433254.210263 1.3275448 1.544449 2.4238073 4.002599 3.2888206.281489.0974178.495755.1758976.642803.2354416 2.196389.7763042 3.702549 1.6116216 4.518526 2.5059772.815976.8943556 1.3492 2.1322697 1.599687 3.7137795.367502 2.3203173-.046087 4.2850639-1.240778 5.8942987s-2.991306 2.6037871-5.389898 2.9836868c-.805498.1275783-1.705749.1636646-2.700782.1082602-.995032-.0554045-2.158243-.2025017-3.489667-.441296zm12.54125-24.8907445 7.802034-.5455714.151038 2.1599368-1.401097.24389-.317655.7335524.521651 7.4599495 5.89742-.4123878-.521651-7.4599495-.428127-.6814022-1.444352-.0449169-.151037-2.1599367 7.847929-.5487807.151037 2.1599367-1.446991.2470993-.329128.7343547 1.32253 18.9130593.428127.6814022 1.467299.0433123.151037 2.1599368-7.847928.5487806-.151038-2.1599367 1.424044-.2454947.329128-.7343547-.607957-8.694199-5.897421.4123878.607958 8.694199.416654.6822045 1.421404.0465216.151038 2.1599367-7.802035.5455714-.151037-2.1599367 1.424044-.2454947.352075-.7359593-1.32253-18.9130593-.451075-.6797976-1.444351-.0449169zm23.890285 25.7252155-.244432-2.3256178 1.9971-.3679749.355251-.8079352-2.15881-20.5397001-.49698-.5405321-2.029965.0552867-.244432-2.3256178 9.945219-1.0452846.244432 2.3256178-2.037915.3722647-.387342.6334781 2.158809 20.5397.529072.7149893 2.07078-.0595765.244432 2.3256178zm12.213141-3.1431392v-2.0924309l2.476883-.2183406.772787-.709607v-19.1229985l-.535007-.5458515-2.714663-.1455604v-2.1652111h11.453105v1.0007278l11.63144 16.5756914v-14.5560407l-.713343-.709607-2.655218-.345706v-1.9650655h10.284016v1.9650655l-2.397622.345706-.772787.709607v21.9796215h-6.45971l-13.43461-18.9956332v15.9752547l.574637.709607 2.714663.2183406v2.0924309zm48.494743-9.107575h14.729166v1.9774648l-2.6875.169014-.6875.4732395v7.8929577c-1.694453.5408478-3.427074.9436607-5.197916 1.2084507-1.770843.2647901-3.593741.3971831-5.46875.3971831-4.777802 0-8.63193-1.109848-11.5625-3.3295774-2.930571-2.2197294-4.395834-5.1267426-4.395834-8.7211268 0-3.6169195 1.493041-6.5126652 4.479167-8.6873239 2.986126-2.1746588 6.951364-3.2619719 11.895833-3.2619719 1.59723 0 3.243047.1042243 4.9375.3126761 1.694453.2084517 3.465269.5211247 5.3125.9380282v6.3042253h-3.895833l-.979167-4.1915493-.770833-.5577465c-.611114-.1126766-1.09722-.191549-1.458333-.2366197-.361113-.0450706-.694443-.0676056-1-.0676056-3.277795 0-5.840269.845062-7.6875 2.5352112-1.847232 1.6901493-2.770834 4.0281541-2.770834 7.0140846 0 2.8507184.961796 5.1323858 2.885417 6.8450704s4.489567 2.5690141 7.697917 2.5690141h.6875v-6.9633803l-.729167-.4732395-3.333333-.169014z" fill-rule="nonzero" transform="matrix(.99254615 .12186934 -.12186934 .99254615 4.679154 -15.223683)"/><path d="m1 49.0544675c37.1984134.6375155 64.9517354.9173081 83.2599662.8393778 28.6814708-.1220848 57.0775998-1.5410817 85.0876928-1.5410817 25.503735 0 49.721182.2339013 72.652341.7017039v4.4225462c-22.839647-.4678026-46.974328-.7017039-72.404044-.7017039-29.834696 0-60.102144 1.427022-90.7016489 1.5651571-17.1410396.0773796-43.1058086-.2104381-77.8943071-.8634532z" transform="matrix(.9961947 .08715574 -.08715574 .9961947 4.938032 -10.39401)"/><path d="m0 59.0544675c37.1984134.6375155 64.9517354.9173081 83.2599662.8393778 28.6814708-.1220848 57.0775998-1.5410817 85.0876928-1.5410817 25.503735 0 49.721182.2339013 72.652341.7017039v4.4225462c-22.839647-.4678026-46.974328-.7017039-72.404044-.7017039-29.834696 0-60.102144 1.427022-90.7016489 1.5651571-17.1410396.0773796-43.1058086-.2104381-77.8943071-.8634532z" transform="matrix(.9961947 .08715574 -.08715574 .9961947 5.805785 -10.268801)"/><path d="m0 68.0544675c37.1984134.6375155 64.9517354.9173081 83.2599662.8393778 28.6814708-.1220848 57.0775998-1.5410817 85.0876928-1.5410817 25.503735 0 49.721182.2339013 72.652341.7017039v4.4225462c-22.839647-.4678026-46.974328-.7017039-72.404044-.7017039-29.834696 0-60.102144 1.427022-90.7016489 1.5651571-17.1410396.0773796-43.1058086-.2104381-77.8943071-.8634532z" transform="matrix(.9961947 .08715574 -.08715574 .9961947 6.590186 -10.234553)"/><path d="m59.5070913 78.8436147c4.2002521 0 40.3920772 4.1897386 108.5754747 12.569216-47.923663 33.0204653-72.2188277 51.2472113-72.8854943 54.6802373-1 5.149538-33.1085292-60.1685931-35.6899804-63.7090232-2.5814513-3.5404301-6.3003783-3.5404301 0-3.5404301z"/></g><path d="m62.5705187 87.6600284 98.6576053-.6530818-12.514751 8.9048166-77.2827604 2.1209314z" fill="#2b4f47" transform="matrix(.99254615 .12186934 -.12186934 .99254615 12.10941 -12.947468)"/><path d="m71.4686145 101.335642 74.1842115-1.9084695-11.680687 10.1223895-54.9150469 1.113964z" fill="#2b4f47" transform="matrix(.99254615 .12186934 -.12186934 .99254615 13.611003 -12.447232)"/><path d="m77.3622298 114.350256 51.0152242-1.495778c-7.022428 4.516709-12.537438 8.581205-16.545028 12.193488-4.007591 3.612283-9.309198 9.297455-15.9048222 17.055517z" fill="#2b4f47" transform="matrix(.99254615 .12186934 -.12186934 .99254615 16.302556 -11.586471)"/></g><g stroke="#efefef" stroke-width="9" transform="translate(506.400055 562.005015)"><path d="m258.762926 0c-20.3785 13.9751127-34.913708 30.2628273-43.605625 48.8631439-13.037875 27.9004748-49.89522 101.2962971-64.685926 131.6618351-14.790707 30.365538-59.0848172 126.512645-59.0848172 145.912983 0 19.400339-23.8128987 151.408824-31.6847324 178.281386" stroke-linecap="round"/><path d="m212.471375 0c-23.457233 49.2175766-39.78457 89.0170034-48.982013 119.39828-13.796165 45.571916-51.735511 102.668725-51.735511 154.128471s-34.0261246 281.179188-64.8549533 300.561488c-30.8288287 19.382301-25.9545198 82.481876-46.8988977 82.481876"/></g><g transform="translate(956.650564 1696.670121)"><path d="m55.8098849 0c-20.6140058 22.248924-33.9611926 43.4822169-40.0415606 63.699879-9.12055186 30.326493-9.58811368 44.409083-9.58811368 77.328841 0 32.919759-8.48578253 66.61827-5.57048815 72.501498 2.91529438 5.883229 4.58736976 13.105271 9.87298583 13.452466 5.285616.347195 5.0704137 11.32057 25.1987952 14.288503 20.1283814 2.967934 33.4034404 5.003841 33.9756427 2.501921.5722023-2.501921 13.234167 2.50192 18.7860765 0 5.5519095-2.501921 57.8073613-67.674155 65.8054553-85.209271 7.998094-17.535117 5.315032-25.943488 5.315032-46.599812 0-20.6563237-8.76601-61.8631857-8.76601-71.197645 0-6.2229729 1.150326-12.4804382 3.450978-18.7723959-10.535407-7.7658612-25.544348-12.52301888-45.026822-14.27147301-19.4824745-1.74845413-37.2864648-4.32262449-53.4119711-7.72251109z" fill="#c18a6e"/><g fill="#b78368"><path d="m41.9936208 63.0324251c.8730996 47.4442459.8730996 78.8202739 0 94.1280839-1.7232249 30.212821-7.4908387 45.06443-8.8989939 48.307323-7.0216313 11.28161-21.9230437 22.234259-20.5135863 22.234259 1.0722931 0 12.186508-3.097941 26.8990637-17.051559 2.349218-2.228035 9.2343326-13.98123 9.2343326-26.615609 0-3.737365-1.5778062-13.946484-2.4599442-30.249343-.737294-13.625986-2.1575846-43.877037-4.2608719-90.7531549z"/><path d="m111.296353 161.294279c-9.912321 5.622741-16.2967117 14.97822-19.1531725 28.066439-4.2846912 19.632328-16.6775372 40.997112-16.6775372 45.961421 0 4.96431 8.1163037 4.358032 16.6775372-6.629944s34.4698435-51.292431 34.4698435-59.345174c0-5.368495-5.105557-8.052742-15.316671-8.052742z"/><path d="m69.2029512 168.999397c-3.2945862 5.622741-5.4165843 14.97822-6.3659943 28.066439-1.424115 19.632328-5.5431603 40.997112-5.5431603 45.961422 0 4.964309 2.6976388 4.358031 5.5431603-6.629945 2.8455214-10.987976 11.4568397-51.292431 11.4568397-59.345173 0-5.368495-1.6969485-8.052743-5.0908454-8.052743z" transform="matrix(.94551858 .32556815 -.32556815 .94551858 71.141385 -10.115226)"/><path d="m140.718769 161.294279-10.321396 27.965392c5.201171-8.530267 8.641636-15.323733 10.321396-20.380397 1.67976-5.056663 1.67976-7.584995 0-7.584995z"/><path d="m56.3206195 54.9413653c8.5662339 37.1926627 16.4587422 62.2010907 23.6775249 75.0252857 5.1980825 9.234413 5.0174546 22.963636 10.613043 27.958873 6.0606338 5.410388 15.3680746-.693342 19.6355876-5.62437 5.471714-6.322459 10.927131-5.581453 16.366249 2.22302 4.100526 4.535134 7.292179 5.668917 9.574957 3.40135 3.424167-3.40135 8.157048-6.535417 5.790608-8.874151-2.366441-2.338734 5.679782 10.945601 8.368919 5.472801 2.689137-5.472801 10.1149-27.52282 9.88184-37.277955-.155373-6.503423-3.449319-29.0753306-9.88184-67.7157227 2.141531 7.2405686-.648109 10.8608529-8.368919 10.8608529-11.581216 0-38.510068-32.3609087-55.4320725-32.3609087-16.9220041 0-16.9415615-1.1221283-25.1686902 5.8069056-5.4847524 4.6193559-7.170488 11.654029-5.0572068 21.1040192z"/></g></g><g transform="translate(11.360566 75.13711)"><path d="m34.9182571 312.615988c9.2049521 3.541184 21.313924 3.541184 36.3269155 0 22.5194874-5.311775 44.0087004-7.352287 49.8771724-6.332031-1.183514-14.362445-.1763-51.976006 9.906253-68.479734s16.380987-34.934849 15.091099-41.559103c-1.289888-6.624253-5.937652-35.510612-1.892431-57.962406s10.891151-47.4469152 10.891151-59.2790747c0-11.8321596 1.568843-65.3863316-4.661154-75.94719976-4.337566-5.03458164-22.120024-4.21259395-22.120024 7.66047896 0 11.873073 1.905821 49.6130944-5.509921 73.0081288-4.943828 15.5966896-9.515468 26.3383207-13.71492 32.2248927-1.28735 1.293576-2.491494 1.749029-3.612433 1.36636-1.681408-.574004-2.779291-8.756474-2.779291-11.392398 0-2.635925 3.7081-35.5883149-15.5661364-39.3197018-19.2742363-3.731387-21.0745227-5.1441804-23.8322276-4.4377837-2.757705.7063967-13.0538439 3.8416951-11.7923707 19.5825336 2.3299072 7.3199388 3.2130799 16.2994504 3.2130799 22.0680039 0 5.768553 7.7845061 7.949482 11.4444755 5.028215 2.4399796-1.947512 3.4419458-.613914 3.0058984 4.000793v9.705001c-.0938091 2.172694-1.0957752 3.259041-3.0058984 3.259041s-3.8459377 2.368091-5.8074438 7.104272c-1.6187964 1.005973-2.4281945.600567-2.4281945-1.216218 0-2.725178-.7459946-24.43468-12.8233281-30.277479-12.0773334-5.8427993-19.871739 7.402016-19.871739 15.895721 0 8.493704 3.8226033 26.396159 3.8226033 27.763698s3.8226034 14.395705 0 12.624167c-3.8226033-1.771538-6.2967596-19.421451-12.5885695-19.421451s-20.35964069 4.625061-15.18434773 20.345393c5.17529295 15.720333 15.19636853 27.819586 14.22551493 40.10198s.0633313 64.590558 9.724799 86.072214c6.4409785 14.321104 9.6614678 23.592333 9.6614678 27.813687z" fill="#c18a6e"/><path d="m79.3957634 107.45182c8.1276521-1.605926 13.9919086 1.069163 17.5927694 8.02527 5.4012912 10.43416 22.5895832 48.44965 27.1986402 53.243338s12.549862 12.537584 14.507788 2.429574c1.305284-6.738674 2.526365-11.220619 3.663243-13.445837.896299 6.66272.896299 13.909372 0 21.739957-1.344448 11.745879-18.552881-6.832786-25.465628-18.1761-6.912746-11.343315-18.6183412-46.215583-25.0636359-48.762649-4.2968631-1.698044-8.4412554-3.382562-12.4331767-5.053553z" fill="#b78368"/><path d="m29.8892842 161.041991 14.6210751 28.477781c0 6.783386-2.4368458 11.228679-7.3105376 13.335879-7.3105375 3.160801-15.0818055-2.6094-18.2563121-7.972639-3.1745066-5.36324-3.9072472-13.582587 0-17.95689 2.6048315-2.916203 4.9087393-4.23207 6.9117234-3.947601-2.8133917 2.984772-4.2200876 6.124808-4.2200876 9.420109 0 4.942952 12.0882765 8.014247 13.9839134 4.524882 1.263758-2.326243-.6461669-10.402221-5.7297746-24.227934z" fill="#b78368"/><path d="m44.1193661 120.86289 14.6210751 28.477781c0 6.783386-2.4368458 11.228679-7.3105375 13.335879-7.3105376 3.160801-15.0818056-2.6094-18.2563122-7.97264-3.1745065-5.363239-7.0828108-16.68484-7.0828108-19.16594 0-1.654066 0-4.890376 0-9.708929 16.2069934 18.948656 24.9423691 27.259863 26.206127 24.93362 1.263758-2.326243-1.4620892-11.741638-8.1775416-28.246185z" fill="#b78368"/><path d="m85.0422881 232.107265c-14.5340669-23.464938-26.0723746-36.757221-34.614923-39.876847-12.8138225-4.679439 28.4218731-5.564646 46.2374146 9.071462" stroke="#b78368"/><g fill="#b78368"><path d="m79.0274472 82.8793262s.5599023 14.8699263-5.2358002 18.7741738c-5.7957025 3.904248-11.0537837 6.295354-15.0512058 4.229404-3.997422-2.06595-2.9021484 2.97795 1.9379135 2.97795s11.859899.169716 14.4607059-2.97795 7.054293-8.6586591 5.4713398-18.5798739-1.5829532-4.4237039-1.5829532-4.4237039z"/><path d="m79.3957634 107.45182c-5.5090906 18.412808-3.9263234 35.16359 4.7483016 50.252345 7.7217802 13.431365 13.5583766 24.710089 16.95698 36.652967 2.328368 8.182013-8.8646451 25.452085-6.6498276 24.101876 2.1990357-1.340589 11.9503316-20.309251 6.6498276-29.627265-7.8304477-13.765524-9.5981919-28.168768-11.7663809-36.345391-3.6358566-13.711458-1.1485666-25.44009-3.516713-34.53199-.3044216-1.168749-3.213075-5.484247-2.6499622-6.982134.8650138-2.300948 5.3891436-1.778119 4.7587131-2.831721-.7250395-1.211716-3.5686857-1.441279-8.5309386-.688687z"/><path d="m128.953991 17.3742085c0 14.1072683-3.141937 68.9165132-12.936155 86.2025975-2.990379 5.277801-5.313998 9.770605-6.970858 13.478412-.232351.519968-3.766068 1.305627-5.303171-5.209201-2.892278-12.2585713-2.492811-30.4858077-4.49428-30.4858077-2.0014689 0-6.9795724 2.884159-3.718977 24.0853417.5172069 3.363005 3.9957011 10.521551 10.435483 21.475639 8.1299 16.607315 12.920181 26.868307 14.370843 30.782975 8.617115 3.337826 12.669585 9.490131 10.64335-10.646422s6.027787-47.1140827 9.427309-61.4085494c3.399523-14.2944666 3.782905-41.135716 7.053634-54.7053505 3.27073-13.5696346-.907537-23.72873452-4.332518-27.26806165-1.78171-1.84119404-7.013117-2.69824969-10.214741-.32316325-2.952858 2.19054201-3.959919 7.2530667-3.959919 14.0215903z"/><path d="m16.2805954 218.459008c-.0465379 27.010878 8.665134 42.493238 26.1350156 46.447081s40.7601615 7.040801 69.87084 9.260873c-41.4609007 0-68.7578608 0-81.8908804 0-8.6203785 0-11.2790124-6.774037-12.6369494-22.775122-.4739067-5.584222-.966582-16.561832-1.4780258-32.932832z"/></g><path d="m64.2835231 175.16743 35.7273409 13.19546" stroke="#b78368" stroke-linecap="square"/></g><g fill="#d8d8d8" transform="translate(391.16239 2613.204465)"><path d="m158.794482 16.2222501c-12.597111 11.8423611-20.896164 21.1996151-24.897159 28.071762-6.001493 10.3082204-27.740475 10.3821439-35.9692553 21.2817523-8.22878 10.8996084-37.5764067 29.8144399-48.9524109 33.1355213-11.3760042 3.3210813-29.7446233 10.5792733-29.7446233 13.6073983 0 3.028126-53.0045135 57.621994 16.9805002 93.414654 40.1240292 18.658838 77.1309513-8.863974 99.8569493-22.439887 22.725999-13.575912 69.831691-60.94992 114.829195-74.587435 44.997504-13.6375158 38.166426-56.1750102 34.96855-68.3409007-2.131917-8.1105936-6.225871-21.565632-12.281862-40.3651153-14.658102 22.1552448-26.821384 33.2328672-36.489847 33.2328672-14.502694 0-61.450957.3395005-68.821403-8.3355583-4.913631-5.7833725-8.073175-8.6750588-9.478634-8.6750588z"/><path d="m559.826189 130.137329c11.085679 70.592329 12.641805 114.658812 4.668379 132.19945-11.960139 26.310956-30.332279 22.443384.167588 108.95292s156.261722 12.169197 156.261722-11.535279-31.318232-150.076646-38.1025-170.412591c-6.784269-20.335946-11.724106-39.558531-11.724106-49.381515 0-9.822985-51.033748-18.1813-74.360571-18.1813-15.551215 0-27.854719 2.786105-36.910512 8.358315z"/></g><path d="m41.2514756 0c-9.1233921 12.1249195-13.9736447 23.5532931-14.5507577 34.2851208-.8656695 16.0977415-6.6874034 2.4220416-10.5186126 38.1521805-3.8312091 35.7301387 6.6762985 34.2032587-4.9683564 55.3182187-11.64465497 21.11496-15.54915685 50.909552-5.2904002 76.535344 10.2587566 25.625792 38.6208096 172.051276 43.8823368 195.438309 5.2615273 23.387033 11.4358818 82.776328 17.7101809 96.661963s15.2937429 34.014475 15.2937429 48.028927 15.5824716 23.009465 21.2970807 38.545296c5.71461 15.53583-2.392007 32.388709 7.044983 40.981722 9.43699 8.593014-20.5708168 5.248202-13.8078997 40.219923 6.7629167 34.971722 10.8162257 10.431994 18.1810307 54.407613 4.909871 29.317079 14.116618 83.735056 27.620242 163.253931 10.032956 50.204757 16.387211 77.64732 19.062764 82.327688 4.013331 7.020552 0 16.255432 0 35.062782 0 18.807352 20.963933 64.717452 20.963933 77.248282s-5.568024 12.00668 6.27652 26.62746 7.944484 15.48697 17.392579 21.80347c-3.69869 13.57913-5.033505 36.11479-4.004446 67.60696 8.143633 16.02963 25.848631 22.70963 53.114995 20.04 40.899547-4.00445 55.510716-18.241 60.883657-40.17328 3.509409-17.06462 5.336666-31.61063 5.48177-43.63803 14.805148-5.67923 23.648445-15.81013 26.529891-30.39271 4.322168-21.87387-26.529891-69.9972-26.529891-84.55967 0-14.562482-2.369171-110.436483-10.850339-135.004312 5.368569-20.720663-4.666637-62.377737-4.666637-82.792005 0-20.414269 15.403776-98.726376 10.035206-113.05625-5.368569-14.329874-10.035206-16.211758-10.035206-36.419345 0-13.471725 1.555546-55.539139 4.666637-126.202241 13.599843-17.54491 20.399764-34.78705 20.399764-51.726421 0-25.409056-8.542809-36.016861-4.271404-36.016861 4.271404 0 31.696506 41.551166 39.272991 52.689118 7.576486 11.137953 72.278477 198.723658 78.284913 227.334455s42.578072 256.894175 51.686535 286.63138c9.108462 29.737202 63.242533 167.107462 75.911708 183.592982 4.275031 5.65109 6.064452 13.28741 0 13.28741s-.844853 4.55098 4.931333 17.59707c5.776187 13.04609 25.394552 74.02419 25.394552 88.81275 17.676654 16.94784 32.780674 23.30418 72.65014 20.12601 39.869465-3.17817 50.605103-9.61429 51.35657-30.69392.751467-21.07964 4.202511-57.7238 8.84014-63.10113 4.637629-5.37732 10.187191-19.09259-5.315687-25.91669-15.502878-6.82409 10.227014-9.16646 10.227014-30.55159 0-21.38514-6.702561-58.92128-10.227014-82.88357s-15.452115-214.454976-15.452115-214.454976-18.893169-72.519604-15.408602-104.005803-26.861262-109.825501-26.861262-112.202331c0-2.376831-26.24847-57.479039-26.24847-57.479039s0-34.985018 0-104.955055c36.739603-243.537434 50.772742-375.080765 42.099415-394.629993-8.673326-19.5492277-13.009989-44.1024312-13.009989-73.65961l-89.351014 21.3984515-61.014442-15.2148637c-231.237409-7.9237377-373.910003-15.6188589-428.0177817-23.0853637-54.1077786-7.46650472-72.8052112-11.1997571-56.0922977-11.1997571z" fill="#0a0a0a" transform="translate(347.911708 1440.83256)"/></g><text fill="#000" font-family="Chalkduster" font-size="212" letter-spacing="4.016225"><tspan x="0" y="208">NOT DONE</tspan></text></g></svg>