<?xml version="1.0" encoding="UTF-8"?>
<svg width="783px" height="443px" viewBox="0 0 783 443" version="1.1" xmlns="http://www.w3.org/2000/svg" xmlns:xlink="http://www.w3.org/1999/xlink">
    <!-- Generator: Sketch 53.2 (72643) - https://sketchapp.com -->
    <title>photos</title>
    <desc>Created with Sketch.</desc>
    <defs>
        <polygon id="path-1" points="783 1.13686838e-13 5.68434189e-14 1.13686838e-13 5.68434189e-14 443 783 443"></polygon>
        <linearGradient x1="50.0366954%" y1="100.016503%" x2="50.0366954%" y2="-0.00528319094%" id="linearGradient-3">
            <stop stop-color="#808080" stop-opacity="0.25" offset="0%"></stop>
            <stop stop-color="#808080" stop-opacity="0.12" offset="54%"></stop>
            <stop stop-color="#808080" stop-opacity="0.1" offset="100%"></stop>
        </linearGradient>
    </defs>
    <g id="Page-1" stroke="none" stroke-width="1" fill="none" fill-rule="evenodd">
        <g id="photos">
            <g id="cheers-2">
                <g id="cheers">
                    <g id="Group-15">
                        <g id="Group-14">
                            <g id="The-gang">
                                <g id="Oval-+-Oval-Mask">
                                    <g id="Path-5">
                                        <mask id="mask-2" fill="white">
                                            <use xlink:href="#path-1"></use>
                                        </mask>
                                        <use id="Mask" fill="#3D3D3D" fill-rule="nonzero" xlink:href="#path-1"></use>
                                        <g id="undraw_videographer_nnc7" mask="url(#mask-2)" fill-rule="nonzero">
                                            <g transform="translate(133.000000, 70.000000)">
                                                <path d="M503.151741,282.372084 C502.6664,282.727579 502.167577,283.069574 501.664261,283.40707 C499.807585,284.653457 497.869342,285.773466 495.862639,286.759525 C485.319955,292.024454 472.332591,294.593919 459.677776,296.339896 C431.298813,300.263843 402.322161,301.024333 373.466845,301.771323 C295.511204,303.800795 217.348844,305.821268 139.590935,301.150331 C108.870651,299.305356 77.4628015,296.200398 49.6186123,286.750525 C45.6310272,285.397543 41.7183404,283.906563 37.8805519,282.277585 C30.1240847,278.97013 22.6732026,274.951684 16.4761178,270.163748 C10.634051,265.663809 5.93343419,260.488878 3.11126653,254.611958 C-2.77573926,242.363122 0.338531743,228.606808 7.05690858,216.605469 C9.86513495,211.735339 13.0189732,207.073413 16.4940934,202.655657 C21.6710634,195.896748 27.3828072,189.349336 32.6047161,182.599427 C51.1735008,158.56075 63.2890486,128.199659 46.1493234,103.575991 C41.2060361,96.5020858 34.101184,90.2921694 30.0881335,82.9077688 C24.9605964,73.457896 25.3605533,62.9685372 26.9918381,52.7581746 C27.1985574,51.471192 27.4412279,50.1932092 27.6614288,48.9152264 C30.461127,33.8089297 35.6740482,17.5281489 51.8116343,8.09627581 C68.5738721,-1.70459226 92.3690597,-1.20959892 113.180299,2.29585389 C145.536362,7.74978048 175.384829,19.1391272 205.5254,29.4259887 C235.665971,39.7128502 267.235601,49.1087238 300.382589,50.1257101 C329.64685,51.025698 363.78699,44.334288 383.209615,26.9690218 C402.083985,10.1032488 437.540837,8.82076606 463.111114,19.0086289 C480.637314,26.0015348 493.737025,38.5968653 499.260025,52.7581746 C500.376308,55.5935566 501.182427,58.5417303 501.664261,61.5510563 C502.112407,64.2911901 502.26308,67.0718431 502.11365,69.8444446 C502.037254,71.1944265 501.888956,72.566908 501.664261,73.8943901 C497.395058,101.852514 466.652305,123.902217 447.966679,148.876881 C438.835079,161.076217 432.386336,175.728019 438.664311,188.881342 C448.240807,208.924073 481.545081,216.047477 501.664261,230.969276 C505.422978,233.654555 508.755953,236.891887 511.550835,240.572147 C521.280123,253.855968 517.680512,271.783726 503.151741,282.372084 Z" id="Path" fill="#2B2B2B" opacity="0.966169085"></path>
                                                <ellipse id="Oval" fill="#000000" opacity="0.393810454" cx="241" cy="293" rx="121" ry="4"></ellipse>
                                                <polygon id="Path" fill="#464353" points="341 291 337.001084 291 307.750842 140.457286 303.999886 291 299.75301 291 295.001198 140.708992 266.499344 291 262 291 281.372425 136.268178 282.003595 131.238551 320.004565 127 321.185756 136.268178"></polygon>
                                                <rect id="Rectangle" fill="#464353" x="236" y="97" width="24" height="15"></rect>
                                                <path d="M376,89.9437387 L390.92867,84 L394.200644,84 C395.194401,84 396,84.794268 396,85.7740472 L396,127.225953 C396,128.205732 395.194401,129 394.200644,129 L390.92867,129 L376,122.870236 L376,89.9437387 Z" id="Path" fill="#3E3D43"></path>
                                                <rect id="Rectangle" fill="#3E3D43" x="346" y="92" width="30" height="29"></rect>
                                                <rect id="Rectangle" fill="#514E7F" x="295" y="38" width="19" height="3"></rect>
                                                <rect id="Rectangle" fill="#0F0F10" x="273" y="42" width="54" height="40"></rect>
                                                <rect id="Rectangle" fill="#000000" opacity="0.1" x="273" y="77" width="54" height="5"></rect>
                                                <rect id="Rectangle" fill="#000000" opacity="0.1" x="346" y="92" width="1" height="29"></rect>
                                                <rect id="Rectangle" fill="#000000" opacity="0.1" x="252" y="97" width="8" height="15"></rect>
                                                <polygon id="Path" fill="#000000" opacity="0.1" points="321 136 281 136 281.63413 131.115907 319.813271 127"></polygon>
                                                <rect id="Rectangle" fill="#0F0F10" x="253" y="78" width="94" height="58" rx="10.7"></rect>
                                                <path d="M376.675258,90 L377,90 L377,123 L376.675258,123 C375.197754,123 374,121.943362 374,120.639934 L374,92.3600661 C374,91.0566376 375.197754,90 376.675258,90 Z" id="Path" fill="#D0021B"></path>
                                                <path d="M391,84 L394.053539,84 C395.12854,84 396,84.8712846 396,85.9460685 L396,127.053931 C396,128.128715 395.12854,129 394.053539,129 L391,129 L391,84 Z" id="Path" fill="#D0021B"></path>
                                                <rect id="Rectangle" fill="#000000" opacity="0.1" x="237" y="97" width="4" height="15"></rect>
                                                <rect id="Rectangle" fill="#D0021B" x="232" y="92" width="8" height="25" rx="4"></rect>
                                                <circle id="Oval" fill="#464353" cx="273" cy="42" r="27"></circle>
                                                <circle id="Oval" fill="#FF7000" cx="273" cy="42" r="20"></circle>
                                                <circle id="Oval" fill="#464353" cx="322.5" cy="42.5" r="19.5"></circle>
                                                <ellipse id="Oval" fill="#FF7000" cx="322.5" cy="43" rx="14.5" ry="15"></ellipse>
                                                <circle id="Oval" fill="#FF7000" cx="321.5" cy="86.5" r="2.5"></circle>
                                                <circle id="Oval" fill="#FF7000" opacity="0.5" cx="329.5" cy="86.5" r="2.5"></circle>
                                                <path d="M297.136762,95.05244 L296.952275,94.6876826 C298.093216,95.0671181 299.18878,95.5715312 300.219036,96.1917439 C299.769069,92.2784826 284.771668,81.2907292 282.071866,81.2907292 C279.372064,81.2907292 276.370784,76.6254371 276.370784,76.6254371 C276.370784,76.6254371 268.572855,75.4230887 267.371443,74.1486894 C266.170031,72.8742902 258.070625,73.6173145 256.122268,74.0676322 C254.17391,74.51795 251.17263,72.8652838 251.17263,72.8652838 C251.17263,72.8652838 249.521251,70.1633772 247.424405,70.1633772 C245.327559,70.1633772 243.082223,67.1552546 243.082223,67.1552546 C243.082223,67.1552546 241.124867,65.3539835 239.324999,65.0477674 C237.525131,64.7415514 235.275295,62.7961786 234.222373,61.2876141 C233.16945,59.7790496 227.922834,59.0360253 224.926054,59.4863431 C221.929274,59.9366608 213.825367,58.8739109 213.825367,58.8739109 C217.123626,57.3698496 217.920067,53.7583011 217.920067,53.7583011 C214.968284,53.6051931 207.210852,47.0845919 207.210852,47.0845919 C207.210852,47.0845919 207.530329,49.192079 207.899302,52.132654 L207.399838,51.4886996 L207.332343,51.5427377 C207.173818,49.4449191 207.151273,47.3390253 207.264848,45.238289 C207.264848,45.0761746 207.291846,44.9140602 207.300846,44.7474427 C211.216138,41.314668 212.907307,35.9926976 211.692524,30.9271905 C211.61153,30.584949 188.010759,44.2295772 187.992761,44.3736789 C187.889268,45.4004034 187.763278,46.503682 187.619288,47.6159668 C186.453873,47.0800887 185.553939,46.8729425 185.198465,47.2602158 C183.691076,48.9173852 185.198465,54.6364208 185.198465,54.6364208 C185.198465,54.6364208 177.841505,54.6364208 176.041637,56.2890869 C174.241768,57.9417531 170.94351,56.2890869 170.94351,56.2890869 C170.94351,56.2890869 164.194005,57.0456208 164.643972,58.4010773 C165.093939,59.7565337 161.044236,58.4010773 161.044236,58.4010773 C161.044236,58.4010773 158.191445,58.7027902 158.344434,60.6526661 C158.497422,62.602542 153.993252,63.5076807 154.591709,64.8631372 C155.190165,66.2185936 151.891906,67.114726 151.891906,67.114726 C151.891906,67.114726 148.593648,66.9661211 149.79506,68.915997 C149.79506,68.915997 147.995192,73.1309713 146.496802,73.4191747 C144.998412,73.707378 143.045555,77.179328 143.045555,77.179328 C143.045555,77.179328 137.267978,78.2330715 137.528959,80.0388458 C137.78994,81.84462 128.64661,94.7642366 128.64661,94.7642366 C128.64661,94.7642366 125.64533,100.956106 127.746676,105.472793 C129.848022,109.98948 131.346412,112.997603 131.796379,114.650269 C132.246346,116.302935 137.699947,123.58007 137.65495,124.935527 C137.65495,125.358825 139.004851,127.637433 140.845216,130.528473 L140.305256,131.086867 L139.121842,132.307229 C139.121842,132.307229 135.369117,141.637813 139.868788,142.08813 C143.671009,142.466397 146.402309,142.741091 147.788207,142.362824 C148.013137,142.310362 148.226616,142.217273 148.418161,142.08813 L148.472157,142.047602 C150.110037,144.465808 151.270952,146.1545 151.270952,146.1545 C151.270952,146.1545 151.43294,145.915831 151.720919,145.506042 L152.170886,146.149997 C152.170886,146.149997 152.53086,145.636634 153.142815,144.799043 C152.944829,148.892432 152.917831,152.927279 152.917831,152.927279 C152.917831,152.927279 154.870688,152.625566 153.970754,161.654437 C153.07082,170.683308 159.370358,178.05501 159.370358,178.05501 L159.370358,191.451964 C159.370358,191.451964 159.370358,191.789702 159.433354,192.352599 C159.599842,194.275456 160.148801,198.810156 161.768683,201.809272 C163.870029,205.71803 161.768683,215.953753 161.768683,215.953753 C161.768683,215.953753 161.629193,224.302644 162.133156,234.713991 C162.133156,234.997691 162.164654,235.290398 162.178153,235.578601 C153.079819,243.188971 143.320035,253.276089 143.320035,253.276089 C143.797907,253.409868 144.252962,253.614802 144.669936,253.884018 L144.125476,254.582011 L141.646157,257.639668 L139.729298,260.00834 L142.766575,269.370446 L146.082832,268.073531 C146.082832,268.073531 147.8827,271.194233 147.504728,273.310727 C147.447312,273.693356 147.292341,274.054722 147.054761,274.359967 C146.940227,274.513602 146.860393,274.690294 146.820778,274.877832 C145.952342,278.268725 149.574576,292.890543 155.320655,293.525491 C155.320655,293.525491 157.269012,294.169445 157.894467,292.413206 C158.195944,291.566609 158.191445,290.161617 157.516494,287.878506 C157.516494,287.878506 154.479217,284.21292 156.445573,280.263633 C157.597488,277.953503 159.500849,274.85982 160.877748,272.675779 L161.444706,271.775143 C162.682116,273.337746 163.44256,274.341954 163.44256,274.341954 L167.861236,269.586599 C167.955729,269.789242 168.050222,269.987381 168.149215,270.176515 C168.479864,270.838943 168.862012,271.474346 169.292131,272.076856 L172.288912,283.969748 L173.499323,283.699557 C173.472325,283.987761 173.454326,284.293977 173.436328,284.600193 C173.337335,286.734699 173.436328,289.504153 174.421755,291.481048 C175.159701,292.994116 176.40611,294.04786 178.439961,293.998325 C185.41445,293.827204 187.439301,290.049038 187.439301,290.049038 L187.439301,280.592365 L189.837625,280.056487 C189.837625,280.056487 189.662138,259.278825 189.045684,247.692149 C189.045684,247.435468 189.018686,247.187793 189.005187,246.944622 C189.005187,246.908596 189.005187,246.872571 189.005187,246.841048 L204.407558,230.264852 L205.590971,229.792018 C215.490245,225.878757 215.643234,215.796142 215.643234,215.796142 C215.643234,215.796142 215.643234,210.230214 216.840147,205.564922 C218.037059,200.89963 216.993135,176.668031 214.7433,170.651786 C212.493465,164.635541 211.74202,157.853755 211.74202,157.853755 C211.74202,157.853755 213.991855,154.701531 211.74202,152.076178 C211.106519,151.290364 210.577019,150.424336 210.167136,149.500361 L213.096421,149.018521 L214.783797,148.739324 L215.683731,148.586216 C215.233764,152.567025 215.15727,155.624682 216.223692,156.354197 C219.52645,158.605786 230.622636,151.085479 230.622636,151.085479 C226.572933,151.085479 224.323098,120.837635 225.146538,120.085604 C225.969977,119.333574 227.198387,104.175878 226.122966,101.473971 C225.047545,98.7720647 229.89819,86.7080519 229.89819,86.7080519 L230.645135,85.6002702 C230.645135,85.6002702 248.346838,93.3322262 250.295195,94.8137716 C252.243552,96.295317 258.394601,91.2112295 259.443024,93.1791181 C260.491447,95.1470067 267.092464,98.0785754 267.092464,98.0785754 C267.092464,98.0785754 276.843249,97.0923795 277.891672,99.5015795 C278.940095,101.91078 285.244133,107.553261 285.244133,107.553261 C285.247448,106.230337 285.327074,104.908707 285.482616,103.594968 C285.613106,103.905687 285.739097,104.22091 285.874087,104.540635 C288.861868,111.615127 293.834004,120.571948 298.441666,115.753548 C303.661284,110.277684 299.688075,100.15454 297.136762,95.05244 Z M163.726039,127.025001 L163.726039,127.110562 L163.690042,127.074536 L163.726039,127.025001 Z M160.234295,92.314508 L158.326435,112.448215 L154.57821,116.334457 L154.128243,116.811794 L150.254026,112.592317 C150.254026,112.592317 148.30117,111.691681 150.254026,110.034512 C152.206883,108.377343 146.955768,104.630699 146.955768,104.630699 C146.955768,104.630699 146.802779,101.928792 148.755636,101.172258 C150.708493,100.415725 153.255307,95.4532228 153.255307,95.4532228 L160.30629,91.8506807 L160.30629,91.8506807 L160.30629,91.8506807 L160.234295,92.314508 Z M185.324456,195.365225 C185.461097,195.238431 185.612117,195.128101 185.774423,195.036493 C186.615862,194.559156 187.155822,195.081525 187.434802,196.000173 C187.802375,197.539772 187.690902,199.155031 187.115325,200.62944 C186.066902,203.03864 188.618215,212.670937 188.618215,212.670937 C188.618215,212.670937 185.315457,214.170495 184.717001,217.034516 C184.628084,217.386469 184.475585,217.719176 184.267034,218.016208 C184.226537,217.76403 184.190539,217.520859 184.154542,217.286694 C183.862063,215.485423 183.704575,214.323603 183.704575,214.323603 C183.166661,212.006069 183.064428,209.608585 183.403097,207.253614 C183.880062,204.358071 184.842992,198.476921 185.202965,196.247848 C185.292959,195.707466 185.342455,195.383238 185.346955,195.347212 L185.324456,195.365225 Z" id="Shape" fill="url(#linearGradient-3)"></path>
                                                <path d="M206.496815,48.6461538 L207.414013,48 L210,53.7660256 L209.006369,55 L206,55 C206,55 206.106157,51.8589744 206.178344,51.7467949 C206.250531,51.6346154 206.496815,48.6461538 206.496815,48.6461538 Z" id="Path" fill="#464353"></path>
                                                <path d="M187,279 L187,291.13261 C187,291.13261 184.979781,294.825336 178.021248,294.992987 C176.289543,295.093386 174.682142,294.108098 174.012236,292.535581 C173.04253,290.603187 172.930296,287.894306 173.029062,285.807497 C173.078636,284.763619 173.191067,283.723541 173.365765,282.692725 L187,279 Z" id="Path" fill="#DFDFDF"></path>
                                                <path d="M187,278 L187,281.860661 L173,285 C173.049677,283.926603 173.162342,282.857114 173.337404,281.797148 L187,278 Z" id="Path" fill="#000000" opacity="0.1"></path>
                                                <path d="M190,281.082223 L172.707656,285 L169.754656,273.09755 C169.331769,272.493898 168.955243,271.857874 168.628436,271.195146 C168.437777,270.815569 168.251552,270.413398 168.074195,269.993152 C164.855158,262.487469 163.422997,248.949222 162.811114,237.430867 C162.780077,236.847946 162.749039,236.269543 162.722436,235.700177 C162.225835,225.279884 162.363287,216.920153 162.363287,216.920153 C162.363287,216.920153 164.433934,206.676092 162.363287,202.762834 C160.767071,199.744293 160.226131,195.207444 160.062075,193.273409 C160.017736,192.699525 160,192.369654 160,192.369654 L160.319243,191.515606 L161.62282,188 L175.962164,188 L184.29796,195.189369 L185.566066,196.282913 L185.42418,197.186667 C185.065031,199.418942 184.116169,205.32046 183.650606,208.203438 C183.316928,210.560539 183.417676,212.960396 183.94768,215.279838 C183.94768,215.279838 184.120603,216.427606 184.391073,218.248672 C184.457582,218.70055 184.532959,219.17954 184.617204,219.699199 C185.676914,226.377947 187.663317,238.574117 188.510198,241.488726 C188.745197,242.288549 188.953591,244.294885 189.108779,247.010668 C189.144251,247.552921 189.175288,248.117768 189.206326,248.709727 C189.827077,260.286826 190,281.082223 190,281.082223 Z" id="Path" fill="#575988"></path>
                                                <path d="M187,291 L187,291.123813 C187,291.123813 184.977878,294.824939 178.012789,294.992971 C176.279453,295.093599 174.670538,294.106069 174,292.529975 C177.123056,293.286119 182.191842,293.772528 187,291 Z" id="Path" fill="#000000" opacity="0.1"></path>
                                                <path d="M298.406929,116.646682 C293.748599,121.429811 288.764004,112.535969 285.75059,105.511448 C284.060359,101.557633 283,98.191063 283,98.191063 L295.398046,93 C295.398046,93 296.15933,94.1969031 297.115466,96.0931204 C299.684798,101.158665 303.686068,111.209065 298.406929,116.646682 Z" id="Path" fill="#FFCDD3"></path>
                                                <path d="M206.891224,46.5779039 C206.694429,51.1011066 207.027453,55.632072 207.883265,60.0751171 C207.883265,60.0751171 182.898206,62.8165958 185.142642,58.8597283 C186.457881,56.5386097 187.310767,50.4114049 187.786587,45.7280455 C188.13223,42.4108563 188.284852,39.820159 188.284852,39.820159 C188.284852,39.820159 212.224004,30.0742024 208.632906,38.2986383 C207.560066,40.7522617 207.061801,43.6582291 206.891224,46.5779039 Z" id="Path" fill="#FFCDD3"></path>
                                                <polygon id="Path" fill="#464353" points="209.268278 110.395455 206 151 221 148.427273 218.378386 114.940909 219.252258 106"></polygon>
                                                <polygon id="Path" fill="#000000" opacity="0.1" points="221 148.427273 214.487187 149.545455 206 151 206.598427 143.590909 209.271695 110.395455 212.674432 108.895455 215.085614 107.836364 219.252766 106 218.37915 114.940909"></polygon>
                                                <path d="M156.822857,280.682411 C154.842365,284.620965 157.901478,288.275943 157.901478,288.275943 C158.581281,290.558054 158.585813,291.953428 158.282167,292.777148 C157.652217,294.528117 155.689852,293.884445 155.689852,293.884445 C152.910152,293.580392 150.835097,289.772648 147.968544,282.55943 C147.050479,280.249269 145.414002,276.003126 143.059113,269.821003 L140,260.485504 L141.93064,258.122371 L144.427783,255.070554 L146.118227,253 L163,270.496184 C163,270.496184 162.279409,271.571972 161.286897,273.115885 C159.900099,275.280965 157.983054,278.386796 156.822857,280.682411 Z" id="Path" fill="#DFDFDF"></path>
                                                <path d="M189,248.718533 L167.947616,271 C164.257555,263.887466 162.67092,249.617665 162,237.57109 C165.921256,234.35032 169.706514,231.576879 172.571525,230.239365 C172.571525,230.239365 182.2636,223.319183 184.308093,220 C185.391538,226.611525 187.422431,238.68494 188.288281,241.570213 C188.573875,242.518551 188.809604,245.18016 189,248.718533 Z" id="Path" fill="#000000" opacity="0.1"></path>
                                                <polygon id="Path" fill="#000000" opacity="0.1" points="184 195 160 191.423004 161.304734 188 175.656805 188"></polygon>
                                                <path d="M189,246.889393 L167.487915,270 C164.179758,262.459887 162.716012,248.859537 162.090634,237.288346 C162.058912,236.70275 162.02719,236.121694 162,235.549716 C165.956193,232.244959 169.785498,229.40323 172.65861,228.0323 C172.65861,228.0323 181.699396,221.481798 184.160121,218 C184.228097,218.45395 184.305136,218.935137 184.391239,219.45718 C185.47432,226.166565 187.504532,238.418682 188.370091,241.346661 C188.610272,242.145613 188.809668,244.161152 189,246.889393 Z" id="Path" fill="#000000" opacity="0.1"></path>
                                                <path d="M162,270.39539 C162,270.39539 161.301611,271.464981 160.339678,273 C156.847731,268.50235 148.568082,258.146565 144,255.058626 L145.63836,253 L162,270.39539 Z" id="Path" fill="#000000" opacity="0.1"></path>
                                                <path d="M216.492155,206.268285 C215.295039,210.934641 215.295039,216.499066 215.295039,216.499066 C215.295039,216.499066 215.142024,226.576408 205.24106,230.489107 L204.057445,230.940398 L163.103457,275 C163.103457,275 147.950482,255.143168 143,253.93822 C143,253.93822 162.950442,233.327731 172.401363,228.814815 C172.401363,228.814815 183.805473,220.542639 184.404031,217.685963 C185.002589,214.829287 188.305911,213.321973 188.305911,213.321973 C188.305911,213.321973 185.754163,203.695923 186.802765,201.286026 C187.378484,199.813156 187.490006,198.198687 187.122296,196.660286 C186.843269,195.757703 186.303216,195.220666 185.461634,195.694522 C185.2993,195.786328 185.148255,195.896897 185.01159,196.023965 L159.062064,192.111267 L159.062064,178.739496 C159.062064,178.739496 152.76145,171.369904 153.661538,162.344071 C154.561626,153.318238 152.608435,153.620604 152.608435,153.620604 C152.608435,153.620604 152.702945,138.375973 153.98557,137.10333 C155.268194,135.830688 167.590394,130 167.590394,130 L206.222155,136.882197 L207.81531,144.292406 C207.81531,144.292406 209.165442,150.186275 211.415661,152.803766 C213.66588,155.421257 211.415661,158.575786 211.415661,158.575786 C211.415661,158.575786 212.167234,165.34516 214.417453,171.369904 C216.667672,177.394647 217.693772,201.606443 216.492155,206.268285 Z" id="Path" fill="#575988"></path>
                                                <path d="M208.6366,38.2907405 C207.574552,40.7384893 207.0813,43.6557318 206.912439,46.5501833 C201.387427,51.4592417 193.08644,51.0871177 188,45.7023597 C188.342166,42.3931128 188.493252,39.8086183 188.493252,39.8086183 C188.493252,39.8086183 212.191569,30.085996 208.6366,38.2907405 Z" id="Path" fill="#000000" opacity="0.1"></path>
                                                <path d="M211.999997,35.0092734 C211.995517,42.4190506 206.217458,48.5418803 198.820069,48.9756324 C191.42268,49.4093846 184.968584,44.0037979 184.098081,36.645326 C183.227578,29.2868541 188.24223,22.5246372 195.536653,21.2205053 C202.831077,19.9163733 209.878319,24.5221069 211.611626,31.7263225 C211.8703,32.8014597 212.000666,33.9034588 211.999997,35.0092734 Z" id="Path" fill="#FFCDD3"></path>
                                                <path d="M200.860034,60.2524101 C200.860034,60.2524101 190.851473,55.6075871 190.227061,55.0050641 C189.602649,54.4025411 168.839825,107.766296 168.839825,107.766296 L163,134.295295 C163,134.295295 194.144236,147.631738 200.882495,145.833161 C207.620755,144.034585 208.218214,145.833161 208.218214,145.833161 C208.218214,145.833161 215.109207,107.163773 217.355294,103.7195 C219.60138,100.275227 215.257449,65.1984946 215.257449,65.1984946 L207.472513,55.0005677 L200.860034,60.2524101 Z" id="Path" fill="#000000" opacity="0.1"></path>
                                                <path d="M200.860034,58.2524101 C200.860034,58.2524101 190.851473,53.6075871 190.227061,53.0050641 C189.602649,52.4025411 168.839825,105.766296 168.839825,105.766296 L163,132.295295 C163,132.295295 194.144236,145.631738 200.882495,143.833161 C207.620755,142.034585 208.218214,143.833161 208.218214,143.833161 C208.218214,143.833161 215.109207,105.163773 217.355294,101.7195 C219.60138,98.2752267 215.257449,63.1984946 215.257449,63.1984946 L207.472513,53.0005677 L200.860034,58.2524101 Z" id="Path" fill="#000000" opacity="0.1"></path>
                                                <path d="M217.352211,102.715031 C216.902908,103.429966 216.22446,105.651209 215.465138,108.726776 C214.93496,110.867083 214.359852,113.416566 213.771265,116.159396 C211.120376,128.538103 208.217877,144.833213 208.217877,144.833213 C208.217877,144.833213 208.033663,144.284647 206.735176,144.095796 C205.683807,143.942917 203.89558,144.02835 200.894234,144.833213 C194.154686,146.63179 163,133.290844 163,133.290844 L163.898606,129.244045 L168.840942,106.76183 C168.840942,106.76183 189.661654,53.4025412 190.259227,54.0050645 C190.623162,54.3692764 194.514128,56.253286 197.47953,57.6516798 C199.371096,58.5509684 200.894234,59.2479171 200.894234,59.2479171 L207.184479,54.2748511 L207.530443,54.0005681 L215.280924,64.1940043 C215.280924,64.1940043 219.598728,99.2662596 217.352211,102.715031 Z" id="Path" fill="#FFFFFF"></path>
                                                <path d="M193.028633,64.4746715 C193.938453,67.9212213 191.818571,73.5862915 191.818571,73.5862915 C191.818571,73.5862915 184.540005,91.217926 182.415574,99.3659462 C180.291143,107.513966 168.140487,123.935499 168.140487,123.935499 C168.140487,123.935499 166.357238,125.69687 163.859781,128.148447 C163.582285,128.42184 163.291143,128.704197 163,129 L168.004014,106.590703 C168.004014,106.590703 189.08456,53.404479 189.689591,54.0050481 C190.058068,54.3680787 193.997592,56.2459778 197,57.639836 C195.12122,59.3250151 192.423602,62.1934051 193.028633,64.4746715 Z" id="Path" fill="#000000" opacity="0.1"></path>
                                                <path d="M192.407489,63.781318 C193.300148,67.236903 191.220252,72.9168241 191.220252,72.9168241 C191.220252,72.9168241 184.078976,90.59468 181.994616,98.7640602 C179.910256,106.93344 167.98879,123.398022 167.98879,123.398022 C167.98879,123.398022 166.239177,125.16401 163.788827,127.622014 C163.498713,127.914099 163.195208,128.21517 162.896168,128.520736 C158.111513,133.315416 151.385324,140.037854 149.283111,142.001561 C148.975144,142.293646 148.765369,142.482377 148.676103,142.545288 C148.486106,142.674156 148.274353,142.767047 148.051241,142.819398 C146.676546,143.196861 143.967324,142.922751 140.195838,142.545288 C135.732541,142.095927 139.454931,132.812132 139.454931,132.812132 L140.628778,131.594364 L141.699969,130.479949 L153.857991,117.884364 L154.75065,116.936213 L158.468577,113.076203 L160.361015,93.0347094 L160.405648,92.5538933 C160.405648,92.5538933 159.852199,91.2822021 158.999709,89.3409632 C156.727891,84.0879348 152.264594,73.9503541 150.631027,70.6745135 C150.443568,70.2925568 150.29628,70.0094594 150.184697,69.8342087 C150.184697,69.8117406 150.162381,69.7892726 150.148991,69.7712982 C148.95729,67.8255657 152.228887,67.9738548 152.228887,67.9738548 C152.228887,67.9738548 155.504947,67.0751331 154.906866,65.7270505 C154.308784,64.378968 158.776544,63.4802463 158.629255,61.5345138 C158.481967,59.5887813 161.307234,59.2877095 161.307234,59.2877095 C161.307234,59.2877095 165.324201,60.6357921 164.877872,59.2877095 C164.431542,57.939627 171.126488,57.1891944 171.126488,57.1891944 C171.126488,57.1891944 174.398084,58.8383487 176.183403,57.1891944 C177.968722,55.54004 185.292993,55.5445337 185.292993,55.5445337 C185.292993,55.5445337 183.797788,49.8511317 185.292993,48.2019774 C186.788197,46.552823 198,55.5445337 198,55.5445337 C198,55.5445337 191.514829,60.3302267 192.407489,63.781318 Z" id="Path" fill="#323232"></path>
                                                <path d="M155,140.823118 C155,140.823118 167.28658,158.624547 175.869868,152.84593 C184.453156,147.067312 164.324835,132 164.324835,132 L155,140.823118 Z" id="Path" fill="#000000" opacity="0.1"></path>
                                                <path d="M155,139.823118 C155,139.823118 167.28658,157.624547 175.869868,151.84593 C184.453156,146.067312 164.324835,131 164.324835,131 L155,139.823118 Z" id="Path" fill="#FFCDD3"></path>
                                                <path d="M214.480949,150 C215.403498,141.720804 218.079325,129.281773 215.897564,125.50869 C214.817614,123.637888 214.017489,120.071673 213.431605,116.168174 C213.116802,114.068019 212.867583,111.868928 212.666458,109.782264 C212.133042,104.246311 211.962523,99.5063475 211.962523,99.5063475 C211.962523,99.5063475 206.715803,75.4377664 207.734541,70.4909355 C208.372892,67.3969176 207.638351,59.6438844 207,54.2743243 L207.336665,54 L214.878826,64.1949688 C214.878826,64.1949688 219.102436,99.2724973 216.916302,102.721788 C216.479076,103.43683 215.818863,105.658406 215.07995,108.734436 L219.251093,106.935588 L218.37664,115.781421 L221,148.911697 L214.480949,150 Z" id="Path" fill="#000000" opacity="0.1"></path>
                                                <path d="M207,48 C207,48 214.780369,54.5396567 217.74088,54.6890052 C217.74088,54.6890052 216.942083,58.3095764 213.634073,59.8211649 C213.634073,59.8211649 221.757428,60.8982848 224.767582,60.4321363 C227.777736,59.9659877 233.039865,60.7263077 234.091388,62.2424219 C235.142911,63.758536 237.426476,65.7045931 239.231666,66.0032902 C241.036856,66.3019873 243,68.1167986 243,68.1167986 L229.754419,87.7267172 C229.754419,87.7267172 224.939075,99.7967964 225.990598,102.512225 C227.042121,105.227653 225.837157,120.465732 225.011282,121.217001 C224.185408,121.968269 226.441895,152.295078 230.503573,152.295078 C230.503573,152.295078 219.374577,159.839444 216.062053,157.576587 C212.74953,155.31373 220.277172,130.874874 216.964648,125.290143 C213.652125,119.705412 212.902971,99.122465 212.902971,99.122465 C212.902971,99.122465 207.487401,74.9053696 208.543437,69.9270842 C209.599473,64.9487988 207,48 207,48 Z" id="Path" fill="#323232"></path>
                                                <path d="M297,96.2185597 C292.995506,94.9236833 286.860674,94.8864206 285.72809,106 C284.051685,101.891795 283,98.3937657 283,98.3937657 L295.296629,93 C295.296629,93 296.051685,94.2482981 297,96.2185597 Z" id="Path" fill="#000000" opacity="0.1"></path>
                                                <path d="M235.568509,67 L242.918365,67.8961749 C242.918365,67.8961749 245.166027,70.884918 247.256353,70.884918 C249.346679,70.884918 251.000959,73.5734426 251.000959,73.5734426 C251.000959,73.5734426 253.999341,75.2134426 255.945816,74.7653552 C257.892292,74.3172678 265.983877,73.5779235 267.184129,74.8460109 C268.38438,76.1140984 276.174778,77.3060109 276.174778,77.3060109 C276.174778,77.3060109 279.17316,81.9347541 281.870355,81.9347541 C284.56755,81.9347541 299.550468,92.8412022 300,96.7216393 C300,96.7216393 285.165428,87.3118033 285.017082,108 C285.017082,108 278.723627,102.398907 277.671721,100.010601 C276.619815,97.6222951 266.882942,98.5946448 266.882942,98.5946448 C266.882942,98.5946448 260.292795,95.6775956 259.240889,93.737377 C258.188983,91.7971585 252.04837,96.8291803 250.101894,95.3549727 C248.155418,93.880765 230.47081,86.2095082 230.47081,86.2095082 L225,75.9617486 L235.568509,67 Z" id="Path" fill="#323232"></path>
                                                <path d="M158,292.773747 C157.38054,294.529586 155.450854,293.884123 155.450854,293.884123 C151.404308,293.432751 147.256747,285.381768 143.00817,269.731174 L140,260.369706 L141.89849,258 C141.05653,261.200081 143.362714,266.05126 144,267.269966 C145.21004,269.797186 146.220803,276 147.957207,279 C147.854707,281.933922 152.059421,292.394594 158,292.773747 Z" id="Path" fill="#000000" opacity="0.1"></path>
                                                <path d="M210.986751,32.5874782 C210.686431,32.4846335 210.386112,32.3639028 210.103458,32.2431721 C209.092088,31.827322 208.02772,31.3488708 207.413832,30.4545694 C206.852941,29.6228691 206.671866,28.4513344 205.797406,27.9773546 C204.790452,27.4318308 203.589174,28.1696294 202.498308,28.4245053 C201.199867,28.7330393 199.84843,28.3663757 198.585321,27.8968675 C196.703907,27.1948409 194.076112,25.9025755 192.146117,27.239556 C190.64452,28.2769456 191.227493,30.4769269 190.84326,32.0464258 C190.247038,34.483397 187.689905,36.070782 187.208511,38.5345822 C186.992104,39.6211584 187.133431,40.9491959 186.263388,41.6243934 C186.009463,41.8076779 185.720714,41.9355801 185.415427,42 C183.088582,37.2295749 183.663858,31.5316868 186.89589,27.3365797 C190.127922,23.1414725 195.446331,21.1894864 200.582727,22.3131757 C205.719123,23.436865 209.76705,27.4379244 211,32.6098357 L210.986751,32.5874782 Z" id="Path" fill="#000000" opacity="0.1"></path>
                                                <path d="M179.299023,36.929672 C180.394252,36.5649555 181.700312,37.182168 182.310902,38.0518764 C182.921492,38.9215848 183.006373,39.9736514 183.080301,40.9808299 C183.80589,41.1379385 184.213863,40.2962852 184.279576,39.6650452 C184.553384,37.0811696 184.567074,34.4496002 185.413138,31.9583065 C186.259203,29.4670127 188.107402,27.0542732 190.949521,26.0947885 C191.916041,25.751207 192.948896,25.6501881 193.9614,25.8002098 C194.561038,25.9040137 195.127819,26.1172325 195.727457,26.2182309 C197.800178,26.5689198 200.059087,25.5617414 202.005857,26.2631191 C203.224299,26.7035843 204.010126,27.7219848 204.568692,28.7431908 C204.817654,29.2914767 205.15454,29.7931308 205.565351,30.2273062 C206.386772,30.9847941 207.690095,31.1839854 208.872942,31.4224539 C210.055789,31.6609223 211.353636,32.0705269 211.860179,33.0075676 C212.317437,33.8492209 211.980654,34.8311497 211.827322,35.7513573 C211.593188,37.2012473 211.830826,38.6897957 212.503626,39.987679 C212.722672,40.4141166 213.16624,40.8966645 213.689211,40.7591945 C213.927249,40.6769249 214.128437,40.5096204 214.255992,40.2878687 C215.625029,38.3240109 215.581219,35.7766069 217.287039,34.0231626 C217.859296,33.4368108 218.595837,32.976707 219.151666,32.3791331 C220.006138,31.495029 220.369359,30.229873 220.118205,29.0125199 C219.811541,27.6630691 218.749169,26.5380592 217.908581,25.3653556 C216.803635,23.8626107 215.998799,22.1513249 215.540148,20.3294633 C215.459262,20.1184808 215.459262,19.8839563 215.540148,19.6729737 C215.701033,19.4582556 215.908111,19.2844802 216.145262,19.1651763 C217.106602,18.5119614 217.443379,17.2278622 216.931089,16.1688905 C216.454665,15.15049 215.384078,14.3958075 214.209445,13.9413148 C213.034812,13.486822 211.74518,13.2932417 210.469238,13.0996615 C209.631388,13.2259094 208.64842,12.734945 208.388303,12.0475948 C208.273304,11.7417941 208.273304,11.4107438 208.155567,11.1049431 C207.928307,10.5185913 207.273908,10.1033757 206.570223,9.96029463 C205.854514,9.84010879 205.121296,9.89294792 204.429051,10.1145977 C203.640486,10.3418441 202.72597,10.6756999 202.038714,10.2885394 C201.677288,10.0781261 201.474671,9.69657659 201.085864,9.52544042 C200.2973,9.18036257 199.464926,9.8761293 198.895407,10.4512591 C198.342824,11.0504117 197.666434,11.5153209 196.91578,11.8119319 C196.124477,12.092483 195.149724,12.092483 194.467944,11.6464067 C193.920329,11.2901068 193.646522,10.7177826 193.211168,10.2632898 C192.496531,9.51421838 191.365708,9.10741928 190.237622,9.01483742 C189.106201,8.95391553 187.972609,9.08086704 186.880745,9.39077589 C184.796206,9.90819572 182.804723,10.7603906 180.980199,11.9157358 C180.068421,12.5020876 179.194976,13.1866323 178.718551,14.0703683 C178.38011,14.7594919 178.205596,15.5208851 178.20927,16.292333 C178.12439,18.707878 178.907478,21.255282 180.947342,22.9470051 C179.704257,23.4800522 179.282594,24.7846148 178.992359,25.9432909 C178.526886,27.7893171 178.058676,29.6690095 178.233913,31.5543129 C178.321531,32.5278252 178.581648,33.5013375 178.442006,34.4692388 C178.376292,34.9377592 178.217484,35.397863 178.255817,35.8719943 C178.35978,36.4099452 178.772935,36.8288319 179.299023,36.929672 L179.299023,36.929672 Z" id="Path" fill="#000000"></path>
                                                <path d="M197,190 C197,190 211.536894,198.673654 212,202 L197,190 Z" id="Path" fill="#000000" opacity="0.1"></path>
                                                <path d="M196,196 C196,196 211.844907,204.171024 210.964635,207 L196,196 Z" id="Path" fill="#000000" opacity="0.1"></path>
                                                <path d="M195,203 C195,203 204.386248,208.021176 205,211 L195,203 Z" id="Path" fill="#000000" opacity="0.1"></path>
                                                <path d="M199,214 C199,214 204.738156,219.094362 205.887509,217.784758 C207.036862,216.475153 199,214 199,214 Z" id="Path" fill="#000000" opacity="0.1"></path>
                                                <path d="M190,218 C190,218 194.617384,225.530453 192.395351,225.98246 C190.173319,226.434468 190,218 190,218 Z" id="Path" fill="#000000" opacity="0.1"></path>
                                                <path d="M170,84 C170,84 162.053672,88.6924127 164.450612,89.8677168 C166.847552,91.0430209 170,84 170,84 Z" id="Path" fill="#000000" opacity="0.1"></path>
                                                <path d="M170,67 C170,67 162.418407,82.0059331 165.927,80.9464233 C169.435593,79.8869135 170,67 170,67 Z" id="Path" fill="#000000" opacity="0.1"></path>
                                                <path d="M256,81 C256,81 251.239669,86.823 252.105184,90 L256,81 Z" id="Path" fill="#000000" opacity="0.1"></path>
                                                <path d="M269,84 C269,84 262.088305,90.2841396 263.101407,91 L269,84 Z" id="Path" fill="#000000" opacity="0.1"></path>
                                                <path d="M273.340272,92 C273.340272,92 272.238525,96.82 274,97 L273.340272,92 Z" id="Path" fill="#000000" opacity="0.1"></path>
                                                <path d="M192.612472,184.295964 C190.717345,186.762332 190.717345,191.134529 189.861193,192.928251 C189.392985,193.914798 188.34955,195.618834 187.502317,197 C187.225851,196.103139 186.690756,195.569507 185.8569,196.040359 C185.308428,191.928251 184.340798,184.829596 184.02866,183.399103 C183.582747,181.381166 188.487783,176 188.487783,176 C188.487783,176 193.281341,177.008969 194.5076,179.475336 C195.733858,181.941704 194.5076,181.834081 192.612472,184.295964 Z" id="Path" fill="#000000" opacity="0.05"></path>
                                                <path d="M167,131.71621 C161.651123,132.469956 151.697754,147 151.697754,147 C151.697754,147 150.391737,145.065688 148.577576,142.364008 C146.295388,138.935826 143.228699,134.263508 141,130.72181 L154.060175,117 L156.435968,119.606327 C156.435968,119.606327 161.044917,124.296806 161.044917,125.204934 C161.044917,125.559104 161.936396,126.635235 163.068575,127.811261 C164.802503,129.641138 167,131.71621 167,131.71621 Z" id="Path" fill="#000000" opacity="0.1"></path>
                                                <path d="M150.455235,70.8621485 C150.264036,70.4702628 150.113809,70.1798064 150,70 L155.881639,70.3964961 L159,90 C156.673748,84.6242508 152.121396,74.2231443 150.455235,70.8621485 Z" id="Path" fill="#000000" opacity="0.1"></path>
                                                <path d="M162,128.67183 C157.2728,133.476405 150.62738,140.212716 148.550411,142.180476 C148.246142,142.473163 148.038886,142.662284 147.950692,142.725324 C147.762977,142.854459 147.553766,142.947541 147.333333,143 C145.256364,139.884006 142.293045,135.394633 140,131.742795 L141.058328,130.626081 L153.079174,118 L154.565244,119.634546 C154.565244,119.634546 159.124875,124.286023 159.124875,125.186599 C159.124875,125.618876 160.549208,127.185879 162,128.67183 Z" id="Path" fill="#000000" opacity="0.1"></path>
                                                <path d="M156.857869,70.4502924 L150.038866,70 C150.038866,70 148.220466,74.2012281 146.706647,74.502924 C145.192828,74.8046199 143.219863,78.2538596 143.219863,78.2538596 C143.219863,78.2538596 137.382797,79.3075439 137.637373,81.1087135 C137.891949,82.909883 128.663565,95.7927485 128.663565,95.7927485 C128.663565,95.7927485 125.631381,101.97076 127.754364,106.473684 C129.877347,110.976608 131.391166,113.980058 131.845766,115.628129 C132.300366,117.276199 137.682833,124.48538 137.637373,125.836257 C137.591913,127.187135 151.393575,147 151.393575,147 C151.393575,147 161.544798,132.590643 167,131.838655 C167,131.838655 160.940179,126.28655 160.940179,125.385965 C160.940179,124.48538 156.275981,119.83386 156.275981,119.83386 L150.366178,113.529766 C150.366178,113.529766 148.393214,112.629181 150.366178,110.976608 C152.339143,109.324035 147.033959,105.573099 147.033959,105.573099 C147.033959,105.573099 146.879395,102.871345 148.85236,102.119357 C150.825325,101.367368 153.398362,96.418655 153.398362,96.418655 L160.521947,92.8163158 L156.857869,70.4502924 Z" id="Path" fill="#323232"></path>
                                                <path d="M131,99.9080128 C131,99.9080128 138.85412,98.3299495 138.998112,99.3345635 C139.142105,100.339178 131,99.9080128 131,99.9080128 Z" id="Path" fill="#000000" opacity="0.1"></path>
                                                <path d="M137,108 C137,108 144.310713,108.999458 143.989731,110.628575 C143.66875,112.257691 137,108 137,108 Z" id="Path" fill="#000000" opacity="0.1"></path>
                                                <path d="M144,83 C144,83 150.160168,92.7419573 151,90.725086 L144,83 Z" id="Path" fill="#000000" opacity="0.1"></path>
                                            </g>
                                        </g>
                                    </g>
                                </g>
                            </g>
                        </g>
                    </g>
                </g>
            </g>
        </g>
    </g>
</svg>