<?xml version="1.0" encoding="UTF-8"?>
<svg width="7155px" height="4201px" viewBox="0 0 7155 4201" version="1.1" xmlns="http://www.w3.org/2000/svg" xmlns:xlink="http://www.w3.org/1999/xlink">
    <!-- Generator: Sketch 53.2 (72643) - https://sketchapp.com -->
    <title>Group 13</title>
    <desc>Created with Sketch.</desc>
    <defs>
        <rect id="path-1" x="0" y="0" width="7155" height="4201"></rect>
    </defs>
    <g id="personalwebsite" stroke="none" stroke-width="1" fill="none" fill-rule="evenodd">
        <g id="Group-13">
            <mask id="mask-2" fill="white">
                <use xlink:href="#path-1"></use>
            </mask>
            <rect stroke="#000000" x="0.5" y="0.5" width="7154" height="4200"></rect>
            <g mask="url(#mask-2)" stroke-linecap="square">
                <g transform="translate(2.000000, -99.000000)">
                    <path d="M196.611598,0 L196.611598,4359.39075" id="Line" stroke="#000000"></path>
                    <path d="M3704.55671,0 L3704.55671,4359.39075" id="Line" stroke="#000000"></path>
                    <path d="M1950.58415,0 L1950.58415,4359.39075" id="Line" stroke="#000000"></path>
                    <path d="M5458.52926,0 L5458.52926,4359.39075" id="Line" stroke="#000000"></path>
                    <path d="M1073.59788,0 L1073.59788,4359.39075" id="Line" stroke="#000000"></path>
                    <path d="M4581.54298,0 L4581.54298,4359.39075" id="Line" stroke="#000000"></path>
                    <path d="M2827.57043,0 L2827.57043,4359.39075" id="Line" stroke="#000000"></path>
                    <path d="M6335.51554,0 L6335.51554,4359.39075" id="Line" stroke="#000000"></path>
                    <path d="M635.104737,0 L635.104737,4359.39075" id="Line" stroke="#000000"></path>
                    <path d="M4143.04985,0 L4143.04985,4359.39075" id="Line" stroke="#000000"></path>
                    <path d="M2389.07729,0 L2389.07729,4359.39075" id="Line" stroke="#000000"></path>
                    <path d="M5897.0224,0 L5897.0224,4359.39075" id="Line" stroke="#000000"></path>
                    <path d="M1512.09101,0 L1512.09101,4359.39075" id="Line" stroke="#000000"></path>
                    <path d="M5020.03612,0 L5020.03612,4359.39075" id="Line" stroke="#000000"></path>
                    <path d="M3266.06357,0 L3266.06357,4359.39075" id="Line" stroke="#000000"></path>
                    <path d="M6774.00868,0 L6774.00868,4359.39075" id="Line" stroke="#000000"></path>
                    <path d="M415.858167,0 L415.858167,4359.39075" id="Line" stroke="#000000"></path>
                    <path d="M3923.80328,0 L3923.80328,4359.39075" id="Line" stroke="#000000"></path>
                    <path d="M2169.83072,0 L2169.83072,4359.39075" id="Line" stroke="#000000"></path>
                    <path d="M5677.77583,0 L5677.77583,4359.39075" id="Line" stroke="#000000"></path>
                    <path d="M1292.84444,0 L1292.84444,4359.39075" id="Line" stroke="#000000"></path>
                    <path d="M4800.78955,0 L4800.78955,4359.39075" id="Line" stroke="#000000"></path>
                    <path d="M3046.817,0 L3046.817,4359.39075" id="Line" stroke="#000000"></path>
                    <path d="M6554.76211,0 L6554.76211,4359.39075" id="Line" stroke="#000000"></path>
                    <path d="M854.351306,0 L854.351306,4359.39075" id="Line" stroke="#000000"></path>
                    <path d="M4362.29642,0 L4362.29642,4359.39075" id="Line" stroke="#000000"></path>
                    <path d="M2608.32386,0 L2608.32386,4359.39075" id="Line" stroke="#000000"></path>
                    <path d="M6116.26897,0 L6116.26897,4359.39075" id="Line" stroke="#000000"></path>
                    <path d="M1731.33758,0 L1731.33758,4359.39075" id="Line" stroke="#000000"></path>
                    <path d="M5239.28269,0 L5239.28269,4359.39075" id="Line" stroke="#000000"></path>
                    <path d="M3485.31014,0 L3485.31014,4359.39075" id="Line" stroke="#000000"></path>
                    <path d="M6993.25525,0 L6993.25525,4359.39075" id="Line" stroke="#000000"></path>
                    <path d="M240.460912,0 L240.460912,4359.39075" id="Line" stroke="#000000"></path>
                    <path d="M3748.40602,0 L3748.40602,4359.39075" id="Line" stroke="#000000"></path>
                    <path d="M1994.43347,0 L1994.43347,4359.39075" id="Line" stroke="#000000"></path>
                    <path d="M5502.37858,0 L5502.37858,4359.39075" id="Line" stroke="#000000"></path>
                    <path d="M1117.44719,0 L1117.44719,4359.39075" id="Line" stroke="#000000"></path>
                    <path d="M4625.3923,0 L4625.3923,4359.39075" id="Line" stroke="#000000"></path>
                    <path d="M2871.41974,0 L2871.41974,4359.39075" id="Line" stroke="#000000"></path>
                    <path d="M6379.36485,0 L6379.36485,4359.39075" id="Line" stroke="#000000"></path>
                    <path d="M678.954051,0 L678.954051,4359.39075" id="Line" stroke="#000000"></path>
                    <path d="M4186.89916,0 L4186.89916,4359.39075" id="Line" stroke="#000000"></path>
                    <path d="M2432.92661,0 L2432.92661,4359.39075" id="Line" stroke="#000000"></path>
                    <g id="Group-13" stroke="none" fill-rule="evenodd" transform="translate(6203.873503, 3616.156386) rotate(-90.000000) translate(-6203.873503, -3616.156386) translate(2713.373503, -2586.843614)">
                        <path d="M3513.39354,0.289296508 L3513.39354,12403.0267" id="Line" stroke="#000000"></path>
                        <path d="M5264.78672,0.289296508 L5264.78672,12403.0267" id="Line" stroke="#000000"></path>
                        <path d="M4387.80044,0.289296508 L4387.80044,12403.0267" id="Line" stroke="#000000"></path>
                        <path d="M6144.35237,0.289296508 L6144.35237,12403.0267" id="Line" stroke="#000000"></path>
                        <path d="M3951.88668,0.289296508 L3951.88668,12403.0267" id="Line" stroke="#000000"></path>
                        <path d="M5705.85923,0.289296508 L5705.85923,12403.0267" id="Line" stroke="#000000"></path>
                        <path d="M4826.29358,0.289296508 L4826.29358,12403.0267" id="Line" stroke="#000000"></path>
                        <path d="M3072.32103,0.289296508 L3072.32103,12403.0267" id="Line" stroke="#000000"></path>
                        <path d="M6582.84551,0.289296508 L6582.84551,12403.0267" id="Line" stroke="#000000"></path>
                        <path d="M3732.64011,0.289296508 L3732.64011,12403.0267" id="Line" stroke="#000000"></path>
                        <path d="M5486.61266,0.289296508 L5486.61266,12403.0267" id="Line" stroke="#000000"></path>
                        <path d="M4607.04701,0.289296508 L4607.04701,12403.0267" id="Line" stroke="#000000"></path>
                        <path d="M2853.07446,0.289296508 L2853.07446,12403.0267" id="Line" stroke="#000000"></path>
                        <path d="M6363.59894,0.289296508 L6363.59894,12403.0267" id="Line" stroke="#000000"></path>
                        <path d="M4168.55387,0.289296508 L4168.55387,12403.0267" id="Line" stroke="#000000"></path>
                        <path d="M5925.1058,0.289296508 L5925.1058,12403.0267" id="Line" stroke="#000000"></path>
                        <path d="M5045.54015,0.289296508 L5045.54015,12403.0267" id="Line" stroke="#000000"></path>
                        <path d="M3294.14697,0.289296508 L3294.14697,12403.0267" id="Line" stroke="#000000"></path>
                        <path d="M6802.09208,0.289296508 L6802.09208,12403.0267" id="Line" stroke="#000000"></path>
                        <path d="M3557.24285,0.289296508 L3557.24285,12403.0267" id="Line" stroke="#000000"></path>
                        <path d="M5311.21541,0.289296508 L5311.21541,12403.0267" id="Line" stroke="#000000"></path>
                        <path d="M4431.64976,0.289296508 L4431.64976,12403.0267" id="Line" stroke="#000000"></path>
                        <path d="M6188.20168,0.289296508 L6188.20168,12403.0267" id="Line" stroke="#000000"></path>
                        <path d="M3995.73599,0.289296508 L3995.73599,12403.0267" id="Line" stroke="#000000"></path>
                        <path d="M5749.70855,0.289296508 L5749.70855,12403.0267" id="Line" stroke="#000000"></path>
                        <path d="M4870.1429,0.289296508 L4870.1429,12403.0267" id="Line" stroke="#000000"></path>
                        <path d="M3116.17034,0.289296508 L3116.17034,12403.0267" id="Line" stroke="#000000"></path>
                        <path d="M6626.69482,0.289296508 L6626.69482,12403.0267" id="Line" stroke="#000000"></path>
                        <path d="M3776.48942,0.289296508 L3776.48942,12403.0267" id="Line" stroke="#000000"></path>
                        <path d="M5530.46198,0.289296508 L5530.46198,12403.0267" id="Line" stroke="#000000"></path>
                        <path d="M4650.89633,0.289296508 L4650.89633,12403.0267" id="Line" stroke="#000000"></path>
                        <path d="M2896.92377,0.289296508 L2896.92377,12403.0267" id="Line" stroke="#000000"></path>
                        <path d="M6407.44825,0.289296508 L6407.44825,12403.0267" id="Line" stroke="#000000"></path>
                        <path d="M4212.40319,0.289296508 L4212.40319,12403.0267" id="Line" stroke="#000000"></path>
                        <path d="M5968.95511,0.289296508 L5968.95511,12403.0267" id="Line" stroke="#000000"></path>
                        <path d="M5089.38947,0.289296508 L5089.38947,12403.0267" id="Line" stroke="#000000"></path>
                        <path d="M3337.99628,0.289296508 L3337.99628,12403.0267" id="Line" stroke="#000000"></path>
                        <path d="M6845.94139,0.289296508 L6845.94139,12403.0267" id="Line" stroke="#000000"></path>
                        <path d="M3601.09217,0.289296508 L3601.09217,12403.0267" id="Line" stroke="#000000"></path>
                        <path d="M5355.06472,0.289296508 L5355.06472,12403.0267" id="Line" stroke="#000000"></path>
                        <path d="M4475.49907,0.289296508 L4475.49907,12403.0267" id="Line" stroke="#000000"></path>
                        <path d="M6232.051,0.289296508 L6232.051,12403.0267" id="Line" stroke="#000000"></path>
                        <path d="M4039.5853,0.289296508 L4039.5853,12403.0267" id="Line" stroke="#000000"></path>
                        <path d="M5793.55786,0.289296508 L5793.55786,12403.0267" id="Line" stroke="#000000"></path>
                        <path d="M4913.99221,0.289296508 L4913.99221,12403.0267" id="Line" stroke="#000000"></path>
                        <path d="M3160.01966,0.289296508 L3160.01966,12403.0267" id="Line" stroke="#000000"></path>
                        <path d="M6670.54414,0.289296508 L6670.54414,12403.0267" id="Line" stroke="#000000"></path>
                        <path d="M3820.33874,0.289296508 L3820.33874,12403.0267" id="Line" stroke="#000000"></path>
                        <path d="M5574.31129,0.289296508 L5574.31129,12403.0267" id="Line" stroke="#000000"></path>
                        <path d="M4694.74564,0.289296508 L4694.74564,12403.0267" id="Line" stroke="#000000"></path>
                        <path d="M2940.77309,0.289296508 L2940.77309,12403.0267" id="Line" stroke="#000000"></path>
                        <path d="M6451.29757,0.289296508 L6451.29757,12403.0267" id="Line" stroke="#000000"></path>
                        <path d="M4256.2525,0.289296508 L4256.2525,12403.0267" id="Line" stroke="#000000"></path>
                        <path d="M6012.80443,0.289296508 L6012.80443,12403.0267" id="Line" stroke="#000000"></path>
                        <path d="M5133.23878,0.289296508 L5133.23878,12403.0267" id="Line" stroke="#000000"></path>
                        <path d="M3381.8456,0.289296508 L3381.8456,12403.0267" id="Line" stroke="#000000"></path>
                        <path d="M6889.79071,0.289296508 L6889.79071,12403.0267" id="Line" stroke="#000000"></path>
                        <path d="M3644.94148,0.289296508 L3644.94148,12403.0267" id="Line" stroke="#000000"></path>
                        <path d="M5398.91403,0.289296508 L5398.91403,12403.0267" id="Line" stroke="#000000"></path>
                        <path d="M4519.34839,0.289296508 L4519.34839,12403.0267" id="Line" stroke="#000000"></path>
                        <path d="M6275.90031,0.289296508 L6275.90031,12403.0267" id="Line" stroke="#000000"></path>
                        <path d="M4083.43462,0.289296508 L4083.43462,12403.0267" id="Line" stroke="#000000"></path>
                        <path d="M5837.40717,0.289296508 L5837.40717,12403.0267" id="Line" stroke="#000000"></path>
                        <path d="M4957.84152,0.289296508 L4957.84152,12403.0267" id="Line" stroke="#000000"></path>
                        <path d="M3206.44834,0.289296508 L3206.44834,12403.0267" id="Line" stroke="#000000"></path>
                        <path d="M6714.39345,0.289296508 L6714.39345,12403.0267" id="Line" stroke="#000000"></path>
                        <path d="M3864.18805,0.289296508 L3864.18805,12403.0267" id="Line" stroke="#000000"></path>
                        <path d="M5618.1606,0.289296508 L5618.1606,12403.0267" id="Line" stroke="#000000"></path>
                        <path d="M4738.59495,0.289296508 L4738.59495,12403.0267" id="Line" stroke="#000000"></path>
                        <path d="M2984.6224,0.289296508 L2984.6224,12403.0267" id="Line" stroke="#000000"></path>
                        <path d="M6495.14688,0.289296508 L6495.14688,12403.0267" id="Line" stroke="#000000"></path>
                        <path d="M4300.10182,0.289296508 L4300.10182,12403.0267" id="Line" stroke="#000000"></path>
                        <path d="M6056.65374,0.289296508 L6056.65374,12403.0267" id="Line" stroke="#000000"></path>
                        <path d="M5177.08809,0.289296508 L5177.08809,12403.0267" id="Line" stroke="#000000"></path>
                        <path d="M3425.69491,0.289296508 L3425.69491,12403.0267" id="Line" stroke="#000000"></path>
                        <path d="M6933.64002,0.289296508 L6933.64002,12403.0267" id="Line" stroke="#000000"></path>
                        <path d="M3688.79079,0.289296508 L3688.79079,12403.0267" id="Line" stroke="#000000"></path>
                        <path d="M5442.76335,0.289296508 L5442.76335,12403.0267" id="Line" stroke="#000000"></path>
                        <path d="M4563.1977,0.289296508 L4563.1977,12403.0267" id="Line" stroke="#000000"></path>
                        <path d="M2809.22514,0.289296508 L2809.22514,12403.0267" id="Line" stroke="#000000"></path>
                        <path d="M6319.74963,0.289296508 L6319.74963,12403.0267" id="Line" stroke="#000000"></path>
                        <path d="M4124.70456,0.289296508 L4124.70456,12403.0267" id="Line" stroke="#000000"></path>
                        <path d="M5881.25649,0.289296508 L5881.25649,12403.0267" id="Line" stroke="#000000"></path>
                        <path d="M5001.69084,0.289296508 L5001.69084,12403.0267" id="Line" stroke="#000000"></path>
                        <path d="M3250.29765,0.289296508 L3250.29765,12403.0267" id="Line" stroke="#000000"></path>
                        <path d="M6758.24276,0.289296508 L6758.24276,12403.0267" id="Line" stroke="#000000"></path>
                        <path d="M3908.03736,0.289296508 L3908.03736,12403.0267" id="Line" stroke="#000000"></path>
                        <path d="M5662.00992,0.289296508 L5662.00992,12403.0267" id="Line" stroke="#000000"></path>
                        <path d="M4782.44427,0.289296508 L4782.44427,12403.0267" id="Line" stroke="#000000"></path>
                        <path d="M3028.47171,0.289296508 L3028.47171,12403.0267" id="Line" stroke="#000000"></path>
                        <path d="M6538.99619,0.289296508 L6538.99619,12403.0267" id="Line" stroke="#000000"></path>
                        <path d="M4343.95113,0.289296508 L4343.95113,12403.0267" id="Line" stroke="#000000"></path>
                        <path d="M6100.50306,0.289296508 L6100.50306,12403.0267" id="Line" stroke="#000000"></path>
                        <path d="M5220.93741,0.289296508 L5220.93741,12403.0267" id="Line" stroke="#000000"></path>
                        <path d="M3469.54422,0.289296508 L3469.54422,12403.0267" id="Line" stroke="#000000"></path>
                        <path d="M6977.48933,0.289296508 L6977.48933,12403.0267" id="Line" stroke="#000000"></path>
                    </g>
                    <path d="M5940.87171,0 L5940.87171,4359.39075" id="Line" stroke="#000000"></path>
                    <path d="M1555.94033,0 L1555.94033,4359.39075" id="Line" stroke="#000000"></path>
                    <path d="M5063.88544,0 L5063.88544,4359.39075" id="Line" stroke="#000000"></path>
                    <path d="M3309.91288,0 L3309.91288,4359.39075" id="Line" stroke="#000000"></path>
                    <path d="M6817.85799,0 L6817.85799,4359.39075" id="Line" stroke="#000000"></path>
                    <path d="M459.707481,0 L459.707481,4359.39075" id="Line" stroke="#000000"></path>
                    <path d="M3967.65259,0 L3967.65259,4359.39075" id="Line" stroke="#000000"></path>
                    <path d="M2213.68004,0 L2213.68004,4359.39075" id="Line" stroke="#000000"></path>
                    <path d="M5721.62515,0 L5721.62515,4359.39075" id="Line" stroke="#000000"></path>
                    <path d="M1336.69376,0 L1336.69376,4359.39075" id="Line" stroke="#000000"></path>
                    <path d="M4844.63887,0 L4844.63887,4359.39075" id="Line" stroke="#000000"></path>
                    <path d="M3090.66631,0 L3090.66631,4359.39075" id="Line" stroke="#000000"></path>
                    <path d="M6598.61142,0 L6598.61142,4359.39075" id="Line" stroke="#000000"></path>
                    <path d="M898.20062,0 L898.20062,4359.39075" id="Line" stroke="#000000"></path>
                    <path d="M4406.14573,0 L4406.14573,4359.39075" id="Line" stroke="#000000"></path>
                    <path d="M2652.17317,0 L2652.17317,4359.39075" id="Line" stroke="#000000"></path>
                    <path d="M1775.1869,0 L1775.1869,4359.39075" id="Line" stroke="#000000"></path>
                    <path d="M5283.13201,0 L5283.13201,4359.39075" id="Line" stroke="#000000"></path>
                    <path d="M3529.15945,0 L3529.15945,4359.39075" id="Line" stroke="#000000"></path>
                    <path d="M7037.10456,0 L7037.10456,4359.39075" id="Line" stroke="#000000"></path>
                    <path d="M284.310226,0 L284.310226,4359.39075" id="Line" stroke="#000000"></path>
                    <path d="M3792.25534,0 L3792.25534,4359.39075" id="Line" stroke="#000000"></path>
                    <path d="M2038.28278,0 L2038.28278,4359.39075" id="Line" stroke="#000000"></path>
                    <path d="M5546.22789,0 L5546.22789,4359.39075" id="Line" stroke="#000000"></path>
                    <path d="M1161.2965,0 L1161.2965,4359.39075" id="Line" stroke="#000000"></path>
                    <path d="M4669.24161,0 L4669.24161,4359.39075" id="Line" stroke="#000000"></path>
                    <path d="M2915.26906,0 L2915.26906,4359.39075" id="Line" stroke="#000000"></path>
                    <path d="M6423.21417,0 L6423.21417,4359.39075" id="Line" stroke="#000000"></path>
                    <path d="M722.803365,0 L722.803365,4359.39075" id="Line" stroke="#000000"></path>
                    <path d="M4230.74847,0 L4230.74847,4359.39075" id="Line" stroke="#000000"></path>
                    <path d="M2476.77592,0 L2476.77592,4359.39075" id="Line" stroke="#000000"></path>
                    <path d="M5984.72103,0 L5984.72103,4359.39075" id="Line" stroke="#000000"></path>
                    <path d="M1599.78964,0 L1599.78964,4359.39075" id="Line" stroke="#000000"></path>
                    <path d="M5107.73475,0 L5107.73475,4359.39075" id="Line" stroke="#000000"></path>
                    <path d="M3353.7622,0 L3353.7622,4359.39075" id="Line" stroke="#000000"></path>
                    <path d="M6861.70731,0 L6861.70731,4359.39075" id="Line" stroke="#000000"></path>
                    <path d="M503.556795,0 L503.556795,4359.39075" id="Line" stroke="#000000"></path>
                    <path d="M4011.5019,0 L4011.5019,4359.39075" id="Line" stroke="#000000"></path>
                    <path d="M2257.52935,0 L2257.52935,4359.39075" id="Line" stroke="#000000"></path>
                    <path d="M5765.47446,0 L5765.47446,4359.39075" id="Line" stroke="#000000"></path>
                    <path d="M1380.54307,0 L1380.54307,4359.39075" id="Line" stroke="#000000"></path>
                    <path d="M4888.48818,0 L4888.48818,4359.39075" id="Line" stroke="#000000"></path>
                    <path d="M3134.51563,0 L3134.51563,4359.39075" id="Line" stroke="#000000"></path>
                    <path d="M6642.46074,0 L6642.46074,4359.39075" id="Line" stroke="#000000"></path>
                    <path d="M942.049934,0 L942.049934,4359.39075" id="Line" stroke="#000000"></path>
                    <path d="M4449.99504,0 L4449.99504,4359.39075" id="Line" stroke="#000000"></path>
                    <path d="M2696.02249,0 L2696.02249,4359.39075" id="Line" stroke="#000000"></path>
                    <path d="M6203.9676,0 L6203.9676,4359.39075" id="Line" stroke="#000000"></path>
                    <path d="M1819.03621,0 L1819.03621,4359.39075" id="Line" stroke="#000000"></path>
                    <path d="M5326.98132,0 L5326.98132,4359.39075" id="Line" stroke="#000000"></path>
                    <path d="M3573.00877,0 L3573.00877,4359.39075" id="Line" stroke="#000000"></path>
                    <path d="M7080.95388,0 L7080.95388,4359.39075" id="Line" stroke="#000000"></path>
                    <path d="M328.15954,0 L328.15954,4359.39075" id="Line" stroke="#000000"></path>
                    <path d="M3836.10465,0 L3836.10465,4359.39075" id="Line" stroke="#000000"></path>
                    <path d="M2082.13209,0 L2082.13209,4359.39075" id="Line" stroke="#000000"></path>
                    <path d="M5590.0772,0 L5590.0772,4359.39075" id="Line" stroke="#000000"></path>
                    <path d="M1205.14582,0 L1205.14582,4359.39075" id="Line" stroke="#000000"></path>
                    <path d="M4713.09093,0 L4713.09093,4359.39075" id="Line" stroke="#000000"></path>
                    <path d="M2959.11837,0 L2959.11837,4359.39075" id="Line" stroke="#000000"></path>
                    <path d="M6467.06348,0 L6467.06348,4359.39075" id="Line" stroke="#000000"></path>
                    <path d="M766.652678,0 L766.652678,4359.39075" id="Line" stroke="#000000"></path>
                    <path d="M4274.59779,0 L4274.59779,4359.39075" id="Line" stroke="#000000"></path>
                    <path d="M2520.62523,0 L2520.62523,4359.39075" id="Line" stroke="#000000"></path>
                    <path d="M6028.57034,0 L6028.57034,4359.39075" id="Line" stroke="#000000"></path>
                    <path d="M1643.63896,0 L1643.63896,4359.39075" id="Line" stroke="#000000"></path>
                    <path d="M5151.58407,0 L5151.58407,4359.39075" id="Line" stroke="#000000"></path>
                    <path d="M3397.61151,0 L3397.61151,4359.39075" id="Line" stroke="#000000"></path>
                    <path d="M6905.55662,0 L6905.55662,4359.39075" id="Line" stroke="#000000"></path>
                    <path d="M547.406109,0 L547.406109,4359.39075" id="Line" stroke="#000000"></path>
                    <path d="M4055.35122,0 L4055.35122,4359.39075" id="Line" stroke="#000000"></path>
                    <path d="M2301.37866,0 L2301.37866,4359.39075" id="Line" stroke="#000000"></path>
                    <path d="M5809.32377,0 L5809.32377,4359.39075" id="Line" stroke="#000000"></path>
                    <path d="M1424.39239,0 L1424.39239,4359.39075" id="Line" stroke="#000000"></path>
                    <path d="M4932.3375,0 L4932.3375,4359.39075" id="Line" stroke="#000000"></path>
                    <path d="M3178.36494,0 L3178.36494,4359.39075" id="Line" stroke="#000000"></path>
                    <path d="M6686.31005,0 L6686.31005,4359.39075" id="Line" stroke="#000000"></path>
                    <path d="M985.899248,0 L985.899248,4359.39075" id="Line" stroke="#000000"></path>
                    <path d="M4493.84436,0 L4493.84436,4359.39075" id="Line" stroke="#000000"></path>
                    <path d="M2739.8718,0 L2739.8718,4359.39075" id="Line" stroke="#000000"></path>
                    <path d="M6247.81691,0 L6247.81691,4359.39075" id="Line" stroke="#000000"></path>
                    <path d="M1862.88553,0 L1862.88553,4359.39075" id="Line" stroke="#000000"></path>
                    <path d="M3660.70739,0 L3660.70739,4359.39075" id="Line" stroke="#000000"></path>
                </g>
            </g>
        </g>
    </g>
</svg>