<svg height="4201" viewBox="0 0 7155 4201" width="7155" xmlns="http://www.w3.org/2000/svg" xmlns:xlink="http://www.w3.org/1999/xlink"><mask id="a" fill="#fff"><path d="m0 0h7155v4201h-7155z" fill="#fff" fill-rule="evenodd"/></mask><g fill="none" fill-rule="evenodd"><path d="m.5.5h7154v4200h-7154z" stroke="#000"/><g mask="url(#a)" stroke-linecap="square"><g stroke="#000" transform="translate(2 -99)"><path d="m196.611598 0v4359.39075"/><path d="m3704.55671 0v4359.39075"/><path d="m1950.58415 0v4359.39075"/><path d="m5458.52926 0v4359.39075"/><path d="m1073.59788 0v4359.39075"/><path d="m4581.54298 0v4359.39075"/><path d="m2827.57043 0v4359.39075"/><path d="m6335.51554 0v4359.39075"/><path d="m635.104737 0v4359.39075"/><path d="m4143.04985 0v4359.39075"/><path d="m2389.07729 0v4359.39075"/><path d="m5897.0224 0v4359.39075"/><path d="m1512.09101 0v4359.39075"/><path d="m5020.03612 0v4359.39075"/><path d="m3266.06357 0v4359.39075"/><path d="m6774.00868 0v4359.39075"/><path d="m415.858167 0v4359.39075"/><path d="m3923.80328 0v4359.39075"/><path d="m2169.83072 0v4359.39075"/><path d="m5677.77583 0v4359.39075"/><path d="m1292.84444 0v4359.39075"/><path d="m4800.78955 0v4359.39075"/><path d="m3046.817 0v4359.39075"/><path d="m6554.76211 0v4359.39075"/><path d="m854.351306 0v4359.39075"/><path d="m4362.29642 0v4359.39075"/><path d="m2608.32386 0v4359.39075"/><path d="m6116.26897 0v4359.39075"/><path d="m1731.33758 0v4359.39075"/><path d="m5239.28269 0v4359.39075"/><path d="m3485.31014 0v4359.39075"/><path d="m6993.25525 0v4359.39075"/><path d="m240.460912 0v4359.39075"/><path d="m3748.40602 0v4359.39075"/><path d="m1994.43347 0v4359.39075"/><path d="m5502.37858 0v4359.39075"/><path d="m1117.44719 0v4359.39075"/><path d="m4625.3923 0v4359.39075"/><path d="m2871.41974 0v4359.39075"/><path d="m6379.36485 0v4359.39075"/><path d="m678.954051 0v4359.39075"/><path d="m4186.89916 0v4359.39075"/><path d="m2432.92661 0v4359.39075"/><g fill-rule="evenodd" transform="matrix(0 -1 1 0 .873503 7106.656386)"><path d="m3513.39354.28929651v12402.73740349"/><path d="m5264.78672.28929651v12402.73740349"/><path d="m4387.80044.28929651v12402.73740349"/><path d="m6144.35237.28929651v12402.73740349"/><path d="m3951.88668.28929651v12402.73740349"/><path d="m5705.85923.28929651v12402.73740349"/><path d="m4826.29358.28929651v12402.73740349"/><path d="m3072.32103.28929651v12402.73740349"/><path d="m6582.84551.28929651v12402.73740349"/><path d="m3732.64011.28929651v12402.73740349"/><path d="m5486.61266.28929651v12402.73740349"/><path d="m4607.04701.28929651v12402.73740349"/><path d="m2853.07446.28929651v12402.73740349"/><path d="m6363.59894.28929651v12402.73740349"/><path d="m4168.55387.28929651v12402.73740349"/><path d="m5925.1058.28929651v12402.73740349"/><path d="m5045.54015.28929651v12402.73740349"/><path d="m3294.14697.28929651v12402.73740349"/><path d="m6802.09208.28929651v12402.73740349"/><path d="m3557.24285.28929651v12402.73740349"/><path d="m5311.21541.28929651v12402.73740349"/><path d="m4431.64976.28929651v12402.73740349"/><path d="m6188.20168.28929651v12402.73740349"/><path d="m3995.73599.28929651v12402.73740349"/><path d="m5749.70855.28929651v12402.73740349"/><path d="m4870.1429.28929651v12402.73740349"/><path d="m3116.17034.28929651v12402.73740349"/><path d="m6626.69482.28929651v12402.73740349"/><path d="m3776.48942.28929651v12402.73740349"/><path d="m5530.46198.28929651v12402.73740349"/><path d="m4650.89633.28929651v12402.73740349"/><path d="m2896.92377.28929651v12402.73740349"/><path d="m6407.44825.28929651v12402.73740349"/><path d="m4212.40319.28929651v12402.73740349"/><path d="m5968.95511.28929651v12402.73740349"/><path d="m5089.38947.28929651v12402.73740349"/><path d="m3337.99628.28929651v12402.73740349"/><path d="m6845.94139.28929651v12402.73740349"/><path d="m3601.09217.28929651v12402.73740349"/><path d="m5355.06472.28929651v12402.73740349"/><path d="m4475.49907.28929651v12402.73740349"/><path d="m6232.051.28929651v12402.73740349"/><path d="m4039.5853.28929651v12402.73740349"/><path d="m5793.55786.28929651v12402.73740349"/><path d="m4913.99221.28929651v12402.73740349"/><path d="m3160.01966.28929651v12402.73740349"/><path d="m6670.54414.28929651v12402.73740349"/><path d="m3820.33874.28929651v12402.73740349"/><path d="m5574.31129.28929651v12402.73740349"/><path d="m4694.74564.28929651v12402.73740349"/><path d="m2940.77309.28929651v12402.73740349"/><path d="m6451.29757.28929651v12402.73740349"/><path d="m4256.2525.28929651v12402.73740349"/><path d="m6012.80443.28929651v12402.73740349"/><path d="m5133.23878.28929651v12402.73740349"/><path d="m3381.8456.28929651v12402.73740349"/><path d="m6889.79071.28929651v12402.73740349"/><path d="m3644.94148.28929651v12402.73740349"/><path d="m5398.91403.28929651v12402.73740349"/><path d="m4519.34839.28929651v12402.73740349"/><path d="m6275.90031.28929651v12402.73740349"/><path d="m4083.43462.28929651v12402.73740349"/><path d="m5837.40717.28929651v12402.73740349"/><path d="m4957.84152.28929651v12402.73740349"/><path d="m3206.44834.28929651v12402.73740349"/><path d="m6714.39345.28929651v12402.73740349"/><path d="m3864.18805.28929651v12402.73740349"/><path d="m5618.1606.28929651v12402.73740349"/><path d="m4738.59495.28929651v12402.73740349"/><path d="m2984.6224.28929651v12402.73740349"/><path d="m6495.14688.28929651v12402.73740349"/><path d="m4300.10182.28929651v12402.73740349"/><path d="m6056.65374.28929651v12402.73740349"/><path d="m5177.08809.28929651v12402.73740349"/><path d="m3425.69491.28929651v12402.73740349"/><path d="m6933.64002.28929651v12402.73740349"/><path d="m3688.79079.28929651v12402.73740349"/><path d="m5442.76335.28929651v12402.73740349"/><path d="m4563.1977.28929651v12402.73740349"/><path d="m2809.22514.28929651v12402.73740349"/><path d="m6319.74963.28929651v12402.73740349"/><path d="m4124.70456.28929651v12402.73740349"/><path d="m5881.25649.28929651v12402.73740349"/><path d="m5001.69084.28929651v12402.73740349"/><path d="m3250.29765.28929651v12402.73740349"/><path d="m6758.24276.28929651v12402.73740349"/><path d="m3908.03736.28929651v12402.73740349"/><path d="m5662.00992.28929651v12402.73740349"/><path d="m4782.44427.28929651v12402.73740349"/><path d="m3028.47171.28929651v12402.73740349"/><path d="m6538.99619.28929651v12402.73740349"/><path d="m4343.95113.28929651v12402.73740349"/><path d="m6100.50306.28929651v12402.73740349"/><path d="m5220.93741.28929651v12402.73740349"/><path d="m3469.54422.28929651v12402.73740349"/><path d="m6977.48933.28929651v12402.73740349"/></g><path d="m5940.87171 0v4359.39075"/><path d="m1555.94033 0v4359.39075"/><path d="m5063.88544 0v4359.39075"/><path d="m3309.91288 0v4359.39075"/><path d="m6817.85799 0v4359.39075"/><path d="m459.707481 0v4359.39075"/><path d="m3967.65259 0v4359.39075"/><path d="m2213.68004 0v4359.39075"/><path d="m5721.62515 0v4359.39075"/><path d="m1336.69376 0v4359.39075"/><path d="m4844.63887 0v4359.39075"/><path d="m3090.66631 0v4359.39075"/><path d="m6598.61142 0v4359.39075"/><path d="m898.20062 0v4359.39075"/><path d="m4406.14573 0v4359.39075"/><path d="m2652.17317 0v4359.39075"/><path d="m1775.1869 0v4359.39075"/><path d="m5283.13201 0v4359.39075"/><path d="m3529.15945 0v4359.39075"/><path d="m7037.10456 0v4359.39075"/><path d="m284.310226 0v4359.39075"/><path d="m3792.25534 0v4359.39075"/><path d="m2038.28278 0v4359.39075"/><path d="m5546.22789 0v4359.39075"/><path d="m1161.2965 0v4359.39075"/><path d="m4669.24161 0v4359.39075"/><path d="m2915.26906 0v4359.39075"/><path d="m6423.21417 0v4359.39075"/><path d="m722.803365 0v4359.39075"/><path d="m4230.74847 0v4359.39075"/><path d="m2476.77592 0v4359.39075"/><path d="m5984.72103 0v4359.39075"/><path d="m1599.78964 0v4359.39075"/><path d="m5107.73475 0v4359.39075"/><path d="m3353.7622 0v4359.39075"/><path d="m6861.70731 0v4359.39075"/><path d="m503.556795 0v4359.39075"/><path d="m4011.5019 0v4359.39075"/><path d="m2257.52935 0v4359.39075"/><path d="m5765.47446 0v4359.39075"/><path d="m1380.54307 0v4359.39075"/><path d="m4888.48818 0v4359.39075"/><path d="m3134.51563 0v4359.39075"/><path d="m6642.46074 0v4359.39075"/><path d="m942.049934 0v4359.39075"/><path d="m4449.99504 0v4359.39075"/><path d="m2696.02249 0v4359.39075"/><path d="m6203.9676 0v4359.39075"/><path d="m1819.03621 0v4359.39075"/><path d="m5326.98132 0v4359.39075"/><path d="m3573.00877 0v4359.39075"/><path d="m7080.95388 0v4359.39075"/><path d="m328.15954 0v4359.39075"/><path d="m3836.10465 0v4359.39075"/><path d="m2082.13209 0v4359.39075"/><path d="m5590.0772 0v4359.39075"/><path d="m1205.14582 0v4359.39075"/><path d="m4713.09093 0v4359.39075"/><path d="m2959.11837 0v4359.39075"/><path d="m6467.06348 0v4359.39075"/><path d="m766.652678 0v4359.39075"/><path d="m4274.59779 0v4359.39075"/><path d="m2520.62523 0v4359.39075"/><path d="m6028.57034 0v4359.39075"/><path d="m1643.63896 0v4359.39075"/><path d="m5151.58407 0v4359.39075"/><path d="m3397.61151 0v4359.39075"/><path d="m6905.55662 0v4359.39075"/><path d="m547.406109 0v4359.39075"/><path d="m4055.35122 0v4359.39075"/><path d="m2301.37866 0v4359.39075"/><path d="m5809.32377 0v4359.39075"/><path d="m1424.39239 0v4359.39075"/><path d="m4932.3375 0v4359.39075"/><path d="m3178.36494 0v4359.39075"/><path d="m6686.31005 0v4359.39075"/><path d="m985.899248 0v4359.39075"/><path d="m4493.84436 0v4359.39075"/><path d="m2739.8718 0v4359.39075"/><path d="m6247.81691 0v4359.39075"/><path d="m1862.88553 0v4359.39075"/><path d="m3660.70739 0v4359.39075"/></g></g></g></svg>