<?xml version="1.0" encoding="UTF-8"?>
<svg width="420px" height="24px" viewBox="0 0 420 24" version="1.1" xmlns="http://www.w3.org/2000/svg" xmlns:xlink="http://www.w3.org/1999/xlink">
    <!-- Generator: Sketch 53.2 (72643) - https://sketchapp.com -->
    <title>pmoto</title>
    <desc>Created with Sketch.</desc>
    <g id="personalwebsite" stroke="none" stroke-width="1" fill="none" fill-rule="evenodd">
        <g id="t" transform="translate(-991.000000, -1327.000000)" fill="#000000" fill-rule="nonzero">
            <g id="Group-4" transform="translate(883.000000, 1026.000000)">
                <path d="M116.016548,301.436 L119.474548,301.436 L126.624548,320 L123.140548,320 L121.398548,315.086 L113.988548,315.086 L112.246548,320 L108.892548,320 L116.016548,301.436 Z M114.872548,312.616 L120.540548,312.616 L117.758548,304.634 L117.680548,304.634 L114.872548,312.616 Z M136.60566,301.436 L139.85566,301.436 L139.85566,309.886 L148.12366,301.436 L152.12766,301.436 L144.71766,308.846 L152.64766,320 L148.59166,320 L142.50766,311.134 L139.85566,313.76 L139.85566,320 L136.60566,320 L136.60566,301.436 Z M153.088216,301.436 L156.390216,301.436 L159.744216,315.632 L159.796216,315.632 L163.540216,301.436 L166.868216,301.436 L170.508216,315.632 L170.560216,315.632 L174.018216,301.436 L177.320216,301.436 L172.198216,320 L168.896216,320 L165.178216,305.804 L165.126216,305.804 L161.330216,320 L157.976216,320 L153.088216,301.436 Z M185.897328,306.558 L188.133328,306.558 L188.133328,302.528 L191.097328,302.528 L191.097328,306.558 L193.775328,306.558 L193.775328,308.768 L191.097328,308.768 L191.097328,315.944 C191.097328,316.256002 191.110328,316.524666 191.136328,316.75 C191.162328,316.975334 191.222994,317.165999 191.318328,317.322 C191.413662,317.478001 191.55666,317.595 191.747328,317.673 C191.937996,317.751 192.197993,317.79 192.527328,317.79 C192.735329,317.79 192.943327,317.785667 193.151328,317.777 C193.359329,317.768333 193.567327,317.738 193.775328,317.686 L193.775328,319.974 C193.445993,320.008667 193.12533,320.043333 192.813328,320.078 C192.501326,320.112667 192.180663,320.13 191.851328,320.13 C191.071324,320.13 190.442997,320.056334 189.966328,319.909 C189.489659,319.761666 189.116996,319.545001 188.848328,319.259 C188.57966,318.972999 188.397662,318.613336 188.302328,318.18 C188.206994,317.746665 188.150661,317.252669 188.133328,316.698 L188.133328,308.768 L185.897328,308.768 L185.897328,306.558 Z M196.399884,306.558 L199.181884,306.558 L199.181884,309.158 L199.233884,309.158 C199.320551,308.793998 199.489549,308.438668 199.740884,308.092 C199.992219,307.745332 200.295549,307.429001 200.650884,307.143 C201.006219,306.856999 201.400549,306.627334 201.833884,306.454 C202.26722,306.280666 202.709215,306.194 203.159884,306.194 C203.506552,306.194 203.744883,306.202667 203.874884,306.22 C204.004885,306.237333 204.139217,306.254667 204.277884,306.272 L204.277884,309.132 C204.069883,309.097333 203.857552,309.067 203.640884,309.041 C203.424216,309.015 203.211885,309.002 203.003884,309.002 C202.501215,309.002 202.028886,309.101666 201.586884,309.301 C201.144882,309.500334 200.759219,309.794998 200.429884,310.185 C200.100549,310.575002 199.840552,311.055997 199.649884,311.628 C199.459216,312.200003 199.363884,312.858663 199.363884,313.604 L199.363884,320 L196.399884,320 L196.399884,306.558 Z M217.30244,317.01 C217.30244,317.374002 217.350106,317.633999 217.44544,317.79 C217.540774,317.946001 217.727105,318.024 218.00444,318.024 L218.31644,318.024 C218.437774,318.024 218.576439,318.006667 218.73244,317.972 L218.73244,320.026 C218.628439,320.060667 218.494107,320.099666 218.32944,320.143 C218.164773,320.186334 217.995774,320.225333 217.82244,320.26 C217.649106,320.294667 217.475774,320.320667 217.30244,320.338 C217.129106,320.355333 216.981774,320.364 216.86044,320.364 C216.25377,320.364 215.751109,320.242668 215.35244,320 C214.953771,319.757332 214.693774,319.33267 214.57244,318.726 C213.983104,319.298003 213.259444,319.713999 212.40144,319.974 C211.543436,320.234001 210.715777,320.364 209.91844,320.364 C209.31177,320.364 208.731109,320.281667 208.17644,320.117 C207.621771,319.952333 207.132109,319.709668 206.70744,319.389 C206.282771,319.068332 205.944775,318.661002 205.69344,318.167 C205.442105,317.672998 205.31644,317.09667 205.31644,316.438 C205.31644,315.605996 205.468105,314.930003 205.77144,314.41 C206.074775,313.889997 206.473438,313.482668 206.96744,313.188 C207.461442,312.893332 208.016104,312.681001 208.63144,312.551 C209.246776,312.420999 209.866437,312.321334 210.49044,312.252 C211.027776,312.147999 211.539104,312.074334 212.02444,312.031 C212.509776,311.987666 212.938771,311.914001 213.31144,311.81 C213.684109,311.705999 213.978772,311.545668 214.19544,311.329 C214.412108,311.112332 214.52044,310.787335 214.52044,310.354 C214.52044,309.972665 214.429441,309.660668 214.24744,309.418 C214.065439,309.175332 213.840108,308.989001 213.57144,308.859 C213.302772,308.728999 213.003775,308.642334 212.67444,308.599 C212.345105,308.555666 212.033108,308.534 211.73844,308.534 C210.906436,308.534 210.221776,308.707332 209.68444,309.054 C209.147104,309.400668 208.843774,309.937996 208.77444,310.666 L205.81044,310.666 C205.86244,309.799329 206.070438,309.080003 206.43444,308.508 C206.798442,307.935997 207.262104,307.476668 207.82544,307.13 C208.388776,306.783332 209.02577,306.540667 209.73644,306.402 C210.44711,306.263333 211.175103,306.194 211.92044,306.194 C212.57911,306.194 213.229103,306.263333 213.87044,306.402 C214.511777,306.540667 215.088104,306.765998 215.59944,307.078 C216.110776,307.390002 216.522438,307.792998 216.83444,308.287 C217.146442,308.781002 217.30244,309.38333 217.30244,310.094 L217.30244,317.01 Z M214.33844,313.266 C213.887771,313.560668 213.33311,313.738333 212.67444,313.799 C212.01577,313.859667 211.35711,313.950666 210.69844,314.072 C210.386438,314.124 210.083108,314.197666 209.78844,314.293 C209.493772,314.388334 209.233774,314.518333 209.00844,314.683 C208.783106,314.847667 208.605441,315.064332 208.47544,315.333 C208.345439,315.601668 208.28044,315.926665 208.28044,316.308 C208.28044,316.637335 208.375772,316.914666 208.56644,317.14 C208.757108,317.365334 208.986772,317.542999 209.25544,317.673 C209.524108,317.803001 209.818772,317.894 210.13944,317.946 C210.460108,317.998 210.750439,318.024 211.01044,318.024 C211.339775,318.024 211.695105,317.980667 212.07644,317.894 C212.457775,317.807333 212.817438,317.660001 213.15544,317.452 C213.493442,317.243999 213.775106,316.979668 214.00044,316.659 C214.225774,316.338332 214.33844,315.944002 214.33844,315.476 L214.33844,313.266 Z M233.654996,320 L230.846996,320 L230.846996,318.18 L230.794996,318.18 C230.396327,318.960004 229.815666,319.518998 229.052996,319.857 C228.290326,320.195002 227.484334,320.364 226.634996,320.364 C225.577657,320.364 224.654667,320.177669 223.865996,319.805 C223.077325,319.432331 222.422999,318.925337 221.902996,318.284 C221.382993,317.642663 220.992997,316.884338 220.732996,316.009 C220.472995,315.133662 220.342996,314.193338 220.342996,313.188 C220.342996,311.974661 220.507661,310.926004 220.836996,310.042 C221.166331,309.157996 221.603993,308.430003 222.149996,307.858 C222.695999,307.285997 223.319992,306.865668 224.021996,306.597 C224.724,306.328332 225.438992,306.194 226.166996,306.194 C226.582998,306.194 227.007661,306.233 227.440996,306.311 C227.874332,306.389 228.290327,306.514666 228.688996,306.688 C229.087665,306.861334 229.455994,307.082332 229.793996,307.351 C230.131998,307.619668 230.413662,307.935998 230.638996,308.3 L230.690996,308.3 L230.690996,301.436 L233.654996,301.436 L233.654996,320 Z M223.306996,313.422 C223.306996,313.994003 223.380662,314.557331 223.527996,315.112 C223.67533,315.666669 223.900661,316.160664 224.203996,316.594 C224.507331,317.027335 224.892994,317.373999 225.360996,317.634 C225.828998,317.894001 226.383659,318.024 227.024996,318.024 C227.683666,318.024 228.251327,317.885335 228.727996,317.608 C229.204665,317.330665 229.594661,316.966669 229.897996,316.516 C230.201331,316.065331 230.426662,315.558336 230.573996,314.995 C230.72133,314.431664 230.794996,313.855336 230.794996,313.266 C230.794996,311.775326 230.461333,310.614004 229.793996,309.782 C229.126659,308.949996 228.221002,308.534 227.076996,308.534 C226.383659,308.534 225.798665,308.676999 225.321996,308.963 C224.845327,309.249001 224.455331,309.621664 224.151996,310.081 C223.848661,310.540336 223.631997,311.06033 223.501996,311.641 C223.371995,312.22167 223.306996,312.81533 223.306996,313.422 Z M237.449552,301.436 L240.413552,301.436 L240.413552,304.244 L237.449552,304.244 L237.449552,301.436 Z M237.449552,306.558 L240.413552,306.558 L240.413552,320 L237.449552,320 L237.449552,306.558 Z M242.778108,306.558 L245.014108,306.558 L245.014108,302.528 L247.978108,302.528 L247.978108,306.558 L250.656108,306.558 L250.656108,308.768 L247.978108,308.768 L247.978108,315.944 C247.978108,316.256002 247.991108,316.524666 248.017108,316.75 C248.043108,316.975334 248.103774,317.165999 248.199108,317.322 C248.294442,317.478001 248.43744,317.595 248.628108,317.673 C248.818776,317.751 249.078773,317.79 249.408108,317.79 C249.616109,317.79 249.824107,317.785667 250.032108,317.777 C250.240109,317.768333 250.448107,317.738 250.656108,317.686 L250.656108,319.974 C250.326773,320.008667 250.00611,320.043333 249.694108,320.078 C249.382106,320.112667 249.061443,320.13 248.732108,320.13 C247.952104,320.13 247.323777,320.056334 246.847108,319.909 C246.370439,319.761666 245.997776,319.545001 245.729108,319.259 C245.46044,318.972999 245.278442,318.613336 245.183108,318.18 C245.087774,317.746665 245.031441,317.252669 245.014108,316.698 L245.014108,308.768 L242.778108,308.768 L242.778108,306.558 Z M253.358664,301.436 L256.322664,301.436 L256.322664,304.244 L253.358664,304.244 L253.358664,301.436 Z M253.358664,306.558 L256.322664,306.558 L256.322664,320 L253.358664,320 L253.358664,306.558 Z M266.20122,320.364 C265.126548,320.364 264.168891,320.186335 263.32822,319.831 C262.487549,319.475665 261.77689,318.986003 261.19622,318.362 C260.61555,317.737997 260.173555,316.992671 259.87022,316.126 C259.566885,315.259329 259.41522,314.306005 259.41522,313.266 C259.41522,312.243328 259.566885,311.298671 259.87022,310.432 C260.173555,309.565329 260.61555,308.820003 261.19622,308.196 C261.77689,307.571997 262.487549,307.082335 263.32822,306.727 C264.168891,306.371665 265.126548,306.194 266.20122,306.194 C267.275892,306.194 268.233549,306.371665 269.07422,306.727 C269.914891,307.082335 270.62555,307.571997 271.20622,308.196 C271.78689,308.820003 272.228885,309.565329 272.53222,310.432 C272.835555,311.298671 272.98722,312.243328 272.98722,313.266 C272.98722,314.306005 272.835555,315.259329 272.53222,316.126 C272.228885,316.992671 271.78689,317.737997 271.20622,318.362 C270.62555,318.986003 269.914891,319.475665 269.07422,319.831 C268.233549,320.186335 267.275892,320.364 266.20122,320.364 Z M266.20122,318.024 C266.85989,318.024 267.431884,317.885335 267.91722,317.608 C268.402556,317.330665 268.801218,316.966669 269.11322,316.516 C269.425222,316.065331 269.654886,315.558336 269.80222,314.995 C269.949554,314.431664 270.02322,313.855336 270.02322,313.266 C270.02322,312.693997 269.949554,312.122003 269.80222,311.55 C269.654886,310.977997 269.425222,310.471002 269.11322,310.029 C268.801218,309.586998 268.402556,309.227335 267.91722,308.95 C267.431884,308.672665 266.85989,308.534 266.20122,308.534 C265.54255,308.534 264.970556,308.672665 264.48522,308.95 C263.999884,309.227335 263.601222,309.586998 263.28922,310.029 C262.977218,310.471002 262.747554,310.977997 262.60022,311.55 C262.452886,312.122003 262.37922,312.693997 262.37922,313.266 C262.37922,313.855336 262.452886,314.431664 262.60022,314.995 C262.747554,315.558336 262.977218,316.065331 263.28922,316.516 C263.601222,316.966669 263.999884,317.330665 264.48522,317.608 C264.970556,317.885335 265.54255,318.024 266.20122,318.024 Z M275.949776,306.558 L278.757776,306.558 L278.757776,308.534 L278.809776,308.586 C279.260445,307.840663 279.849772,307.255669 280.577776,306.831 C281.30578,306.406331 282.111772,306.194 282.995776,306.194 C284.469117,306.194 285.630438,306.57533 286.479776,307.338 C287.329114,308.10067 287.753776,309.244659 287.753776,310.77 L287.753776,320 L284.789776,320 L284.789776,311.55 C284.755109,310.492661 284.529778,309.725669 284.113776,309.249 C283.697774,308.772331 283.04778,308.534 282.163776,308.534 C281.661107,308.534 281.210445,308.624999 280.811776,308.807 C280.413107,308.989001 280.075111,309.240332 279.797776,309.561 C279.520441,309.881668 279.303777,310.258665 279.147776,310.692 C278.991775,311.125336 278.913776,311.584664 278.913776,312.07 L278.913776,320 L275.949776,320 L275.949776,306.558 Z M302.624332,317.01 C302.624332,317.374002 302.671998,317.633999 302.767332,317.79 C302.862666,317.946001 303.048997,318.024 303.326332,318.024 L303.638332,318.024 C303.759666,318.024 303.898331,318.006667 304.054332,317.972 L304.054332,320.026 C303.950331,320.060667 303.815999,320.099666 303.651332,320.143 C303.486665,320.186334 303.317666,320.225333 303.144332,320.26 C302.970998,320.294667 302.797666,320.320667 302.624332,320.338 C302.450998,320.355333 302.303666,320.364 302.182332,320.364 C301.575662,320.364 301.073001,320.242668 300.674332,320 C300.275663,319.757332 300.015666,319.33267 299.894332,318.726 C299.304996,319.298003 298.581336,319.713999 297.723332,319.974 C296.865328,320.234001 296.037669,320.364 295.240332,320.364 C294.633662,320.364 294.053001,320.281667 293.498332,320.117 C292.943663,319.952333 292.454001,319.709668 292.029332,319.389 C291.604663,319.068332 291.266667,318.661002 291.015332,318.167 C290.763997,317.672998 290.638332,317.09667 290.638332,316.438 C290.638332,315.605996 290.789997,314.930003 291.093332,314.41 C291.396667,313.889997 291.79533,313.482668 292.289332,313.188 C292.783334,312.893332 293.337996,312.681001 293.953332,312.551 C294.568668,312.420999 295.188329,312.321334 295.812332,312.252 C296.349668,312.147999 296.860996,312.074334 297.346332,312.031 C297.831668,311.987666 298.260663,311.914001 298.633332,311.81 C299.006001,311.705999 299.300664,311.545668 299.517332,311.329 C299.734,311.112332 299.842332,310.787335 299.842332,310.354 C299.842332,309.972665 299.751333,309.660668 299.569332,309.418 C299.387331,309.175332 299.162,308.989001 298.893332,308.859 C298.624664,308.728999 298.325667,308.642334 297.996332,308.599 C297.666997,308.555666 297.355,308.534 297.060332,308.534 C296.228328,308.534 295.543668,308.707332 295.006332,309.054 C294.468996,309.400668 294.165666,309.937996 294.096332,310.666 L291.132332,310.666 C291.184332,309.799329 291.39233,309.080003 291.756332,308.508 C292.120334,307.935997 292.583996,307.476668 293.147332,307.13 C293.710668,306.783332 294.347662,306.540667 295.058332,306.402 C295.769002,306.263333 296.496995,306.194 297.242332,306.194 C297.901002,306.194 298.550995,306.263333 299.192332,306.402 C299.833669,306.540667 300.409996,306.765998 300.921332,307.078 C301.432668,307.390002 301.84433,307.792998 302.156332,308.287 C302.468334,308.781002 302.624332,309.38333 302.624332,310.094 L302.624332,317.01 Z M299.660332,313.266 C299.209663,313.560668 298.655002,313.738333 297.996332,313.799 C297.337662,313.859667 296.679002,313.950666 296.020332,314.072 C295.70833,314.124 295.405,314.197666 295.110332,314.293 C294.815664,314.388334 294.555666,314.518333 294.330332,314.683 C294.104998,314.847667 293.927333,315.064332 293.797332,315.333 C293.667331,315.601668 293.602332,315.926665 293.602332,316.308 C293.602332,316.637335 293.697664,316.914666 293.888332,317.14 C294.079,317.365334 294.308664,317.542999 294.577332,317.673 C294.846,317.803001 295.140664,317.894 295.461332,317.946 C295.782,317.998 296.072331,318.024 296.332332,318.024 C296.661667,318.024 297.016997,317.980667 297.398332,317.894 C297.779667,317.807333 298.13933,317.660001 298.477332,317.452 C298.815334,317.243999 299.096998,316.979668 299.322332,316.659 C299.547666,316.338332 299.660332,315.944002 299.660332,315.476 L299.660332,313.266 Z M306.392888,301.436 L309.356888,301.436 L309.356888,320 L306.392888,320 L306.392888,301.436 Z M320.872,306.558 L323.68,306.558 L323.68,308.378 L323.732,308.378 C324.148002,307.597996 324.728663,307.039002 325.474,306.701 C326.219337,306.362998 327.025329,306.194 327.892,306.194 C328.949339,306.194 329.872329,306.380331 330.661,306.753 C331.449671,307.125669 332.103997,307.636997 332.624,308.287 C333.144003,308.937003 333.533999,309.695329 333.794,310.562 C334.054001,311.428671 334.184,312.355995 334.184,313.344 C334.184,314.245338 334.067001,315.120662 333.833,315.97 C333.598999,316.819338 333.243669,317.568997 332.767,318.219 C332.290331,318.869003 331.688004,319.388998 330.96,319.779 C330.231996,320.169002 329.374005,320.364 328.386,320.364 C327.952665,320.364 327.519336,320.325 327.086,320.247 C326.652665,320.169 326.236669,320.043334 325.838,319.87 C325.439331,319.696666 325.071002,319.475668 324.733,319.207 C324.394998,318.938332 324.113334,318.622002 323.888,318.258 L323.836,318.258 L323.836,324.966 L320.872,324.966 L320.872,306.558 Z M331.22,313.292 C331.22,312.68533 331.142001,312.096003 330.986,311.524 C330.829999,310.951997 330.596002,310.445002 330.284,310.003 C329.971998,309.560998 329.582002,309.205668 329.114,308.937 C328.645998,308.668332 328.10867,308.534 327.502,308.534 C326.253994,308.534 325.31367,308.967329 324.681,309.834 C324.04833,310.700671 323.732,311.853326 323.732,313.292 C323.732,313.968003 323.814333,314.59633 323.979,315.177 C324.143667,315.75767 324.390665,316.255998 324.72,316.672 C325.049335,317.088002 325.443664,317.417332 325.903,317.66 C326.362336,317.902668 326.89533,318.024 327.502,318.024 C328.178003,318.024 328.749998,317.885335 329.218,317.608 C329.686002,317.330665 330.071665,316.971002 330.375,316.529 C330.678335,316.086998 330.894999,315.584336 331.025,315.021 C331.155001,314.457664 331.22,313.881336 331.22,313.292 Z M337.250556,301.436 L340.214556,301.436 L340.214556,304.244 L337.250556,304.244 L337.250556,301.436 Z M337.250556,306.558 L340.214556,306.558 L340.214556,320 L337.250556,320 L337.250556,306.558 Z M343.463112,306.558 L354.383112,306.558 L354.383112,308.638 L346.687112,317.66 L354.773112,317.66 L354.773112,320 L342.943112,320 L342.943112,317.92 L350.379112,308.898 L343.463112,308.898 L343.463112,306.558 Z M356.955668,306.558 L367.875668,306.558 L367.875668,308.638 L360.179668,317.66 L368.265668,317.66 L368.265668,320 L356.435668,320 L356.435668,317.92 L363.871668,308.898 L356.955668,308.898 L356.955668,306.558 Z M382.174224,317.01 C382.174224,317.374002 382.22189,317.633999 382.317224,317.79 C382.412558,317.946001 382.598889,318.024 382.876224,318.024 L383.188224,318.024 C383.309558,318.024 383.448223,318.006667 383.604224,317.972 L383.604224,320.026 C383.500223,320.060667 383.365891,320.099666 383.201224,320.143 C383.036557,320.186334 382.867558,320.225333 382.694224,320.26 C382.52089,320.294667 382.347558,320.320667 382.174224,320.338 C382.00089,320.355333 381.853558,320.364 381.732224,320.364 C381.125554,320.364 380.622893,320.242668 380.224224,320 C379.825555,319.757332 379.565558,319.33267 379.444224,318.726 C378.854888,319.298003 378.131228,319.713999 377.273224,319.974 C376.41522,320.234001 375.587561,320.364 374.790224,320.364 C374.183554,320.364 373.602893,320.281667 373.048224,320.117 C372.493555,319.952333 372.003893,319.709668 371.579224,319.389 C371.154555,319.068332 370.816559,318.661002 370.565224,318.167 C370.313889,317.672998 370.188224,317.09667 370.188224,316.438 C370.188224,315.605996 370.339889,314.930003 370.643224,314.41 C370.946559,313.889997 371.345222,313.482668 371.839224,313.188 C372.333226,312.893332 372.887888,312.681001 373.503224,312.551 C374.11856,312.420999 374.738221,312.321334 375.362224,312.252 C375.89956,312.147999 376.410888,312.074334 376.896224,312.031 C377.38156,311.987666 377.810555,311.914001 378.183224,311.81 C378.555893,311.705999 378.850556,311.545668 379.067224,311.329 C379.283892,311.112332 379.392224,310.787335 379.392224,310.354 C379.392224,309.972665 379.301225,309.660668 379.119224,309.418 C378.937223,309.175332 378.711892,308.989001 378.443224,308.859 C378.174556,308.728999 377.875559,308.642334 377.546224,308.599 C377.216889,308.555666 376.904892,308.534 376.610224,308.534 C375.77822,308.534 375.09356,308.707332 374.556224,309.054 C374.018888,309.400668 373.715558,309.937996 373.646224,310.666 L370.682224,310.666 C370.734224,309.799329 370.942222,309.080003 371.306224,308.508 C371.670226,307.935997 372.133888,307.476668 372.697224,307.13 C373.26056,306.783332 373.897554,306.540667 374.608224,306.402 C375.318894,306.263333 376.046887,306.194 376.792224,306.194 C377.450894,306.194 378.100887,306.263333 378.742224,306.402 C379.383561,306.540667 379.959888,306.765998 380.471224,307.078 C380.98256,307.390002 381.394222,307.792998 381.706224,308.287 C382.018226,308.781002 382.174224,309.38333 382.174224,310.094 L382.174224,317.01 Z M379.210224,313.266 C378.759555,313.560668 378.204894,313.738333 377.546224,313.799 C376.887554,313.859667 376.228894,313.950666 375.570224,314.072 C375.258222,314.124 374.954892,314.197666 374.660224,314.293 C374.365556,314.388334 374.105558,314.518333 373.880224,314.683 C373.65489,314.847667 373.477225,315.064332 373.347224,315.333 C373.217223,315.601668 373.152224,315.926665 373.152224,316.308 C373.152224,316.637335 373.247556,316.914666 373.438224,317.14 C373.628892,317.365334 373.858556,317.542999 374.127224,317.673 C374.395892,317.803001 374.690556,317.894 375.011224,317.946 C375.331892,317.998 375.622223,318.024 375.882224,318.024 C376.211559,318.024 376.566889,317.980667 376.948224,317.894 C377.329559,317.807333 377.689222,317.660001 378.027224,317.452 C378.365226,317.243999 378.64689,316.979668 378.872224,316.659 C379.097558,316.338332 379.210224,315.944002 379.210224,315.476 L379.210224,313.266 Z M393.585336,306.558 L396.367336,306.558 L396.367336,309.158 L396.419336,309.158 C396.506003,308.793998 396.675001,308.438668 396.926336,308.092 C397.177671,307.745332 397.481001,307.429001 397.836336,307.143 C398.191671,306.856999 398.586001,306.627334 399.019336,306.454 C399.452672,306.280666 399.894667,306.194 400.345336,306.194 C400.692004,306.194 400.930335,306.202667 401.060336,306.22 C401.190337,306.237333 401.324669,306.254667 401.463336,306.272 L401.463336,309.132 C401.255335,309.097333 401.043004,309.067 400.826336,309.041 C400.609668,309.015 400.397337,309.002 400.189336,309.002 C399.686667,309.002 399.214338,309.101666 398.772336,309.301 C398.330334,309.500334 397.944671,309.794998 397.615336,310.185 C397.286001,310.575002 397.026004,311.055997 396.835336,311.628 C396.644668,312.200003 396.549336,312.858663 396.549336,313.604 L396.549336,320 L393.585336,320 L393.585336,306.558 Z M411.991892,312.096 C411.957225,311.627998 411.857559,311.177336 411.692892,310.744 C411.528225,310.310665 411.302893,309.933668 411.016892,309.613 C410.730891,309.292332 410.384227,309.032334 409.976892,308.833 C409.569557,308.633666 409.114561,308.534 408.611892,308.534 C408.091889,308.534 407.619561,308.624999 407.194892,308.807 C406.770223,308.989001 406.406227,309.240332 406.102892,309.561 C405.799557,309.881668 405.556893,310.258665 405.374892,310.692 C405.192891,311.125336 405.093225,311.593331 405.075892,312.096 L411.991892,312.096 Z M405.075892,314.046 C405.075892,314.566003 405.149558,315.068664 405.296892,315.554 C405.444226,316.039336 405.665224,316.463998 405.959892,316.828 C406.25456,317.192002 406.627223,317.482332 407.077892,317.699 C407.528561,317.915668 408.065889,318.024 408.689892,318.024 C409.556563,318.024 410.254223,317.837669 410.782892,317.465 C411.311561,317.092331 411.705891,316.533337 411.965892,315.788 L414.773892,315.788 C414.617891,316.516004 414.349227,317.165997 413.967892,317.738 C413.586557,318.310003 413.127228,318.790998 412.589892,319.181 C412.052556,319.571002 411.450229,319.865666 410.782892,320.065 C410.115555,320.264334 409.417896,320.364 408.689892,320.364 C407.632553,320.364 406.696563,320.190668 405.881892,319.844 C405.067221,319.497332 404.378228,319.012003 403.814892,318.388 C403.251556,317.763997 402.826893,317.018671 402.540892,316.152 C402.254891,315.285329 402.111892,314.332005 402.111892,313.292 C402.111892,312.338662 402.263557,311.433004 402.566892,310.575 C402.870227,309.716996 403.303556,308.963003 403.866892,308.313 C404.430228,307.662997 405.110555,307.147335 405.907892,306.766 C406.705229,306.384665 407.606554,306.194 408.611892,306.194 C409.669231,306.194 410.618221,306.414998 411.458892,306.857 C412.299563,307.299002 412.997223,307.883996 413.551892,308.612 C414.106561,309.340004 414.509557,310.176329 414.760892,311.121 C415.012227,312.065671 415.077226,313.040662 414.955892,314.046 L405.075892,314.046 Z M419.946448,315.684 C420.033115,316.550671 420.362445,317.157332 420.934448,317.504 C421.506451,317.850668 422.191111,318.024 422.988448,318.024 C423.265783,318.024 423.582113,318.002334 423.937448,317.959 C424.292783,317.915666 424.626446,317.833334 424.938448,317.712 C425.25045,317.590666 425.506114,317.413001 425.705448,317.179 C425.904782,316.944999 425.995781,316.637335 425.978448,316.256 C425.961115,315.874665 425.822449,315.562668 425.562448,315.32 C425.302447,315.077332 424.968783,314.882334 424.561448,314.735 C424.154113,314.587666 423.690451,314.462001 423.170448,314.358 C422.650445,314.253999 422.121784,314.141334 421.584448,314.02 C421.029779,313.898666 420.496784,313.751334 419.985448,313.578 C419.474112,313.404666 419.014783,313.170668 418.607448,312.876 C418.200113,312.581332 417.875116,312.204336 417.632448,311.745 C417.38978,311.285664 417.268448,310.718003 417.268448,310.042 C417.268448,309.313996 417.446113,308.703002 417.801448,308.209 C418.156783,307.714998 418.607445,307.316335 419.153448,307.013 C419.699451,306.709665 420.306111,306.497334 420.973448,306.376 C421.640785,306.254666 422.277778,306.194 422.884448,306.194 C423.577785,306.194 424.240778,306.267666 424.873448,306.415 C425.506118,306.562334 426.078112,306.800665 426.589448,307.13 C427.100784,307.459335 427.525446,307.888331 427.863448,308.417 C428.20145,308.945669 428.413781,309.582663 428.500448,310.328 L425.406448,310.328 C425.267781,309.61733 424.942784,309.140668 424.431448,308.898 C423.920112,308.655332 423.335118,308.534 422.676448,308.534 C422.468447,308.534 422.221449,308.551333 421.935448,308.586 C421.649447,308.620667 421.380783,308.685666 421.129448,308.781 C420.878113,308.876334 420.665782,309.014999 420.492448,309.197 C420.319114,309.379001 420.232448,309.617332 420.232448,309.912 C420.232448,310.276002 420.358113,310.570666 420.609448,310.796 C420.860783,311.021334 421.190113,311.207666 421.597448,311.355 C422.004783,311.502334 422.468445,311.627999 422.988448,311.732 C423.508451,311.836001 424.045779,311.948666 424.600448,312.07 C425.137784,312.191334 425.666445,312.338666 426.186448,312.512 C426.706451,312.685334 427.170113,312.919332 427.577448,313.214 C427.984783,313.508668 428.314113,313.881331 428.565448,314.332 C428.816783,314.782669 428.942448,315.33733 428.942448,315.996 C428.942448,316.793337 428.76045,317.469331 428.396448,318.024 C428.032446,318.578669 427.560118,319.029332 426.979448,319.376 C426.398778,319.722668 425.753118,319.973999 425.042448,320.13 C424.331778,320.286001 423.629785,320.364 422.936448,320.364 C422.08711,320.364 421.302785,320.268668 420.583448,320.078 C419.864111,319.887332 419.240117,319.597002 418.711448,319.207 C418.182779,318.816998 417.766783,318.33167 417.463448,317.751 C417.160113,317.17033 416.999781,316.481337 416.982448,315.684 L419.946448,315.684 Z M430.345004,306.558 L432.581004,306.558 L432.581004,302.528 L435.545004,302.528 L435.545004,306.558 L438.223004,306.558 L438.223004,308.768 L435.545004,308.768 L435.545004,315.944 C435.545004,316.256002 435.558004,316.524666 435.584004,316.75 C435.610004,316.975334 435.67067,317.165999 435.766004,317.322 C435.861338,317.478001 436.004336,317.595 436.195004,317.673 C436.385672,317.751 436.645669,317.79 436.975004,317.79 C437.183005,317.79 437.391003,317.785667 437.599004,317.777 C437.807005,317.768333 438.015003,317.738 438.223004,317.686 L438.223004,319.974 C437.893669,320.008667 437.573006,320.043333 437.261004,320.078 C436.949002,320.112667 436.628339,320.13 436.299004,320.13 C435.519,320.13 434.890673,320.056334 434.414004,319.909 C433.937335,319.761666 433.564672,319.545001 433.296004,319.259 C433.027336,318.972999 432.845338,318.613336 432.750004,318.18 C432.65467,317.746665 432.598337,317.252669 432.581004,316.698 L432.581004,308.768 L430.345004,308.768 L430.345004,306.558 Z M452.65156,320 L449.73956,320 L449.73956,318.128 L449.68756,318.128 C449.323558,318.804003 448.781897,319.345665 448.06256,319.753 C447.343223,320.160335 446.610897,320.364 445.86556,320.364 C444.097551,320.364 442.819231,319.926338 442.03056,319.051 C441.241889,318.175662 440.84756,316.854009 440.84756,315.086 L440.84756,306.558 L443.81156,306.558 L443.81156,314.8 C443.81156,315.978673 444.036891,316.810664 444.48756,317.296 C444.938229,317.781336 445.570889,318.024 446.38556,318.024 C447.009563,318.024 447.529558,317.928668 447.94556,317.738 C448.361562,317.547332 448.699559,317.291668 448.95956,316.971 C449.219561,316.650332 449.405893,316.264669 449.51856,315.814 C449.631227,315.363331 449.68756,314.878003 449.68756,314.358 L449.68756,306.558 L452.65156,306.558 L452.65156,320 Z M456.264116,306.558 L459.046116,306.558 L459.046116,309.158 L459.098116,309.158 C459.184783,308.793998 459.353781,308.438668 459.605116,308.092 C459.856451,307.745332 460.159781,307.429001 460.515116,307.143 C460.870451,306.856999 461.264781,306.627334 461.698116,306.454 C462.131452,306.280666 462.573447,306.194 463.024116,306.194 C463.370784,306.194 463.609115,306.202667 463.739116,306.22 C463.869117,306.237333 464.003449,306.254667 464.142116,306.272 L464.142116,309.132 C463.934115,309.097333 463.721784,309.067 463.505116,309.041 C463.288448,309.015 463.076117,309.002 462.868116,309.002 C462.365447,309.002 461.893118,309.101666 461.451116,309.301 C461.009114,309.500334 460.623451,309.794998 460.294116,310.185 C459.964781,310.575002 459.704784,311.055997 459.514116,311.628 C459.323448,312.200003 459.228116,312.858663 459.228116,313.604 L459.228116,320 L456.264116,320 L456.264116,306.558 Z M465.908672,306.558 L468.690672,306.558 L468.690672,309.158 L468.742672,309.158 C468.829339,308.793998 468.998337,308.438668 469.249672,308.092 C469.501007,307.745332 469.804337,307.429001 470.159672,307.143 C470.515007,306.856999 470.909337,306.627334 471.342672,306.454 C471.776008,306.280666 472.218003,306.194 472.668672,306.194 C473.01534,306.194 473.253671,306.202667 473.383672,306.22 C473.513673,306.237333 473.648005,306.254667 473.786672,306.272 L473.786672,309.132 C473.578671,309.097333 473.36634,309.067 473.149672,309.041 C472.933004,309.015 472.720673,309.002 472.512672,309.002 C472.010003,309.002 471.537674,309.101666 471.095672,309.301 C470.65367,309.500334 470.268007,309.794998 469.938672,310.185 C469.609337,310.575002 469.34934,311.055997 469.158672,311.628 C468.968004,312.200003 468.872672,312.858663 468.872672,313.604 L468.872672,320 L465.908672,320 L465.908672,306.558 Z M486.811228,317.01 C486.811228,317.374002 486.858894,317.633999 486.954228,317.79 C487.049562,317.946001 487.235893,318.024 487.513228,318.024 L487.825228,318.024 C487.946562,318.024 488.085227,318.006667 488.241228,317.972 L488.241228,320.026 C488.137227,320.060667 488.002895,320.099666 487.838228,320.143 C487.673561,320.186334 487.504562,320.225333 487.331228,320.26 C487.157894,320.294667 486.984562,320.320667 486.811228,320.338 C486.637894,320.355333 486.490562,320.364 486.369228,320.364 C485.762558,320.364 485.259897,320.242668 484.861228,320 C484.462559,319.757332 484.202562,319.33267 484.081228,318.726 C483.491892,319.298003 482.768232,319.713999 481.910228,319.974 C481.052224,320.234001 480.224565,320.364 479.427228,320.364 C478.820558,320.364 478.239897,320.281667 477.685228,320.117 C477.130559,319.952333 476.640897,319.709668 476.216228,319.389 C475.791559,319.068332 475.453563,318.661002 475.202228,318.167 C474.950893,317.672998 474.825228,317.09667 474.825228,316.438 C474.825228,315.605996 474.976893,314.930003 475.280228,314.41 C475.583563,313.889997 475.982226,313.482668 476.476228,313.188 C476.97023,312.893332 477.524892,312.681001 478.140228,312.551 C478.755564,312.420999 479.375225,312.321334 479.999228,312.252 C480.536564,312.147999 481.047892,312.074334 481.533228,312.031 C482.018564,311.987666 482.447559,311.914001 482.820228,311.81 C483.192897,311.705999 483.48756,311.545668 483.704228,311.329 C483.920896,311.112332 484.029228,310.787335 484.029228,310.354 C484.029228,309.972665 483.938229,309.660668 483.756228,309.418 C483.574227,309.175332 483.348896,308.989001 483.080228,308.859 C482.81156,308.728999 482.512563,308.642334 482.183228,308.599 C481.853893,308.555666 481.541896,308.534 481.247228,308.534 C480.415224,308.534 479.730564,308.707332 479.193228,309.054 C478.655892,309.400668 478.352562,309.937996 478.283228,310.666 L475.319228,310.666 C475.371228,309.799329 475.579226,309.080003 475.943228,308.508 C476.30723,307.935997 476.770892,307.476668 477.334228,307.13 C477.897564,306.783332 478.534558,306.540667 479.245228,306.402 C479.955898,306.263333 480.683891,306.194 481.429228,306.194 C482.087898,306.194 482.737891,306.263333 483.379228,306.402 C484.020565,306.540667 484.596892,306.765998 485.108228,307.078 C485.619564,307.390002 486.031226,307.792998 486.343228,308.287 C486.65523,308.781002 486.811228,309.38333 486.811228,310.094 L486.811228,317.01 Z M483.847228,313.266 C483.396559,313.560668 482.841898,313.738333 482.183228,313.799 C481.524558,313.859667 480.865898,313.950666 480.207228,314.072 C479.895226,314.124 479.591896,314.197666 479.297228,314.293 C479.00256,314.388334 478.742562,314.518333 478.517228,314.683 C478.291894,314.847667 478.114229,315.064332 477.984228,315.333 C477.854227,315.601668 477.789228,315.926665 477.789228,316.308 C477.789228,316.637335 477.88456,316.914666 478.075228,317.14 C478.265896,317.365334 478.49556,317.542999 478.764228,317.673 C479.032896,317.803001 479.32756,317.894 479.648228,317.946 C479.968896,317.998 480.259227,318.024 480.519228,318.024 C480.848563,318.024 481.203893,317.980667 481.585228,317.894 C481.966563,317.807333 482.326226,317.660001 482.664228,317.452 C483.00223,317.243999 483.283894,316.979668 483.509228,316.659 C483.734562,316.338332 483.847228,315.944002 483.847228,315.476 L483.847228,313.266 Z M502.305784,320 L499.393784,320 L499.393784,318.128 L499.341784,318.128 C498.977782,318.804003 498.436121,319.345665 497.716784,319.753 C496.997447,320.160335 496.265121,320.364 495.519784,320.364 C493.751775,320.364 492.473455,319.926338 491.684784,319.051 C490.896113,318.175662 490.501784,316.854009 490.501784,315.086 L490.501784,306.558 L493.465784,306.558 L493.465784,314.8 C493.465784,315.978673 493.691115,316.810664 494.141784,317.296 C494.592453,317.781336 495.225113,318.024 496.039784,318.024 C496.663787,318.024 497.183782,317.928668 497.599784,317.738 C498.015786,317.547332 498.353783,317.291668 498.613784,316.971 C498.873785,316.650332 499.060117,316.264669 499.172784,315.814 C499.285451,315.363331 499.341784,314.878003 499.341784,314.358 L499.341784,306.558 L502.305784,306.558 L502.305784,320 Z M505.91834,306.558 L508.72634,306.558 L508.72634,308.534 L508.77834,308.586 C509.229009,307.840663 509.818336,307.255669 510.54634,306.831 C511.274344,306.406331 512.080336,306.194 512.96434,306.194 C514.437681,306.194 515.599002,306.57533 516.44834,307.338 C517.297678,308.10067 517.72234,309.244659 517.72234,310.77 L517.72234,320 L514.75834,320 L514.75834,311.55 C514.723673,310.492661 514.498342,309.725669 514.08234,309.249 C513.666338,308.772331 513.016344,308.534 512.13234,308.534 C511.629671,308.534 511.179009,308.624999 510.78034,308.807 C510.381671,308.989001 510.043675,309.240332 509.76634,309.561 C509.489005,309.881668 509.272341,310.258665 509.11634,310.692 C508.960339,311.125336 508.88234,311.584664 508.88234,312.07 L508.88234,320 L505.91834,320 L505.91834,306.558 Z M519.982896,306.558 L522.218896,306.558 L522.218896,302.528 L525.182896,302.528 L525.182896,306.558 L527.860896,306.558 L527.860896,308.768 L525.182896,308.768 L525.182896,315.944 C525.182896,316.256002 525.195896,316.524666 525.221896,316.75 C525.247896,316.975334 525.308562,317.165999 525.403896,317.322 C525.49923,317.478001 525.642228,317.595 525.832896,317.673 C526.023564,317.751 526.283561,317.79 526.612896,317.79 C526.820897,317.79 527.028895,317.785667 527.236896,317.777 C527.444897,317.768333 527.652895,317.738 527.860896,317.686 L527.860896,319.974 C527.531561,320.008667 527.210898,320.043333 526.898896,320.078 C526.586894,320.112667 526.266231,320.13 525.936896,320.13 C525.156892,320.13 524.528565,320.056334 524.051896,319.909 C523.575227,319.761666 523.202564,319.545001 522.933896,319.259 C522.665228,318.972999 522.48323,318.613336 522.387896,318.18 C522.292562,317.746665 522.236229,317.252669 522.218896,316.698 L522.218896,308.768 L519.982896,308.768 L519.982896,306.558 Z" id="pmoto"></path>
            </g>
        </g>
    </g>
</svg>