
<svg width="857px" height="1217px" viewBox="0 0 857 1217" version="1.1" xmlns="http://www.w3.org/2000/svg" xmlns:xlink="http://www.w3.org/1999/xlink">
    <g id="Page-1" stroke="none" stroke-width="1" fill="none" fill-rule="evenodd">
        <g id="Group" fill="#fff" fill-rule="nonzero">
            <polygon id="Rectangle-Copy-3" transform="translate(689.000000, 792.420243) rotate(-35.000000) translate(-689.000000, -792.420243) " points="636.47522 578 743.522423 578.047897 744 1006.84049 636.952796 1006.79259 634 1005.48178"></polygon>
            <rect id="Rectangle-Copy" x="0" y="0" width="110" height="1000"></rect>
            <rect id="Rectangle-Copy-6" transform="translate(209.734260, 236.744291) rotate(-35.000000) translate(-209.734260, -236.744291) " x="154.73426" y="-13.7557089" width="110" height="501"></rect>
            <rect id="Rectangle-Copy-5" x="220" y="585" width="110" height="632"></rect>
            <polygon id="Rectangle-Copy-2" transform="translate(439.000000, 944.500000) rotate(-90.000000) translate(-439.000000, -944.500000) " points="384 616 494 616 494 1273 384 1273"></polygon>
            <polygon id="Rectangle-Copy-4" transform="translate(470.000000, 640.500000) rotate(-90.000000) translate(-470.000000, -640.500000) " points="415 500 525 500 525 781 415 781"></polygon>
        </g>
    </g>
</svg>