<?xml version="1.0" encoding="UTF-8"?>
<svg width="227px" height="147px" viewBox="0 0 227 147" version="1.1" xmlns="http://www.w3.org/2000/svg" xmlns:xlink="http://www.w3.org/1999/xlink">
    <!-- Generator: Sketch 53.2 (72643) - https://sketchapp.com -->
    <title>icon</title>
    <desc>Created with Sketch.</desc>
    <g id="personalwebsite" stroke="none" stroke-width="1" fill="none" fill-rule="evenodd">
        <g id="t" transform="translate(-788.000000, -128.000000)" fill="#F87000">
            <g id="Label-and-Logo" transform="translate(362.000000, 128.000000)">
                <g id="icon" transform="translate(426.000000, 0.000000)">
                    <g id="logo" transform="translate(113.500000, 73.500000) scale(-1, 1) translate(-113.500000, -73.500000) ">
                        <g id="eyes" transform="translate(67.733871, 0.000000)">
                            <path d="M19.7709677,70.2523762 C32.2796244,70.2523762 39.5419355,54.4529859 39.5419355,35.0703097 C39.5419355,15.6876335 32.1658252,0.0338224452 19.7709677,5.60217269e-05 C7.37611025,-0.0337104018 0,15.2006735 0,35.0703097 C6.8480619e-16,54.939946 7.26231104,70.2523762 19.7709677,70.2523762 Z" id="right"></path>
                            <path d="M77.1067742,70.2523762 C64.5981175,70.2523762 57.3358065,54.4529859 57.3358065,35.0703097 C57.3358065,15.6876335 64.7119167,0.0338224452 77.1067742,5.60217269e-05 C89.5016317,-0.0337104018 96.8777419,15.2006735 96.8777419,35.0703097 C96.8777419,54.939946 89.6154309,70.2523762 77.1067742,70.2523762 Z" id="left"></path>
                        </g>
                        <path d="M5.86268447,80.7877267 C6.65429436,79.0885509 8.58218995,74.8653436 14.5947285,74.7644375 C15.6283773,74.7228457 17.0482375,75.0153004 18.5772907,75.7003135 C27.951448,81.601241 64.96692,105.990094 115.879549,104.586204 C123.133284,104.648923 165.773874,104.245754 207.292554,76.3834458 C209.790982,74.7187882 211.933864,74.597354 213.885613,74.8653436 C217.19172,75.4919145 219.619685,77.2868175 221.023246,80.6095154 C223.327466,87.7033764 224.907164,96.9227886 226.961294,103.062301 C227.192753,103.783855 226.372177,105.262155 224.873922,104.451949 C223.078413,102.957701 215.558227,92.7299309 214.164044,90.8431116 C213.0895,89.5391292 211.749552,89.9004269 211.207064,90.3089018 C201.925559,104.163781 178.054761,146.233976 113.624954,146.959226 C47.6700853,146.067326 24.7261348,103.062301 15.794931,90.3089018 C15.244276,89.9341288 13.8322111,89.4133816 12.6300872,91.0978521 C9.24022372,95.6836707 3.82262669,102.967767 2.12642176,104.451949 C1.08918446,105.048228 -0.179899862,104.451949 0.0212128794,103.099484 C0.884320304,100.338585 3.25680463,89.9542434 5.86268447,80.7877267 Z" id="smile" transform="translate(113.500000, 110.857311) scale(-1, 1) translate(-113.500000, -110.857311) "></path>
                    </g>
                </g>
            </g>
        </g>
    </g>
</svg>