<svg height="147" viewBox="0 0 227 147" width="227" xmlns="http://www.w3.org/2000/svg"><g fill="#f87000" fill-rule="evenodd" transform="matrix(-1 0 0 1 227 0)"><g transform="translate(67.733871)"><path d="m19.7709677 70.2523762c12.5086567 0 19.7709678-15.7993903 19.7709678-35.1820665s-7.3761103-35.03648725-19.7709678-35.07025368c-12.39485745-.03376642-19.7709677 15.20061748-19.7709677 35.07025368 0 19.8696363 7.26231104 35.1820665 19.7709677 35.1820665z"/><path d="m77.1067742 70.2523762c-12.5086567 0-19.7709677-15.7993903-19.7709677-35.1820665s7.3761102-35.03648725 19.7709677-35.07025368c12.3948575-.03376642 19.7709677 15.20061748 19.7709677 35.07025368 0 19.8696363-7.262311 35.1820665-19.7709677 35.1820665z"/></g><path d="m5.86268447 80.7877267c.79160989-1.6991758 2.71950548-5.9223831 8.73204403-6.0232892 1.0336488-.0415918 2.453509.2508629 3.9825622.935876 9.3741573 5.9009275 46.3896293 30.2897805 97.3022583 28.8858905 7.253735.062719 49.894325-.34045 91.413005-28.2027582 2.498428-1.6646576 4.64131-1.7860918 6.593059-1.5181022 3.306107.6265709 5.734072 2.4214739 7.137633 5.7441718 2.30422 7.093861 3.883918 16.3132732 5.938048 22.4527856.231459.721554-.589117 2.199854-2.087372 1.389648-1.795509-1.494248-9.315695-11.7220181-10.709878-13.6088374-1.074544-1.3039824-2.414492-.9426847-2.95698-.5342098-9.281505 13.8548792-33.152303 55.9250742-97.58211 56.6503242-65.9548687-.8919-88.8988192-43.896925-97.830023-56.6503242-.550655-.374773-1.9627199-.8955202-3.1648438.7889503-3.38986348 4.5858186-8.80746051 11.8699149-10.50366544 13.3540969-1.0372373.596279-2.30632162 0-2.10520888-1.352465.86310742-2.760899 3.23559175-13.1452406 5.84147159-22.3117573z" transform="matrix(-1 0 0 1 227 0)"/></g></svg>