<svg height="112" viewBox="0 0 356 112" width="356" xmlns="http://www.w3.org/2000/svg"><g fill="none" transform="translate(1 1)"><path d="m343.806102 110h-333.5989097c-5.63402981 0-10.2071923-4.934569-10.2071923-11.0264866v-87.9326319c0-6.08903895 4.57316249-11.0408815 10.2071923-11.0408815h333.5962507c5.639347 0 10.193898 4.95184255 10.193898 11.0408815l.002659 87.9326319c0 6.0919176-4.55721 11.0264866-10.193898 11.0264866z" fill="#000" stroke="#fff" stroke-width=".5"/><g fill="#fff"><g transform="translate(112 50)"><path d="m30.1169914 36.9109333h-6.0174514l-3.2962172-10.6846h-11.45726971l-3.13988542 10.6846h-5.85846977l11.351282-36.37519997h7.0110859zm-10.3073033-15.1672666-2.9809038-9.4983334c-.3153134-.9703333-.9061948-3.25539997-1.7779436-6.85246663h-.1059877c-.3471097 1.54706666-.9061948 3.83213333-1.6746056 6.85246663l-2.92791 9.4983334z"/><path d="m59.3086519 23.4738667c0 4.4608-1.1685144 7.9868-3.505543 10.5752666-2.0932569 2.3042-4.6926051 3.4549334-7.7953949 3.4549334-3.3492111 0-5.7551317-1.2409334-7.2204116-3.7228h-.1059877v13.817h-5.6491441v-28.2818c0-2.8044-.0715416-5.6826-.2093257-8.6346h4.9681732l.3153134 4.1574h.1059877c1.8839312-3.1324 4.7429493-4.6958667 8.5797038-4.6958667 2.9994517 0 5.503411 1.2218 7.5065784 3.6681333 2.0084668 2.4490667 3.0100505 5.6689334 3.0100505 9.6623334zm-5.7551318.2132c0-2.5529334-.5564354-4.6576-1.6746056-6.314-1.2215081-1.7274667-2.8616677-2.5912-4.9178289-2.5912-1.3937382 0-2.6602911.4810666-3.7917098 1.4295333-1.1340683.9566667-1.8759822 2.2058-2.2230919 3.7528667-.1748796.7216-.2623195 1.312-.2623195 1.7766666v4.3733334c0 1.9078666.5670342 3.5178 1.7011025 4.8325333s2.6072973 1.9707333 4.4196868 1.9707333c2.127703 0 3.7837607-.8473333 4.9681732-2.5365333 1.1870621-1.6919333 1.7805932-3.9223333 1.7805932-6.6939333z"/><path d="m88.5533062 23.4738667c0 4.4608-1.1685143 7.9868-3.5081926 10.5752666-2.0906073 2.3042-4.6899555 3.4549334-7.7927452 3.4549334-3.3492111 0-5.7551318-1.2409334-7.2177619-3.7228h-.1059877v13.817h-5.6491441v-28.2818c0-2.8044-.0715417-5.6826-.2093257-8.6346h4.9681731l.3153134 4.1574h.1059877c1.8812816-3.1324 4.7402996-4.6958667 8.5797038-4.6958667 2.9968021 0 5.5007613 1.2218 7.5092281 3.6681333 2.0005177 2.4490667 3.0047511 5.6689334 3.0047511 9.6623334zm-5.7551317.2132c0-2.5529334-.5590851-4.6576-1.6772553-6.314-1.2215081-1.7274667-2.8563683-2.5912-4.9151793-2.5912-1.3963878 0-2.6602911.4810666-3.7943594 1.4295333-1.1340683.9566667-1.8733325 2.2058-2.2204422 3.7528667-.17223.7216-.2623195 1.312-.2623195 1.7766666v4.3733334c0 1.9078666.5670341 3.5178 1.6958031 4.8325333 1.1340683 1.312 2.6072972 1.9707333 4.4249862 1.9707333 2.1277029 0 3.7837606-.8473333 4.9681731-2.5365333 1.1870622-1.6919333 1.7805933-3.9223333 1.7805933-6.6939333z"/><path d="m121.25051 26.7101333c0 3.0941334-1.041329 5.6115334-3.131937 7.5549334-2.297283 2.1238-5.495462 3.1843333-9.605134 3.1843333-3.79436 0-6.836207-.7544-9.1387892-2.2659333l1.3089482-4.8571334c2.480112 1.5470667 5.201346 2.3233334 8.166352 2.3233334 2.127703 0 3.78376-.4974667 4.973472-1.4869334 1.184413-.9894666 1.775294-2.3178666 1.775294-3.9742666 0-1.476-.487543-2.7196667-1.46528-3.7282667-.972437-1.0086-2.596698-1.9461333-4.864835-2.8126-6.173783-2.3752667-9.258025-5.8548-9.258025-10.4304 0-2.99026667 1.081074-5.44206667 3.245873-7.34993333 2.15685-1.9106 5.034415-2.86453334 8.632698-2.86453334 3.208777 0 5.874368.57673334 8.002071 1.72746667l-1.412286 4.75053333c-1.98727-1.1152-4.234209-1.6728-6.748767-1.6728-1.987269 0-3.539989.50566667-4.65286 1.51153334-.94064.89926666-1.412286 1.99533333-1.412286 3.29366666 0 1.43773337.537888 2.62673337 1.618962 3.56153337.940641.8637333 2.649693 1.7985333 5.129805 2.8071333 3.033897 1.2600667 5.262289 2.7333333 6.695772 4.4225333 1.428184 1.6837334 2.140952 3.7911334 2.140952 6.3058z"/><path d="m139.928191 15.0552h-6.226777v12.7346c0 3.239 1.096973 4.8571333 3.296217 4.8571333 1.009533 0 1.846836-.0902 2.509259-.2706l.156332 4.4252667c-1.112871.4291333-2.578151.6450667-4.39319.6450667-2.231041 0-3.974539-.7024667-5.233142-2.1046667-1.253305-1.4049333-1.883932-3.7610667-1.883932-7.0711333v-13.2211334h-3.709569v-4.3733333h3.709569v-4.80246667l5.548456-1.72746666v6.52993333h6.226777z"/><path d="m168.022879 23.5804667c0 4.0316666-1.11817 7.3417333-3.349211 9.9302-2.339679 2.665-5.445118 3.9934-9.316318 3.9934-3.730767 0-6.701072-1.2764667-8.916215-3.8294-2.215143-2.5529334-3.322714-5.7755334-3.322714-9.6596 0-4.0644667 1.139367-7.3936667 3.426052-9.9821334 2.281385-2.5912 5.360327-3.8868 9.231528-3.8868 3.730767 0 6.732868 1.2764667 8.998355 3.8321334 2.167448 2.4791333 3.248523 5.6798666 3.248523 9.6022zm-5.86112.1886c0-2.419-.500791-4.4936-1.515624-6.2238-1.184412-2.0937334-2.877565-3.1378667-5.071511-3.1378667-2.270786 0-3.995736 1.0468667-5.180148 3.1378667-1.014832 1.7329333-1.515624 3.8403333-1.515624 6.3331333 0 2.419.500792 4.4936 1.515624 6.2210667 1.221508 2.0937333 2.92791 3.1378666 5.129804 3.1378666 2.15685 0 3.850003-1.066 5.071511-3.1925333 1.041329-1.763 1.565968-3.8594667 1.565968-6.2757333z"/><path d="m186.385247 15.8068667c-.559085-.1066-1.155266-.1612667-1.780593-.1612667-1.98727 0-3.524091.7735333-4.605166 2.3233333-.94064 1.3666667-1.412286 3.0941334-1.412286 5.1796667v13.7623333h-5.646494l.052994-17.9689333c0-3.0230667-.071542-5.7755333-.211976-8.2574h4.920479l.206676 5.0184h.156332c.596181-1.7247333 1.536821-3.1132667 2.824572-4.1546667 1.258604-.9375333 2.617896-1.4049333 4.083176-1.4049333.521989 0 .993634.0382667 1.412286.1066z"/><path d="m211.650063 22.5554667c0 1.0441333-.066242 1.9242666-.206676 2.6431333h-16.947432c.066242 2.5912.884997 4.5728667 2.458915 5.9395333 1.428184 1.2218 3.275019 1.8340667 5.543156 1.8340667 2.509259 0 4.798593-.4127333 6.857404-1.2409333l.884997 4.0453333c-2.405921 1.0824-5.246391 1.6208667-8.52406 1.6208667-3.942742 0-7.037583-1.1972-9.289822-3.5888667-2.246939-2.3916667-3.373058-5.6033333-3.373058-9.6322667 0-3.9551333 1.046629-7.2488 3.142535-9.8755333 2.193945-2.8044 5.158951-4.2066 8.889718-4.2066 3.664524 0 6.438752 1.4022 8.322684 4.2066 1.491776 2.2276667 2.241639 4.9828667 2.241639 8.2546667zm-5.386824-1.5115334c.037095-1.7274666-.331212-3.2198666-1.096973-4.4799333-.977736-1.6208667-2.480112-2.4299333-4.501827-2.4299333-1.846836 0-3.349211.7899333-4.496528 2.3752666-.940641 1.2600667-1.499726 2.7716-1.671956 4.5318667h11.767284z"/></g><g transform="translate(115 18)"><path d="m14.261483 9.74263876c0 3.21697494-.9351565 5.63858904-2.8028203 7.26484224-1.72990707 1.5005261-4.18833547 2.2521558-7.37263604 2.2521558-1.57890445 0-2.9299804-.0710632-4.06117536-.2131895v-17.57720113c1.47558687-.24598789 3.06508799-.37171503 4.7817492-.37171503 3.03329796 0 5.3195304.68056649 6.8613465 2.04169946 1.7272579 1.53879089 2.593536 3.73901588 2.593536 6.60340816zm-2.9273312.07926276c0-2.08543064-.5351321-3.6843519-1.60539617-4.79949699-1.07026409-1.11241189-2.63327352-1.66998443-4.69167747-1.66998443-.87422562 0-1.61864197.06013037-2.23589824.18585751v13.36260869c.34174274.0546639.96694651.0792627 1.87561132.0792627 2.12463316 0 3.76446848-.6095033 4.91950596-1.8285099 1.1550375-1.2190067 1.7378546-2.9955859 1.7378546-5.32973758z"/><path d="m29.7829614 12.5523671c0 1.981569-.5483779 3.6050891-1.6451337 4.8787597-1.1497391 1.3092022-2.673011 1.9624367-4.575114 1.9624367-1.8332246 0-3.2929165-.6259025-4.3817248-1.8831739-1.0861591-1.2545382-1.6292386-2.8370603-1.6292386-4.744833 0-1.9952351.5589746-3.63242116 1.682222-4.90335858 1.1232475-1.27093741 2.6332735-1.90777272 4.5353765-1.90777272 1.8332247 0 3.3061624.62590251 4.4214623 1.88044073 1.0596674 1.21900664 1.5921503 2.79332907 1.5921503 4.71750107zm-2.8796462.0929287c0-1.1889414-.2490218-2.2084246-.7444164-3.05844937-.582817-1.02768273-1.4120068-1.54152409-2.4902184-1.54152409-1.1152999 0-1.9630339.51384136-2.5458509 1.54152409-.4980437.85002477-.7444164 1.88590717-.7444164 3.11038017 0 1.1889414.2490219 2.2084246.7444164 3.0584494.6013612 1.0276827 1.4384985 1.5415241 2.5193592 1.5415241 1.0596675 0 1.8915064-.522041 2.4902185-1.5688561.5139387-.866424.770908-1.8941067.770908-3.0830482z"/><path d="m50.5948294 6.21681238-3.9075236 12.88429882h-2.5432018l-1.618642-5.5948578c-.4106211-1.3966645-.7444163-2.7851295-1.0040348-4.16266166h-.0503342c-.2410744 1.41579696-.5748696 2.80152866-1.0040349 4.16266166l-1.7193104 5.5948578h-2.5723426l-3.6743968-12.88429882h2.8531545l1.4120068 6.12509842c.3417428 1.4485953.6225546 2.8288607.847734 4.1353297h.0503342c.2066351-1.0768804.5483779-2.4489461 1.0305265-4.1079978l1.7722938-6.14969712h2.2623899l1.698117 6.01850362c.4106212 1.4677277.7444164 2.8807915 1.0013857 4.2419245h.0768259c.188091-1.3256014.471552-2.7386652.847734-4.2419245l1.5153244-6.01850362h2.7259944z"/><path d="m64.987762 19.1011112h-2.7763286v-7.3796366c0-2.27402131-.8371373-3.41103198-2.5167101-3.41103198-.8238914 0-1.4888327.31158465-2.0054206.93748716-.5112895.62590252-.7709081 1.36386622-.7709081 2.20842462v7.6420236h-2.7763286v-9.19994692c0-1.13154427-.0344392-2.35875051-.1006684-3.6870851h2.4398842l.1298093 2.01436747h.0768259c.3231985-.62590251.8053472-1.14247707 1.4384985-1.55519008.7523639-.48104298 1.5947995-.72429767 2.5167101-.72429767 1.1656342 0 2.1352298.38811423 2.9061379 1.16707587.958999.95388636 1.4384985 2.3778829 1.4384985 4.26925643z"/><path d="m72.643859 19.1011112h-2.7736794v-18.7962077h2.7736794z"/><path d="m88.9892289 12.5523671c0 1.981569-.5483779 3.6050891-1.6451337 4.8787597-1.1497391 1.3092022-2.6756602 1.9624367-4.575114 1.9624367-1.8358738 0-3.2955657-.6259025-4.3817248-1.8831739-1.0861591-1.2545382-1.6292386-2.8370603-1.6292386-4.744833 0-1.9952351.5589745-3.63242116 1.682222-4.90335858 1.1232474-1.27093741 2.6332735-1.90777272 4.5327273-1.90777272 1.8358738 0 3.3061624.62590251 4.4241115 1.88044073 1.0596674 1.21900664 1.5921503 2.79332907 1.5921503 4.71750107zm-2.8822954.0929287c0-1.1889414-.2490218-2.2084246-.7444163-3.05844937-.580168-1.02768273-1.4120069-1.54152409-2.4875693-1.54152409-1.1179491 0-1.965683.51384136-2.545851 1.54152409-.4980436.85002477-.7444163 1.88590717-.7444163 3.11038017 0 1.1889414.2490218 2.2084246.7444163 3.0584494.6013613 1.0276827 1.4384986 1.5415241 2.5193593 1.5415241 1.0596674 0 1.8888572-.522041 2.4875693-1.5688561.5165878-.866424.770908-1.8941067.770908-3.0830482z"/><path d="m102.425812 19.1011112h-2.4928679l-.2066352-1.4841269h-.0768259c-.8530322 1.1834751-2.0690006 1.7765792-3.647905 1.7765792-1.17888 0-2.1325807-.3908474-2.8505054-1.1670759-.6516954-.7051652-.9775432-1.582522-.9775432-2.6238707 0-1.5743225.6358005-2.7741968 1.9153489-3.6050892 1.2768992-.8308924 3.0730355-1.238139 5.3857596-1.2190066v-.2405215c0-1.69731643-.8636289-2.54460804-2.593536-2.54460804-1.2318633 0-2.3180224.31978425-3.2558281.95388636l-.5642729-1.88044073c1.1603358-.74069686 2.593536-1.11241189 4.2837055-1.11241189 3.2637756 0 4.9009616 1.77657918 4.9009616 5.3297375v4.7448331c0 1.2873366.060931 2.3122861.180144 3.0721153zm-2.8822957-4.4277819v-1.9870355c-3.0624388-.054664-4.5936582.81176-4.5936582 2.5965388 0 .6723669.1748451 1.1752755.5324828 1.5114589.3576378.3361835.8132948.5029086 1.3563743.5029086.6093088 0 1.17888-.1995235 1.6981171-.5958374.5218862-.399047.8424355-.9046887.9616481-1.5251248.0291409-.1393932.0450359-.3088515.0450359-.5029086z"/><path d="m118.20161 19.1011112h-2.463726l-.12981-2.0690314h-.076826c-.786803 1.5743225-2.127282 2.3614837-4.010841 2.3614837-1.504728 0-2.757784-.6095033-3.751222-1.8285099-.993439-1.2190067-1.488833-2.8015288-1.488833-4.7448331 0-2.0854306.537781-3.77454742 1.618642-5.06461723 1.046421-1.20260744 2.328619-1.80391117 3.85454-1.80391117 1.676924 0 2.850505.58217133 3.518096 1.7492472h.052983v-7.3960358h2.778978v15.3250453c0 1.2545383.03179 2.4106813.098019 3.4711624zm-2.876997-5.4335991v-2.1482942c0-.371715-.026491-.6723669-.076826-.9019555-.156301-.68876613-.492745-1.26820426-1.004035-1.73558125-.516587-.46737698-1.139142-.70243207-1.857067-.70243207-1.035825 0-1.84647.4236458-2.442533 1.27367061-.590765.85002481-.890121 1.93510471-.890121 3.26070611 0 1.2736706.283461 2.3068197.853033 3.1021806.601361.8472916 1.412006 1.2709374 2.426638 1.2709374.911314 0 1.639835-.3525827 2.193512-1.0604811.535132-.6532345.797399-1.4403958.797399-2.3587506z"/><path d="m141.946108 12.5523671c0 1.981569-.548378 3.6050891-1.645134 4.8787597-1.149739 1.3092022-2.670362 1.9624367-4.575114 1.9624367-1.830575 0-3.290267-.6259025-4.381725-1.8831739-1.086159-1.2545382-1.629238-2.8370603-1.629238-4.744833 0-1.9952351.558974-3.63242116 1.682222-4.90335858 1.123247-1.27093741 2.633273-1.90777272 4.538025-1.90777272 1.830576 0 3.306163.62590251 4.418813 1.88044073 1.059668 1.21900664 1.592151 2.79332907 1.592151 4.71750107zm-2.876997.0929287c0-1.1889414-.249022-2.2084246-.744417-3.05844937-.585466-1.02768273-1.412006-1.54152409-2.492867-1.54152409-1.112651 0-1.960385.51384136-2.545851 1.54152409-.498044.85002477-.744416 1.88590717-.744416 3.11038017 0 1.1889414.249021 2.2084246.744416 3.0584494.601361 1.0276827 1.438498 1.5415241 2.519359 1.5415241 1.059668 0 1.894156-.522041 2.492868-1.5688561.511289-.866424.770908-1.8941067.770908-3.0830482z"/><path d="m156.874172 19.1011112h-2.773679v-7.3796366c0-2.27402131-.837137-3.41103198-2.519359-3.41103198-.823892 0-1.488833.31158465-2.002772.93748716-.513938.62590252-.770908 1.36386622-.770908 2.20842462v7.6420236h-2.778978v-9.19994692c0-1.13154427-.03179-2.35875051-.098019-3.6870851h2.437235l.12981 2.01436747h.076825c.325848-.62590251.807997-1.14247707 1.438499-1.55519008.755013-.48104298 1.594799-.72429767 2.519359-.72429767 1.162985 0 2.132581.38811423 2.903489 1.16707587.961648.95388636 1.438498 2.3778829 1.438498 4.26925643z"/><path d="m175.558758 8.36237339h-3.05714v6.25902511c0 1.5907217.543079 2.3860825 1.618642 2.3860825.498043 0 .911314-.0437312 1.237161-.1339267l.071528 2.172893c-.548378.2131895-1.268952.3197842-2.156423.3197842-1.096756 0-1.949788-.344383-2.567045-1.0331491-.619905-.6887661-.927209-1.8476424-.927209-3.4738956v-6.49681341h-1.825277v-2.14556101h1.825277v-2.36148371l2.720696-.84729161v3.20604212h3.057141v2.14829421z"/><path d="m190.256345 19.1011112h-2.778978v-7.3249726c0-2.30955292-.837137-3.46569598-2.514061-3.46569598-1.287496 0-2.167019.66963369-2.649168 2.00890108-.082124.2815195-.129809.6259025-.129809 1.0304159v7.7486184h-2.77368v-18.7934745h2.77368v7.76501763h.052983c.874226-1.41306375 2.127282-2.11822903 3.751223-2.11822903 1.149739 0 2.10079.38811422 2.855803 1.16707586.940455.97028556 1.412007 2.41341449 1.412007 4.32118724z"/><path d="m205.417537 12.0494585c0 .5138414-.037089.9456868-.103318 1.2982694h-8.326337c.037089 1.2736706.434464 2.2439562 1.205372 2.9163231.704679.6013037 1.613344.9019555 2.725994.9019555 1.231864 0 2.355111-.2022567 3.367094-.6095033l.434463 1.9897687c-1.184178.5302406-2.577641.7953608-4.190984.7953608-1.933893 0-3.457165-.5876377-4.559219-1.7629132-1.107353-1.1752754-1.655731-2.7523311-1.655731-4.731167 0-1.9433043.51129-3.56135793 1.541816-4.85142774 1.075563-1.37753216 2.529956-2.06629825 4.36583-2.06629825 1.796136 0 3.160458.68876609 4.082369 2.06629825.744416 1.0932795 1.112651 2.44621284 1.112651 4.05333374zm-2.649169-.7406969c.021193-.8500248-.161599-1.58252204-.537781-2.20022495-.482149-.79536084-1.215969-1.19440785-2.209407-1.19440785-.906015 0-1.645133.38811422-2.209406 1.16707586-.460956.62043611-.73382 1.36113294-.823892 2.22755694z"/></g><g transform="translate(23 15)"><path d="m45.6250041 37.4699051c-.076322-8.9151046 6.9453-13.252332 7.2663787-13.4542565-3.9766383-6.0936939-10.140296-6.9262867-12.3062611-6.9926728-5.1767356-.5725804-10.1981954 3.2556867-12.8352513 3.2556867-2.6896918 0-6.7505474-3.2003649-11.1272181-3.1063179-5.6320357.0912809-10.90088399 3.5184651-13.790592 8.8404202-5.96364149 10.8513668-1.5159124 26.7978694 4.19770881 35.5691373 2.85812651 4.2957361 6.19787099 9.0921343 10.56927809 8.9234029 4.2766626-.185328 5.8741606-2.8656681 11.0351054-2.8656681 5.1135726 0 6.6136942 2.8656681 11.0719505 2.7577906 4.5898458-.0774505 7.4795539-4.3150987 10.2376722-8.64956 3.3028995-4.9236383 4.6293228-9.7725922 4.6819587-10.0215402-.1079035-.0387252-8.9138808-3.5710208-9.0007299-14.2564222z"/><path d="m37.5576425 11.3105376c2.3001865-3.02333521 3.8739983-7.13650943 3.4371208-11.3105376-3.3292173.15490098-7.4927128 2.4203278-9.8902757 5.37727685-2.1212246 2.60565576-4.0161151 6.87649705-3.5266017 10.89285815 3.7397769.2932054 7.579562-1.9832858 9.9797566-4.9595974z"/></g></g></g></svg>