<?xml version="1.0" encoding="UTF-8"?>
<svg width="356px" height="112px" viewBox="0 0 356 112" version="1.1" xmlns="http://www.w3.org/2000/svg" xmlns:xlink="http://www.w3.org/1999/xlink">
    <!-- Generator: Sketch 53.2 (72643) - https://sketchapp.com -->
    <title>google-download-selected copy</title>
    <desc>Created with Sketch.</desc>
    <g id="personalwebsite" stroke="none" stroke-width="1" fill="none" fill-rule="evenodd">
        <g id="t" transform="translate(-724.000000, -786.000000)" fill-rule="nonzero">
            <g id="google-download-selected-copy" transform="translate(725.000000, 787.000000)">
                <path d="M343.806102,110 L10.2071923,110 C4.57316249,110 0,105.065431 0,98.9735134 L0,11.0408815 C0,4.95184255 4.57316249,0 10.2071923,0 L343.803443,0 C349.44279,0 353.997341,4.95184255 353.997341,11.0408815 L354,98.9735134 C354,105.065431 349.44279,110 343.806102,110 Z" id="Shape-Copy-2" stroke="#FFFFFF" stroke-width="0.5" fill="#000000"></path>
                <g id="Group-Copy-2" transform="translate(112.000000, 50.000000)" fill="#FFFFFF">
                    <path d="M30.1169914,36.9109333 L24.09954,36.9109333 L20.8033228,26.2263333 L9.34605309,26.2263333 L6.20616767,36.9109333 L0.347697902,36.9109333 L11.6989799,0.535733333 L18.7100658,0.535733333 L30.1169914,36.9109333 Z M19.8096881,21.7436667 L16.8287843,12.2453333 C16.5134709,11.275 15.9225895,8.98993333 15.0508407,5.39286667 L14.944853,5.39286667 C14.5977433,6.93993333 14.0386582,9.225 13.2702474,12.2453333 L10.3423374,21.7436667 L19.8096881,21.7436667 L19.8096881,21.7436667 Z" id="Shape"></path>
                    <path d="M59.3086519,23.4738667 C59.3086519,27.9346667 58.1401375,31.4606667 55.8031089,34.0491333 C53.709852,36.3533333 51.1105038,37.5040667 48.007714,37.5040667 C44.6585029,37.5040667 42.2525823,36.2631333 40.7873024,33.7812667 L40.6813147,33.7812667 L40.6813147,47.5982667 L35.0321706,47.5982667 L35.0321706,19.3164667 C35.0321706,16.5120667 34.960629,13.6338667 34.8228449,10.6818667 L39.7910181,10.6818667 L40.1063315,14.8392667 L40.2123192,14.8392667 C42.0962504,11.7068667 44.9552685,10.1434 48.792023,10.1434 C51.7914747,10.1434 54.295434,11.3652 56.2986014,13.8115333 C58.3070682,16.2606 59.3086519,19.4804667 59.3086519,23.4738667 Z M53.5535201,23.6870667 C53.5535201,21.1341333 52.9970847,19.0294667 51.8789145,17.3730667 C50.6574064,15.6456 49.0172468,14.7818667 46.9610856,14.7818667 C45.5673474,14.7818667 44.3007945,15.2629333 43.1693758,16.2114 C42.0353075,17.1680667 41.2933936,18.4172 40.9462839,19.9642667 C40.7714043,20.6858667 40.6839644,21.2762667 40.6839644,21.7409333 L40.6839644,26.1142667 C40.6839644,28.0221333 41.2509986,29.6320667 42.3850669,30.9468 C43.5191352,32.2615333 44.9923642,32.9175333 46.8047537,32.9175333 C48.9324567,32.9175333 50.5885144,32.0702 51.7729269,30.381 C52.959989,28.6890667 53.5535201,26.4586667 53.5535201,23.6870667 Z" id="Shape"></path>
                    <path d="M88.5533062,23.4738667 C88.5533062,27.9346667 87.3847919,31.4606667 85.0451136,34.0491333 C82.9545063,36.3533333 80.3551581,37.5040667 77.2523684,37.5040667 C73.9031573,37.5040667 71.4972366,36.2631333 70.0346065,33.7812667 L69.9286188,33.7812667 L69.9286188,47.5982667 L64.2794747,47.5982667 L64.2794747,19.3164667 C64.2794747,16.5120667 64.207933,13.6338667 64.070149,10.6818667 L69.0383221,10.6818667 L69.3536355,14.8392667 L69.4596232,14.8392667 C71.3409048,11.7068667 74.1999228,10.1434 78.039327,10.1434 C81.0361291,10.1434 83.5400883,11.3652 85.5485551,13.8115333 C87.5490728,16.2606 88.5533062,19.4804667 88.5533062,23.4738667 Z M82.7981745,23.6870667 C82.7981745,21.1341333 82.2390894,19.0294667 81.1209192,17.3730667 C79.8994111,15.6456 78.2645509,14.7818667 76.2057399,14.7818667 C74.8093521,14.7818667 73.5454488,15.2629333 72.4113805,16.2114 C71.2773122,17.1680667 70.538048,18.4172 70.1909383,19.9642667 C70.0187083,20.6858667 69.9286188,21.2762667 69.9286188,21.7409333 L69.9286188,26.1142667 C69.9286188,28.0221333 70.4956529,29.6320667 71.6244219,30.9468 C72.7584902,32.2588 74.2317191,32.9175333 76.0494081,32.9175333 C78.177111,32.9175333 79.8331687,32.0702 81.0175812,30.381 C82.2046434,28.6890667 82.7981745,26.4586667 82.7981745,23.6870667 Z" id="Shape"></path>
                    <path d="M121.25051,26.7101333 C121.25051,29.8042667 120.209181,32.3216667 118.118573,34.2650667 C115.82129,36.3888667 112.623111,37.4494 108.513439,37.4494 C104.719079,37.4494 101.677232,36.695 99.3746498,35.1834667 L100.683598,30.3263333 C103.16371,31.8734 105.884944,32.6496667 108.84995,32.6496667 C110.977653,32.6496667 112.63371,32.1522 113.823422,31.1627333 C115.007835,30.1732667 115.598716,28.8448667 115.598716,27.1884667 C115.598716,25.7124667 115.111173,24.4688 114.133436,23.4602 C113.160999,22.4516 111.536738,21.5140667 109.268601,20.6476 C103.094818,18.2723333 100.010576,14.7928 100.010576,10.2172 C100.010576,7.22693333 101.09165,4.77513333 103.256449,2.86726667 C105.413299,0.956666667 108.290864,0.00273333333 111.889147,0.00273333333 C115.097924,0.00273333333 117.763515,0.579466667 119.891218,1.7302 L118.478932,6.48073333 C116.491662,5.36553333 114.244723,4.80793333 111.730165,4.80793333 C109.742896,4.80793333 108.190176,5.3136 107.077305,6.31946667 C106.136665,7.21873333 105.665019,8.3148 105.665019,9.61313333 C105.665019,11.0508667 106.202907,12.2398667 107.283981,13.1746667 C108.224622,14.0384 109.933674,14.9732 112.413786,15.9818 C115.447683,17.2418667 117.676075,18.7151333 119.109558,20.4043333 C120.537742,22.0880667 121.25051,24.1954667 121.25051,26.7101333 Z" id="Shape"></path>
                    <path d="M139.928191,15.0552 L133.701414,15.0552 L133.701414,27.7898 C133.701414,31.0288 134.798387,32.6469333 136.997631,32.6469333 C138.007164,32.6469333 138.844467,32.5567333 139.50689,32.3763333 L139.663222,36.8016 C138.550351,37.2307333 137.085071,37.4466667 135.270032,37.4466667 C133.038991,37.4466667 131.295493,36.7442 130.03689,35.342 C128.783585,33.9370667 128.152958,31.5809333 128.152958,28.2708667 L128.152958,15.0497333 L124.443389,15.0497333 L124.443389,10.6764 L128.152958,10.6764 L128.152958,5.87393333 L133.701414,4.14646667 L133.701414,10.6764 L139.928191,10.6764 L139.928191,15.0552 Z" id="Shape"></path>
                    <path d="M168.022879,23.5804667 C168.022879,27.6121333 166.904709,30.9222 164.673668,33.5106667 C162.333989,36.1756667 159.22855,37.5040667 155.35735,37.5040667 C151.626583,37.5040667 148.656278,36.2276 146.441135,33.6746667 C144.225992,31.1217333 143.118421,27.8991333 143.118421,24.0150667 C143.118421,19.9506 144.257788,16.6214 146.544473,14.0329333 C148.825858,11.4417333 151.9048,10.1461333 155.776001,10.1461333 C159.506768,10.1461333 162.508869,11.4226 164.774356,13.9782667 C166.941804,16.4574 168.022879,19.6581333 168.022879,23.5804667 Z M162.161759,23.7690667 C162.161759,21.3500667 161.660968,19.2754667 160.646135,17.5452667 C159.461723,15.4515333 157.76857,14.4074 155.574624,14.4074 C153.303838,14.4074 151.578888,15.4542667 150.394476,17.5452667 C149.379644,19.2782 148.878852,21.3856 148.878852,23.8784 C148.878852,26.2974 149.379644,28.372 150.394476,30.0994667 C151.615984,32.1932 153.322386,33.2373333 155.52428,33.2373333 C157.68113,33.2373333 159.374283,32.1713333 160.595791,30.0448 C161.63712,28.2818 162.161759,26.1853333 162.161759,23.7690667 Z" id="Shape"></path>
                    <path d="M186.385247,15.8068667 C185.826162,15.7002667 185.229981,15.6456 184.604654,15.6456 C182.617384,15.6456 181.080563,16.4191333 179.999488,17.9689333 C179.058848,19.3356 178.587202,21.0630667 178.587202,23.1486 L178.587202,36.9109333 L172.940708,36.9109333 L172.993702,18.942 C172.993702,15.9189333 172.92216,13.1664667 172.781726,10.6846 L177.702205,10.6846 L177.908881,15.703 L178.065213,15.703 C178.661394,13.9782667 179.602034,12.5897333 180.889785,11.5483333 C182.148389,10.6108 183.507681,10.1434 184.972961,10.1434 C185.49495,10.1434 185.966595,10.1816667 186.385247,10.25 L186.385247,15.8068667 Z" id="Shape"></path>
                    <path d="M211.650063,22.5554667 C211.650063,23.5996 211.583821,24.4797333 211.443387,25.1986 L194.495955,25.1986 C194.562197,27.7898 195.380952,29.7714667 196.95487,31.1381333 C198.383054,32.3599333 200.229889,32.9722 202.498026,32.9722 C205.007285,32.9722 207.296619,32.5594667 209.35543,31.7312667 L210.240427,35.7766 C207.834506,36.859 204.994036,37.3974667 201.716367,37.3974667 C197.773625,37.3974667 194.678784,36.2002667 192.426545,33.8086 C190.179606,31.4169333 189.053487,28.2052667 189.053487,24.1763333 C189.053487,20.2212 190.100116,16.9275333 192.196022,14.3008 C194.389967,11.4964 197.354973,10.0942 201.08574,10.0942 C204.750264,10.0942 207.524492,11.4964 209.408424,14.3008 C210.9002,16.5284667 211.650063,19.2836667 211.650063,22.5554667 Z M206.263239,21.0439333 C206.300334,19.3164667 205.932027,17.8240667 205.166266,16.564 C204.18853,14.9431333 202.686154,14.1340667 200.664439,14.1340667 C198.817603,14.1340667 197.315228,14.924 196.167911,16.5093333 C195.22727,17.7694 194.668185,19.2809333 194.495955,21.0412 L206.263239,21.0412 L206.263239,21.0439333 Z" id="Shape"></path>
                </g>
                <g id="Group-Copy-3" transform="translate(115.000000, 18.000000)" fill="#FFFFFF">
                    <path d="M14.261483,9.74263876 C14.261483,12.9596137 13.3263265,15.3812278 11.4586627,17.007481 C9.72875563,18.5080071 7.27032723,19.2596368 4.08602666,19.2596368 C2.50712221,19.2596368 1.15604626,19.1885736 0.0248513004,19.0464473 L0.0248513004,1.46924617 C1.50043817,1.22325828 3.08993929,1.09753114 4.8066005,1.09753114 C7.83989846,1.09753114 10.1261309,1.77809763 11.667947,3.1392306 C13.3952049,4.67802149 14.261483,6.87824648 14.261483,9.74263876 Z M11.3341518,9.82190152 C11.3341518,7.73647088 10.7990197,6.13754962 9.72875563,5.02240453 C8.65849154,3.90999264 7.09548211,3.3524201 5.03707816,3.3524201 C4.16285254,3.3524201 3.41843619,3.41255047 2.80117992,3.53827761 L2.80117992,16.9008863 C3.14292266,16.9555502 3.76812643,16.980149 4.67679124,16.980149 C6.8014244,16.980149 8.44125972,16.3706457 9.5962972,15.1516391 C10.7513347,13.9326324 11.3341518,12.1560532 11.3341518,9.82190152 Z" id="Shape"></path>
                    <path d="M29.7829614,12.5523671 C29.7829614,14.5339361 29.2345835,16.1574562 28.1378277,17.4311268 C26.9880886,18.740329 25.4648167,19.3935635 23.5627137,19.3935635 C21.7294891,19.3935635 20.2697972,18.767661 19.1809889,17.5103896 C18.0948298,16.2558514 17.5517503,14.6733293 17.5517503,12.7655566 C17.5517503,10.7703215 18.1107249,9.13313544 19.2339723,7.86219802 C20.3572198,6.59126061 21.8672458,5.9544253 23.7693488,5.9544253 C25.6025735,5.9544253 27.0755112,6.58032781 28.1908111,7.83486603 C29.2504785,9.05387267 29.7829614,10.6281951 29.7829614,12.5523671 Z M26.9033152,12.6452958 C26.9033152,11.4563544 26.6542934,10.4368712 26.1588988,9.58684643 C25.5760818,8.5591637 24.746892,8.04532234 23.6686804,8.04532234 C22.5533805,8.04532234 21.7056465,8.5591637 21.1228295,9.58684643 C20.6247858,10.4368712 20.3784131,11.4727536 20.3784131,12.6972266 C20.3784131,13.886168 20.627435,14.9056512 21.1228295,15.755676 C21.7241907,16.7833587 22.561328,17.2972001 23.6421887,17.2972001 C24.7018562,17.2972001 25.5336951,16.7751591 26.1324072,15.728344 C26.6463459,14.86192 26.9033152,13.8342373 26.9033152,12.6452958 Z" id="Shape"></path>
                    <path d="M50.5948294,6.21681238 L46.6873058,19.1011112 L44.144104,19.1011112 L42.525462,13.5062534 C42.1148409,12.1095889 41.7810457,10.7211239 41.5214272,9.34359174 L41.471093,9.34359174 C41.2300186,10.7593887 40.8962234,12.1451204 40.4670581,13.5062534 L38.7477477,19.1011112 L36.1754051,19.1011112 L32.5010083,6.21681238 L35.3541628,6.21681238 L36.7661696,12.3419108 C37.1079124,13.7905061 37.3887242,15.1707715 37.6139036,16.4772405 L37.6642378,16.4772405 C37.8708729,15.4003601 38.2126157,14.0282944 38.6947643,12.3692427 L40.4670581,6.21954558 L42.729448,6.21954558 L44.427565,12.2380492 C44.8381862,13.7057769 45.1719814,15.1188407 45.4289507,16.4799737 L45.5057766,16.4799737 C45.6938676,15.1543723 45.9773286,13.7413085 46.3535106,12.2380492 L47.868835,6.21954558 L50.5948294,6.21954558 L50.5948294,6.21681238 Z" id="Shape"></path>
                    <path d="M64.987762,19.1011112 L62.2114334,19.1011112 L62.2114334,11.7214746 C62.2114334,9.44745329 61.3742961,8.31044262 59.6947233,8.31044262 C58.8708319,8.31044262 58.2058906,8.62202727 57.6893027,9.24792978 C57.1780132,9.8738323 56.9183946,10.611796 56.9183946,11.4563544 L56.9183946,19.098378 L54.142066,19.098378 L54.142066,9.89843108 C54.142066,8.76688681 54.1076268,7.53968057 54.0413976,6.21134598 L56.4812818,6.21134598 L56.6110911,8.22571345 L56.687917,8.22571345 C57.0111155,7.59981094 57.4932642,7.08323638 58.1264155,6.67052337 C58.8787794,6.18948039 59.721215,5.9462257 60.6431256,5.9462257 C61.8087598,5.9462257 62.7783554,6.33433993 63.5492635,7.11330157 C64.5082625,8.06718793 64.987762,9.49118447 64.987762,11.382558 L64.987762,19.1011112 L64.987762,19.1011112 Z" id="Shape"></path>
                    <polygon id="Shape" points="72.643859 19.1011112 69.8701796 19.1011112 69.8701796 0.304903504 72.643859 0.304903504"></polygon>
                    <path d="M88.9892289,12.5523671 C88.9892289,14.5339361 88.440851,16.1574562 87.3440952,17.4311268 C86.1943561,18.740329 84.668435,19.3935635 82.7689812,19.3935635 C80.9331074,19.3935635 79.4734155,18.767661 78.3872564,17.5103896 C77.3010973,16.2558514 76.7580178,14.6733293 76.7580178,12.7655566 C76.7580178,10.7703215 77.3169923,9.13313544 78.4402398,7.86219802 C79.5634872,6.59126061 81.0735133,5.9544253 82.9729671,5.9544253 C84.8088409,5.9544253 86.2791295,6.58032781 87.3970786,7.83486603 C88.456746,9.05387267 88.9892289,10.6281951 88.9892289,12.5523671 Z M86.1069335,12.6452958 C86.1069335,11.4563544 85.8579117,10.4368712 85.3625172,9.58684643 C84.7823492,8.5591637 83.9505103,8.04532234 82.8749479,8.04532234 C81.7569988,8.04532234 80.9092649,8.5591637 80.3290969,9.58684643 C79.8310533,10.4368712 79.5846806,11.4727536 79.5846806,12.6972266 C79.5846806,13.886168 79.8337024,14.9056512 80.3290969,15.755676 C80.9304582,16.7833587 81.7675955,17.2972001 82.8484562,17.2972001 C83.9081236,17.2972001 84.7373134,16.7751591 85.3360255,15.728344 C85.8526133,14.86192 86.1069335,13.8342373 86.1069335,12.6452958 Z" id="Shape"></path>
                    <path d="M102.425812,19.1011112 L99.9329441,19.1011112 L99.7263089,17.6169843 L99.649483,17.6169843 C98.7964508,18.8004594 97.5804824,19.3935635 96.001578,19.3935635 C94.822698,19.3935635 93.8689973,19.0027161 93.1510726,18.2264876 C92.4993772,17.5213224 92.1735294,16.6439656 92.1735294,15.6026169 C92.1735294,14.0282944 92.8093299,12.8284201 94.0888783,11.9975277 C95.3657775,11.1666353 97.1619138,10.7593887 99.4746379,10.7785211 L99.4746379,10.5379996 C99.4746379,8.84068317 98.611009,7.99339156 96.8811019,7.99339156 C95.6492386,7.99339156 94.5630795,8.31317581 93.6252738,8.94727792 L93.0610009,7.06683719 C94.2213367,6.32614033 95.6545369,5.9544253 97.3447064,5.9544253 C100.608482,5.9544253 102.245668,7.73100448 102.245668,11.2841628 L102.245668,16.0289959 C102.245668,17.3163325 102.306599,18.341282 102.425812,19.1011112 Z M99.5435163,14.6733293 L99.5435163,12.6862938 C96.4810775,12.6316298 94.9498581,13.4980538 94.9498581,15.2828326 C94.9498581,15.9551995 95.1247032,16.4581081 95.4823409,16.7942915 C95.8399787,17.130475 96.2956357,17.2972001 96.8387152,17.2972001 C97.448024,17.2972001 98.0175952,17.0976766 98.5368323,16.7013627 C99.0587185,16.3023157 99.3792678,15.796674 99.4984804,15.1762379 C99.5276213,15.0368447 99.5435163,14.8673864 99.5435163,14.6733293 Z" id="Shape"></path>
                    <path d="M118.20161,19.1011112 L115.737884,19.1011112 L115.608074,17.0320798 L115.531248,17.0320798 C114.744445,18.6064023 113.403966,19.3935635 111.520407,19.3935635 C110.015679,19.3935635 108.762623,18.7840602 107.769185,17.5650536 C106.775746,16.3460469 106.280352,14.7635248 106.280352,12.8202205 C106.280352,10.7347899 106.818133,9.04567308 107.898994,7.75560327 C108.945415,6.55299583 110.227613,5.9516921 111.753534,5.9516921 C113.430458,5.9516921 114.604039,6.53386343 115.27163,7.7009393 L115.324613,7.7009393 L115.324613,0.304903504 L118.103591,0.304903504 L118.103591,15.6299488 C118.103591,16.8844871 118.135381,18.0406301 118.20161,19.1011112 Z M115.324613,13.6675121 L115.324613,11.5192179 C115.324613,11.1475029 115.298122,10.846851 115.247787,10.6172624 C115.091486,9.92849627 114.755042,9.34905814 114.243752,8.88168115 C113.727165,8.41430417 113.10461,8.17924908 112.386685,8.17924908 C111.35086,8.17924908 110.540215,8.60289488 109.944152,9.45291969 C109.353387,10.3029445 109.054031,11.3880244 109.054031,12.7136258 C109.054031,13.9872964 109.337492,15.0204455 109.907064,15.8158064 C110.508425,16.663098 111.31907,17.0867438 112.333702,17.0867438 C113.245016,17.0867438 113.973537,16.7341611 114.527214,16.0262627 C115.062346,15.3730282 115.324613,14.5858669 115.324613,13.6675121 Z" id="Shape"></path>
                    <path d="M141.946108,12.5523671 C141.946108,14.5339361 141.39773,16.1574562 140.300974,17.4311268 C139.151235,18.740329 137.630612,19.3935635 135.72586,19.3935635 C133.895285,19.3935635 132.435593,18.767661 131.344135,17.5103896 C130.257976,16.2558514 129.714897,14.6733293 129.714897,12.7655566 C129.714897,10.7703215 130.273871,9.13313544 131.397119,7.86219802 C132.520366,6.59126061 134.030392,5.9544253 135.935144,5.9544253 C137.76572,5.9544253 139.241307,6.58032781 140.353957,7.83486603 C141.413625,9.05387267 141.946108,10.6281951 141.946108,12.5523671 Z M139.069111,12.6452958 C139.069111,11.4563544 138.820089,10.4368712 138.324694,9.58684643 C137.739228,8.5591637 136.912688,8.04532234 135.831827,8.04532234 C134.719176,8.04532234 133.871442,8.5591637 133.285976,9.58684643 C132.787932,10.4368712 132.54156,11.4727536 132.54156,12.6972266 C132.54156,13.886168 132.790581,14.9056512 133.285976,15.755676 C133.887337,16.7833587 134.724474,17.2972001 135.805335,17.2972001 C136.865003,17.2972001 137.699491,16.7751591 138.298203,15.728344 C138.809492,14.86192 139.069111,13.8342373 139.069111,12.6452958 Z" id="Shape"></path>
                    <path d="M156.874172,19.1011112 L154.100493,19.1011112 L154.100493,11.7214746 C154.100493,9.44745329 153.263356,8.31044262 151.581134,8.31044262 C150.757242,8.31044262 150.092301,8.62202727 149.578362,9.24792978 C149.064424,9.8738323 148.807454,10.611796 148.807454,11.4563544 L148.807454,19.098378 L146.028476,19.098378 L146.028476,9.89843108 C146.028476,8.76688681 145.996686,7.53968057 145.930457,6.21134598 L148.367692,6.21134598 L148.497502,8.22571345 L148.574327,8.22571345 C148.900175,7.59981094 149.382324,7.08323638 150.012826,6.67052337 C150.767839,6.18948039 151.607625,5.9462257 152.532185,5.9462257 C153.69517,5.9462257 154.664766,6.33433993 155.435674,7.11330157 C156.397322,8.06718793 156.874172,9.49118447 156.874172,11.382558 L156.874172,19.1011112 L156.874172,19.1011112 Z" id="Shape"></path>
                    <path d="M175.558758,8.36237339 L172.501618,8.36237339 L172.501618,14.6213985 C172.501618,16.2121202 173.044697,17.007481 174.12026,17.007481 C174.618303,17.007481 175.031574,16.9637498 175.357421,16.8735543 L175.428949,19.0464473 C174.880571,19.2596368 174.159997,19.3662315 173.272526,19.3662315 C172.17577,19.3662315 171.322738,19.0218485 170.705481,18.3330824 C170.085576,17.6443163 169.778272,16.48544 169.778272,14.8591868 L169.778272,8.36237339 L167.952995,8.36237339 L167.952995,6.21681238 L169.778272,6.21681238 L169.778272,3.85532867 L172.498968,3.00803706 L172.498968,6.21407918 L175.556109,6.21407918 L175.556109,8.36237339 L175.558758,8.36237339 Z" id="Shape"></path>
                    <path d="M190.256345,19.1011112 L187.477367,19.1011112 L187.477367,11.7761386 C187.477367,9.46658568 186.64023,8.31044262 184.963306,8.31044262 C183.67581,8.31044262 182.796287,8.98007631 182.314138,10.3193437 C182.232014,10.6008632 182.184329,10.9452462 182.184329,11.3497596 L182.184329,19.098378 L179.410649,19.098378 L179.410649,0.304903504 L182.184329,0.304903504 L182.184329,8.06992113 L182.237312,8.06992113 C183.111538,6.65685738 184.364594,5.9516921 185.988535,5.9516921 C187.138274,5.9516921 188.089325,6.33980632 188.844338,7.11876796 C189.784793,8.08905352 190.256345,9.53218245 190.256345,11.4399552 L190.256345,19.1011112 L190.256345,19.1011112 Z" id="Shape"></path>
                    <path d="M205.417537,12.0494585 C205.417537,12.5632999 205.380448,12.9951453 205.314219,13.3477279 L196.987882,13.3477279 C197.024971,14.6213985 197.422346,15.5916841 198.193254,16.264051 C198.897933,16.8653547 199.806598,17.1660065 200.919248,17.1660065 C202.151112,17.1660065 203.274359,16.9637498 204.286342,16.5565032 L204.720805,18.5462719 C203.536627,19.0765125 202.143164,19.3416327 200.529821,19.3416327 C198.595928,19.3416327 197.072656,18.753995 195.970602,17.5787195 C194.863249,16.4034441 194.314871,14.8263884 194.314871,12.8475525 C194.314871,10.9042482 194.826161,9.28619457 195.856687,7.99612476 C196.93225,6.6185926 198.386643,5.92982651 200.222517,5.92982651 C202.018653,5.92982651 203.382975,6.6185926 204.304886,7.99612476 C205.049302,9.08940426 205.417537,10.4423376 205.417537,12.0494585 Z M202.768368,11.3087616 C202.789561,10.4587368 202.606769,9.72623956 202.230587,9.10853665 C201.748438,8.31317581 201.014618,7.9141288 200.02118,7.9141288 C199.115165,7.9141288 198.376047,8.30224302 197.811774,9.08120466 C197.350818,9.70164077 197.077954,10.4423376 196.987882,11.3087616 L202.768368,11.3087616 Z" id="Shape"></path>
                </g>
                <g id="Group-Copy" transform="translate(23.000000, 15.000000)" fill="#FFFFFF">
                    <path d="M45.6250041,37.4699051 C45.5486821,28.5548005 52.5703041,24.2175731 52.8913828,24.0156486 C48.9147445,17.9219547 42.7510868,17.0893619 40.5851217,17.0229758 C35.4083861,16.4503954 30.3869263,20.2786625 27.7498704,20.2786625 C25.0601786,20.2786625 20.999323,17.0782976 16.6226523,17.1723446 C10.9906166,17.2636255 5.72176831,20.6908097 2.8320603,26.0127648 C-3.13158119,36.8641316 1.3161479,52.8106342 7.02976911,61.5819021 C9.88789562,65.8776382 13.2276401,70.6740364 17.5990472,70.505305 C21.8757098,70.319977 23.4732078,67.6396369 28.6341526,67.6396369 C33.7477252,67.6396369 35.2478468,70.505305 39.7061031,70.3974275 C44.2959489,70.319977 47.185657,66.0823288 49.9437753,61.7478675 C53.2466748,56.8242292 54.5730981,51.9752753 54.625734,51.7263273 C54.5178305,51.6876021 45.7118532,48.1553065 45.6250041,37.4699051 Z" id="Shape"></path>
                    <path d="M37.5576425,11.3105376 C39.857829,8.28720239 41.4316408,4.17402817 40.9947633,0 C37.665546,0.154900979 33.5020505,2.4203278 31.1044876,5.37727685 C28.983263,7.98293261 27.0883725,12.2537739 27.5778859,16.270135 C31.3176628,16.5633404 35.1574479,14.2868492 37.5576425,11.3105376 Z" id="Shape"></path>
                </g>
            </g>
        </g>
    </g>
</svg>