<svg height="159" viewBox="0 0 1077 159" width="1077" xmlns="http://www.w3.org/2000/svg"><path d="m34.3704925 259.206327h34.8083333c6.1298 0 11.1649173-1.458032 15.1055031-4.37414 3.9405857-2.916108 5.910849-7.654713 5.910849-14.215956 0-3.645135-.6567544-6.634101-1.970283-8.966988-1.3135286-2.332886-3.0648738-4.155426-5.2540881-5.467675-2.1892142-1.312249-4.7067729-2.223519-7.5527515-2.733838s-5.8013735-.765474-8.8662736-.765474h-32.1812892zm-34.3704925-63.206327h73.5572325c7.4433286 0 14.2297911.656114 20.3595911 1.968363 6.1298004 1.312249 11.3838354 3.462846 15.7622644 6.451857 4.378428 2.989011 7.77166 6.962149 10.179795 11.919532 2.408136 4.957384 3.612186 11.081119 3.612186 18.37139 0 7.873492-1.787832 14.434636-5.363548 19.683631-3.575717 5.248995-8.866239 9.55019-15.871725 12.903714 9.632543 2.770303 16.820356 7.61826 21.563653 14.544016 4.743298 6.925757 7.114911 15.272991 7.114911 25.041954 0 7.873492-1.532427 14.689792-4.597327 20.449106-3.0649 5.759313-7.187858 10.461467-12.368999 14.106602-5.18114 3.645135-11.09193 6.342495-17.7325469 8.09216-6.6406167 1.749664-13.4635656 2.624484-20.4690513 2.624484h-75.7464358zm34.3704925 129.474553h36.7786163c3.3567952 0 6.5675947-.328057 9.6324947-.984182 3.0649-.656124 5.7648905-1.749648 8.1000524-3.280605s4.1959661-3.608652 5.5824685-6.23315c1.3865024-2.624497 2.0797432-5.977971 2.0797432-10.060522 0-8.019298-2.2621542-13.742074-6.7865304-17.168501s-10.5081388-5.139615-17.9514674-5.139615h-37.4353773zm116.5044845-51.614856c.437842-7.29027 2.26216-13.341103 5.473008-18.152682 3.210848-4.811578 7.29732-8.675364 12.259539-11.591472s10.544631-4.993804 16.747405-6.23315 12.441941-1.859009 18.717689-1.859009c5.691957 0 11.456802.400959 17.294706 1.202888 5.837905.80193 11.164913 2.369315 15.981185 4.702201 4.816271 2.332887 8.756798 5.577008 11.821698 9.732462s4.597327 9.659526 4.597327 16.51238v58.832187c0 5.103189.291891 9.987597.875681 14.65337.583791 4.665773 1.605409 8.16505 3.064885 10.497937h-31.524528c-.583791-1.749665-1.058113-3.535754-1.422982-5.358322s-.620274-3.681559-.766222-5.577029c-4.962219 5.103189-10.800036 8.675368-17.513626 10.716644-6.713591 2.041275-13.573026 3.061898-20.578512 3.061898-5.400062 0-10.435179-.656114-15.105503-1.968363s-8.756796-3.353494-12.259539-6.123797c-3.502743-2.770302-6.239219-6.26958-8.209512-10.497936-1.970293-4.228357-2.955425-9.258568-2.955425-15.090784 0-6.415438 1.131077-11.700805 3.393265-15.856259 2.262189-4.155454 5.181097-7.472477 8.756814-9.951169 3.575716-2.478692 7.662189-4.337683 12.259539-5.577029s9.231117-2.223518 13.901441-2.952545 9.267605-1.31224 13.791981-1.749656 8.537875-1.093531 12.040618-1.968363 6.275706-2.150611 8.318973-3.827373 2.991912-4.118966 2.845964-7.326685c0-3.353524-.547295-6.014433-1.641902-7.982806s-2.554062-3.499307-4.378407-4.592847c-1.824345-1.093541-3.940554-1.822557-6.34869-2.18707-2.408135-.364514-4.998667-.546768-7.771671-.546768-6.1298 0-10.946 1.312229-14.448743 3.936726-3.502742 2.624498-5.545978 6.998594-6.129769 13.122421zm71.805869 22.964237c-1.313528 1.166443-2.955414 2.077713-4.925707 2.733838-1.970293.656124-4.086502 1.202886-6.34869 1.640302s-4.633801.801925-7.114911 1.093535c-2.481109.291611-4.962182.656119-7.443291 1.093535-2.335162.437417-4.633803 1.02063-6.895991 1.749657s-4.232451 1.713198-5.910849 2.952544c-1.678397 1.239346-3.028393 2.806731-4.050026 4.702201s-1.532442 4.301223-1.532442 7.217332c0 2.770302.510809 5.103154 1.532442 6.998624s2.408115 3.389953 4.159486 4.483494c1.751372 1.09354 3.794608 1.859007 6.12977 2.296424 2.335162.437416 4.743261.656121 7.224371.656121 6.1298 0 10.873026-1.020623 14.229822-3.061899 3.356795-2.041275 5.837867-4.483479 7.443291-7.326685 1.605424-2.843205 2.590555-5.722819 2.955425-8.638927.364869-2.916108.5473-5.248959.5473-6.998624zm56.520313-57.738652h29.554245v20.995873h.437841c1.459476-3.499329 3.429739-6.743451 5.910849-9.732462 2.481109-2.989011 5.327045-5.540567 8.537893-7.654745 3.210847-2.114179 6.640565-3.754465 10.289255-4.920908 3.648691-1.166443 7.443272-1.749656 11.383858-1.749656 2.043266 0 4.305421.364508 6.78653 1.093535v28.869326c-1.459476-.291611-3.210821-.546767-5.254088-.765475s-4.01353-.32806-5.910849-.32806c-5.691957 0-10.508156.947721-14.448742 2.843191s-7.114899 4.483477-9.523035 7.764099c-2.408135 3.280622-4.122994 7.107956-5.144627 11.482118-1.021634 4.374162-1.532443 9.112767-1.532443 14.215956v50.958735h-31.086687zm93.298928 20.777166v-20.777166-8.748281c0-10.060573 3.137827-18.298454 9.413575-24.713892 6.275747-6.415438 15.7622-9.623109 28.459643-9.623109 2.773005 0 5.545968.109352 8.318973.328061 2.773005.218708 5.472995.400962 8.100052.546767v23.182944c-3.64869-.437417-7.443271-.656121-11.383857-.656121-4.232481 0-7.260849.984171-9.085194 2.952544s-2.736504 5.285397-2.736504 9.95117v6.779917h21.454193v20.777166h-21.454193v92.294361h-31.086688zm67.466329-20.777166h29.554246v20.995873h.43784c1.459476-3.499329 3.42974-6.743451 5.910849-9.732462 2.48111-2.989011 5.327046-5.540567 8.537893-7.654745 3.210848-2.114179 6.640566-3.754465 10.289256-4.920908 3.648691-1.166443 7.443272-1.749656 11.383857-1.749656 2.043267 0 4.305421.364508 6.786531 1.093535v28.869326c-1.459476-.291611-3.210822-.546767-5.254088-.765475-2.043267-.218708-4.01353-.32806-5.910849-.32806-5.691957 0-10.508157.947721-14.448742 2.843191-3.940586 1.89547-7.114899 4.483477-9.523035 7.764099s-4.122994 7.107956-5.144628 11.482118c-1.021633 4.374162-1.532442 9.112767-1.532442 14.215956v50.958735h-31.086688zm118.474767-17.496561h-31.086687v-25.588721h31.086687zm-31.086687 17.496561h31.086687v113.071527h-31.086687zm133.142429 44.397524c-1.459476-7.873492-4.050007-13.851424-7.771671-17.933975-3.721665-4.082552-9.37705-6.123797-16.966326-6.123797-4.962219 0-9.085178.838369-12.368999 2.515131-3.283822 1.676762-5.910839 3.754458-7.881132 6.23315s-3.356775 5.10315-4.159487 7.873453c-.802712 2.770302-1.277034 5.248957-1.422982 7.436038zm-50.570597 19.683631c.437843 10.060573 2.991888 17.350734 7.662212 21.870702s11.383813 6.779917 20.140671 6.779917c6.275747 0 11.675728-1.567384 16.200104-4.7022 4.524377-3.134817 7.29734-6.45184 8.318973-9.95117h27.365042c-4.378429 13.559903-11.091918 23.255817-20.140671 29.088033-9.048752 5.832217-19.99466 8.748281-32.83805 8.748281-8.902805 0-16.929804-1.421581-24.081237-4.264787-7.151433-2.843205-13.208169-6.889245-18.170388-12.138239-4.962219-5.248995-8.793286-11.518533-11.493317-18.808803-2.700031-7.290271-4.050026-15.309448-4.050026-24.057772 0-8.456714 1.386481-16.330087 4.159486-23.620358 2.773005-7.29027 6.713531-13.596259 11.821698-18.918157 5.108167-5.321897 11.201388-9.513739 18.279848-12.575653 7.07846-3.061913 14.923026-4.592847 23.533936-4.592847 9.632543 0 18.024405 1.858991 25.175838 5.577029 7.151434 3.718038 13.025737 8.711798 17.623087 14.98143 4.59735 6.269633 7.917609 13.41399 9.960876 21.433288 2.043266 8.019297 2.772993 16.402982 2.189203 25.151306zm101.398981-64.081155h29.554245v15.746905h.656761c3.940586-6.561243 9.048676-11.336299 15.324424-14.325309 6.275747-2.989011 12.697346-4.483494 19.264989-4.483494 8.319014 0 15.141963 1.129975 20.469051 3.389959 5.327089 2.259983 9.52302 5.394752 12.58792 9.404401s5.217595 8.894057 6.45815 14.65337c1.240554 5.759314 1.860822 12.138205 1.860822 19.136864v69.548831h-31.086687v-63.862449c0-9.331546-1.459454-16.293649-4.378407-20.88652-2.918952-4.59287-8.100015-6.889271-15.543344-6.889271-8.464962 0-14.59467 2.515106-18.389308 7.545392-3.794638 5.030287-5.691928 13.30462-5.691928 24.823247v59.269601h-31.086688zm211.515909 56.207703c0-4.665773-.437836-9.149222-1.313522-13.450482-.875685-4.301259-2.371626-8.092143-4.487866-11.372764-2.116241-3.280622-4.852718-5.941531-8.209513-7.982806-3.356795-2.041276-7.589213-3.061899-12.697379-3.061899-5.108167 0-9.413557 1.020623-12.9163 3.061899-3.502743 2.041275-6.312193 4.738635-8.428433 8.092159-2.116241 3.353524-3.648668 7.180859-4.597327 11.482118-.94866 4.30126-1.422982 8.784709-1.422982 13.450482 0 4.374162.510809 8.748259 1.532442 13.122421s2.663519 8.274398 4.925708 11.700825c2.262188 3.426427 5.108124 6.196688 8.537893 8.310867 3.429769 2.114178 7.552727 3.171251 12.368999 3.171251 5.108166 0 9.37707-1.020622 12.806839-3.061898 3.429769-2.041275 6.166246-4.775086 8.209513-8.201513 2.043266-3.426427 3.502721-7.326663 4.378406-11.700825.875686-4.374162 1.313522-8.894062 1.313522-13.559835zm.437841 42.429161h-.437841c-3.64869 6.123827-8.428403 10.534374-14.339282 13.231774-5.910878 2.6974-12.587882 4.04608-20.03121 4.04608-8.464962 0-15.908179-1.640286-22.329874-4.920908-6.421696-3.280621-11.712217-7.72762-15.871725-13.341128-4.159507-5.613508-7.297333-12.0653-9.413574-19.355571-2.11624-7.29027-3.174345-14.872037-3.174345-22.745529 0-7.581881 1.058105-14.908493 3.174345-21.980055 2.116241-7.071562 5.254067-13.30465 9.413574-18.69945 4.159508-5.3948 9.377057-9.732446 15.652804-13.013067 6.275748-3.280622 13.57302-4.920908 21.892034-4.920908 6.71359 0 13.098703 1.421581 19.155529 4.264787 6.056826 2.843205 10.836539 7.035048 14.339282 12.575653h.437841v-56.863824h31.086687v156.156809h-29.554245zm78.412341-22.308116c0 3.353525.69325 6.233138 2.07975 8.638927 1.3865 2.40579 3.17433 4.374133 5.36355 5.90509 2.18921 1.530957 4.70677 2.660931 7.55275 3.389959 2.84598.729027 5.80137 1.093535 8.86627 1.093535 2.18922 0 4.48786-.255156 6.89599-.765475 2.40814-.510319 4.59732-1.312237 6.56761-2.405777 1.97029-1.093541 3.61218-2.551573 4.92571-4.37414 1.31353-1.822568 1.97028-4.118969 1.97028-6.889271 0-4.665773-3.10134-8.165051-9.30411-10.497937-6.20278-2.332887-14.85004-4.665738-25.94206-6.998625-4.52438-1.020637-8.93923-2.223514-13.244682-3.608665-4.305454-1.385152-8.136522-3.207692-11.493317-5.467676s-6.056786-5.103146-8.100053-8.529573c-2.043266-3.426427-3.064884-7.61827-3.064884-12.575654 0-7.29027 1.422968-13.268202 4.268946-17.933975 2.845979-4.665773 6.604074-8.347304 11.274397-11.044704 4.670324-2.6974 9.924363-4.592842 15.762263-5.686383 5.83791-1.09354 11.82167-1.640302 17.95147-1.640302s12.07708.583213 17.84201 1.749656 10.9095 3.134787 15.43388 5.905089c4.52438 2.770303 8.28247 6.451834 11.2744 11.044705 2.99192 4.59287 4.77975 10.388548 5.36355 17.387207h-29.55425c-.43784-5.978021-2.7-10.024061-6.78653-12.138239s-8.90273-3.171252-14.44874-3.171252c-1.75137 0-3.64866.109353-5.69193.328061s-3.90407.692568-5.58247 1.421595-3.10137 1.786101-4.26895 3.171252-1.75136 3.244142-1.75136 5.577029c0 2.770303 1.02162 5.030253 3.06489 6.779917 2.04326 1.749665 4.70677 3.171247 7.99059 4.264787 3.28382 1.093541 7.04191 2.077712 11.2744 2.952545 4.23248.874832 8.53787 1.822553 12.9163 2.843191 4.52437 1.020638 8.93922 2.259965 13.24468 3.718019 4.30545 1.458054 8.13652 3.389947 11.49331 5.795736 3.3568 2.405789 6.05679 5.394755 8.10006 8.966988 2.04326 3.572232 3.06488 7.98278 3.06488 13.231774 0 7.436076-1.49594 13.669164-4.48787 18.69945-2.99192 5.030287-6.89596 9.076326-11.71223 12.138239-4.81628 3.061914-10.32572 5.212511-16.52849 6.451857s-12.51491 1.85901-18.93661 1.85901c-6.56764 0-12.98924-.656114-19.26499-1.968363-6.275746-1.312249-11.858159-3.499297-16.747404-6.561211-4.889245-3.061913-8.902745-7.107952-12.040618-12.138239-3.137874-5.030286-4.852733-11.336276-5.144628-18.918157z" fill="#ff7000" transform="translate(0 -196)"/></svg>