<?xml version="1.0" encoding="UTF-8"?>
<svg width="1077px" height="159px" viewBox="0 0 1077 159" version="1.1" xmlns="http://www.w3.org/2000/svg" xmlns:xlink="http://www.w3.org/1999/xlink">
    <!-- Generator: Sketch 53.2 (72643) - https://sketchapp.com -->
    <title>label</title>
    <desc>Created with Sketch.</desc>
    <g id="personalwebsite" stroke="none" stroke-width="1" fill="none" fill-rule="evenodd">
        <g id="t" transform="translate(-362.000000, -324.000000)" fill="#FF7000" fill-rule="nonzero">
            <g id="Label-and-Logo" transform="translate(362.000000, 128.000000)">
                <path d="M34.3704925,259.206327 L69.1788258,259.206327 C75.3086258,259.206327 80.3437431,257.748295 84.2843289,254.832187 C88.2249146,251.916079 90.1951779,247.177474 90.1951779,240.616231 C90.1951779,236.971096 89.5384235,233.98213 88.2248949,231.649243 C86.9113663,229.316357 85.1600211,227.493817 82.9708068,226.181568 C80.7815926,224.869319 78.2640339,223.958049 75.4180553,223.44773 C72.5720767,222.937411 69.6166818,222.682256 66.5517817,222.682256 L34.3704925,222.682256 L34.3704925,259.206327 Z M0,196 L73.5572325,196 C81.0005611,196 87.7870236,196.656114 93.9168236,197.968363 C100.046624,199.280612 105.300659,201.431209 109.679088,204.42022 C114.057516,207.409231 117.450748,211.382369 119.858883,216.339752 C122.267019,221.297136 123.471069,227.420871 123.471069,234.711142 C123.471069,242.584634 121.683237,249.145778 118.107521,254.394773 C114.531804,259.643768 109.241282,263.944963 102.235796,267.298487 C111.868339,270.06879 119.056152,274.916747 123.799449,281.842503 C128.542747,288.76826 130.91436,297.115494 130.91436,306.884457 C130.91436,314.757949 129.381933,321.574249 126.317033,327.333563 C123.252133,333.092876 119.129175,337.79503 113.948034,341.440165 C108.766894,345.0853 102.856104,347.78266 96.2154871,349.532325 C89.5748704,351.281989 82.7519215,352.156809 75.7464358,352.156809 L0,352.156809 L0,196 Z M34.3704925,325.474553 L71.1491088,325.474553 C74.505904,325.474553 77.7167035,325.146496 80.7816035,324.490371 C83.8465035,323.834247 86.546494,322.740723 88.8816559,321.209766 C91.2168178,319.678809 93.077622,317.601114 94.4641244,314.976616 C95.8506268,312.352119 96.5438676,308.998645 96.5438676,304.916094 C96.5438676,296.896796 94.2817134,291.17402 89.7573372,287.747593 C85.232961,284.321166 79.2491984,282.607978 71.8058698,282.607978 L34.3704925,282.607978 L34.3704925,325.474553 Z M150.874977,273.859697 C151.312819,266.569427 153.137137,260.518594 156.347985,255.707015 C159.558833,250.895437 163.645305,247.031651 168.607524,244.115543 C173.569743,241.199435 179.152155,239.121739 185.354929,237.882393 C191.557703,236.643047 197.79687,236.023384 204.072618,236.023384 C209.764575,236.023384 215.52942,236.424343 221.367324,237.226272 C227.205229,238.028202 232.532237,239.595587 237.348509,241.928473 C242.16478,244.26136 246.105307,247.505481 249.170207,251.660935 C252.235107,255.816389 253.767534,261.320461 253.767534,268.173315 L253.767534,327.005502 C253.767534,332.108691 254.059425,336.993099 254.643215,341.658872 C255.227006,346.324645 256.248624,349.823922 257.7081,352.156809 L226.183572,352.156809 C225.599781,350.407144 225.125459,348.621055 224.76059,346.798487 C224.395721,344.975919 224.140316,343.116928 223.994368,341.221458 C219.032149,346.324647 213.194332,349.896826 206.480742,351.938102 C199.767151,353.979377 192.907716,355 185.90223,355 C180.502168,355 175.467051,354.343886 170.796727,353.031637 C166.126403,351.719388 162.039931,349.678143 158.537188,346.90784 C155.034445,344.137538 152.297969,340.63826 150.327676,336.409904 C148.357383,332.181547 147.372251,327.151336 147.372251,321.31912 C147.372251,314.903682 148.503328,309.618315 150.765516,305.462861 C153.027705,301.307407 155.946613,297.990384 159.52233,295.511692 C163.098046,293.033 167.184519,291.174009 171.781869,289.934663 C176.379219,288.695317 181.012986,287.711145 185.68331,286.982118 C190.353634,286.253091 194.950915,285.669878 199.475291,285.232462 C203.999667,284.795046 208.013166,284.138931 211.515909,283.264099 C215.018652,282.389267 217.791615,281.113488 219.834882,279.436726 C221.878149,277.759964 222.826794,275.31776 222.680846,272.110041 C222.680846,268.756517 222.133551,266.095608 221.038944,264.127235 C219.944337,262.158862 218.484882,260.627928 216.660537,259.534388 C214.836192,258.440847 212.719983,257.711831 210.311847,257.347318 C207.903712,256.982804 205.31318,256.80055 202.540176,256.80055 C196.410376,256.80055 191.594176,258.112779 188.091433,260.737276 C184.588691,263.361774 182.545455,267.73587 181.961664,273.859697 L150.874977,273.859697 Z M222.680846,296.823934 C221.367318,297.990377 219.725432,298.901647 217.755139,299.557772 C215.784846,300.213896 213.668637,300.760658 211.406449,301.198074 C209.144261,301.63549 206.772648,301.999999 204.291538,302.291609 C201.810429,302.58322 199.329356,302.947728 196.848247,303.385144 C194.513085,303.822561 192.214444,304.405774 189.952256,305.134801 C187.690068,305.863828 185.719805,306.847999 184.041407,308.087345 C182.36301,309.326691 181.013014,310.894076 179.991381,312.789546 C178.969748,314.685016 178.458939,317.090769 178.458939,320.006878 C178.458939,322.77718 178.969748,325.110032 179.991381,327.005502 C181.013014,328.900972 182.399496,330.395455 184.150867,331.488996 C185.902239,332.582536 187.945475,333.348003 190.280637,333.78542 C192.615799,334.222836 195.023898,334.441541 197.505008,334.441541 C203.634808,334.441541 208.378034,333.420918 211.73483,331.379642 C215.091625,329.338367 217.572697,326.896163 219.178121,324.052957 C220.783545,321.209752 221.768676,318.330138 222.133546,315.41403 C222.498415,312.497922 222.680846,310.165071 222.680846,308.415406 L222.680846,296.823934 Z M279.201159,239.085282 L308.755404,239.085282 L308.755404,260.081155 L309.193245,260.081155 C310.652721,256.581826 312.622984,253.337704 315.104094,250.348693 C317.585203,247.359682 320.431139,244.808126 323.641987,242.693948 C326.852834,240.579769 330.282552,238.939483 333.931242,237.77304 C337.579933,236.606597 341.374514,236.023384 345.3151,236.023384 C347.358366,236.023384 349.620521,236.387892 352.10163,237.116919 L352.10163,265.986245 C350.642154,265.694634 348.890809,265.439478 346.847542,265.22077 C344.804275,265.002062 342.834012,264.89271 340.936693,264.89271 C335.244736,264.89271 330.428537,265.840431 326.487951,267.735901 C322.547365,269.631371 319.373052,272.219378 316.964916,275.5 C314.556781,278.780622 312.841922,282.607956 311.820289,286.982118 C310.798655,291.35628 310.287846,296.094885 310.287846,301.198074 L310.287846,352.156809 L279.201159,352.156809 L279.201159,239.085282 Z M372.500087,259.862448 L372.500087,239.085282 L372.500087,230.337001 C372.500087,220.276428 375.637914,212.038547 381.913662,205.623109 C388.189409,199.207671 397.675862,196 410.373305,196 C413.14631,196 415.919273,196.109352 418.692278,196.328061 C421.465283,196.546769 424.165273,196.729023 426.79233,196.874828 L426.79233,220.057772 C423.14364,219.620355 419.349059,219.401651 415.408473,219.401651 C411.175992,219.401651 408.147624,220.385822 406.323279,222.354195 C404.498934,224.322568 403.586775,227.639592 403.586775,232.305365 L403.586775,239.085282 L425.040968,239.085282 L425.040968,259.862448 L403.586775,259.862448 L403.586775,352.156809 L372.500087,352.156809 L372.500087,259.862448 Z M439.966416,239.085282 L469.520662,239.085282 L469.520662,260.081155 L469.958502,260.081155 C471.417978,256.581826 473.388242,253.337704 475.869351,250.348693 C478.350461,247.359682 481.196397,244.808126 484.407244,242.693948 C487.618092,240.579769 491.04781,238.939483 494.6965,237.77304 C498.345191,236.606597 502.139772,236.023384 506.080357,236.023384 C508.123624,236.023384 510.385778,236.387892 512.866888,237.116919 L512.866888,265.986245 C511.407412,265.694634 509.656066,265.439478 507.6128,265.22077 C505.569533,265.002062 503.59927,264.89271 501.701951,264.89271 C496.009994,264.89271 491.193794,265.840431 487.253209,267.735901 C483.312623,269.631371 480.13831,272.219378 477.730174,275.5 C475.322038,278.780622 473.60718,282.607956 472.585546,286.982118 C471.563913,291.35628 471.053104,296.094885 471.053104,301.198074 L471.053104,352.156809 L439.966416,352.156809 L439.966416,239.085282 Z M558.441183,221.588721 L527.354496,221.588721 L527.354496,196 L558.441183,196 L558.441183,221.588721 Z M527.354496,239.085282 L558.441183,239.085282 L558.441183,352.156809 L527.354496,352.156809 L527.354496,239.085282 Z M660.496925,283.482806 C659.037449,275.609314 656.446918,269.631382 652.725254,265.548831 C649.003589,261.466279 643.348204,259.425034 635.758928,259.425034 C630.796709,259.425034 626.67375,260.263403 623.389929,261.940165 C620.106107,263.616927 617.47909,265.694623 615.508797,268.173315 C613.538504,270.652007 612.152022,273.276465 611.34931,276.046768 C610.546598,278.81707 610.072276,281.295725 609.926328,283.482806 L660.496925,283.482806 Z M609.926328,303.166437 C610.364171,313.22701 612.918216,320.517171 617.58854,325.037139 C622.258864,329.557107 628.972353,331.817056 637.729211,331.817056 C644.004958,331.817056 649.404939,330.249672 653.929315,327.114856 C658.453692,323.980039 661.226655,320.663016 662.248288,317.163686 L689.61333,317.163686 C685.234901,330.723589 678.521412,340.419503 669.472659,346.251719 C660.423907,352.083936 649.477999,355 636.634609,355 C627.731804,355 619.704805,353.578419 612.553372,350.735213 C605.401939,347.892008 599.345203,343.845968 594.382984,338.596974 C589.420765,333.347979 585.589698,327.078441 582.889667,319.788171 C580.189636,312.4979 578.839641,304.478723 578.839641,295.730399 C578.839641,287.273685 580.226122,279.400312 582.999127,272.110041 C585.772132,264.819771 589.712658,258.513782 594.820825,253.191884 C599.928992,247.869987 606.022213,243.678145 613.100673,240.616231 C620.179133,237.554318 628.023699,236.023384 636.634609,236.023384 C646.267152,236.023384 654.659014,237.882375 661.810447,241.600413 C668.961881,245.318451 674.836184,250.312211 679.433534,256.581843 C684.030884,262.851476 687.351143,269.995833 689.39441,278.015131 C691.437676,286.034428 692.167403,294.418113 691.583613,303.166437 L609.926328,303.166437 Z M711.325309,239.085282 L740.879554,239.085282 L740.879554,254.832187 L741.536315,254.832187 C745.476901,248.270944 750.584991,243.495888 756.860739,240.506878 C763.136486,237.517867 769.558085,236.023384 776.125728,236.023384 C784.444742,236.023384 791.267691,237.153359 796.594779,239.413343 C801.921868,241.673326 806.117799,244.808095 809.182699,248.817744 C812.247599,252.827393 814.400294,257.711801 815.640849,263.471114 C816.881403,269.230428 817.501671,275.609319 817.501671,282.607978 L817.501671,352.156809 L786.414984,352.156809 L786.414984,288.29436 C786.414984,278.962814 784.95553,272.000711 782.036577,267.40784 C779.117625,262.81497 773.936562,260.518569 766.493233,260.518569 C758.028271,260.518569 751.898563,263.033675 748.103925,268.063961 C744.309287,273.094248 742.411997,281.368581 742.411997,292.887208 L742.411997,352.156809 L711.325309,352.156809 L711.325309,239.085282 Z M922.841218,295.292985 C922.841218,290.627212 922.403382,286.143763 921.527696,281.842503 C920.652011,277.541244 919.15607,273.75036 917.03983,270.469739 C914.923589,267.189117 912.187112,264.528208 908.830317,262.486933 C905.473522,260.445657 901.241104,259.425034 896.132938,259.425034 C891.024771,259.425034 886.719381,260.445657 883.216638,262.486933 C879.713895,264.528208 876.904445,267.225568 874.788205,270.579092 C872.671964,273.932616 871.139537,277.759951 870.190878,282.06121 C869.242218,286.36247 868.767896,290.845919 868.767896,295.511692 C868.767896,299.885854 869.278705,304.259951 870.300338,308.634113 C871.321971,313.008275 872.963857,316.908511 875.226046,320.334938 C877.488234,323.761365 880.33417,326.531626 883.763939,328.645805 C887.193708,330.759983 891.316666,331.817056 896.132938,331.817056 C901.241104,331.817056 905.510008,330.796434 908.939777,328.755158 C912.369546,326.713883 915.106023,323.980072 917.14929,320.553645 C919.192556,317.127218 920.652011,313.226982 921.527696,308.85282 C922.403382,304.478658 922.841218,299.958758 922.841218,295.292985 Z M923.279059,337.722146 L922.841218,337.722146 C919.192528,343.845973 914.412815,348.25652 908.501936,350.95392 C902.591058,353.65132 895.914054,355 888.470726,355 C880.005764,355 872.562547,353.359714 866.140852,350.079092 C859.719156,346.798471 854.428635,342.351472 850.269127,336.737964 C846.10962,331.124456 842.971794,324.672664 840.855553,317.382393 C838.739313,310.092123 837.681208,302.510356 837.681208,294.636864 C837.681208,287.054983 838.739313,279.728371 840.855553,272.656809 C842.971794,265.585247 846.10962,259.352159 850.269127,253.957359 C854.428635,248.562559 859.646184,244.224913 865.921931,240.944292 C872.197679,237.66367 879.494951,236.023384 887.813965,236.023384 C894.527555,236.023384 900.912668,237.444965 906.969494,240.288171 C913.02632,243.131376 917.806033,247.323219 921.308776,252.863824 L921.746617,252.863824 L921.746617,196 L952.833304,196 L952.833304,352.156809 L923.279059,352.156809 L923.279059,337.722146 Z M1001.6914,315.41403 C1001.6914,318.767555 1002.38465,321.647168 1003.77115,324.052957 C1005.15765,326.458747 1006.94548,328.42709 1009.1347,329.958047 C1011.32391,331.489004 1013.84147,332.618978 1016.68745,333.348006 C1019.53343,334.077033 1022.48882,334.441541 1025.55372,334.441541 C1027.74294,334.441541 1030.04158,334.186385 1032.44971,333.676066 C1034.85785,333.165747 1037.04703,332.363829 1039.01732,331.270289 C1040.98761,330.176748 1042.6295,328.718716 1043.94303,326.896149 C1045.25656,325.073581 1045.91331,322.77718 1045.91331,320.006878 C1045.91331,315.341105 1042.81197,311.841827 1036.6092,309.508941 C1030.40642,307.176054 1021.75916,304.843203 1010.66714,302.510316 C1006.14276,301.489679 1001.72791,300.286802 997.422458,298.901651 C993.117004,297.516499 989.285936,295.693959 985.929141,293.433975 C982.572346,291.173991 979.872355,288.330829 977.829088,284.904402 C975.785822,281.477975 974.764204,277.286132 974.764204,272.328748 C974.764204,265.038478 976.187172,259.060546 979.03315,254.394773 C981.879129,249.729 985.637224,246.047469 990.307547,243.350069 C994.977871,240.652669 1000.23191,238.757227 1006.06981,237.663686 C1011.90772,236.570146 1017.89148,236.023384 1024.02128,236.023384 C1030.15108,236.023384 1036.09836,236.606597 1041.86329,237.77304 C1047.62822,238.939483 1052.77279,240.907827 1057.29717,243.678129 C1061.82155,246.448432 1065.57964,250.129963 1068.57157,254.722834 C1071.56349,259.315704 1073.35132,265.111382 1073.93512,272.110041 L1044.38087,272.110041 C1043.94303,266.13202 1041.68087,262.08598 1037.59434,259.971802 C1033.50781,257.857624 1028.69161,256.80055 1023.1456,256.80055 C1021.39423,256.80055 1019.49694,256.909903 1017.45367,257.128611 C1015.4104,257.347319 1013.5496,257.821179 1011.8712,258.550206 C1010.1928,259.279233 1008.76983,260.336307 1007.60225,261.721458 C1006.43467,263.106609 1005.85089,264.9656 1005.85089,267.298487 C1005.85089,270.06879 1006.87251,272.32874 1008.91578,274.078404 C1010.95904,275.828069 1013.62255,277.249651 1016.90637,278.343191 C1020.19019,279.436732 1023.94828,280.420903 1028.18077,281.295736 C1032.41325,282.170568 1036.71864,283.118289 1041.09707,284.138927 C1045.62144,285.159565 1050.03629,286.398892 1054.34175,287.856946 C1058.6472,289.315 1062.47827,291.246893 1065.83506,293.652682 C1069.19186,296.058471 1071.89185,299.047437 1073.93512,302.61967 C1075.97838,306.191902 1077,310.60245 1077,315.851444 C1077,323.28752 1075.50406,329.520608 1072.51213,334.550894 C1069.52021,339.581181 1065.61617,343.62722 1060.7999,346.689133 C1055.98362,349.751047 1050.47418,351.901644 1044.27141,353.14099 C1038.06864,354.380336 1031.7565,355 1025.3348,355 C1018.76716,355 1012.34556,354.343886 1006.06981,353.031637 C999.794064,351.719388 994.211651,349.53234 989.322406,346.470426 C984.433161,343.408513 980.419661,339.362474 977.281788,334.332187 C974.143914,329.301901 972.429055,322.995911 972.13716,315.41403 L1001.6914,315.41403 Z" id="label"></path>
            </g>
        </g>
    </g>
</svg>