<svg height="1601" viewBox="0 0 2711 1601" width="2711" xmlns="http://www.w3.org/2000/svg" xmlns:xlink="http://www.w3.org/1999/xlink"><mask id="a" fill="#fff"><path d="m0 .5h2711v1600h-2711z" fill="#fff" fill-rule="evenodd"/></mask><g fill="none" fill-rule="evenodd" mask="url(#a)" stroke-linecap="square"><g transform="translate(-87 -80)"><g stroke="#020205"><path d="m1437 0v1690.6083"/><path d="m757 0v1690.6083"/><path d="m2117 0v1690.6083"/><path d="m417 0v1690.6083"/><path d="m1777 0v1690.6083"/><path d="m1097 0v1690.6083"/><path d="m2457 0v1690.6083"/><path d="m247 0v1690.6083"/><path d="m1607 0v1690.6083"/><path d="m927 0v1690.6083"/><path d="m2287 0v1690.6083"/><path d="m587 0v1690.6083"/><path d="m1947 0v1690.6083"/><path d="m1267 0v1690.6083"/><path d="m2627 0v1690.6083"/><path d="m162 0v1690.6083"/><path d="m1522 0v1690.6083"/><path d="m842 0v1690.6083"/><path d="m2202 0v1690.6083"/><path d="m502 0v1690.6083"/><path d="m1862 0v1690.6083"/><path d="m1182 0v1690.6083"/><path d="m2542 0v1690.6083"/><path d="m332 0v1690.6083"/><path d="m1692 0v1690.6083"/><path d="m1012 0v1690.6083"/><path d="m2372 0v1690.6083"/><path d="m672 0v1690.6083"/><path d="m2032 0v1690.6083"/><path d="m1352 0v1690.6083"/><path d="m2712 0v1690.6083"/><path d="m94 0v1690.6083"/><path d="m1454 0v1690.6083"/><path d="m774 0v1690.6083"/><path d="m2134 0v1690.6083"/><path d="m434 0v1690.6083"/><path d="m1794 0v1690.6083"/><path d="m1114 0v1690.6083"/><path d="m2474 0v1690.6083"/><path d="m264 0v1690.6083"/><path d="m1624 0v1690.6083"/><path d="m944 0v1690.6083"/></g><g fill-rule="evenodd" stroke="#979797" transform="matrix(0 -1 1 0 0 2756)"><path d="m1362.5.5v4809.88558"/><path d="m2041.5.5v4809.88558"/><path d="m1701.5.5v4809.88558"/><path d="m2382.5.5v4809.88558"/><path d="m1532.5.5v4809.88558"/><path d="m2212.5.5v4809.88558"/><path d="m1871.5.5v4809.88558"/><path d="m1191.5.5v4809.88558"/><path d="m2552.5.5v4809.88558"/><path d="m1447.5.5v4809.88558"/><path d="m2127.5.5v4809.88558"/><path d="m1786.5.5v4809.88558"/><path d="m1106.5.5v4809.88558"/><path d="m2467.5.5v4809.88558"/><path d="m1616.5.5v4809.88558"/><path d="m2297.5.5v4809.88558"/><path d="m1956.5.5v4809.88558"/><path d="m1277.5.5v4809.88558"/><path d="m2637.5.5v4809.88558"/><path d="m1379.5.5v4809.88558"/><path d="m2059.5.5v4809.88558"/><path d="m1718.5.5v4809.88558"/><path d="m2399.5.5v4809.88558"/><path d="m1549.5.5v4809.88558"/><path d="m2229.5.5v4809.88558"/><path d="m1888.5.5v4809.88558"/><path d="m1208.5.5v4809.88558"/><path d="m2569.5.5v4809.88558"/><path d="m1464.5.5v4809.88558"/><path d="m2144.5.5v4809.88558"/><path d="m1803.5.5v4809.88558"/><path d="m1123.5.5v4809.88558"/><path d="m2484.5.5v4809.88558"/><path d="m1633.5.5v4809.88558"/><path d="m2314.5.5v4809.88558"/><path d="m1973.5.5v4809.88558"/><path d="m1294.5.5v4809.88558"/><path d="m2654.5.5v4809.88558"/><path d="m1396.5.5v4809.88558"/><path d="m2076.5.5v4809.88558"/><path d="m1735.5.5v4809.88558"/><path d="m2416.5.5v4809.88558"/><path d="m1566.5.5v4809.88558"/><path d="m2246.5.5v4809.88558"/><path d="m1905.5.5v4809.88558"/><path d="m1225.5.5v4809.88558"/><path d="m2586.5.5v4809.88558"/><path d="m1481.5.5v4809.88558"/><path d="m2161.5.5v4809.88558"/><path d="m1820.5.5v4809.88558"/><path d="m1140.5.5v4809.88558"/><path d="m2501.5.5v4809.88558"/><path d="m1650.5.5v4809.88558"/><path d="m2331.5.5v4809.88558"/><path d="m1990.5.5v4809.88558"/><path d="m1311.5.5v4809.88558"/><path d="m2671.5.5v4809.88558"/><path d="m1413.5.5v4809.88558"/><path d="m2093.5.5v4809.88558"/><path d="m1752.5.5v4809.88558"/><path d="m2433.5.5v4809.88558"/><path d="m1583.5.5v4809.88558"/><path d="m2263.5.5v4809.88558"/><path d="m1922.5.5v4809.88558"/><path d="m1243.5.5v4809.88558"/><path d="m2603.5.5v4809.88558"/><path d="m1498.5.5v4809.88558"/><path d="m2178.5.5v4809.88558"/><path d="m1837.5.5v4809.88558"/><path d="m1157.5.5v4809.88558"/><path d="m2518.5.5v4809.88558"/><path d="m1667.5.5v4809.88558"/><path d="m2348.5.5v4809.88558"/><path d="m2007.5.5v4809.88558"/><path d="m1328.5.5v4809.88558"/><path d="m1430.5.5v4809.88558"/><path d="m2110.5.5v4809.88558"/><path d="m1769.5.5v4809.88558"/><path d="m1089.5.5v4809.88558"/><path d="m2450.5.5v4809.88558"/><path d="m1599.5.5v4809.88558"/><path d="m2280.5.5v4809.88558"/><path d="m1939.5.5v4809.88558"/><path d="m1260.5.5v4809.88558"/><path d="m2620.5.5v4809.88558"/><path d="m1515.5.5v4809.88558"/><path d="m2195.5.5v4809.88558"/><path d="m1854.5.5v4809.88558"/><path d="m1174.5.5v4809.88558"/><path d="m2535.5.5v4809.88558"/><path d="m1684.5.5v4809.88558"/><path d="m2365.5.5v4809.88558"/><path d="m2024.5.5v4809.88558"/><path d="m1345.5.5v4809.88558"/></g><g stroke="#020205"><path d="m2304 0v1690.6083"/><path d="m604 0v1690.6083"/><path d="m1964 0v1690.6083"/><path d="m1284 0v1690.6083"/><path d="m2644 0v1690.6083"/><path d="m179 0v1690.6083"/><path d="m1539 0v1690.6083"/><path d="m859 0v1690.6083"/><path d="m2219 0v1690.6083"/><path d="m519 0v1690.6083"/><path d="m1879 0v1690.6083"/><path d="m1199 0v1690.6083"/><path d="m2559 0v1690.6083"/><path d="m349 0v1690.6083"/><path d="m1709 0v1690.6083"/><path d="m1029 0v1690.6083"/><path d="m2389 0v1690.6083"/><path d="m689 0v1690.6083"/><path d="m2049 0v1690.6083"/><path d="m1369 0v1690.6083"/><path d="m2729 0v1690.6083"/><path d="m111 0v1690.6083"/><path d="m1471 0v1690.6083"/><path d="m791 0v1690.6083"/><path d="m2151 0v1690.6083"/><path d="m451 0v1690.6083"/><path d="m1811 0v1690.6083"/><path d="m1131 0v1690.6083"/><path d="m2491 0v1690.6083"/><path d="m281 0v1690.6083"/><path d="m1641 0v1690.6083"/><path d="m961 0v1690.6083"/><path d="m2321 0v1690.6083"/><path d="m621 0v1690.6083"/><path d="m1981 0v1690.6083"/><path d="m1301 0v1690.6083"/><path d="m2661 0v1690.6083"/><path d="m196 0v1690.6083"/><path d="m1556 0v1690.6083"/><path d="m876 0v1690.6083"/><path d="m2236 0v1690.6083"/><path d="m536 0v1690.6083"/><path d="m1896 0v1690.6083"/><path d="m1216 0v1690.6083"/><path d="m2576 0v1690.6083"/><path d="m366 0v1690.6083"/><path d="m1726 0v1690.6083"/><path d="m1046 0v1690.6083"/><path d="m2406 0v1690.6083"/><path d="m706 0v1690.6083"/><path d="m2066 0v1690.6083"/><path d="m1386 0v1690.6083"/><path d="m2746 0v1690.6083"/><path d="m128 0v1690.6083"/><path d="m1488 0v1690.6083"/><path d="m808 0v1690.6083"/><path d="m2168 0v1690.6083"/><path d="m468 0v1690.6083"/><path d="m1828 0v1690.6083"/><path d="m1148 0v1690.6083"/><path d="m2508 0v1690.6083"/><path d="m298 0v1690.6083"/><path d="m1658 0v1690.6083"/><path d="m978 0v1690.6083"/><path d="m2338 0v1690.6083"/><path d="m638 0v1690.6083"/><path d="m1998 0v1690.6083"/><path d="m1318 0v1690.6083"/><path d="m2678 0v1690.6083"/><path d="m213 0v1690.6083"/><path d="m1573 0v1690.6083"/><path d="m893 0v1690.6083"/><path d="m2253 0v1690.6083"/><path d="m553 0v1690.6083"/><path d="m1913 0v1690.6083"/><path d="m1233 0v1690.6083"/><path d="m2593 0v1690.6083"/><path d="m383 0v1690.6083"/><path d="m1743 0v1690.6083"/><path d="m1063 0v1690.6083"/><path d="m2423 0v1690.6083"/><path d="m723 0v1690.6083"/><path d="m2083 0v1690.6083"/><path d="m1403 0v1690.6083"/><path d="m2763 0v1690.6083"/><path d="m145 0v1690.6083"/><path d="m1505 0v1690.6083"/><path d="m825 0v1690.6083"/><path d="m2185 0v1690.6083"/><path d="m485 0v1690.6083"/><path d="m1845 0v1690.6083"/><path d="m1165 0v1690.6083"/><path d="m2525 0v1690.6083"/><path d="m315 0v1690.6083"/><path d="m1675 0v1690.6083"/><path d="m995 0v1690.6083"/><path d="m2355 0v1690.6083"/><path d="m655 0v1690.6083"/><path d="m2015 0v1690.6083"/><path d="m1335 0v1690.6083"/><path d="m2695 0v1690.6083"/><path d="m230 0v1690.6083"/><path d="m1590 0v1690.6083"/><path d="m910 0v1690.6083"/><path d="m2270 0v1690.6083"/><path d="m570 0v1690.6083"/><path d="m1930 0v1690.6083"/><path d="m1250 0v1690.6083"/><path d="m2610 0v1690.6083"/><path d="m400 0v1690.6083"/><path d="m1760 0v1690.6083"/><path d="m1080 0v1690.6083"/><path d="m2440 0v1690.6083"/><path d="m740 0v1690.6083"/><path d="m2100 0v1690.6083"/><path d="m1420 0v1690.6083"/><path d="m2780 0v1690.6083"/></g></g></g></svg>