<?xml version="1.0" encoding="UTF-8"?>
<svg width="2711px" height="1601px" viewBox="0 0 2711 1601" version="1.1" xmlns="http://www.w3.org/2000/svg" xmlns:xlink="http://www.w3.org/1999/xlink">
    <!-- Generator: Sketch 53.2 (72643) - https://sketchapp.com -->
    <title>Group 13</title>
    <desc>Created with Sketch.</desc>
    <defs>
        <rect id="path-1" x="0" y="0.5" width="2711" height="1600"></rect>
    </defs>
    <g id="personalwebsite" stroke="none" stroke-width="1" fill="none" fill-rule="evenodd">
        <g id="Group-13">
            <mask id="mask-2" fill="white">
                <use xlink:href="#path-1"></use>
            </mask>
            <g id="Mask"></g>
            <g mask="url(#mask-2)" stroke-linecap="square">
                <g transform="translate(-87.000000, -80.000000)">
                    <path d="M1437,0 L1437,1690.6083" id="Line" stroke="#020205"></path>
                    <path d="M757,0 L757,1690.6083" id="Line" stroke="#020205"></path>
                    <path d="M2117,0 L2117,1690.6083" id="Line" stroke="#020205"></path>
                    <path d="M417,0 L417,1690.6083" id="Line" stroke="#020205"></path>
                    <path d="M1777,0 L1777,1690.6083" id="Line" stroke="#020205"></path>
                    <path d="M1097,0 L1097,1690.6083" id="Line" stroke="#020205"></path>
                    <path d="M2457,0 L2457,1690.6083" id="Line" stroke="#020205"></path>
                    <path d="M247,0 L247,1690.6083" id="Line" stroke="#020205"></path>
                    <path d="M1607,0 L1607,1690.6083" id="Line" stroke="#020205"></path>
                    <path d="M927,0 L927,1690.6083" id="Line" stroke="#020205"></path>
                    <path d="M2287,0 L2287,1690.6083" id="Line" stroke="#020205"></path>
                    <path d="M587,0 L587,1690.6083" id="Line" stroke="#020205"></path>
                    <path d="M1947,0 L1947,1690.6083" id="Line" stroke="#020205"></path>
                    <path d="M1267,0 L1267,1690.6083" id="Line" stroke="#020205"></path>
                    <path d="M2627,0 L2627,1690.6083" id="Line" stroke="#020205"></path>
                    <path d="M162,0 L162,1690.6083" id="Line" stroke="#020205"></path>
                    <path d="M1522,0 L1522,1690.6083" id="Line" stroke="#020205"></path>
                    <path d="M842,0 L842,1690.6083" id="Line" stroke="#020205"></path>
                    <path d="M2202,0 L2202,1690.6083" id="Line" stroke="#020205"></path>
                    <path d="M502,0 L502,1690.6083" id="Line" stroke="#020205"></path>
                    <path d="M1862,0 L1862,1690.6083" id="Line" stroke="#020205"></path>
                    <path d="M1182,0 L1182,1690.6083" id="Line" stroke="#020205"></path>
                    <path d="M2542,0 L2542,1690.6083" id="Line" stroke="#020205"></path>
                    <path d="M332,0 L332,1690.6083" id="Line" stroke="#020205"></path>
                    <path d="M1692,0 L1692,1690.6083" id="Line" stroke="#020205"></path>
                    <path d="M1012,0 L1012,1690.6083" id="Line" stroke="#020205"></path>
                    <path d="M2372,0 L2372,1690.6083" id="Line" stroke="#020205"></path>
                    <path d="M672,0 L672,1690.6083" id="Line" stroke="#020205"></path>
                    <path d="M2032,0 L2032,1690.6083" id="Line" stroke="#020205"></path>
                    <path d="M1352,0 L1352,1690.6083" id="Line" stroke="#020205"></path>
                    <path d="M2712,0 L2712,1690.6083" id="Line" stroke="#020205"></path>
                    <path d="M94,0 L94,1690.6083" id="Line" stroke="#020205"></path>
                    <path d="M1454,0 L1454,1690.6083" id="Line" stroke="#020205"></path>
                    <path d="M774,0 L774,1690.6083" id="Line" stroke="#020205"></path>
                    <path d="M2134,0 L2134,1690.6083" id="Line" stroke="#020205"></path>
                    <path d="M434,0 L434,1690.6083" id="Line" stroke="#020205"></path>
                    <path d="M1794,0 L1794,1690.6083" id="Line" stroke="#020205"></path>
                    <path d="M1114,0 L1114,1690.6083" id="Line" stroke="#020205"></path>
                    <path d="M2474,0 L2474,1690.6083" id="Line" stroke="#020205"></path>
                    <path d="M264,0 L264,1690.6083" id="Line" stroke="#020205"></path>
                    <path d="M1624,0 L1624,1690.6083" id="Line" stroke="#020205"></path>
                    <path d="M944,0 L944,1690.6083" id="Line" stroke="#020205"></path>
                    <g id="Group-13" stroke="none" fill-rule="evenodd" transform="translate(2406.000000, 1402.500000) rotate(-90.000000) translate(-2406.000000, -1402.500000) translate(1052.500000, -1003.500000)">
                        <path d="M1362.5,0.5 L1362.5,4810.38558" id="Line" stroke="#979797"></path>
                        <path d="M2041.5,0.5 L2041.5,4810.38558" id="Line" stroke="#979797"></path>
                        <path d="M1701.5,0.5 L1701.5,4810.38558" id="Line" stroke="#979797"></path>
                        <path d="M2382.5,0.5 L2382.5,4810.38558" id="Line" stroke="#979797"></path>
                        <path d="M1532.5,0.5 L1532.5,4810.38558" id="Line" stroke="#979797"></path>
                        <path d="M2212.5,0.5 L2212.5,4810.38558" id="Line" stroke="#979797"></path>
                        <path d="M1871.5,0.5 L1871.5,4810.38558" id="Line" stroke="#979797"></path>
                        <path d="M1191.5,0.5 L1191.5,4810.38558" id="Line" stroke="#979797"></path>
                        <path d="M2552.5,0.5 L2552.5,4810.38558" id="Line" stroke="#979797"></path>
                        <path d="M1447.5,0.5 L1447.5,4810.38558" id="Line" stroke="#979797"></path>
                        <path d="M2127.5,0.5 L2127.5,4810.38558" id="Line" stroke="#979797"></path>
                        <path d="M1786.5,0.5 L1786.5,4810.38558" id="Line" stroke="#979797"></path>
                        <path d="M1106.5,0.5 L1106.5,4810.38558" id="Line" stroke="#979797"></path>
                        <path d="M2467.5,0.5 L2467.5,4810.38558" id="Line" stroke="#979797"></path>
                        <path d="M1616.5,0.5 L1616.5,4810.38558" id="Line" stroke="#979797"></path>
                        <path d="M2297.5,0.5 L2297.5,4810.38558" id="Line" stroke="#979797"></path>
                        <path d="M1956.5,0.5 L1956.5,4810.38558" id="Line" stroke="#979797"></path>
                        <path d="M1277.5,0.5 L1277.5,4810.38558" id="Line" stroke="#979797"></path>
                        <path d="M2637.5,0.5 L2637.5,4810.38558" id="Line" stroke="#979797"></path>
                        <path d="M1379.5,0.5 L1379.5,4810.38558" id="Line" stroke="#979797"></path>
                        <path d="M2059.5,0.5 L2059.5,4810.38558" id="Line" stroke="#979797"></path>
                        <path d="M1718.5,0.5 L1718.5,4810.38558" id="Line" stroke="#979797"></path>
                        <path d="M2399.5,0.5 L2399.5,4810.38558" id="Line" stroke="#979797"></path>
                        <path d="M1549.5,0.5 L1549.5,4810.38558" id="Line" stroke="#979797"></path>
                        <path d="M2229.5,0.5 L2229.5,4810.38558" id="Line" stroke="#979797"></path>
                        <path d="M1888.5,0.5 L1888.5,4810.38558" id="Line" stroke="#979797"></path>
                        <path d="M1208.5,0.5 L1208.5,4810.38558" id="Line" stroke="#979797"></path>
                        <path d="M2569.5,0.5 L2569.5,4810.38558" id="Line" stroke="#979797"></path>
                        <path d="M1464.5,0.5 L1464.5,4810.38558" id="Line" stroke="#979797"></path>
                        <path d="M2144.5,0.5 L2144.5,4810.38558" id="Line" stroke="#979797"></path>
                        <path d="M1803.5,0.5 L1803.5,4810.38558" id="Line" stroke="#979797"></path>
                        <path d="M1123.5,0.5 L1123.5,4810.38558" id="Line" stroke="#979797"></path>
                        <path d="M2484.5,0.5 L2484.5,4810.38558" id="Line" stroke="#979797"></path>
                        <path d="M1633.5,0.5 L1633.5,4810.38558" id="Line" stroke="#979797"></path>
                        <path d="M2314.5,0.5 L2314.5,4810.38558" id="Line" stroke="#979797"></path>
                        <path d="M1973.5,0.5 L1973.5,4810.38558" id="Line" stroke="#979797"></path>
                        <path d="M1294.5,0.5 L1294.5,4810.38558" id="Line" stroke="#979797"></path>
                        <path d="M2654.5,0.5 L2654.5,4810.38558" id="Line" stroke="#979797"></path>
                        <path d="M1396.5,0.5 L1396.5,4810.38558" id="Line" stroke="#979797"></path>
                        <path d="M2076.5,0.5 L2076.5,4810.38558" id="Line" stroke="#979797"></path>
                        <path d="M1735.5,0.5 L1735.5,4810.38558" id="Line" stroke="#979797"></path>
                        <path d="M2416.5,0.5 L2416.5,4810.38558" id="Line" stroke="#979797"></path>
                        <path d="M1566.5,0.5 L1566.5,4810.38558" id="Line" stroke="#979797"></path>
                        <path d="M2246.5,0.5 L2246.5,4810.38558" id="Line" stroke="#979797"></path>
                        <path d="M1905.5,0.5 L1905.5,4810.38558" id="Line" stroke="#979797"></path>
                        <path d="M1225.5,0.5 L1225.5,4810.38558" id="Line" stroke="#979797"></path>
                        <path d="M2586.5,0.5 L2586.5,4810.38558" id="Line" stroke="#979797"></path>
                        <path d="M1481.5,0.5 L1481.5,4810.38558" id="Line" stroke="#979797"></path>
                        <path d="M2161.5,0.5 L2161.5,4810.38558" id="Line" stroke="#979797"></path>
                        <path d="M1820.5,0.5 L1820.5,4810.38558" id="Line" stroke="#979797"></path>
                        <path d="M1140.5,0.5 L1140.5,4810.38558" id="Line" stroke="#979797"></path>
                        <path d="M2501.5,0.5 L2501.5,4810.38558" id="Line" stroke="#979797"></path>
                        <path d="M1650.5,0.5 L1650.5,4810.38558" id="Line" stroke="#979797"></path>
                        <path d="M2331.5,0.5 L2331.5,4810.38558" id="Line" stroke="#979797"></path>
                        <path d="M1990.5,0.5 L1990.5,4810.38558" id="Line" stroke="#979797"></path>
                        <path d="M1311.5,0.5 L1311.5,4810.38558" id="Line" stroke="#979797"></path>
                        <path d="M2671.5,0.5 L2671.5,4810.38558" id="Line" stroke="#979797"></path>
                        <path d="M1413.5,0.5 L1413.5,4810.38558" id="Line" stroke="#979797"></path>
                        <path d="M2093.5,0.5 L2093.5,4810.38558" id="Line" stroke="#979797"></path>
                        <path d="M1752.5,0.5 L1752.5,4810.38558" id="Line" stroke="#979797"></path>
                        <path d="M2433.5,0.5 L2433.5,4810.38558" id="Line" stroke="#979797"></path>
                        <path d="M1583.5,0.5 L1583.5,4810.38558" id="Line" stroke="#979797"></path>
                        <path d="M2263.5,0.5 L2263.5,4810.38558" id="Line" stroke="#979797"></path>
                        <path d="M1922.5,0.5 L1922.5,4810.38558" id="Line" stroke="#979797"></path>
                        <path d="M1243.5,0.5 L1243.5,4810.38558" id="Line" stroke="#979797"></path>
                        <path d="M2603.5,0.5 L2603.5,4810.38558" id="Line" stroke="#979797"></path>
                        <path d="M1498.5,0.5 L1498.5,4810.38558" id="Line" stroke="#979797"></path>
                        <path d="M2178.5,0.5 L2178.5,4810.38558" id="Line" stroke="#979797"></path>
                        <path d="M1837.5,0.5 L1837.5,4810.38558" id="Line" stroke="#979797"></path>
                        <path d="M1157.5,0.5 L1157.5,4810.38558" id="Line" stroke="#979797"></path>
                        <path d="M2518.5,0.5 L2518.5,4810.38558" id="Line" stroke="#979797"></path>
                        <path d="M1667.5,0.5 L1667.5,4810.38558" id="Line" stroke="#979797"></path>
                        <path d="M2348.5,0.5 L2348.5,4810.38558" id="Line" stroke="#979797"></path>
                        <path d="M2007.5,0.5 L2007.5,4810.38558" id="Line" stroke="#979797"></path>
                        <path d="M1328.5,0.5 L1328.5,4810.38558" id="Line" stroke="#979797"></path>
                        <path d="M1430.5,0.5 L1430.5,4810.38558" id="Line" stroke="#979797"></path>
                        <path d="M2110.5,0.5 L2110.5,4810.38558" id="Line" stroke="#979797"></path>
                        <path d="M1769.5,0.5 L1769.5,4810.38558" id="Line" stroke="#979797"></path>
                        <path d="M1089.5,0.5 L1089.5,4810.38558" id="Line" stroke="#979797"></path>
                        <path d="M2450.5,0.5 L2450.5,4810.38558" id="Line" stroke="#979797"></path>
                        <path d="M1599.5,0.5 L1599.5,4810.38558" id="Line" stroke="#979797"></path>
                        <path d="M2280.5,0.5 L2280.5,4810.38558" id="Line" stroke="#979797"></path>
                        <path d="M1939.5,0.5 L1939.5,4810.38558" id="Line" stroke="#979797"></path>
                        <path d="M1260.5,0.5 L1260.5,4810.38558" id="Line" stroke="#979797"></path>
                        <path d="M2620.5,0.5 L2620.5,4810.38558" id="Line" stroke="#979797"></path>
                        <path d="M1515.5,0.5 L1515.5,4810.38558" id="Line" stroke="#979797"></path>
                        <path d="M2195.5,0.5 L2195.5,4810.38558" id="Line" stroke="#979797"></path>
                        <path d="M1854.5,0.5 L1854.5,4810.38558" id="Line" stroke="#979797"></path>
                        <path d="M1174.5,0.5 L1174.5,4810.38558" id="Line" stroke="#979797"></path>
                        <path d="M2535.5,0.5 L2535.5,4810.38558" id="Line" stroke="#979797"></path>
                        <path d="M1684.5,0.5 L1684.5,4810.38558" id="Line" stroke="#979797"></path>
                        <path d="M2365.5,0.5 L2365.5,4810.38558" id="Line" stroke="#979797"></path>
                        <path d="M2024.5,0.5 L2024.5,4810.38558" id="Line" stroke="#979797"></path>
                        <path d="M1345.5,0.5 L1345.5,4810.38558" id="Line" stroke="#979797"></path>
                    </g>
                    <path d="M2304,0 L2304,1690.6083" id="Line" stroke="#020205"></path>
                    <path d="M604,0 L604,1690.6083" id="Line" stroke="#020205"></path>
                    <path d="M1964,0 L1964,1690.6083" id="Line" stroke="#020205"></path>
                    <path d="M1284,0 L1284,1690.6083" id="Line" stroke="#020205"></path>
                    <path d="M2644,0 L2644,1690.6083" id="Line" stroke="#020205"></path>
                    <path d="M179,0 L179,1690.6083" id="Line" stroke="#020205"></path>
                    <path d="M1539,0 L1539,1690.6083" id="Line" stroke="#020205"></path>
                    <path d="M859,0 L859,1690.6083" id="Line" stroke="#020205"></path>
                    <path d="M2219,0 L2219,1690.6083" id="Line" stroke="#020205"></path>
                    <path d="M519,0 L519,1690.6083" id="Line" stroke="#020205"></path>
                    <path d="M1879,0 L1879,1690.6083" id="Line" stroke="#020205"></path>
                    <path d="M1199,0 L1199,1690.6083" id="Line" stroke="#020205"></path>
                    <path d="M2559,0 L2559,1690.6083" id="Line" stroke="#020205"></path>
                    <path d="M349,0 L349,1690.6083" id="Line" stroke="#020205"></path>
                    <path d="M1709,0 L1709,1690.6083" id="Line" stroke="#020205"></path>
                    <path d="M1029,0 L1029,1690.6083" id="Line" stroke="#020205"></path>
                    <path d="M2389,0 L2389,1690.6083" id="Line" stroke="#020205"></path>
                    <path d="M689,0 L689,1690.6083" id="Line" stroke="#020205"></path>
                    <path d="M2049,0 L2049,1690.6083" id="Line" stroke="#020205"></path>
                    <path d="M1369,0 L1369,1690.6083" id="Line" stroke="#020205"></path>
                    <path d="M2729,0 L2729,1690.6083" id="Line" stroke="#020205"></path>
                    <path d="M111,0 L111,1690.6083" id="Line" stroke="#020205"></path>
                    <path d="M1471,0 L1471,1690.6083" id="Line" stroke="#020205"></path>
                    <path d="M791,0 L791,1690.6083" id="Line" stroke="#020205"></path>
                    <path d="M2151,0 L2151,1690.6083" id="Line" stroke="#020205"></path>
                    <path d="M451,0 L451,1690.6083" id="Line" stroke="#020205"></path>
                    <path d="M1811,0 L1811,1690.6083" id="Line" stroke="#020205"></path>
                    <path d="M1131,0 L1131,1690.6083" id="Line" stroke="#020205"></path>
                    <path d="M2491,0 L2491,1690.6083" id="Line" stroke="#020205"></path>
                    <path d="M281,0 L281,1690.6083" id="Line" stroke="#020205"></path>
                    <path d="M1641,0 L1641,1690.6083" id="Line" stroke="#020205"></path>
                    <path d="M961,0 L961,1690.6083" id="Line" stroke="#020205"></path>
                    <path d="M2321,0 L2321,1690.6083" id="Line" stroke="#020205"></path>
                    <path d="M621,0 L621,1690.6083" id="Line" stroke="#020205"></path>
                    <path d="M1981,0 L1981,1690.6083" id="Line" stroke="#020205"></path>
                    <path d="M1301,0 L1301,1690.6083" id="Line" stroke="#020205"></path>
                    <path d="M2661,0 L2661,1690.6083" id="Line" stroke="#020205"></path>
                    <path d="M196,0 L196,1690.6083" id="Line" stroke="#020205"></path>
                    <path d="M1556,0 L1556,1690.6083" id="Line" stroke="#020205"></path>
                    <path d="M876,0 L876,1690.6083" id="Line" stroke="#020205"></path>
                    <path d="M2236,0 L2236,1690.6083" id="Line" stroke="#020205"></path>
                    <path d="M536,0 L536,1690.6083" id="Line" stroke="#020205"></path>
                    <path d="M1896,0 L1896,1690.6083" id="Line" stroke="#020205"></path>
                    <path d="M1216,0 L1216,1690.6083" id="Line" stroke="#020205"></path>
                    <path d="M2576,0 L2576,1690.6083" id="Line" stroke="#020205"></path>
                    <path d="M366,0 L366,1690.6083" id="Line" stroke="#020205"></path>
                    <path d="M1726,0 L1726,1690.6083" id="Line" stroke="#020205"></path>
                    <path d="M1046,0 L1046,1690.6083" id="Line" stroke="#020205"></path>
                    <path d="M2406,0 L2406,1690.6083" id="Line" stroke="#020205"></path>
                    <path d="M706,0 L706,1690.6083" id="Line" stroke="#020205"></path>
                    <path d="M2066,0 L2066,1690.6083" id="Line" stroke="#020205"></path>
                    <path d="M1386,0 L1386,1690.6083" id="Line" stroke="#020205"></path>
                    <path d="M2746,0 L2746,1690.6083" id="Line" stroke="#020205"></path>
                    <path d="M128,0 L128,1690.6083" id="Line" stroke="#020205"></path>
                    <path d="M1488,0 L1488,1690.6083" id="Line" stroke="#020205"></path>
                    <path d="M808,0 L808,1690.6083" id="Line" stroke="#020205"></path>
                    <path d="M2168,0 L2168,1690.6083" id="Line" stroke="#020205"></path>
                    <path d="M468,0 L468,1690.6083" id="Line" stroke="#020205"></path>
                    <path d="M1828,0 L1828,1690.6083" id="Line" stroke="#020205"></path>
                    <path d="M1148,0 L1148,1690.6083" id="Line" stroke="#020205"></path>
                    <path d="M2508,0 L2508,1690.6083" id="Line" stroke="#020205"></path>
                    <path d="M298,0 L298,1690.6083" id="Line" stroke="#020205"></path>
                    <path d="M1658,0 L1658,1690.6083" id="Line" stroke="#020205"></path>
                    <path d="M978,0 L978,1690.6083" id="Line" stroke="#020205"></path>
                    <path d="M2338,0 L2338,1690.6083" id="Line" stroke="#020205"></path>
                    <path d="M638,0 L638,1690.6083" id="Line" stroke="#020205"></path>
                    <path d="M1998,0 L1998,1690.6083" id="Line" stroke="#020205"></path>
                    <path d="M1318,0 L1318,1690.6083" id="Line" stroke="#020205"></path>
                    <path d="M2678,0 L2678,1690.6083" id="Line" stroke="#020205"></path>
                    <path d="M213,0 L213,1690.6083" id="Line" stroke="#020205"></path>
                    <path d="M1573,0 L1573,1690.6083" id="Line" stroke="#020205"></path>
                    <path d="M893,0 L893,1690.6083" id="Line" stroke="#020205"></path>
                    <path d="M2253,0 L2253,1690.6083" id="Line" stroke="#020205"></path>
                    <path d="M553,0 L553,1690.6083" id="Line" stroke="#020205"></path>
                    <path d="M1913,0 L1913,1690.6083" id="Line" stroke="#020205"></path>
                    <path d="M1233,0 L1233,1690.6083" id="Line" stroke="#020205"></path>
                    <path d="M2593,0 L2593,1690.6083" id="Line" stroke="#020205"></path>
                    <path d="M383,0 L383,1690.6083" id="Line" stroke="#020205"></path>
                    <path d="M1743,0 L1743,1690.6083" id="Line" stroke="#020205"></path>
                    <path d="M1063,0 L1063,1690.6083" id="Line" stroke="#020205"></path>
                    <path d="M2423,0 L2423,1690.6083" id="Line" stroke="#020205"></path>
                    <path d="M723,0 L723,1690.6083" id="Line" stroke="#020205"></path>
                    <path d="M2083,0 L2083,1690.6083" id="Line" stroke="#020205"></path>
                    <path d="M1403,0 L1403,1690.6083" id="Line" stroke="#020205"></path>
                    <path d="M2763,0 L2763,1690.6083" id="Line" stroke="#020205"></path>
                    <path d="M145,0 L145,1690.6083" id="Line" stroke="#020205"></path>
                    <path d="M1505,0 L1505,1690.6083" id="Line" stroke="#020205"></path>
                    <path d="M825,0 L825,1690.6083" id="Line" stroke="#020205"></path>
                    <path d="M2185,0 L2185,1690.6083" id="Line" stroke="#020205"></path>
                    <path d="M485,0 L485,1690.6083" id="Line" stroke="#020205"></path>
                    <path d="M1845,0 L1845,1690.6083" id="Line" stroke="#020205"></path>
                    <path d="M1165,0 L1165,1690.6083" id="Line" stroke="#020205"></path>
                    <path d="M2525,0 L2525,1690.6083" id="Line" stroke="#020205"></path>
                    <path d="M315,0 L315,1690.6083" id="Line" stroke="#020205"></path>
                    <path d="M1675,0 L1675,1690.6083" id="Line" stroke="#020205"></path>
                    <path d="M995,0 L995,1690.6083" id="Line" stroke="#020205"></path>
                    <path d="M2355,0 L2355,1690.6083" id="Line" stroke="#020205"></path>
                    <path d="M655,0 L655,1690.6083" id="Line" stroke="#020205"></path>
                    <path d="M2015,0 L2015,1690.6083" id="Line" stroke="#020205"></path>
                    <path d="M1335,0 L1335,1690.6083" id="Line" stroke="#020205"></path>
                    <path d="M2695,0 L2695,1690.6083" id="Line" stroke="#020205"></path>
                    <path d="M230,0 L230,1690.6083" id="Line" stroke="#020205"></path>
                    <path d="M1590,0 L1590,1690.6083" id="Line" stroke="#020205"></path>
                    <path d="M910,0 L910,1690.6083" id="Line" stroke="#020205"></path>
                    <path d="M2270,0 L2270,1690.6083" id="Line" stroke="#020205"></path>
                    <path d="M570,0 L570,1690.6083" id="Line" stroke="#020205"></path>
                    <path d="M1930,0 L1930,1690.6083" id="Line" stroke="#020205"></path>
                    <path d="M1250,0 L1250,1690.6083" id="Line" stroke="#020205"></path>
                    <path d="M2610,0 L2610,1690.6083" id="Line" stroke="#020205"></path>
                    <path d="M400,0 L400,1690.6083" id="Line" stroke="#020205"></path>
                    <path d="M1760,0 L1760,1690.6083" id="Line" stroke="#020205"></path>
                    <path d="M1080,0 L1080,1690.6083" id="Line" stroke="#020205"></path>
                    <path d="M2440,0 L2440,1690.6083" id="Line" stroke="#020205"></path>
                    <path d="M740,0 L740,1690.6083" id="Line" stroke="#020205"></path>
                    <path d="M2100,0 L2100,1690.6083" id="Line" stroke="#020205"></path>
                    <path d="M1420,0 L1420,1690.6083" id="Line" stroke="#020205"></path>
                    <path d="M2780,0 L2780,1690.6083" id="Line" stroke="#020205"></path>
                </g>
            </g>
        </g>
    </g>
</svg>