<svg height="508" viewBox="0 0 526 508" width="526" xmlns="http://www.w3.org/2000/svg"><g fill="none" fill-rule="evenodd" transform="translate(0 -9)"><path d="m0 73h525v442h-525z" fill="#000" fill-rule="nonzero"/><g transform="translate(145 203)"><path d="m0 0h94v94h-94z" fill="#d8d8d8" fill-rule="nonzero"/><g transform="translate(15)"><path d="m0 0h64v64h-64z" fill="#b9b9b9" fill-rule="nonzero"/><text fill="#000" font-family="HelveticaNeue-Bold, Helvetica Neue" font-size="15" font-weight="bold" letter-spacing=".2841669"><tspan x="19.07125" y="20">Bar</tspan><tspan x="7.957499" y="38">Profile</tspan><tspan x="5.587916" y="56">Picture</tspan></text></g><g fill="#000"><text font-family="HelveticaNeue-Bold, Helvetica Neue" font-size="13" font-weight="bold" letter-spacing=".246278"><tspan x="18" y="77">BarName</tspan></text><path d="m0 64h18v30h-18z" fill-rule="nonzero"/></g></g><g transform="translate(350 109)"><path d="m0 0h94v94h-94z" fill="#d8d8d8" fill-rule="nonzero"/><g transform="translate(15)"><path d="m0 0h64v64h-64z" fill="#b9b9b9" fill-rule="nonzero"/><text fill="#000" font-family="HelveticaNeue-Bold, Helvetica Neue" font-size="15" font-weight="bold" letter-spacing=".2841669"><tspan x="19.07125" y="20">Bar</tspan><tspan x="7.957499" y="38">Profile</tspan><tspan x="5.587916" y="56">Picture</tspan></text></g><g fill="#000"><text font-family="HelveticaNeue-Bold, Helvetica Neue" font-size="13" font-weight="bold" letter-spacing=".246278"><tspan x="18" y="77">BarName</tspan></text><path d="m0 64h18v30h-18z" fill-rule="nonzero"/></g></g><g transform="translate(79 141)"><path d="m0 0h94v94h-94z" fill="#d8d8d8" fill-rule="nonzero"/><g transform="translate(15)"><path d="m0 0h64v64h-64z" fill="#b9b9b9" fill-rule="nonzero"/><text fill="#000" font-family="HelveticaNeue-Bold, Helvetica Neue" font-size="15" font-weight="bold" letter-spacing=".2841669"><tspan x="19.07125" y="20">Bar</tspan><tspan x="7.957499" y="38">Profile</tspan><tspan x="5.587916" y="56">Picture</tspan></text></g><g fill="#000"><text font-family="HelveticaNeue-Bold, Helvetica Neue" font-size="13" font-weight="bold" letter-spacing=".246278"><tspan x="18" y="77">BarName</tspan></text><path d="m0 64h18v30h-18z" fill-rule="nonzero"/></g></g><g transform="translate(66 236)"><path d="m0 0h94v94h-94z" fill="#d8d8d8" fill-rule="nonzero"/><g transform="translate(15)"><path d="m0 0h64v64h-64z" fill="#b9b9b9" fill-rule="nonzero"/><text fill="#000" font-family="HelveticaNeue-Bold, Helvetica Neue" font-size="15" font-weight="bold" letter-spacing=".2841669"><tspan x="19.07125" y="20">Bar</tspan><tspan x="7.957499" y="38">Profile</tspan><tspan x="5.587916" y="56">Picture</tspan></text></g><g fill="#000"><text font-family="HelveticaNeue-Bold, Helvetica Neue" font-size="13" font-weight="bold" letter-spacing=".246278"><tspan x="18" y="77">BarName</tspan></text><path d="m0 64h18v30h-18z" fill-rule="nonzero"/></g></g><g transform="translate(1 395)"><path d="m335.5 35h189v85h-189z" fill="#000" fill-rule="nonzero"/><g transform="translate(427 42)"><path d="m0 0h86v71h-86z" fill="#d8d8d8" fill-rule="nonzero"/><text fill="#000" font-family="HelveticaNeue-Bold, Helvetica Neue" font-size="13" font-weight="bold" letter-spacing=".246278"><tspan x="9.983388" y="39">Messages</tspan></text></g><g transform="translate(346 42)"><path d="m0 0h71v71h-71z" fill="#d8d8d8" fill-rule="nonzero"/><text fill="#000" font-family="HelveticaNeue-Bold, Helvetica Neue" font-size="15" font-weight="bold" letter-spacing=".2841669"><tspan x="10.457499" y="33">Profile</tspan> <tspan x="8.087916" y="51">Picture</tspan></text></g><path d="m326.5 35v85" fill-rule="nonzero" stroke="#fff" stroke-linecap="round" stroke-linejoin="round" stroke-width="3"/><path d="m0 35h317v85h-317z" fill="#000" fill-rule="nonzero"/><g transform="translate(6 45)"><path d="m0 0h64v64h-64z" fill="#eaeaea" fill-rule="nonzero"/><text fill="#000" font-family="HelveticaNeue-Bold, Helvetica Neue" font-size="13" font-weight="bold" letter-spacing=".246278"><tspan x="7.783527" y="13">Uber or</tspan><tspan x="9.954527" y="29">Join to</tspan><tspan x="20.795083" y="45">Bar</tspan><tspan x="10.428666" y="61">Button</tspan></text></g><g transform="translate(162 45)"><path d="m0 0h64v32h-64z" fill="#eaeaea" fill-rule="nonzero"/><text fill="#000" font-family="HelveticaNeue-Bold, Helvetica Neue" font-size="15" font-weight="bold" letter-spacing=".2841669"><tspan x="27.687917" y="23">#</tspan></text><g transform="translate(0 41)"><path d="m0 0h64v23h-64z" fill="#eaeaea" fill-rule="nonzero"/><text fill="#000" font-family="HelveticaNeue-Bold, Helvetica Neue" font-size="15" font-weight="bold" letter-spacing=".2841669"><tspan x="4.342916" y="18">Friends</tspan></text></g></g><g transform="translate(91 45)"><path d="m0 0h64v32h-64z" fill="#eaeaea" fill-rule="nonzero"/><text fill="#000" font-family="HelveticaNeue-Bold, Helvetica Neue" font-size="15" font-weight="bold" letter-spacing=".2841669"><tspan x="27.687917" y="23">#</tspan></text></g><g transform="translate(91 86)"><path d="m0 0h64v23h-64z" fill="#eaeaea" fill-rule="nonzero"/><text fill="#000" font-family="HelveticaNeue-Bold, Helvetica Neue" font-size="15" font-weight="bold" letter-spacing=".2841669"><tspan x="7.124999" y="18">Joined</tspan></text></g><g transform="translate(247 45)"><path d="m0 0h64v64h-64z" fill="#eaeaea" fill-rule="nonzero"/><text fill="#000" font-family="HelveticaNeue-Bold, Helvetica Neue" font-size="15" font-weight="bold" letter-spacing=".2841669"><tspan x="19.07125" y="20">Bar</tspan><tspan x="7.957499" y="38">Profile</tspan><tspan x="5.587916" y="56">Picture</tspan></text></g><rect fill="#bfbfbf" fill-rule="nonzero" height="12" rx="6" width="56" x="233"/></g><text fill="#fff" font-family="Helvetica" font-size="40" letter-spacing=".523077"><tspan x="1" y="39">Comp: Map &amp; Btm Nav</tspan></text></g></svg>