<svg height="506" viewBox="0 0 525 506" width="525" xmlns="http://www.w3.org/2000/svg"><g fill="none" fill-rule="evenodd" transform="translate(0 -9)"><text fill="#fff" font-family="Helvetica" font-size="40" letter-spacing=".523077011"><tspan x="0" y="39">Comp: User looking At Bar</tspan></text><path d="m0 73h525v442h-525z" fill="#000" fill-rule="nonzero"/><g transform="translate(92 361)"><path d="m0 0h342v81h-342z" fill="#d8d8d8" fill-rule="nonzero"/><text fill="#fff" font-family="HelveticaNeue-Medium, Helvetica Neue" font-size="20" font-weight="400" letter-spacing=".3788888"><tspan x="77.140556" y="40">Join or Uber Button</tspan></text></g><g transform="translate(10 94)"><path d="m0 198.5h505" fill-rule="nonzero" stroke="#d1d1d1" stroke-linecap="round" stroke-linejoin="round" stroke-width="3"/><path d="m.5.5h146v146h-146z" fill="#d8d8d8" fill-rule="nonzero" stroke="#979797"/><g transform="translate(14)"><path d="m0 0h119v119h-119z" fill="#b9b9b9" fill-rule="nonzero"/><text fill="#000" font-family="HelveticaNeue-Bold, Helvetica Neue" font-size="14" font-weight="bold" letter-spacing=".2652224"><tspan x="19.282277" y="26">Friend User </tspan><tspan x="37.060333" y="43">Profile </tspan><tspan x="34.848722" y="60">Picture</tspan></text></g><text fill="#000" font-family="HelveticaNeue-Bold, Helvetica Neue" font-size="14" font-weight="bold" letter-spacing=".2652224"><tspan x="35.108499" y="138">User Name</tspan></text><path d="m179.5.5h146v146h-146z" fill="#d8d8d8" fill-rule="nonzero" stroke="#979797"/><g transform="translate(179)"><g transform="translate(14)"><path d="m0 0h119v119h-119z" fill="#b9b9b9" fill-rule="nonzero"/><text fill="#000" font-family="HelveticaNeue-Bold, Helvetica Neue" font-size="14" font-weight="bold" letter-spacing=".2652224"><tspan x="19.282277" y="26">Friend User </tspan><tspan x="37.060333" y="43">Profile </tspan><tspan x="34.848722" y="60">Picture</tspan></text></g><text fill="#000" font-family="HelveticaNeue-Bold, Helvetica Neue" font-size="14" font-weight="bold" letter-spacing=".2652224"><tspan x="35.108499" y="138">User Name</tspan></text></g><path d="m358.5.5h146v146h-146z" fill="#d8d8d8" fill-rule="nonzero" stroke="#979797"/><g transform="translate(358)"><g transform="translate(14)"><path d="m0 0h119v119h-119z" fill="#b9b9b9" fill-rule="nonzero"/><text fill="#000" font-family="HelveticaNeue-Bold, Helvetica Neue" font-size="14" font-weight="bold" letter-spacing=".2652224"><tspan x="19.282277" y="26">Friend User </tspan><tspan x="37.060333" y="43">Profile </tspan><tspan x="34.848722" y="60">Picture</tspan></text></g><text fill="#000" font-family="HelveticaNeue-Bold, Helvetica Neue" font-size="14" font-weight="bold" letter-spacing=".2652224"><tspan x="35.108499" y="138">User Name</tspan></text></g></g></g></svg>