<svg height="36" viewBox="0 0 608 36" width="608" xmlns="http://www.w3.org/2000/svg"><path d="m598.6 515.728h21.744v2.784h-18.48v12.384h16.416v2.784h-16.416v16.32h-3.264zm25.248 0h3.024v4.848h-3.024zm0 9.504h3.024v24.768h-3.024zm8.784 0h3.024v4.272h.096c.576003-1.504008 1.599993-2.711995 3.072-3.624s3.087991-1.368 4.848-1.368c1.728009 0 3.175994.223998 4.344.672s2.103996 1.079996 2.808 1.896 1.199999 1.815994 1.488 3 .432 2.511993.432 3.984v15.936h-3.024v-15.456c0-1.056005-.095999-2.039995-.288-2.952s-.527998-1.703997-1.008-2.376-1.127996-1.199998-1.944-1.584-1.831994-.576-3.048-.576-2.295995.215998-3.24.648-1.743997 1.023996-2.4 1.776-1.167998 1.647995-1.536 2.688-.568 2.167994-.6 3.384v14.448h-3.024zm47.616 24.768h-2.784v-4.704h-.096c-.320002.800004-.791997 1.535997-1.416 2.208s-1.335996 1.239998-2.136 1.704-1.655995.823999-2.568 1.08-1.815996.384-2.712.384c-1.888009 0-3.527993-.343997-4.92-1.032s-2.551995-1.631994-3.48-2.832-1.615998-2.591992-2.064-4.176-.672-3.255991-.672-5.016.223998-3.431992.672-5.016 1.135995-2.975994 2.064-4.176 2.087993-2.151996 3.48-2.856 3.031991-1.056 4.92-1.056c.928005 0 1.831996.111999 2.712.336s1.703996.567998 2.472 1.032 1.447997 1.031997 2.04 1.704 1.047998 1.455996 1.368 2.352h.096v-14.208h3.024zm-19.824-12.384c0 1.280006.151998 2.551994.456 3.816s.783997 2.391995 1.44 3.384 1.495995 1.799997 2.52 2.424 2.255993.936 3.696.936c1.600008 0 2.951994-.311997 4.056-.936s1.999997-1.431995 2.688-2.424 1.183998-2.119994 1.488-3.384.456-2.535994.456-3.816-.151998-2.551994-.456-3.816-.799997-2.391995-1.488-3.384-1.583994-1.799997-2.688-2.424-2.455992-.936-4.056-.936c-1.440007 0-2.671995.311997-3.696.936s-1.863997 1.431995-2.52 2.424-1.135998 2.119994-1.44 3.384-.456 2.535994-.456 3.816zm42.768-6.864h11.232c1.312007 0 2.447995-.151998 3.408-.456s1.759997-.719997 2.4-1.248 1.119998-1.143996 1.44-1.848.48-1.455996.48-2.256c0-4.288021-2.575974-6.432-7.728-6.432h-11.232zm-3.264-15.024h14.496c1.440007 0 2.823993.135999 4.152.408s2.495995.735997 3.504 1.392 1.815997 1.519995 2.424 2.592.912 2.407992.912 4.008c0 .896004-.143999 1.767996-.432 2.616s-.695997 1.615997-1.224 2.304-1.151996 1.271998-1.872 1.752-1.527996.815999-2.424 1.008v.096c2.208011.288001 3.967993 1.191992 5.28 2.712s1.968 3.399989 1.968 5.64c0 .544003-.048 1.159997-.144 1.848s-.287999 1.391996-.576 2.112-.703997 1.431996-1.248 2.136-1.271995 1.319997-2.184 1.848-2.031993.959998-3.36 1.296-2.919991.504-4.776.504h-14.496zm3.264 31.488h11.232c1.216006 0 2.367995-.103999 3.456-.312s2.047996-.583997 2.88-1.128 1.487998-1.271995 1.968-2.184.72-2.055993.72-3.432c0-2.208011-.775992-3.863994-2.328-4.968s-3.783985-1.656-6.696-1.656h-11.232zm27.888-14.4c.096-1.440007.399997-2.687995.912-3.744s1.207996-1.919997 2.088-2.592 1.911994-1.167998 3.096-1.488 2.495993-.48 3.936-.48c1.088005 0 2.175995.103999 3.264.312s2.063996.599997 2.928 1.176 1.567997 1.383995 2.112 2.424.816 2.391992.816 4.056v13.152c0 1.216006.591994 1.824 1.776 1.824.352002 0 .671999-.063999.96-.192v2.544c-.352002.064-.663999.112-.936.144s-.615998.048-1.032.048c-.768004 0-1.383998-.103999-1.848-.312s-.823999-.503998-1.08-.888-.424-.839997-.504-1.368-.12-1.111997-.12-1.752h-.096c-.544003.800004-1.095997 1.511997-1.656 2.136s-1.183997 1.143998-1.872 1.56-1.471996.735999-2.352.96-1.927994.336-3.144.336c-1.152006 0-2.231995-.135999-3.24-.408s-1.887996-.703997-2.64-1.296-1.343998-1.343995-1.776-2.256-.648-1.991994-.648-3.24c0-1.728009.383996-3.079995 1.152-4.056s1.783994-1.719997 3.048-2.232 2.687992-.871999 4.272-1.08 3.191992-.407999 4.824-.6c.640003-.064 1.199998-.144 1.68-.24s.879998-.263999 1.2-.504.567999-.567998.744-.984.264-.959997.264-1.632c0-1.024005-.167998-1.863997-.504-2.52s-.799997-1.175998-1.392-1.56-1.279996-.647999-2.064-.792-1.623996-.216-2.52-.216c-1.92001 0-3.487994.455995-4.704 1.368s-1.856 2.37599-1.92 4.392zm16.128 3.648h-.096c-.192001.352002-.559997.607999-1.104.768s-1.023998.272-1.44.336c-1.280006.224001-2.599993.423999-3.96.6s-2.599994.439998-3.72.792-2.039996.855997-2.76 1.512-1.08 1.591994-1.08 2.808c0 .768004.151998 1.447997.456 2.04s.711997 1.103998 1.224 1.536 1.103997.759999 1.776.984 1.359996.336 2.064.336c1.152006 0 2.255995-.175998 3.312-.528s1.975996-.863997 2.76-1.536 1.407998-1.487995 1.872-2.448.696-2.047994.696-3.264zm9.072-11.232h2.784v5.808h.096c.768004-2.01601 1.959992-3.567995 3.576-4.656s3.543989-1.584 5.784-1.488v3.024c-1.376007-.064-2.623994.119998-3.744.552s-2.087996 1.047996-2.904 1.848-1.447998 1.751994-1.896 2.856-.672 2.311993-.672 3.624v13.2h-3.024zm29.952 7.248c-.032-.928005-.223998-1.735997-.576-2.424s-.823997-1.255998-1.416-1.704-1.271996-.775999-2.04-.984-1.583996-.312-2.448-.312c-.672003 0-1.351997.071999-2.04.216s-1.319997.383998-1.896.72-1.039998.775997-1.392 1.32-.528 1.215996-.528 2.016c0 .672003.167998 1.239998.504 1.704s.759997.855998 1.272 1.176 1.071997.583999 1.68.792 1.167997.375999 1.68.504l4.032.912c.864004.128001 1.719996.359998 2.568.696s1.599997.775997 2.256 1.32 1.191998 1.215996 1.608 2.016.624 1.743995.624 2.832c0 1.344007-.303997 2.487995-.912 3.432s-1.383995 1.711997-2.328 2.304-2.007994 1.015999-3.192 1.272-2.351994.384-3.504.384c-2.912015 0-5.271991-.687993-7.08-2.064s-2.839999-3.583985-3.096-6.624h3.024c.128001 2.04801.871993 3.591995 2.232 4.632s3.04799 1.56 5.064 1.56c.736004 0 1.495996-.079999 2.28-.24s1.511997-.431998 2.184-.816 1.223998-.871997 1.656-1.464.648-1.319996.648-2.184c0-.736004-.151998-1.351998-.456-1.848s-.711997-.911998-1.224-1.248-1.095997-.615999-1.752-.84-1.319997-.415999-1.992-.576l-3.888-.864c-.992005-.256001-1.903996-.551998-2.736-.888s-1.559997-.751998-2.184-1.248-1.111998-1.103996-1.464-1.824-.528-1.607995-.528-2.664c0-1.248006.279997-2.319996.84-3.216s1.287996-1.615997 2.184-2.16 1.895994-.943999 3-1.2 2.199995-.384 3.288-.384c1.248006 0 2.407995.159998 3.48.48s2.015996.815997 2.832 1.488 1.463998 1.503995 1.944 2.496.752 2.159993.816 3.504zm10.032 17.52v-5.088h4.032v5.088zm54.768 0h-2.352l-.432-6.24h-.096c-.576003 1.216006-1.287996 2.263996-2.136 3.144s-1.783995 1.599997-2.808 2.16-2.119994.967999-3.288 1.224-2.375994.384-3.624.384c-2.688013 0-5.04799-.487995-7.08-1.464s-3.719993-2.279992-5.064-3.912-2.351997-3.519989-3.024-5.664-1.008-4.399988-1.008-6.768.335997-4.623989 1.008-6.768 1.679993-4.039992 3.024-5.688 3.03199-2.959995 5.064-3.936 4.391987-1.464 7.08-1.464c1.792009 0 3.487992.239998 5.088.72s3.023994 1.199995 4.272 2.16 2.303996 2.143993 3.168 3.552 1.455998 3.055991 1.776 4.944h-3.264c-.096-.992005-.423997-1.991995-.984-3s-1.311995-1.927996-2.256-2.76-2.071993-1.511997-3.384-2.04-2.783992-.792-4.416-.792c-2.272011 0-4.223992.431996-5.856 1.296s-2.967995 2.007993-4.008 3.432-1.807998 3.031991-2.304 4.824-.744 3.631991-.744 5.52c0 1.856009.247998 3.687991.744 5.496s1.263995 3.423993 2.304 4.848 2.375992 2.567996 4.008 3.432 3.583989 1.296 5.856 1.296c1.888009 0 3.575993-.311997 5.064-.936s2.743995-1.495994 3.768-2.616 1.791997-2.447992 2.304-3.984.752-3.215991.72-5.04h-11.664v-2.784h14.544zm16.176-22.944c-1.440007 0-2.703995.303997-3.792.912s-1.991996 1.407995-2.712 2.4-1.263998 2.119994-1.632 3.384-.552 2.551993-.552 3.864.183998 2.599994.552 3.864.911996 2.391995 1.632 3.384 1.623995 1.791997 2.712 2.4 2.351993.912 3.792.912 2.703995-.303997 3.792-.912 1.991996-1.407995 2.712-2.4 1.263998-2.119994 1.632-3.384.552-2.551993.552-3.864-.183998-2.599994-.552-3.864-.911996-2.391995-1.632-3.384-1.623995-1.791997-2.712-2.4-2.351993-.912-3.792-.912zm0-2.544c1.888009 0 3.559993.351996 5.016 1.056s2.679995 1.647994 3.672 2.832 1.743997 2.567992 2.256 4.152.768 3.271991.768 5.064-.255997 3.479992-.768 5.064-1.263995 2.967994-2.256 4.152-2.215993 2.119997-3.672 2.808-3.127991 1.032-5.016 1.032-3.559993-.343997-5.016-1.032-2.679995-1.623994-3.672-2.808-1.743997-2.567992-2.256-4.152-.768-3.271991-.768-5.064.255997-3.479992.768-5.064 1.263995-2.967994 2.256-4.152 2.215993-2.127996 3.672-2.832 3.127991-1.056 5.016-1.056zm31.584 8.352c0 1.856009.247998 3.687991.744 5.496s1.263995 3.423993 2.304 4.848 2.375992 2.567996 4.008 3.432 3.583989 1.296 5.856 1.296 4.215992-.431996 5.832-1.296 2.943995-2.007993 3.984-3.432 1.807998-3.039991 2.304-4.848.744-3.639991.744-5.496c0-1.888009-.247998-3.727991-.744-5.52s-1.263995-3.399993-2.304-4.824-2.367992-2.567996-3.984-3.432-3.559989-1.296-5.832-1.296-4.223992.431996-5.856 1.296-2.967995 2.007993-4.008 3.432-1.807998 3.031991-2.304 4.824-.744 3.631991-.744 5.52zm-3.264 0c0-2.368012.335997-4.623989 1.008-6.768s1.679993-4.039992 3.024-5.688 3.03199-2.959995 5.064-3.936 4.391987-1.464 7.08-1.464 5.03999.487995 7.056 1.464 3.695993 2.287992 5.04 3.936 2.351997 3.543989 3.024 5.688 1.008 4.399988 1.008 6.768-.335997 4.623989-1.008 6.768-1.679993 4.031992-3.024 5.664-3.02399 2.935995-5.04 3.912-4.367987 1.464-7.056 1.464-5.04799-.487995-7.08-1.464-3.719993-2.279992-5.064-3.912-2.351997-3.519989-3.024-5.664-1.008-4.399988-1.008-6.768zm56.88 17.136h-2.784v-4.464h-.096c-.800004 1.664008-1.959992 2.935996-3.48 3.816s-3.207991 1.32-5.064 1.32c-1.568008 0-2.903994-.215998-4.008-.648s-1.999997-1.047996-2.688-1.848-1.191998-1.775994-1.512-2.928-.48-2.463993-.48-3.936v-16.08h3.024v16.128c.064 2.240011.583995 3.935994 1.56 5.088s2.663988 1.728 5.064 1.728c1.312007 0 2.431995-.279997 3.36-.84s1.695997-1.303995 2.304-2.232 1.055999-1.991994 1.344-3.192.432-2.423994.432-3.672v-13.008h3.024zm10.512-24.768h5.04v2.544h-5.04v16.704c0 .992005.135999 1.767997.408 2.328s.951995.872 2.04.936c.864004 0 1.727996-.048 2.592-.144v2.544c-.448002 0-.895998.016-1.344.048s-.895998.048-1.344.048c-2.01601 0-3.423996-.391996-4.224-1.176s-1.184-2.231989-1.152-4.344v-16.944h-4.32v-2.544h4.32v-7.44h3.024zm11.184 24.768v-5.088h4.032v5.088zm39.312-34.272h3.264v24.72c0 1.760009-.176 3.279994-.528 4.56s-.92 2.335996-1.704 3.168-1.80799 1.455998-3.072 1.872-2.82399.624-4.68.624c-1.95201 0-3.55199-.327997-4.8-.984s-2.223996-1.519995-2.928-2.592-1.183999-2.311993-1.44-3.72-.384-2.863992-.384-4.368h3.264c.032.736004.08 1.615995.144 2.64s.288 1.999995.672 2.928 1.016 1.719997 1.896 2.376 2.16799.984 3.864.984c1.28001 0 2.336-.167998 3.168-.504s1.488-.863996 1.968-1.584.816-1.639994 1.008-2.76.288-2.463992.288-4.032zm20.064 11.328c-1.44001 0-2.70399.303997-3.792.912s-1.992 1.407995-2.712 2.4-1.264 2.119994-1.632 3.384-.552 2.551993-.552 3.864.184 2.599994.552 3.864.912 2.391995 1.632 3.384 1.62399 1.791997 2.712 2.4 2.35199.912 3.792.912 2.70399-.303997 3.792-.912 1.992-1.407995 2.712-2.4 1.264-2.119994 1.632-3.384.552-2.551993.552-3.864-.184-2.599994-.552-3.864-.912-2.391995-1.632-3.384-1.62399-1.791997-2.712-2.4-2.35199-.912-3.792-.912zm0-2.544c1.88801 0 3.55999.351996 5.016 1.056s2.68 1.647994 3.672 2.832 1.744 2.567992 2.256 4.152.768 3.271991.768 5.064-.256 3.479992-.768 5.064-1.264 2.967994-2.256 4.152-2.21599 2.119997-3.672 2.808-3.12799 1.032-5.016 1.032-3.55999-.343997-5.016-1.032-2.68-1.623994-3.672-2.808-1.744-2.567992-2.256-4.152-.768-3.271991-.768-5.064.256-3.479992.768-5.064 1.264-2.967994 2.256-4.152 2.21599-2.127996 3.672-2.832 3.12799-1.056 5.016-1.056zm16.272-8.784h3.024v4.848h-3.024zm0 9.504h3.024v24.768h-3.024zm8.784 0h3.024v4.272h.096c.576-1.504008 1.59999-2.711995 3.072-3.624s3.08799-1.368 4.848-1.368c1.72801 0 3.17599.223998 4.344.672s2.104 1.079996 2.808 1.896 1.2 1.815994 1.488 3 .432 2.511993.432 3.984v15.936h-3.024v-15.456c0-1.056005-.096-2.039995-.288-2.952s-.528-1.703997-1.008-2.376-1.128-1.199998-1.944-1.584-1.83199-.576-3.048-.576-2.296.215998-3.24.648-1.744 1.023996-2.4 1.776-1.168 1.647995-1.536 2.688-.568 2.167994-.6 3.384v14.448h-3.024zm27.6 24.768v-5.088h4.032v5.088zm50.544-23.904c-.288-1.312007-.76-2.487995-1.416-3.528s-1.456-1.911996-2.4-2.616-1.98399-1.239998-3.12-1.608-2.32799-.552-3.576-.552c-2.27201 0-4.22399.431996-5.856 1.296s-2.96799 2.007993-4.008 3.432-1.808 3.031991-2.304 4.824-.744 3.631991-.744 5.52c0 1.856009.248 3.687991.744 5.496s1.26399 3.423993 2.304 4.848 2.37599 2.567996 4.008 3.432 3.58399 1.296 5.856 1.296c1.60001 0 3.03999-.287997 4.32-.864s2.384-1.359995 3.312-2.352 1.68-2.151993 2.256-3.48.944-2.759992 1.104-4.296h3.264c-.224 2.112011-.72 4.015992-1.488 5.712s-1.75999 3.135994-2.976 4.32-2.64799 2.095997-4.296 2.736-3.47999.96-5.496.96c-2.68801 0-5.04799-.487995-7.08-1.464s-3.71999-2.279992-5.064-3.912-2.352-3.519989-3.024-5.664-1.008-4.399988-1.008-6.768.336-4.623989 1.008-6.768 1.67999-4.039992 3.024-5.688 3.03199-2.959995 5.064-3.936 4.39199-1.464 7.08-1.464c1.63201 0 3.22399.239998 4.776.72s2.95999 1.191995 4.224 2.136 2.32 2.103993 3.168 3.48 1.384 2.959991 1.608 4.752zm8.112-10.368h3.024v13.776h.096c.576-1.504008 1.59999-2.711995 3.072-3.624s3.08799-1.368 4.848-1.368c1.72801 0 3.17599.223998 4.344.672s2.104 1.079996 2.808 1.896 1.2 1.815994 1.488 3 .432 2.511993.432 3.984v15.936h-3.024v-15.456c0-1.056005-.096-2.039995-.288-2.952s-.528-1.703997-1.008-2.376-1.128-1.199998-1.944-1.584-1.83199-.576-3.048-.576-2.296.215998-3.24.648-1.744 1.023996-2.4 1.776-1.168 1.647995-1.536 2.688-.568 2.167994-.6 3.384v14.448h-3.024zm25.536 17.088c.096-1.440007.4-2.687995.912-3.744s1.208-1.919997 2.088-2.592 1.91199-1.167998 3.096-1.488 2.49599-.48 3.936-.48c1.08801 0 2.17599.103999 3.264.312s2.064.599997 2.928 1.176 1.568 1.383995 2.112 2.424.816 2.391992.816 4.056v13.152c0 1.216006.59199 1.824 1.776 1.824.352 0 .672-.063999.96-.192v2.544c-.352.064-.664.112-.936.144s-.616.048-1.032.048c-.768 0-1.384-.103999-1.848-.312s-.824-.503998-1.08-.888-.424-.839997-.504-1.368-.12-1.111997-.12-1.752h-.096c-.544.800004-1.096 1.511997-1.656 2.136s-1.184 1.143998-1.872 1.56-1.472.735999-2.352.96-1.92799.336-3.144.336c-1.15201 0-2.23199-.135999-3.24-.408s-1.888-.703997-2.64-1.296-1.344-1.343995-1.776-2.256-.648-1.991994-.648-3.24c0-1.728009.384-3.079995 1.152-4.056s1.78399-1.719997 3.048-2.232 2.68799-.871999 4.272-1.08 3.19199-.407999 4.824-.6c.64-.064 1.2-.144 1.68-.24s.88-.263999 1.2-.504.568-.567998.744-.984.264-.959997.264-1.632c0-1.024005-.168-1.863997-.504-2.52s-.8-1.175998-1.392-1.56-1.28-.647999-2.064-.792-1.624-.216-2.52-.216c-1.92001 0-3.48799.455995-4.704 1.368s-1.856 2.37599-1.92 4.392zm16.128 3.648h-.096c-.192.352002-.56.607999-1.104.768s-1.024.272-1.44.336c-1.28001.224001-2.59999.423999-3.96.6s-2.59999.439998-3.72.792-2.04.855997-2.76 1.512-1.08 1.591994-1.08 2.808c0 .768004.152 1.447997.456 2.04s.712 1.103998 1.224 1.536 1.104.759999 1.776.984 1.36.336 2.064.336c1.15201 0 2.25599-.175998 3.312-.528s1.976-.863997 2.76-1.536 1.408-1.487995 1.872-2.448.696-2.047994.696-3.264zm13.872-11.232h5.04v2.544h-5.04v16.704c0 .992005.136 1.767997.408 2.328s.95199.872 2.04.936c.864 0 1.728-.048 2.592-.144v2.544c-.448 0-.896.016-1.344.048s-.896.048-1.344.048c-2.01601 0-3.424-.391996-4.224-1.176s-1.184-2.231989-1.152-4.344v-16.944h-4.32v-2.544h4.32v-7.44h3.024z" fill="#fff" transform="translate(-598 -515)"/></svg>