<?xml version="1.0" encoding="UTF-8"?>
<svg width="608px" height="36px" viewBox="0 0 608 36" version="1.1" xmlns="http://www.w3.org/2000/svg" xmlns:xlink="http://www.w3.org/1999/xlink">
    <!-- Generator: Sketch 53.2 (72643) - https://sketchapp.com -->
    <title>FindBars.GoOut.Join.Chat</title>
    <desc>Created with Sketch.</desc>
    <g id="personalwebsite" stroke="none" stroke-width="1" fill="none" fill-rule="evenodd">
        <g id="t" transform="translate(-598.000000, -515.000000)" fill="#FFFFFF" fill-rule="nonzero">
            <path d="M598.6,515.728 L620.344,515.728 L620.344,518.512 L601.864,518.512 L601.864,530.896 L618.28,530.896 L618.28,533.68 L601.864,533.68 L601.864,550 L598.6,550 L598.6,515.728 Z M623.848,515.728 L626.872,515.728 L626.872,520.576 L623.848,520.576 L623.848,515.728 Z M623.848,525.232 L626.872,525.232 L626.872,550 L623.848,550 L623.848,525.232 Z M632.632,525.232 L635.656,525.232 L635.656,529.504 L635.752,529.504 C636.328003,527.999992 637.351993,526.792005 638.824,525.88 C640.296007,524.967995 641.911991,524.512 643.672,524.512 C645.400009,524.512 646.847994,524.735998 648.016,525.184 C649.184006,525.632002 650.119996,526.263996 650.824,527.08 C651.528004,527.896004 652.023999,528.895994 652.312,530.08 C652.600001,531.264006 652.744,532.591993 652.744,534.064 L652.744,550 L649.72,550 L649.72,534.544 C649.72,533.487995 649.624001,532.504005 649.432,531.592 C649.239999,530.679995 648.904002,529.888003 648.424,529.216 C647.943998,528.543997 647.296004,528.016002 646.48,527.632 C645.663996,527.247998 644.648006,527.056 643.432,527.056 C642.215994,527.056 641.136005,527.271998 640.192,527.704 C639.247995,528.136002 638.448003,528.727996 637.792,529.48 C637.135997,530.232004 636.624002,531.127995 636.256,532.168 C635.887998,533.208005 635.688,534.335994 635.656,535.552 L635.656,550 L632.632,550 L632.632,525.232 Z M680.248,550 L677.464,550 L677.464,545.296 L677.368,545.296 C677.047998,546.096004 676.576003,546.831997 675.952,547.504 C675.327997,548.176003 674.616004,548.743998 673.816,549.208 C673.015996,549.672002 672.160005,550.031999 671.248,550.288 C670.335995,550.544001 669.432004,550.672 668.536,550.672 C666.647991,550.672 665.008007,550.328003 663.616,549.64 C662.223993,548.951997 661.064005,548.008006 660.136,546.808 C659.207995,545.607994 658.520002,544.216008 658.072,542.632 C657.623998,541.047992 657.4,539.376009 657.4,537.616 C657.4,535.855991 657.623998,534.184008 658.072,532.6 C658.520002,531.015992 659.207995,529.624006 660.136,528.424 C661.064005,527.223994 662.223993,526.272004 663.616,525.568 C665.008007,524.863996 666.647991,524.512 668.536,524.512 C669.464005,524.512 670.367996,524.623999 671.248,524.848 C672.128004,525.072001 672.951996,525.415998 673.72,525.88 C674.488004,526.344002 675.167997,526.911997 675.76,527.584 C676.352003,528.256003 676.807998,529.039996 677.128,529.936 L677.224,529.936 L677.224,515.728 L680.248,515.728 L680.248,550 Z M660.424,537.616 C660.424,538.896006 660.575998,540.167994 660.88,541.432 C661.184002,542.696006 661.663997,543.823995 662.32,544.816 C662.976003,545.808005 663.815995,546.615997 664.84,547.24 C665.864005,547.864003 667.095993,548.176 668.536,548.176 C670.136008,548.176 671.487994,547.864003 672.592,547.24 C673.696006,546.615997 674.591997,545.808005 675.28,544.816 C675.968003,543.823995 676.463998,542.696006 676.768,541.432 C677.072002,540.167994 677.224,538.896006 677.224,537.616 C677.224,536.335994 677.072002,535.064006 676.768,533.8 C676.463998,532.535994 675.968003,531.408005 675.28,530.416 C674.591997,529.423995 673.696006,528.616003 672.592,527.992 C671.487994,527.367997 670.136008,527.056 668.536,527.056 C667.095993,527.056 665.864005,527.367997 664.84,527.992 C663.815995,528.616003 662.976003,529.423995 662.32,530.416 C661.663997,531.408005 661.184002,532.535994 660.88,533.8 C660.575998,535.064006 660.424,536.335994 660.424,537.616 Z M703.192,530.752 L714.424,530.752 C715.736007,530.752 716.871995,530.600002 717.832,530.296 C718.792005,529.991998 719.591997,529.576003 720.232,529.048 C720.872003,528.519997 721.351998,527.904004 721.672,527.2 C721.992002,526.495996 722.152,525.744004 722.152,524.944 C722.152,520.655979 719.576026,518.512 714.424,518.512 L703.192,518.512 L703.192,530.752 Z M699.928,515.728 L714.424,515.728 C715.864007,515.728 717.247993,515.863999 718.576,516.136 C719.904007,516.408001 721.071995,516.871997 722.08,517.528 C723.088005,518.184003 723.895997,519.047995 724.504,520.12 C725.112003,521.192005 725.416,522.527992 725.416,524.128 C725.416,525.024004 725.272001,525.895996 724.984,526.744 C724.695999,527.592004 724.288003,528.359997 723.76,529.048 C723.231997,529.736003 722.608004,530.319998 721.888,530.8 C721.167996,531.280002 720.360004,531.615999 719.464,531.808 L719.464,531.904 C721.672011,532.192001 723.431993,533.095992 724.744,534.616 C726.056007,536.136008 726.712,538.015989 726.712,540.256 C726.712,540.800003 726.664,541.415997 726.568,542.104 C726.472,542.792003 726.280001,543.495996 725.992,544.216 C725.703999,544.936004 725.288003,545.647996 724.744,546.352 C724.199997,547.056004 723.472005,547.671997 722.56,548.2 C721.647995,548.728003 720.528007,549.159998 719.2,549.496 C717.871993,549.832002 716.280009,550 714.424,550 L699.928,550 L699.928,515.728 Z M703.192,547.216 L714.424,547.216 C715.640006,547.216 716.791995,547.112001 717.88,546.904 C718.968005,546.695999 719.927996,546.320003 720.76,545.776 C721.592004,545.231997 722.247998,544.504005 722.728,543.592 C723.208002,542.679995 723.448,541.536007 723.448,540.16 C723.448,537.951989 722.672008,536.296006 721.12,535.192 C719.567992,534.087994 717.336015,533.536 714.424,533.536 L703.192,533.536 L703.192,547.216 Z M731.08,532.816 C731.176,531.375993 731.479997,530.128005 731.992,529.072 C732.504003,528.015995 733.199996,527.152003 734.08,526.48 C734.960004,525.807997 735.991994,525.312002 737.176,524.992 C738.360006,524.671998 739.671993,524.512 741.112,524.512 C742.200005,524.512 743.287995,524.615999 744.376,524.824 C745.464005,525.032001 746.439996,525.423997 747.304,526 C748.168004,526.576003 748.871997,527.383995 749.416,528.424 C749.960003,529.464005 750.232,530.815992 750.232,532.48 L750.232,545.632 C750.232,546.848006 750.823994,547.456 752.008,547.456 C752.360002,547.456 752.679999,547.392001 752.968,547.264 L752.968,549.808 C752.615998,549.872 752.304001,549.92 752.032,549.952 C751.759999,549.984 751.416002,550 751,550 C750.231996,550 749.616002,549.896001 749.152,549.688 C748.687998,549.479999 748.328001,549.184002 748.072,548.8 C747.815999,548.415998 747.648,547.960003 747.568,547.432 C747.488,546.903997 747.448,546.320003 747.448,545.68 L747.352,545.68 C746.807997,546.480004 746.256003,547.191997 745.696,547.816 C745.135997,548.440003 744.512003,548.959998 743.824,549.376 C743.135997,549.792002 742.352004,550.111999 741.472,550.336 C740.591996,550.560001 739.544006,550.672 738.328,550.672 C737.175994,550.672 736.096005,550.536001 735.088,550.264 C734.079995,549.991999 733.200004,549.560003 732.448,548.968 C731.695996,548.375997 731.104002,547.624005 730.672,546.712 C730.239998,545.799995 730.024,544.720006 730.024,543.472 C730.024,541.743991 730.407996,540.392005 731.176,539.416 C731.944004,538.439995 732.959994,537.696003 734.224,537.184 C735.488006,536.671997 736.911992,536.312001 738.496,536.104 C740.080008,535.895999 741.687992,535.696001 743.32,535.504 C743.960003,535.44 744.519998,535.36 745,535.264 C745.480002,535.168 745.879998,535.000001 746.2,534.76 C746.520002,534.519999 746.767999,534.192002 746.944,533.776 C747.120001,533.359998 747.208,532.816003 747.208,532.144 C747.208,531.119995 747.040002,530.280003 746.704,529.624 C746.367998,528.967997 745.904003,528.448002 745.312,528.064 C744.719997,527.679998 744.032004,527.416001 743.248,527.272 C742.463996,527.127999 741.624004,527.056 740.728,527.056 C738.80799,527.056 737.240006,527.511995 736.024,528.424 C734.807994,529.336005 734.168,530.79999 734.104,532.816 L731.08,532.816 Z M747.208,536.464 L747.112,536.464 C746.919999,536.816002 746.552003,537.071999 746.008,537.232 C745.463997,537.392001 744.984002,537.504 744.568,537.568 C743.287994,537.792001 741.968007,537.991999 740.608,538.168 C739.247993,538.344001 738.008006,538.607998 736.888,538.96 C735.767994,539.312002 734.848004,539.815997 734.128,540.472 C733.407996,541.128003 733.048,542.063994 733.048,543.28 C733.048,544.048004 733.199998,544.727997 733.504,545.32 C733.808002,545.912003 734.215997,546.423998 734.728,546.856 C735.240003,547.288002 735.831997,547.615999 736.504,547.84 C737.176003,548.064001 737.863996,548.176 738.568,548.176 C739.720006,548.176 740.823995,548.000002 741.88,547.648 C742.936005,547.295998 743.855996,546.784003 744.64,546.112 C745.424004,545.439997 746.047998,544.624005 746.512,543.664 C746.976002,542.703995 747.208,541.616006 747.208,540.4 L747.208,536.464 Z M756.28,525.232 L759.064,525.232 L759.064,531.04 L759.16,531.04 C759.928004,529.02399 761.119992,527.472005 762.736,526.384 C764.352008,525.295995 766.279989,524.8 768.52,524.896 L768.52,527.92 C767.143993,527.856 765.896006,528.039998 764.776,528.472 C763.655994,528.904002 762.688004,529.519996 761.872,530.32 C761.055996,531.120004 760.424002,532.071994 759.976,533.176 C759.527998,534.280006 759.304,535.487993 759.304,536.8 L759.304,550 L756.28,550 L756.28,525.232 Z M786.232,532.48 C786.2,531.551995 786.008002,530.744003 785.656,530.056 C785.303998,529.367997 784.832003,528.800002 784.24,528.352 C783.647997,527.903998 782.968004,527.576001 782.2,527.368 C781.431996,527.159999 780.616004,527.056 779.752,527.056 C779.079997,527.056 778.400003,527.127999 777.712,527.272 C777.023997,527.416001 776.392003,527.655998 775.816,527.992 C775.239997,528.328002 774.776002,528.767997 774.424,529.312 C774.071998,529.856003 773.896,530.527996 773.896,531.328 C773.896,532.000003 774.063998,532.567998 774.4,533.032 C774.736002,533.496002 775.159997,533.887998 775.672,534.208 C776.184003,534.528002 776.743997,534.791999 777.352,535 C777.960003,535.208001 778.519997,535.375999 779.032,535.504 L783.064,536.416 C783.928004,536.544001 784.783996,536.775998 785.632,537.112 C786.480004,537.448002 787.231997,537.887997 787.888,538.432 C788.544003,538.976003 789.079998,539.647996 789.496,540.448 C789.912002,541.248004 790.12,542.191995 790.12,543.28 C790.12,544.624007 789.816003,545.767995 789.208,546.712 C788.599997,547.656005 787.824005,548.423997 786.88,549.016 C785.935995,549.608003 784.872006,550.031999 783.688,550.288 C782.503994,550.544001 781.336006,550.672 780.184,550.672 C777.271985,550.672 774.912009,549.984007 773.104,548.608 C771.295991,547.231993 770.264001,545.024015 770.008,541.984 L773.032,541.984 C773.160001,544.03201 773.903993,545.575995 775.264,546.616 C776.624007,547.656005 778.31199,548.176 780.328,548.176 C781.064004,548.176 781.823996,548.096001 782.608,547.936 C783.392004,547.775999 784.119997,547.504002 784.792,547.12 C785.464003,546.735998 786.015998,546.248003 786.448,545.656 C786.880002,545.063997 787.096,544.336004 787.096,543.472 C787.096,542.735996 786.944002,542.120002 786.64,541.624 C786.335998,541.127998 785.928003,540.712002 785.416,540.376 C784.903997,540.039998 784.320003,539.760001 783.664,539.536 C783.007997,539.311999 782.344003,539.120001 781.672,538.96 L777.784,538.096 C776.791995,537.839999 775.880004,537.544002 775.048,537.208 C774.215996,536.871998 773.488003,536.456002 772.864,535.96 C772.239997,535.463998 771.752002,534.856004 771.4,534.136 C771.047998,533.415996 770.872,532.528005 770.872,531.472 C770.872,530.223994 771.151997,529.152004 771.712,528.256 C772.272003,527.359996 772.999996,526.640003 773.896,526.096 C774.792004,525.551997 775.791994,525.152001 776.896,524.896 C778.000006,524.639999 779.095995,524.512 780.184,524.512 C781.432006,524.512 782.591995,524.671998 783.664,524.992 C784.736005,525.312002 785.679996,525.807997 786.496,526.48 C787.312004,527.152003 787.959998,527.983995 788.44,528.976 C788.920002,529.968005 789.192,531.135993 789.256,532.48 L786.232,532.48 Z M796.264,550 L796.264,544.912 L800.296,544.912 L800.296,550 L796.264,550 Z M851.032,550 L848.68,550 L848.248,543.76 L848.152,543.76 C847.575997,544.976006 846.864004,546.023996 846.016,546.904 C845.167996,547.784004 844.232005,548.503997 843.208,549.064 C842.183995,549.624003 841.088006,550.031999 839.92,550.288 C838.751994,550.544001 837.544006,550.672 836.296,550.672 C833.607987,550.672 831.24801,550.184005 829.216,549.208 C827.18399,548.231995 825.496007,546.928008 824.152,545.296 C822.807993,543.663992 821.800003,541.776011 821.128,539.632 C820.455997,537.487989 820.12,535.232012 820.12,532.864 C820.12,530.495988 820.455997,528.240011 821.128,526.096 C821.800003,523.951989 822.807993,522.056008 824.152,520.408 C825.496007,518.759992 827.18399,517.448005 829.216,516.472 C831.24801,515.495995 833.607987,515.008 836.296,515.008 C838.088009,515.008 839.783992,515.247998 841.384,515.728 C842.984008,516.208002 844.407994,516.927995 845.656,517.888 C846.904006,518.848005 847.959996,520.031993 848.824,521.44 C849.688004,522.848007 850.279998,524.495991 850.6,526.384 L847.336,526.384 C847.24,525.391995 846.912003,524.392005 846.352,523.384 C845.791997,522.375995 845.040005,521.456004 844.096,520.624 C843.151995,519.791996 842.024007,519.112003 840.712,518.584 C839.399993,518.055997 837.928008,517.792 836.296,517.792 C834.023989,517.792 832.072008,518.223996 830.44,519.088 C828.807992,519.952004 827.472005,521.095993 826.432,522.52 C825.391995,523.944007 824.624002,525.551991 824.128,527.344 C823.631998,529.136009 823.384,530.975991 823.384,532.864 C823.384,534.720009 823.631998,536.551991 824.128,538.36 C824.624002,540.168009 825.391995,541.783993 826.432,543.208 C827.472005,544.632007 828.807992,545.775996 830.44,546.64 C832.072008,547.504004 834.023989,547.936 836.296,547.936 C838.184009,547.936 839.871993,547.624003 841.36,547 C842.848007,546.375997 844.103995,545.504006 845.128,544.384 C846.152005,543.263994 846.919997,541.936008 847.432,540.4 C847.944003,538.863992 848.184,537.184009 848.152,535.36 L836.488,535.36 L836.488,532.576 L851.032,532.576 L851.032,550 Z M867.208,527.056 C865.767993,527.056 864.504005,527.359997 863.416,527.968 C862.327995,528.576003 861.424004,529.375995 860.704,530.368 C859.983996,531.360005 859.440002,532.487994 859.072,533.752 C858.703998,535.016006 858.52,536.303993 858.52,537.616 C858.52,538.928007 858.703998,540.215994 859.072,541.48 C859.440002,542.744006 859.983996,543.871995 860.704,544.864 C861.424004,545.856005 862.327995,546.655997 863.416,547.264 C864.504005,547.872003 865.767993,548.176 867.208,548.176 C868.648007,548.176 869.911995,547.872003 871,547.264 C872.088005,546.655997 872.991996,545.856005 873.712,544.864 C874.432004,543.871995 874.975998,542.744006 875.344,541.48 C875.712002,540.215994 875.896,538.928007 875.896,537.616 C875.896,536.303993 875.712002,535.016006 875.344,533.752 C874.975998,532.487994 874.432004,531.360005 873.712,530.368 C872.991996,529.375995 872.088005,528.576003 871,527.968 C869.911995,527.359997 868.648007,527.056 867.208,527.056 Z M867.208,524.512 C869.096009,524.512 870.767993,524.863996 872.224,525.568 C873.680007,526.272004 874.903995,527.215994 875.896,528.4 C876.888005,529.584006 877.639997,530.967992 878.152,532.552 C878.664003,534.136008 878.92,535.823991 878.92,537.616 C878.92,539.408009 878.664003,541.095992 878.152,542.68 C877.639997,544.264008 876.888005,545.647994 875.896,546.832 C874.903995,548.016006 873.680007,548.951997 872.224,549.64 C870.767993,550.328003 869.096009,550.672 867.208,550.672 C865.319991,550.672 863.648007,550.328003 862.192,549.64 C860.735993,548.951997 859.512005,548.016006 858.52,546.832 C857.527995,545.647994 856.776003,544.264008 856.264,542.68 C855.751997,541.095992 855.496,539.408009 855.496,537.616 C855.496,535.823991 855.751997,534.136008 856.264,532.552 C856.776003,530.967992 857.527995,529.584006 858.52,528.4 C859.512005,527.215994 860.735993,526.272004 862.192,525.568 C863.648007,524.863996 865.319991,524.512 867.208,524.512 Z M898.792,532.864 C898.792,534.720009 899.039998,536.551991 899.536,538.36 C900.032002,540.168009 900.799995,541.783993 901.84,543.208 C902.880005,544.632007 904.215992,545.775996 905.848,546.64 C907.480008,547.504004 909.431989,547.936 911.704,547.936 C913.976011,547.936 915.919992,547.504004 917.536,546.64 C919.152008,545.775996 920.479995,544.632007 921.52,543.208 C922.560005,541.783993 923.327998,540.168009 923.824,538.36 C924.320002,536.551991 924.568,534.720009 924.568,532.864 C924.568,530.975991 924.320002,529.136009 923.824,527.344 C923.327998,525.551991 922.560005,523.944007 921.52,522.52 C920.479995,521.095993 919.152008,519.952004 917.536,519.088 C915.919992,518.223996 913.976011,517.792 911.704,517.792 C909.431989,517.792 907.480008,518.223996 905.848,519.088 C904.215992,519.952004 902.880005,521.095993 901.84,522.52 C900.799995,523.944007 900.032002,525.551991 899.536,527.344 C899.039998,529.136009 898.792,530.975991 898.792,532.864 Z M895.528,532.864 C895.528,530.495988 895.863997,528.240011 896.536,526.096 C897.208003,523.951989 898.215993,522.056008 899.56,520.408 C900.904007,518.759992 902.59199,517.448005 904.624,516.472 C906.65601,515.495995 909.015987,515.008 911.704,515.008 C914.392013,515.008 916.74399,515.495995 918.76,516.472 C920.77601,517.448005 922.455993,518.759992 923.8,520.408 C925.144007,522.056008 926.151997,523.951989 926.824,526.096 C927.496003,528.240011 927.832,530.495988 927.832,532.864 C927.832,535.232012 927.496003,537.487989 926.824,539.632 C926.151997,541.776011 925.144007,543.663992 923.8,545.296 C922.455993,546.928008 920.77601,548.231995 918.76,549.208 C916.74399,550.184005 914.392013,550.672 911.704,550.672 C909.015987,550.672 906.65601,550.184005 904.624,549.208 C902.59199,548.231995 900.904007,546.928008 899.56,545.296 C898.215993,543.663992 897.208003,541.776011 896.536,539.632 C895.863997,537.487989 895.528,535.232012 895.528,532.864 Z M952.408,550 L949.624,550 L949.624,545.536 L949.528,545.536 C948.727996,547.200008 947.568008,548.471996 946.048,549.352 C944.527992,550.232004 942.840009,550.672 940.984,550.672 C939.415992,550.672 938.080006,550.456002 936.976,550.024 C935.871994,549.591998 934.976003,548.976004 934.288,548.176 C933.599997,547.375996 933.096002,546.400006 932.776,545.248 C932.455998,544.095994 932.296,542.784007 932.296,541.312 L932.296,525.232 L935.32,525.232 L935.32,541.36 C935.384,543.600011 935.903995,545.295994 936.88,546.448 C937.856005,547.600006 939.543988,548.176 941.944,548.176 C943.256007,548.176 944.375995,547.896003 945.304,547.336 C946.232005,546.775997 946.999997,546.032005 947.608,545.104 C948.216003,544.175995 948.663999,543.112006 948.952,541.912 C949.240001,540.711994 949.384,539.488006 949.384,538.24 L949.384,525.232 L952.408,525.232 L952.408,550 Z M962.92,525.232 L967.96,525.232 L967.96,527.776 L962.92,527.776 L962.92,544.48 C962.92,545.472005 963.055999,546.247997 963.328,546.808 C963.600001,547.368003 964.279995,547.68 965.368,547.744 C966.232004,547.744 967.095996,547.696 967.96,547.6 L967.96,550.144 C967.511998,550.144 967.064002,550.16 966.616,550.192 C966.167998,550.224 965.720002,550.24 965.272,550.24 C963.25599,550.24 961.848004,549.848004 961.048,549.064 C960.247996,548.279996 959.864,546.832011 959.896,544.72 L959.896,527.776 L955.576,527.776 L955.576,525.232 L959.896,525.232 L959.896,517.792 L962.92,517.792 L962.92,525.232 Z M974.104,550 L974.104,544.912 L978.136,544.912 L978.136,550 L974.104,550 Z M1013.416,515.728 L1016.68,515.728 L1016.68,540.448 C1016.68,542.208009 1016.504,543.727994 1016.152,545.008 C1015.8,546.288006 1015.232,547.343996 1014.448,548.176 C1013.664,549.008004 1012.64001,549.631998 1011.376,550.048 C1010.11199,550.464002 1008.55201,550.672 1006.696,550.672 C1004.74399,550.672 1003.14401,550.344003 1001.896,549.688 C1000.64799,549.031997 999.672004,548.168005 998.968,547.096 C998.263996,546.023995 997.784001,544.784007 997.528,543.376 C997.271999,541.967993 997.144,540.512008 997.144,539.008 L1000.408,539.008 C1000.44,539.744004 1000.488,540.623995 1000.552,541.648 C1000.616,542.672005 1000.84,543.647995 1001.224,544.576 C1001.608,545.504005 1002.24,546.295997 1003.12,546.952 C1004,547.608003 1005.28799,547.936 1006.984,547.936 C1008.26401,547.936 1009.32,547.768002 1010.152,547.432 C1010.984,547.095998 1011.64,546.568004 1012.12,545.848 C1012.6,545.127996 1012.936,544.208006 1013.128,543.088 C1013.32,541.967994 1013.416,540.624008 1013.416,539.056 L1013.416,515.728 Z M1033.48,527.056 C1032.03999,527.056 1030.77601,527.359997 1029.688,527.968 C1028.59999,528.576003 1027.696,529.375995 1026.976,530.368 C1026.256,531.360005 1025.712,532.487994 1025.344,533.752 C1024.976,535.016006 1024.792,536.303993 1024.792,537.616 C1024.792,538.928007 1024.976,540.215994 1025.344,541.48 C1025.712,542.744006 1026.256,543.871995 1026.976,544.864 C1027.696,545.856005 1028.59999,546.655997 1029.688,547.264 C1030.77601,547.872003 1032.03999,548.176 1033.48,548.176 C1034.92001,548.176 1036.18399,547.872003 1037.272,547.264 C1038.36001,546.655997 1039.264,545.856005 1039.984,544.864 C1040.704,543.871995 1041.248,542.744006 1041.616,541.48 C1041.984,540.215994 1042.168,538.928007 1042.168,537.616 C1042.168,536.303993 1041.984,535.016006 1041.616,533.752 C1041.248,532.487994 1040.704,531.360005 1039.984,530.368 C1039.264,529.375995 1038.36001,528.576003 1037.272,527.968 C1036.18399,527.359997 1034.92001,527.056 1033.48,527.056 Z M1033.48,524.512 C1035.36801,524.512 1037.03999,524.863996 1038.496,525.568 C1039.95201,526.272004 1041.176,527.215994 1042.168,528.4 C1043.16,529.584006 1043.912,530.967992 1044.424,532.552 C1044.936,534.136008 1045.192,535.823991 1045.192,537.616 C1045.192,539.408009 1044.936,541.095992 1044.424,542.68 C1043.912,544.264008 1043.16,545.647994 1042.168,546.832 C1041.176,548.016006 1039.95201,548.951997 1038.496,549.64 C1037.03999,550.328003 1035.36801,550.672 1033.48,550.672 C1031.59199,550.672 1029.92001,550.328003 1028.464,549.64 C1027.00799,548.951997 1025.784,548.016006 1024.792,546.832 C1023.8,545.647994 1023.048,544.264008 1022.536,542.68 C1022.024,541.095992 1021.768,539.408009 1021.768,537.616 C1021.768,535.823991 1022.024,534.136008 1022.536,532.552 C1023.048,530.967992 1023.8,529.584006 1024.792,528.4 C1025.784,527.215994 1027.00799,526.272004 1028.464,525.568 C1029.92001,524.863996 1031.59199,524.512 1033.48,524.512 Z M1049.752,515.728 L1052.776,515.728 L1052.776,520.576 L1049.752,520.576 L1049.752,515.728 Z M1049.752,525.232 L1052.776,525.232 L1052.776,550 L1049.752,550 L1049.752,525.232 Z M1058.536,525.232 L1061.56,525.232 L1061.56,529.504 L1061.656,529.504 C1062.232,527.999992 1063.25599,526.792005 1064.728,525.88 C1066.20001,524.967995 1067.81599,524.512 1069.576,524.512 C1071.30401,524.512 1072.75199,524.735998 1073.92,525.184 C1075.08801,525.632002 1076.024,526.263996 1076.728,527.08 C1077.432,527.896004 1077.928,528.895994 1078.216,530.08 C1078.504,531.264006 1078.648,532.591993 1078.648,534.064 L1078.648,550 L1075.624,550 L1075.624,534.544 C1075.624,533.487995 1075.528,532.504005 1075.336,531.592 C1075.144,530.679995 1074.808,529.888003 1074.328,529.216 C1073.848,528.543997 1073.2,528.016002 1072.384,527.632 C1071.568,527.247998 1070.55201,527.056 1069.336,527.056 C1068.11999,527.056 1067.04,527.271998 1066.096,527.704 C1065.152,528.136002 1064.352,528.727996 1063.696,529.48 C1063.04,530.232004 1062.528,531.127995 1062.16,532.168 C1061.792,533.208005 1061.592,534.335994 1061.56,535.552 L1061.56,550 L1058.536,550 L1058.536,525.232 Z M1086.136,550 L1086.136,544.912 L1090.168,544.912 L1090.168,550 L1086.136,550 Z M1136.68,526.096 C1136.392,524.783993 1135.92,523.608005 1135.264,522.568 C1134.608,521.527995 1133.808,520.656004 1132.864,519.952 C1131.92,519.247996 1130.88001,518.712002 1129.744,518.344 C1128.60799,517.975998 1127.41601,517.792 1126.168,517.792 C1123.89599,517.792 1121.94401,518.223996 1120.312,519.088 C1118.67999,519.952004 1117.34401,521.095993 1116.304,522.52 C1115.26399,523.944007 1114.496,525.551991 1114,527.344 C1113.504,529.136009 1113.256,530.975991 1113.256,532.864 C1113.256,534.720009 1113.504,536.551991 1114,538.36 C1114.496,540.168009 1115.26399,541.783993 1116.304,543.208 C1117.34401,544.632007 1118.67999,545.775996 1120.312,546.64 C1121.94401,547.504004 1123.89599,547.936 1126.168,547.936 C1127.76801,547.936 1129.20799,547.648003 1130.488,547.072 C1131.76801,546.495997 1132.872,545.712005 1133.8,544.72 C1134.728,543.727995 1135.48,542.568007 1136.056,541.24 C1136.632,539.911993 1137,538.480008 1137.16,536.944 L1140.424,536.944 C1140.2,539.056011 1139.704,540.959992 1138.936,542.656 C1138.168,544.352008 1137.17601,545.791994 1135.96,546.976 C1134.74399,548.160006 1133.31201,549.071997 1131.664,549.712 C1130.01599,550.352003 1128.18401,550.672 1126.168,550.672 C1123.47999,550.672 1121.12001,550.184005 1119.088,549.208 C1117.05599,548.231995 1115.36801,546.928008 1114.024,545.296 C1112.67999,543.663992 1111.672,541.776011 1111,539.632 C1110.328,537.487989 1109.992,535.232012 1109.992,532.864 C1109.992,530.495988 1110.328,528.240011 1111,526.096 C1111.672,523.951989 1112.67999,522.056008 1114.024,520.408 C1115.36801,518.759992 1117.05599,517.448005 1119.088,516.472 C1121.12001,515.495995 1123.47999,515.008 1126.168,515.008 C1127.80001,515.008 1129.39199,515.247998 1130.944,515.728 C1132.49601,516.208002 1133.90399,516.919995 1135.168,517.864 C1136.43201,518.808005 1137.488,519.967993 1138.336,521.344 C1139.184,522.720007 1139.72,524.303991 1139.944,526.096 L1136.68,526.096 Z M1144.792,515.728 L1147.816,515.728 L1147.816,529.504 L1147.912,529.504 C1148.488,527.999992 1149.51199,526.792005 1150.984,525.88 C1152.45601,524.967995 1154.07199,524.512 1155.832,524.512 C1157.56001,524.512 1159.00799,524.735998 1160.176,525.184 C1161.34401,525.632002 1162.28,526.263996 1162.984,527.08 C1163.688,527.896004 1164.184,528.895994 1164.472,530.08 C1164.76,531.264006 1164.904,532.591993 1164.904,534.064 L1164.904,550 L1161.88,550 L1161.88,534.544 C1161.88,533.487995 1161.784,532.504005 1161.592,531.592 C1161.4,530.679995 1161.064,529.888003 1160.584,529.216 C1160.104,528.543997 1159.456,528.016002 1158.64,527.632 C1157.824,527.247998 1156.80801,527.056 1155.592,527.056 C1154.37599,527.056 1153.296,527.271998 1152.352,527.704 C1151.408,528.136002 1150.608,528.727996 1149.952,529.48 C1149.296,530.232004 1148.784,531.127995 1148.416,532.168 C1148.048,533.208005 1147.848,534.335994 1147.816,535.552 L1147.816,550 L1144.792,550 L1144.792,515.728 Z M1170.328,532.816 C1170.424,531.375993 1170.728,530.128005 1171.24,529.072 C1171.752,528.015995 1172.448,527.152003 1173.328,526.48 C1174.208,525.807997 1175.23999,525.312002 1176.424,524.992 C1177.60801,524.671998 1178.91999,524.512 1180.36,524.512 C1181.44801,524.512 1182.53599,524.615999 1183.624,524.824 C1184.71201,525.032001 1185.688,525.423997 1186.552,526 C1187.416,526.576003 1188.12,527.383995 1188.664,528.424 C1189.208,529.464005 1189.48,530.815992 1189.48,532.48 L1189.48,545.632 C1189.48,546.848006 1190.07199,547.456 1191.256,547.456 C1191.608,547.456 1191.928,547.392001 1192.216,547.264 L1192.216,549.808 C1191.864,549.872 1191.552,549.92 1191.28,549.952 C1191.008,549.984 1190.664,550 1190.248,550 C1189.48,550 1188.864,549.896001 1188.4,549.688 C1187.936,549.479999 1187.576,549.184002 1187.32,548.8 C1187.064,548.415998 1186.896,547.960003 1186.816,547.432 C1186.736,546.903997 1186.696,546.320003 1186.696,545.68 L1186.6,545.68 C1186.056,546.480004 1185.504,547.191997 1184.944,547.816 C1184.384,548.440003 1183.76,548.959998 1183.072,549.376 C1182.384,549.792002 1181.6,550.111999 1180.72,550.336 C1179.84,550.560001 1178.79201,550.672 1177.576,550.672 C1176.42399,550.672 1175.34401,550.536001 1174.336,550.264 C1173.32799,549.991999 1172.448,549.560003 1171.696,548.968 C1170.944,548.375997 1170.352,547.624005 1169.92,546.712 C1169.488,545.799995 1169.272,544.720006 1169.272,543.472 C1169.272,541.743991 1169.656,540.392005 1170.424,539.416 C1171.192,538.439995 1172.20799,537.696003 1173.472,537.184 C1174.73601,536.671997 1176.15999,536.312001 1177.744,536.104 C1179.32801,535.895999 1180.93599,535.696001 1182.568,535.504 C1183.208,535.44 1183.768,535.36 1184.248,535.264 C1184.728,535.168 1185.128,535.000001 1185.448,534.76 C1185.768,534.519999 1186.016,534.192002 1186.192,533.776 C1186.368,533.359998 1186.456,532.816003 1186.456,532.144 C1186.456,531.119995 1186.288,530.280003 1185.952,529.624 C1185.616,528.967997 1185.152,528.448002 1184.56,528.064 C1183.968,527.679998 1183.28,527.416001 1182.496,527.272 C1181.712,527.127999 1180.872,527.056 1179.976,527.056 C1178.05599,527.056 1176.48801,527.511995 1175.272,528.424 C1174.05599,529.336005 1173.416,530.79999 1173.352,532.816 L1170.328,532.816 Z M1186.456,536.464 L1186.36,536.464 C1186.168,536.816002 1185.8,537.071999 1185.256,537.232 C1184.712,537.392001 1184.232,537.504 1183.816,537.568 C1182.53599,537.792001 1181.21601,537.991999 1179.856,538.168 C1178.49599,538.344001 1177.25601,538.607998 1176.136,538.96 C1175.01599,539.312002 1174.096,539.815997 1173.376,540.472 C1172.656,541.128003 1172.296,542.063994 1172.296,543.28 C1172.296,544.048004 1172.448,544.727997 1172.752,545.32 C1173.056,545.912003 1173.464,546.423998 1173.976,546.856 C1174.488,547.288002 1175.08,547.615999 1175.752,547.84 C1176.424,548.064001 1177.112,548.176 1177.816,548.176 C1178.96801,548.176 1180.07199,548.000002 1181.128,547.648 C1182.18401,547.295998 1183.104,546.784003 1183.888,546.112 C1184.672,545.439997 1185.296,544.624005 1185.76,543.664 C1186.224,542.703995 1186.456,541.616006 1186.456,540.4 L1186.456,536.464 Z M1200.328,525.232 L1205.368,525.232 L1205.368,527.776 L1200.328,527.776 L1200.328,544.48 C1200.328,545.472005 1200.464,546.247997 1200.736,546.808 C1201.008,547.368003 1201.68799,547.68 1202.776,547.744 C1203.64,547.744 1204.504,547.696 1205.368,547.6 L1205.368,550.144 C1204.92,550.144 1204.472,550.16 1204.024,550.192 C1203.576,550.224 1203.128,550.24 1202.68,550.24 C1200.66399,550.24 1199.256,549.848004 1198.456,549.064 C1197.656,548.279996 1197.272,546.832011 1197.304,544.72 L1197.304,527.776 L1192.984,527.776 L1192.984,525.232 L1197.304,525.232 L1197.304,517.792 L1200.328,517.792 L1200.328,525.232 Z" id="FindBars.GoOut.Join.Chat"></path>
        </g>
    </g>
</svg>