<svg height="112" viewBox="0 0 361 112" width="361" xmlns="http://www.w3.org/2000/svg"><g fill="none"><path d="m350.133324 112h-339.2531284c-5.72952188 0-10.3801956-5.024288-10.3801956-11.226968v-89.5314072c0-6.19974875 4.65067372-11.2416248 10.3801956-11.2416248h339.2504244c5.73493 0 10.366676 5.04187605 10.366676 11.2416248l.002704 89.5314072c0 6.20268-4.63445 11.226968-10.366676 11.226968z" fill="#030303"/><g fill="#fff"><g transform="translate(115.5 51)"><path d="m30.5165744 37.7397904h-6.0972891l-3.3399504-10.924529h-11.60928124l-3.18154446 10.924529h-5.93619815l11.50188735-37.19202685h7.1041068zm-10.4440574-15.5078567-3.0204536-9.7116241c-.3194969-.9921227-.9182179-3.32850193-1.8015328-7.00634288h-.1073939c-.351715 1.58180697-.9182179 3.91818618-1.6968237 7.00634288l-2.9667566 9.7116241z"/><path d="m60.0955409 24.0009864c0 4.5609699-1.1840178 8.1661484-3.5520535 10.8127406-2.1210296 2.3559422-4.7548651 3.5325159-7.8988217 3.5325159-3.3936475 0-5.8314891-1.2687992-7.3162099-3.8063977h-.1073939v14.1272691h-5.7240952v-28.9168848c0-2.8673745-.0724908-5.8102062-.2121029-8.8284951h5.0340893l.3194969 4.2507569h.1073939c1.9089267-3.2027399 4.8058773-4.8013152 8.6935367-4.8013152 3.0392475 0 5.5764285 1.2492363 7.6061733 3.7505035 2.0351146 2.5040619 3.049987 5.7962326 3.049987 9.8793068zm-5.8314891.2179875c0-2.6102609-.563818-4.7621892-1.6968237-6.4557846-1.2377148-1.766258-2.8996355-2.649387-4.9830773-2.649387-1.4122298 0-2.695587.4918693-3.8420169 1.4616344-1.1491148.9781492-1.9008722 2.2553326-2.2525872 3.8371395-.1772.737804-.2657999 1.3414618-.2657999 1.8165628v4.4715392c0 1.9507089.5745574 3.5967943 1.7236722 4.9410507 1.1491147 1.3442565 2.64189 2.0149874 4.4783258 2.0149874 2.1559327 0 3.8339625-.8663607 5.0340894-2.5934927 1.2028117-1.7299268 1.8042176-4.0104117 1.8042176-6.8442497z"/><path d="m89.7282043 24.0009864c0 4.5609699-1.1840178 8.1661484-3.5547382 10.8127406-2.1183448 2.3559422-4.7521804 3.5325159-7.896137 3.5325159-3.3936474 0-5.8314891-1.2687992-7.313525-3.8063977h-.1073939v14.1272691h-5.7240951v-28.9168848c0-2.8673745-.0724909-5.8102062-.212103-8.8284951h5.0340893l.3194969 4.2507569h.1073939c1.9062418-3.2027399 4.8031924-4.8013152 8.6935367-4.8013152 3.0365627 0 5.5737437 1.2492363 7.6088582 3.7505035 2.02706 2.5040619 3.0446172 5.7962326 3.0446172 9.8793068zm-5.831489.2179875c0-2.6102609-.5665029-4.7621892-1.6995086-6.4557846-1.2377148-1.766258-2.8942658-2.649387-4.9803924-2.649387-1.4149147 0-2.695587.4918693-3.8447018 1.4616344-1.1491148.9781492-1.8981873 2.2553326-2.2499023 3.8371395-.1745151.737804-.2658 1.3414618-.2658 1.8165628v4.4715392c0 1.9507089.5745574 3.5967943 1.7183025 4.9410507 1.1491148 1.3414618 2.6418901 2.0149874 4.4836956 2.0149874 2.1559327 0 3.8339624-.8663607 5.0340893-2.5934927 1.2028118-1.7299268 1.8042177-4.0104117 1.8042177-6.8442497z"/><path d="m122.859224 27.3099254c0 3.1636139-1.055145 5.7375437-3.17349 7.7245839-2.327763 2.1714912-5.568374 3.2558394-9.732572 3.2558394-3.844702 0-6.926907-.7713405-9.26004-2.3168162l1.326315-4.9662032c2.513017 1.581807 5.270356 2.3755052 8.2747 2.3755052 2.155933 0 3.833963-.5086376 5.039459-1.5203233 1.200127-1.0116858 1.798848-2.3699158 1.798848-4.0635112 0-1.5091445-.494012-2.7807384-1.48472-3.8119872-.98534-1.0312487-2.631151-1.9898349-4.929381-2.8757586-6.255695-2.4286047-9.380857-5.986273-9.380857-10.6646209 0-3.05741485 1.095417-5.56427149 3.288938-7.51498044 2.185466-1.95350367 5.10121-2.92885815 8.747234-2.92885815 3.25135 0 5.952307.58968423 8.108239 1.76625797l-1.431023 4.8572094c-2.013636-1.14024248-4.290387-1.71036372-6.838307-1.71036372-2.013636 0-3.586957.51702171-4.714593 1.54547572-.953121.91946023-1.431024 2.04013973-1.431024 3.36762792 0 1.4700185.545025 2.6857182 1.640442 3.6415097.953121.883129 2.684848 1.8389205 5.197865 2.8701692 3.074151 1.2883622 5.332108 2.794712 6.78461 4.521844 1.447133 1.7215425 2.169357 3.8762655 2.169357 6.4474005z"/><path d="m141.784715 15.3932735h-6.309392v13.0205631c0 3.3117337 1.111527 4.9662032 3.339951 4.9662032 1.022927 0 1.871339-.0922255 2.542551-.2766765l.158406 4.5246387c-1.127636.4387698-2.612357.659552-4.451478.659552-2.260642 0-4.027271-.718241-5.302574-2.1519282-1.269933-1.436482-1.908927-3.8455237-1.908927-7.2299199v-13.5180218h-3.758786v-4.4715391h3.758786v-4.91030898l5.622071-1.76625796v6.67656694h6.309392z"/><path d="m170.252155 24.1099802c0 4.1222001-1.133006 7.5065963-3.393647 10.1531886-2.370721 2.7248441-5.517362 4.0830741-9.439925 4.0830741-3.780265 0-6.78998-1.3051304-9.034512-3.9153914-2.244533-2.610261-3.366799-5.9052264-3.366799-9.8765121 0-4.1557367 1.154484-7.5596959 3.471508-10.2062881 2.311654-2.649387 5.431447-3.9740805 9.354009-3.9740805 3.780266 0 6.822198 1.3051305 9.117743 3.9181862 2.196205 2.5348038 3.291623 5.8074115 3.291623 9.8178232zm-5.938883.1928351c0-2.4733201-.507436-4.5945065-1.535733-6.3635592-1.200127-2.1407493-2.915744-3.2083293-5.138798-3.2083293-2.300915 0-4.048751 1.0703747-5.248877 3.2083293-1.028297 1.7718474-1.535733 3.9265704-1.535733 6.4753477 0 2.4733201.507436 4.5945065 1.535733 6.3607644 1.237714 2.1407494 2.966756 3.2083294 5.197865 3.2083294 2.185466 0 3.901083-1.0899377 5.138798-3.2642236 1.055145-1.8025892 1.586745-3.9461333 1.586745-6.4166587z"/><path d="m188.858149 16.1618193c-.566503-.1089937-1.170593-.164888-1.804217-.164888-2.013636 0-3.570848.7909035-4.666266 2.3755052-.953121 1.397356-1.431023 3.1636139-1.431023 5.2959792v14.0713747h-5.721411l.053697-18.3724364c0-3.0909515-.072491-5.9052264-.214788-8.4428249h4.985762l.209419 5.1310912h.158406c.60409-1.7634633 1.557211-3.183177 2.862047-4.2479622 1.275303-.9585862 2.65263-1.436482 4.13735-1.436482.528915 0 1.006818.039126 1.431024.1089938z"/><path d="m214.458171 23.0619632c0 1.06758-.067121 1.9674772-.209418 2.7024865h-17.172285c.067121 2.6493869.896739 4.6755531 2.491538 6.0729091 1.447133 1.2492362 3.318472 1.8752517 5.616702 1.8752517 2.54255 0 4.862259-.4220015 6.948385-1.2687992l.896739 4.1361737c-2.437841 1.1067059-5.315998 1.6572642-8.637154 1.6572642-3.995054 0-7.130956-1.2240839-9.413076-3.6694568-2.276751-2.445373-3.417811-5.7291596-3.417811-9.848565 0-4.0439482 1.060515-7.4115762 3.184229-10.0972944 2.223054-2.8673745 5.227398-4.3010617 9.007664-4.3010617 3.713144 0 6.52418 1.4336872 8.433106 4.3010617 1.51157 2.2776903 2.271381 5.09476 2.271381 8.4400302zm-5.458295-1.5454757c.037588-1.766258-.335606-3.2921707-1.111527-4.580533-.990709-1.6572642-2.513017-2.4844989-4.561556-2.4844989-1.871339 0-3.393647.8076718-4.556186 2.4286047-.953121 1.2883622-1.519624 2.8338379-1.694139 4.6336324h11.923408z"/></g><g transform="translate(118.5 19)"><path d="m14.538405 9.74263876c0 3.21697494-.9533149 5.63858904-2.857244 7.26484224-1.7634975 1.5005261-4.26966237 2.2521558-7.51579402 2.2521558-1.60956278 0-2.98687322-.0710632-4.14003313-.2131895v-17.57720113c1.50423904-.24598789 3.12460426-.37171503 4.8745987-.37171503 3.09219695 0 5.42282225.68056649 6.99457655 2.04169946 1.7607968 1.53879089 2.6438959 3.73901588 2.6438959 6.60340816zm-2.9841726.07926276c0-2.08543064-.545523-3.6843519-1.6365689-4.79949699-1.09104591-1.11241189-2.68440504-1.66998443-4.782778-1.66998443-.89120087 0-1.65007191.06013037-2.27931374.18585751v13.36260869c.34837852.0546639.98572218.0792627 1.91203096.0792627 2.16588817 0 3.83756496-.6095033 5.01503035-1.8285099 1.17746543-1.2190067 1.77159933-2.9955859 1.77159933-5.32973758z"/><path d="m30.3612713 12.5523671c0 1.981569-.559026 3.6050891-1.677078 4.8787597-1.1720641 1.3092022-2.7249141 1.9624367-4.6639512 1.9624367-1.8688212 0-3.3568566-.6259025-4.4668068-1.8831739-1.1072495-1.2545382-1.6608743-2.8370603-1.6608743-4.744833 0-1.9952351.5698284-3.63242116 1.7148865-4.90335858 1.1450581-1.27093741 2.684405-1.90777272 4.6234421-1.90777272 1.8688212 0 3.3703596.62590251 4.5073159 1.88044073 1.0802435 1.21900664 1.6230658 2.79332907 1.6230658 4.71750107zm-2.9355616.0929287c0-1.1889414-.2538572-2.2084246-.7588711-3.05844937-.5941339-1.02768273-1.4394244-1.54152409-2.5385721-1.54152409-1.1369563 0-2.0011511.51384136-2.595285 1.54152409-.5077144.85002477-.758871 1.88590717-.758871 3.11038017 0 1.1889414.2538572 2.2084246.758871 3.0584494.6130382 1.0276827 1.4664305 1.5415241 2.5682789 1.5415241 1.0802434 0 1.9282346-.522041 2.5385721-1.5688561.5239181-.866424.7858772-1.8941067.7858772-3.0830482z"/><path d="m51.5772532 6.21681238-3.9833978 12.88429882h-2.5925843l-1.6500719-5.5948578c-.4185944-1.3966645-.7588711-2.7851295-1.0235307-4.16266166h-.0513116c-.2457554 1.41579696-.5860321 2.80152866-1.0235307 4.16266166l-1.752695 5.5948578h-2.6222911l-3.7457443-12.88429882h2.9085556l1.4394244 6.12509842c.3483786 1.4485953.6346431 2.8288607.8641948 4.1353297h.0513116c.2106475-1.0768804.559026-2.4489461 1.0505368-4.1079978l1.8067072-6.14969712h2.3063198l1.7310902 6.01850362c.4185943 1.4677277.758871 2.8807915 1.0208301 4.2419245h.0783176c.1917433-1.3256014.4807084-2.7386652.8641948-4.2419245l1.5447482-6.01850362h2.7789263z"/><path d="m66.2496603 19.1011112h-2.8302379v-7.3796366c0-2.27402131-.8533924-3.41103198-2.5655783-3.41103198-.8398893 0-1.5177421.31158465-2.0443608.93748716-.5212175.62590252-.7858771 1.36386622-.7858771 2.20842462v7.6420236h-2.8302379v-9.19994692c0-1.13154427-.0351079-2.35875051-.1026231-3.6870851h2.4872606l.1323298 2.01436747h.0783176c.3294743-.62590251.8209851-1.14247707 1.4664306-1.55519008.7669728-.48104298 1.6257664-.72429767 2.5655782-.72429767 1.1882678 0 2.1766906.38811423 2.9625678 1.16707587.9776203.95388636 1.4664305 2.3778829 1.4664305 4.26925643z"/><path d="m74.0544194 19.1011112h-2.8275373v-18.7962077h2.8275373z"/><path d="m90.7171751 12.5523671c0 1.981569-.559026 3.6050891-1.677078 4.8787597-1.1720642 1.3092022-2.7276148 1.9624367-4.6639513 1.9624367-1.8715218 0-3.3595572-.6259025-4.4668067-1.8831739-1.1072496-1.2545382-1.6608744-2.8370603-1.6608744-4.744833 0-1.9952351.5698285-3.63242116 1.7148865-4.90335858 1.1450581-1.27093741 2.6844051-1.90777272 4.6207415-1.90777272 1.8715218 0 3.3703597.62590251 4.5100165 1.88044073 1.0802435 1.21900664 1.6230659 2.79332907 1.6230659 4.71750107zm-2.9382623.0929287c0-1.1889414-.2538572-2.2084246-.758871-3.05844937-.5914333-1.02768273-1.4394245-1.54152409-2.5358716-1.54152409-1.1396569 0-2.0038517.51384136-2.595285 1.54152409-.5077144.85002477-.758871 1.88590717-.758871 3.11038017 0 1.1889414.2538572 2.2084246.758871 3.0584494.6130382 1.0276827 1.4664306 1.5415241 2.5682789 1.5415241 1.0802435 0 1.925534-.522041 2.5358716-1.5688561.5266187-.866424.7858771-1.8941067.7858771-3.0830482z"/><path d="m104.414662 19.1011112h-2.541272l-.210648-1.4841269h-.078318c-.869596 1.1834751-2.1091749 1.7765792-3.7187377 1.7765792-1.2017709 0-2.17399-.3908474-2.905855-1.1670759-.6643497-.7051652-.9965246-1.582522-.9965246-2.6238707 0-1.5743225.6481461-2.7741968 1.9525401-3.6050892 1.3016934-.8308924 3.1327061-1.238139 5.4903372-1.2190066v-.2405215c0-1.69731643-.880398-2.54460804-2.6438956-2.54460804-1.2557831 0-2.3630326.31978425-3.3190481.95388636l-.5752297-1.88044073c1.1828666-.74069686 2.6438959-1.11241189 4.3668843-1.11241189 3.3271501 0 4.9961261 1.77657918 4.9961261 5.3297375v4.7448331c0 1.2873366.062114 2.3122861.183641 3.0721153zm-2.938262-4.4277819v-1.9870355c-3.1219035-.054664-4.6828554.81176-4.6828554 2.5965388 0 .6723669.1782402 1.1752755.5428224 1.5114589.3645822.3361835.8290868.5029086 1.3827116.5029086.62114 0 1.2017709-.1995235 1.7310904-.5958374.53202-.399047.858793-.9046887.980321-1.5251248.029706-.1393932.04591-.3088515.04591-.5029086z"/><path d="m120.496787 19.1011112h-2.511566l-.13233-2.0690314h-.078317c-.802081 1.5743225-2.168589 2.3614837-4.088722 2.3614837-1.533946 0-2.811334-.6095033-3.824062-1.8285099-1.012728-1.2190067-1.517742-2.8015288-1.517742-4.7448331 0-2.0854306.548224-3.77454742 1.650072-5.06461723 1.06674-1.20260744 2.373835-1.80391117 3.929386-1.80391117 1.709485 0 2.905855.58217133 3.586408 1.7492472h.054012v-7.3960358h2.832939v15.3250453c0 1.2545383.032407 2.4106813.099922 3.4711624zm-2.932861-5.4335991v-2.1482942c0-.371715-.027006-.6723669-.078318-.9019555-.159335-.68876613-.502313-1.26820426-1.02353-1.73558125-.526619-.46737698-1.161262-.70243207-1.893127-.70243207-1.055938 0-1.882324.4236458-2.489961 1.27367061-.602236.85002481-.907405 1.93510471-.907405 3.26070611 0 1.2736706.288965 2.3068197.869596 3.1021806.613038.8472916 1.439425 1.2709374 2.473758 1.2709374.929009 0 1.671677-.3525827 2.236104-1.0604811.545523-.6532345.812883-1.4403958.812883-2.3587506z"/><path d="m144.702343 12.5523671c0 1.981569-.559026 3.6050891-1.677078 4.8787597-1.172064 1.3092022-2.722214 1.9624367-4.663951 1.9624367-1.866121 0-3.354156-.6259025-4.466807-1.8831739-1.10725-1.2545382-1.660874-2.8370603-1.660874-4.744833 0-1.9952351.569828-3.63242116 1.714886-4.90335858 1.145058-1.27093741 2.684405-1.90777272 4.626143-1.90777272 1.86612 0 3.370359.62590251 4.504615 1.88044073 1.080244 1.21900664 1.623066 2.79332907 1.623066 4.71750107zm-2.932861.0929287c0-1.1889414-.253857-2.2084246-.758871-3.05844937-.596835-1.02768273-1.439425-1.54152409-2.541273-1.54152409-1.134256 0-1.99845.51384136-2.595285 1.54152409-.507714.85002477-.758871 1.88590717-.758871 3.11038017 0 1.1889414.253857 2.2084246.758871 3.0584494.613038 1.0276827 1.466431 1.5415241 2.568279 1.5415241 1.080243 0 1.930935-.522041 2.541273-1.5688561.521217-.866424.785877-1.8941067.785877-3.0830482z"/><path d="m159.920273 19.1011112h-2.827537v-7.3796366c0-2.27402131-.853393-3.41103198-2.568279-3.41103198-.83989 0-1.517742.31158465-2.04166.93748716-.523919.62590252-.785878 1.36386622-.785878 2.20842462v7.6420236h-2.832938v-9.19994692c0-1.13154427-.032407-2.35875051-.099923-3.6870851h2.48456l.13233 2.01436747h.078318c.332175-.62590251.823685-1.14247707 1.46643-1.55519008.769674-.48104298 1.625767-.72429767 2.568279-.72429767 1.185567 0 2.17399.38811423 2.959867 1.16707587.980321.95388636 1.466431 2.3778829 1.466431 4.26925643z"/><path d="m178.967666 8.36237339h-3.116502v6.25902511c0 1.5907217.553624 2.3860825 1.650071 2.3860825.507715 0 .92901-.0437312 1.261185-.1339267l.072916 2.172893c-.559026.2131895-1.293591.3197842-2.198295.3197842-1.118052 0-1.987648-.344383-2.61689-1.0331491-.631943-.6887661-.945213-1.8476424-.945213-3.4738956v-6.49681341h-1.86072v-2.14556101h1.86072v-2.36148371l2.773525-.84729161v3.20604212h3.116502v2.14829421z"/><path d="m193.950643 19.1011112h-2.832938v-7.3249726c0-2.30955292-.853393-3.46569598-2.562878-3.46569598-1.312496 0-2.209098.66963369-2.700609 2.00890108-.083719.2815195-.13233.6259025-.13233 1.0304159v7.7486184h-2.827537v-18.7934745h2.827537v7.76501763h.054013c.8912-1.41306375 2.168588-2.11822903 3.824061-2.11822903 1.172065 0 2.141583.38811422 2.911257 1.16707586.958716.97028556 1.439424 2.41341449 1.439424 4.32118724z"/><path d="m209.406227 12.0494585c0 .5138414-.037809.9456868-.105324 1.2982694h-8.488013c.037808 1.2736706.4429 2.2439562 1.228777 2.9163231.718362.6013037 1.64467.9019555 2.778926.9019555 1.255783 0 2.400841-.2022567 3.432474-.6095033l.4429 1.9897687c-1.207173.5302406-2.627693.7953608-4.272363.7953608-1.971445 0-3.524295-.5876377-4.647748-1.7629132-1.128854-1.1752754-1.68788-2.7523311-1.68788-4.731167 0-1.9433043.521217-3.56135793 1.571754-4.85142774 1.096447-1.37753216 2.579081-2.06629825 4.450603-2.06629825 1.831013 0 3.221826.68876609 4.161638 2.06629825.758871 1.0932795 1.134256 2.44621284 1.134256 4.05333374zm-2.700609-.7406969c.021605-.8500248-.164737-1.58252204-.548224-2.20022495-.49151-.79536084-1.239579-1.19440785-2.252307-1.19440785-.923608 0-1.677078.38811422-2.252308 1.16707586-.469906.62043611-.748069 1.36113294-.839889 2.22755694z"/></g><g transform="translate(24.5 14)"><path d="m46.4545496 38.5253953c-.0777096-9.1662342 7.0715782-13.6256371 7.3984947-13.8332496-4.0489408-6.2653472-10.324665-7.1213933-12.5300113-7.1896494-5.270858-.5887095-10.3836171 3.3473961-13.0686195 3.3473961-2.7385953 0-6.8732847-3.290516-11.3295312-3.1938198-5.7344363.0938523-11.09908184 3.6175768-14.04133 9.0894461-6.07207133 11.1570391-1.54347444 27.552739 4.2740308 36.5710849 2.9100924 4.4167427 6.3105596 9.3482507 10.7614468 9.1747663 4.3544201-.1905485 5.9809635-2.9463912 11.2357437-2.9463912 5.2065466 0 6.7339431 2.9463912 11.2732586 2.8354749 4.6732976-.0796322 7.6155458-4.4366508 10.4238118-8.8932096 3.3629521-5.0623323 4.7134923-10.0478764 4.7670851-10.303837-.1098653-.0398161-9.0759513-3.6716129-9.1643795-14.6580117z"/><path d="m38.2405087 11.6291443c2.3420081-3.10849959 3.9444347-7.33753787 3.499614-11.6291443-3.3897486.15926439-7.628944 2.48850605-10.0700989 5.52874944-2.1597924 2.67905451-4.0891355 7.07020116-3.5907218 11.19969926 3.8077729.3014647 7.7173722-2.039153 10.1612067-5.0993044z"/></g></g></g></svg>