<svg height="93" viewBox="0 0 94 93" width="94" xmlns="http://www.w3.org/2000/svg"><g fill="none" fill-rule="evenodd"><rect fill="#080808" height="92.746667" rx="13" width="92.746667" x=".626667" y=".126667"/><g fill="#f87000" transform="translate(13.16 21.433333)"><g transform="translate(18.8 .626667)"><path d="m6.03175498 22.7550615c3.81615878 0 6.03175502-5.1174937 6.03175502-11.39563 0-6.27813624-2.25031426-11.34847626-6.03175502-11.35941335-3.78144077-.0109371-6.03175498 4.92354856-6.03175498 11.35941335 0 6.4358648 2.21559619 11.39563 6.03175498 11.39563z"/><path d="m23.2838714 22.7550615c3.8161587 0 6.0317549-5.1174937 6.0317549-11.39563 0-6.27813624-2.2503142-11.34847626-6.0317549-11.35941335-3.7814408-.0109371-6.031755 4.92354856-6.031755 11.35941335 0 6.4358648 2.2155962 11.39563 6.031755 11.39563z" transform="matrix(-1 0 0 1 46.567742 0)"/></g><path d="m1.74795808 26.2593862c.23601832-.5124813.81081996-1.7862251 2.60345702-1.8166589.30818216-.0125444.73151316.0756617 1.18740003.2822656 2.79490295 1.7797539 13.83105777 9.1355731 29.01064697 8.7121519 2.1626995.0189163 14.875982-.1026818 27.2547674-8.5061152.7449054-.5020704 1.3838054-.5386957 1.965719-.4578685.985715.1889775 1.7096121.7303306 2.1280837 1.7324755.6870026 2.1395495 1.1579892 4.9201776 1.7704275 6.7718901.0690096.2176247-.1756449.6634888-.6223493.4191258-.5353307-.4506737-2.7774725-3.5354284-3.1931478-4.1045041-.320375-.3932886-.7198803-.2843191-.8816231-.1611207-2.7672784 4.1787119-9.8670613 18.903566-29.076794 19.1223056-19.6644296-.2690022-26.52245385-15.2758066-29.18529031-19.1223056-.16417765-.1130337-.58518449-.2700941-.94359748.2379519-1.01068704 1.3831095-2.6259424 3.580035-3.13166553 4.0276729-.30925207.1798413-.68762928 0-.62766756-.4079111.25733528-.8327033.96469096-3.9646808 1.74163346-6.7293552z" transform="matrix(-1 0 0 1 67.68 0)"/></g></g></svg>