<svg height="90" viewBox="0 0 584 90" width="584" xmlns="http://www.w3.org/2000/svg"><path d="m18.6372959 38.1965588h18.8747136c3.3238656 0 6.0541428-.7960871 8.1909135-2.388285 2.1367707-1.592198 3.20514-4.1794808 3.20514-7.7619262 0-1.9902475-.3561231-3.6222259-1.06838-4.8959842-.7122569-1.2737584-1.6619185-2.2688672-2.8490134-2.9853563-1.1870948-.7164891-2.5522334-1.2140435-4.0954567-1.4926781s-3.1457773-.4179499-4.8077101-.4179499h-17.4502069zm-18.6372959-34.51071809h39.8861873c4.0361225 0 7.7160613.35823916 11.0399269 1.07472824 3.3238655.71648908 6.1728504 1.89071746 8.5470401 3.52272036s4.2141591 3.80134009 5.5199634 6.50807659c1.3058044 2.7067365 1.9586967 6.0503021 1.9586967 10.0307969 0 4.2989345-.9694462 7.8813262-2.9083678 10.7472825s-4.8076911 5.2144131-8.6063946 7.0454407c5.2232173 1.5125881 9.120787 4.1595774 11.6928258 7.9410476 2.5720388 3.7814701 3.8580389 8.3390684 3.8580389 13.6729315 0 4.2989345-.8309539 8.0206414-2.4928867 11.1652324-1.6619328 3.1445909-3.8975945 5.7119716-6.7070523 7.702219-2.8094578 1.9902475-6.0145658 3.4630085-9.6154202 4.4183273-3.6008543.9553187-7.3005778 1.432971-11.0992813 1.432971h-41.0732762zm18.6372959 70.69323559h19.9430936c1.8202121 0 3.5612584-.1791195 5.2231912-.5373641 1.6619328-.3582445 3.1259945-.9553098 4.392229-1.7912137 1.2662345-.835904 2.27525-1.970328 3.0270767-3.4033061.7518267-1.4329782 1.1277345-3.2639784 1.1277345-5.4930555 0-4.3785444-1.2266463-7.503186-3.6799756-9.3740186-2.4533294-1.8708326-5.6980066-2.8062348-9.7341291-2.8062348h-20.2992203zm63.1742049-28.1817628c.2374189-3.9804949 1.2266498-7.2842561 2.9677222-9.9113827 1.7410725-2.6271266 3.9569496-4.7367573 6.6476979-6.3289552 2.6907483-1.592198 5.7177948-2.726622 9.0812301-3.4033061 3.363435-.6766842 6.746605-1.0150212 10.14961-1.0150212 3.086447 0 6.212416.218924 9.378003.6567784 3.165586.4378545 6.05414 1.293648 8.665749 2.5674064 2.611608 1.2737583 4.748347 3.045052 6.41028 5.3139341s2.492886 5.2741106 2.492886 9.0157758v32.1224331c0 2.7863464.158277 5.453238.474836 8.0007547s.870528 4.4581256 1.661925 5.731884h-17.094081c-.316558-.9553188-.573758-1.9305254-.771608-2.9256492-.197849-.9951237-.336341-2.0101346-.415481-3.0450633-2.690748 2.7863464-5.856287 4.7367596-9.496711 5.8512982s-7.359932 1.6717995-11.158636 1.6717995c-2.928167 0-5.6584442-.3582392-8.1909132-1.0747282-2.532469-.7164891-4.7483461-1.831011-6.6476978-3.343599-1.8993518-1.5125881-3.3831981-3.423197-4.4515835-5.731884-1.0683853-2.308687-1.60257-5.0551873-1.60257-8.2395832 0-3.5028355.6133232-6.388651 1.8399878-8.6575331 1.2266647-2.2688821 2.8094341-4.0799801 4.7483557-5.4333483 1.9389215-1.3533683 4.1547987-2.3683793 6.6476979-3.0450634 2.4928991-.6766841 5.0055455-1.2140429 7.5380141-1.6120924 2.532469-.3980494 5.025331-.7164843 7.478661-.9553139 2.453329-.2388297 4.629637-.5970689 6.528989-1.0747283 1.899351-.4776594 3.402982-1.1742355 4.510937-2.0897494 1.107956-.9155138 1.622356-2.2489596 1.543216-4.0003773 0-1.8310277-.296769-3.2838865-.890317-4.3586201-.593547-1.0747336-1.384932-1.910625-2.374178-2.5076993-.989245-.5970742-2.136753-.9951177-3.442557-1.1941424-1.305805-.1990248-2.710513-.2985357-4.214166-.2985357-3.323866 0-5.935435.7164784-7.834787 2.1494565-1.899352 1.4329782-3.0072901 3.8212393-3.3238487 7.164855zm38.9365162 12.5384962c-.712257.6368791-1.602565 1.1344335-2.67095 1.4926781-1.068385.3582445-2.215893.6567772-3.442558.8956069-1.226665.2388296-2.512665.4378514-3.858039.5970712s-2.690728.3582416-4.036102.5970712c-1.266235.2388297-2.512666.5572646-3.73933.955314-1.226665.3980495-2.295034.9354083-3.2051403 1.6120924-.910106.6766841-1.6421368 1.5324777-2.1961144 2.5674064-.5539776 1.0349286-.8309623 2.3484722-.8309623 3.9406702 0 1.5125881.2769847 2.7863273.8309623 3.821256.5539776 1.0349286 1.305793 1.8509179 2.2554689 2.4479921.9496758.5970742 2.0576148 1.0150199 3.3238488 1.2538496 1.266235.2388297 2.572019.3582428 3.917394.3582428 3.323865 0 5.895865-.557261 7.716077-1.6717995 1.820213-1.1145386 3.165567-2.4479844 4.036103-4.0003774s1.404721-3.1246649 1.60257-4.7168628c.197849-1.592198.296772-2.8659372.296772-3.821256zm30.647969-31.5253619h16.0257v11.463768h.237418c.791396-1.9106376 1.859766-3.6819312 3.20514-5.3139341s2.888574-3.0251552 4.629647-4.1794988c1.741072-1.1543435 3.600826-2.0499414 5.579318-2.6868206 1.978491-.6368791 4.036091-.955314 6.172862-.955314 1.107955 0 2.334601.1990218 3.679975.5970713v15.7626809c-.791396-.1592198-1.741058-.298535-2.849013-.4179499-1.107955-.1194148-2.176324-.1791213-3.20514-.1791213-3.086447 0-5.698016.5174565-7.834787 1.5523852s-3.858032 2.4479832-5.163837 4.2392059c-1.305804 1.7912227-2.235681 3.8809511-2.789658 6.269248-.553978 2.388297-.830963 4.9755798-.830963 7.7619263v27.8235201h-16.856662zm50.591062 11.3443537v-11.3443537-4.7765699c0-5.493083 1.701477-9.9909747 5.104483-13.49381022 3.403005-3.5028355 8.547005-5.25422697 15.432155-5.25422697 1.503654 0 3.007285.05970653 4.510938.17912137 1.503654.11941485 2.967715.21892573 4.392229.29853563v12.65791039c-1.978491-.2388297-4.036091-.3582427-6.172862-.3582427-2.29505 0-3.937173.5373587-4.926419 1.6120924-.989246 1.0747336-1.483861 2.8858316-1.483861 5.4333483v3.7018417h11.633471v11.3443537h-11.633471v50.3928133h-16.856663zm36.583414-11.3443537h16.0257v11.463768h.237418c.791396-1.9106376 1.859766-3.6819312 3.20514-5.3139341s2.888574-3.0251552 4.629646-4.1794988c1.741073-1.1543435 3.600827-2.0499414 5.579318-2.6868206 1.978492-.6368791 4.036092-.955314 6.172863-.955314 1.107955 0 2.334601.1990218 3.679975.5970713v15.7626809c-.791396-.1592198-1.741058-.298535-2.849013-.4179499-1.107955-.1194148-2.176325-.1791213-3.20514-.1791213-3.086447 0-5.698016.5174565-7.834787 1.5523852s-3.858032 2.4479832-5.163837 4.2392059c-1.305804 1.7912227-2.235681 3.8809511-2.789659 6.269248-.553977 2.388297-.830962 4.9755798-.830962 7.7619263v27.8235201h-16.856662zm56.048175-9.9847841h-.299421c-4.618665 0-8.362832-3.7441673-8.362832-8.36283184 0-4.6186645 3.744167-8.36283186 8.362832-8.36283186h.299421c4.618664 0 8.362832 3.74416736 8.362832 8.36283186 0 4.61866454-3.744168 8.36283184-8.362832 8.36283184zm-8.662253 9.9847841h16.856663v61.737167h-16.856663zm72.196081 24.2410927c-.791397-4.2989345-2.196105-7.5628914-4.214166-9.7919685s-5.084677-3.343599-9.199939-3.343599c-2.690748 0-4.92641.4577501-6.707052 1.3732639-1.780643.9155138-3.205135 2.0499378-4.27352 3.4033061-1.068386 1.3533683-1.820201 2.7863249-2.255469 4.298913-.435268 1.512588-.692468 2.865936-.771608 4.0600845zm-27.421754 10.7472824c.237419 5.4930829 1.622342 9.4735181 4.154811 11.9414249 2.532469 2.4679069 6.172839 3.7018418 10.921218 3.7018418 3.403005 0 6.331129-.8557936 8.784458-2.5674064s3.95696-3.5227108 4.510938-5.4333483h14.838611c-2.37419 7.4037204-6.014559 12.6976992-10.921218 15.8820951-4.906658 3.1843959-10.842044 4.77657-17.806333 4.77657-4.827519 0-9.180135-.7761849-13.057978-2.3285779-3.877844-1.552393-7.16209-3.7615345-9.852838-6.6274908-2.690749-2.8659563-4.768134-6.2891306-6.232217-10.2696254-1.464084-3.9804949-2.196115-8.3589736-2.196115-13.1355675 0-4.617374.751816-8.916244 2.255469-12.8967389 1.503654-3.9804949 3.640392-7.4235713 6.41028-10.3293326 2.769888-2.9057612 6.073919-5.1945115 9.912193-6.8663193 3.838273-1.6718079 8.091966-2.5076993 12.761206-2.5076993 5.223217 0 9.773679 1.015011 13.651522 3.0450634s7.063167 4.7566505 9.556066 8.1798761 4.293299 7.3240521 5.401254 11.7025964c1.107955 4.3785444 1.503648 8.9560448 1.187089 13.7326387zm54.983291-34.9883751h16.025701v8.597826h.356126c2.136771-3.5824454 4.906617-6.1896304 8.309623-7.8216333 3.403005-1.6320029 6.885097-2.4479922 10.446382-2.4479922 4.51096 0 8.210684.6169675 11.099281 1.8509209 2.888598 1.2339534 5.163829 2.9455405 6.825762 5.1348127 1.661932 2.1892722 2.829225 4.8561638 3.501912 8.0007547.672687 3.144591 1.009025 6.6274718 1.009025 10.4487469v37.9737313h-16.856662v-34.8689609c0-5.0950334-.791385-8.896349-2.374178-11.4040608-1.582793-2.5077117-4.392209-3.7615488-8.428331-3.7615488-4.5901 0-7.913916 1.3732501-9.971547 4.1197916-2.057631 2.7465414-3.086431 7.2643354-3.086431 13.5535173v32.3612616h-16.856663zm114.693864 30.6894621c0-2.5475167-.237416-4.9954843-.712253-7.3439763-.474838-2.348492-1.286008-4.4183183-2.433533-6.209541s-2.631371-3.2440815-4.451583-4.3586201-4.115228-1.6717995-6.885116-1.6717995-5.104473.5572609-7.003824 1.6717995c-1.899352 1.1145386-3.422768 2.5872996-4.570293 4.4183272-1.147525 1.8310277-1.978479 3.9207562-2.492886 6.2692481-.514408 2.348492-.771608 4.7964596-.771608 7.3439764 0 2.3882969.276984 4.776558.830962 7.1648549.553978 2.388297 1.444285 4.5178298 2.67095 6.3886624s2.769865 3.3833979 4.629647 4.5377415c1.859782 1.1543435 4.095444 1.7315066 6.707052 1.7315066 2.769888 0 5.084688-.557261 6.94447-1.6717995 1.859782-1.1145386 3.343629-2.6072018 4.451584-4.4780344s1.89934-4.0003654 2.374178-6.3886623c.474837-2.3882969.712253-4.8561668.712253-7.4036835zm.237418 23.1663644h-.237418c-1.978492 3.3436157-4.570276 5.751779-7.775432 7.2245621-3.205157 1.4727831-6.825742 2.2091636-10.861864 2.2091636-4.5901 0-8.626162-.8955979-12.108307-2.6868206s-6.350914-4.2192882-8.606394-7.2842692c-2.255481-3.0649811-3.956958-6.5876662-5.104483-10.5681611s-1.721279-8.1201475-1.721279-12.4190819c0-4.1397147.573754-8.1400521 1.721279-12.0011321s2.849002-7.2643521 5.104483-10.2099183c2.25548-2.9455662 5.08468-5.3139251 8.487685-7.1051478s7.359929-2.6868207 11.870889-2.6868207c3.640425 0 7.102733.7761849 10.387028 2.3285779 3.284296 1.552393 5.876081 3.8411432 7.775433 6.8663193h.237417v-31.04770479h16.856663v85.26177409h-16.0257zm42.518858-12.1802534c0 1.8310276.375907 3.4032995 1.127734 4.7168628s1.721273 2.3882808 2.908368 3.2241847c1.187095.835904 2.552233 1.4528714 4.095457 1.8509209 1.543223.3980495 3.145777.5970713 4.80771.5970713 1.187094 0 2.433525-.1393153 3.73933-.4179499 1.305804-.2786347 2.492881-.7164825 3.561266-1.3135568 1.068386-.5970742 1.958694-1.3931612 2.67095-2.3882849.712257-.9951238 1.06838-2.2489608 1.06838-3.7615489 0-2.5475167-1.681692-4.4581256-5.045127-5.731884-3.363436-1.2737583-8.05239-2.5474976-14.067004-3.8212559-2.453329-.5572693-4.847268-1.2140411-7.181888-1.9703352-2.33462-.756294-4.412005-1.7514028-6.232217-2.9853562s-3.284273-2.7863231-4.392229-4.6571557c-1.107955-1.8708326-1.661924-4.1595828-1.661924-6.8663194 0-3.9804948.7716-7.2444517 2.314823-9.7919684 1.543224-2.5475167 3.581039-4.5576365 6.113508-6.0304196s5.381454-2.5076963 8.54704-3.1047705c3.165587-.5970742 6.410264-.8956069 9.734129-.8956069 3.323866 0 6.548759.3184349 9.674775.955314 3.126016.6368792 5.915647 1.7115967 8.368977 3.2241848 2.453329 1.512588 4.491145 3.5227078 6.113508 6.0304196 1.622363 2.5077117 2.591809 5.6721577 2.908368 9.4934328h-16.025701c-.237419-3.2640058-1.464065-5.4731473-3.679975-6.6274909-2.215911-1.1543435-4.82748-1.7315066-7.834787-1.7315066-.949676 0-1.978476.0597066-3.086431.1791214-1.107956.1194149-2.116971.3781431-3.027077.7761926s-1.681706.9752126-2.314823 1.7315066c-.633118.7562941-.949672 1.771305-.949672 3.0450634 0 1.5125881.55397 2.746523 1.661925 3.7018417 1.107955.9553188 2.552232 1.7315037 4.332874 2.3285779 1.780643.5970742 3.818458 1.134433 6.113508 1.6120924 2.29505.4776593 4.629635.9951159 7.003825 1.5523852 2.453329.5572693 4.847268 1.2339433 7.181888 2.0300422 2.33462.796099 4.412004 1.8509143 6.232217 3.1644777 1.820212 1.3135633 3.284273 2.9455417 4.392229 4.8959842 1.107955 1.9504425 1.661924 4.3586057 1.661924 7.2245621 0 4.0601047-.811169 7.4633768-2.433532 10.2099183s-3.739317 4.955683-6.350926 6.6274908c-2.611609 1.6718079-5.599086 2.8460363-8.962521 3.5227204-3.363436.6766841-6.786174 1.0150211-10.268319 1.0150211-3.561285 0-7.043377-.3582392-10.446383-1.0747282-3.403005-.7164891-6.430051-1.9106197-9.08123-3.5824275-2.651178-1.6718079-4.827486-3.8809494-6.528989-6.6274909-1.701502-2.7465414-2.631379-6.1896179-2.789659-10.3293325z" fill="#ff7000" transform="translate(0 -.5)"/></svg>