<?xml version="1.0" encoding="UTF-8"?>
<svg width="482px" height="36px" viewBox="0 0 482 36" version="1.1" xmlns="http://www.w3.org/2000/svg" xmlns:xlink="http://www.w3.org/1999/xlink">
    <!-- Generator: Sketch 53.2 (72643) - https://sketchapp.com -->
    <title>moto</title>
    <desc>Created with Sketch.</desc>
    <g id="personalwebsite" stroke="none" stroke-width="1" fill="none" fill-rule="evenodd">
        <g id="t" transform="translate(-222.000000, -582.000000)" fill="#000000" fill-rule="nonzero">
            <g id="Group-11" transform="translate(171.000000, 343.000000)">
                <g id="Group-2" transform="translate(0.000000, 6.000000)">
                    <path d="M65.5294931,247.928 C65.3521588,246.711994 64.8644971,245.79367 64.0664931,245.173 C63.2684891,244.55233 62.2614991,244.242 61.0454931,244.242 C60.4881569,244.242 59.8928296,244.336999 59.2594931,244.527 C58.6261566,244.717001 58.0434957,245.071664 57.5114931,245.591 C56.9794904,246.110336 56.5361615,246.832329 56.1814931,247.757 C55.8268246,248.681671 55.6494931,249.891326 55.6494931,251.386 C55.6494931,252.196671 55.7444921,253.007329 55.9344931,253.818 C56.124494,254.628671 56.428491,255.350663 56.8464931,255.984 C57.2644952,256.617337 57.8028231,257.130331 58.4614931,257.523 C59.120163,257.915669 59.918155,258.112 60.8554931,258.112 C62.1221661,258.112 63.1671556,257.719337 63.9904931,256.934 C64.8138305,256.148663 65.3268254,255.046674 65.5294931,253.628 L69.8614931,253.628 C69.4561577,256.186679 68.4871674,258.14366 66.9544931,259.499 C65.4218187,260.85434 63.3888391,261.532 60.8554931,261.532 C59.310152,261.532 57.948499,261.272336 56.7704931,260.753 C55.5924872,260.233664 54.5981638,259.524338 53.7874931,258.625 C52.9768223,257.725662 52.3624952,256.65534 51.9444931,255.414 C51.526491,254.17266 51.3174931,252.830007 51.3174931,251.386 C51.3174931,249.916659 51.5201577,248.536006 51.9254931,247.244 C52.3308284,245.951994 52.9388223,244.831005 53.7494931,243.881 C54.5601638,242.930995 55.5671537,242.183669 56.7704931,241.639 C57.9738324,241.094331 59.3861516,240.822 61.0074931,240.822 C62.1474988,240.822 63.2304879,240.967665 64.2564931,241.259 C65.2824982,241.550335 66.1944891,241.98733 66.9924931,242.57 C67.7904971,243.15267 68.4428239,243.887329 68.9494931,244.774 C69.4561623,245.660671 69.7601592,246.711994 69.8614931,247.928 L65.5294931,247.928 Z M74.1153825,233.868 L78.4473825,233.868 L78.4473825,243.938 L78.5233825,243.938 C79.0553851,243.051329 79.8470439,242.310336 80.8983825,241.715 C81.9497211,241.119664 83.121376,240.822 84.4133825,240.822 C86.5667266,240.822 88.2640429,241.379328 89.5053825,242.494 C90.746722,243.608672 91.3673825,245.280656 91.3673825,247.51 L91.3673825,261 L87.0353825,261 L87.0353825,248.65 C86.9847156,247.104659 86.6553855,245.98367 86.0473825,245.287 C85.4393794,244.59033 84.4893889,244.242 83.1973825,244.242 C82.4627121,244.242 81.8040521,244.374999 81.2213825,244.641 C80.6387129,244.907001 80.1447178,245.274331 79.7393825,245.743 C79.3340471,246.211669 79.0173836,246.762664 78.7893825,247.396 C78.5613813,248.029336 78.4473825,248.700663 78.4473825,249.41 L78.4473825,261 L74.1153825,261 L74.1153825,233.868 Z M110.137272,249.448 C110.086605,248.763997 109.94094,248.105336 109.700272,247.472 C109.459604,246.838663 109.130274,246.287669 108.712272,245.819 C108.29427,245.350331 107.787608,244.970335 107.192272,244.679 C106.596936,244.387665 105.931942,244.242 105.197272,244.242 C104.437268,244.242 103.746942,244.374999 103.126272,244.641 C102.505602,244.907001 101.973607,245.274331 101.530272,245.743 C101.086936,246.211669 100.732273,246.762664 100.466272,247.396 C100.200271,248.029336 100.054605,248.71333 100.029272,249.448 L110.137272,249.448 Z M100.029272,252.298 C100.029272,253.058004 100.136937,253.792663 100.352272,254.502 C100.567606,255.211337 100.890603,255.831997 101.321272,256.364 C101.751941,256.896003 102.296602,257.320332 102.955272,257.637 C103.613942,257.953668 104.399267,258.112 105.311272,258.112 C106.577945,258.112 107.597601,257.839669 108.370272,257.295 C109.142942,256.750331 109.71927,255.933339 110.099272,254.844 L114.203272,254.844 C113.975271,255.908005 113.582608,256.857996 113.025272,257.694 C112.467936,258.530004 111.796609,259.232997 111.011272,259.803 C110.225935,260.373003 109.34561,260.803665 108.370272,261.095 C107.394934,261.386335 106.375277,261.532 105.311272,261.532 C103.765931,261.532 102.397944,261.278669 101.207272,260.772 C100.016599,260.265331 99.0096093,259.556005 98.1862719,258.644 C97.3629344,257.731995 96.742274,256.642673 96.3242719,255.376 C95.9062698,254.109327 95.6972719,252.716008 95.6972719,251.196 C95.6972719,249.80266 95.9189363,248.479006 96.3622719,247.225 C96.8056074,245.970994 97.4389344,244.869005 98.2622719,243.919 C99.0856093,242.968995 100.079933,242.215336 101.245272,241.658 C102.410611,241.100664 103.727931,240.822 105.197272,240.822 C106.742613,240.822 108.129599,241.144997 109.358272,241.791 C110.586945,242.437003 111.606601,243.291995 112.417272,244.356 C113.227943,245.420005 113.816937,246.642326 114.184272,248.023 C114.551607,249.403674 114.646606,250.828659 114.469272,252.298 L100.029272,252.298 Z M131.985161,249.448 C131.934494,248.763997 131.788829,248.105336 131.548161,247.472 C131.307493,246.838663 130.978163,246.287669 130.560161,245.819 C130.142159,245.350331 129.635498,244.970335 129.040161,244.679 C128.444825,244.387665 127.779832,244.242 127.045161,244.242 C126.285157,244.242 125.594831,244.374999 124.974161,244.641 C124.353492,244.907001 123.821497,245.274331 123.378161,245.743 C122.934826,246.211669 122.580163,246.762664 122.314161,247.396 C122.04816,248.029336 121.902495,248.71333 121.877161,249.448 L131.985161,249.448 Z M121.877161,252.298 C121.877161,253.058004 121.984827,253.792663 122.200161,254.502 C122.415496,255.211337 122.738492,255.831997 123.169161,256.364 C123.59983,256.896003 124.144491,257.320332 124.803161,257.637 C125.461831,257.953668 126.247157,258.112 127.159161,258.112 C128.425834,258.112 129.445491,257.839669 130.218161,257.295 C130.990832,256.750331 131.567159,255.933339 131.947161,254.844 L136.051161,254.844 C135.82316,255.908005 135.430497,256.857996 134.873161,257.694 C134.315825,258.530004 133.644499,259.232997 132.859161,259.803 C132.073824,260.373003 131.193499,260.803665 130.218161,261.095 C129.242823,261.386335 128.223167,261.532 127.159161,261.532 C125.61382,261.532 124.245834,261.278669 123.055161,260.772 C121.864489,260.265331 120.857499,259.556005 120.034161,258.644 C119.210824,257.731995 118.590163,256.642673 118.172161,255.376 C117.754159,254.109327 117.545161,252.716008 117.545161,251.196 C117.545161,249.80266 117.766826,248.479006 118.210161,247.225 C118.653497,245.970994 119.286824,244.869005 120.110161,243.919 C120.933499,242.968995 121.927822,242.215336 123.093161,241.658 C124.2585,241.100664 125.575821,240.822 127.045161,240.822 C128.590502,240.822 129.977488,241.144997 131.206161,241.791 C132.434834,242.437003 133.454491,243.291995 134.265161,244.356 C135.075832,245.420005 135.664826,246.642326 136.032161,248.023 C136.399496,249.403674 136.494495,250.828659 136.317161,252.298 L121.877161,252.298 Z M140.343051,241.354 L144.409051,241.354 L144.409051,245.154 L144.485051,245.154 C144.611718,244.621997 144.858716,244.102669 145.226051,243.596 C145.593386,243.089331 146.036715,242.627002 146.556051,242.209 C147.075387,241.790998 147.651714,241.455335 148.285051,241.202 C148.918387,240.948665 149.564381,240.822 150.223051,240.822 C150.72972,240.822 151.07805,240.834667 151.268051,240.86 C151.458052,240.885333 151.654383,240.910667 151.857051,240.936 L151.857051,245.116 C151.553049,245.065333 151.242719,245.021 150.926051,244.983 C150.609382,244.945 150.299052,244.926 149.995051,244.926 C149.26038,244.926 148.570054,245.071665 147.924051,245.363 C147.278047,245.654335 146.714386,246.084997 146.233051,246.655 C145.751715,247.225003 145.371719,247.927996 145.093051,248.764 C144.814383,249.600004 144.675051,250.562661 144.675051,251.652 L144.675051,261 L140.343051,261 L140.343051,241.354 Z M157.70694,254.692 C157.833607,255.958673 158.314936,256.845331 159.15094,257.352 C159.986944,257.858669 160.987601,258.112 162.15294,258.112 C162.558275,258.112 163.020604,258.080334 163.53994,258.017 C164.059276,257.953666 164.546938,257.833334 165.00294,257.656 C165.458942,257.478666 165.832605,257.219002 166.12394,256.877 C166.415275,256.534998 166.548274,256.085336 166.52294,255.528 C166.497607,254.970664 166.294942,254.514668 165.91494,254.16 C165.534938,253.805332 165.047276,253.520334 164.45194,253.305 C163.856604,253.089666 163.178944,252.906001 162.41894,252.754 C161.658936,252.601999 160.886277,252.437334 160.10094,252.26 C159.290269,252.082666 158.511277,251.867335 157.76394,251.614 C157.016603,251.360665 156.345276,251.018669 155.74994,250.588 C155.154604,250.157331 154.679609,249.606337 154.32494,248.935 C153.970272,248.263663 153.79294,247.434005 153.79294,246.446 C153.79294,245.381995 154.052604,244.489004 154.57194,243.767 C155.091276,243.044996 155.749936,242.462336 156.54794,242.019 C157.345944,241.575664 158.232602,241.265334 159.20794,241.088 C160.183278,240.910666 161.114269,240.822 162.00094,240.822 C163.014278,240.822 163.983269,240.929666 164.90794,241.145 C165.832611,241.360334 166.668603,241.708664 167.41594,242.19 C168.163277,242.671336 168.783938,243.298329 169.27794,244.071 C169.771943,244.843671 170.082273,245.774661 170.20894,246.864 L165.68694,246.864 C165.484272,245.825328 165.009277,245.128668 164.26194,244.774 C163.514603,244.419332 162.659612,244.242 161.69694,244.242 C161.392939,244.242 161.031942,244.267333 160.61394,244.318 C160.195938,244.368667 159.803275,244.463666 159.43594,244.603 C159.068605,244.742334 158.758275,244.944999 158.50494,245.211 C158.251605,245.477001 158.12494,245.825331 158.12494,246.256 C158.12494,246.788003 158.308605,247.218665 158.67594,247.548 C159.043275,247.877335 159.524604,248.149666 160.11994,248.365 C160.715276,248.580334 161.392936,248.763999 162.15294,248.916 C162.912944,249.068001 163.698269,249.232666 164.50894,249.41 C165.294277,249.587334 166.066936,249.802665 166.82694,250.056 C167.586944,250.309335 168.264604,250.651331 168.85994,251.082 C169.455276,251.512669 169.936605,252.05733 170.30394,252.716 C170.671275,253.37467 170.85494,254.185329 170.85494,255.148 C170.85494,256.313339 170.588943,257.301329 170.05694,258.112 C169.524937,258.922671 168.834611,259.581331 167.98594,260.088 C167.137269,260.594669 166.193612,260.961999 165.15494,261.19 C164.116268,261.418001 163.090278,261.532 162.07694,261.532 C160.835601,261.532 159.689279,261.392668 158.63794,261.114 C157.586601,260.835332 156.674611,260.411003 155.90194,259.841 C155.12927,259.270997 154.521276,258.561671 154.07794,257.713 C153.634605,256.864329 153.400274,255.857339 153.37494,254.692 L157.70694,254.692 Z M184.188719,241.354 L187.456719,241.354 L187.456719,235.464 L191.788719,235.464 L191.788719,241.354 L195.702719,241.354 L195.702719,244.584 L191.788719,244.584 L191.788719,255.072 C191.788719,255.528002 191.807719,255.920665 191.845719,256.25 C191.883719,256.579335 191.972385,256.857999 192.111719,257.086 C192.251053,257.314001 192.460051,257.484999 192.738719,257.599 C193.017387,257.713001 193.397383,257.77 193.878719,257.77 C194.18272,257.77 194.486717,257.763667 194.790719,257.751 C195.09472,257.738333 195.398717,257.694 195.702719,257.618 L195.702719,260.962 C195.221383,261.012667 194.752721,261.063333 194.296719,261.114 C193.840717,261.164667 193.372055,261.19 192.890719,261.19 C191.750713,261.19 190.832389,261.082334 190.135719,260.867 C189.439049,260.651666 188.894388,260.335002 188.501719,259.917 C188.10905,259.498998 187.843053,258.973337 187.703719,258.34 C187.564385,257.706663 187.482052,256.984671 187.456719,256.174 L187.456719,244.584 L184.188719,244.584 L184.188719,241.354 Z M208.544608,261.532 C206.973934,261.532 205.574281,261.272336 204.345608,260.753 C203.116935,260.233664 202.078279,259.518005 201.229608,258.606 C200.380937,257.693995 199.734944,256.604673 199.291608,255.338 C198.848273,254.071327 198.626608,252.678008 198.626608,251.158 C198.626608,249.663326 198.848273,248.282673 199.291608,247.016 C199.734944,245.749327 200.380937,244.660005 201.229608,243.748 C202.078279,242.835995 203.116935,242.120336 204.345608,241.601 C205.574281,241.081664 206.973934,240.822 208.544608,240.822 C210.115283,240.822 211.514935,241.081664 212.743608,241.601 C213.972281,242.120336 215.010937,242.835995 215.859608,243.748 C216.708279,244.660005 217.354273,245.749327 217.797608,247.016 C218.240944,248.282673 218.462608,249.663326 218.462608,251.158 C218.462608,252.678008 218.240944,254.071327 217.797608,255.338 C217.354273,256.604673 216.708279,257.693995 215.859608,258.606 C215.010937,259.518005 213.972281,260.233664 212.743608,260.753 C211.514935,261.272336 210.115283,261.532 208.544608,261.532 Z M208.544608,258.112 C209.50728,258.112 210.343271,257.909335 211.052608,257.504 C211.761945,257.098665 212.344606,256.56667 212.800608,255.908 C213.256611,255.24933 213.592274,254.508337 213.807608,253.685 C214.022943,252.861663 214.130608,252.019338 214.130608,251.158 C214.130608,250.321996 214.022943,249.486004 213.807608,248.65 C213.592274,247.813996 213.256611,247.073003 212.800608,246.427 C212.344606,245.780997 211.761945,245.255335 211.052608,244.85 C210.343271,244.444665 209.50728,244.242 208.544608,244.242 C207.581937,244.242 206.745945,244.444665 206.036608,244.85 C205.327271,245.255335 204.744611,245.780997 204.288608,246.427 C203.832606,247.073003 203.496943,247.813996 203.281608,248.65 C203.066274,249.486004 202.958608,250.321996 202.958608,251.158 C202.958608,252.019338 203.066274,252.861663 203.281608,253.685 C203.496943,254.508337 203.832606,255.24933 204.288608,255.908 C204.744611,256.56667 205.327271,257.098665 206.036608,257.504 C206.745945,257.909335 207.581937,258.112 208.544608,258.112 Z M234.190387,233.868 L238.522387,233.868 L238.522387,243.9 L238.598387,243.9 C238.902389,243.418664 239.269718,242.988002 239.700387,242.608 C240.131056,242.227998 240.606051,241.905001 241.125387,241.639 C241.644723,241.372999 242.189384,241.170334 242.759387,241.031 C243.32939,240.891666 243.893051,240.822 244.450387,240.822 C245.995728,240.822 247.344715,241.094331 248.497387,241.639 C249.65006,242.183669 250.606383,242.930995 251.366387,243.881 C252.126391,244.831005 252.696385,245.939327 253.076387,247.206 C253.456389,248.472673 253.646387,249.827993 253.646387,251.272 C253.646387,252.58934 253.475389,253.86866 253.133387,255.11 C252.791385,256.35134 252.272057,257.446995 251.575387,258.397 C250.878717,259.347005 249.998392,260.106997 248.934387,260.677 C247.870382,261.247003 246.616394,261.532 245.172387,261.532 C244.513717,261.532 243.848724,261.487667 243.177387,261.399 C242.50605,261.310333 241.86639,261.139335 241.258387,260.886 C240.650384,260.632665 240.09939,260.303335 239.605387,259.898 C239.111385,259.492665 238.699722,258.96067 238.370387,258.302 L238.294387,258.302 L238.294387,261 L234.190387,261 L234.190387,233.868 Z M249.314387,251.196 C249.314387,250.309329 249.200388,249.448004 248.972387,248.612 C248.744386,247.775996 248.402389,247.035003 247.946387,246.389 C247.490385,245.742997 246.920391,245.223669 246.236387,244.831 C245.552384,244.438331 244.767058,244.242 243.880387,244.242 C242.056378,244.242 240.682058,244.875327 239.757387,246.142 C238.832716,247.408673 238.370387,249.093323 238.370387,251.196 C238.370387,252.184005 238.490719,253.102329 238.731387,253.951 C238.972055,254.799671 239.333051,255.527997 239.814387,256.136 C240.295723,256.744003 240.87205,257.225332 241.543387,257.58 C242.214724,257.934668 242.993716,258.112 243.880387,258.112 C244.868392,258.112 245.704384,257.909335 246.388387,257.504 C247.072391,257.098665 247.636052,256.573003 248.079387,255.927 C248.522723,255.280997 248.839386,254.546337 249.029387,253.723 C249.219388,252.899663 249.314387,252.057338 249.314387,251.196 Z M271.504276,249.448 C271.45361,248.763997 271.307944,248.105336 271.067276,247.472 C270.826609,246.838663 270.497279,246.287669 270.079276,245.819 C269.661274,245.350331 269.154613,244.970335 268.559276,244.679 C267.96394,244.387665 267.298947,244.242 266.564276,244.242 C265.804273,244.242 265.113946,244.374999 264.493276,244.641 C263.872607,244.907001 263.340612,245.274331 262.897276,245.743 C262.453941,246.211669 262.099278,246.762664 261.833276,247.396 C261.567275,248.029336 261.42161,248.71333 261.396276,249.448 L271.504276,249.448 Z M261.396276,252.298 C261.396276,253.058004 261.503942,253.792663 261.719276,254.502 C261.934611,255.211337 262.257608,255.831997 262.688276,256.364 C263.118945,256.896003 263.663607,257.320332 264.322276,257.637 C264.980946,257.953668 265.766272,258.112 266.678276,258.112 C267.944949,258.112 268.964606,257.839669 269.737276,257.295 C270.509947,256.750331 271.086275,255.933339 271.466276,254.844 L275.570276,254.844 C275.342275,255.908005 274.949613,256.857996 274.392276,257.694 C273.83494,258.530004 273.163614,259.232997 272.378276,259.803 C271.592939,260.373003 270.712615,260.803665 269.737276,261.095 C268.761938,261.386335 267.742282,261.532 266.678276,261.532 C265.132935,261.532 263.764949,261.278669 262.574276,260.772 C261.383604,260.265331 260.376614,259.556005 259.553276,258.644 C258.729939,257.731995 258.109279,256.642673 257.691276,255.376 C257.273274,254.109327 257.064276,252.716008 257.064276,251.196 C257.064276,249.80266 257.285941,248.479006 257.729276,247.225 C258.172612,245.970994 258.805939,244.869005 259.629276,243.919 C260.452614,242.968995 261.446937,242.215336 262.612276,241.658 C263.777616,241.100664 265.094936,240.822 266.564276,240.822 C268.109618,240.822 269.496604,241.144997 270.725276,241.791 C271.953949,242.437003 272.973606,243.291995 273.784276,244.356 C274.594947,245.420005 275.183941,246.642326 275.551276,248.023 C275.918612,249.403674 276.013611,250.828659 275.836276,252.298 L261.396276,252.298 Z M277.886166,241.354 L281.154166,241.354 L281.154166,235.464 L285.486166,235.464 L285.486166,241.354 L289.400166,241.354 L289.400166,244.584 L285.486166,244.584 L285.486166,255.072 C285.486166,255.528002 285.505166,255.920665 285.543166,256.25 C285.581166,256.579335 285.669832,256.857999 285.809166,257.086 C285.9485,257.314001 286.157498,257.484999 286.436166,257.599 C286.714834,257.713001 287.09483,257.77 287.576166,257.77 C287.880167,257.77 288.184164,257.763667 288.488166,257.751 C288.792167,257.738333 289.096164,257.694 289.400166,257.618 L289.400166,260.962 C288.91883,261.012667 288.450168,261.063333 287.994166,261.114 C287.538164,261.164667 287.069502,261.19 286.588166,261.19 C285.44816,261.19 284.529836,261.082334 283.833166,260.867 C283.136496,260.651666 282.591835,260.335002 282.199166,259.917 C281.806497,259.498998 281.5405,258.973337 281.401166,258.34 C281.261832,257.706663 281.179499,256.984671 281.154166,256.174 L281.154166,244.584 L277.886166,244.584 L277.886166,241.354 Z M291.260055,241.354 L294.528055,241.354 L294.528055,235.464 L298.860055,235.464 L298.860055,241.354 L302.774055,241.354 L302.774055,244.584 L298.860055,244.584 L298.860055,255.072 C298.860055,255.528002 298.879055,255.920665 298.917055,256.25 C298.955055,256.579335 299.043721,256.857999 299.183055,257.086 C299.322389,257.314001 299.531387,257.484999 299.810055,257.599 C300.088723,257.713001 300.46872,257.77 300.950055,257.77 C301.254057,257.77 301.558054,257.763667 301.862055,257.751 C302.166057,257.738333 302.470054,257.694 302.774055,257.618 L302.774055,260.962 C302.29272,261.012667 301.824058,261.063333 301.368055,261.114 C300.912053,261.164667 300.443391,261.19 299.962055,261.19 C298.82205,261.19 297.903725,261.082334 297.207055,260.867 C296.510385,260.651666 295.965724,260.335002 295.573055,259.917 C295.180387,259.498998 294.914389,258.973337 294.775055,258.34 C294.635721,257.706663 294.553389,256.984671 294.528055,256.174 L294.528055,244.584 L291.260055,244.584 L291.260055,241.354 Z M320.099945,249.448 C320.049278,248.763997 319.903613,248.105336 319.662945,247.472 C319.422277,246.838663 319.092947,246.287669 318.674945,245.819 C318.256943,245.350331 317.750281,244.970335 317.154945,244.679 C316.559608,244.387665 315.894615,244.242 315.159945,244.242 C314.399941,244.242 313.709614,244.374999 313.088945,244.641 C312.468275,244.907001 311.93628,245.274331 311.492945,245.743 C311.049609,246.211669 310.694946,246.762664 310.428945,247.396 C310.162943,248.029336 310.017278,248.71333 309.991945,249.448 L320.099945,249.448 Z M309.991945,252.298 C309.991945,253.058004 310.09961,253.792663 310.314945,254.502 C310.530279,255.211337 310.853276,255.831997 311.283945,256.364 C311.714614,256.896003 312.259275,257.320332 312.917945,257.637 C313.576615,257.953668 314.36194,258.112 315.273945,258.112 C316.540618,258.112 317.560274,257.839669 318.332945,257.295 C319.105615,256.750331 319.681943,255.933339 320.061945,254.844 L324.165945,254.844 C323.937944,255.908005 323.545281,256.857996 322.987945,257.694 C322.430609,258.530004 321.759282,259.232997 320.973945,259.803 C320.188607,260.373003 319.308283,260.803665 318.332945,261.095 C317.357606,261.386335 316.33795,261.532 315.273945,261.532 C313.728604,261.532 312.360617,261.278669 311.169945,260.772 C309.979272,260.265331 308.972282,259.556005 308.148945,258.644 C307.325607,257.731995 306.704947,256.642673 306.286945,255.376 C305.868943,254.109327 305.659945,252.716008 305.659945,251.196 C305.659945,249.80266 305.881609,248.479006 306.324945,247.225 C306.76828,245.970994 307.401607,244.869005 308.224945,243.919 C309.048282,242.968995 310.042606,242.215336 311.207945,241.658 C312.373284,241.100664 313.690604,240.822 315.159945,240.822 C316.705286,240.822 318.092272,241.144997 319.320945,241.791 C320.549618,242.437003 321.569274,243.291995 322.379945,244.356 C323.190615,245.420005 323.77961,246.642326 324.146945,248.023 C324.51428,249.403674 324.609279,250.828659 324.431945,252.298 L309.991945,252.298 Z M328.457834,241.354 L332.523834,241.354 L332.523834,245.154 L332.599834,245.154 C332.726501,244.621997 332.973499,244.102669 333.340834,243.596 C333.708169,243.089331 334.151498,242.627002 334.670834,242.209 C335.19017,241.790998 335.766498,241.455335 336.399834,241.202 C337.033171,240.948665 337.679164,240.822 338.337834,240.822 C338.844503,240.822 339.192833,240.834667 339.382834,240.86 C339.572835,240.885333 339.769166,240.910667 339.971834,240.936 L339.971834,245.116 C339.667833,245.065333 339.357502,245.021 339.040834,244.983 C338.724166,244.945 338.413836,244.926 338.109834,244.926 C337.375164,244.926 336.684837,245.071665 336.038834,245.363 C335.392831,245.654335 334.82917,246.084997 334.347834,246.655 C333.866498,247.225003 333.486502,247.927996 333.207834,248.764 C332.929166,249.600004 332.789834,250.562661 332.789834,251.652 L332.789834,261 L328.457834,261 L328.457834,241.354 Z M353.837613,241.354 L357.941613,241.354 L357.941613,244.242 L358.017613,244.318 C358.676283,243.228661 359.537608,242.37367 360.601613,241.753 C361.665618,241.13233 362.843606,240.822 364.135613,240.822 C366.288957,240.822 367.986273,241.379328 369.227613,242.494 C370.468952,243.608672 371.089613,245.280656 371.089613,247.51 L371.089613,261 L366.757613,261 L366.757613,248.65 C366.706946,247.104659 366.377616,245.98367 365.769613,245.287 C365.16161,244.59033 364.211619,244.242 362.919613,244.242 C362.184943,244.242 361.526282,244.374999 360.943613,244.641 C360.360943,244.907001 359.866948,245.274331 359.461613,245.743 C359.056278,246.211669 358.739614,246.762664 358.511613,247.396 C358.283612,248.029336 358.169613,248.700663 358.169613,249.41 L358.169613,261 L353.837613,261 L353.837613,241.354 Z M376.483502,233.868 L380.815502,233.868 L380.815502,237.972 L376.483502,237.972 L376.483502,233.868 Z M376.483502,241.354 L380.815502,241.354 L380.815502,261 L376.483502,261 L376.483502,241.354 Z M404.411392,259.974 C404.411392,262.938015 403.581733,265.148326 401.922392,266.605 C400.26305,268.061674 397.875407,268.79 394.759392,268.79 C393.771387,268.79 392.777063,268.688668 391.776392,268.486 C390.77572,268.283332 389.863729,267.941336 389.040392,267.46 C388.217054,266.978664 387.526728,266.345337 386.969392,265.56 C386.412056,264.774663 386.082726,263.812006 385.981392,262.672 L390.313392,262.672 C390.440059,263.280003 390.65539,263.773998 390.959392,264.154 C391.263393,264.534002 391.62439,264.831666 392.042392,265.047 C392.460394,265.262334 392.922723,265.401666 393.429392,265.465 C393.936061,265.528334 394.468056,265.56 395.025392,265.56 C396.7734,265.56 398.052721,265.129338 398.863392,264.268 C399.674062,263.406662 400.079392,262.165341 400.079392,260.544 L400.079392,257.542 L400.003392,257.542 C399.395389,258.631339 398.56573,259.479997 397.514392,260.088 C396.463053,260.696003 395.329398,261 394.113392,261 C392.542717,261 391.206397,260.727669 390.104392,260.183 C389.002386,259.638331 388.090395,258.891005 387.368392,257.941 C386.646388,256.990995 386.120727,255.89534 385.791392,254.654 C385.462057,253.41266 385.297392,252.082674 385.297392,250.664 C385.297392,249.34666 385.500056,248.092673 385.905392,246.902 C386.310727,245.711327 386.893388,244.666338 387.653392,243.767 C388.413396,242.867662 389.344386,242.152003 390.446392,241.62 C391.548397,241.087997 392.796051,240.822 394.189392,240.822 C395.430731,240.822 396.57072,241.081664 397.609392,241.601 C398.648064,242.120336 399.446056,242.937328 400.003392,244.052 L400.079392,244.052 L400.079392,241.354 L404.411392,241.354 L404.411392,259.974 Z M394.797392,257.58 C395.760063,257.58 396.577055,257.383669 397.248392,256.991 C397.919728,256.598331 398.46439,256.079003 398.882392,255.433 C399.300394,254.786997 399.604391,254.052337 399.794392,253.229 C399.984393,252.405663 400.079392,251.576004 400.079392,250.74 C400.079392,249.903996 399.978059,249.093337 399.775392,248.308 C399.572724,247.522663 399.262394,246.826003 398.844392,246.218 C398.42639,245.609997 397.881728,245.128668 397.210392,244.774 C396.539055,244.419332 395.73473,244.242 394.797392,244.242 C393.83472,244.242 393.024062,244.444665 392.365392,244.85 C391.706722,245.255335 391.174727,245.780997 390.769392,246.427 C390.364056,247.073003 390.072726,247.807663 389.895392,248.631 C389.718057,249.454337 389.629392,250.271329 389.629392,251.082 C389.629392,251.892671 389.730724,252.684329 389.933392,253.457 C390.136059,254.229671 390.44639,254.919997 390.864392,255.528 C391.282394,256.136003 391.814388,256.629998 392.460392,257.01 C393.106395,257.390002 393.885387,257.58 394.797392,257.58 Z M409.501281,233.868 L413.833281,233.868 L413.833281,243.938 L413.909281,243.938 C414.441284,243.051329 415.232943,242.310336 416.284281,241.715 C417.33562,241.119664 418.507275,240.822 419.799281,240.822 C421.952625,240.822 423.649942,241.379328 424.891281,242.494 C426.132621,243.608672 426.753281,245.280656 426.753281,247.51 L426.753281,261 L422.421281,261 L422.421281,248.65 C422.370614,247.104659 422.041284,245.98367 421.433281,245.287 C420.825278,244.59033 419.875288,244.242 418.583281,244.242 C417.848611,244.242 417.189951,244.374999 416.607281,244.641 C416.024612,244.907001 415.530616,245.274331 415.125281,245.743 C414.719946,246.211669 414.403282,246.762664 414.175281,247.396 C413.94728,248.029336 413.833281,248.700663 413.833281,249.41 L413.833281,261 L409.501281,261 L409.501281,233.868 Z M430.057171,241.354 L433.325171,241.354 L433.325171,235.464 L437.657171,235.464 L437.657171,241.354 L441.571171,241.354 L441.571171,244.584 L437.657171,244.584 L437.657171,255.072 C437.657171,255.528002 437.67617,255.920665 437.714171,256.25 C437.752171,256.579335 437.840836,256.857999 437.980171,257.086 C438.119505,257.314001 438.328502,257.484999 438.607171,257.599 C438.885839,257.713001 439.265835,257.77 439.747171,257.77 C440.051172,257.77 440.355169,257.763667 440.659171,257.751 C440.963172,257.738333 441.267169,257.694 441.571171,257.618 L441.571171,260.962 C441.089835,261.012667 440.621173,261.063333 440.165171,261.114 C439.709168,261.164667 439.240506,261.19 438.759171,261.19 C437.619165,261.19 436.700841,261.082334 436.004171,260.867 C435.3075,260.651666 434.762839,260.335002 434.370171,259.917 C433.977502,259.498998 433.711505,258.973337 433.572171,258.34 C433.432836,257.706663 433.350504,256.984671 433.325171,256.174 L433.325171,244.584 L430.057171,244.584 L430.057171,241.354 Z M448.67506,254.692 C448.801727,255.958673 449.283056,256.845331 450.11906,257.352 C450.955064,257.858669 451.955721,258.112 453.12106,258.112 C453.526395,258.112 453.988724,258.080334 454.50806,258.017 C455.027396,257.953666 455.515058,257.833334 455.97106,257.656 C456.427062,257.478666 456.800725,257.219002 457.09206,256.877 C457.383395,256.534998 457.516393,256.085336 457.49106,255.528 C457.465726,254.970664 457.263062,254.514668 456.88306,254.16 C456.503058,253.805332 456.015396,253.520334 455.42006,253.305 C454.824724,253.089666 454.147064,252.906001 453.38706,252.754 C452.627056,252.601999 451.854397,252.437334 451.06906,252.26 C450.258389,252.082666 449.479397,251.867335 448.73206,251.614 C447.984723,251.360665 447.313396,251.018669 446.71806,250.588 C446.122724,250.157331 445.647728,249.606337 445.29306,248.935 C444.938391,248.263663 444.76106,247.434005 444.76106,246.446 C444.76106,245.381995 445.020724,244.489004 445.54006,243.767 C446.059396,243.044996 446.718056,242.462336 447.51606,242.019 C448.314064,241.575664 449.200722,241.265334 450.17606,241.088 C451.151398,240.910666 452.082389,240.822 452.96906,240.822 C453.982398,240.822 454.951389,240.929666 455.87606,241.145 C456.800731,241.360334 457.636723,241.708664 458.38406,242.19 C459.131397,242.671336 459.752057,243.298329 460.24606,244.071 C460.740062,244.843671 461.050393,245.774661 461.17706,246.864 L456.65506,246.864 C456.452392,245.825328 455.977397,245.128668 455.23006,244.774 C454.482723,244.419332 453.627731,244.242 452.66506,244.242 C452.361058,244.242 452.000062,244.267333 451.58206,244.318 C451.164058,244.368667 450.771395,244.463666 450.40406,244.603 C450.036725,244.742334 449.726395,244.944999 449.47306,245.211 C449.219725,245.477001 449.09306,245.825331 449.09306,246.256 C449.09306,246.788003 449.276725,247.218665 449.64406,247.548 C450.011395,247.877335 450.492724,248.149666 451.08806,248.365 C451.683396,248.580334 452.361056,248.763999 453.12106,248.916 C453.881064,249.068001 454.666389,249.232666 455.47706,249.41 C456.262397,249.587334 457.035056,249.802665 457.79506,250.056 C458.555064,250.309335 459.232724,250.651331 459.82806,251.082 C460.423396,251.512669 460.904725,252.05733 461.27206,252.716 C461.639395,253.37467 461.82306,254.185329 461.82306,255.148 C461.82306,256.313339 461.557063,257.301329 461.02506,258.112 C460.493057,258.922671 459.802731,259.581331 458.95406,260.088 C458.105389,260.594669 457.161732,260.961999 456.12306,261.19 C455.084388,261.418001 454.058398,261.532 453.04506,261.532 C451.80372,261.532 450.657399,261.392668 449.60606,261.114 C448.554721,260.835332 447.64273,260.411003 446.87006,259.841 C446.097389,259.270997 445.489395,258.561671 445.04606,257.713 C444.602724,256.864329 444.368393,255.857339 444.34306,254.692 L448.67506,254.692 Z M486.138839,261.532 C484.568164,261.532 483.168512,261.272336 481.939839,260.753 C480.711166,260.233664 479.67251,259.518005 478.823839,258.606 C477.975168,257.693995 477.329174,256.604673 476.885839,255.338 C476.442503,254.071327 476.220839,252.678008 476.220839,251.158 C476.220839,249.663326 476.442503,248.282673 476.885839,247.016 C477.329174,245.749327 477.975168,244.660005 478.823839,243.748 C479.67251,242.835995 480.711166,242.120336 481.939839,241.601 C483.168512,241.081664 484.568164,240.822 486.138839,240.822 C487.709513,240.822 489.109166,241.081664 490.337839,241.601 C491.566512,242.120336 492.605168,242.835995 493.453839,243.748 C494.30251,244.660005 494.948503,245.749327 495.391839,247.016 C495.835174,248.282673 496.056839,249.663326 496.056839,251.158 C496.056839,252.678008 495.835174,254.071327 495.391839,255.338 C494.948503,256.604673 494.30251,257.693995 493.453839,258.606 C492.605168,259.518005 491.566512,260.233664 490.337839,260.753 C489.109166,261.272336 487.709513,261.532 486.138839,261.532 Z M486.138839,258.112 C487.10151,258.112 487.937502,257.909335 488.646839,257.504 C489.356176,257.098665 489.938836,256.56667 490.394839,255.908 C490.850841,255.24933 491.186504,254.508337 491.401839,253.685 C491.617173,252.861663 491.724839,252.019338 491.724839,251.158 C491.724839,250.321996 491.617173,249.486004 491.401839,248.65 C491.186504,247.813996 490.850841,247.073003 490.394839,246.427 C489.938836,245.780997 489.356176,245.255335 488.646839,244.85 C487.937502,244.444665 487.10151,244.242 486.138839,244.242 C485.176167,244.242 484.340176,244.444665 483.630839,244.85 C482.921502,245.255335 482.338841,245.780997 481.882839,246.427 C481.426836,247.073003 481.091173,247.813996 480.875839,248.65 C480.660504,249.486004 480.552839,250.321996 480.552839,251.158 C480.552839,252.019338 480.660504,252.861663 480.875839,253.685 C481.091173,254.508337 481.426836,255.24933 481.882839,255.908 C482.338841,256.56667 482.921502,257.098665 483.630839,257.504 C484.340176,257.909335 485.176167,258.112 486.138839,258.112 Z M517.638728,261 L513.382728,261 L513.382728,258.264 L513.306728,258.264 C512.774725,259.252005 511.983067,260.043664 510.931728,260.639 C509.88039,261.234336 508.810067,261.532 507.720728,261.532 C505.136715,261.532 503.268401,260.89234 502.115728,259.613 C500.963056,258.33366 500.386728,256.402013 500.386728,253.818 L500.386728,241.354 L504.718728,241.354 L504.718728,253.4 C504.718728,255.122675 505.048058,256.338663 505.706728,257.048 C506.365398,257.757337 507.290056,258.112 508.480728,258.112 C509.392733,258.112 510.152725,257.972668 510.760728,257.694 C511.368731,257.415332 511.862726,257.041669 512.242728,256.573 C512.62273,256.104331 512.895061,255.54067 513.059728,254.882 C513.224396,254.22333 513.306728,253.514004 513.306728,252.754 L513.306728,241.354 L517.638728,241.354 L517.638728,261 Z M520.942618,241.354 L524.210618,241.354 L524.210618,235.464 L528.542618,235.464 L528.542618,241.354 L532.456618,241.354 L532.456618,244.584 L528.542618,244.584 L528.542618,255.072 C528.542618,255.528002 528.561617,255.920665 528.599618,256.25 C528.637618,256.579335 528.726283,256.857999 528.865618,257.086 C529.004952,257.314001 529.213949,257.484999 529.492618,257.599 C529.771286,257.713001 530.151282,257.77 530.632618,257.77 C530.936619,257.77 531.240616,257.763667 531.544618,257.751 C531.848619,257.738333 532.152616,257.694 532.456618,257.618 L532.456618,260.962 C531.975282,261.012667 531.50662,261.063333 531.050618,261.114 C530.594615,261.164667 530.125953,261.19 529.644618,261.19 C528.504612,261.19 527.586288,261.082334 526.889618,260.867 C526.192947,260.651666 525.648286,260.335002 525.255618,259.917 C524.862949,259.498998 524.596952,258.973337 524.457618,258.34 C524.318283,257.706663 524.235951,256.984671 524.210618,256.174 L524.210618,244.584 L520.942618,244.584 L520.942618,241.354 Z" id="moto"></path>
                </g>
            </g>
        </g>
    </g>
</svg>