<svg height="36" viewBox="0 0 482 36" width="482" xmlns="http://www.w3.org/2000/svg"><path d="m65.5294931 247.928c-.1773343-1.216006-.664996-2.13433-1.463-2.755s-1.804994-.931-3.021-.931c-.5573362 0-1.1526635.094999-1.786.285s-1.2159974.544664-1.748 1.064c-.5320027.519336-.9753316 1.241329-1.33 2.166-.3546685.924671-.532 2.134326-.532 3.629 0 .810671.094999 1.621329.285 2.432.1900009.810671.4939979 1.532663.912 2.166s.95633 1.146331 1.615 1.539c.6586699.392669 1.4566619.589 2.394.589 1.266673 0 2.3116625-.392663 3.135-1.178.8233374-.785337 1.3363323-1.887326 1.539-3.306h4.332c-.4053354 2.558679-1.3743257 4.51566-2.907 5.871-1.5326744 1.35534-3.565654 2.033-6.099 2.033-1.5453411 0-2.9069941-.259664-4.085-.779s-2.1723293-1.228662-2.983-2.128c-.8106708-.899338-1.4249979-1.96966-1.843-3.211s-.627-2.583993-.627-4.028c0-1.469341.2026646-2.849994.608-4.142.4053353-1.292006 1.0133292-2.412995 1.824-3.363.8106707-.950005 1.8176606-1.697331 3.021-2.242 1.2033393-.544669 2.6156585-.817 4.237-.817 1.1400057 0 2.2229948.145665 3.249.437 1.0260051.291335 1.937996.72833 2.736 1.311s1.4503308 1.317329 1.957 2.204.8106661 1.937994.912 3.154zm8.5858894-14.06h4.332v10.07h.076c.5320026-.886671 1.3236614-1.627664 2.375-2.223s2.2229935-.893 3.515-.893c2.1533441 0 3.8506604.557328 5.092 1.672 1.2413395 1.114672 1.862 2.786656 1.862 5.016v13.49h-4.332v-12.35c-.0506669-1.545341-.379997-2.66633-.988-3.363-.6080031-.69667-1.5579936-1.045-2.85-1.045-.7346704 0-1.3933304.132999-1.976.399s-1.0766647.633331-1.482 1.102c-.4053354.468669-.7219989 1.019664-.95 1.653-.2280012.633336-.342 1.304663-.342 2.014v11.59h-4.332zm36.0218895 15.58c-.050667-.684003-.196332-1.342664-.437-1.976-.240668-.633337-.569998-1.184331-.988-1.653s-.924664-.848665-1.52-1.14-1.26033-.437-1.995-.437c-.760004 0-1.45033.132999-2.071.399s-1.152665.633331-1.596 1.102c-.443336.468669-.797999 1.019664-1.064 1.653s-.411667 1.31733-.437 2.052zm-10.108 2.85c0 .760004.107665 1.494663.323 2.204.215334.709337.538331 1.329997.969 1.862s.97533.956332 1.634 1.273 1.443995.475 2.356.475c1.266673 0 2.286329-.272331 3.059-.817.77267-.544669 1.348998-1.361661 1.729-2.451h4.104c-.228001 1.064005-.620664 2.013996-1.178 2.85s-1.228663 1.538997-2.014 2.109-1.665662 1.000665-2.641 1.292-1.994995.437-3.059.437c-1.545341 0-2.913328-.253331-4.104-.76-1.190673-.506669-2.1976627-1.215995-3.0210001-2.128-.8233375-.912005-1.4439979-2.001327-1.862-3.268s-.627-2.659992-.627-4.18c0-1.39334.2216644-2.716994.665-3.971.4433355-1.254006 1.0766625-2.355995 1.9-3.306.8233374-.950005 1.8176611-1.703664 2.9830001-2.261s2.482659-.836 3.952-.836c1.545341 0 2.932327.322997 4.161.969s2.248329 1.500995 3.059 2.565 1.399665 2.286326 1.767 3.667.462334 2.805659.285 4.275zm31.955889-2.85c-.050667-.684003-.196332-1.342664-.437-1.976-.240668-.633337-.569998-1.184331-.988-1.653s-.924663-.848665-1.52-1.14c-.595336-.291335-1.260329-.437-1.995-.437-.760004 0-1.45033.132999-2.071.399-.620669.266001-1.152664.633331-1.596 1.102-.443335.468669-.797998 1.019664-1.064 1.653-.266001.633336-.411666 1.31733-.437 2.052zm-10.108 2.85c0 .760004.107666 1.494663.323 2.204.215335.709337.538331 1.329997.969 1.862s.97533.956332 1.634 1.273 1.443996.475 2.356.475c1.266673 0 2.28633-.272331 3.059-.817.772671-.544669 1.348998-1.361661 1.729-2.451h4.104c-.228001 1.064005-.620664 2.013996-1.178 2.85s-1.228662 1.538997-2.014 2.109c-.785337.570003-1.665662 1.000665-2.641 1.292s-1.994994.437-3.059.437c-1.545341 0-2.913327-.253331-4.104-.76-1.190672-.506669-2.197662-1.215995-3.021-2.128-.823337-.912005-1.443998-2.001327-1.862-3.268s-.627-2.659992-.627-4.18c0-1.39334.221665-2.716994.665-3.971.443336-1.254006 1.076663-2.355995 1.9-3.306.823338-.950005 1.817661-1.703664 2.983-2.261s2.48266-.836 3.952-.836c1.545341 0 2.932327.322997 4.161.969s2.24833 1.500995 3.059 2.565c.810671 1.064005 1.399665 2.286326 1.767 3.667s.462334 2.805659.285 4.275zm18.46589-10.944h4.066v3.8h.076c.126667-.532003.373665-1.051331.741-1.558s.810664-.968998 1.33-1.387 1.095663-.753665 1.729-1.007c.633336-.253335 1.27933-.38 1.938-.38.506669 0 .854999.012667 1.045.038s.386332.050667.589.076v4.18c-.304002-.050667-.614332-.095-.931-.133-.316669-.038-.626999-.057-.931-.057-.734671 0-1.424997.145665-2.071.437-.646004.291335-1.209665.721997-1.691 1.292-.481336.570003-.861332 1.272996-1.14 2.109s-.418 1.798661-.418 2.888v9.348h-4.332zm17.363889 13.338c.126667 1.266673.607996 2.153331 1.444 2.66s1.836661.76 3.002.76c.405335 0 .867664-.031666 1.387-.095s1.006998-.183666 1.463-.361.829665-.436998 1.121-.779.424334-.791664.399-1.349c-.025333-.557336-.227998-1.013332-.608-1.368s-.867664-.639666-1.463-.855-1.272996-.398999-2.033-.551-1.532663-.316666-2.318-.494c-.810671-.177334-1.589663-.392665-2.337-.646s-1.418664-.595331-2.014-1.026-1.070331-.981663-1.425-1.653c-.354668-.671337-.532-1.500995-.532-2.489 0-1.064005.259664-1.956996.779-2.679s1.177996-1.304664 1.976-1.748 1.684662-.753666 2.66-.931 1.906329-.266 2.793-.266c1.013338 0 1.982329.107666 2.907.323s1.760663.563664 2.508 1.045 1.367998 1.108329 1.862 1.881c.494003.772671.804333 1.703661.931 2.793h-4.522c-.202668-1.038672-.677663-1.735332-1.425-2.09s-1.602328-.532-2.565-.532c-.304001 0-.664998.025333-1.083.076s-.810665.145666-1.178.285-.677665.341999-.931.608-.38.614331-.38 1.045c0 .532003.183665.962665.551 1.292s.848664.601666 1.444.817 1.272996.398999 2.033.551 1.545329.316666 2.356.494c.785337.177334 1.557996.392665 2.318.646s1.437664.595331 2.033 1.026 1.076665.97533 1.444 1.634.551 1.469329.551 2.432c0 1.165339-.265997 2.153329-.798 2.964s-1.222329 1.469331-2.071 1.976-1.792328.873999-2.831 1.102-2.064662.342-3.078.342c-1.241339 0-2.387661-.139332-3.439-.418s-1.963329-.702997-2.736-1.273c-.77267-.570003-1.380664-1.279329-1.824-2.128-.443335-.848671-.677666-1.855661-.703-3.021zm26.481779-13.338h3.268v-5.89h4.332v5.89h3.914v3.23h-3.914v10.488c0 .456002.019.848665.057 1.178s.126666.607999.266.836.348332.398999.627.513.658664.171 1.14.171c.304001 0 .607998-.006333.912-.019.304001-.012667.607998-.057.912-.133v3.344c-.481336.050667-.949998.101333-1.406.152s-.924664.076-1.406.076c-1.140006 0-2.05833-.107666-2.755-.323s-1.241331-.531998-1.634-.95-.658666-.943663-.798-1.577-.221667-1.355329-.247-2.166v-11.59h-3.268zm24.355889 20.178c-1.570674 0-2.970327-.259664-4.199-.779s-2.267329-1.234995-3.116-2.147-1.494664-2.001327-1.938-3.268c-.443335-1.266673-.665-2.659992-.665-4.18 0-1.494674.221665-2.875327.665-4.142.443336-1.266673 1.089329-2.355995 1.938-3.268s1.887327-1.627664 3.116-2.147 2.628326-.779 4.199-.779c1.570675 0 2.970327.259664 4.199.779s2.267329 1.234995 3.116 2.147 1.494665 2.001327 1.938 3.268c.443336 1.266673.665 2.647326.665 4.142 0 1.520008-.221664 2.913327-.665 4.18-.443335 1.266673-1.089329 2.355995-1.938 3.268s-1.887327 1.627664-3.116 2.147-2.628325.779-4.199.779zm0-3.42c.962672 0 1.798663-.202665 2.508-.608s1.291998-.93733 1.748-1.596c.456003-.65867.791666-1.399663 1.007-2.223.215335-.823337.323-1.665662.323-2.527 0-.836004-.107665-1.671996-.323-2.508-.215334-.836004-.550997-1.576997-1.007-2.223-.456002-.646003-1.038663-1.171665-1.748-1.577s-1.545328-.608-2.508-.608c-.962671 0-1.798663.202665-2.508.608s-1.291997.930997-1.748 1.577c-.456002.646003-.791665 1.386996-1.007 2.223-.215334.836004-.323 1.671996-.323 2.508 0 .861338.107666 1.703663.323 2.527.215335.823337.550998 1.56433 1.007 2.223.456003.65867 1.038663 1.190665 1.748 1.596s1.545329.608 2.508.608zm25.645779-24.244h4.332v10.032h.076c.304002-.481336.671331-.911998 1.102-1.292s.905664-.702999 1.425-.969 1.063997-.468666 1.634-.608 1.133664-.209 1.691-.209c1.545341 0 2.894328.272331 4.047.817 1.152673.544669 2.108996 1.291995 2.869 2.242s1.329998 2.058327 1.71 3.325.57 2.621993.57 4.066c0 1.31734-.170998 2.59666-.513 3.838s-.86133 2.336995-1.558 3.287-1.576995 1.709997-2.641 2.28-2.317993.855-3.762.855c-.65867 0-1.323663-.044333-1.995-.133s-1.310997-.259665-1.919-.513-1.158997-.582665-1.653-.988c-.494002-.405335-.905665-.93733-1.235-1.596h-.076v2.698h-4.104zm15.124 17.328c0-.886671-.113999-1.747996-.342-2.584s-.569998-1.576997-1.026-2.223-1.025996-1.165331-1.71-1.558c-.684003-.392669-1.469329-.589-2.356-.589-1.824009 0-3.198329.633327-4.123 1.9s-1.387 2.951323-1.387 5.054c0 .988005.120332 1.906329.361 2.755s.601664 1.576997 1.083 2.185 1.057663 1.089332 1.729 1.444 1.450329.532 2.337.532c.988005 0 1.823997-.202665 2.508-.608.684004-.405335 1.247665-.930997 1.691-1.577.443336-.646003.759999-1.380663.95-2.204s.285-1.665662.285-2.527zm22.189889-1.748c-.050666-.684003-.196332-1.342664-.437-1.976-.240667-.633337-.569997-1.184331-.988-1.653-.418002-.468669-.924663-.848665-1.52-1.14-.595336-.291335-1.260329-.437-1.995-.437-.760003 0-1.45033.132999-2.071.399-.620669.266001-1.152664.633331-1.596 1.102-.443335.468669-.797998 1.019664-1.064 1.653-.266001.633336-.411666 1.31733-.437 2.052zm-10.108 2.85c0 .760004.107666 1.494663.323 2.204.215335.709337.538332 1.329997.969 1.862.430669.532003.975331.956332 1.634 1.273.65867.316668 1.443996.475 2.356.475 1.266673 0 2.28633-.272331 3.059-.817.772671-.544669 1.348999-1.361661 1.729-2.451h4.104c-.228001 1.064005-.620663 2.013996-1.178 2.85-.557336.836004-1.228662 1.538997-2.014 2.109-.785337.570003-1.665661 1.000665-2.641 1.292-.975338.291335-1.994994.437-3.059.437-1.545341 0-2.913327-.253331-4.104-.76-1.190672-.506669-2.197662-1.215995-3.021-2.128-.823337-.912005-1.443997-2.001327-1.862-3.268-.418002-1.266673-.627-2.659992-.627-4.18 0-1.39334.221665-2.716994.665-3.971.443336-1.254006 1.076663-2.355995 1.9-3.306.823338-.950005 1.817661-1.703664 2.983-2.261 1.16534-.557336 2.48266-.836 3.952-.836 1.545342 0 2.932328.322997 4.161.969 1.228673.646003 2.24833 1.500995 3.059 2.565.810671 1.064005 1.399665 2.286326 1.767 3.667.367336 1.380674.462335 2.805659.285 4.275zm16.48989-10.944h3.268v-5.89h4.332v5.89h3.914v3.23h-3.914v10.488c0 .456002.019.848665.057 1.178s.126666.607999.266.836.348332.398999.627.513.658664.171 1.14.171c.304001 0 .607998-.006333.912-.019.304001-.012667.607998-.057.912-.133v3.344c-.481336.050667-.949998.101333-1.406.152s-.924664.076-1.406.076c-1.140006 0-2.05833-.107666-2.755-.323s-1.241331-.531998-1.634-.95-.658666-.943663-.798-1.577-.221667-1.355329-.247-2.166v-11.59h-3.268zm13.373889 0h3.268v-5.89h4.332v5.89h3.914v3.23h-3.914v10.488c0 .456002.019.848665.057 1.178s.126666.607999.266.836.348332.398999.627.513.658665.171 1.14.171c.304002 0 .607999-.006333.912-.019.304002-.012667.607999-.057.912-.133v3.344c-.481335.050667-.949997.101333-1.406.152-.456002.050667-.924664.076-1.406.076-1.140005 0-2.05833-.107666-2.755-.323s-1.241331-.531998-1.634-.95c-.392668-.418002-.658666-.943663-.798-1.577s-.221666-1.355329-.247-2.166v-11.59h-3.268zm28.83989 8.094c-.050667-.684003-.196332-1.342664-.437-1.976-.240668-.633337-.569998-1.184331-.988-1.653s-.924664-.848665-1.52-1.14c-.595337-.291335-1.26033-.437-1.995-.437-.760004 0-1.450331.132999-2.071.399-.62067.266001-1.152665.633331-1.596 1.102-.443336.468669-.797999 1.019664-1.064 1.653-.266002.633336-.411667 1.31733-.437 2.052zm-10.108 2.85c0 .760004.107665 1.494663.323 2.204.215334.709337.538331 1.329997.969 1.862s.97533.956332 1.634 1.273 1.443995.475 2.356.475c1.266673 0 2.286329-.272331 3.059-.817.77267-.544669 1.348998-1.361661 1.729-2.451h4.104c-.228001 1.064005-.620664 2.013996-1.178 2.85s-1.228663 1.538997-2.014 2.109c-.785338.570003-1.665662 1.000665-2.641 1.292-.975339.291335-1.994995.437-3.059.437-1.545341 0-2.913328-.253331-4.104-.76-1.190673-.506669-2.197663-1.215995-3.021-2.128-.823338-.912005-1.443998-2.001327-1.862-3.268s-.627-2.659992-.627-4.18c0-1.39334.221664-2.716994.665-3.971.443335-1.254006 1.076662-2.355995 1.9-3.306.823337-.950005 1.817661-1.703664 2.983-2.261s2.482659-.836 3.952-.836c1.545341 0 2.932327.322997 4.161.969s2.248329 1.500995 3.059 2.565c.81067 1.064005 1.399665 2.286326 1.767 3.667s.462334 2.805659.285 4.275zm18.465889-10.944h4.066v3.8h.076c.126667-.532003.373665-1.051331.741-1.558s.810664-.968998 1.33-1.387 1.095664-.753665 1.729-1.007c.633337-.253335 1.27933-.38 1.938-.38.506669 0 .854999.012667 1.045.038s.386332.050667.589.076v4.18c-.304001-.050667-.614332-.095-.931-.133s-.626998-.057-.931-.057c-.73467 0-1.424997.145665-2.071.437s-1.209664.721997-1.691 1.292-.861332 1.272996-1.14 2.109-.418 1.798661-.418 2.888v9.348h-4.332zm25.379779 0h4.104v2.888l.076.076c.65867-1.089339 1.519995-1.94433 2.584-2.565s2.241993-.931 3.534-.931c2.153344 0 3.85066.557328 5.092 1.672 1.241339 1.114672 1.862 2.786656 1.862 5.016v13.49h-4.332v-12.35c-.050667-1.545341-.379997-2.66633-.988-3.363s-1.557994-1.045-2.85-1.045c-.73467 0-1.393331.132999-1.976.399-.58267.266001-1.076665.633331-1.482 1.102s-.721999 1.019664-.95 1.653-.342 1.304663-.342 2.014v11.59h-4.332zm22.645889-7.486h4.332v4.104h-4.332zm0 7.486h4.332v19.646h-4.332zm27.92789 18.62c0 2.964015-.829659 5.174326-2.489 6.631-1.659342 1.456674-4.046985 2.185-7.163 2.185-.988005 0-1.982329-.101332-2.983-.304-1.000672-.202668-1.912663-.544664-2.736-1.026-.823338-.481336-1.513664-1.114663-2.071-1.9s-.886666-1.747994-.988-2.888h4.332c.126667.608003.341998 1.101998.646 1.482.304001.380002.664998.677666 1.083.893s.880331.354666 1.387.418 1.038664.095 1.596.095c1.748008 0 3.027329-.430662 3.838-1.292.81067-.861338 1.216-2.102659 1.216-3.724v-3.002h-.076c-.608003 1.089339-1.437662 1.937997-2.489 2.546-1.051339.608003-2.184994.912-3.401.912-1.570675 0-2.906995-.272331-4.009-.817-1.102006-.544669-2.013997-1.291995-2.736-2.242-.722004-.950005-1.247665-2.04566-1.577-3.287s-.494-2.571326-.494-3.99c0-1.31734.202664-2.571327.608-3.762.405335-1.190673.987996-2.235662 1.748-3.135s1.690994-1.614997 2.793-2.147c1.102005-.532003 2.349659-.798 3.743-.798 1.241339 0 2.381328.259664 3.42.779s1.836664 1.336328 2.394 2.451h.076v-2.698h4.332zm-9.614-2.394c.962671 0 1.779663-.196331 2.451-.589.671336-.392669 1.215998-.911997 1.634-1.558s.721999-1.380663.912-2.204.285-1.652996.285-2.489-.101333-1.646663-.304-2.432c-.202668-.785337-.512998-1.481997-.931-2.09s-.962664-1.089332-1.634-1.444c-.671337-.354668-1.475662-.532-2.413-.532-.962672 0-1.77333.202665-2.432.608s-1.190665.930997-1.596 1.577c-.405336.646003-.696666 1.380663-.874 2.204-.177335.823337-.266 1.640329-.266 2.451s.101332 1.602329.304 2.375c.202667.772671.512998 1.462997.931 2.071s.949996 1.101998 1.596 1.482c.646003.380002 1.424995.57 2.337.57zm14.703889-23.712h4.332v10.07h.076c.532003-.886671 1.323662-1.627664 2.375-2.223 1.051339-.595336 2.222994-.893 3.515-.893 2.153344 0 3.850661.557328 5.092 1.672 1.24134 1.114672 1.862 2.786656 1.862 5.016v13.49h-4.332v-12.35c-.050667-1.545341-.379997-2.66633-.988-3.363s-1.557993-1.045-2.85-1.045c-.73467 0-1.39333.132999-1.976.399-.582669.266001-1.076665.633331-1.482 1.102s-.721999 1.019664-.95 1.653-.342 1.304663-.342 2.014v11.59h-4.332zm20.55589 7.486h3.268v-5.89h4.332v5.89h3.914v3.23h-3.914v10.488c0 .456002.018999.848665.057 1.178.038.329335.126665.607999.266.836.139334.228001.348331.398999.627.513.278668.114001.658664.171 1.14.171.304001 0 .607998-.006333.912-.019.304001-.012667.607998-.057.912-.133v3.344c-.481336.050667-.949998.101333-1.406.152-.456003.050667-.924665.076-1.406.076-1.140006 0-2.05833-.107666-2.755-.323-.696671-.215334-1.241332-.531998-1.634-.95-.392669-.418002-.658666-.943663-.798-1.577-.139335-.633337-.221667-1.355329-.247-2.166v-11.59h-3.268zm18.617889 13.338c.126667 1.266673.607996 2.153331 1.444 2.66s1.836661.76 3.002.76c.405335 0 .867664-.031666 1.387-.095s1.006998-.183666 1.463-.361.829665-.436998 1.121-.779.424333-.791664.399-1.349c-.025334-.557336-.227998-1.013332-.608-1.368s-.867664-.639666-1.463-.855-1.272996-.398999-2.033-.551-1.532663-.316666-2.318-.494c-.810671-.177334-1.589663-.392665-2.337-.646s-1.418664-.595331-2.014-1.026-1.070332-.981663-1.425-1.653c-.354669-.671337-.532-1.500995-.532-2.489 0-1.064005.259664-1.956996.779-2.679s1.177996-1.304664 1.976-1.748 1.684662-.753666 2.66-.931 1.906329-.266 2.793-.266c1.013338 0 1.982329.107666 2.907.323s1.760663.563664 2.508 1.045 1.367997 1.108329 1.862 1.881c.494002.772671.804333 1.703661.931 2.793h-4.522c-.202668-1.038672-.677663-1.735332-1.425-2.09s-1.602329-.532-2.565-.532c-.304002 0-.664998.025333-1.083.076s-.810665.145666-1.178.285-.677665.341999-.931.608-.38.614331-.38 1.045c0 .532003.183665.962665.551 1.292s.848664.601666 1.444.817 1.272996.398999 2.033.551 1.545329.316666 2.356.494c.785337.177334 1.557996.392665 2.318.646s1.437664.595331 2.033 1.026 1.076665.97533 1.444 1.634.551 1.469329.551 2.432c0 1.165339-.265997 2.153329-.798 2.964s-1.222329 1.469331-2.071 1.976-1.792328.873999-2.831 1.102-2.064662.342-3.078.342c-1.24134 0-2.387661-.139332-3.439-.418s-1.96333-.702997-2.736-1.273c-.772671-.570003-1.380665-1.279329-1.824-2.128-.443336-.848671-.677667-1.855661-.703-3.021zm37.463779 6.84c-1.570675 0-2.970327-.259664-4.199-.779s-2.267329-1.234995-3.116-2.147-1.494665-2.001327-1.938-3.268c-.443336-1.266673-.665-2.659992-.665-4.18 0-1.494674.221664-2.875327.665-4.142.443335-1.266673 1.089329-2.355995 1.938-3.268s1.887327-1.627664 3.116-2.147 2.628325-.779 4.199-.779c1.570674 0 2.970327.259664 4.199.779s2.267329 1.234995 3.116 2.147 1.494664 2.001327 1.938 3.268c.443335 1.266673.665 2.647326.665 4.142 0 1.520008-.221665 2.913327-.665 4.18-.443336 1.266673-1.089329 2.355995-1.938 3.268s-1.887327 1.627664-3.116 2.147-2.628326.779-4.199.779zm0-3.42c.962671 0 1.798663-.202665 2.508-.608s1.291997-.93733 1.748-1.596c.456002-.65867.791665-1.399663 1.007-2.223.215334-.823337.323-1.665662.323-2.527 0-.836004-.107666-1.671996-.323-2.508-.215335-.836004-.550998-1.576997-1.007-2.223-.456003-.646003-1.038663-1.171665-1.748-1.577s-1.545329-.608-2.508-.608c-.962672 0-1.798663.202665-2.508.608s-1.291998.930997-1.748 1.577c-.456003.646003-.791666 1.386996-1.007 2.223-.215335.836004-.323 1.671996-.323 2.508 0 .861338.107665 1.703663.323 2.527.215334.823337.550997 1.56433 1.007 2.223.456002.65867 1.038663 1.190665 1.748 1.596s1.545328.608 2.508.608zm31.499889 2.888h-4.256v-2.736h-.076c-.532003.988005-1.323661 1.779664-2.375 2.375-1.051338.595336-2.121661.893-3.211.893-2.584013 0-4.452327-.63966-5.605-1.919-1.152672-1.27934-1.729-3.210987-1.729-5.795v-12.464h4.332v12.046c0 1.722675.32933 2.938663.988 3.648s1.583328 1.064 2.774 1.064c.912005 0 1.671997-.139332 2.28-.418s1.101998-.652331 1.482-1.121.652333-1.03233.817-1.691c.164668-.65867.247-1.367996.247-2.128v-11.4h4.332zm3.30389-19.646h3.268v-5.89h4.332v5.89h3.914v3.23h-3.914v10.488c0 .456002.018999.848665.057 1.178.038.329335.126665.607999.266.836.139334.228001.348331.398999.627.513.278668.114001.658664.171 1.14.171.304001 0 .607998-.006333.912-.019.304001-.012667.607998-.057.912-.133v3.344c-.481336.050667-.949998.101333-1.406.152-.456003.050667-.924665.076-1.406.076-1.140006 0-2.05833-.107666-2.755-.323-.696671-.215334-1.241332-.531998-1.634-.95-.392669-.418002-.658666-.943663-.798-1.577-.139335-.633337-.221667-1.355329-.247-2.166v-11.59h-3.268z" transform="translate(-51 -233)"/></svg>