<svg height="363" viewBox="0 0 253 263" width="253" xmlns="http://www.w3.org/2000/svg"><g fill="none" fill-rule="evenodd"><path d="m0 0h283v283h-283z" fill="#000" fill-opacity=".01" fill-rule="nonzero"/><g transform="translate(39 20)"><path d="m46.7320716 0h122.2679284c2.761424 0 5 2.23857625 5 5v203c0 2.761424-2.238576 5-5 5h-163c-2.76142375 0-5-2.238576-5-5v-163.412897z" fill-rule="nonzero" stroke="#fff" stroke-width="3"/><g fill="#fff"><path d="m21 113.861478 12.962406-.801452c.2807032 2.077847.852126 3.660945 1.7142857 4.749341 1.4035158 1.761222 3.4085083 2.64182 6.0150376 2.64182 1.9448719 0 3.4436038-.450193 4.4962406-1.350593 1.0526369-.900401 1.5789474-1.944256 1.5789474-3.131597 0-1.127974-.5012481-2.137198-1.5037594-3.027704s-3.3283026-1.731527-6.9774436-2.523087c-5.9749672-1.325864-10.2355763-3.08706-12.7819549-5.283641-2.5664289-2.196581-3.8496241-4.996685-3.8496241-8.4003961 0-2.236159.6566351-4.3486049 1.9699249-6.3374011 1.3132897-1.9887962 3.2882073-3.5521051 5.924812-4.6899736 2.6366046-1.1378685 6.2506036-1.7067942 10.8421052-1.7067942 5.6341134 0 9.9298098 1.0339606 12.8872181 3.1019129s4.7167892 5.3578271 5.2781955 9.869723l-12.8421053.7420844c-.3408538-1.9591127-1.0576386-3.3839005-2.1503759-4.2744063s-2.6014942-1.335752-4.5263158-1.335752c-1.5839678 0-2.7769384.3314611-3.5789474.9943931-.802009.6629321-1.2030075 1.4693225-1.2030075 2.4191953 0 .6926156.3308238 1.3159603.9924812 1.8700528.6416072.5738815 2.1654015 1.1081769 4.5714286 1.6029023 5.954917 1.2664975 10.2205385 2.5478165 12.7969925 3.8439975 2.5764539 1.296181 4.4511219 2.904014 5.6240601 4.823549 1.1729382 1.919534 1.7593985 4.066611 1.7593985 6.441293 0 2.790251-.7819471 5.362785-2.3458647 7.717678s-3.7493594 4.140825-6.5563909 5.357849c-2.8070316 1.217025-6.3458433 1.825528-10.6165414 1.825528-7.4987844 0-12.6917149-1.424788-15.5789474-4.274406-2.8872324-2.849619-4.5213013-6.470955-4.9022556-10.864116zm41-28.861478h14.3184393l9.9685336 30.944748 9.8174953-30.944748h13.8955318l-16.4329767 43h-14.8319698zm70.901541 27.496042v-9.05343h21.098459v18.552111c-4.038868 2.711095-7.6105 4.556393-10.715003 5.53595-3.104503.979556-6.78665 1.469327-11.046551 1.469327-5.2445 0-9.519407-.880598-12.824849-2.641821-3.305442-1.761222-5.867372-4.383228-7.685868-7.866095-1.818495-3.482867-2.727729-7.480188-2.727729-11.992084 0-4.749364.994632-8.8802595 2.983925-12.39281 1.989293-3.5125506 4.902861-6.1790806 8.74079-7.9996702 2.993987-1.4050202 7.022748-2.1075198 12.086404-2.1075198 4.88281 0 8.534817.4353518 10.956128 1.3060686 2.421312.8707168 4.430669 2.2212969 6.028131 4.051781 1.597463 1.8304841 2.798054 4.1507115 3.601809 6.960752l-13.171467 2.3153034c-.542535-1.6424884-1.461815-2.8990722-2.75787-3.7697889-1.296055-.8707168-2.948751-1.3060686-4.958138-1.3060686-2.993987 0-5.380098 1.0240663-7.158406 3.0722295-1.778308 2.0481633-2.667448 5.288566-2.667448 9.721306 0 4.709786.899187 8.073869 2.697589 10.092348 1.798401 2.01848 4.305074 3.027705 7.520094 3.027705 1.527134 0 2.983918-.217676 4.370395-.653034 1.386477-.435359 2.973869-1.177436 4.762223-2.226254v-4.096306z"/><path d="m45.8568616.51035116h122.9445304c2.209139 0 4 1.790861 4 4v62.48964884h-172.24343046v-22.4521907z" fill-rule="nonzero"/><path d="m12 151h151v12h-151z" fill-rule="nonzero"/><g fill-rule="nonzero"><rect height="21" rx="1.5" width="7.982143" x="13" y="182"/><rect height="21" rx="1.5" width="7.982143" x="74.196429" y="182"/><rect height="21" rx="1.5" width="7.982143" x="34.285714" y="182"/><rect height="21" rx="1.5" width="7.982143" x="92.821429" y="182"/><rect height="21" rx="1.5" width="7.982143" x="132.732143" y="182"/><rect height="21" rx="1.5" width="7.982143" x="52.910714" y="182"/><rect height="21" rx="1.5" width="7.982143" x="114.107143" y="182"/><rect height="21" rx="1.5" width="7.982143" x="154.017857" y="182"/></g></g></g></g></svg>