<svg height="208" viewBox="0 0 1015 208" width="1015" xmlns="http://www.w3.org/2000/svg" xmlns:xlink="http://www.w3.org/1999/xlink"><defs><path id="a" d="m16.5416868 3.38689622 122.7939492-2.54695673c31.631337 2.84276836 50.637422 12.13726901 57.018253 27.88350181h33.85232v-4.5227551h72.653643c3.05855.9805631 4.652955 2.4881482 4.783214 4.5227551 6.954525-7.4753028 28.30767-5.4321532 32.726181-1.4314844 1.537973-21.35460327 15.211592-30.1719424 41.020859-26.45201741 9.24942 3.28588627 15.488737 7.79516946 18.71795 13.52784951h10.132984l46.214227-13.52784951c1.899113.37520252 2.373891 1.2241881 1.424334 2.54695673-.949556 1.32276863-6.019105 9.50436818-15.208646 24.54479858v1.7937352c5.54682.4936912 10.14159-.1042205 13.784312-1.7937352 5.464082-2.534272 19.428221-8.8810398 37.495934 1.7937352 5.767956-4.2490247 12.788926-9.3682384 21.062911-15.357641v72.5067969c-.007541 2.2931958.700056 4.0814345 2.122791 5.3647163 2.134103 1.9249226 10.101996 7.40069 10.607873 32.6441808.505877 25.243491-5.712348 54.616333-40.947997 53.812233-35.23565-.8041-41.946515-1.278184-44.125824-1.827652-1.452872-.366312-5.812376 3.023937-13.078509 10.170747l-14.844732 12.784631-2.01045-.850447c.088429-10.086368-.259394-15.321021-1.04347-15.70396-1.176112-.57441-1.059635-1.034775-3.175549 1.045497-1.41061 1.386848-2.517566-1.303778-3.32087-8.071879l-36.571575 1.217572 10.929987 11.613896v2.192586l-163.78134-2.192586 9.77774-10.378405c.573088-1.635375-.302634-2.453063-2.627164-2.453063-3.486797 0-3.868345 2.323027-2.797827 3.440287-6.035812 0-69.503412 3.130394-190.4027985 9.391181l17.2588157-17.978423-46.30801001 1.999478v-1.999478l53.01102291-48.883222v-70.7993341l-37.1445393-45.3872325z"/><filter id="b" height="107%" width="102.7%" x="-1.3%" y="-2.5%"><feOffset dx="0" dy="2" in="SourceAlpha" result="shadowOffsetOuter1"/><feGaussianBlur in="shadowOffsetOuter1" result="shadowBlurOuter1" stdDeviation="2"/><feColorMatrix in="shadowBlurOuter1" type="matrix" values="0 0 0 0 0   0 0 0 0 0   0 0 0 0 0  0 0 0 0.5 0"/></filter></defs><g fill="none" fill-rule="evenodd" transform="translate(3 2)"><use fill="#000" filter="url(#b)" xlink:href="#a"/><use fill="#000" fill-rule="evenodd" xlink:href="#a"/><g transform="translate(41.945876 13.533333)"><path d="m12.7407769.91070704h-3.70243018c-2.37390644.2583031-2.96738306 1.08302991-1.78042983 2.47418043 1.18695322 1.39115052 8.69480591 9.38941503 22.52355801 23.99479343v86.5509861c.0216813.931856-.4003794 1.891973-1.2661823 2.880351-.8658028.988377-10.2087582 10.090499-28.02886594 27.306366l113.46570734-4.913049c1.441117-.366856 1.604848-.868817.491193-1.505881-1.113655-.637065-17.4943459-7.831589-49.1420721-21.583573-2.0495808-.941658-3.0679638-2.529423-3.055149-4.763297.0128148-2.233873.0192222-8.7411.0192222-19.521682 35.277438-.1138029 58.2475089-8.3575499 68.9102139-24.7312408 13.06696-14.3222603 14.895537-60.40497349-23.013443-66.18795416-5.284745-.82697082-37.0918524-.82697082-95.4213221 0z" fill="#fff"/><path d="m18.2633551 7.92834612 15.5445555 16.24063738v92.6518155c-9.2292499 9.266305-17.0047613 16.576557-23.3265343 21.930756-1.58788153 1.1831-1.66927 2.706467 0 2.706467 1.1128467 0 30.8212433-.902155 89.1251899-2.706467 1.6009298-.367152 1.6009298-.873842 0-1.520071-1.6009302-.646229-15.3226019-6.969575-41.1650151-18.970039v-31.3426879c43.7979849 2.8721081 69.5299889-9.1394061 77.1960119-36.0345425 3.966575-34.0105896-19.291113-46.37543591-40.5981147-46.37543591-14.2046675 0-40.6187325 0-79.242195 0-.7063394-.15809968-.5182972.32940677.5641266 1.46251934 1.0824239 1.13311257 1.7164156 1.78546193 1.9019752 1.95704809z" fill="#df4a39"/><path d="m60.8891753 17.9466667v47.7892061c22.3292688.0342969 36.4278274-3.4281601 42.2956757-10.387371 5.867848-6.959211 8.579932-13.6208382 8.136251-19.9848819-1.195969-9.9728994-5.599701-15.7785505-13.2111967-17.4169532-7.987583 0-20.394493 0-37.22073 0z" fill="#fff"/><path d="m63.5953608 22.0066667v36.54c19.6024864.0262237 31.9793718-2.621198 37.1306562-7.942265 5.151285-5.321067 7.532177-10.4145992 7.142677-15.2805966-1.049921-7.6253568-4.915883-12.0644029-11.5978857-13.3171384-7.0121636 0-17.9039795 0-32.6754475 0z" fill="#000"/></g><g transform="translate(179.608247 40.953333)"><path d="m81.6232263 56.5228793c3.7075575 0 5.6743625-1.7940858 5.900415-5.3822576 2.052943-29.2379935-9.1542825-45.89806467-33.6216764-49.98021354-38.0745162-3.91673824-51.24610179 24.93673974-53.08931284 39.34069004-1.84321104 14.4039504-.81240605 54.7634427 35.00243274 58.7922768 15.0716669 1.38126 23.5444978-1.3544887 28.039607-6.4648409.4550381-.5583392 1.2533305-.5939449 1.7817843-.1139443 3.8428237 3.6360723 7.7749286 8.0064772 11.7963145 13.1112142 1.5391206 1.141021 2.3086809.468705 2.3086809-2.016946s.5003471-15.0032309 1.5010412-37.5527385c-.0688212-2.3014783-.8727921-2.5471534-2.4119127-.737025-2.3086808 2.7151926-15.7176306 18.0711493-34.1644808 15.1430331-11.1414914-2.8791421-15.5360565-10.3991922-13.1836952-22.5601503 29.719644-1.052732 46.4332448-1.579098 50.1408023-1.579098z" fill="#fff"/><path d="m31.6004886 55.2553191 48.0107476-1.1232261c1.8061129-.5577933 2.7056822-2.2332402 2.6987078-5.0263406-.0104616-4.1896506-1.0380242-19.5124326-5.7724837-26.241606-4.7344594-6.7291734-15.6900894-21.68263362-45.8683455-13.4211433-19.5515655 7.2377749-27.7634423 26.2101279-24.63563024 56.917059 4.67678364 19.5592422 16.87739414 29.9034878 36.60183174 31.0327369 11.4649545.894648 18.4619595-5.0475209 20.5534134-6.3436272 1.429039-1.0146201 2.3709512-1.3539453 5.1394 1.3338471 2.7684487 2.6877923 3.2884985 3.4729057 6.6995657 7.1671268.7781086.7284663 2.0518835.3439978 2.0518835-.3429868 0-.4406558 1.3016597-13.2437969 2.5316573-29.5387887.0474382-.6284601-.6238236-.8118585-1.2299976-.5369527-4.5021112 5.4363139-12.8364818 15.0020562-29.4779178 15.0020562-19.7193599-1.008407-21.7132052-12.6640831-20.8909515-24.8541783 0-1.4561448.4347372-4.0239763 1.7869201-4.0239763z" fill="#df4a39"/><path d="m61.9978879 37.9724209c0-10.5076339-7.4387546-19.0257542-16.6149233-19.0257542-9.1761688 0-16.6149234 8.5181203-16.6149234 19.0257542.5846243 4.3178072 33.2298467 4.4381909 33.2298467 0z" fill="#fff"/><path d="m57.0167868 36.8563501c0-7.6489689-5.4149967-13.8496834-12.0947336-13.8496834s-12.0947336 6.2007145-12.0947336 13.8496834c.4255737 3.1431218 24.1894672 3.2307545 24.1894672 0z" fill="#000"/></g><g transform="translate(240.850515 37.893333)"><path d="m12.122545 2.41617248c7.234725 6.82508754 12.1703385 11.28610642 14.8068405 13.38305672 3.954753 3.1454254 5.876684 3.3034776 5.634456 8.6566434-.7559764 37.4450749-.0629948 37.5623193-1.4197694 76.0721154-.1236034 2.761524-.3545844 3.943364-2.5001344 5.560771-8.807403 5.716672-17.6061226 11.447731-26.39615892 17.193176-1.707814 1.019689-1.707814 1.529533 0 1.529533 2.56172101 0 44.02994302.300605 84.70439542 0 1.9190563 0 4.6349323-.961137-.2988539-2.726743-3.2891908-1.17707-11.2843928-4.028132-23.985606-8.553187-2.9300004-1.316227-4.8974267-2.324302-5.9022788-3.024223-2.4686483-1.719516-3.7029725-3.057681-3.7029725-5.494985 0-3.130634 0-7.9845802 0-14.5618373 6.0162203 2.3782722 12.5076102 3.5674083 19.4741696 3.5674083 10.4498391 0 35.3922094-8.8865302 40.5270034-42.1803176 5.134793-33.2937873-16.118797-51.25639594-33.2573594-51.65641118-11.4257082-.26667683-19.3152176 2.41471081-23.6685281 8.04416293h-1.25856v-4.56110942c.2052505-1.43209626-1.1483757-2.14814439-4.0608787-2.14814439-4.3687544 0-19.0712076 0-38.0026339.05043614-.9953731-.03362409-1.2264167.24959424-.6931309.849655z" fill="#fff"/><path d="m24.7197311 6.39090034c7.7516808-.03058733 15.8984693.08095517 24.4403657.33462751 1.5126589.02123063 2.2689884 1.0719022 2.2689884 3.15201471v6.42234944c10.68495-7.0591869 19.0080848-10.59588442 24.9694044-10.61009262 8.9419796-.02131229 29.3018384 1.46289618 32.1159164 31.50586162 2.814078 30.0429654-11.0390305 50.7041797-32.6909891 53.5822088-7.8572956 1.0444102-16.1314306-.2875127-24.8224051-3.9957685-.6486216-.4905884-.6486216.2364455-.6486216.4915148v16.1676159c0 3.905484-.2720901 5.159649 1.076695 6.785768 1.4921812 1.799001 2.0434863 2.517442 6.6334922 4.531224 8.2857229 3.635211 17.4930653 6.774872 19.0955737 7.083043.4571871.106332 1.0674774 1.653568-1.6025084 1.653568-1.7799905 0-22.5053745-.318294-62.1761521-.954881-.7960483-.700781-.9521827-1.20373-.4684032-1.508846.4692964-.295982 6.585806-3.201683 18.7968576-11.877013.7238357-.431501 2.2378013-1.151903 2.3875325-3.341768.8223523-28.8932873 1.6579012-57.6911502 2.5066466-86.3935884-4.0846828-3.6508064-8.3839861-7.293181-12.8979096-10.92712395-.4812825-.35241382-1.0373158-2.14974556 1.0155166-2.10071431z" fill="#df4a39"/><ellipse cx="70.360825" cy="45.013333" fill="#fff" rx="17.590206" ry="25.713333" transform="matrix(.98480775 .17364818 -.17364818 .98480775 8.885422 -11.534175)"/><ellipse cx="70.435612" cy="45.236895" fill="#000" rx="14.373278" ry="21.010834" transform="matrix(.98480775 .17364818 -.17364818 .98480775 8.92538 -11.543766)"/></g><g transform="translate(333.860825 7.12)"><path d="m16.9893105 37.5506769h37.5359696v80.0349591l18.4303793 15.840112c.1473354 1.44276-.2520446 2.164141-1.1981399 2.164141s-24.711397-.721381-71.29590511-2.164141c-1.07997875-.886092.0111615-2.253743 3.27342076-4.102954 3.26225925-1.849211 10.74108625-6.65902 22.43648105-14.429427l.6476772-60.851548c-4.0779594-4.8476633-7.9143077-9.3998033-11.5090451-13.6564198-1.3466276-2.0856648.2777993-2.8347223 1.6791622-2.8347223z" fill="#fff"/><path d="m21.673626 43.4848067c2.6581084 3.2864965 5.4488759 6.464152 8.3723027 9.5329667.5969216 28.3390533.5969216 49.8577166 0 64.5559896-.11923.337159-.5561793.714939-1.3108481 1.13334-7.5699027 5.005142-13.3053083 8.680696-17.2062171 11.026659-.4846073.484516-.5461133.983247-.1845178 1.496192l52.2424597 1.422985c1.7146735-.293667 1.3846449-1.095143-.9900857-2.404427-3.562096-1.963927-10.5414201-8.441508-11.2723734-10.727189-.4873022-1.523787-.7417117-27.1740061-.7632286-76.9506574-9.5479851-.2606787-18.635137-.572661-27.2614558-.9359469-.9671224.0306044-2.1745056.9246487-1.6260359 1.850088z" fill="#df4a39"/><path d="m36.8865979 29.7733333c4.9403804 0 10.2376531-.3387635 13.6101217-2.7733018 3.7693068-2.7210103 5.3331773-7.7741034 5.3331773-12.1133648 0-8.22167901-8.4812038-14.8866667-18.943299-14.8866667-3.3046586 0-6.7272942.43333716-9.4318109 1.60232713-5.8576115 2.53187166-9.511488 7.65963965-9.511488 13.28433957 0 8.2216789 8.4812038 14.8866666 18.9432989 14.8866666z" fill="#fff"/><ellipse cx="36.886598" cy="16.24" fill="#df4a39" rx="14.884021" ry="9.473333"/></g><g transform="translate(408.634021 17.946667)"><path d="m29.8133801 1.86830791c-10.692824 18.87623379-12.6839716 20.40414079-25.946294 39.03049099-.63291066.8888952-1.67774154 1.1423935-1.84417219 0-1.17807494-8.0864018-1.85237957-16.9343993-2.02291391-26.5439923.05847495-3.6784335 1.12945105-5.78734626 3.2129283-6.32673843 3.12521587-.80908825 11.9702679-5.19981005 23.7674878-7.9316451 1.503006-.34804508 3.6968051.24693075 2.832964 1.77188484z" fill="#fff"/><path d="m23.4806497 7.89894713c-6.4803428 11.43986527-7.6870697 12.36584707-15.72464665 23.65427137-.38357295.5387114-1.01678849.692343-1.11765311 0-.71396756-4.9007311-1.12262716-10.2630242-1.22597881-16.0868793.03543851-2.2292997.68449925-3.5073978 1.94718222-3.8342942 1.89402446-.4903447 7.25453255-3.15132392 14.40418995-4.80694152.9108907-.21093131 2.2404338.14965138 1.7169064 1.07384365z" fill="#df4a39"/></g><g transform="translate(420.811856 38.246667)"><path d="m78.5180169 39.0407029c-14.8064953-6.8050323-26.1608568-15.7670966-29.6868695-16.4246057-3.5260127-.657509-12.0654923-2.6844789-13.665568 2.3646704-1.6000758 5.0491493-1.4779715 9.7996623 14.9069064 18.274384 16.3848778 8.4747216 44.5327969 13.8094935 37.4295009 46.6978738-7.1032959 32.8883806-53.4662631 21.9263716-58.1468708 19.7545696-3.1204051-1.447868-8.0470376-4.063495-14.7798974-7.84688-1.6797633-.951829-3.0295976-.951829-4.0495028 0-1.01990522.951829-4.46353877 4.035483-10.33090062 9.250964v-42.985668c.33575901-1.7442987 1.3007658-1.9769048 2.89502036-.6978183 2.39138185 1.9186296 31.37466106 24.1124878 45.74131196 20.7908978 14.3666508-3.32159 8.744708-16.1874665.8175623-19.6195031-7.9271458-3.4320365-37.5584657-14.8233483-43.50618017-28.3550737-5.94771445-13.5317254-3.21559593-30.723607 23.21258637-38.69767653 23.0981199-5.05143135 40.8352656 10.89074023 44.7540415 5.66213704 3.0401299-2.90340066 2.9919861-4.02712596 5.9038349-5.66213704 1.3796918-.7747007 3.4742454-.27277168 3.5104718 1.63185983-.600015 16.9007729-.2536066 16.4257365-2.5207432 34.2233838-.2172045 1.7051156-1.2054125 2.2265816-2.484704 1.6386221z" fill="#fff"/><path d="m78.8214456 7.96680909c.1185436 12.36603741.0962447 14.80486691-1.0564784 26.35760581-.1108299 1.1107515-1.4968876.3040021-1.9396456 0-13.0490679-8.9596231-22.3545352-14.3706926-29.1432492-15.0102634-18.1930174-2.5959432-18.8482188 11.6548161-9.2039842 19.9362754 4.0138906 3.1044821 11.8933474 7.7783619 21.6046131 12.2468879 9.7112658 4.4685259 12.4939106 6.5936121 16.7426203 9.6308594 7.7812492 6.6646159 10.2881922 14.2008688 10.5812146 19.9114495.4190424 8.1665291-5.4593723 29.1401903-32.156646 28.6393463-26.6972738-.500845-32.7441894-6.36894-40.6162294-12.9260994-1.0077387-.3051145-1.2208705-.6669231-2.0763758 0-3.38178014 3.3398104-6.14751015 6.0354374-8.29719004 8.0868824v-32.8166961c16.98429144 15.9866759 32.26777384 23.450964 45.85044714 22.3928642 14.3316879-1.0985326 17.9484744-20.460291 4.5278295-27.1532204-13.420645-6.6929294-37.2212131-12.2927064-45.06899438-31.3047539-7.84778131-19.0120476 17.40553718-30.3036941 26.48346638-30.44217645s19.4784772.21296706 35.4400663 6.42070305c1.0128076.3317365 2.235206.3943254 3.9870626-.6664899.8827475-.585426 2.2600527-2.32562092 3.5057819-3.87071007.3832704-.23543783.8301194-.01368505.8356912.56753566z" fill="#df4a39"/></g><path d="m503.90625 37.2742457h25.557664v-2.5730537l-21.157374-23.2791819c75.304147-2.78852853 116.638437-4.22467604 124.00287-4.30844253s14.281018 3.27453223 20.749756 10.07489613c5.607525-5.7866158 14.766921-8.67992363 27.478191-8.67992363 19.066904 0 28.938884 8.81112563 28.938884 26.19265193.5392.9752288 1.505323 1.8329134 2.89837 2.5730537l79.892241-9.2521064c3.527945-.408543 5.090513.2475725 4.687704 1.9683464-.40281 1.7207739-1.586547 5.6749425-3.551212 11.8625056l70.22083-6.203147v-29.87847411l26.486235 22.25076911c2.454978 1.2650978 4.882055 1.2650978 7.281231 0 3.598763-1.8976466 47.674707-12.2289872 71.462275 21.3693504 4.522345 5.9223595 7.230818 19.2767756 8.125418 40.0632481l2.79729 58.1019502c10.885355 11.68636 20.953147 23.416226 30.203377 35.189596 1.22634 1.560849 3.47345 4.250664 0 3.252214-2.45513-.138951-16.16382-.138951-41.126085 0l9.224722 14.919306-1.099304 1.891799h-69.216954c.966164-3.472856-.137579-5.082921-3.31123-4.830195-4.760476.379088-7.94367 7.387174-23.197842 7.599284-15.254172.212109-21.720746-8.108603-24.323723-9.915218-.61625 2.321574-1.431261 5.140314-2.445034 8.456221l-110.234948-6.140287 5.48792-6.583554v-2.018101l-20.667253-1.424702 4.79011 8.646658-97.266067-2.189731 1.021263 5.060172-123.754935-1.490742 15.603274-17.146608h-13.265924l27.413313-30.262212-1.641581-73.2730789c-1.758131-5.7563621-5.926733-11.5115923-12.505808-17.2656908-6.579075-5.7540984-15.098297-13.339956-25.557664-22.7575726z" fill="#000"/><g transform="translate(536 22)"><path d="m.04728192.39951095 26.34406648 24.78030175 1.9873913 103.3474133c-6.7268917 7.261387-13.5921981 14.299836-20.59591897 21.115349-.72408067.830071-.98707646 2.462758 0 2.495394h75.47313267c.9870764-.032636.8382169-1.881285 0-2.495394-7.5977597-4.462771-16.1738498-9.841151-25.7282701-16.135138 0-3.769208 0-6.368436 0-7.797682 0-2.143869 0-17.984273-.2467477-34.5653174.1647708-2.3319059 1.0308375-3.0012534 2.9202048-3.2705791h20.0234848c26.2143808.2364051 40.4366568-11.9389716 42.6668268-36.52613 3.345254-36.8807376-13.489616-50.94821755-38.0899636-50.94821755-16.400232 0-44.6516342 0-84.75420648 0z" fill="#fff"/><path d="m11.9331556 6.53664751c5.6761771 5.04625729 11.82893 10.89997709 18.4582586 17.56115939l2.7968876 103.9249321c0 3.920409-.5615751 6.426678-1.6847255 7.518809-1.6847256 1.638195-8.7958093 9.206711-12.3384092 12.115861-.5729981.715925.0028952 2.049417.8764234 2.078599 21.2523532-.374647 26.1694216 0 50.1288804-.374647.812247-.041676.1890129-1.588753-.5198519-2.170766-4.8775672-2.943077-11.6299724-6.461361-17.0848017-12.283529.3537585-16.496541-.5424589-24.461721.3537585-48.008511.0503377-1.3225465.5889448-1.3065458 1.5393516-1.7301614 13.9163737.4460473 59.0959646 4.615841 63.5133146-27.265138 4.417351-31.880979-5.722544-47.3167049-28.2735098-51.36660809-32.5212563 0-37.9116668-.64443636-75.7681009-.64443636-1.0263542 0-2.6827846-.113514-1.9974757.64443636z" fill="#df4a39"/><g transform="translate(54.078981 20.271608)"><path d="m0 .83114136v40.51071054l1.56482914 1.8437668h19.73277336c13.2473342-1.1228318 20.1528408-8.1819114 20.7165198-21.1772387.8455186-19.49299088-14.8929214-22.00838-21.0070611-22.00838-4.0760932 0-11.07238772 0-20.98888352 0z" fill="#fff"/><path d="m3.07745106 4.9848655c-.40555998 10.5594948-.40555998 20.9730127 0 31.2405537.03673002.9298922.34468959 1.3452951 1.29013997 1.4218535 5.22271115.4229123 10.64567587.4229123 16.26889427 0 10.921905-.8658917 16.6152232-6.3096262 17.0799543-16.3312036.6970968-15.03236604-12.2786269-16.97215302-17.3194942-16.97215302-3.3605783 0-9.1287475 0-17.30450756 0z" fill="#000"/></g></g><g transform="translate(648 20)"><path d="m15.2799855 47.5516547h29.7644399c.6791485.02188 1.1333884.0001536 1.188545.9972083.9875173 26.9560467 2.1003687 53.90213 3.3385542 80.838251 7.9077892 7.566235 13.9639821 12.625471 18.1685786 15.17771.6859526.696847.8620573 2.619654 0 2.645723-31.27826-.687993-33.6280137-.687993-64.73725217-.687993-1.34951604-.08205-2.6501628-2.374912-1.60541262-3.345626 6.74395121-4.579868 13.90905129-9.819822 21.49530019-15.719861.6687331-.520093 1.9687411-.836286 1.9890036-2.843954.2061398-20.424999-.2372133-41.2404576-1.3300593-62.4463772-2.7500887-3.1617744-5.7060866-6.5201064-8.8679935-10.0749961-.8972918-1.5854052-.8274938-4.3271743.5962961-4.540085z" fill="#fff"/><path d="m22.8574231 53.3154916h18.4180916c1.6378831.3246058 2.4407606.9024991 2.6718866 4.1797418 1.0080612 37.8224278.6983743 35.6498538 2.5879907 70.4025036.1299461 2.389886.2106752 3.4812.6353048 4.040323 1.8662863 1.886525 7.3724408 6.241409 11.2175933 10.406421 1.7461724 1.671122.6928051 2.834922 0 2.869679-21.8323672-.574006-28.1835593 0-50.34154427.097719-.66843273-.041843-1.07514588-1.525268-.45911005-2.167513 6.04951292-4.310465 11.45870352-8.736232 19.11689492-15.304998.3399721-.291609.5476426-.675018.5335018-1.667186-.2942927-20.648698-.2942927-41.7410635 0-63.2770947-1.6228606-2.498325-3.2650566-5.0121667-4.9265879-7.5415253-.3435503-.7512819-.0123527-1.9780665.5459785-2.0380704z" fill="#df4a39"/><ellipse cx="32.050123" cy="15.850552" fill="#fff" rx="18.115287" ry="15.850552"/><ellipse cx="32.746865" cy="17.291511" fill="#df4a39" rx="14.631578" ry="12.968633"/></g><g transform="translate(705 46)"><path d="m.81478947 7.99241283c.25636294-2.51820553 1.2927541-2.47119389 3.28165782-2.64848533 28.01674941-1.5918192 37.80123021-2.12958419 66.83102281-4.79403124 1.789455-.01070395 2.689334 2.11492479 1.9251542 4.38275371-13.5180872 40.11713813-16.6037407 39.71983463-30.3498793 79.90375653-.6031697 2.6976383-.4848457 4.3030769 1.4491895 4.5812828 7.5153093 0 10.1199328 0 13.8262761-4.0978589 6.8808513-8.8469592 8.8940987-11.6653056 16.0464236-22.1575706 1.3902416-1.5604313 2.9347647-.1605131 2.9876627 2.1334877-1.1248976 18.1181438-1.258183 20.0240829-2.0213844 39.7706735-.3324059 2.585691-1.1669061 3.301804-3.0832572 3.301804-31.7535593-1.398708-33.8680426-1.717708-63.04578269-3.301804-2.34505006-.313967-4.00404653-2.743162-2.80915244-5.5151741 11.68783773-24.0288809 24.09299403-48.7966749 37.21546913-74.303382h-25.3389052c-5.0046036 6.8735342-10.12508372 12.9906233-15.36144044 18.3512675-.74859819.7663665-1.7888454.546861-1.84482606-.736602-.72054644-16.5198968.29177187-18.1744161.29177187-34.87011757z" fill="#fff"/><path d="m7.05741625 10.3989229c-1.15429286.0681127-1.92897518 1.1703582-1.92897518 2.5916973v19.5150967c.13211663 1.3121787 1.13182952 1.7132184 1.92897518.9645743 2.70285651-3.2073961 5.81319345-7.053882 9.33101075-11.5394577h32.3558176l-34.3866031 73.8611213-1.4308547 3.261887c-1.1563525 1.8765012-1.1563525 2.8379522 0 2.8843522 20.239051.812117 39.7315035 2.75707 56.849088 2.75707 1.2960668 0 1.8938411-.455672 2.0982575-2.211999.4554332-12.0943852 1.3493168-16.0137196 2.0800002-28.3015189-.0665006-1.7132147-1.2403693-2.506058-2.3271803-1.6488075-8.7035259 11.4720507-13.8236287 20.0485511-18.345297 20.0485511-3.0144456 0-7.4568116 0-13.3270981 0-1.8908214-.3307232-2.3635267-1.945664-1.418116-4.8448224 1.418116-4.3487378 14.947496-37.1195941 28.0878733-75.5164886 1.2906014-3.77120723-1.6217367-3.62451754-2.4322923-3.62101042-19.161343.08290732-38.2062116.68282553-57.13460585 1.79975462z" fill="#df4a39"/></g><g transform="translate(783.617806 49.49748)"><path d="m.40962507 11.1328896c.27486478-2.730519 1.38605277-2.67954374 3.51849659-2.87178287 30.03873124-1.7260277 49.44238344-4.3300344 80.56726964-7.21912471 1.9186008-.01160641 2.8834246 2.29323705 2.0640935 4.75226979-14.4936938 43.49947009-20.5709807 41.60075009-35.3091845 85.17263459-.6467007 2.92508-.0123096 2.8029407 2.0613058 3.1046026 8.0576927 0 7.1152578-.5411936 11.0890896-4.9845487 4.8653977-9.0498286 8.9649072-19.7450737 16.6334186-31.1219562 1.490576-1.6919934 3.8841239-1.4409366 3.9408395 1.0464746-1.2060819 19.6457098-1.7561127 35.7922249-2.5743947 57.2036783-.3563957 2.803695-1.2511222 3.580183-3.3057773 3.580183-34.0452284-1.516635-40.3603631-.009126-71.6438743-1.726779-2.51429342-.340438-4.29302044-2.974442-3.01189028-5.980166 18.79703158-39.0821845 37.29108258-76.0067821 40.74058148-82.4214082.1132844-.6181094-.2403327-1.0225093-1.5484685-1.0225093-4.4142424 0-16.9779037-.1486793-24.2982623 0-.5148763.0104573-.8121836.8726689-1.0834052 1.4054794-4.3157836 8.4782868-6.2335043 16.0906386-13.81044548 29.0799268-.61431777 1.0531362-1.86410693.5575751-1.97796802-.7987059-1.90083498-22.642206-2.05142413-29.0949289-2.05142413-47.1982682z" fill="#fff"/><path d="m7.4720711 13.7826378c-1.2324315.069019-2.05933626 1.2656117-2.05933626 2.8026312v28.0829626c.14104513 1.4189748 1.2083191 1.8526545 2.05933626 1.0430795 2.8855169-3.4684407 6.4518469-9.9843334 10.6989902-19.5476781h33.3747797l-39.0867899 83.157917-1.5275525 3.527367c-1.23449935 2.029226-1.23449935 3.068928 0 3.119104 21.6068159.878215 46.1567016 2.39203 64.4311008 2.39203 1.3836556 0 2.0218278-.492758 2.2400588-2.39203.4862116-13.078727 3.0419389-25.5158455 3.8220022-38.8037283-.0709947-1.8526505-1.324194-2.710022-2.4844522-1.7830013-9.2917144 12.4057419-12.7051403 23.0770502-17.5323852 23.0770502-3.2181632 0-7.9607465 0-14.2277498 0-2.9833175.2435763-3.4879685-1.5028018-1.5139531-5.2391344 2.9610232-5.604499 15.7417029-32.3426387 35.7585403-80.2627931 1.3778209-4.07813952-1.7313344-3.91951099-2.5966678-3.91571844-20.7136308 1.87377914-48.0285674 3.43555544-71.3559215 4.74194214z" fill="#df4a39"/></g><g transform="translate(876 34)"><path d="m.2008886 1.37309931c2.31613723 26.18398949 2.19086563 29.96094189 4.16432011 56.78273609.36163564 2.7676025 2.15666012 3.1601084 4.08467132 2.0077831 8.71093557-11.7364046 18.52688167-25.5414934 34.16861047-24.8708363s19.4444467 6.5346904 19.9079948 8.4654782c.33516 1.2019599.33516 6.0011516 0 14.397575-23.5379838 4.3235819-42.0583678 16.9772989-55.56115207 37.9611511-16.34066877 33.5325845 15.57196857 44.1980735 23.96544577 43.8103775 8.3934773-.387695 18.0140749.213404 30.5457778-8.451765 1.0499285-.67897 3.6344381-3.627161 5.9550596 1.201714 2.3206216 4.828874 4.1788771 6.082854 7.0470302 6.082854s17.9473723.773936 29.8886454.773936c1.028001-.110103.81177-2.079117-1.097452-3.322727-4.6053421-3.756174-7.3911107-6.102916-15.2406753-13.907554-.9234581-1.039446-1.5785021-3.670504-1.6146355-7.608785-.1507332-16.4288509-.1507332-32.6547389 0-48.6776637-.0369298-20.8897584-5.082282-36.2640963-15.1360566-46.1230135-17.1277499-16.23640296-44.5511963-10.81325662-53.7224896-1.3478592-.1354199.1397625-.3557549.4809983-.8310324-.2027719-5.6734264-8.1622214-6.85983118-9.84769045-14.28308268-17.54876226-.87085189-.90344413-2.29029119-.8925224-2.24097932.57813287z" fill="#fff"/><path d="m3.17021419 11.4214268c-.15348011-3.57323148 3.14296441-1.2570609 4.09954819 0 4.81430252 5.8744659 5.21721942 7.7566601 7.79722872 9.8640783 1.3439514 1.1532299 3.3491247 1.0959784 5.0046522-.2731937 3.4818146-2.9999084 6.9135421-8.44043 25.9366852-8.1275421 19.0231431.3128878 32.666574 14.3617061 36.0178431 37.4855802 3.3512692 23.1238741 2.0523698 32.1056193 1.7858166 68.1115545.0898352 2.350906.797076 3.773291 1.282749 4.397135 4.3759274 5.620845 7.0596048 8.532935 10.5484335 11.572789 1.2237883 1.668756 1.0516486 2.582916-.856722 2.582916-4.5251676 0-18.0345814.461482-21.067351-1.492432-1.5775388-1.204959-4.1340413-3.895723-5.7662649-8.372745-.2820776-.905257-1.241628-2.515628-2.8403108-1.440452-5.7589002 3.873084-15.3733191 11.603916-28.5751248 11.603916-16.922014 0-30.79251663-9.672286-30.79251663-20.293467s4.30243563-28.2684805 24.42799213-42.2789036c15.2351059-10.6059318 20.4986834-12.3052067 31.9504448-13.2368502 2.0503361-.1668024 2.7300765-1.3772445 2.9892045-2.9741163.5466965-3.931952.5466965-8.9400438 0-15.0242754-.4943327-5.3755386-7.1088572-8.9087296-19.8435736-10.599573-19.1020746-2.5362651-30.4082464 16.9893709-36.3561771 21.7753401-1.51394711.71571-2.87543546.4441578-3.20507549-1.5547675-1.06089299-14.7560598-1.2705606-26.201316-2.53748162-41.7249913z" fill="#df4a39"/><path d="m57.1874149 79.5247977c1.98277-.144445 3.4078106.6615424 4.2751219 2.4179622.1557338 14.1856881-1.0662543 23.1779541-3.6659643 26.9767991-3.899565 5.698266-12.169543 14.299142-15.4955294 15.188267-10.4274724 2.131476-15.2650197-.027816-16.2056261-3.507387-1.6639683-6.155493-1.2601109-12.186388 1.3499948-17.759932 4.8225766-8.6629964 9.1786639-17.8773861 29.7420031-23.3157093z" fill="#fff"/><ellipse cx="44.500202" cy="103.548999" fill="#000" rx="11.020737" ry="21.339375" transform="matrix(.81915204 .57357644 -.57357644 .81915204 67.441036 -6.797642)"/></g></g></svg>