<?xml version="1.0" encoding="UTF-8"?>
<svg width="421px" height="506px" viewBox="0 0 421 506" version="1.1" xmlns="http://www.w3.org/2000/svg" xmlns:xlink="http://www.w3.org/1999/xlink">
    <!-- Generator: Sketch 52.5 (67469) - http://www.bohemiancoding.com/sketch -->
    <title>Pepis Guy Spare</title>
    <desc>Created with Sketch.</desc>
    <g id="Pepis-Guy" stroke="none" stroke-width="1" fill="none" fill-rule="evenodd">
        <g id="Pepis-Guy-Spare" transform="translate(0.000000, -22.000000)">
            <path d="M206.268191,178.334843 C208.228574,179.519571 208.228574,182.073745 206.268191,185.997365 C205.041604,188.371896 206.117405,190.660806 209.495593,192.864096 C212.873781,195.067387 217.681983,198.209802 223.9202,202.291344 C227.259066,204.21843 228.711912,202.936031 228.278738,198.444148 C227.628976,191.706322 229.333513,190.351039 230.055066,188.217423 C249.107803,186.734378 247.310079,189.105384 252.815928,181.954382 C254.829555,182.484708 254.89253,183.312096 257.700385,186.664956 C259.655633,191.472929 283.01986,243.585288 286.912259,249.901549 C289.507192,254.11239 289.230049,258.028695 286.08083,261.650463 C283.639205,265.300787 284.735756,268.680885 289.370483,271.790757 C296.322573,276.455565 301.474164,279.754118 317.07799,282.40358 C332.681816,285.053042 359.785707,300.992884 360.943992,342.411568 C361.716183,370.024024 357.427804,392.196488 348.078857,408.928958 C339.64395,416.315041 328.575258,420.155789 314.872783,420.451201 C294.31907,420.89432 307.610282,442.753915 310.173875,445.458326 C329.673979,459.157418 331.241168,461.762235 332.480184,461.783673 C333.7192,461.805112 344.789634,467.60316 345.12151,469.657468 C345.453385,471.711775 343.751131,472.452452 337.041739,472.845911 C332.56881,473.108216 317.340919,473.921879 291.358064,475.286898 C286.144295,475.167736 283.158361,472.312318 282.400264,466.720646 C281.263117,458.333137 280.289403,454.647645 276.219237,453.641432 C272.149072,452.635218 258.699247,461.354903 252.184795,468.726511 C245.670344,476.098119 232.637276,491.017139 228.278738,509.314902 C224.820775,520.90202 214.920515,522.314221 210.594353,522.890745 C206.268191,523.467268 185.943937,526.241717 181.769681,527.519458 C177.595426,528.7972 171.889533,524.174495 180.718793,517.819216 C189.548053,511.463936 205.055972,502.643315 204.585363,490.731626 C201.390259,479.532798 203.345181,454.34567 204.585363,447.238844 C205.825546,440.132018 209.48715,426.093991 199.823704,427.034157 C190.160259,427.974323 173.72466,429.125317 167.888006,426.093991 C163.996903,424.073107 162.73648,419.896426 164.106736,413.563949 C163.740128,409.817802 163.06598,408.272805 162.084292,408.928958 C160.611759,409.913188 161.092932,418.032497 161.26167,423.525046 C161.430409,429.017596 158.241131,427.890658 160.04924,431.879241 C161.85735,435.867825 165.49464,436.6977 164.106736,438.334481 C162.718831,439.971261 160.017807,439.716858 158.400716,437.814276 C156.783624,435.911693 154.7503,430.205328 157.520063,423.525046 C158.672044,417.596574 156.876888,413.268269 156.338721,411.772593 C155.800554,410.276917 155.931814,407.233234 152.552554,410.897812 C149.173294,414.562391 149.267935,414.239282 149.485975,414.876629 C149.631334,415.301526 149.704014,416.077399 149.704014,417.204247 C148.380316,424.206082 147.089128,427.704101 145.830448,427.698303 C143.942429,427.689606 141.40112,424.191657 145.057268,416.10908 C148.713415,408.026503 151.248791,405.325339 153.793756,404.357517 C156.338721,403.389695 155.842043,399.303474 149.704014,400.507764 C145.830448,402.539901 142.852232,407.090983 139.020286,403.041619 C135.188341,398.992255 134.252407,390.052843 136.994983,387.91676 C139.737559,385.780677 137.204947,380.414794 135.410935,378.80155 C133.616924,377.188306 134.539399,373.761173 139.020286,370.255976 C143.501174,366.750779 142.969638,365.111652 139.020286,364.183172 C136.387385,363.564186 134.509178,362.421674 133.385664,360.755638 C132.494124,358.59321 131.118127,357.754396 129.257672,358.239196 C126.46699,358.966397 123.10441,350.15423 129.257672,350.133944 C135.410935,350.113658 140.248359,350.622853 147.45103,356.037567 C152.252811,359.647376 151.45489,355.105377 145.057268,342.411568 C135.576566,322.457544 125.305984,312.556137 114.24552,312.707346 C103.185056,312.858556 96.3694844,315.645938 93.7988052,321.069495 C90.1841025,323.990578 86.1006403,322.446452 81.5484187,316.437116 C74.7200862,307.423112 65.1785847,304.638258 66.1601807,296.930002 C67.1417767,289.221746 77.0848272,279.79534 87.0735732,280.219451 C97.0623192,280.643562 111.381283,283.028371 116.190446,281.912364 C120.99961,280.796356 123.574265,276.050137 117.230304,276.863118 C110.886344,277.676099 94.4839518,265.408404 96.0570187,255.780652 C97.6300855,246.1529 97.9699456,243.886976 89.2626722,247.063097 C80.5553988,250.239219 44.8938601,256.338607 47.7998142,224.004474 C48.536582,216.959296 51.8017221,210.36059 57.5952342,204.208355 C60.8347588,201.593467 59.9185493,198.75186 54.8466055,195.683535 C47.2386899,191.081048 44.025609,185.199144 47.2386899,173.749501 C50.4517708,162.299858 56.4040231,152.090441 72.8333477,153.962157 C89.2626722,155.833873 100.053447,150.975917 112.232287,128.411959 C124.411126,105.848001 154.393986,110.268905 162.084292,114.174664 C169.774598,118.080424 176.388235,129.667723 172.13812,145.068469 C171.842214,146.543705 171.694261,147.907703 171.694261,149.160464 C188.564631,165.434496 200.089275,175.159289 206.268191,178.334843 Z" id="body" fill="#000000"></path>
            <path d="M297.776436,118.380343 C359.908471,118.380343 422.91552,92.7957509 423.270284,72.0350159 C424.107759,43.0271589 363.865634,31.6750509 301.7336,31.6750509 C239.601566,31.6750509 181.203069,51.1747086 181.26199,81.7575303 C183.939542,104.225695 235.644402,118.380343 297.776436,118.380343 Z" id="pizza-back" fill="#000000" transform="translate(302.270430, 75.027697) rotate(16.000000) translate(-302.270430, -75.027697) "></path>
            <path d="M302.173003,185.814044 C332.272522,185.814044 342.377164,116.379615 338.792178,72.0829913 C335.207193,27.7863674 325.510665,-40.2601801 299.351737,-40.2134878 C274.656848,-41.6537639 270.283312,9.42747923 267.874355,51.2843974 C266.752049,70.7850698 263.927935,95.0361985 268.183654,122.086369 C273.062559,153.09762 286.096515,185.814044 302.173003,185.814044 Z" id="pizza-front" fill="#FFFFFF" transform="translate(302.697914, 72.785387) rotate(-75.000000) translate(-302.697914, -72.785387) "></path>
            <path d="M192.682377,350.111678 C186.297715,344.128904 179.12964,348.357303 171.17815,362.796874 C170.278322,365.913516 168.692217,406.359231 168.064028,412.732237 C167.645235,416.980908 169.280881,419.19868 172.970968,419.385553 C235.640953,419.106042 274.068479,417.927278 288.253545,415.849262 C309.531145,412.732237 332.702865,409.318536 338.451012,406.236042 C342.283111,404.181047 344.19916,401.331897 344.19916,397.688592 C353.456759,363.140565 355.479503,337.636161 350.267392,321.175381 C342.449225,296.48421 321.513307,289.195398 310.535599,289.004619 C299.557891,288.81384 287.348038,294.588485 285.431199,296.115471 C283.514361,297.642457 280.407429,300.997814 290.340454,304.436491 C296.962471,306.728943 300.754775,308.362499 301.717367,309.337158 C303.117008,310.831239 302.966253,311.753607 301.265103,312.10426 C298.713378,312.63024 273.789522,316.479471 266.618614,316.449827 C259.447707,316.420184 249.013454,312.773673 246.093758,311.144858 C241.321665,309.337158 236.58747,311.144858 228.341373,315.724359 C226.987556,316.208005 215.101224,327.670444 192.682377,350.111678 Z" id="Belly" fill="#FFFFFF"></path>
            <path d="M295.222838,423 C247.122181,423.974225 221.419585,424.316029 218.11505,424.025411 C214.810515,423.734793 212.808162,427.697478 212.107991,435.913466 C209.591337,463.34761 208.734249,481.902063 209.536726,491.576826 C210.176677,495.222174 207.906038,499.87231 202.72481,505.527237 L190.566606,517.790948 C187.420189,521.194007 189.013288,521.982396 195.345903,520.156116 C201.678518,518.329835 209.830069,515.354071 219.800556,511.228824 C226.17312,488.110085 236.586226,470.084201 251.039876,457.151174 C265.493525,444.218147 276.367124,440.122925 283.660672,444.865509 C286.951846,447.344398 288.637383,452.737556 288.717284,461.044983 C288.767188,464.703532 290.935706,466.532806 295.222838,466.532806 L327.452707,466.532806 L309.096196,453.554756 C301.449842,448.455427 297.226028,441.230904 296.424752,431.881186 C296.218325,430.348052 295.817687,427.387656 295.222838,423 Z" id="Legs" fill="#FFFFFF"></path>
            <path d="M205.432529,292.50424 C169.689025,291.043284 147.533413,286.647337 138.965693,279.316399 C135.184917,276.227867 132.272263,276.227867 130.22773,279.316399 C126.783819,287.146799 122.251235,291.120759 116.629977,291.238279 C111.008719,291.3558 104.196677,290.623046 96.1938494,289.040016 C89.1078741,287.426654 83.6982719,287.799033 79.9650429,290.157155 C76.2318139,292.515277 73.5225984,294.748707 71.8373965,296.857447 C70.3911754,298.70205 70.8182206,300.641109 73.1185321,302.674623 C75.4188436,304.708137 79.5661771,308.139254 85.5605325,312.967973 C89.1423425,315.306502 93.0627892,315.436635 97.3218729,313.358373 C103.710498,310.240979 120.963871,306.669691 130.22773,313.358373 C136.403637,317.817494 143.082542,328.104614 150.264447,344.219732 C156.109868,353.702886 162.383206,356.551439 169.084462,352.765391 C175.785718,348.979343 187.61535,342.1921 204.57336,332.403661 L189.904119,332.909198 C194.41731,329.894441 196.400794,326.989621 195.854571,324.194738 C195.035237,320.002413 191.645739,309.466416 195.854571,304.493928 C200.063403,299.521441 204.031016,299.934748 205.432529,298.319274 C208.497597,294.868664 208.497597,292.930319 205.432529,292.50424 Z" id="left-chest" fill="#FFFFFF"></path>
            <path d="M252.742131,182 C252.852019,191.591353 251.500919,194.990435 266.372082,223.646958 C269.841057,230.81 274.20971,239.657561 279.478042,250.18964 C278.02893,262.547205 272.791084,269.560568 263.764505,271.229729 C260.857112,271.878414 260.017489,273.585167 261.245636,276.349986 C264.176867,277.074313 267.796209,276.402019 272.103661,274.333103 C276.411114,272.264187 280.435254,272.936482 284.176081,276.349986 C288.740916,279.180319 291.070811,280.984684 291.165766,281.76308 C291.308199,282.930675 287.947308,289.553961 274.596472,288.428217 C268.044226,283.560543 261.027404,279.319924 255.586131,278.798023 C250.144859,278.276122 245.790645,277.472492 247.705219,271.229729 C248.859449,269.695004 253.741894,264.862499 254.664013,260.969344 C255.586131,257.07619 260.519887,231.513518 241.907706,213.537389 C238.954575,210.602891 235.053662,208.477684 235.542661,203.579635 C236.03166,198.681587 236.427492,194.404986 233.971921,193.038206 C232.938527,191.239669 231.614553,189.619241 230,188.17692 C243.285398,187.135133 250.866108,185.076159 252.742131,182 Z" id="right-chest" fill="#FFFFFF"></path>
            <path d="M134.900846,211.973001 C119.210223,224.337011 110.542466,232.101534 108.897575,235.266568 C106.430238,240.01412 101.207307,255.604499 105.87199,262.898246 C110.536674,270.191994 115.550652,271.438137 121.938194,270.191994 C128.325736,268.94585 132.932056,268.328793 140.293523,271.438137 C147.654991,274.54748 161.31248,281.130027 188.238965,284.301934 C201.394719,286.809029 220.896383,282.87169 229.807224,279.545399 C254.151177,270.458145 253.295071,254.703427 251.855238,249.038789 C251.696829,248.415569 251.618279,245.067713 247.910447,247.574741 C244.351512,252.854848 232.535118,263.907892 217.182086,268.846097 C204.509834,272.922046 189.257886,279.271655 186.984497,270.862568 C186.533192,269.193226 200.268781,268.846097 212.459224,265.830393 C224.446835,262.864866 237.310705,253.91712 242.69631,245.046444 C248.306821,235.805324 251.444119,232.441376 242.69631,223.553791 C230.833493,211.501424 229.52455,217.563679 217.904651,206.489308 C213.811337,203.240603 209.557734,205.508658 201.435853,209.415493 C200.408446,209.909703 197.133213,211.291535 204.328089,214.680543 C206.09282,216.071404 211.266353,216.942293 209.553127,224.641263 C208.98108,227.211951 213.607156,229.89249 220.332267,225.052534 C226.290609,222.99157 227.179111,222.810669 226.634225,224.042058 C225.294379,227.069979 223.54975,231.494569 214.192318,233.230037 C208.222158,234.337288 209.968144,238.195535 203.913785,240.032165 C197.870246,241.865513 192.483646,241.661 187.45612,240.539876 C185.020197,239.996672 189.963056,236.95324 195.451383,236.862477 C200.939709,236.771713 201.994767,234.326942 203.913785,232.717762 C206.307004,230.710943 203.913785,228.40238 197.927679,229.146576 C195.750049,229.423897 200.589754,223.658391 197.514389,221.295375 C191.993051,217.052951 188.83475,217.638428 184.835494,214.680543 C183.415454,213.969864 183.417726,208.271556 192.57729,202.625104 C197.927679,204.353881 201.378411,201.998663 202.560461,199.032498 C205.342462,193.162044 199.09256,187.831636 195.451383,186.761135 C189.248638,184.937537 176.115489,186.761135 166.85338,188.359294 C161.489078,189.284893 159.605219,193.948586 158.875301,195.234943 C153.226307,205.190341 146.488164,218.665832 138.168481,224.641263 C132.622026,228.624883 133.142134,223.872848 139.728807,210.385157 C140.17934,208.166063 139.803078,207.665025 138.600021,208.882044 C137.396964,210.099063 136.163905,211.129382 134.900846,211.973001 Z" id="Face" fill="#FFFFFF"></path>
            <path d="M165.56191,222.529004 C168.047191,222.529004 170.177446,217.703396 170.177446,214.113545 C170.177446,212.300925 169.589578,209.942073 168.389566,208.611018 C167.212985,207.305952 165.436292,207.010819 164.205902,207.010819 C161.720621,207.010819 161.177446,210.523694 161.177446,214.113545 C161.177446,217.703396 163.076629,222.529004 165.56191,222.529004 Z" id="Eye" fill="#000000" transform="translate(165.677446, 214.769912) rotate(18.000000) translate(-165.677446, -214.769912) "></path>
            <path d="M179.004824,172.800105 C165.759595,180.075382 157.438838,184.323742 154.042552,185.545186 C148.948122,187.377352 120.793565,214.778568 116.692389,217.753639 C113.958272,219.737021 108.465224,224.845119 100.213244,233.077934 C98.6996231,234.450943 97.710693,234.814896 97.2464537,234.169794 C92.13808,227.071249 93.056326,220.941059 87.4394743,220.374228 C81.8226226,219.807396 90.3766035,232.278795 88.6783468,237.828972 C87.6420194,241.215856 79.6843976,240.390792 78.0791025,240.354134 C66.4404115,240.088354 44.1752434,236.926365 58.0777533,215.839263 C64.2944981,205.63099 67.80079,200.254519 71.6257051,198.08309 C74.1756485,196.635471 73.5813645,194.910913 69.8428529,192.909417 C55.4155332,189.579446 50.2568728,182.785346 54.3668717,172.527118 C60.5318702,157.139777 73.3620815,157.707549 74.271475,167.012303 C74.8777374,173.215472 77.8228055,173.215472 83.1066792,167.012303 C90.1147912,161.342568 99.8474105,158.957925 112.304537,159.858375 C116.786024,160.252541 118.248641,158.992103 116.692389,156.077061 C109.489779,149.469184 109.194967,142.654322 115.807954,135.632475 C125.727435,125.099704 153.936032,107.179018 165.782753,126.725047 C169.816035,133.640851 168.545881,144.685293 161.972293,159.858375 C161.975922,163.727072 163.680286,164.511205 167.085386,162.210776 C170.490486,159.910346 174.320555,160.457371 178.575591,163.85185 C180.321741,165.098366 181.428897,166.594368 181.897061,168.339859 C182.365225,170.08535 181.401146,171.572098 179.004824,172.800105 Z" id="hat" fill="#FFFFFF"></path>
            <path d="M208.066393,139.575418 C212.546795,139.095844 220.172058,138.86823 224.168249,139.575418 C228.16444,140.282605 236.002632,139.319207 226.401881,134.253346 C216.801129,129.187485 209.040998,123.204212 208.862849,120.272667 C208.684699,117.341122 208.71175,116.887826 217.938813,121.051733 C224.090188,123.827671 231.872475,127.927042 241.285673,133.349846 C243.813773,134.446051 244.865152,136.521242 244.439808,139.575418 C243.801794,144.156681 253.684261,140.481623 255.124142,139.575418 C256.564023,138.669212 271.19972,137.817495 262.446821,153.645365 C257.155665,157.836709 253.290864,158.935748 253.326803,170.399148 C253.362742,181.862547 232.596924,182.443368 226.839719,181.862547 C221.082514,181.281725 217.398181,170.342727 216.787604,164.427854 C216.177026,158.512981 210.344079,151.062906 206.313494,150.006375 C202.28291,148.949844 203.936879,141.480574 208.066393,139.575418 Z" id="Path-3" fill="#000000"></path>
            <path d="M150.146853,394.002217 C155.832372,394.002217 161.129293,391.356307 161.129293,389.261642 C161.129293,387.166977 156.164998,386.671573 150.479479,386.671573 C149.264697,386.671573 145.767852,384.639316 144.685814,384.78166 C140.703612,385.305526 137.975782,389.437175 137.975782,391.084288 C137.975782,392.141133 137.050795,394.345377 139.417005,394.812479 C141.74062,395.271173 147.329912,394.002217 150.146853,394.002217 Z" id="Oval" fill="#FFFFFF" transform="translate(149.463495, 389.843471) rotate(-35.000000) translate(-149.463495, -389.843471) "></path>
            <path d="M149.647932,379.103651 C155.564157,379.103651 162.689328,376.107545 159.598044,373.659229 C156.50676,371.210913 156.617589,369.720368 150.701364,369.720368 C144.785139,369.720368 138.155367,372.742791 138.155367,375.405093 C138.155367,376.894128 140.946483,379.169189 143.303954,380.053439 C145.161491,380.750172 147.040674,379.103651 149.647932,379.103651 Z" id="Oval-2" fill="#FFFFFF" transform="translate(149.250289, 374.972844) rotate(-29.000000) translate(-149.250289, -374.972844) "></path>
            <path d="M137.514004,367.729797 C138.894716,367.729797 138.942132,363.969548 138.942132,359.55127 C138.942132,357.91776 141.117022,354.898613 140.977029,352.971609 C140.738372,349.686499 138.024151,347.715541 137.153911,347.715541 C136.223377,347.715541 137.383251,350.513171 137.059463,354.11553 C136.902819,355.858294 135.481019,356.208232 135.481019,357.648801 C135.481019,362.067079 136.133292,367.729797 137.514004,367.729797 Z" id="Oval-3" fill="#FFFFFF" transform="translate(138.232264, 357.722669) rotate(-65.000000) translate(-138.232264, -357.722669) "></path>
            <path d="M215.536097,146.719717 C224.092857,145.882016 230.559603,145.882016 234.936335,146.719717 C241.501434,147.97627 249.035474,149.232822 250.292026,147.97627 C251.548579,146.719717 257.885667,145.010806 258.344852,146.719717 C258.804036,148.428628 259.875465,152.214977 254.713362,154.132072 C249.551258,156.049168 248.620036,162.65718 250.292026,164.667664 C251.964017,166.678148 249.728993,171.926505 241.916339,174.890417 C234.103686,177.854329 224.947209,178.246773 222.580547,169.553912 C220.213884,160.861051 218.60829,151.495857 215.536097,150.311906 C213.487968,149.522605 213.487968,148.325209 215.536097,146.719717 Z" id="right-hand" fill="#FFFFFF"></path>
            <path d="M50.0381861,297.705922 C44.7717976,300.433588 38.1422399,303.458558 27.6291895,302.758454 C17.1161392,302.058351 16.0739407,305.774451 17.6080804,307.856497 C19.14222,309.938544 21.3543148,311.778239 19.2144929,314.981247 C27.339751,318.744218 39.1772144,320.863699 51.4029815,319.399231 C63.6287486,317.934764 65.9570489,313.38227 68.9340103,313.326803 C71.9109717,313.271336 79.4287971,316.547955 68.9340103,321.398623 C58.4392235,326.249291 33.8145237,330.269305 12.9297966,322.428823 C-7.95493056,314.588342 2.09950132,288.549907 4.74568926,286.60991 C7.39187719,284.669913 8.3943441,283.394249 19.2144929,289.427702 C30.0346418,295.461154 40.1051581,294.929601 44.3047995,294.354608 C48.5044409,293.779616 52.8136581,295.701622 50.0381861,297.705922 Z" id="left-hand-background" fill="#000000"></path>
            <path d="M50.8743487,297 C44.0878054,300.258222 35.2678484,301.867945 24.4144779,301.829171 C13.5611074,301.790397 11.1908063,304.533345 17.3035745,310.058017 C18.0709107,313.362004 18.0709107,315.082873 17.3035745,315.220624 C16.1525702,315.427251 31.2277852,321.713296 45.7132912,321.42708 C60.1987972,321.140863 65.5969845,315.43315 67.7369851,313.551571 C69.1636521,312.297186 63.5427734,306.779995 50.8743487,297 Z" id="left-hand" fill="#FFFFFF"></path>
            <g id="specs" transform="translate(225.000000, 118.000000)" fill="#000000">
                <path d="M59,31 C62.3137085,31 66.1525608,27.5957862 66.1525608,25.6627896 C66.1525608,23.729793 62.3137085,24 59,24 C55.6862915,24 53,25.5670034 53,27.5 C53,29.4329966 55.6862915,31 59,31 Z" id="Oval-4"></path>
                <path d="M56.5015908,14.981542 C62.0244383,14.981542 73.5776496,13.2483622 73.5776496,11.0392232 C73.5776496,8.83008417 73.3387116,8.83168868 67.8158641,8.83168868 C62.2930166,8.83168868 53.0966757,6.53258232 53.0966757,8.74172132 C53.0966757,10.9508603 50.9787433,14.981542 56.5015908,14.981542 Z" id="Oval-5" transform="translate(63.137645, 11.382109) rotate(13.000000) translate(-63.137645, -11.382109) "></path>
                <path d="M119,19 C123.418278,19 127,16.9852814 127,14.5 C127,12.0147186 123.418278,11.9879557 119,11.9879557 C114.581722,11.9879557 111.011699,9.50267433 111.011699,11.9879557 C111.011699,14.4732371 114.581722,19 119,19 Z" id="Oval-6"></path>
                <path d="M151.479137,20.1870944 C161.696405,20.1870944 167.835274,16.7290965 167.835274,14.2438151 C167.835274,11.7585338 161.696405,14.2438151 151.479137,14.2438151 C141.261869,14.2438151 132.29701,11.7585338 132.29701,14.2438151 C132.29701,16.7290965 141.261869,20.1870944 151.479137,20.1870944 Z" id="Oval-7" transform="translate(150.066142, 16.663170) rotate(-7.000000) translate(-150.066142, -16.663170) "></path>
                <path d="M12.0756138,9.43916136 C18.6226149,9.43916136 22.5562673,7.22335218 22.5562673,5.63083838 C22.5562673,4.03832459 18.6226149,5.63083838 12.0756138,5.63083838 C5.52861263,5.63083838 -0.215872526,4.03832459 -0.215872526,5.63083838 C-0.215872526,7.22335218 5.52861263,9.43916136 12.0756138,9.43916136 Z" id="Oval-7-Copy" transform="translate(11.170197, 7.181108) rotate(27.000000) translate(-11.170197, -7.181108) "></path>
            </g>
            <path d="M214.174646,306.611271 C210.356128,302.086212 206.079159,301.813706 201.343738,305.793752 C194.240608,311.763821 200.653367,318.34415 200.713144,321.838879 C200.772921,325.333607 201.194052,327.227595 200.713144,328.125225 C200.232236,329.022854 213.523473,323.524629 221.30056,315.06795 C229.077648,306.611271 221.591849,303.59598 218.55745,305.439501 C216.534517,306.668516 215.073582,307.059105 214.174646,306.611271 Z" id="tie-left" fill="#FF8700"></path>
            <path d="M248.189097,296.286601 C246.218423,295.817891 243.610463,300.418858 250.341924,305.493659 C257.073384,310.56846 266.905238,313.420552 269.899279,313.410288 C272.89332,313.400024 274.567668,313.083804 278.542689,311.503579 C282.51771,309.923355 284.481198,310.672848 284.923425,309.490955 C285.365652,308.309062 283.976732,303.638271 278.542689,303.225525 C273.108647,302.81278 262.495415,293.695477 261.814932,291.071378 C261.134448,288.447279 253.737136,287.364751 253.863143,293.695477 C253.98915,300.026204 251.08568,296.015634 248.189097,296.286601 Z" id="tie-right" fill="#FF8700"></path>
            <path d="M233.386059,298.202035 C240.655933,298.202035 238.970356,293.349459 238.970356,291.036317 C238.970356,288.723176 235.604414,284.721259 229.082123,287.091717 C222.559832,289.462174 217.367516,289.568016 217.367516,291.881158 C217.367516,294.1943 226.116186,298.202035 233.386059,298.202035 Z" id="tie-middle" fill="#FF8700" transform="translate(228.253524, 292.284190) rotate(-20.000000) translate(-228.253524, -292.284190) "></path>
            <path d="M220.335582,237.767783 C211.842547,244.765006 205.238758,248.180167 200.524215,248.013267 C193.452402,247.762918 190.699696,244.782439 188.338804,245.824135 C185.977913,246.86583 183.617022,259.209853 185.977913,260.295275 C188.338804,261.380696 193.462807,258.044983 198.065299,256.891545 C202.667791,255.738106 219.545665,248.440806 226.434289,241.842256 C233.179162,237.767783 232.84279,235.785274 235.630362,235.82014 C238.417934,235.855006 236.239375,231.680507 231.92484,232.144912 C227.610305,232.609317 224.827877,232.899391 223.187457,232.144912 C221.547036,231.390433 219.927763,233.741321 220.335582,235.518634 C220.607462,236.70351 220.607462,237.453226 220.335582,237.767783 Z" id="smile" fill="#000000"></path>
            <path d="M143.911043,300.033168 C156.082555,306.67226 165.394508,309.948589 171.846902,309.862155 C181.525493,309.732503 180.501955,309.761262 181.876731,308.330854 C183.251506,306.900446 182.024769,302.843066 176.036291,303.377701 C170.047813,303.912336 153.990375,298.387774 149.980141,295.951272 C145.969907,293.514769 141.795605,293.189462 142.007762,295.951272 C142.149199,297.792478 142.783627,299.15311 143.911043,300.033168 Z" id="Path-2" fill="#000000"></path>
        </g>
    </g>
</svg>