<?xml version="1.0" encoding="UTF-8"?>
<svg width="1015px" height="208px" viewBox="0 0 1015 208" version="1.1" xmlns="http://www.w3.org/2000/svg" xmlns:xlink="http://www.w3.org/1999/xlink">
    <!-- Generator: Sketch 52.5 (67469) - http://www.bohemiancoding.com/sketch -->
    <title>pepisSign</title>
    <desc>Created with Sketch.</desc>
    <defs>
        <path d="M16.5416868,3.38689622 L139.335636,0.839939487 C170.966973,3.68270785 189.973058,12.9772085 196.353889,28.7234413 C205.704711,28.7234413 216.988818,28.7234413 230.206209,28.7234413 L230.206209,24.2006862 L302.859852,24.2006862 C305.918402,25.1812493 307.512807,26.6888344 307.643066,28.7234413 C314.597591,21.2481385 335.950736,23.2912881 340.369247,27.2919569 C341.90722,5.93735363 355.580839,-2.8799855 381.390106,0.839939487 C390.639526,4.12582576 396.878843,8.63510895 400.108056,14.367789 C403.428903,14.367789 406.806565,14.367789 410.24104,14.367789 L456.455267,0.839939487 C458.35438,1.21514201 458.829158,2.06412759 457.879601,3.38689622 C456.930045,4.70966485 451.860496,12.8912644 442.670955,27.9316948 L442.670955,29.72543 C448.217775,30.2191212 452.812545,29.6212095 456.455267,27.9316948 C461.919349,25.3974228 475.883488,19.050655 493.951201,29.72543 C499.719157,25.4764053 506.740127,20.3571916 515.014112,14.367789 L515.014112,86.8745859 C515.006571,89.1677817 515.714168,90.9560204 517.136903,92.2393022 C519.271006,94.1642248 527.238899,99.6399922 527.744776,124.883483 C528.250653,150.126974 522.032428,179.499816 486.796779,178.695716 C451.561129,177.891616 444.850264,177.417532 442.670955,176.868064 C441.218083,176.501752 436.858579,179.892001 429.592446,187.038811 L414.747714,199.823442 L412.737264,198.972995 C412.825693,188.886627 412.47787,183.651974 411.693794,183.269035 C410.517682,182.694625 410.634159,182.23426 408.518245,184.314532 C407.107635,185.70138 406.000679,183.010754 405.197375,176.242653 L368.6258,177.460225 L379.555787,189.074121 L379.555787,191.266707 L215.774447,189.074121 L225.552187,178.695716 C226.125275,177.060341 225.249553,176.242653 222.925023,176.242653 C219.438226,176.242653 219.056678,178.56568 220.127196,179.68294 C214.091384,179.68294 150.623784,182.813334 29.7243975,189.074121 L46.9832132,171.095698 L0.675203185,173.095176 L0.675203185,171.095698 L53.6862261,122.212476 L53.6862261,51.4131419 L16.5416868,6.0259094 L16.5416868,3.38689622 Z" id="path-1"></path>
        <filter x="-1.3%" y="-2.5%" width="102.7%" height="107.0%" filterUnits="objectBoundingBox" id="filter-2">
            <feOffset dx="0" dy="2" in="SourceAlpha" result="shadowOffsetOuter1"></feOffset>
            <feGaussianBlur stdDeviation="2" in="shadowOffsetOuter1" result="shadowBlurOuter1"></feGaussianBlur>
            <feColorMatrix values="0 0 0 0 0   0 0 0 0 0   0 0 0 0 0  0 0 0 0.5 0" type="matrix" in="shadowBlurOuter1"></feColorMatrix>
        </filter>
    </defs>
    <g id="Page-1" stroke="none" stroke-width="1" fill="none" fill-rule="evenodd">
        <g id="pepisSign" transform="translate(3.000000, -55.000000)">
            <g id="background-circles" transform="translate(98.000000, 0.000000)">
                <g id="Oval-9-Copy"></g>
            </g>
            <g id="Original-Version-Copy" transform="translate(0.000000, 57.000000)">
                <g id="Path-42">
                    <use fill="black" fill-opacity="1" filter="url(#filter-2)" xlink:href="#path-1"></use>
                    <use fill="#000000" fill-rule="evenodd" xlink:href="#path-1"></use>
                </g>
                <g id="P" transform="translate(41.945876, 13.533333)">
                    <path d="M12.7407769,0.910707043 L9.03834672,0.910707043 C6.66444028,1.16901014 6.07096366,1.99373695 7.25791689,3.38488747 C8.44487011,4.77603799 15.9527228,12.7743025 29.7814749,27.3796809 L29.7814749,113.930667 C29.8031562,114.862523 29.3810955,115.82264 28.5152926,116.811018 C27.6494898,117.799395 18.3065344,126.901517 0.486426655,144.117384 L113.952134,139.204335 C115.393251,138.837479 115.556982,138.335518 114.443327,137.698454 C113.329672,137.061389 96.9489811,129.866865 65.3012549,116.114881 C63.2516741,115.173223 62.2332911,113.585458 62.2461059,111.351584 C62.2589207,109.117711 62.2653281,102.610484 62.2653281,91.829902 C97.5427661,91.7160991 120.512837,83.4723521 131.175542,67.0986612 C144.242502,52.7764009 146.071079,6.69368771 108.162099,0.910707043 C102.877354,0.0837362221 71.0702466,0.0837362221 12.7407769,0.910707043 Z" id="Path-21" fill="#FFFFFF"></path>
                    <path d="M18.2633551,7.92834612 L33.8079106,24.1689835 L33.8079106,116.820799 C24.5786607,126.087104 16.8031493,133.397356 10.4813763,138.751555 C8.89349477,139.934655 8.8121063,141.458022 10.4813763,141.458022 C11.594223,141.458022 41.3026196,140.555867 99.6065662,138.751555 C101.207496,138.384403 101.207496,137.877713 99.6065662,137.231484 C98.005636,136.585255 84.2839643,130.261909 58.4415511,118.261445 L58.4415511,86.9187571 C102.239536,89.7908652 127.97154,77.779351 135.637563,50.8842146 C139.604138,16.873625 116.34645,4.50877869 95.0394483,4.50877869 C80.8347808,4.50877869 54.4207158,4.50877869 15.7972533,4.50877869 C15.0909139,4.35067901 15.2789561,4.83818546 16.3613799,5.97129803 C17.4438038,7.1044106 18.0777955,7.75675996 18.2633551,7.92834612 Z" id="Path-20" fill="#DF4A39"></path>
                    <path d="M60.8891753,17.9466667 L60.8891753,65.7358728 C83.2184441,65.7701697 97.3170027,62.3077127 103.184851,55.3485018 C109.052699,48.3892908 111.764783,41.7276636 111.321102,35.3636199 C110.125133,25.3907205 105.721401,19.5850694 98.1099053,17.9466667 C90.1223223,17.9466667 77.7154123,17.9466667 60.8891753,17.9466667 Z" id="Path-41" fill="#FFFFFF"></path>
                    <path d="M63.5953608,22.0066667 L63.5953608,58.5466667 C83.1978472,58.5728904 95.5747326,55.9254687 100.726017,50.6044017 C105.877302,45.2833347 108.258194,40.1898025 107.868694,35.3238051 C106.818773,27.6984483 102.952811,23.2594022 96.2708083,22.0066667 C89.2586447,22.0066667 78.3668288,22.0066667 63.5953608,22.0066667 Z" id="Path-41-Copy" fill="#000000"></path>
                </g>
                <g id="e" transform="translate(179.608247, 40.953333)">
                    <path d="M81.6232263,56.5228793 C85.3307838,56.5228793 87.2975888,54.7287935 87.5236413,51.1406217 C89.5765843,21.9026282 78.3693588,5.24255703 53.9019649,1.16040816 C15.8274487,-2.75633008 2.65586311,26.0971479 0.812652063,40.5010982 C-1.03055898,54.9050486 0.000246012598,95.2645409 35.8150848,99.293375 C50.8867517,100.674635 59.3595826,97.9388863 63.8546918,92.8285341 C64.3097299,92.2701949 65.1080223,92.2345892 65.6364761,92.7145898 C69.4792998,96.3506621 73.4114047,100.721067 77.4327906,105.825804 C78.9719112,106.966825 79.7414715,106.294509 79.7414715,103.808858 C79.7414715,101.323207 80.2418186,88.8056271 81.2425127,66.2561195 C81.1736915,63.9546412 80.3697206,63.7089661 78.8306,65.5190945 C76.5219192,68.2342871 63.1129694,83.5902438 44.6661192,80.6621276 C33.5246278,77.7829855 29.1300627,70.2629354 31.482424,58.1019773 C61.202068,57.0492453 77.9156688,56.5228793 81.6232263,56.5228793 Z" id="Path-22" fill="#FFFFFF"></path>
                    <path d="M31.6004886,55.2553191 L79.6112362,54.132093 C81.4173491,53.5742997 82.3169184,51.8988528 82.309944,49.1057524 C82.2994824,44.9161018 81.2719198,29.5933198 76.5374603,22.8641464 C71.8030009,16.134973 60.8473709,1.18151278 30.6691148,9.4430031 C11.1175493,16.680778 2.9056725,35.653131 6.03348456,66.3600621 C10.7102682,85.9193043 22.9108787,96.2635499 42.6353163,97.392799 C54.1002708,98.287447 61.0972758,92.3452781 63.1887297,91.0491718 C64.6177687,90.0345517 65.5596809,89.6952265 68.3281297,92.3830189 C71.0965784,95.0708112 71.6166282,95.8559246 75.0276954,99.5501457 C75.805804,100.278612 77.0795789,99.8941435 77.0795789,99.2071589 C77.0795789,98.7665031 78.3812386,85.963362 79.6112362,69.6683702 C79.6586744,69.0399101 78.9874126,68.8565117 78.3812386,69.1314175 C73.8791274,74.5677314 65.5447568,84.1334737 48.9033208,84.1334737 C29.1839609,83.1250667 27.1901156,71.4693906 28.0123693,59.2792954 C28.0123693,57.8231506 28.4471065,55.2553191 29.7992894,55.2553191 C30.7007447,55.2553191 31.3011444,55.2553191 31.6004886,55.2553191 Z" id="Path-23" fill="#DF4A39"></path>
                    <path d="M61.9978879,37.9724209 C61.9978879,27.464787 54.5591333,18.9466667 45.3829646,18.9466667 C36.2067958,18.9466667 28.7680412,27.464787 28.7680412,37.9724209 C29.3526655,42.2902281 61.9978879,42.4106118 61.9978879,37.9724209 Z" id="Oval-7" fill="#FFFFFF"></path>
                    <path d="M57.0167868,36.8563501 C57.0167868,29.2073812 51.6017901,23.0066667 44.9220532,23.0066667 C38.2423163,23.0066667 32.8273196,29.2073812 32.8273196,36.8563501 C33.2528933,39.9994719 57.0167868,40.0871046 57.0167868,36.8563501 Z" id="Oval-7-Copy" fill="#000000"></path>
                </g>
                <g id="p(small)" transform="translate(240.850515, 37.893333)">
                    <path d="M12.122545,2.41617248 C19.35727,9.24126002 24.2928835,13.7022789 26.9293855,15.7992292 C30.8841385,18.9446546 32.8060695,19.1027068 32.5638415,24.4558726 C31.8078651,61.9009475 32.5008467,62.0181919 31.1440721,100.527988 C31.0204687,103.289512 30.7894877,104.471352 28.6439377,106.088759 C19.8365347,111.805431 11.0378151,117.53649 2.24777878,123.281935 C0.539964776,124.301624 0.539964776,124.811468 2.24777878,124.811468 C4.80949979,124.811468 46.2777218,125.112073 86.9521742,124.811468 C88.8712305,124.811468 91.5871065,123.850331 86.6533203,122.084725 C83.3641295,120.907655 75.3689275,118.056593 62.6677143,113.531538 C59.7377139,112.215311 57.7702876,111.207236 56.7654355,110.507315 C54.2967872,108.787799 53.062463,107.449634 53.062463,105.01233 C53.062463,101.881696 53.062463,97.0277498 53.062463,90.4504927 C59.0786833,92.8287649 65.5700732,94.017901 72.5366326,94.017901 C82.9864717,94.017901 107.928842,85.1313708 113.063636,51.8375834 C118.198429,18.5437961 96.944839,0.581187465 79.8062766,0.181172218 C68.3805684,-0.0855046125 60.491059,2.59588303 56.1377485,8.22533515 L54.8791885,8.22533515 L54.8791885,3.66422573 C55.084439,2.23212947 53.7308128,1.51608134 50.8183098,1.51608134 C46.4495554,1.51608134 31.7471022,1.51608134 12.8156759,1.56651748 C11.8203028,1.53289339 11.5892592,1.81611172 12.122545,2.41617248 Z" id="Path-24" fill="#FFFFFF"></path>
                    <path d="M24.7197311,6.39090034 C32.4714119,6.36031301 40.6182004,6.47185551 49.1600968,6.72552785 C50.6727557,6.74675848 51.4290852,7.79743005 51.4290852,9.87754256 C51.4290852,11.9576551 51.4290852,14.0984382 51.4290852,16.299892 C62.1140352,9.2407051 70.43717,5.70400758 76.3984896,5.68979938 C85.3404692,5.66848709 105.700328,7.15269556 108.514406,37.195661 C111.328484,67.2386264 97.4753755,87.8998407 75.8234169,90.7778698 C67.9661213,91.82228 59.6919863,90.4903571 51.0010118,86.7821013 C50.3523902,86.2915129 50.3523902,87.0185468 50.3523902,87.2736161 C50.3523902,94.6524074 50.3523902,100.041613 50.3523902,103.441232 C50.3523902,107.346716 50.0803001,108.600881 51.4290852,110.227 C52.9212664,112.026001 53.4725715,112.744442 58.0625774,114.758224 C66.3483003,118.393435 75.5556427,121.533096 77.1581511,121.841267 C77.6153382,121.947599 78.2256285,123.494835 75.5556427,123.494835 C73.7756522,123.494835 53.0502682,123.176541 13.3794906,122.539954 C12.5834423,121.839173 12.4273079,121.336224 12.9110874,121.031108 C13.3803838,120.735126 19.4968934,117.829425 31.707945,109.154095 C32.4317807,108.722594 33.9457463,108.002192 34.0954775,105.812327 C34.9178298,76.9190397 35.7533787,48.1211768 36.6021241,19.4187386 C32.5174413,15.7679322 28.218138,12.1255576 23.7042145,8.49161465 C23.222932,8.13920083 22.6668987,6.34186909 24.7197311,6.39090034 Z" id="Path-25" fill="#DF4A39"></path>
                    <ellipse id="Oval-8" fill="#FFFFFF" transform="translate(70.360825, 45.013333) rotate(10.000000) translate(-70.360825, -45.013333) " cx="70.3608247" cy="45.0133333" rx="17.5902062" ry="25.7133333"></ellipse>
                    <ellipse id="Oval-8-Copy" fill="#000000" transform="translate(70.435612, 45.236895) rotate(10.000000) translate(-70.435612, -45.236895) " cx="70.4356121" cy="45.2368954" rx="14.3732782" ry="21.0108335"></ellipse>
                </g>
                <g id="i" transform="translate(333.860825, 7.120000)">
                    <path d="M16.9893105,37.5506769 C29.0454209,37.5506769 41.5574108,37.5506769 54.5252801,37.5506769 L54.5252801,117.585636 L72.9556594,133.425748 C73.1029948,134.868508 72.7036148,135.589889 71.7575195,135.589889 C70.8114242,135.589889 47.0461225,134.868508 0.461614388,133.425748 C-0.618364361,132.539656 0.472775891,131.172005 3.73503515,129.322794 C6.9972944,127.473583 14.4761214,122.663774 26.1715162,114.893367 L26.8191934,54.041819 C22.741234,49.1941557 18.9048857,44.6420157 15.3101483,40.3853992 C13.9635207,38.2997344 15.5879476,37.5506769 16.9893105,37.5506769 Z" id="Path-26" fill="#FFFFFF"></path>
                    <path d="M21.673626,43.4848067 C24.3317344,46.7713032 27.1225019,49.9489587 30.0459287,53.0177734 C30.6428503,81.3568267 30.6428503,102.87549 30.0459287,117.573763 C29.9266987,117.910922 29.4897494,118.288702 28.7350806,118.707103 C21.1651779,123.712245 15.4297723,127.387799 11.5288635,129.733762 C11.0442562,130.218278 10.9827502,130.717009 11.3443457,131.229954 L63.5868054,132.652939 C65.3014789,132.359272 64.9714503,131.557796 62.5967197,130.248512 C59.0346237,128.284585 52.0552996,121.807004 51.3243463,119.521323 C50.8370441,117.997536 50.5826346,92.3473169 50.5611177,42.5706656 C41.0131326,42.3099869 31.9259807,41.9980046 23.2996619,41.6347187 C22.3325395,41.6653231 21.1251563,42.5593674 21.673626,43.4848067 Z" id="Path-27" fill="#DF4A39"></path>
                    <path d="M36.8865979,29.7733333 C41.8269783,29.7733333 47.124251,29.4345698 50.4967196,27.0000315 C54.2660264,24.2790212 55.8298969,19.2259281 55.8298969,14.8866667 C55.8298969,6.66498769 47.3486931,0 36.8865979,0 C33.5819393,0 30.1593037,0.43333716 27.454787,1.60232713 C21.5971755,4.13419879 17.943299,9.26196678 17.943299,14.8866667 C17.943299,23.1083456 26.4245028,29.7733333 36.8865979,29.7733333 Z" id="Oval-6-Copy" fill="#FFFFFF"></path>
                    <ellipse id="Oval-6" fill="#DF4A39" cx="36.8865979" cy="16.24" rx="14.8840206" ry="9.47333333"></ellipse>
                </g>
                <g id="'" transform="translate(408.634021, 17.946667)">
                    <path d="M29.8133801,1.86830791 C19.1205561,20.7445417 17.1294085,22.2724487 3.8670861,40.8987989 C3.23417544,41.7876941 2.18934456,42.0411924 2.02291391,40.8987989 C0.844838973,32.8123971 0.170534338,23.9643996 0,14.3548066 C0.0584749511,10.6763731 1.12945105,8.56746034 3.2129283,8.02806817 C6.33814417,7.21897992 15.1831962,2.82825812 26.9804161,0.0964230743 C28.4834221,-0.251622006 30.6772212,0.343353815 29.8133801,1.86830791 Z" id="Path-28" fill="#FFFFFF"></path>
                    <path d="M23.4806497,7.89894713 C17.0003069,19.3388124 15.79358,20.2647942 7.75600305,31.5532185 C7.3724301,32.0919299 6.73921456,32.2455615 6.63834994,31.5532185 C5.92438238,26.6524874 5.51572278,21.2901943 5.41237113,15.4663392 C5.44780964,13.2370395 6.09687038,11.9589414 7.35955335,11.632045 C9.25357781,11.1417003 14.6140859,8.48072108 21.7637433,6.82510348 C22.674634,6.61417217 24.0041771,6.97475486 23.4806497,7.89894713 Z" id="Path-28-Copy" fill="#DF4A39"></path>
                </g>
                <g id="s" transform="translate(420.811856, 38.246667)">
                    <path d="M78.5180169,39.0407029 C63.7115216,32.2356706 52.3571601,23.2736063 48.8311474,22.6160972 C45.3051347,21.9585882 36.7656551,19.9316183 35.1655794,24.9807676 C33.5655036,30.0299169 33.6876079,34.7804299 50.0724858,43.2551516 C66.4573636,51.7298732 94.6052827,57.0646451 87.5019867,89.9530254 C80.3986908,122.841406 34.0357236,111.879397 29.3551159,109.707595 C26.2347108,108.259727 21.3080783,105.6441 14.5752185,101.860715 C12.8954552,100.908886 11.5456209,100.908886 10.5257157,101.860715 C9.50581048,102.812544 6.06217693,105.896198 0.194815075,111.111679 L0.194815075,68.126011 C0.530574087,66.3817123 1.49558088,66.1491062 3.08983544,67.4281927 C5.48121729,69.3468223 34.4644965,91.5406805 48.8311474,88.2190905 C63.1977982,84.8975005 57.5758554,72.031624 49.6487097,68.5995874 C41.7215639,65.1675509 12.090244,53.7762391 6.14252953,40.2445137 C0.194815075,26.7127883 2.9269336,9.5209067 29.3551159,1.54683717 C52.4532358,-3.50459418 70.1903815,12.4375774 74.1091574,7.20897421 C77.1492873,4.30557355 77.1011435,3.18184825 80.0129923,1.54683717 C81.3926841,0.772136465 83.4872377,1.27406549 83.5234641,3.178697 C82.9234491,20.0794699 83.2698575,19.6044335 81.0027209,37.4020808 C80.7855164,39.1071964 79.7973084,39.6286624 78.5180169,39.0407029 Z" id="Path-29" fill="#FFFFFF"></path>
                    <path d="M78.8214456,7.96680909 C78.9399892,20.3328465 78.9176903,22.771676 77.7649672,34.3244149 C77.6541373,35.4351664 76.2680796,34.628417 75.8253216,34.3244149 C62.7762537,25.3647918 53.4707864,19.9537223 46.6820724,19.3141515 C28.489055,16.7182083 27.8338536,30.9689676 37.4780882,39.2504269 C41.4919788,42.354909 49.3714356,47.0287888 59.0827013,51.4973148 C68.7939671,55.9658407 71.5766119,58.0909269 75.8253216,61.1281742 C83.6065708,67.7927901 86.1135138,75.329043 86.4065362,81.0396237 C86.8255786,89.2061528 80.9471639,110.179814 54.2498902,109.67897 C27.5526164,109.178125 21.5057008,103.31003 13.6336608,96.7528706 C12.6259221,96.4477561 12.4127903,96.0859475 11.557285,96.7528706 C8.17550486,100.092681 5.40977485,102.788308 3.26009496,104.839753 L3.26009496,72.0230569 C20.2443864,88.0097328 35.5278688,95.4740209 49.1105421,94.4159211 C63.44223,93.3173885 67.0590165,73.9556301 53.6383716,67.2627007 C40.2177266,60.5697713 16.4171585,54.9699943 8.56937722,35.9579468 C0.721595908,16.9458992 25.9749144,5.6542527 35.0528436,5.51577035 C44.1307728,5.377288 54.5313208,5.72873741 70.4929099,11.9364734 C71.5057175,12.2682099 72.7281159,12.3307988 74.4799725,11.2699835 C75.36272,10.6845575 76.7400252,8.94436258 77.9857544,7.39927343 C78.3690248,7.1638356 78.8158738,7.38558838 78.8214456,7.96680909 Z" id="Path-30" fill="#DF4A39"></path>
                </g>
                <path d="M503.90625,37.2742457 L529.463914,37.2742457 L529.463914,34.701192 L508.30654,11.4220101 C583.610687,8.63348157 624.944977,7.19733406 632.30941,7.11356757 C639.673843,7.02980108 646.590428,10.3880998 653.059166,17.1884637 C658.666691,11.4018479 667.826087,8.50854007 680.537357,8.50854007 C699.604261,8.50854007 709.476241,17.3196657 709.476241,34.701192 C710.015441,35.6764208 710.981564,36.5341054 712.374611,37.2742457 L792.266852,28.0221393 C795.794797,27.6135963 797.357365,28.2697118 796.954556,29.9904857 C796.551746,31.7112596 795.368009,35.6654282 793.403344,41.8529913 L863.624174,35.6498443 L863.624174,5.77137019 L890.110409,28.0221393 C892.565387,29.2872371 894.992464,29.2872371 897.39164,28.0221393 C900.990403,26.1244927 945.066347,15.7931521 968.853915,49.3914897 C973.37626,55.3138492 976.084733,68.6682653 976.979333,89.4547378 L979.776623,147.556688 C990.661978,159.243048 1000.72977,170.972914 1009.98,182.746284 C1011.20634,184.307133 1013.45345,186.996948 1009.98,185.998498 C1007.52487,185.859547 993.81618,185.859547 968.853915,185.998498 L978.078637,200.917804 L976.979333,202.809603 L907.762379,202.809603 C908.728543,199.336747 907.6248,197.726682 904.451149,197.979408 C899.690673,198.358496 896.507479,205.366582 881.253307,205.578692 C865.999135,205.790801 859.532561,197.470089 856.929584,195.663474 C856.313334,197.985048 855.498323,200.803788 854.48455,204.119695 L744.249602,197.979408 L749.737522,191.395854 L749.737522,189.377753 L729.070269,187.953051 L733.860379,196.599709 L636.594312,194.409978 L637.615575,199.47015 L513.86064,197.979408 L529.463914,180.8328 L516.19799,180.8328 L543.611303,150.570588 L541.969722,77.2975091 C540.211591,71.541147 536.042989,65.7859168 529.463914,60.0318183 C522.884839,54.2777199 514.365617,46.6918623 503.90625,37.2742457 Z" id="Path-43" fill="#000000"></path>
                <g id="P" transform="translate(536.000000, 22.000000)">
                    <path d="M0.0472819198,0.399510952 L26.3913484,25.1798127 L28.3787397,128.527226 C21.651848,135.788613 14.7865416,142.827062 7.78282073,149.642575 C7.05874006,150.472646 6.79574427,152.105333 7.78282073,152.137969 C44.1743317,152.137969 46.4445502,152.137969 83.2559534,152.137969 C84.2430298,152.105333 84.0941703,150.256684 83.2559534,149.642575 C75.6581937,145.179804 67.0821036,139.801424 57.5276833,133.507437 C57.5276833,129.738229 57.5276833,127.139001 57.5276833,125.709755 C57.5276833,123.565886 57.5276833,107.725482 57.2809356,91.1444376 C57.4457064,88.8125317 58.3117731,88.1431842 60.2011404,87.8738585 C66.4726777,87.8738585 73.1471727,87.8738585 80.2246252,87.8738585 C106.439006,88.1102636 120.661282,75.9348869 122.891452,51.3477285 C126.236706,14.4669909 109.401836,0.399510952 84.8014884,0.399510952 C68.4012564,0.399510952 40.1498542,0.399510952 0.0472819198,0.399510952 Z" id="Path-32" fill="#FFFFFF"></path>
                    <path d="M11.9331556,6.53664751 C17.6093327,11.5829048 23.7620856,17.4366246 30.3914142,24.0978069 L33.1883018,128.022739 C33.1883018,131.943148 32.6267267,134.449417 31.5035763,135.541548 C29.8188507,137.179743 22.707767,144.748259 19.1651671,147.657409 C18.592169,148.373334 19.1680623,149.706826 20.0415905,149.736008 C41.2939437,149.361361 46.2110121,149.736008 70.1704709,149.361361 C70.9827179,149.319685 70.3594838,147.772608 69.650619,147.190595 C64.7730518,144.247518 58.0206466,140.729234 52.5658173,134.907066 C52.9195758,118.410525 52.0233584,110.445345 52.9195758,86.898555 C52.9699135,85.5760085 53.5085206,85.5920092 54.4589274,85.1683936 C68.3753011,85.6144409 113.554892,89.7842346 117.972242,57.9032556 C122.389593,26.0222766 112.249698,10.5865507 89.6987322,6.53664751 C57.1774759,6.53664751 51.7870654,5.89221115 13.9306313,5.89221115 C12.9042771,5.89221115 11.2478467,5.77869715 11.9331556,6.53664751 Z" id="Path-31" fill="#DF4A39"></path>
                    <g id="Group-15" transform="translate(54.078981, 20.271608)">
                        <path d="M0,0.831141361 L0,41.3418519 L1.56482914,43.1856187 L21.2976025,43.1856187 C34.5449367,42.0627869 41.4504433,35.0037073 42.0141223,22.00838 C42.8596409,2.51538912 27.1212009,0 21.0070612,0 C16.930968,0 9.93467348,0 0.0181776837,0 L0,0.831141361 Z" id="Path-40" fill="#FFFFFF"></path>
                        <path d="M3.07745106,4.9848655 C2.67189108,15.5443603 2.67189108,25.9578782 3.07745106,36.2254192 C3.11418108,37.1553114 3.42214065,37.5707143 4.36759103,37.6472727 C9.59030218,38.070185 15.0132669,38.070185 20.6364853,37.6472727 C31.5583903,36.781381 37.2517085,31.3376465 37.7164396,21.3160691 C38.4135364,6.28370306 25.4378127,4.34391608 20.3969454,4.34391608 C17.0363671,4.34391608 11.2681979,4.34391608 3.09243784,4.34391608 L3.07745106,4.9848655 Z" id="Path-40-Copy" fill="#000000"></path>
                    </g>
                </g>
                <g id="i" transform="translate(648.000000, 20.000000)">
                    <path d="M15.2799855,47.5516547 C27.5909026,47.5516547 30.0971626,47.5516547 45.0444254,47.5516547 C45.7235739,47.5735347 46.1778138,47.5518083 46.2329704,48.548863 C47.2204877,75.5049097 48.3333391,102.450993 49.5715246,129.387114 C57.4793138,136.953349 63.5355067,142.012585 67.7401032,144.564824 C68.4260558,145.261671 68.6021605,147.184478 67.7401032,147.210547 C36.4618432,146.522554 34.1120895,146.522554 3.00285103,146.522554 C1.65333499,146.440504 0.352688226,144.147642 1.39743841,143.176928 C8.14138962,138.59706 15.3064897,133.357106 22.8927386,127.457067 C23.5614717,126.936974 24.8614797,126.620781 24.8817422,124.613113 C25.087882,104.188114 24.6445289,83.3726554 23.5516829,62.1667358 C20.8015942,59.0049614 17.8455963,55.6466294 14.6836894,52.0917397 C13.7863976,50.5063345 13.8561956,47.7645654 15.2799855,47.5516547 Z" id="Path-33" fill="#FFFFFF"></path>
                    <path d="M22.8574231,53.3154916 C31.4623204,53.3154916 34.6274229,53.3154916 41.2755147,53.3154916 C42.9133978,53.6400974 43.7162753,54.2179907 43.9474013,57.4952334 C44.9554625,95.3176612 44.6457756,93.1450872 46.535392,127.897737 C46.6653381,130.287623 46.7460672,131.378937 47.1706968,131.93806 C49.0369831,133.824585 54.5431376,138.179469 58.3882901,142.344481 C60.1344625,144.015603 59.0810952,145.179403 58.3882901,145.21416 C36.5559229,144.640154 30.2047308,145.21416 8.04674583,145.311879 C7.3783131,145.270036 6.97159995,143.786611 7.58763578,143.144366 C13.6371487,138.833901 19.0463393,134.408134 26.7045307,127.839368 C27.0445028,127.547759 27.2521733,127.16435 27.2380325,126.172182 C26.9437398,105.523484 26.9437398,84.4311185 27.2380325,62.8950873 C25.6151719,60.3967623 23.9729759,57.8829206 22.3114446,55.353562 C21.9678943,54.6022801 22.2990919,53.3754955 22.8574231,53.3154916 Z" id="Path-34" fill="#DF4A39"></path>
                    <ellipse id="Oval-5" fill="#FFFFFF" cx="32.0501231" cy="15.8505516" rx="18.115287" ry="15.8505516"></ellipse>
                    <ellipse id="Oval-5-Copy" fill="#DF4A39" cx="32.7468649" cy="17.2915108" rx="14.6315779" ry="12.9686331"></ellipse>
                </g>
                <g id="z-(1)" transform="translate(705.000000, 46.000000)">
                    <path d="M0.81478947,7.99241283 C1.07115241,5.4742073 2.10754357,5.52121894 4.09644729,5.3439275 C32.1131967,3.7521083 41.8976775,3.21434331 70.9274701,0.549896261 C72.7169251,0.539192311 73.6168041,2.66482105 72.8526243,4.93264997 C59.3345371,45.0497881 56.2488836,44.6524846 42.502745,84.8364065 C41.8995753,87.5340448 42.0178993,89.1394834 43.9519345,89.4176893 C51.4672438,89.4176893 54.0718673,89.4176893 57.7782106,85.3198304 C64.6590619,76.4728712 66.6723093,73.6545248 73.8246342,63.1622598 C75.2148758,61.6018285 76.7593989,63.0017467 76.8122969,65.2957475 C75.6873993,83.4138913 75.5541139,85.3198304 74.7909125,105.066421 C74.4585066,107.652112 73.6240064,108.368225 71.7076553,108.368225 C39.954096,106.969517 37.8396127,106.650517 8.66187261,105.066421 C6.31682255,104.752454 4.65782608,102.323259 5.85272017,99.5512469 C17.5405579,75.522366 29.9457142,50.754572 43.0681893,25.2478649 L17.7292841,25.2478649 C12.7246805,32.1213991 7.60420038,38.2384882 2.36784366,43.5991324 C1.61924547,44.3654989 0.578998255,44.1459934 0.523017599,42.8625304 C-0.197528841,26.3426336 0.81478947,24.6881143 0.81478947,7.99241283 Z" id="Path-36" fill="#FFFFFF"></path>
                    <path d="M7.05741625,10.3989229 C5.90312339,10.4670356 5.12844107,11.5692811 5.12844107,12.9906202 C5.12844107,16.1579253 5.12844107,24.0928679 5.12844107,32.5057169 C5.2605577,33.8178956 6.26027059,34.2189353 7.05741625,33.4702912 C9.76027276,30.2628951 12.8706097,26.4164092 16.388427,21.9308335 L48.7442446,21.9308335 L14.3576415,95.7919548 L12.9267868,99.0538418 C11.7704343,100.930343 11.7704343,101.891794 12.9267868,101.938194 C33.1658378,102.750311 52.6582903,104.695264 69.7758748,104.695264 C71.0719416,104.695264 71.6697159,104.239592 71.8741323,102.483265 C72.3295655,90.3888798 73.2234491,86.4695454 73.9541325,74.1817461 C73.8876319,72.4685314 72.7137632,71.6756881 71.6269522,72.5329386 C62.9234263,84.0049893 57.8033235,92.5814897 53.2816552,92.5814897 C50.2672096,92.5814897 45.8248436,92.5814897 39.9545571,92.5814897 C38.0637357,92.2507665 37.5910304,90.6358257 38.5364411,87.7366673 C39.9545571,83.3879295 53.4839371,50.6170732 66.6243144,12.2201787 C67.9149158,8.44897147 65.0025777,8.59566116 64.1920221,8.59916828 C45.0306791,8.6820756 25.9858105,9.28199381 7.05741625,10.3989229 Z" id="Path-35" fill="#DF4A39"></path>
                </g>
                <g id="z-(2)" transform="translate(783.617806, 49.497480)">
                    <path d="M0.409625072,11.1328896 C0.684489849,8.4023706 1.79567784,8.45334586 3.92812166,8.26110673 C33.9668529,6.53507903 53.3705051,3.93107233 84.4953913,1.04198202 C86.4139921,1.03037561 87.3788159,3.33521907 86.5594848,5.79425181 C72.065791,49.2937219 65.9885041,47.3950019 51.2503003,90.9668864 C50.6035996,93.8919664 51.2379907,93.7698271 53.3116061,94.071489 C61.3692988,94.071489 60.4268639,93.5302954 64.4006957,89.0869403 C69.2660934,80.0371117 73.3656029,69.3418666 81.0341143,57.9649841 C82.5246903,56.2729907 84.9182382,56.5240475 84.9749538,59.0114587 C83.7688719,78.6571685 83.2188411,94.8036836 82.4005591,116.215137 C82.0441634,119.018832 81.1494369,119.79532 79.0947818,119.79532 C45.0495534,118.278685 38.7344187,119.786194 7.4509075,118.068541 C4.93661408,117.728103 3.15788706,115.094099 4.43901722,112.088375 C23.2360488,73.0061905 41.7300998,36.0815929 45.1795987,29.6669668 C45.2928831,29.0488574 44.939266,28.6444575 43.6311302,28.6444575 C39.2168878,28.6444575 26.6532265,28.4957782 19.3328679,28.6444575 C18.8179916,28.6549148 18.5206843,29.5171264 18.2494627,30.0499369 C13.9336791,38.5282237 12.0159584,46.1405755 4.43901722,59.1298637 C3.82469945,60.1829999 2.57491029,59.6874388 2.4610492,58.3311578 C0.560214221,35.6889518 0.409625072,29.2362289 0.409625072,11.1328896 Z" id="Path-36" fill="#FFFFFF"></path>
                    <path d="M7.4720711,13.7826378 C6.2396396,13.8516568 5.41273484,15.0482495 5.41273484,16.585269 C5.41273484,20.0103558 5.41273484,35.5706749 5.41273484,44.6682316 C5.55377997,46.0872064 6.62105394,46.5208861 7.4720711,45.7113111 C10.357588,42.2428704 13.923918,35.7269777 18.1710613,26.163633 L51.545841,26.163633 L12.4590511,109.32155 L10.9314986,112.848917 C9.69699925,114.878143 9.69699925,115.917845 10.9314986,115.968021 C32.5383145,116.846236 57.0882002,118.360051 75.3625994,118.360051 C76.746255,118.360051 77.3844272,117.867293 77.6026582,115.968021 C78.0888698,102.889294 80.6445971,90.4521755 81.4246604,77.1642927 C81.3536657,75.3116422 80.1004664,74.4542707 78.9402082,75.3812914 C69.6484938,87.7870333 66.2350679,98.4583416 61.407823,98.4583416 C58.1896598,98.4583416 53.4470765,98.4583416 47.1800732,98.4583416 C44.1967557,98.7019179 43.6921047,96.9555398 45.6661201,93.2192072 C48.6271433,87.6147082 61.407823,60.8765685 81.4246604,12.9564141 C82.8024813,8.87827458 79.693326,9.03690311 78.8279926,9.04069566 C58.1143618,10.9144748 30.7994252,12.4762511 7.4720711,13.7826378 Z" id="Path-35" fill="#DF4A39"></path>
                </g>
                <g id="a" transform="translate(876.000000, 34.000000)">
                    <path d="M0.200888595,1.37309931 C2.51702583,27.5570888 2.39175423,31.3340412 4.36520871,58.1558354 C4.72684435,60.9234379 6.52186883,61.3159438 8.44988003,60.1636185 C17.1608156,48.4272139 26.9767617,34.6221251 42.6184905,35.2927822 C58.2602193,35.9634393 62.0629372,41.8274726 62.5264853,43.7582604 C62.8616453,44.9602203 62.8616453,49.759412 62.5264853,58.1558354 C38.9885015,62.4794173 20.4681175,75.1331343 6.96533323,96.1169865 C-9.37533554,129.649571 22.5373018,140.31506 30.930779,139.927364 C39.3242563,139.539669 48.9448539,140.140768 61.4765568,131.475599 C62.5264853,130.796629 65.1109949,127.848438 67.4316164,132.677313 C69.752238,137.506187 71.6104935,138.760167 74.4786466,138.760167 C77.3467997,138.760167 92.4260189,139.534103 104.367292,139.534103 C105.395293,139.424 105.179062,137.454986 103.26984,136.211376 C98.6644979,132.455202 95.8787293,130.10846 88.0291647,122.303822 C87.1057066,121.264376 86.4506626,118.633318 86.4145292,114.695037 C86.263796,98.2661861 86.263796,82.0402981 86.4145292,66.0173733 C86.3775994,45.1276149 81.3322472,29.753277 71.2784726,19.8943598 C54.1507227,3.65795684 26.7272763,9.08110318 17.555983,18.5465006 C17.4205631,18.6862631 17.2002281,19.0274989 16.7249506,18.3437287 C11.0515242,10.1815073 9.86511942,8.49603825 2.44186792,0.794966438 C1.57101603,-0.108477689 0.151576733,-0.0975559606 0.200888595,1.37309931 Z" id="Path-37" fill="#FFFFFF"></path>
                    <path d="M3.17021419,11.4214268 C3.01673408,7.84819532 6.3131786,10.1643659 7.26976238,11.4214268 C12.0840649,17.2958927 12.4869818,19.1780869 15.0669911,21.2855051 C16.4109425,22.438735 18.4161158,22.3814835 20.0716433,21.0123114 C23.5534579,18.012403 26.9851854,12.5718814 46.0083285,12.8847693 C65.0314716,13.1976571 78.6749025,27.2464754 82.0261716,50.3703495 C85.3774408,73.4942236 84.0785414,82.4759688 83.8119882,118.481904 C83.9018234,120.83281 84.6090642,122.255195 85.0947372,122.879039 C89.4706646,128.499884 92.154342,131.411974 95.6431707,134.451828 C96.866959,136.120584 96.6948193,137.034744 94.7864487,137.034744 C90.2612811,137.034744 76.7518673,137.496226 73.7190977,135.542312 C72.1415589,134.337353 69.5850564,131.646589 67.9528328,127.169567 C67.6707552,126.26431 66.7112048,124.653939 65.112522,125.729115 C59.3536218,129.602199 49.7392029,137.333031 36.5373972,137.333031 C19.6153832,137.333031 5.74488057,127.660745 5.74488057,117.039564 C5.74488057,106.418383 10.0473162,88.7710835 30.1728727,74.7606604 C45.4079786,64.1547286 50.6715561,62.4554537 62.1233175,61.5238102 C64.1736536,61.3570078 64.853394,60.1465657 65.112522,58.5496939 C65.6592185,54.6177419 65.6592185,49.6096501 65.112522,43.5254185 C64.6181893,38.1498799 58.0036648,34.6166889 45.2689484,32.9258455 C26.1668738,30.3895804 14.860702,49.9152164 8.9127713,54.7011856 C7.39882419,55.4168956 6.03733584,55.1453434 5.70769581,53.1464181 C4.64680282,38.3903583 4.43713521,26.9451021 3.17021419,11.4214268 Z" id="Path-38" fill="#DF4A39"></path>
                    <path d="M57.1874149,79.5247977 C59.1701849,79.3803527 60.5952255,80.1863401 61.4625368,81.9427599 C61.6182706,96.128448 60.3962825,105.120714 57.7965725,108.919559 C53.8970075,114.617825 45.6270295,123.218701 42.3010431,124.107826 C31.8735707,126.239302 27.0360234,124.08001 26.095417,120.600439 C24.4314487,114.444946 24.8353061,108.414051 27.4454118,102.840507 C32.2679884,94.1775106 36.6240757,84.9631209 57.1874149,79.5247977 Z" id="Path-39" fill="#FFFFFF"></path>
                    <ellipse id="Oval-4" fill="#000000" transform="translate(44.500202, 103.548999) rotate(35.000000) translate(-44.500202, -103.548999) " cx="44.5002019" cy="103.548999" rx="11.0207368" ry="21.3393745"></ellipse>
                </g>
            </g>
        </g>
    </g>
</svg>