<svg height="506" viewBox="0 0 421 506" width="421" xmlns="http://www.w3.org/2000/svg"><g fill="none" fill-rule="evenodd" transform="translate(0 -22)"><path d="m206.268191 178.334843c1.960383 1.184728 1.960383 3.738902 0 7.662522-1.226587 2.374531-.150786 4.663441 3.227402 6.866731 3.378188 2.203291 8.18639 5.345706 14.424607 9.427248 3.338866 1.927086 4.791712.644687 4.358538-3.847196-.649762-6.737826 1.054775-8.093109 1.776328-10.226725 19.052737-1.483045 17.255013.887961 22.760862-6.263041 2.013627.530326 2.076602 1.357714 4.884457 4.710574 1.955248 4.807973 25.319475 56.920332 29.211874 63.236593 2.594933 4.210841 2.31779 8.127146-.831429 11.748914-2.441625 3.650324-1.345074 7.030422 3.289653 10.140294 6.95209 4.664808 12.103681 7.963361 27.707507 10.612823s42.707717 18.589304 43.866002 60.007988c.772191 27.612456-3.516188 49.78492-12.865135 66.51739-8.434907 7.386083-19.503599 11.226831-33.206074 11.522243-20.553713.443119-7.262501 22.302714-4.698908 25.007125 19.500104 13.699092 21.067293 16.303909 22.306309 16.325347 1.239016.021439 12.30945 5.819487 12.641326 7.873795.331875 2.054307-1.370379 2.794984-8.079771 3.188443-4.472929.262305-19.70082 1.075968-45.683675 2.440987-5.213769-.119162-8.199703-2.97458-8.9578-8.566252-1.137147-8.387509-2.110861-12.073001-6.181027-13.079214-4.070165-1.006214-17.51999 7.713471-24.034442 15.085079-6.514451 7.371608-19.547519 22.290628-23.906057 40.588391-3.457963 11.587118-13.358223 12.999319-17.684385 13.575843-4.326162.576523-24.650416 3.350972-28.824672 4.628713-4.174255 1.277742-9.880148-3.344963-1.050888-9.700242 8.82926-6.35528 24.337179-15.175901 23.86657-27.08759-3.195104-11.198828-1.240182-36.385956 0-43.492782 1.240183-7.106826 4.901787-21.144853-4.761659-20.204687-9.663445.940166-26.099044 2.09116-31.935698-.940166-3.891103-2.020884-5.151526-6.197565-3.78127-12.530042-.366608-3.746147-1.040756-5.291144-2.022444-4.634991-1.472533.98423-.99136 9.103539-.822622 14.596088.168739 5.49255-3.020539 4.365612-1.21243 8.354195 1.80811 3.988584 5.4454 4.818459 4.057496 6.45524-1.387905 1.63678-4.088929 1.382377-5.70602-.520205-1.617092-1.902583-3.650416-7.608948-.880653-14.28923 1.151981-5.928472-.643175-10.256777-1.181342-11.752453s-.406907-4.539359-3.786167-.874781c-3.37926 3.664579-3.284619 3.34147-3.066579 3.978817.145359.424897.218039 1.20077.218039 2.327618-1.323698 7.001835-2.614886 10.499854-3.873566 10.494056-1.888019-.008697-4.429328-3.506646-.77318-11.589223 3.656147-8.082577 6.191523-10.783741 8.736488-11.751563s2.048287-5.054043-4.089742-3.849753c-3.873566 2.032137-6.851782 6.583219-10.683728 2.533855-3.831945-4.049364-4.767879-12.988776-2.025303-15.124859s.209964-7.501966-1.584048-9.11521c-1.794011-1.613244-.871536-5.040377 3.609351-8.545574 4.480888-3.505197 3.949352-5.144324 0-6.072804-2.632901-.618986-4.511108-1.761498-5.634622-3.427534-.89154-2.162428-2.267537-3.001242-4.127992-2.516442-2.790682.727201-6.153262-8.084966 0-8.105252 6.153263-.020286 10.990687.488909 18.193358 5.903623 4.801781 3.609809 4.00386-.93219-2.393762-13.625999-9.480702-19.954024-19.751284-29.855431-30.811748-29.704222-11.060464.15121-17.8760356 2.938592-20.4467148 8.362149-3.6147027 2.921083-7.6981649 1.376957-12.2503865-4.632379-6.8283325-9.014004-16.369834-11.798858-15.388238-19.507114s10.9246465-17.134662 20.9133925-16.710551 24.3077098 2.80892 29.1168728 1.692913c4.809164-1.116008 7.383819-5.862227 1.039858-5.049246-6.34396.812981-22.7463522-11.454714-21.1732853-21.082466 1.5730668-9.627752 1.9129269-11.893676-6.7943465-8.717555-8.7072734 3.176122-44.3688121 9.27551-41.462858-23.058623.7367678-7.045178 4.0019079-13.643884 9.79542-19.796119 3.2395246-2.614888 2.3233151-5.456495-2.7486287-8.52482-7.6079156-4.602487-10.8209965-10.484391-7.6079156-21.934034s9.1653332-21.65906 25.5946578-19.787344c16.4293245 1.871716 27.2200993-2.98624 39.3989393-25.550198 12.178839-22.563958 42.161699-18.143054 49.852005-14.237295 7.690306 3.90576 14.303943 15.493059 10.053828 30.893805-.295906 1.475236-.443859 2.839234-.443859 4.091995 16.87037 16.274032 28.395014 25.998825 34.57393 29.174379z" fill="#000"/><path d="m297.776436 118.380343c62.132035 0 125.139084-25.5845921 125.493848-46.3453271.837475-29.007857-59.40465-40.359965-121.536684-40.359965s-120.530531 19.4996577-120.47161 50.0824794c2.677552 22.4681647 54.382412 36.6228127 116.514446 36.6228127z" fill="#000" transform="matrix(.9612617 .27563736 -.27563736 .9612617 32.38988 -80.410576)"/><g fill="#fff"><path d="m302.173003 185.814044c30.099519 0 40.204161-69.434429 36.619175-113.7310527-3.584985-44.2966239-13.281513-112.3431714-39.440441-112.2964791-24.694889-1.4402761-29.068425 49.64096703-31.477382 91.4978852-1.122306 19.5006724-3.94642 43.7518011.309299 70.8019716 4.878905 31.011251 17.912861 63.727675 33.989349 63.727675z" transform="matrix(.25881905 -.96592583 .96592583 .25881905 154.048644 346.330875)"/><path d="m192.682377 350.111678c-6.384662-5.982774-13.552737-1.754375-21.504227 12.685196-.899828 3.116642-2.485933 43.562357-3.114122 49.935363-.418793 4.248671 1.216853 6.466443 4.90694 6.653316 62.669985-.279511 101.097511-1.458275 115.282577-3.536291 21.2776-3.117025 44.44932-6.530726 50.197467-9.61322 3.832099-2.054995 5.748148-4.904145 5.748148-8.54745 9.257599-34.548027 11.280343-60.052431 6.068232-76.513211-7.818167-24.691171-28.754085-31.979983-39.731793-32.170762s-23.187561 5.583866-25.1044 7.110852c-1.916838 1.526986-5.02377 4.882343 4.909255 8.32102 6.622017 2.292452 10.414321 3.926008 11.376913 4.900667 1.399641 1.494081 1.248886 2.416449-.452264 2.767102-2.551725.52598-27.475581 4.375211-34.646489 4.345567-7.170907-.029643-17.60516-3.676154-20.524856-5.304969-4.772093-1.8077-9.506288 0-17.752385 4.579501-1.353817.483646-13.240149 11.946085-35.658996 34.387319z"/><path d="m295.222838 423c-48.100657.974225-73.803253 1.316029-77.107788 1.025411s-5.306888 3.672067-6.007059 11.888055c-2.516654 27.434144-3.373742 45.988597-2.571265 55.66336.639951 3.645348-1.630688 8.295484-6.811916 13.950411l-12.158204 12.263711c-3.146417 3.403059-1.553318 4.191448 4.779297 2.365168 6.332615-1.826281 14.484166-4.802045 24.454653-8.927292 6.372564-23.118739 16.78567-41.144623 31.23932-54.07765 14.453649-12.933027 25.327248-17.028249 32.620796-12.285665 3.291174 2.478889 4.976711 7.872047 5.056612 16.179474.049904 3.658549 2.218422 5.487823 6.505554 5.487823h32.229869l-18.356511-12.97805c-7.646354-5.099329-11.870168-12.323852-12.671444-21.67357-.206427-1.533134-.607065-4.49353-1.201914-8.881186z"/><path d="m205.432529 292.50424c-35.743504-1.460956-57.899116-5.856903-66.466836-13.187841-3.780776-3.088532-6.69343-3.088532-8.737963 0-3.443911 7.8304-7.976495 11.80436-13.597753 11.92188-5.621258.117521-12.4333-.615233-20.4361276-2.198263-7.0859753-1.613362-12.4955775-1.240983-16.2288065 1.117139s-6.4424445 4.591552-8.1276464 6.700292c-1.4462211 1.844603-1.0191759 3.783662 1.2811356 5.817176s6.447645 5.464631 12.4420004 10.29335c3.58181 2.338529 7.5022567 2.468662 11.7613404.3904 6.3886251-3.117394 23.6419981-6.688682 32.9058571 0 6.175907 4.459121 12.854812 14.746241 20.036717 30.861359 5.845421 9.483154 12.118759 12.331707 18.820015 8.545659s18.530888-10.573291 35.488898-20.36173l-14.669241.505537c4.513191-3.014757 6.496675-5.919577 5.950452-8.71446-.819334-4.192325-4.208832-14.728322 0-19.70081 4.208832-4.972487 8.176445-4.55918 9.577958-6.174654 3.065068-3.45061 3.065068-5.388955 0-5.815034z"/><path d="m252.742131 182c.109888 9.591353-1.241212 12.990435 13.629951 41.646958 3.468975 7.163042 7.837628 16.010603 13.10596 26.542682-1.449112 12.357565-6.686958 19.370928-15.713537 21.040089-2.907393.648685-3.747016 2.355438-2.518869 5.120257 2.931231.724327 6.550573.052033 10.858025-2.016883 4.307453-2.068916 8.331593-1.396621 12.07242 2.016883 4.564835 2.830333 6.89473 4.634698 6.989685 5.413094.142433 1.167595-3.218458 7.790881-16.569294 6.665137-6.552246-4.867674-13.569068-9.108293-19.010341-9.630194-5.441272-.521901-9.795486-1.325531-7.880912-7.568294 1.15423-1.534725 6.036675-6.36723 6.958794-10.260385.922118-3.893154 5.855874-29.455826-12.756307-47.431955-2.953131-2.934498-6.854044-5.059705-6.365045-9.957754.488999-4.898048.884831-9.174649-1.57074-10.541429-1.033394-1.798537-2.357368-3.418965-3.971921-4.861286 13.285398-1.041787 20.866108-3.100761 22.742131-6.17692z"/><path d="m134.900846 211.973001c-15.690623 12.36401-24.35838 20.128533-26.003271 23.293567-2.467337 4.747552-7.690268 20.337931-3.025585 27.631678 4.664684 7.293748 9.678662 8.539891 16.066204 7.293748 6.387542-1.246144 10.993862-1.863201 18.355329 1.246143 7.361468 3.109343 21.018957 9.69189 47.945442 12.863797 13.155754 2.507095 32.657418-1.430244 41.568259-4.756535 24.343953-9.087254 23.487847-24.841972 22.048014-30.50661-.158409-.62322-.236959-3.971076-3.944791-1.464048-3.558935 5.280107-15.375329 16.333151-30.728361 21.271356-12.672252 4.075949-27.9242 10.425558-30.197589 2.016471-.451305-1.669342 13.284284-2.016471 25.474727-5.032175 11.987611-2.965527 24.851481-11.913273 30.237086-20.783949 5.610511-9.24112 8.747809-12.605068 0-21.492653-11.862817-12.052367-13.17176-5.990112-24.791659-17.064483-4.093314-3.248705-8.346917-.98065-16.468798 2.926185-1.027407.49421-4.30264 1.876042 2.892236 5.26505 1.764731 1.390861 6.938264 2.26175 5.225038 9.96072-.572047 2.570688 4.054029 5.251227 10.77914.411271 5.958342-2.060964 6.846844-2.241865 6.301958-1.010476-1.339846 3.027921-3.084475 7.452511-12.441907 9.187979-5.97016 1.107251-4.224174 4.965498-10.278533 6.802128-6.043539 1.833348-11.430139 1.628835-16.457665.507711-2.435923-.543204 2.506936-3.586636 7.995263-3.677399 5.488326-.090764 6.543384-2.535535 8.462402-4.144715 2.393219-2.006819 0-4.315382-5.986106-3.571186-2.17763.277321 2.662075-5.488185-.41329-7.851201-5.521338-4.242424-8.679639-3.656947-12.678895-6.614832-1.42004-.710679-1.417768-6.408987 7.741796-12.055439 5.350389 1.728777 8.801121-.626441 9.983171-3.592606 2.782001-5.870454-3.467901-11.200862-7.109078-12.271363-6.202745-1.823598-19.335894 0-28.598003 1.598159-5.364302.925599-7.248161 5.589292-7.978079 6.875649-5.648994 9.955398-12.387137 23.430889-20.70682 29.40632-5.546455 3.98362-5.026347-.768415 1.560326-14.256106.450533-2.219094.074271-2.720132-1.128786-1.503113s-2.436116 2.247338-3.699175 3.090957z"/></g><path d="m165.56191 222.529004c2.485281 0 4.615536-4.825608 4.615536-8.415459 0-1.81262-.587868-4.171472-1.78788-5.502527-1.176581-1.305066-2.953274-1.600199-4.183664-1.600199-2.485281 0-3.028456 3.512875-3.028456 7.102726s1.899183 8.415459 4.384464 8.415459z" fill="#000" transform="matrix(.95105652 .30901699 -.30901699 .95105652 74.476384 -40.685559)"/><path d="m179.004824 172.800105c-13.245229 7.275277-21.565986 11.523637-24.962272 12.745081-5.09443 1.832166-33.248987 29.233382-37.350163 32.208453-2.734117 1.983382-8.227165 7.09148-16.479145 15.324295-1.5136209 1.373009-2.502551 1.736962-2.9667903 1.09186-5.1083737-7.098545-4.1901277-13.228735-9.8069794-13.795566-5.6168517-.566832 2.9371292 11.904567 1.2388725 17.454744-1.0363274 3.386884-8.9939492 2.56182-10.5992443 2.525162-11.638691-.26578-33.9038591-3.427769-20.0013492-24.514871 6.2167448-10.208273 9.7230367-15.584744 13.5479518-17.756173 2.5499434-1.447619 1.9556594-3.172177-1.7828522-5.173673-14.4273197-3.329971-19.5859801-10.124071-15.4759812-20.382299 6.1649985-15.387341 18.9952098-14.819569 19.9046033-5.514815.6062624 6.203169 3.5513305 6.203169 8.8352042 0 7.008112-5.669735 16.7407313-8.054378 29.1978578-7.153928 4.481487.394166 5.944104-.866272 4.387852-3.781314-7.20261-6.607877-7.497422-13.422739-.884435-20.444586 9.919481-10.532771 38.128078-28.453457 49.974799-8.907428 4.033282 6.915804 2.763128 17.960246-3.81046 33.133328.003629 3.868697 1.707993 4.65283 5.113093 2.352401 3.4051-2.30043 7.235169-1.753405 11.490205 1.641074 1.74615 1.246516 2.853306 2.742518 3.32147 4.488009s-.495915 3.232239-2.892237 4.460246z" fill="#fff"/><path d="m208.066393 139.575418c4.480402-.479574 12.105665-.707188 16.101856 0 3.996191.707187 11.834383-.256211 2.233632-5.322072-9.600752-5.065861-17.360883-11.049134-17.539032-13.980679-.17815-2.931545-.151099-3.384841 9.075964.779066 6.151375 2.775938 13.933662 6.875309 23.34686 12.298113 2.5281 1.096205 3.579479 3.171396 3.154135 6.225572-.638014 4.581263 9.244453.906205 10.684334 0 1.439881-.906206 16.075578-1.757923 7.322679 14.069947-5.291156 4.191344-9.155957 5.290383-9.120018 16.753783.035939 11.463399-20.729879 12.04422-26.487084 11.463399-5.757205-.580822-9.441538-11.51982-10.052115-17.434693-.610578-5.914873-6.443525-13.364948-10.47411-14.421479-4.030584-1.056531-2.376615-8.525801 1.752899-10.430957z" fill="#000"/><path d="m150.146853 394.002217c5.685519 0 10.98244-2.64591 10.98244-4.740575s-4.964295-2.590069-10.649814-2.590069c-1.214782 0-4.711627-2.032257-5.793665-1.889913-3.982202.523866-6.710032 4.655515-6.710032 6.302628 0 1.056845-.924987 3.261089 1.441223 3.728191 2.323615.458694 7.912907-.810262 10.729848-.810262z" fill="#fff" transform="matrix(.81915204 -.57357644 .57357644 .81915204 -196.574861 156.231134)"/><path d="m149.647932 379.103651c5.916225 0 13.041396-2.996106 9.950112-5.444422s-2.980455-3.938861-8.89668-3.938861-12.545997 3.022423-12.545997 5.684725c0 1.489035 2.791116 3.764096 5.148587 4.648346 1.857537.696733 3.73672-.949788 6.343978-.949788z" fill="#fff" transform="matrix(.87461971 -.48480962 .48480962 .87461971 -163.077397 119.372181)"/><path d="m137.514004 367.729797c1.380712 0 1.428128-3.760249 1.428128-8.178527 0-1.63351 2.17489-4.652657 2.034897-6.579661-.238657-3.28511-2.952878-5.256068-3.823118-5.256068-.930534 0 .22934 2.79763-.094448 6.399989-.156644 1.742764-1.578444 2.092702-1.578444 3.533271 0 4.418278.652273 10.080996 2.032985 10.080996z" fill="#fff" transform="matrix(.42261826 -.90630779 .90630779 .42261826 -244.394056 331.823514)"/><path d="m215.536097 146.719717c8.55676-.837701 15.023506-.837701 19.400238 0 6.565099 1.256553 14.099139 2.513105 15.355691 1.256553 1.256553-1.256553 7.593641-2.965464 8.052826-1.256553.459184 1.708911 1.530613 5.49526-3.63149 7.412355-5.162104 1.917096-6.093326 8.525108-4.421336 10.535592 1.671991 2.010484-.563033 7.258841-8.375687 10.222753-7.812653 2.963912-16.96913 3.356356-19.335792-5.336505-2.366663-8.692861-3.972257-18.058055-7.04445-19.242006-2.048129-.789301-2.048129-1.986697 0-3.592189z" fill="#fff"/><path d="m50.0381861 297.705922c-5.2663885 2.727666-11.8959462 5.752636-22.4089966 5.052532-10.5130503-.700103-11.5552488 3.015997-10.0211091 5.098043 1.5341396 2.082047 3.7462344 3.921742 1.6064125 7.12475 8.1252581 3.762971 19.9627215 5.882452 32.1884886 4.417984 12.2257671-1.464467 14.5540674-6.016961 17.5310288-6.072428s10.4947868 3.221152 0 8.07182-35.1194866 8.870682-56.0042137 1.0302c-20.88472716-7.840481-10.83029528-33.878916-8.18410734-35.818913 2.64618793-1.939997 3.64865484-3.215661 14.46880364 2.817792 10.8201489 6.033452 20.8906652 5.501899 25.0903066 4.926906 4.1996414-.574992 8.5088586 1.347014 5.7333866 3.351314z" fill="#000"/><path d="m50.8743487 297c-6.7865433 3.258222-15.6065003 4.867945-26.4598708 4.829171s-13.2236716 2.704174-7.1109034 8.228846c.7673362 3.303987.7673362 5.024856 0 5.162607-1.1510043.206627 13.9242107 6.492672 28.4097167 6.206456 14.485506-.286217 19.8836933-5.99393 22.0236939-7.875509 1.426667-1.254385-4.1942117-6.771576-16.8626364-16.551571z" fill="#fff"/><g fill="#000" transform="translate(225 118)"><path d="m59 31c3.3137085 0 7.1525608-3.4042138 7.1525608-5.3372104s-3.8388523-1.6627896-7.1525608-1.6627896-6 1.5670034-6 3.5 2.6862915 3.5 6 3.5z"/><path d="m56.5015908 14.981542c5.5228475 0 17.0760588-1.7331798 17.0760588-3.9423188 0-2.20913903-.238938-2.20753452-5.7617855-2.20753452s-14.7191884-2.29910636-14.7191884-.08996736c0 2.20913898-2.1179324 6.23982068 3.4049151 6.23982068z" transform="matrix(.97437006 .22495105 -.22495105 .97437006 4.178631 -13.911157)"/><path d="m119 19c4.418278 0 8-2.0147186 8-4.5s-3.581722-2.5120443-8-2.5120443-7.988301-2.48528137-7.988301 0c0 2.4852814 3.570023 7.0120443 7.988301 7.0120443z"/><path d="m151.479137 20.1870944c10.217268 0 16.356137-3.4579979 16.356137-5.9432793 0-2.4852813-6.138869 0-16.356137 0s-19.182127-2.4852813-19.182127 0c0 2.4852814 8.964859 5.9432793 19.182127 5.9432793z" transform="matrix(.99254615 -.12186934 .12186934 .99254615 -.912159 18.412667)"/><path d="m12.0756138 9.43916136c6.5470011 0 10.4806535-2.21580918 10.4806535-3.80832298 0-1.59251379-3.9336524 0-10.4806535 0-6.54700117 0-12.29148633-1.59251379-12.29148633 0 0 1.5925138 5.74448516 3.80832298 12.29148633 3.80832298z" transform="matrix(.89100652 .4539905 -.4539905 .89100652 4.477633 -4.288469)"/></g><path d="m214.174646 306.611271c-3.818518-4.525059-8.095487-4.797565-12.830908-.817519-7.10313 5.970069-.690371 12.550398-.630594 16.045127.059777 3.494728.480908 5.388716 0 6.286346-.480908.897629 12.810329-4.600596 20.587416-13.057275 7.777088-8.456679.291289-11.47197-2.74311-9.628449-2.022933 1.229015-3.483868 1.619604-4.382804 1.17177z" fill="#ff8700"/><path d="m248.189097 296.286601c-1.970674-.46871-4.578634 4.132257 2.152827 9.207058 6.73146 5.074801 16.563314 7.926893 19.557355 7.916629s4.668389-.326484 8.64341-1.906709c3.975021-1.580224 5.938509-.830731 6.380736-2.012624s-.946693-5.852684-6.380736-6.26543c-5.434042-.412745-16.047274-9.530048-16.727757-12.154147-.680484-2.624099-8.077796-3.706627-7.951789 2.624099.126007 6.330727-2.777463 2.320157-5.674046 2.591124z" fill="#ff8700"/><path d="m233.386059 298.202035c7.269874 0 5.584297-4.852576 5.584297-7.165718 0-2.313141-3.365942-6.315058-9.888233-3.9446-6.522291 2.370457-11.714607 2.476299-11.714607 4.789441s8.74867 6.320877 16.018543 6.320877z" fill="#ff8700" transform="matrix(.93969262 -.34202014 .34202014 .93969262 -86.201709 95.694196)"/><path d="m220.335582 237.767783c-8.493035 6.997223-15.096824 10.412384-19.811367 10.245484-7.071813-.250349-9.824519-3.230828-12.185411-2.189132-2.360891 1.041695-4.721782 13.385718-2.360891 14.47114 2.360891 1.085421 7.484894-2.250292 12.087386-3.40373 4.602492-1.153439 21.480366-8.450739 28.36899-15.049289 6.744873-4.074473 6.408501-6.056982 9.196073-6.022116s.609013-4.139633-3.705522-3.675228-7.096963.754479-8.737383 0c-1.640421-.754479-3.259694 1.596409-2.851875 3.373722.27188 1.184876.27188 1.934592 0 2.249149z" fill="#000"/><path d="m143.911043 300.033168c12.171512 6.639092 21.483465 9.915421 27.935859 9.828987 9.678591-.129652 8.655053-.100893 10.029829-1.531301 1.374775-1.430408.148038-5.487788-5.84044-4.953153s-22.045916-4.989927-26.05615-7.426429c-4.010234-2.436503-8.184536-2.76181-7.972379 0 .141437 1.841206.775865 3.201838 1.903281 4.081896z" fill="#000"/></g></svg>